<?xml version="1.0" encoding="utf-8"?>
<!-- Generator: Adobe Illustrator 17.0.0, SVG Export Plug-In . SVG Version: 6.00 Build 0)  -->
<!DOCTYPE svg PUBLIC "-//W3C//DTD SVG 1.1//EN" "http://www.w3.org/Graphics/SVG/1.1/DTD/svg11.dtd">
<svg version="1.1" id="Layer_1" xmlns="http://www.w3.org/2000/svg" xmlns:xlink="http://www.w3.org/1999/xlink" x="0px" y="0px"
	 width="2051px" height="2500px" viewBox="0 0 2051 2500" style="enable-background:new 0 0 2051 2500;" xml:space="preserve">
<style type="text/css">
	.st0{fill:#759C3F;}
	.st1{fill:#648339;}
	.st2{fill:#64833A;}
	.st3{fill:#4C612D;}
	.st4{fill:#3D4A2A;}
	.st5{fill:#B7CA9D;}
</style>
<g>
	<path class="st0" d="M1031.9,1001.2c65.6,6.3,131.2,12.4,196.7,19.1c113.1,11.4,226.2,23.6,339.4,34.7
		c152.2,14.8,304.4,28.9,456.6,43.1c8.4,0.8,16.9-0.4,25.4-0.6c0,99.7,0,199.3,0,299c-95,9.6-190.1,19.3-285.1,28.9
		c-175,17.7-350.1,33.7-524.7,54.6c-69.2,8.3-138.8,12.5-208.2,18.6C1032,1332.7,1032,1167,1031.9,1001.2z"/>
	<path class="st1" d="M221.5,757.3c-14.5-1.5-11.9-12.5-11.9-21.7c-0.1-98.7,0.5-197.3-0.5-296c-0.2-19.1,7.3-22.1,23.6-21.5
		c28.7,1,57.5,0.3,86.2,0.3c501,0,1001.9,0.3,1502.9-0.7c29.1-0.1,36.9,7,36.2,36.1c-2,91.9-0.6,183.9-1,275.8
		c0,9.3,6.3,21.9-8.7,26.9c-9.4-7.2-20.3-4.1-30.6-4.1c-522-0.2-1044-0.2-1566,0C241.6,752.4,230.4,748.8,221.5,757.3z"/>
	<path class="st2" d="M1838.8,1744.7c12.2,0.8,18.8,5.4,18.7,19.4c-0.5,99.6-0.4,199.2-0.1,298.7c0,12.9-3.3,20.2-17.7,18.8
		c-5.7-0.6-11.5-0.1-17.2-0.1c-526.6,0-1053.2-0.3-1579.8,0.7c-28.6,0.1-34.3-7.9-33.8-34.9c1.8-91.9,1-183.8,0.4-275.7
		c-0.1-16.7,2.1-28.4,22.2-26.9c11,5,22.7,2.9,34,2.9c513.1,0.1,1026.2,0.1,1539.3,0C1816.1,1747.7,1827.8,1749.7,1838.8,1744.7z"/>
	<path class="st3" d="M1031.9,1001.2c0,165.8,0,331.5,0,497.3c-68.6-6-137.2-11.3-205.7-18.2c-158-16-315.9-33.1-474-49.2
		c-109.5-11.2-219-22-328.5-32c-17.4-1.6-21.7-7.4-21.5-24.3c0.9-83.3,1.1-166.7-0.1-250c-0.3-19.6,7.7-24,24.3-25.6
		c166.7-15.7,333.4-31.4,500.1-48c157.1-15.7,314.1-32.5,471.1-48.7C1009,1001.3,1020.5,1001.6,1031.9,1001.2z"/>
	<path class="st4" d="M221.5,757.3c8.9-8.5,20-4.9,30.1-4.9c522-0.2,1044-0.2,1566,0c10.2,0,21.2-3,30.6,4.1
		c-43.7,19.4-87.8,37.8-131,58.3c-39.8,18.9-80.7,25.4-124.8,25.3c-382.3-1-764.5-0.7-1146.8-0.3c-23.5,0-45.3-3.5-66.7-13.1
		C326.6,803.2,274,780.4,221.5,757.3z"/>
	<path class="st5" d="M1847.8,1749c-11.1,5.2-23,3.1-34.5,3.1c-520.5,0.1-1041,0.1-1561.4,0c-11.5,0-23.4,2.2-34.5-3
		c27.6-29,68.1-30.6,99.9-50.9c58-37,121.9-38.3,187.8-38c365.1,1.5,730.2,1.1,1095.3,0.2c43.7-0.1,83.7,6.5,122.7,28.4
		c32.2,18.1,67.7,29.8,101.7,44.4C1833.4,1736.8,1844,1737.6,1847.8,1749z"/>
</g>
</svg>
