<?xml version="1.0" encoding="utf-8"?>
<!-- Generator: Adobe Illustrator 17.0.0, SVG Export Plug-In . SVG Version: 6.00 Build 0)  -->
<!DOCTYPE svg PUBLIC "-//W3C//DTD SVG 1.1//EN" "http://www.w3.org/Graphics/SVG/1.1/DTD/svg11.dtd">
<svg version="1.1" id="Layer_1" xmlns="http://www.w3.org/2000/svg" xmlns:xlink="http://www.w3.org/1999/xlink" x="0px" y="0px"
	 width="2051px" height="2500px" viewBox="0 0 2051 2500" style="enable-background:new 0 0 2051 2500;" xml:space="preserve">
<style type="text/css">
	.st0{fill:#9D5025;}
	.st1{fill:#F58536;}
	.st2{fill:#6B3A19;}
	.st3{fill:#FBBF93;}
</style>
<g>
	<polygon class="st0" points="103.5,473.8 0.7,525.2 0.7,1974.8 103.5,2026.2 510.6,1250 	"/>
	<polygon class="st1" points="342.9,1969.9 103.5,2026.2 103.5,473.8 342.9,528.6 	"/>
	<polygon class="st0" points="217,417.1 342.9,354.1 641.7,1250 342.9,2145.9 217,2082.9 	"/>
	<polygon class="st1" points="641.7,2061.4 342.9,2145.9 342.9,354.1 641.7,438.9 	"/>
	<polygon class="st0" points="483.6,283.8 641.7,204.8 1628.7,1250 641.7,2295.2 483.6,2216.2 	"/>
	<polygon class="st1" points="1708.6,1900.1 641.7,2295.2 641.7,204.8 1708.6,594.7 	"/>
	<polygon class="st2" points="1570.6,1055.1 1371.3,1067.8 820.6,1021.2 1024.9,13.1 	"/>
	<polygon class="st0" points="1024.9,1000.5 1024.9,13.1 820.6,115.3 820.6,1021.2 	"/>
	<polygon class="st1" points="1570.6,1055.1 1570.6,286 1024.9,13.1 1024.9,1000.5 	"/>
	<polygon class="st3" points="1570.6,1438.3 1381.7,1426.4 820.6,1473.9 1024.9,2486.9 	"/>
	<polygon class="st0" points="820.6,1473.9 820.6,2384.8 1024.9,2486.9 1024.9,1492.4 	"/>
	<polygon class="st1" points="1024.9,1492.4 1024.9,2486.9 1570.6,2214 1570.6,1438.3 	"/>
	<polygon class="st3" points="2049.6,1390.9 1932.3,1386 1628.7,1412.9 1757.1,2120.8 	"/>
	<polygon class="st1" points="1757.1,1419.8 1757.1,2120.8 2049.6,1974.5 2049.6,1390.9 	"/>
	<polygon class="st2" points="2049.6,1103 1932.3,1107.8 1628.7,1080.7 1757.1,379.2 	"/>
	<polygon class="st1" points="2049.6,1103 2049.6,525.5 1757.1,379.2 1757.1,1073.7 	"/>
	<polygon class="st0" points="1628.7,2086.9 1757.1,2120.8 1757.1,1419.8 1628.7,1412.9 	"/>
	<polygon class="st0" points="1628.7,413.1 1757.1,379.2 1757.1,1073.7 1628.7,1080.7 	"/>
</g>
</svg>
