<?xml version="1.0" encoding="utf-8"?>
<!-- Generator: Adobe Illustrator 17.0.0, SVG Export Plug-In . SVG Version: 6.00 Build 0)  -->
<!DOCTYPE svg PUBLIC "-//W3C//DTD SVG 1.1//EN" "http://www.w3.org/Graphics/SVG/1.1/DTD/svg11.dtd">
<svg version="1.1" id="Layer_1" xmlns="http://www.w3.org/2000/svg" xmlns:xlink="http://www.w3.org/1999/xlink" x="0px" y="0px"
	 width="496px" height="496px" viewBox="0 0 496 496" enable-background="new 0 0 496 496" xml:space="preserve">
<ellipse fill="#D6D9FF" cx="376.526" cy="461.523" rx="29.36" ry="21.023"/>
<rect x="347.167" y="344" fill="#D6D9FF" width="58.719" height="117.523"/>
<path fill="#191919" d="M496,184c0-63.473-49.559-115.449-112-119.594V0H0v432h336v24c0,22.055,17.945,40,40,40s40-17.945,40-40V336
	h-16v-34.414C454.703,290.434,496,241.953,496,184z M480,184c0,57.344-46.656,104-104,104s-104-46.656-104-104S318.656,80,376,80
	S480,126.656,480,184z M336,336v80H16V16h352v48.406C305.559,68.551,256,120.527,256,184c0,57.953,41.297,106.434,96,117.586V336
	H336z M400,456c0,13.23-10.77,24-24,24s-24-10.77-24-24V352h48V456z M384,336h-16v-32.406c2.656,0.176,5.297,0.406,8,0.406
	s5.344-0.23,8-0.406V336z"/>
<rect x="39.167" y="144" fill="#D6D9FF" width="116.667" height="91.68"/>
<rect x="39.167" y="296" fill="#D6D9FF" width="112.667" height="96"/>
<circle fill="#D6D9FF" cx="375.693" cy="182.294" r="78.628"/>
<path fill="#191919" d="M288,184c0,48.52,39.48,88,88,88s88-39.48,88-88s-39.48-88-88-88S288,135.48,288,184z M448,184
	c0,39.703-32.305,72-72,72s-72-32.297-72-72s32.305-72,72-72S448,144.297,448,184z"/>
<path fill="#191919" d="M384,456c0,4.418-3.582,8-8,8s-8-3.582-8-8s3.582-8,8-8S384,451.582,384,456z"/>
<path fill="#191919" d="M348.441,201.344l-8.883,13.313l31.547,21.023l44.055-88.105l-14.32-7.148l-35.945,71.895L348.441,201.344z"
	/>
<path fill="#191919" d="M143.383,267.078l-14.766-6.156L117.336,288H32v112h128V288h-25.336L143.383,267.078z M144,304v80H48v-80
	h62.672l-17.457,41.895l-15.551-15.551l-11.313,11.313l32.449,32.449L128,304H144z"/>
<path fill="#191919" d="M143.383,115.078l-14.766-6.156L117.336,136H32v112h128V136h-25.336L143.383,115.078z M144,152v80H48v-80
	h62.672l-17.457,41.895l-15.551-15.551l-11.313,11.313l32.449,32.449L128,152H144z"/>
<path fill="#191919" d="M224,64h16v16h-16V64z"/>
<path fill="#191919" d="M32,64h176v16H32V64z"/>
<path fill="#191919" d="M176,288h96v16h-96V288z"/>
<path fill="#191919" d="M176,320h96v16h-96V320z"/>
<path fill="#191919" d="M176,352h96v16h-96V352z"/>
<path fill="#191919" d="M176,384h96v16h-96V384z"/>
<path fill="#191919" d="M176,136h64v16h-64V136z"/>
<path fill="#191919" d="M176,168h64v16h-64V168z"/>
<path fill="#191919" d="M176,200h64v16h-64V200z"/>
<path fill="#191919" d="M176,232h64v16h-64V232z"/>
<path fill="#191919" d="M32,32h208v16H32V32z"/>
</svg>
