<?xml version="1.0" encoding="utf-8"?>
<!-- Generator: Adobe Illustrator 17.0.0, SVG Export Plug-In . SVG Version: 6.00 Build 0)  -->
<!DOCTYPE svg PUBLIC "-//W3C//DTD SVG 1.1//EN" "http://www.w3.org/Graphics/SVG/1.1/DTD/svg11.dtd">
<svg version="1.1" id="Capa_1" xmlns="http://www.w3.org/2000/svg" xmlns:xlink="http://www.w3.org/1999/xlink" x="0px" y="0px"
	 width="200px" height="199.3px" viewBox="0 25.4 200 199.3" enable-background="new 0 25.4 200 199.3" xml:space="preserve">
<path fill="#D6D9FF" d="M140.1,81.5c-11.8-1.1-22.7,5.3-30,14.7c-4,4.2-8.2,8.8-7.7,14.7c-1.2,3.9-1.8,7.9-1.6,11.8
	c0.2,5.9,8.6,6.4,9.9,1.4c1.2,0.2,2.6,0.1,3.7-0.4c4.3-1.9,9.2-4.7,14-3.4c5.2,1.4,8.1,3.9,13.7,2c4.9-1.7,10.6-2.2,15.7-1.3
	c3.7,0.6,7.4,4.2,10.9,5.7c2.5,1,5.5-1.1,6.2-3.5C180.2,102.4,159.6,83.3,140.1,81.5z"/>
<path fill="#D6D9FF" d="M146.3,212c-0.1-4-1.9-7.7-3.3-11.5c1.3-0.9,2.4-2.2,3.2-3.7c3.5-7.3-8.1-14.8-11.8-7.9
	c-3.4,1.5-5.4,4.9-3.1,9.2c0.1,0.2,0.2,0.4,0.3,0.6c-0.8,5.6-0.6,11.4-1.3,16.9c-0.3,2.7,2.5,5,5,5c1.6,0,3.5-0.1,5.3-0.5
	c0.7,0.3,1.4,0.4,2.2,0.5c2.7,0.2,5-2.4,5-5C147.8,214.2,147.2,212.9,146.3,212z"/>
<path fill="#D6D9FF" d="M53,120.5c-1.6-1.9-4.7-1.8-6.6-0.4c-0.9-0.2-1.8-0.3-2.8-0.1c-4.4,0.6-7.7,4.1-7.8,8.5
	c0,4.5,3.4,7.9,7.3,9.3c4.3,1.6,9.3-0.6,11.5-4.5C57.1,129.1,56.1,124,53,120.5z"/>
<path fill="#D6D9FF" d="M93.2,51.2c-1.6-1.1-3.7-1.2-5.5-0.3c-3.1,1.7-5,5-5.2,8.4c-0.1,1.9,0.8,4.2,2.3,5.4
	c2.2,1.7,4.4,2.2,7.2,1.8c1.5-0.2,3.3-1.4,4.2-2.6c1.4-1.6,2.1-3.4,2.3-5.5C99,54.9,96.4,52,93.2,51.2z"/>
<g>
	<g>
		<path fill="#191919" d="M180,127.5v-8.9c0-23-18.7-41.8-41.8-41.8c-1.7,0-3.4,0.1-5.1,0.3C125.9,47,98.7,25.4,67.5,25.4
			C30.3,25.4,0,55.6,0,92.9s30.3,67.5,67.5,67.5c12.3,0,24.3-3.4,34.8-9.7c0.2,0,0.4,0.1,0.5,0.1h4.6c1.1,3.1,3,6,5.4,8.4l11.6,11.4
			c1.8,1.8,4.2,2.8,6.7,2.8h14c2.5,0,4.9-1,6.7-2.7l10.3-10.1h4.8c5.3,0,9.6-4.3,9.6-9.6v-0.6c3.7-1.3,6.4-4.9,6.4-9.1v-6.4
			C183.2,131.8,182,129.3,180,127.5z M58.6,32.5C54.1,37.2,48.2,44.3,43,53.4c-7.1-2.8-11.2-6.4-13.1-8.5
			C38.1,38.4,47.9,34.1,58.6,32.5z M25.1,49c2.4,2.7,7.1,6.8,15,10c-4.2,8.8-7.3,19.1-7.8,30.6H6.6C7.4,73.7,14.3,59.4,25.1,49z
			 M25.1,136.7C14.3,126.3,7.4,112,6.6,96.1h25.7c0.3,7.5,1.8,15,4.4,22.4c-2.8,2.4-4.6,5.8-4.6,9.8c0,0.8,0.1,1.6,0.2,2.4
			C29,132.9,26.6,135,25.1,136.7z M29.9,140.9c1.1-1.2,2.8-2.8,5.3-4.5c2.4,2.8,5.9,4.6,9.8,4.6c1.1,0,2.2-0.2,3.3-0.5
			c3.7,5.2,7.3,9.5,10.4,12.6C47.9,151.6,38.1,147.3,29.9,140.9z M38.6,128.2c0-3.5,2.9-6.4,6.4-6.4s6.4,2.9,6.4,6.4
			s-2.9,6.4-6.4,6.4S38.6,131.8,38.6,128.2z M64.3,149.8c-2.9-2.9-6.6-7.1-10.4-12.3c2.3-2.2,3.7-5.2,3.9-8.6
			c2.1-0.3,4.3-0.4,6.5-0.5V149.8z M64.3,121.9c-2.7,0.1-5.3,0.3-7.8,0.6c-2.1-4.2-6.4-7.2-11.5-7.2c-0.8,0-1.6,0.1-2.4,0.2
			c-2.2-6.5-3.5-13-3.8-19.5h25.6V121.9z M64.3,89.6H38.7c0.5-10.6,3.5-20.2,7.5-28.4c5,1.4,11,2.4,18,2.6V89.6z M64.3,57.4
			c-5.8-0.2-10.7-0.9-14.9-2c5.1-8.6,10.8-15.3,14.9-19.4V57.4z M109.9,49c8.1,7.8,14.1,18,16.9,29.4c-7.2,2.1-13.6,6-18.7,11.2
			h-5.4c-0.3-7.5-1.8-15-4.4-22.4c2.8-2.4,4.6-5.8,4.6-9.8c0-0.8-0.1-1.6-0.2-2.4C106.1,52.8,108.4,50.6,109.9,49z M105.1,44.8
			c-1.1,1.2-2.8,2.8-5.3,4.5c-2.4-2.8-5.9-4.6-9.8-4.6c-1.1,0-2.2,0.2-3.3,0.5c-3.7-5.2-7.4-9.5-10.4-12.6
			C87,34,96.8,38.4,105.1,44.8z M96.4,57.5c0,3.5-2.9,6.4-6.4,6.4s-6.4-2.9-6.4-6.4s2.9-6.4,6.4-6.4S96.4,54,96.4,57.5z M70.7,35.9
			c2.9,2.9,6.6,7.1,10.4,12.3c-2.3,2.2-3.7,5.2-3.9,8.6c-2.1,0.3-4.3,0.4-6.5,0.5V35.9z M70.7,63.8c2.7-0.1,5.3-0.3,7.8-0.6
			c2.1,4.2,6.4,7.2,11.5,7.2c0.8,0,1.6-0.1,2.4-0.2c2.2,6.5,3.5,13,3.8,19.5H70.7V63.8z M70.7,128.4c5.4,0.2,10.4,0.9,14.9,2.1
			c-5,8.6-10.8,15.2-14.9,19.4V128.4z M76.3,153.3c4.5-4.7,10.4-11.8,15.6-20.9c0.5,0.2,1,0.4,1.5,0.6c-0.1,0.5-0.2,1.1-0.2,1.6v6.4
			c0,2.3,0.9,4.4,2.2,6.1C89.4,150.2,83,152.3,76.3,153.3z M96.4,127.3c-7.3-3.3-15.9-5.1-25.7-5.4V96.1h32.3
			c-4.2,6.5-6.6,14.2-6.6,22.5V127.3z M102.9,144.3c-1.8,0-3.2-1.4-3.2-3.2v-6.4c0-1.8,1.4-3.2,3.2-3.2h3.2V143c0,0.4,0,0.8,0.1,1.3
			H102.9z M163.9,143c0,4-1.6,7.9-4.3,10.9h-21.4v6.4h14.9l-5.6,5.5c-0.6,0.6-1.4,0.9-2.2,0.9h-14c-0.8,0-1.6-0.3-2.2-0.9
			l-11.6-11.4c-3.1-3-4.8-7.2-4.8-11.5v-13.1l4.4-2.9c2.8-1.8,6.3-2.5,9.5-1.6l11.8,3l11.8-3c3.2-0.8,6.7-0.2,9.5,1.6l4.4,2.9V143z
			 M163.1,121.6c-4.3-2.8-9.7-3.8-14.6-2.5l-10.3,2.6l-10.3-2.6c-4.9-1.2-10.3-0.3-14.6,2.5l-5,3.4h-5.5v-6.4
			c0-19.5,15.9-35.4,35.4-35.4s35.4,15.9,35.4,35.4v6.4h-5.5L163.1,121.6z M167.6,153.8c0.5-1,1-2.1,1.4-3.1h1.4
			C170.4,152.3,169.1,153.6,167.6,153.8z M176.8,141.1c0,1.8-1.4,3.2-3.2,3.2h-3.3c0-0.4,0.1-0.8,0.1-1.3v-11.6h3.2
			c1.8,0,3.2,1.4,3.2,3.2V141.1z"/>
	</g>
</g>
<g>
	<g>
		<path fill="#191919" d="M195.8,203.8c-2.1-10.5-9.8-19-20.1-22l-15.1-4.5v-4h-6.4v5.8l-4.4,11l-7.1-7.1h-9.1l-7.1,7.1l-4.4-11
			v-5.8h-6.4v4l-15.1,4.5c-10.3,3.1-18,11.5-20.1,22l-4.2,20.8H200L195.8,203.8z M125.9,218.2h-19.1l2.4-12.2l-6.3-1.3l-2.7,13.5
			H84.3l2.6-13.2c1.6-8.2,7.6-14.7,15.6-17.1l14.5-4.4l7.1,17.9l3-3l1.3,4L125.9,218.2z M144.1,218.2h-11.7l2.7-16.3l-2.8-8.5
			l4.1-4.1h3.8l4.1,4.1l-2.8,8.5L144.1,218.2z M176.2,218.2l-2.7-13.5l-6.3,1.3l2.4,12.2h-19.1l-2.6-15.8l1.3-4l3,3l7.1-17.9
			l14.5,4.4c8,2.4,14,9,15.6,17.1l2.6,13.2L176.2,218.2L176.2,218.2z"/>
	</g>
</g>
<g>
	<g>
		<rect x="19.3" y="166.8" fill="#191919" width="45" height="6.4"/>
	</g>
</g>
<g>
	<g>
		<rect x="19.3" y="179.6" fill="#191919" width="45" height="6.4"/>
	</g>
</g>
<g>
	<g>
		<rect x="38.6" y="192.5" fill="#191919" width="6.4" height="6.4"/>
	</g>
</g>
<g>
	<g>
		<rect x="51.4" y="192.5" fill="#191919" width="6.4" height="6.4"/>
	</g>
</g>
<g>
	<g>
		<rect x="25.7" y="192.5" fill="#191919" width="6.4" height="6.4"/>
	</g>
</g>
<g>
	<g>
		<rect x="141.4" y="38.2" fill="#191919" width="45" height="6.4"/>
	</g>
</g>
<g>
	<g>
		<rect x="141.4" y="51.1" fill="#191919" width="45" height="6.4"/>
	</g>
</g>
<g>
	<g>
		<rect x="160.7" y="63.9" fill="#191919" width="6.4" height="6.4"/>
	</g>
</g>
<g>
	<g>
		<rect x="173.6" y="63.9" fill="#191919" width="6.4" height="6.4"/>
	</g>
</g>
<g>
	<g>
		<rect x="147.9" y="63.9" fill="#191919" width="6.4" height="6.4"/>
	</g>
</g>
</svg>
