<?xml version="1.0" encoding="utf-8"?>
<!-- Generator: Adobe Illustrator 17.0.0, SVG Export Plug-In . SVG Version: 6.00 Build 0)  -->
<!DOCTYPE svg PUBLIC "-//W3C//DTD SVG 1.1//EN" "http://www.w3.org/Graphics/SVG/1.1/DTD/svg11.dtd">
<svg version="1.1" id="Layer_1" xmlns="http://www.w3.org/2000/svg" xmlns:xlink="http://www.w3.org/1999/xlink" x="0px" y="0px"
	 width="496px" height="496px" viewBox="0 0 496 496" enable-background="new 0 0 496 496" xml:space="preserve">
<rect x="5.8" y="7.8" fill="#D6D9FF" width="482" height="63.3"/>
<path fill="#D6D9FF" d="M437.3,362.5c-0.4-0.5-0.8-1-1.2-1.5c-4.6-7.5-10.9-13.8-19.3-15.3c-0.6-0.1-1.2-0.1-1.7-0.1
	c-8.9-5.9-18.9-10-29.6-11.5c-13.7-1.9-27.4,0.6-40.3,5.2c-7.7,2.7-15.1,6.2-22.2,10.1c-2.2,0.7-4.5,1.5-6.6,2.4
	c-4.2,1.8-8.1,4.1-11.7,6.7c-4.7,0.2-8.3,2.1-12.1,5.8c-6,5.8-13.3,9.9-20.5,13.9c-8.1,4.5-16,9.3-23.7,14.4
	c-1.3,0.9-2.6,1.7-3.9,2.6c-8.7,4.4-17.3,8.8-25.4,14.6c-6.5,4.7-12.7,9.4-19.3,13.8c-3.8,2-7.4,4.2-11,6.5c-0.3,0.2-0.7,0.4-1,0.5
	c-3,1.5-6,2.9-9.1,4.2c-3.2,0.9-6.3,2.3-9.3,3.9c-0.1,0-0.1,0.1-0.2,0.1c-5.6,2.4-10.9,5.2-16.4,7.7c-9.1,4.1-19,6.7-27.2,12.7
	c-0.6-0.1-1.2-0.1-1.8-0.2c-10.2-1.4-18.5-5.9-26-12.9c-11.1-10.3-18-23.9-25.3-37c-0.1-0.9-0.1-1.7-0.2-2.6
	c-0.6-9.9,1.8-17.8,7.2-26.1c3.9-6,9-10.7,14.8-14.3c4-1.2,7.8-3.3,11.5-5.2c3.7-1.2,7.5-1.9,11.4-2.4c1.1-0.1,2-0.5,2.7-1
	c0.4,0,0.8,0,1.2-0.1c6.6,1.9,13,4.3,19.3,6.7c5.8,2.3,11.6,4.5,17.4,6.8c0.6,0.6,1.3,1.1,2,1.6c8.3,6.6,18.9,10.3,28.2,15.2
	c8.9,4.6,18.1,11.3,28,13.4c9,1.9,16-2.8,21.1-9.7c2.5-3.4-0.3-6.7-3.7-7.1c-0.9-0.7-1.9-1.2-3.1-1.4c-12.9-1.6-25-9.9-35.6-16.9
	c-11-7.2-21.5-15-33-21.3c-12-6.6-25-10.9-38.7-11.7c-6.7-0.4-13.4,0.2-20,1.5c-5,0-10.1,0.8-14.7,2.4c-0.9-0.5-2-0.6-3.3-0.3
	c-9.9,2.2-17.1,7.6-20.2,17.3c-4.3,1.3-8.2,3.7-10.8,7.6c-2.8,4.1-4.3,9.1-5.2,14.1c-4.5,6.6-7.7,14.1-8.8,22.5
	c-2.4,17.6,2.1,36,10.9,51.3c7.4,12.9,19.8,21.1,33.3,26.6c6.8,2.8,14.7,5.2,22.5,5.7c6.7,1.2,13.5,2.4,20.4,2.3
	c9.5-0.1,18.1-4,26.2-8.7c2.1-1.2,4.2-2.4,6.3-3.6c10-2.4,19.7-6.8,28.7-11.7c16.8-9,32.1-20.2,48-30.7c7.7-5.1,15.6-9.8,23.7-14.1
	c8.9-4.7,18.1-8.2,26.5-13.8c7.2-4.8,13.9-10.2,21.5-14.6c3.7-2.1,7.4-4.3,10.9-6.8c11-5,21.3-11.2,32.1-16.4c1.5-0.5,3-1.1,4.6-1.6
	c7.9-2.6,15.4-4.1,23.8-3.8c5.3,0.2,10.7,1,16,1.6c0.2,0.7,0.6,1.3,1,1.9c3.8,4.9,9,8.3,13.7,12.3c5.2,4.4,9.9,10.1,13.9,15.7
	c0.9,10.2,0.1,20.4-0.6,30.6c-4.6,13.4-11.7,24-24.8,30.3c-8.4,4.1-17.8,5.5-27,5.3c-8.8-0.2-16-4.7-23.2-9.4
	c-6.9-4.6-13.8-8.5-21.3-12c-8.9-4.1-17.8-8.2-26.2-13.1c-6.5-3.8-12.7-9.4-20.9-7.5c-7.2,1.6-13.5,6.2-19.7,10
	c-2.7,1.6-2.8,4.5-1.7,6.7c0,1.1,0.5,2.2,1.7,3.2c11.9,9.9,25.6,16.9,40,22.5c0.4,0.5,0.9,1,1.5,1.3c11.5,6.6,23.3,12.6,35.6,17.6
	c10.4,4.2,21.9,7.9,33.3,8.5c2.1,0.5,4.2,0.9,6.3,1.1c9,1,17-1.5,24.8-5.7c3.5-1.9,7.4-4.1,11.1-6.6c1.6,0.2,3.3-0.2,4.5-1.2
	c7.1-5.7,13.1-12.6,19-19.5c3.2-3.8,4.8-8.3,5.5-13C458.1,415.7,458.7,380.8,437.3,362.5z M195.8,444.3c0.3-0.4,0.7-0.8,1-1.2
	c0,0,0-0.1,0.1-0.1c1-0.4,2.1-0.9,3.1-1.3C198.6,442.5,197.2,443.4,195.8,444.3z"/>
<path fill="#191919" d="M496,0H0v432h35.2c10.2,36.8,43.9,64,84,64c15.2,0,30.1-4,43.3-11.5l85.5-48.9l85.5,48.9
	c13.2,7.5,28.1,11.5,43.3,11.5c40,0,73.8-27.2,84-64H496V0z M480,16v48H16V16H480z M448,408.8c0,39.3-31.9,71.2-71.2,71.2
	c-12.4,0-24.6-3.2-35.3-9.4l-77.3-44.2l16.1-9.2l69.2,39.5c8.3,4.8,17.8,7.3,27.4,7.3c30.4,0,55.2-24.8,55.2-55.2v-1.6
	c0-30.4-24.8-55.2-55.2-55.2c-9.6,0-19.1,2.5-27.4,7.3L154.5,470.6c-10.7,6.1-23,9.4-35.3,9.4C79.9,480,48,448.1,48,408.8v-1.6
	c0-39.3,31.9-71.2,71.2-71.2c12.4,0,24.6,3.2,35.3,9.4l77.3,44.2l-16.1,9.2l-69.2-39.5c-8.3-4.8-17.8-7.3-27.4-7.3
	C88.8,352,64,376.8,64,407.2v1.6c0,30.4,24.8,55.2,55.2,55.2c9.6,0,19.1-2.5,27.4-7.3l194.8-111.3c10.7-6.1,23-9.4,35.3-9.4
	c39.3,0,71.2,31.9,71.2,71.2V408.8z M296.4,408l61-34.8c5.9-3.4,12.6-5.2,19.5-5.2c21.6,0,39.2,17.6,39.2,39.2v1.6
	c0,21.6-17.6,39.2-39.2,39.2c-6.8,0-13.6-1.8-19.5-5.2L296.4,408z M199.6,408l-61,34.8c-5.9,3.4-12.6,5.2-19.5,5.2
	C97.6,448,80,430.4,80,408.8v-1.6c0-21.6,17.6-39.2,39.2-39.2c6.8,0,13.6,1.8,19.5,5.2L199.6,408z M463.6,416
	c0.2-2.4,0.4-4.8,0.4-7.2v-1.6c0-48.1-39.1-87.2-87.2-87.2c-15.2,0-30.1,4-43.3,11.5L248,380.4l-85.5-48.9
	c-13.2-7.5-28.1-11.5-43.3-11.5C71.1,320,32,359.1,32,407.2v1.6c0,2.4,0.2,4.8,0.4,7.2H16V80h464v336H463.6z"/>
<path fill="#191919" d="M32,304h208V96H32V304z M48,112h176v176H48V112z"/>
<path fill="#191919" d="M64,128h144v16H64V128z"/>
<path fill="#191919" d="M64,160h112v16H64V160z"/>
<path fill="#191919" d="M192,160h16v16h-16V160z"/>
<path fill="#191919" d="M96,192h112v16H96V192z"/>
<path fill="#191919" d="M64,192h16v16H64V192z"/>
<path fill="#191919" d="M64,224h144v16H64V224z"/>
<path fill="#191919" d="M64,256h112v16H64V256z"/>
<path fill="#191919" d="M256,304h208V96H256V304z M272,112h176v176H272V112z"/>
<path fill="#191919" d="M288,128h144v16H288V128z"/>
<path fill="#191919" d="M288,160h16v16h-16V160z"/>
<path fill="#191919" d="M320,160h112v16H320V160z"/>
<path fill="#191919" d="M288,192h144v16H288V192z"/>
<path fill="#191919" d="M288,224h144v16H288V224z"/>
<path fill="#191919" d="M288,256h112v16H288V256z"/>
<path fill="#191919" d="M32,32h16v16H32V32z"/>
<path fill="#191919" d="M64,32h16v16H64V32z"/>
<path fill="#191919" d="M96,32h16v16H96V32z"/>
<path fill="#191919" d="M416,256h16v16h-16V256z"/>
<path fill="#191919" d="M192,256h16v16h-16V256z"/>
</svg>
