<?xml version="1.0" encoding="utf-8"?>
<!-- Generator: Adobe Illustrator 17.0.0, SVG Export Plug-In . SVG Version: 6.00 Build 0)  -->
<!DOCTYPE svg PUBLIC "-//W3C//DTD SVG 1.1//EN" "http://www.w3.org/Graphics/SVG/1.1/DTD/svg11.dtd">
<svg version="1.1" id="Layer_1" xmlns="http://www.w3.org/2000/svg" xmlns:xlink="http://www.w3.org/1999/xlink" x="0px" y="0px"
	 width="200px" height="199.1px" viewBox="0 25.5 200 199.1" enable-background="new 0 25.5 200 199.1" xml:space="preserve">
<rect x="94.8" y="80.8" fill="#D6D9FF" width="50.3" height="36.7"/>
<rect x="55.2" y="127.5" fill="#D6D9FF" width="39.7" height="26.3"/>
<path fill="#D6D9FF" d="M29.3,98.2c-1.2-4.3-6.9-4.8-9.1-1.2c0.7-1.1,0.1-0.1-0.2,0.1c-0.4,0.4-0.8,0.9-1.1,1.4
	c-1.1,0.4-2.1,1.1-2.7,2.2c-1.4,2.4-0.5,5.5,1.8,6.8c0.7,0.4,1.4,0.8,2.1,1.3c0.2,0.1,0.4,0.3,0.6,0.4c-0.1,0,0.5,0.5,0.6,0.6
	c2.7,2.6,7.3,1.4,8.4-2.2C30.6,104.4,30.2,101.2,29.3,98.2z"/>
<path fill="#D6D9FF" d="M15.7,61.6c0.1-0.7,0.1-1.4,0.1-2.1c0-1.3-0.4-2.3-1-3.1c-0.1-0.7-0.2-1.3-0.3-1.9c-0.8-6.3-10.9-6.4-10,0
	c0.3,2.5,0.8,5,1.2,7.6C5.2,68.3,3.1,74.1,5,80.5c1,3.3,5.9,5.3,8.4,2.2C18.1,76.6,17.1,69,15.7,61.6z"/>
<g>
	<g>
		<path fill="#191919" d="M190.4,76.8h-29.5c0.4-1,0.6-2.1,0.6-3.2c0-5.3-4.3-9.6-9.6-9.6h-3.2V35.1c0-5.3-4.3-9.6-9.6-9.6H61.9
			c-5.3,0-9.6,4.3-9.6,9.6v25.7c0,1.8-1.4,3.2-3.2,3.2H20.2v-6.4c0-5.3-4.3-9.6-9.6-9.6H0.9v38.5h9.6c5.3,0,9.6-4.3,9.6-9.6v-6.4
			h28.9c5.3,0,9.6-4.3,9.6-9.6V35.1c0-1.8,1.4-3.2,3.2-3.2H139c1.8,0,3.2,1.4,3.2,3.2V64H139c-5.3,0-9.6,4.3-9.6,9.6
			c0,1.1,0.2,2.2,0.6,3.2h-29.5c-5.3,0-9.6,4.3-9.6,9.6H28.7L8.6,102.5l20.1,16.1h62.1v6.4h-48l-27.3-3.4L0,141.1l15.6,19.5
			l27.3-3.4h48v9.6H0.9v48.2h113.6c8.8,6.1,19.4,9.6,30.9,9.6c30.1,0,54.6-24.5,54.6-54.6V86.5C200,81.2,195.7,76.8,190.4,76.8z
			 M13.7,76.8c0,1.8-1.4,3.2-3.2,3.2H7.3V54.4h3.2c1.8,0,3.2,1.4,3.2,3.2V76.8z M26.6,108.7l-7.7-6.2l7.7-6.2V108.7z M90.8,112.2H33
			v-6.4h57.8L90.8,112.2L90.8,112.2z M90.8,99.3H33v-6.4h57.8L90.8,99.3L90.8,99.3z M39.4,151.1l-21.1,2.6l-7.5-9.4h3.5
			c1.3,3.7,4.9,6.4,9,6.4c5.3,0,9.6-4.3,9.6-9.6c0-5.3-4.3-9.6-9.6-9.6c-4.2,0-7.7,2.7-9,6.4h-3.5l7.5-9.4l21.1,2.6
			C39.4,131,39.4,151.1,39.4,151.1z M20.2,141.1c0-1.8,1.4-3.2,3.2-3.2c1.8,0,3.2,1.4,3.2,3.2s-1.4,3.2-3.2,3.2
			C21.6,144.3,20.2,142.8,20.2,141.1z M90.8,150.7H58.7v-19.3h-6.4v19.3h-6.4v-19.3l45,0L90.8,150.7L90.8,150.7z M139,70.4h12.8
			c1.8,0,3.2,1.4,3.2,3.2c0,1.8-1.4,3.2-3.2,3.2H139c-1.8,0-3.2-1.4-3.2-3.2C135.8,71.8,137.2,70.4,139,70.4z M7.3,208.5v-35.3h6.4
			v9.6h6.4v-9.6h6.4V186H33v-12.8h6.4v9.6h6.4v-9.6h6.4V186h6.4v-12.8h6.4v9.6h6.4v-9.6H78V186h6.4v-12.8H91
			c0.8,13.7,6.7,26.2,15.8,35.3H7.3z M193.6,170c0,26.6-21.6,48.2-48.2,48.2S97.2,196.5,97.2,170v-12.8V125v-3.2h96.3V170z
			 M193.6,115.4h-45V89.7h-6.4v25.7h-45V86.5c0-1.8,1.4-3.2,3.2-3.2H139h12.8h38.5c1.8,0,3.2,1.4,3.2,3.2V115.4z"/>
	</g>
</g>
</svg>
