<?xml version="1.0" encoding="utf-8"?>
<!-- Generator: Adobe Illustrator 17.0.0, SVG Export Plug-In . SVG Version: 6.00 Build 0)  -->
<!DOCTYPE svg PUBLIC "-//W3C//DTD SVG 1.1//EN" "http://www.w3.org/Graphics/SVG/1.1/DTD/svg11.dtd">
<svg version="1.1" id="Layer_1" xmlns="http://www.w3.org/2000/svg" xmlns:xlink="http://www.w3.org/1999/xlink" x="0px" y="0px"
	 width="416px" height="496px" viewBox="0 0 416 496" enable-background="new 0 0 416 496" xml:space="preserve">
<rect x="299" y="75" fill="#D6D9FF" width="56.5" height="24"/>
<path fill="#D6D9FF" d="M345.5,348c-12-0.5-24-0.5-36-1c-5.9-0.2-6.4,8.1-1.5,9.7c0.2,0.4,0.6,0.9,1,1.3c1.9,1.8,3.7,3.7,5.5,5.5
	c0.9,2,2.2,3.5,4,4.5c2.3,2.9,4.4,6.1,5.7,9.8c2,5.5,9.2,4.3,9.8-1.3c0-0.1,0-0.1,0-0.2c6.2-4,11.2-9.4,12.2-16.7c1-1,1.9-2,2.8-3
	C351.7,353.2,350.2,348.2,345.5,348z"/>
<rect x="40" y="166.5" fill="#D6D9FF" width="224" height="33"/>
<path fill="#191919" d="M400,216V112c0-17.6-14.4-32-32-32V40c0-22.1-17.9-40-40-40c-19.3,0-35.5,13.8-39.2,32H68.7L0,100.7V496h336
	V394.4l32-48V96c8.8,0,16,7.2,16,16v104c0,17.6,14.4,32,32,32v-16C407.2,232,400,224.8,400,216z M310.9,352H345l-17,25.6L310.9,352z
	 M336,336V200h-16v136h-16V112h16v72h16v-72h16v224H336z M304,96V80h48v16H304z M328,16c13.2,0,24,10.8,24,24v24h-48V40
	C304,26.8,314.8,16,328,16z M64,59.3V96H27.3L64,59.3z M16,480V112h64V48h208v298.4l32,48V480H16z"/>
<path fill="#191919" d="M112,232.4V224H96v8.4c-13.5,2-24,13.5-24,27.6c0,15.4,12.6,28,28,28h8c6.6,0,12,5.4,12,12s-5.4,12-12,12h-8
	c-6.6,0-12-5.4-12-12v-4H72v4c0,14.1,10.5,25.6,24,27.6v8.4h16v-8.4c13.5-2,24-13.5,24-27.6c0-15.4-12.6-28-28-28h-8
	c-6.6,0-12-5.4-12-12s5.4-12,12-12h8c6.6,0,12,5.4,12,12v4h16v-4C136,245.9,125.5,234.4,112,232.4z"/>
<path fill="#191919" d="M32,368h240V160H32V368z M48,352V208h208v144H48z M256,176v16H48v-16H256z"/>
<path fill="#191919" d="M32,384h16v16H32V384z"/>
<path fill="#191919" d="M64,384h112v16H64V384z"/>
<path fill="#191919" d="M32,416h16v16H32V416z"/>
<path fill="#191919" d="M64,416h112v16H64V416z"/>
<path fill="#191919" d="M32,448h16v16H32V448z"/>
<path fill="#191919" d="M192,448h16v16h-16V448z"/>
<path fill="#191919" d="M224,448h16v16h-16V448z"/>
<path fill="#191919" d="M256,448h16v16h-16V448z"/>
<path fill="#191919" d="M64,448h112v16H64V448z"/>
<path fill="#191919" d="M192,416h80v16h-80V416z"/>
<path fill="#191919" d="M192,384h80v16h-80V384z"/>
<path fill="#191919" d="M144,64h128v16H144V64z"/>
<path fill="#191919" d="M144,128h128v16H144V128z"/>
<path fill="#191919" d="M144,96h56v16h-56V96z"/>
<path fill="#191919" d="M216,96h56v16h-56V96z"/>
</svg>
