<?xml version="1.0" encoding="utf-8"?>
<!-- Generator: Adobe Illustrator 17.0.0, SVG Export Plug-In . SVG Version: 6.00 Build 0)  -->
<!DOCTYPE svg PUBLIC "-//W3C//DTD SVG 1.1//EN" "http://www.w3.org/Graphics/SVG/1.1/DTD/svg11.dtd">
<svg version="1.1" id="Layer_1" xmlns="http://www.w3.org/2000/svg" xmlns:xlink="http://www.w3.org/1999/xlink" x="0px" y="0px"
	 width="496px" height="496px" viewBox="0 0 496 496" enable-background="new 0 0 496 496" xml:space="preserve">
<path fill="#D6D9FF" d="M332.9,360.4c1.4-3,2.7-6.1,3.9-9.2c2.8-6.9,4.9-14,6.2-21.3c1.8-9.8,1.2-19.8,1.2-29.7
	c0-1.6-0.6-2.8-1.6-3.6c-0.4-1.6-1.5-3-3.4-3.5c-8.6-2.4-17.5-2.2-26.3-2.2c-7.2,0-14.2-2.4-21.3-0.5c-6.3,1.7-7.4,9.1-7.3,14.6
	c0,1.8,0,3.5,0,5.3c-2.8,4.6-4.1,10.4-4.6,15.9c-1.1,10.1,0.4,20.3,0.3,30.5c-0.1,5.4-1.2,16.3,1.6,23.4
	c-1.3,10.3-3.7,20.5-4.9,30.9c-1.5,12.7-0.3,25.3,0.7,38c0.2,2.2,1.8,3.8,3.6,4.5c0.8,2.1,1.8,4.2,3,6.2c2.9,4.6,6.9,8.6,10.9,12.3
	c3.9,3.8,8.4,7.8,13.6,9.6c12.9,4.4,17-8.8,24-16.5c3.9-4.2,9.1-8.4,9.2-14.7c0.1-6-3.1-10.7-6.6-15.2c-3.2-4.1-7.6-8.9-9.3-13.9
	c-0.5-1.5,3-5.6,3.7-6.8c1.3-2.1,2.5-4.4,3.5-6.6c5.2-3.8,8.5-9.3,5.8-16.2c-1.2-3.2-3.2-6-5.5-8.5c-2.5-4.1-5.8-8.4-4.8-12.8
	C329.1,367,331.5,363.5,332.9,360.4z"/>
<path fill="#D6D9FF" d="M404.8,183.5c-0.4-12.4,0.5-24.7-1.8-37c-0.6-3.4-3.7-4.2-6.3-3.2c-15.4-7.3-29.9-16.2-46.4-21
	c-18.2-5.2-36.8-5.3-55.5-2.6c-9.1,1.3-17.5,4.1-26.1,6.9c-5.6,1.9-11.7,2.5-17.5,3.5c-11.8,2.1-24,5.7-28.9,17.7
	c-0.4,0.9-0.5,1.8-0.3,2.5c-2.3,6.6-2.8,13.1-2.3,19.7c-0.1,0.4-0.2,0.9-0.2,1.4c-0.1,15.9-2.7,31.6-3.1,47.5
	c-0.1,6.1,0.2,12,3.4,17.3c3.3,5.5,8.2,9.7,13.3,13.5c11.1,8.4,23.5,15,34.8,23.2c11.9,8.7,24.7,9.8,39.1,10.1
	c7.7,0.2,15.4,0.1,23,0c6,0,13.5,1.9,19.1-1.1c5.3-2.8,8.5-8.2,13.4-11.7c5.6-4,11.9-7,17.7-10.8c10.6-7.1,22.1-17.2,23.8-30.5
	C406,214,405.3,198.6,404.8,183.5z M309,208.5c-12.3-0.4-24.7-0.9-37-0.5c-5.7,0.2-11.4,0.9-17.2,1.1c-3,0.1-6.1,0.3-9.1,0.5
	c-0.2-3.7-0.3-7.4-0.3-11c1.8-8.1,0.7-16.5-0.8-24.7c-0.1-0.6-0.1-1.3-0.2-1.9c-0.4-3.6-0.5-7.2-0.7-10.9
	c20.4-13.2,44.2-20.6,68.5-21.9c13.7-0.8,26.5,1.3,39.5,5.5c6,2,12,4.3,17.8,6.7c1.6,1.5,3.1,3.1,4.5,4.7c1,1.1,1.9,2.3,2.7,3.4
	c2.8,13.8,4,27.8,4.5,41.9c-0.2,2.3-0.3,4.6-0.4,7C356.8,208.7,332.9,209.3,309,208.5z M380.6,239.2c0.3-0.4,0.6-0.9,0.9-1.3
	c0.2,0,0.3,0.1,0.5,0.1C381.6,238.4,381.1,238.8,380.6,239.2z"/>
<path fill="#191919" d="M352.8,292l64-48V140.2l-3-2.4c-1-0.8-15.6-12.2-39.2-21.6c1.4-6.5,2.2-13.3,2.2-20.2c0-52.9-43.1-96-96-96
	c-39.4,0-74.3,23.7-88.9,59.7c-3.4-0.6-5.6-0.9-6-0.9l-3.8-0.4l-73.4,73.4l11.4,79.6l-38.6,46.4l-5,25l-28.3,5.7l-5.7,28.3L16,322.2
	L9.2,333L0,379.2l18.7,15.1l45.8-6.5l112.2-120.2l78.5,11.2l17.6,13.2v166.7l28,37.3h24l28-37.3v-13.1L338.4,424l16-24l-16-24
	l14.4-21.6V292z M400.8,148.1V236l-58.7,44h-58.7l-58.7-44v-87.9c10-7,43.9-28.1,88-28.1c15.4,0,29.6,2.6,42,6.3
	c-2.1,5.1-4.7,9.9-7.7,14.4c-10.3-2.8-21.8-4.7-34.3-4.7c-28.7,0-52.8,10-67.9,18.4l-4.1,2.3V216h144v-59.4l-4.1-2.3
	c-5-2.8-11.1-5.8-18-8.5c2.8-4.5,5.2-9.3,7.2-14.3C384.9,137.7,395.8,144.6,400.8,148.1z M188,120.4c3.8,14.4,11,27.8,20.8,39v10.3
	l-35.1-35.1L188,120.4z M212.4,137.3c-4.6-7.7-8-16.1-9.8-24.9c8.2,3,17.8,7.4,27.3,13.7C220.2,131.4,214.2,135.9,212.4,137.3z
	 M256.8,188.9c7.8,2,15.8,3.1,24,3.1c28.7,0,54.4-12.7,72-32.8c6,2.1,11.3,4.5,16,6.9V200h-112V188.9z M280.8,176
	c-8.2,0-16.3-1.3-24-3.7v-6.1c13.5-6.9,33.2-14.2,56-14.2c8,0,15.5,0.9,22.6,2.4C321,167.7,301.9,176,280.8,176z M280.8,16
	c44.1,0,80,35.9,80,80c0,5.1-0.5,10.1-1.4,14.9c-13.7-4-29.3-6.9-46.6-6.9c-11,0-21.3,1.2-30.9,3c-0.2-0.2-0.4-0.5-0.7-0.7
	c-25.1-25.1-54.1-37.1-73.5-42.8C220.4,34.8,248.8,16,280.8,16z M56.7,372.7l-33.4,4.8l-5.7-4.6l6.8-33.8l1.6-2.5l30.1-6l5.7-28.3
	l28.3-5.7l6.3-31.5l32-38.4l34.2,32.8L56.7,372.7z M177.4,251.5l-41.1-39.4l-10.7-74.6l62.2-62.2c11.2,2,45.8,10,75.7,36.4
	c-6.3,2-12.1,4.2-17.4,6.5c-17.5-13.4-35.8-20.6-48.5-24.2l-4.5-1.3l-42,42l57.7,57.7V244l19.8,14.8L177.4,251.5z M335.2,400l-16,24
	l17.6,26.4v2.9l-20,26.7h-8l-20-26.7V296h48v53.6L319.2,376L335.2,400z"/>
<path fill="#191919" d="M304.8,232h16v16h-16V232z"/>
<path fill="#191919" d="M336.8,232h16v16h-16V232z"/>
<path fill="#191919" d="M272.8,232h16v16h-16V232z"/>
<path fill="#191919" d="M173.7,202.5l11.3-11.3l11.3,11.3L185,213.8L173.7,202.5z"/>
<path fill="#191919" d="M151.1,179.9l11.3-11.3l11.3,11.3l-11.3,11.3L151.1,179.9z"/>
</svg>
