<?xml version="1.0" encoding="utf-8"?>
<!-- Generator: Adobe Illustrator 17.0.0, SVG Export Plug-In . SVG Version: 6.00 Build 0)  -->
<!DOCTYPE svg PUBLIC "-//W3C//DTD SVG 1.1//EN" "http://www.w3.org/Graphics/SVG/1.1/DTD/svg11.dtd">
<svg version="1.1" id="Capa_1" xmlns="http://www.w3.org/2000/svg" xmlns:xlink="http://www.w3.org/1999/xlink" x="0px" y="0px"
	 width="200px" height="198.9px" viewBox="0 25.6 200 198.9" enable-background="new 0 25.6 200 198.9" xml:space="preserve">
<circle fill="#D6D9FF" cx="41.7" cy="67.3" r="19.8"/>
<path fill="#D6D9FF" d="M192.6,202.2c-1.8-3.6-4.3-6.7-7.3-9.4c-6.3-5.4-15.3-8.6-23.6-7.1c-3.9,0.7-5.8,3.1-7.1,6.6
	c-1.7,4.2-3.8,8.1-6.2,12c0,0,0,0.1-0.1,0.1c-0.5-0.4-1-0.8-1.5-1.2c-2.2-2-3.6-4.9-5.5-7.3c-1.6-2.1-5.4-1.9-7.1,0
	c-3.2,3.6-5.9,7.5-9.1,11c-0.5-1.8-1.3-3.6-1.9-5.1c-1.2-3-2.4-6.5-4.4-9.2c-0.1-1.7-0.5-3.4-1.7-4.7c-2.4-2.4-5.8-2.1-8.9-1.6
	c-5.7,0.9-12.8,3.6-17.2,7.4c-2.5,2.1-3.9,5.7-4.2,8.8c0,0.5-0.1,0.9-0.1,1.4c-1.6,2.6-2.5,5.3-2.3,8.1c-0.6,0.7-1.1,1.5-1.7,2.2
	c-3.7,4.9,4.1,9.7,8.2,5.6c1.1,0.3,2.2,0.6,3.4,0.7c7.5,1.4,14.8,0.5,22.2-0.5c6.1,1.4,12.4,0.8,18.8,0.7c7.8-0.1,15.3,1.2,22.8-0.6
	c0.8,0.5,1.8,0.9,2.8,0.9c5.2,0,10.4-0.1,15.7,0c5,0.1,9.8,1,14.7-0.2c2-0.5,3.9-2.7,3.7-4.8C194.3,211.1,194.8,206.8,192.6,202.2z"
	/>
<path fill="#D6D9FF" d="M172.1,103.6c-2-1.6-4.3-2.7-6.6-4c-2.6-1.4-4.6-3.6-6.6-5.6c-4.4-4.4-10.4-6.8-16.4-8.2
	c-12.2-3-25.1,1.2-33.8,10.2c-8.5,8.7-10.4,21.9-10.7,33.5c-0.2,5.7,7.6,6.3,9.6,2c0.9-0.3,1.8-0.6,2.6-1c5.4-0.8,10.8-3.2,15.7-4.9
	c2.6-0.9,4.8-2.3,6.9-4.1c1-0.9,1.9-2,2.8-2.9c0.1-0.1,0.2-0.1,0.3-0.2c0.2,0.2,0.5,0.3,0.7,0.5c5.4,4.1,10.8,7.5,17.2,9.8
	c3.8,1.3,11.6,0.8,14.3,4.2c1.2,1.6,2.9,2.2,4.5,2.1c1.7,0.1,3.4-0.6,4.4-2.2c0.5-0.7,0.8-1.5,0.8-2.3
	C179.6,121.7,179.4,109.6,172.1,103.6z"/>
<g>
	<g>
		<path fill="#191919" d="M192.5,199.5c-2.4-8.1-9.1-14.1-17.5-15.6l-21.1-3.8v-1.7c7.9-4.6,13.6-12.4,15.4-21.6
			c5.8-1.2,10.2-6.4,10.2-12.6v-31.7c0-9-5.9-16.8-14.4-19.3l-1.6-1.6c-7.5-7.5-17.4-11.6-27.9-11.6c-21.8,0-39.5,17.7-39.5,39.5
			v24.7c0,6.2,4.4,11.4,10.2,12.6c1.8,9.2,7.6,17,15.4,21.6v1.7l-21.1,3.8c-8.4,1.5-15.1,7.5-17.5,15.6l-7.5,24.9H200L192.5,199.5z
			 M170,149.8v-11c1.9,1.1,3.2,3.2,3.2,5.5C173.2,146.6,171.9,148.7,170,149.8z M105.9,149.8c-1.9-1.1-3.2-3.2-3.2-5.5
			c0-2.4,1.3-4.4,3.2-5.5V149.8z M105.9,128.2v3.7c-1.1,0.3-2.2,0.7-3.2,1.3v-13.6c0-18.2,14.8-33.1,33.1-33.1
			c8.8,0,17.1,3.4,23.4,9.7L162,99l0.9,0.2c6.1,1.5,10.4,7,10.4,13.3v20.6c-1-0.6-2.1-1-3.2-1.3v-3.7h-10.2c-8.7,0-17-4.2-22.2-11.1
			l-2.6-3.4l-6.4,6.4c-5.2,5.2-12.2,8.1-19.6,8.1H105.9z M112.3,150.7v-16.2c7.9-0.7,15.3-4.2,21-9.9l1.2-1.2
			c6.4,7.1,15.7,11.3,25.4,11.3h3.8v16c0,14.2-11.5,25.7-25.7,25.7C123.8,176.3,112.3,164.8,112.3,150.7z M128.6,181.3
			c3,0.9,6.1,1.4,9.4,1.4s6.4-0.5,9.4-1.4l-9.4,7L128.6,181.3z M133.1,192.7l-6.5,6.5l-4.2-12.7l2-0.4L133.1,192.7z M151.6,186.2
			l2,0.4l-4.2,12.7l-6.5-6.5L151.6,186.2z M84.5,218l5-16.7c1.7-5.8,6.5-10.1,12.5-11.2l13.9-2.5l7.8,23.5l14.2-14.2l14.2,14.2
			l7.8-23.5l13.9,2.5c6,1.1,10.8,5.4,12.5,11.2l5,16.7L84.5,218L84.5,218z"/>
	</g>
</g>
<g>
	<g>
		<path fill="#191919" d="M83.4,77.4V57.1l-8.7-2.3c-0.3-0.7-0.5-1.3-0.8-2l4.5-7.8L64,30.6l-7.8,4.5c-0.7-0.3-1.3-0.6-2-0.8
			l-2.3-8.7H31.5l-2.3,8.7c-0.7,0.3-1.3,0.5-2,0.8l-7.8-4.5L5,45l4.5,7.8c-0.3,0.7-0.6,1.3-0.8,2L0,57.1v20.3l8.7,2.3
			c0.3,0.7,0.5,1.3,0.8,2L5,89.6l14.4,14.4l7.8-4.5c0.7,0.3,1.3,0.6,2,0.8l2.3,8.7h20.3l2.3-8.7c0.7-0.3,1.3-0.5,2-0.8l7.8,4.5
			l14.4-14.4l-4.5-7.8c0.3-0.7,0.6-1.3,0.8-2L83.4,77.4z M70.4,88.5L63,95.9l-6.5-3.8l-1.6,0.8c-1.4,0.7-2.9,1.3-4.3,1.8l-1.7,0.5
			l-1.9,7.3H36.5l-1.9-7.3l-1.7-0.5c-1.4-0.5-2.9-1.1-4.3-1.8L27,92.1l-6.5,3.8l-7.4-7.4l3.8-6.5L16,80.4c-0.7-1.4-1.3-2.9-1.8-4.3
			l-0.5-1.7l-7.3-1.9V62l7.3-1.9l0.5-1.7c0.5-1.4,1.1-2.9,1.8-4.3l0.8-1.6L13.1,46l7.4-7.4l6.5,3.8l1.6-0.8c1.4-0.7,2.9-1.3,4.3-1.8
			l1.7-0.5l1.9-7.3h10.5l1.9,7.3l1.7,0.5c1.4,0.5,2.9,1.1,4.3,1.8l1.6,0.8l6.5-3.8l7.4,7.4l-3.8,6.5l0.8,1.6
			c0.7,1.4,1.3,2.9,1.8,4.3l0.5,1.7L77,62v10.5l-7.3,1.9l-0.5,1.7c-0.5,1.4-1.1,2.9-1.8,4.3L66.6,82L70.4,88.5z"/>
	</g>
</g>
<g>
	<g>
		<path fill="#191919" d="M59.7,80.7c2.9-3.9,4.4-8.5,4.4-13.4c0-12.4-10.1-22.5-22.5-22.5S19.2,54.9,19.2,67.3s10.1,22.5,22.5,22.5
			c5,0,9.7-1.6,13.7-4.7L51.5,80c-2.8,2.2-6.2,3.3-9.8,3.3c-8.8,0-16-7.2-16-16s7.2-16,16-16s16,7.2,16,16c0,3.5-1.1,6.8-3.2,9.6
			L59.7,80.7z"/>
	</g>
</g>
<g>
	<g>
		<path fill="#191919" d="M193.4,65l-4.1,4.1V57.6c0-17.7-14.4-32.1-32.1-32.1h-19.2V32h19.2c14.2,0,25.7,11.5,25.7,25.7v11.5
			l-4.1-4.1l-4.5,4.5l11.9,11.9L198,69.5L193.4,65z"/>
	</g>
</g>
<g>
	<g>
		<path fill="#191919" d="M16,192.4v-11.5l4.1,4.1l4.5-4.5l-11.9-11.9L0.9,180.5l4.5,4.5l4.1-4.1v11.5c0,17.7,14.4,32.1,32.1,32.1
			V218C27.6,218,16,206.5,16,192.4z"/>
	</g>
</g>
<g>
	<g>
		<rect y="121.8" fill="#191919" width="83.4" height="6.4"/>
	</g>
</g>
<g>
	<g>
		<rect y="147.5" fill="#191919" width="83.4" height="6.4"/>
	</g>
</g>
<g>
	<g>
		<rect y="134.6" fill="#191919" width="38.5" height="6.4"/>
	</g>
</g>
<g>
	<g>
		<polygon fill="#191919" points="63.4,134.6 48.1,134.6 44.9,134.6 44.9,141 48.1,141 63.4,141 83.4,141 83.4,134.6 		"/>
	</g>
</g>
<g>
	<g>
		<rect x="125.1" y="25.6" fill="#191919" width="6.4" height="6.4"/>
	</g>
</g>
<g>
	<g>
		<rect x="112.3" y="25.6" fill="#191919" width="6.4" height="6.4"/>
	</g>
</g>
<g>
	<g>
		<rect x="48.1" y="218" fill="#191919" width="6.4" height="6.4"/>
	</g>
</g>
<g>
	<g>
		<rect x="61" y="218" fill="#191919" width="6.4" height="6.4"/>
	</g>
</g>
</svg>
