<?xml version="1.0" encoding="utf-8"?>
<!-- Generator: Adobe Illustrator 17.0.0, SVG Export Plug-In . SVG Version: 6.00 Build 0)  -->
<!DOCTYPE svg PUBLIC "-//W3C//DTD SVG 1.1//EN" "http://www.w3.org/Graphics/SVG/1.1/DTD/svg11.dtd">
<svg version="1.1" id="Layer_1" xmlns="http://www.w3.org/2000/svg" xmlns:xlink="http://www.w3.org/1999/xlink" x="0px" y="0px"
	 width="200px" height="200px" viewBox="0 25 200 200" enable-background="new 0 25 200 200" xml:space="preserve">
<rect x="55.5" y="176.5" fill="#D6D9FF" width="111" height="12"/>
<path fill="#D6D9FF" d="M137.1,44c0.4-3.5,0-7,0-10.5c0-4.1-4.1-5.6-7-4.5c-7.6-0.8-15.4,0.9-23.1,0.6c-10.8-0.4-21.5-0.2-32.3,0.2
	c-3.9,0-7.7-0.1-11.6-0.1c-6,0-12,0.3-18,0.5c-0.4,0-0.9,0-1.3,0c-3.8-0.1-7.5,0-11.1,0.3c-3.4-0.4-6.8-0.6-10.3-0.4
	c-0.7-0.5-1.6-0.7-2.6-0.8c-5.2-0.1-10,1.7-12.8,6.3c-2.5,4-1.2,9.2,2.1,12.2c5,4.5,13.3,3.4,19.5,3.6c8.8,0.3,17.3,0.9,26.1,0.4
	c11.5,1.9,23.1,0.6,34.7,0.5c11.9-0.1,23.9,0.9,35.7-0.7c2.8,1.5,5.5,1.4,7.7,0C136.7,51.7,139.1,46.9,137.1,44z"/>
<path fill="#D6D9FF" d="M192.9,178.6c-1-0.8-1.8-1.3-3.1-1.7c-0.9-0.3-2-0.4-3-0.4c-2.7,0-5,2.3-5,5c0,0.1,0,0.3,0,0.4
	c-0.2,0.6-0.4,1.3-0.4,1.9c0,2.3,1.5,4.1,3.7,4.8c3.7,1.3,8.2-0.2,9.4-4.2C195.2,182.5,194.5,179.9,192.9,178.6z"/>
<g>
	<g>
		<polygon fill="#191919" points="60.1,72.6 56,67.7 38.9,81.9 34.5,77.6 30,82.1 38.5,90.7 		"/>
		<rect x="71" y="70.2" fill="#191919" width="48.4" height="6.5"/>
		<rect x="71" y="83.1" fill="#191919" width="54.8" height="6.5"/>
		<polygon fill="#191919" points="60.1,104.9 56,99.9 38.9,114.2 34.5,109.8 30,114.4 38.5,122.9 		"/>
		<rect x="71" y="102.4" fill="#191919" width="67.7" height="6.5"/>
		<rect x="71" y="115.3" fill="#191919" width="12.9" height="6.5"/>
		<rect x="90.3" y="115.3" fill="#191919" width="48.4" height="6.5"/>
		<polygon fill="#191919" points="60.1,137.2 56,132.2 38.9,146.4 34.5,142.1 30,146.6 38.5,155.2 		"/>
		<rect x="71" y="134.7" fill="#191919" width="67.7" height="6.5"/>
		<rect x="71" y="147.6" fill="#191919" width="48.4" height="6.5"/>
		<rect x="125.8" y="147.6" fill="#191919" width="12.9" height="6.5"/>
		<rect x="125.8" y="70.2" fill="#191919" width="12.9" height="6.5"/>
		<path fill="#191919" d="M190.3,173.4h-6.5h-6.5H171h-6.5V41.1c0-8.9-7.2-16.1-16.1-16.1H16.1C7.2,25,0,32.2,0,41.1
			s7.2,16.1,16.1,16.1V225h135.5v-19.4h12.9v-12.9h6.5h6.5h6.5h6.5c5.3,0,9.7-4.3,9.7-9.7C200,177.7,195.7,173.4,190.3,173.4z
			 M158.1,41.1v132.3h-6.5V50.8h-3.2c-5.3,0-9.7-4.3-9.7-9.7s4.3-9.7,9.7-9.7S158.1,35.8,158.1,41.1z M6.5,41.1
			c0-5.3,4.3-9.7,9.7-9.7h119.4c-2,2.7-3.3,6-3.3,9.7c0,3.6,1.3,7,3.3,9.7H16.1C10.8,50.8,6.5,46.5,6.5,41.1z M22.6,218.5V57.3
			h122.6v116.1H54.3l-29,9.7l29,9.7h90.8v25.8L22.6,218.5L22.6,218.5z M45.7,183.1l5.9-2v4L45.7,183.1z M158.1,199.2h-6.5v-6.5h6.5
			V199.2z M164.5,186.3H58.1v-6.5h106.5V186.3L164.5,186.3z M177.4,186.3H171v-6.5h6.5V186.3z M190.3,186.3h-6.5v-6.5h6.5
			c1.8,0,3.2,1.4,3.2,3.2S192.1,186.3,190.3,186.3z"/>
	</g>
</g>
</svg>
