<?xml version="1.0" encoding="utf-8"?>
<!-- Generator: Adobe Illustrator 17.0.0, SVG Export Plug-In . SVG Version: 6.00 Build 0)  -->
<!DOCTYPE svg PUBLIC "-//W3C//DTD SVG 1.1//EN" "http://www.w3.org/Graphics/SVG/1.1/DTD/svg11.dtd">
<svg version="1.1" id="Layer_1" xmlns="http://www.w3.org/2000/svg" xmlns:xlink="http://www.w3.org/1999/xlink" x="0px" y="0px"
	 width="411.234px" height="340.967px" viewBox="0 0 411.234 340.967" enable-background="new 0 0 411.234 340.967"
	 xml:space="preserve">
<g>
	<path fill="#1A1A1A" stroke="#FFFFFF" stroke-width="4" stroke-miterlimit="10" d="M399.95,1c4.8,1.739,8.92,4.231,9.975,9.742
		c1.692,8.838-3.693,15.237-12.911,15.248c-31.829,0.039-63.658-0.008-95.488,0.034c-7.507,0.01-6.434-1.055-6.48,6.714
		c-0.059,9.998,0.127,20.001-0.099,29.994c-0.069,3.064,1.031,4.305,3.789,5.152c20.829,6.39,33.855,20.361,39.61,41.247
		c1.238,4.493,1.653,9.091,1.648,13.77c-0.048,40.812,0.059,81.624-0.144,122.435c-0.023,4.687,1.282,6.018,5.789,5.653
		c4.801-0.389,9.66-0.168,14.49-0.055c6.527,0.153,11.726,5.064,11.764,11.611c0.127,21.829,0.127,43.661-0.023,65.49
		c-0.045,6.615-5.547,11.729-12.894,11.793c-20.829,0.182-41.662,0.19-62.49-0.012c-8.496-0.082-13.435-5.495-13.449-13.94
		c-0.034-20.494-0.029-40.989-0.004-61.483c0.01-8.49,5.037-13.44,13.612-13.488c4.666-0.026,9.346-0.229,13.993,0.068
		c3.463,0.222,4.5-0.776,4.468-4.356c-0.191-21.825-0.126-43.653-0.14-65.48c-0.001-2.332-0.059-4.671,0.079-6.996
		c0.192-3.251-0.353-4.306-3.727-2.26c-6.398,3.879-13.369,6.205-20.876,7.269c-18.76,2.659-34.501-3.462-48.194-15.875
		c-3.935-3.567-3.776-3.681-5.311,1.504c-9.29,31.38-17.903,62.984-28.11,94.063c-9.565,29.121-30.598,47.204-60.381,53.658
		c-20.646,4.474-40.143-0.101-58.444-11.334c-19.182-11.774-30.164-28.691-35.4-49.984c-1.554-6.32-1.697-12.782-1.694-19.266
		c0.032-66.825-0.024-133.649,0.114-200.474c0.009-4.265-0.774-5.769-5.394-5.559c-9.313,0.424-18.685-0.314-27.983,0.251
		C11.002,26.659,4.502,24.382,1,15.998c0-1.333,0-2.666,0-4C2.991,7.112,5.983,3.136,10.999,1c1.666,0,3.333,0,4.999,0
		c4.999,1.615,9.999,1.636,14.998,0c1.666,0,3.333,0,4.999,0c4.999,1.615,9.999,1.636,14.998,0c1.666,0,3.333,0,4.999,0
		c4.999,1.615,9.999,1.636,14.998,0c1.666,0,3.333,0,4.999,0c4.999,1.615,9.999,1.636,14.998,0c1.666,0,3.333,0,4.999,0
		c4.999,1.615,9.999,1.636,14.998,0c1.666,0,3.333,0,4.999,0c4.999,1.615,9.999,1.636,14.998,0c1.666,0,3.333,0,4.999,0
		c4.999,1.615,9.999,1.636,14.998,0c1.666,0,3.333,0,4.999,0c4.999,1.615,9.999,1.636,14.998,0c1.666,0,3.333,0,4.999,0
		c4.999,1.615,9.999,1.636,14.998,0c1.666,0,3.333,0,4.999,0c4.999,1.615,9.999,1.636,14.998,0c1.666,0,3.333,0,4.999,0
		c4.999,1.615,9.999,1.636,14.998,0c1.666,0,3.333,0,4.999,0c4.999,1.615,9.999,1.636,14.998,0c1.666,0,3.333,0,4.999,0
		c4.999,1.615,9.999,1.636,14.998,0c1.666,0,3.333,0,4.999,0c4.999,1.615,9.999,1.636,14.998,0c1.666,0,3.333,0,4.999,0
		c4.999,1.615,9.999,1.636,14.998,0c1.666,0,3.333,0,4.999,0c4.999,1.615,9.999,1.636,14.998,0c1.666,0,3.333,0,4.999,0
		c4.999,1.615,9.999,1.636,14.998,0c1.666,0,3.333,0,4.999,0c4.999,1.615,9.999,1.636,14.998,0c1.666,0,3.333,0,4.999,0
		c4.999,1.615,9.999,1.636,14.998,0C393.951,1,396.951,1,399.95,1z M78.004,175.701c19.718-17.107,41.598-24.495,66.53-20.633
		c25.038,3.879,43.793,17.604,57.572,39.614c1.296-4.289,2.348-7.708,3.362-11.138c7.126-24.094,14.951-48.01,21.157-72.339
		c5.681-22.27,18.579-36.948,40.218-43.956c2.784-0.901,3.193-1.975,3.173-4.394c-0.09-10.995-0.169-21.993,0.026-32.985
		c0.056-3.141-0.875-3.837-3.915-3.833c-61.475,0.087-122.951,0.074-184.426,0.006c-2.679-0.003-3.769,0.509-3.763,3.515
		C78.03,77.865,78.004,126.174,78.004,175.701z M132.465,179.979c-30.43-0.017-54.425,23.667-54.474,53.768
		c-0.051,31.358,23.361,54.925,54.641,55.002c30.073,0.075,54.239-23.989,54.325-54.016
		C187.052,201.687,160.666,179.612,132.465,179.979z M282.484,153.982c18.143,0.019,32.383-13.726,32.443-31.313
		c0.062-18.248-14.421-32.534-33.052-32.603c-16.7-0.062-31.352,14.582-31.611,31.591
		C249.996,139.269,264.642,153.963,282.484,153.982z M327.826,275.914c-5.493,0-10.989,0.125-16.476-0.055
		c-2.601-0.085-3.407,0.681-3.37,3.339c0.147,10.65,0.154,21.305,0,31.955c-0.043,2.924,1.002,3.665,3.75,3.632
		c10.484-0.126,20.974-0.178,31.456,0.022c3.221,0.061,3.864-1.083,3.818-4.026c-0.16-10.317-0.228-20.642,0.033-30.955
		c0.088-3.492-1.168-4.112-4.233-3.975C337.82,276.075,332.819,275.911,327.826,275.914z"/>
	<path fill="#F4F4F4" d="M10.999,1C5.983,3.136,2.991,7.112,1,11.999c0-0.333,0-0.667,0-1c0-3.333-1.301-7.966,0.366-9.633
		S7.666,1,10.999,1z"/>
	<path fill="#323232" d="M30.996,1c-4.999,1.636-9.999,1.615-14.998,0C20.997,1,25.997,1,30.996,1z"/>
	<path fill="#323232" d="M50.994,1c-4.999,1.636-9.999,1.615-14.998,0C40.995,1,45.994,1,50.994,1z"/>
	<path fill="#323232" d="M70.991,1c-4.999,1.636-9.999,1.615-14.998,0C60.993,1,65.992,1,70.991,1z"/>
	<path fill="#323232" d="M90.989,1c-4.999,1.636-9.999,1.615-14.998,0C80.99,1,85.989,1,90.989,1z"/>
	<path fill="#323232" d="M110.986,1c-4.999,1.636-9.999,1.615-14.998,0C100.987,1,105.987,1,110.986,1z"/>
	<path fill="#323232" d="M130.984,1c-4.999,1.636-9.999,1.615-14.998,0C120.985,1,125.984,1,130.984,1z"/>
	<path fill="#323232" d="M150.981,1c-4.999,1.636-9.999,1.615-14.998,0C140.982,1,145.982,1,150.981,1z"/>
	<path fill="#323232" d="M170.979,1c-4.999,1.636-9.999,1.615-14.998,0C160.98,1,165.979,1,170.979,1z"/>
	<path fill="#323232" d="M190.976,1c-4.999,1.636-9.999,1.615-14.998,0C180.977,1,185.977,1,190.976,1z"/>
	<path fill="#323232" d="M210.974,1c-4.999,1.636-9.999,1.615-14.998,0C200.975,1,205.974,1,210.974,1z"/>
	<path fill="#323232" d="M230.971,1c-4.999,1.636-9.999,1.615-14.998,0C220.972,1,225.972,1,230.971,1z"/>
	<path fill="#323232" d="M250.969,1c-4.999,1.636-9.999,1.615-14.998,0C240.97,1,245.969,1,250.969,1z"/>
	<path fill="#323232" d="M270.966,1c-4.999,1.636-9.999,1.615-14.998,0C260.967,1,265.967,1,270.966,1z"/>
	<path fill="#323232" d="M290.964,1c-4.999,1.636-9.999,1.615-14.998,0C280.965,1,285.964,1,290.964,1z"/>
	<path fill="#323232" d="M310.961,1c-4.999,1.636-9.999,1.615-14.998,0C300.962,1,305.962,1,310.961,1z"/>
	<path fill="#323232" d="M330.959,1c-4.999,1.636-9.999,1.615-14.998,0C320.96,1,325.959,1,330.959,1z"/>
	<path fill="#323232" d="M350.956,1c-4.999,1.636-9.999,1.615-14.998,0C340.957,1,345.957,1,350.956,1z"/>
	<path fill="#323232" d="M370.954,1c-4.999,1.636-9.999,1.615-14.998,0C360.955,1,365.954,1,370.954,1z"/>
	<path fill="#323232" d="M390.951,1c-4.999,1.636-9.999,1.615-14.998,0C380.952,1,385.952,1,390.951,1z"/>
	<path fill="#D6D9F7" d="M132.577,177.76c29.296-0.381,56.705,22.55,56.606,56.878c-0.089,31.192-25.193,56.189-56.432,56.111
		c-32.493-0.081-56.813-24.561-56.761-57.135C76.042,202.345,100.967,177.743,132.577,177.76z"/>
	<path fill="#D6D9F7" d="M282.694,155.982c-18.941-0.02-34.488-15.618-34.203-34.315c0.275-18.056,15.83-33.601,33.557-33.535
		c19.777,0.073,35.152,15.239,35.086,34.61C317.071,141.411,301.954,156.002,282.694,155.982z"/>
	<path fill="#D6D9F7" d="M327.289,272.965c5.864-0.002,11.737,0.191,17.59-0.072c3.6-0.162,5.075,0.567,4.972,4.668
		c-0.306,12.112-0.227,24.239-0.038,36.356c0.054,3.457-0.701,4.801-4.484,4.729c-12.311-0.235-24.63-0.174-36.944-0.026
		c-3.228,0.039-4.455-0.831-4.405-4.265c0.182-12.508,0.174-25.022,0-37.53c-0.043-3.122,0.902-4.022,3.958-3.922
		C314.382,273.114,320.838,272.967,327.289,272.965z"/>
</g>
</svg>
