<?xml version="1.0" encoding="utf-8"?>
<!-- Generator: Adobe Illustrator 17.0.0, SVG Export Plug-In . SVG Version: 6.00 Build 0)  -->
<!DOCTYPE svg PUBLIC "-//W3C//DTD SVG 1.1//EN" "http://www.w3.org/Graphics/SVG/1.1/DTD/svg11.dtd">
<svg version="1.1" id="Capa_1" xmlns="http://www.w3.org/2000/svg" xmlns:xlink="http://www.w3.org/1999/xlink" x="0px" y="0px"
	 width="200px" height="199.895px" viewBox="0 25.052 200 199.895" enable-background="new 0 25.052 200 199.895"
	 xml:space="preserve">
<rect x="94.75" y="102.667" fill="#D6D9FF" width="10.25" height="26.417"/>
<g>
	<g>
		<path fill="#191919" d="M154.977,121.06l-32.397-23.561V52.319c0-6.032-2.348-11.7-6.613-15.968l-8.181-8.177
			c-4.158-4.161-11.416-4.161-15.574,0l-8.181,8.181c-4.265,4.265-6.613,9.935-6.613,15.965v45.177l-32.394,23.558
			c-1.935,1.41-3.09,3.677-3.09,6.071c0,4.135,3.365,7.5,7.5,7.5h21.532v-6.452H49.435c-0.577,0-1.048-0.471-1.048-1.048
			c0-0.335,0.161-0.652,0.432-0.848l28.6-20.8v29.148h45.161v-29.148l28.6,20.8c0.271,0.197,0.432,0.513,0.432,0.848
			c0,0.577-0.471,1.048-1.048,1.048h-21.532v6.452h21.532c4.135,0,7.5-3.365,7.5-7.5C158.065,124.735,156.91,122.467,154.977,121.06
			z M103.226,128.173h-6.452v-21.245l3.226-3.226l3.226,3.226V128.173z M116.129,70.109h-6.452v6.452h6.452v51.613h-6.452v-23.916
			L100,94.58l-9.677,9.677v23.916h-6.452V76.56h6.452v-6.452h-6.452v-6.452h32.258V70.109z M116.129,57.206H83.871v-4.887
			c0-4.306,1.677-8.358,4.723-11.403l8.181-8.181c1.697-1.697,4.755-1.697,6.452,0l8.181,8.181
			c3.045,3.045,4.723,7.097,4.723,11.403V57.206z"/>
	</g>
</g>
<path fill="#D6D9FF" d="M182.863,212.076c-0.655-2.257-1.731-4.491-3.055-6.59c-0.966-2.372-2.646-4.369-4.686-5.815
	c-0.405-0.396-0.813-0.786-1.229-1.15c-4.567-3.991-10.317-4.953-16.125-3.882c-1.733,0.32-3.308,0.879-4.734,1.632
	c-0.137-0.094-0.279-0.184-0.404-0.285c-0.222-0.18-0.496-4.715-0.721-5.397c-0.996-3.014-3.014-5.684-5.447-7.669
	c-5.252-4.283-11.738-4.341-18.144-4.281c-3.641,0.034-8.534-3.435-11.659-5.175c-0.822-0.458-1.63-0.929-2.438-1.398
	c-0.886-1.235-2.006-2.294-3.303-3.068c0.413-0.987,0.507-2.122,0.107-3.313c-0.02-0.114-0.059-0.226-0.086-0.339
	c0.015-2.511-1.595-5.02-4.835-4.993c-3.92,0.032-8.034-0.267-11.973,0.101c-0.138-0.014-0.271-0.046-0.412-0.049
	c-1.004-0.023-1.983,0.134-2.887,0.564c-0.789,0.269-1.542,0.763-2.055,1.276c-0.933,0.933-1.464,2.215-1.464,3.536
	s0.531,2.602,1.464,3.536c0.337,0.261,0.675,0.521,1.012,0.782c0.026,0.015,0.054,0.025,0.08,0.04
	c0.113,0.084,0.224,0.17,0.343,0.245c0.008,0.022,0.017,0.046,0.025,0.061c-0.114-0.048-0.371-0.077-0.901,0.067
	c-2.244,0.612-4.537,0.989-6.771,1.646c-3.825,1.125-6.979,3.504-9.585,6.406c-0.516-0.425-1.123-0.742-1.819-0.885
	c-7.989-1.642-14.213,2.446-19.06,8.531c-2.158,2.709-3.625,5.456-3.386,9.003c0.108,1.603,0.607,2.519-0.342,3.646
	c-3.644-5.989-11.199-7.838-17.839-5.983c-3.902,1.09-7.156,4.073-9.117,7.527c-0.512,0.902-0.828,1.869-1.048,2.862
	c-2.056,3.504-2.645,8.038-2.703,11.904c-0.03,2.005,0.916,3.385,2.236,4.143c1.518,1.831,4.218,2.785,6.454,1.341
	c0.589-0.38,1.203-0.697,1.836-0.968c0.568,0.595,1.327,1.063,2.311,1.305c6.213,1.529,12.858,0,19.169-0.192
	c1.843-0.056,4.206,0.173,6.511,0.138c0.774,1.131,2.083,1.92,3.983,1.899c4.68-0.054,9.344-0.51,14.023-0.543
	c3.852-0.027,7.521-0.171,11.001-1.973c0.256-0.133,0.484-0.281,0.697-0.438c14.86,1.299,29.856-0.144,44.749-0.016
	c8.38,0.072,16.756,0.405,25.114,1.02c6.23,0.459,13.074,2.383,19.302,1.833C180.388,222.245,184.444,217.527,182.863,212.076z"/>
<g>
	<g>
		<polygon fill="#191919" points="112.903,141.077 112.903,147.528 103.226,147.528 103.226,141.077 96.774,141.077 96.774,147.528 
			87.097,147.528 87.097,141.077 80.645,141.077 80.645,153.98 119.355,153.98 119.355,141.077 		"/>
	</g>
</g>
<g>
	<g>
		<path fill="#191919" d="M186.119,218.496c0.629-2.09,0.977-4.258,0.977-6.452c0-12.452-10.129-22.581-22.581-22.581
			c-3.619,0-7.029,0.877-10.061,2.397c-1.919-10.519-11.132-18.526-22.197-18.526c-2.716,0-5.419,0.497-7.948,1.445
			c-3.087-3.552-6.952-6.455-11.406-8.403v-5.945h-6.452v10.416l2.148,0.761c10.29,3.645,17.206,13.413,17.206,24.306h6.452
			c0-5.59-1.526-10.9-4.132-15.584c1.335-0.352,2.713-0.545,4.132-0.545c8.894,0,16.129,7.235,16.129,16.129
			c0,0.126-0.013,0.248-0.016,0.374c-3.974,4.071-6.435,9.629-6.435,15.755h6.452c0-8.894,7.235-16.129,16.129-16.129
			c8.894,0,16.129,7.235,16.129,16.129c0,2.219-0.471,4.416-1.368,6.452H20.703c-0.884-2.023-1.348-4.219-1.348-6.452
			c0-8.894,7.235-16.129,16.129-16.129c5.739,0,11.094,3.09,13.974,8.068l5.584-3.232c-0.952-1.645-2.113-3.129-3.413-4.458
			c-0.003-0.126-0.016-0.252-0.016-0.377c0-8.894,7.235-16.129,16.129-16.129c1.419,0,2.797,0.194,4.129,0.545
			c-2.603,4.684-4.129,9.994-4.129,15.584c0,7.352,2.542,14.545,7.152,20.258l5.019-4.055c-3.742-4.635-5.719-10.235-5.719-16.203
			c0-10.894,6.916-20.661,17.206-24.303l2.148-0.765v-10.416h-6.452v5.945c-4.455,1.948-8.319,4.852-11.406,8.403
			c-2.529-0.948-5.232-1.445-7.948-1.445c-11.077,0-20.297,8.023-22.2,18.558c-3.087-1.542-6.51-2.429-10.058-2.429
			c-12.452,0-22.581,10.129-22.581,22.581c0,2.2,0.342,4.368,0.965,6.452H0v6.452h200v-6.452H186.119z"/>
	</g>
</g>
<g>
	<g>
		<rect x="80.645" y="189.464" fill="#191919" width="6.452" height="6.452"/>
	</g>
</g>
<g>
	<g>
		<rect x="119.355" y="202.367" fill="#191919" width="6.452" height="6.452"/>
	</g>
</g>
<g>
	<g>
		<rect x="161.29" y="205.593" fill="#191919" width="6.452" height="6.452"/>
	</g>
</g>
<g>
	<g>
		<rect x="54.839" y="205.593" fill="#191919" width="6.452" height="6.452"/>
	</g>
</g>
</svg>
