<?xml version="1.0" encoding="utf-8"?>
<!-- Generator: Adobe Illustrator 17.0.0, SVG Export Plug-In . SVG Version: 6.00 Build 0)  -->
<!DOCTYPE svg PUBLIC "-//W3C//DTD SVG 1.1//EN" "http://www.w3.org/Graphics/SVG/1.1/DTD/svg11.dtd">
<svg version="1.1" id="Layer_1" xmlns="http://www.w3.org/2000/svg" xmlns:xlink="http://www.w3.org/1999/xlink" x="0px" y="0px"
	 width="511.97px" height="490.749px" viewBox="0 0 511.97 490.749" enable-background="new 0 0 511.97 490.749"
	 xml:space="preserve">
<g>
	<path fill="#D6D9FF" d="M432.093,283.995c-3.274-19.587-11.234-38.216-20.109-55.852c-2.088-4.15-7.147-2.683-8.734,0.609
		c-9.527,4.482-18.702,9.725-28.58,13.426c-10.379,3.889-22.139,3.651-33.047,3.983c-11.482,0.349-22.982,0.686-34.295-1.65
		c-10.192-2.104-20.437-5.302-30.2-8.874c-9.68-3.541-18.265-8.27-25.602-15.553c-3.514-3.488-6.868-7.09-10.658-10.288
		c-3.935-3.321-8.258-6.131-12.267-9.355c-15.832-12.733-14.688-36.342-22.618-53.633c-0.958-2.089-3.611-2.737-5.647-2.298
		c-8.638,1.863-17.104,4.318-25.838,5.728c-7.366,1.189-14.854,2.837-21.555,6.218c-0.955-0.79-1.887-1.596-2.775-2.153
		c-2.485-1.558-5.183-2.792-7.833-4.034c-4.258-1.996-8.671-3.764-12.539-6.474c-6.153-4.311-13.18-11.325-21.002-12.087
		c-9.416-0.917-7.417,11.274-6.698,16.914c1.13,8.861,2.099,16.728,2.581,25.346c0.031,0.68,0.054,1.36,0.083,2.04
		c-2.532,1.548-4.705,3.592-6.949,5.692c-3.749,3.508-8.479,5.919-12.415,9.238c-4.401,3.712-8.008,9.044-11.607,13.518
		c-3.856,4.793-7.631,9.737-10.487,15.2c-2.495,4.771-4.224,9.968-6.048,15.018c-2.092,5.794-4.664,11.384-7.092,17.041
		c-1.982,4.618-4.064,9.278-5.404,14.13c-0.512,1.856-1.012,3.705-1.626,5.53c-0.106,0.263-0.212,0.526-0.319,0.788
		c-0.452,1.044-0.573,1.108-0.363,0.192c-1.304,0.081-2.658-0.111-3.955-0.223c-6.072-0.521-17.859-0.816-19.514,7.063
		c-0.959,4.562,0.359,9.094,0.496,13.692c0.21,7.041-0.169,14.096-0.463,21.129c-0.252,6.037-0.347,12.064-0.347,18.106
		c0,3.979-0.659,9.62,2.357,12.802c2.758,2.91,6.56,2.418,10.213,2.394c4.851-0.032,9.663-0.228,14.484-0.067
		c-0.316,0.862-0.334,1.889,0.124,3.075c2.833,7.333,7.908,13.224,13.22,18.906c0.384,0.41,0.767,0.82,1.151,1.229
		c-0.249,1.078-0.055,2.258,0.8,3.392c0.259,0.343,0.535,0.664,0.802,0.996c-0.007,0.005-0.014,0.011-0.021,0.016
		c0.069,0.07,0.136,0.142,0.204,0.213c1.363,1.665,2.823,3.203,4.358,4.653c8.731,9.661,16.473,19.988,27.01,27.979
		c2.999,2.275,6.146,3.962,9.43,5.405c6.034,5.675,12.372,10.964,20.053,13.993c-0.085,0.288-0.151,0.583-0.187,0.888
		c-0.757,6.498,0.829,12.849,1,19.333c0.126,4.758,0.348,9.396,1.101,14.004c-6.767,14.914,17.482,15.215,26.478,14.927
		c5.639-0.181,13.534,1.043,18.401-2.079c3.143-2.016,4.152-5.705,4.676-9.178c0.792-5.246,1.496-10.751,1.66-16.143
		c7.653-1.016,15.521-0.308,23.187,0.123c10.233,0.575,20.489,0.575,30.729,1.113c10.198,0.535,20.325,0.763,30.518-0.014
		c10.019-0.764,19.966-2.27,29.964-3.257c0.589,3.02-0.645,7.847-0.768,10.096c-0.246,4.489,1.295,8.969,5.143,11.553
		c8.138,5.465,21.202,3.262,30.411,3.023c5.449-0.141,11.923,0.937,17.274-0.197c3.489-0.739,5.38-2.731,6.273-5.494
		c3.379-2.465,5.82-6.306,7.139-10.459c3.41-10.737,1.602-22.645,1.486-33.696c13.118-9.463,24.848-21.193,35.906-32.786
		c6.925-7.26,13.359-14.994,19.092-23.229c5.585-8.021,8.923-17.097,12.992-25.92c3.97-8.607,7.712-16.606,8.482-26.184
		C434.605,303.662,433.721,293.738,432.093,283.995z M122.075,261.161c-5.097,9.218-17.032,9.204-25.14,4.609
		c-2.539-1.439-5.126-3.172-7.303-5.266c0.328-0.681,0.476-1.515,0.368-2.504c-1.352-12.299,7.64-19.495,19.443-18.907
		C121.279,239.683,127.889,250.646,122.075,261.161z"/>
	<path fill="#040404" d="M342.957,0c7.596,2.051,15.457,2.771,23.058,4.929c57.726,16.392,96.66,72.161,92.191,132.01
		c-2.212,29.63-13.323,55.371-33.203,77.317c-2.32,2.562-2.07,4.053-0.385,6.675c14.53,22.599,22.484,47.302,23.346,74.23
		c0.298,9.308,6.789,17.456,15.575,19.781c9.324,2.467,18.801-1.236,23.825-9.309c4.911-7.891,4.234-17.996-1.982-25.055
		c-2.696-3.061-5.513-5.952-5.093-10.372c0.408-4.292,2.586-7.542,6.68-9.189c4.753-1.911,8.734-0.425,12.267,2.994
		c19.3,18.674,16.271,51.103-6.44,65.895c-14.346,9.344-29.412,9.673-44.451,1.594c-3.189-1.713-3.961-1.647-4.955,2.031
		c-11.68,43.228-38.848,74.674-75.8,98.427c-3.766,2.421-4.975,4.86-4.887,9.129c0.251,12.159,0.073,24.328,0.007,36.493
		c-0.049,9.041-4.096,13.095-13.141,13.112c-19.831,0.036-39.661,0.034-59.492-0.002c-8.74-0.016-12.693-4.139-12.934-12.848
		c-0.108-3.906,1.915-9.241-0.943-11.301c-2.26-1.628-7.265,0.655-11.067,1.05c-23.301,2.42-46.563,2.293-69.764-1.213
		c-0.981-0.148-1.971-0.239-3.386-0.408c0,4.453,0.052,8.761-0.012,13.067c-0.104,7.004-4.086,11.527-10.989,11.583
		c-21.162,0.171-42.328,0.174-63.49-0.013c-6.71-0.059-10.692-4.453-10.745-11.23c-0.104-13.497-0.076-26.996,0.005-40.494
		c0.014-2.345-0.448-3.9-2.662-5.276c-27.802-17.282-50.577-39.46-66.035-68.623c-1.063-2.006-2.412-2.364-4.388-2.336
		c-5.998,0.087-12.017-0.244-17.992,0.139c-6.547,0.42-11.921-1.174-15.676-6.833c0-30.996,0-61.992,0-92.988
		c3.378-5.372,8.073-7.815,14.534-7.076c3.287,0.376,6.661-0.085,9.982,0.094c2.506,0.135,3.722-0.571,4.625-3.163
		c10.175-29.216,28.156-52.954,51.811-72.528c3.155-2.611,4.335-5.15,4.322-9.185c-0.055-17.312-0.464-34.631,0.404-51.939
		c0.243-4.843,0.744-9.378,5.974-11.574c4.059-1.704,7.709-0.767,11.343,1.416c16.236,9.755,32.522,19.427,48.789,29.131
		c1.828,1.091,3.368,2.114,5.93,1.293c13.157-4.218,26.623-7.249,40.344-8.889c3.761-0.449,4.724-1.769,4.811-5.471
		c1.41-59.858,42.795-109.673,101.295-122.336c3.936-0.852,8.178-0.514,11.797-2.74C324.959,0,333.958,0,342.957,0z M106.74,136.233
		c0,15.285-0.049,29.442,0.028,43.599c0.025,4.626-1.311,8.373-5.147,11.273c-26.774,20.244-46.412,45.545-55.406,78.389
		c-1.398,5.107-5.066,7.631-10.351,7.709c-3.665,0.054-7.341,0.179-10.995-0.031c-2.869-0.165-3.685,0.876-3.669,3.693
		c0.109,18.995,0.109,37.992,0.012,56.987c-0.014,2.649,0.828,3.451,3.417,3.384c5.995-0.155,11.996-0.088,17.995-0.038
		c4.687,0.039,8.463,1.813,10.514,6.244c14.677,31.703,38.576,54.6,68.484,71.748c4.507,2.584,6.482,6.29,6.419,11.478
		c-0.141,11.663,0.045,23.329-0.116,34.991c-0.039,2.849,0.784,3.603,3.599,3.566c11.662-0.153,23.329-0.16,34.991,0.012
		c3.159,0.046,4.549-0.64,4.259-4.096c-0.305-3.64-0.113-7.327-0.058-10.992c0.128-8.601,5.236-13.018,13.591-11.328
		c33.582,6.795,67.127,6.77,100.708-0.009c7.941-1.603,13.362,2.845,13.671,10.911c0.146,3.827,0.279,7.685-0.042,11.49
		c-0.291,3.454,1.094,4.072,4.204,4.025c11.328-0.17,22.664-0.205,33.99,0.016c3.423,0.067,4.532-0.713,4.443-4.317
		c-0.26-10.491,0.208-21.004-0.195-31.486c-0.283-7.342,2.332-12.026,8.856-15.712c17.682-9.991,33.112-22.839,46.179-38.484
		c35.348-42.322,40.217-97.81,12.677-143.574c-2.119-3.522-3.496-3.843-6.981-1.505c-43.072,28.892-98.439,29.234-141.558,0.63
		c-28.574-18.955-46.802-45.357-54.416-78.879c-0.826-3.635-1.804-4.924-6.026-4.238c-12.832,2.084-25.591,4.504-37.819,8.851
		c-6.742,2.396-12.217,1.956-18.271-1.954C131.911,150.957,119.667,143.991,106.74,136.233z M330.412,234.674
		c58.309,0.334,106.423-47.508,106.745-106.142c0.324-58.951-47.08-106.871-106.108-107.261
		c-58.462-0.386-106.793,47.413-107.065,105.886C223.709,186.414,271.144,234.334,330.412,234.674z"/>
	<path fill="#F5F4F7" d="M330.412,234.674c-59.268-0.339-106.703-48.26-106.428-107.516
		c0.272-58.473,48.603-106.272,107.065-105.886c59.028,0.39,106.432,48.309,106.108,107.261
		C436.835,187.166,388.721,235.007,330.412,234.674z M330.308,213.222c10.995-0.005,10.995-0.005,10.999-11.094
		c0-0.667,0.079-1.344-0.012-1.998c-0.548-3.938,0.679-5.923,4.924-7.339c17.317-5.775,27.85-23.225,24.816-40.163
		c-1.63-9.098-7.357-15.441-14.32-20.908c-8.73-6.856-18.983-10.897-28.884-15.584c-5.718-2.706-11.467-5.384-16.153-9.761
		c-6.217-5.808-5.561-14.778,1.413-19.748c2.892-2.061,6.198-3.129,9.693-3.697c11.24-1.825,21.538,0.059,30.367,7.689
		c2.113,1.826,3.614,2.217,5.378-0.684c2.587-4.255,5.581-8.278,8.607-12.243c1.374-1.801,1.088-2.721-0.683-3.894
		c-4.84-3.207-9.366-6.847-14.861-9.063c-3.332-1.344-8.284-0.95-9.758-3.845c-1.56-3.064-0.503-7.48-0.52-11.306
		c-0.031-6.879-0.01-6.896-6.745-6.854c-4.659,0.029-10.867-1.688-13.57,0.64c-3.13,2.697-0.872,9.076-0.924,13.843
		c-0.032,2.94-0.524,4.638-3.876,4.912c-2.098,0.171-4.166,1.093-6.18,1.858c-13.679,5.196-21.493,15.375-23.932,29.508
		c-2.378,13.774,4.289,23.763,14.844,31.614c3.455,2.57,7.147,4.897,10.968,6.879c6.186,3.209,12.584,6.006,18.86,9.044
		c5.091,2.465,10.197,4.956,14.442,8.785c6.912,6.235,6.033,15.758-1.929,20.617c-1.815,1.108-3.87,2.025-5.935,2.486
		c-11.931,2.66-23.198,1.633-32.874-6.725c-2.492-2.152-4.13-2.391-6.058,0.819c-2.477,4.125-5.438,7.971-8.345,11.822
		c-1.32,1.748-1.035,2.643,0.677,3.942c7.785,5.906,16.07,10.766,25.911,12.077c2.924,0.389,3.648,1.538,3.361,4.128
		c-0.146,1.317-0.027,2.663-0.025,3.996C319.996,213.227,319.996,213.227,330.308,213.222z"/>
	<path fill="#040404" d="M106.369,277.194c-11.744-0.1-21.264-9.724-21.15-21.381c0.114-11.704,9.684-21.128,21.44-21.113
		c12.003,0.016,21.499,9.656,21.324,21.649C127.812,268.045,118.221,277.295,106.369,277.194z"/>
	<path fill="#040403" d="M330.308,213.222c-10.312,0.004-10.312,0.004-10.322-10.249c-0.001-1.333-0.12-2.679,0.025-3.996
		c0.287-2.591-0.437-3.739-3.361-4.128c-9.841-1.311-18.126-6.171-25.911-12.077c-1.711-1.298-1.996-2.194-0.677-3.942
		c2.906-3.85,5.867-7.697,8.345-11.822c1.928-3.21,3.566-2.971,6.058-0.819c9.676,8.359,20.943,9.386,32.874,6.725
		c2.066-0.461,4.12-1.378,5.935-2.486c7.962-4.859,8.841-14.382,1.929-20.617c-4.245-3.829-9.351-6.32-14.442-8.785
		c-6.276-3.038-12.675-5.835-18.86-9.044c-3.82-1.982-7.513-4.31-10.968-6.879c-10.555-7.851-17.222-17.84-14.844-31.614
		c2.439-14.132,10.253-24.311,23.932-29.508c2.013-0.765,4.082-1.686,6.18-1.858c3.352-0.274,3.844-1.972,3.876-4.912
		c0.052-4.768-2.206-11.147,0.924-13.843c2.703-2.328,8.911-0.611,13.57-0.64c6.735-0.042,6.714-0.025,6.745,6.854
		c0.017,3.826-1.04,8.242,0.52,11.306c1.474,2.895,6.426,2.501,9.758,3.845c5.495,2.216,10.021,5.856,14.861,9.063
		c1.771,1.174,2.057,2.093,0.683,3.894c-3.026,3.965-6.02,7.988-8.607,12.243c-1.764,2.901-3.265,2.51-5.378,0.684
		c-8.829-7.63-19.127-9.514-30.367-7.689c-3.495,0.567-6.801,1.636-9.693,3.697c-6.974,4.971-7.631,13.94-1.413,19.748
		c4.686,4.378,10.435,7.055,16.153,9.761c9.902,4.687,20.154,8.728,28.884,15.584c6.962,5.467,12.69,11.81,14.32,20.908
		c3.035,16.938-7.499,34.388-24.816,40.163c-4.245,1.416-5.472,3.401-4.924,7.339c0.091,0.654,0.012,1.331,0.012,1.998
		C341.302,213.218,341.302,213.218,330.308,213.222z"/>
</g>
</svg>
