<?xml version="1.0" encoding="utf-8"?>
<!-- Generator: Adobe Illustrator 17.0.0, SVG Export Plug-In . SVG Version: 6.00 Build 0)  -->
<!DOCTYPE svg PUBLIC "-//W3C//DTD SVG 1.1//EN" "http://www.w3.org/Graphics/SVG/1.1/DTD/svg11.dtd">
<svg version="1.1" id="Layer_1" xmlns="http://www.w3.org/2000/svg" xmlns:xlink="http://www.w3.org/1999/xlink" x="0px" y="0px"
	 width="154.839px" height="122.581px" viewBox="45.161 102.419 154.839 122.581"
	 enable-background="new 45.161 102.419 154.839 122.581" xml:space="preserve">
<path fill="#D6D9FF" d="M197.321,216.931c-0.269-0.822-0.775-1.457-1.418-1.938c1.322-3.853,0.782-8.722,1.014-12.737
	c0.633-10.926-0.297-22.032-0.464-32.971c-0.168-11.006-0.283-21.972-0.204-32.977c0.025-3.501,0.722-6.191-2.214-9.066
	c-2.486-2.433-7.804-1.348-11.036-1.23c-2.557,0.092-4.097,1.482-4.622,3.105c-0.755,0.502-1.302,1.198-1.45,2.082
	c-1.054,6.279,0.571,12.672,0.571,19.006c0,6.683-0.201,13.252-0.969,19.908c-1.618,14.03,0.646,27.998,0.719,42.052
	c0.008,1.568,0.853,2.68,2.047,3.34c0.391,3.754,2.269,6.637,7.84,5.917c2.043,0.876,4.469,0.981,6.692,0.678
	C196.523,221.734,197.984,218.956,197.321,216.931z"/>
<path fill="#D6D9FF" d="M164.55,185.364c-0.514-12.318,1.009-24.867,1.275-37.201c0.253-11.739-0.243-23.271-0.981-34.975
	c-0.618-9.805-10.873-8.533-17.673-6.759c-4.205,1.097-4.366,5.837-2.113,8.31c-0.9,2.148-0.632,4.799-0.439,7.027
	c0.824,9.508,0.483,19.303-0.229,28.804c-0.741,9.877-1.05,19.608-0.508,29.508c0.26,4.758,0.898,9.495,1.531,14.23
	c-0.718,7.524-0.901,15.076,0.088,22.692c0.489,3.764,3.864,6.221,7.524,4.317c1.868-0.972,3.953-0.32,5.897,0.004
	c2.477,0.413,5.645-0.614,6.151-3.492C166.992,206.892,165.006,196.309,164.55,185.364z"/>
<path fill="#D6D9FF" d="M132.924,169.604c-0.395-4.235-1.159-8.419-1.605-12.647c-0.254-2.404-0.218-4.799-0.069-7.207
	c0.086-1.388,0.909-2.629,0.875-4.063c-0.194-8.053-9.158-7.432-14.875-7.188c-4.125,0.177-5.608,4.363-4.435,7.264
	c-0.03,0.204-0.043,0.411-0.06,0.618c-1.083,0.796-1.81,2.083-1.755,3.869c0.229,7.35,0.318,14.696,1.25,22
	c0.178,1.393,0.805,2.48,1.665,3.263c-0.677,6.841-1.366,13.765-1.279,20.562c0.072,5.608-0.097,11.983,1.354,17.59
	c-0.561,1.625-1.023,3.276-1.24,5.085c-0.203,1.69,1.096,3.508,2.476,4.317c1.955,1.145,4.193,0.741,5.868-0.634
	c0.006-0.002,0.013-0.004,0.02-0.006c0.085-0.003,0.193-0.007,0.339-0.013c0.35,0.007,0.699,0.036,1.046,0.086
	c1.357,0.154,2.607-0.473,3.518-1.45c1.783-0.341,3.425-0.995,4.597-1.901c1.849-1.429,2.117-3.746,2.306-5.911
	c0.38-4.349,1.068-8.662,1.329-13.023C134.853,190.172,133.857,179.606,132.924,169.604z"/>
<path fill="#D6D9FF" d="M97.774,172.683c-1.425-0.835-3.296-0.86-4.791-0.15C89.907,171.487,86.172,171.92,83,172
	c-6.053,0.153-6.426,9.002-1.085,9.923c-1.145,6.673-0.956,13.327-1.264,20.085c-0.251,5.505-1.033,12.106,2.031,17.016
	c1.132,1.814,3.502,3.04,5.647,2.298c0.8-0.277,1.643-0.499,2.486-0.72c0.362,0.163,0.721,0.329,1.105,0.47
	c2.561,0.939,5.473-1.029,6.151-3.492c0.222-0.807,0.232-1.581,0.08-2.299c0.062-0.226,0.125-0.452,0.17-0.701
	c1.149-6.332,0.118-13.358,0.346-19.809c0.151-4.279,1.053-9.501,0.282-14.075c0.207-0.39,0.418-0.778,0.618-1.172
	C100.802,177.093,100.226,174.119,97.774,172.683z"/>
<path fill="#D6D9FF" d="M68.775,212.118c-0.113-2.475-0.223-5.112-1.305-7.379c-2.44-5.113-9.919-2.849-14.22-2.739
	c-4.127,0.106-5.61,4.254-4.444,7.174c-0.505,0.738-0.812,1.677-0.806,2.826c0.018,3.098,0.258,6.436,2.627,8.72
	c2.722,2.625,6.558,2.185,9.952,1.602c0.758-0.13,1.415-0.488,1.958-0.981c2.471,0.449,5.514-0.748,6.034-3.511
	C68.927,215.938,68.863,214.03,68.775,212.118z"/>
<g>
	<path d="M45.161,225h25.806v-25.806H45.161V225z M51.613,205.645h12.903v12.903H51.613V205.645z"/>
	<path d="M77.419,225h25.806v-58.065H77.419V225z M83.871,173.387h12.903v45.161H83.871V173.387z"/>
	<path d="M109.677,225h25.806v-90.323h-25.806V225z M116.129,141.129h12.903v77.419h-12.903V141.129z"/>
	<path d="M141.935,225h25.806V102.419h-25.806V225z M148.387,108.871h12.903v109.677h-12.903V108.871z"/>
	<path d="M174.194,225H200V122.58h-25.806V225z M180.645,127.971h12.903v91.639h-12.903V127.971z"/>
</g>
</svg>
