<?xml version="1.0" encoding="utf-8"?>
<!-- Generator: Adobe Illustrator 17.0.0, SVG Export Plug-In . SVG Version: 6.00 Build 0)  -->
<!DOCTYPE svg PUBLIC "-//W3C//DTD SVG 1.1//EN" "http://www.w3.org/Graphics/SVG/1.1/DTD/svg11.dtd">
<svg version="1.1" id="Layer_1" xmlns="http://www.w3.org/2000/svg" xmlns:xlink="http://www.w3.org/1999/xlink" x="0px" y="0px"
	 width="496px" height="496px" viewBox="0 0 496 496" enable-background="new 0 0 496 496" xml:space="preserve">
<path fill="#191919" d="M120,208h256v16H120V208z"/>
<rect x="11.167" y="9.833" fill="#D6D9FF" width="474.667" height="60"/>
<circle fill="#D6D9FF" cx="248.167" cy="383.5" r="54.333"/>
<path fill="#191919" d="M272,240h104v16H272V240z"/>
<path fill="#191919" d="M120,240h104v16H120V240z"/>
<path fill="#191919" d="M272,176h104v16H272V176z"/>
<path fill="#191919" d="M120,176h104v16H120V176z"/>
<path fill="#191919" d="M120,144h256v16H120V144z"/>
<path fill="#191919" d="M424,185.367V144c0-26.473-21.527-48-48-48v16c17.648,0,32,14.352,32,32v41.367
	c0,14.184,4.68,27.656,13.32,38.633C412.68,234.977,408,248.449,408,262.633V304c0,17.648-14.352,32-32,32v16
	c26.473,0,48-21.527,48-48v-41.367c0-12.457,4.848-24.168,13.656-32.977l5.656-5.656l-5.656-5.656
	C428.848,209.535,424,197.832,424,185.367z"/>
<path fill="#191919" d="M88,304v-41.367c0-14.184-4.68-27.656-13.32-38.633C83.32,213.023,88,199.551,88,185.367V144
	c0-17.648,14.352-32,32-32V96c-26.473,0-48,21.527-48,48v41.367c0,12.457-4.848,24.168-13.656,32.977L52.688,224l5.656,5.656
	C67.152,238.465,72,250.168,72,262.633V304c0,26.473,21.527,48,48,48v-16C102.352,336,88,321.648,88,304z"/>
<path fill="#191919" d="M248,352c-17.648,0-32,14.352-32,32s14.352,32,32,32s32-14.352,32-32S265.648,352,248,352z M248,400
	c-8.824,0-16-7.176-16-16s7.176-16,16-16s16,7.176,16,16S256.824,400,248,400z"/>
<path fill="#191919" d="M248,320c-10.625,0-21.16,2.664-30.457,7.695l7.625,14.074C232.137,338,240.023,336,248,336
	c26.473,0,48,21.527,48,48c0,7.977-2,15.863-5.77,22.832l14.074,7.625C309.336,405.16,312,394.625,312,384
	C312,348.711,283.289,320,248,320z"/>
<path fill="#191919" d="M248,432c-26.473,0-48-21.527-48-48c0-7.977,2-15.863,5.77-22.832l-14.074-7.625
	C186.664,362.84,184,373.375,184,384c0,35.289,28.711,64,64,64c10.625,0,21.16-2.664,30.457-7.695l-7.625-14.074
	C263.863,430,255.977,432,248,432z"/>
<path fill="#191919" d="M496,24c0-13.23-10.77-24-24-24H24C10.77,0,0,10.77,0,24v368h136v14.246l20.023,5.012
	c1.906,6.414,4.473,12.605,7.672,18.496l-10.633,17.711l31.457,31.457l17.711-10.633c5.891,3.207,12.082,5.773,18.496,7.672
	L225.754,496h44.492l5.012-20.023c6.414-1.906,12.605-4.473,18.496-7.672l17.711,10.633l31.457-31.457l-10.633-17.711
	c3.207-5.891,5.773-12.082,7.672-18.496L360,406.246V392h136V24z M24,16h448c4.406,0,8,3.594,8,8v40H16V24
	C16,19.594,19.594,16,24,16z M344,393.754l-17.168,4.293l-1.137,4.715c-1.941,8.078-5.145,15.781-9.496,22.895l-2.535,4.137
	l9.121,15.191l-13.793,13.793l-15.191-9.121l-4.137,2.535c-7.113,4.352-14.816,7.551-22.895,9.496l-4.715,1.137L257.754,480h-19.508
	l-4.293-17.168l-4.715-1.137c-8.078-1.941-15.781-5.145-22.895-9.496l-4.137-2.535l-15.191,9.121l-13.793-13.793l9.121-15.191
	l-2.535-4.137c-4.352-7.113-7.551-14.816-9.496-22.895l-1.137-4.715L152,393.754v-19.508l17.168-4.293l1.137-4.715
	c1.941-8.078,5.145-15.781,9.496-22.895l2.535-4.137l-9.121-15.191l13.793-13.793l15.191,9.121l4.137-2.535
	c7.113-4.352,14.816-7.551,22.895-9.496l4.715-1.137L238.246,288h19.508l4.293,17.168l4.715,1.137
	c8.078,1.941,15.781,5.145,22.895,9.496l4.137,2.535l15.191-9.121l13.793,13.793l-9.121,15.191l2.535,4.137
	c4.352,7.113,7.551,14.816,9.496,22.895l1.137,4.715L344,374.246V393.754z M360,376v-14.246l-20.023-5.012
	c-1.906-6.414-4.473-12.605-7.672-18.496l10.633-17.711l-31.457-31.457l-17.711,10.633c-5.891-3.207-12.082-5.773-18.496-7.672
	L270.246,272h-44.492l-5.012,20.023c-6.414,1.906-12.605,4.473-18.496,7.672l-17.711-10.633l-31.457,31.457l10.633,17.711
	c-3.207,5.891-5.773,12.082-7.672,18.496L136,361.754V376H16V80h464v296H360z"/>
<path fill="#191919" d="M32,32h16v16H32V32z"/>
<path fill="#191919" d="M64,32h16v16H64V32z"/>
<path fill="#191919" d="M96,32h16v16H96V32z"/>
</svg>
