<?xml version="1.0" encoding="utf-8"?>
<!-- Generator: Adobe Illustrator 17.0.0, SVG Export Plug-In . SVG Version: 6.00 Build 0)  -->
<!DOCTYPE svg PUBLIC "-//W3C//DTD SVG 1.1//EN" "http://www.w3.org/Graphics/SVG/1.1/DTD/svg11.dtd">
<svg version="1.1" id="Layer_1" xmlns="http://www.w3.org/2000/svg" xmlns:xlink="http://www.w3.org/1999/xlink" x="0px" y="0px"
	 width="496px" height="496px" viewBox="0 0 496 496" enable-background="new 0 0 496 496" xml:space="preserve">
<path fill="#FFFFFF" d="M209.696,289.588c-1.727-1.308-4.144-1.576-6.489-1.414c-0.013-0.002-0.026-0.006-0.04-0.007
	c-3.4-0.409-6.946-0.95-10.135,0.683c-3.819,1.956-4.916,6.017-5.199,9.983c-0.309,4.331,1.961,8.494,5.471,10.859
	c3.504,2.361,8.419,1.498,11.936-0.274C212.428,305.797,217.123,295.214,209.696,289.588z M200.363,300.67
	c0.226-0.198-1.31,0.435-1.514,0.449c-1.383,0.095-0.619-0.161-0.435-0.003c-0.107-0.092-0.191-0.215-0.264-0.351
	c0.471-0.381,0.884-0.848,1.225-1.381c0.006-0.004,0.008-0.004,0.014-0.008c0.602-0.388,0.965-0.482,1.549-0.675
	c0.535-0.177,1.274-0.325,1.946-0.42C202.235,299.248,201.338,300.059,200.363,300.67z"/>
<circle fill="#F5F4F7" cx="202.534" cy="295.146" r="158.146"/>
<path fill="#D6D9FF" d="M483.934,110.696c-0.72-6.994-1.648-14.563-4.476-21.155c0.011-0.435-0.027-0.891-0.137-1.37
	c-2.715-11.863-10.934-21.539-19.09-30.174c-8.47-8.967-17.181-18.303-26.669-26.186c-10.341-8.592-21.856-13.809-35.066-16.092
	c-15.268-2.639-29.951-4.878-45.38-2.145c-14.465,2.562-28.254,9.059-41.183,15.799c-10.68,5.568-20.731,12.077-30.087,19.667
	c-18.132,14.71-33.287,35.306-33.542,59.479c-0.066,6.279,1.368,12.482,2.374,18.643c0.118,0.721,0.351,1.32,0.662,1.816
	c-0.309,9.351,1.242,18.77,3.297,27.877c2.878,12.751,7.296,25.051,14.168,36.211c13.757,22.339,36.728,37.816,61.042,46.636
	c12.231,4.436,25.391,6.739,38.404,6.422c14.206-0.346,27.678-5.088,40.604-10.608c12.381-5.287,24.808-10.574,34.565-20.089
	c8.898-8.677,15.446-19.702,22.68-29.722c10.35-14.336,15.742-31.661,17.826-49.055
	C484.959,128.039,484.821,119.311,483.934,110.696z"/>
<path fill="#D6D9FF" d="M387.151,256.976c-4.771-11.046-15.522-7.513-24.647-5.298c-2.594,0.63-4.271,3.603-3.492,6.151
	c4.653,15.227,6.05,31.531,4.706,47.379c-0.06,0.704-0.14,1.408-0.21,2.113c-3.567,4.666-5.315,11.32-6.846,16.885
	c-1.4,5.085-3.039,11.566-0.981,16.723c-2.543,7.402-4.251,15.112-6.514,22.599c-1.14,3.771-2.636,7.359-4.48,10.775
	c-5.335,6.129-9.767,13.048-13.306,20.403c-0.877,0.168-1.718,0.563-2.417,1.259c-6.379,6.348-11.146,14.078-16.668,21.133
	c-6.016,4.318-10.842,9.985-16.505,14.763c-2.611,2.203-5.561,4.01-8.314,6.069c-4.166,1.677-8.132,3.796-12.038,6.071
	c-7.62,0.216-14.71,2.662-21.35,6.263c-7.147,1.601-14.104,4.326-21.478,4.708c-8.247,0.427-18.079-0.606-25.528,3.722
	c-9.543-0.305-19.105,0.07-28.7-0.357c-2.626-0.117-5.33-0.299-8.056-0.573c-9.675-3.983-20.023-6.075-29.832-9.752
	c-0.974-0.365-1.849-0.422-2.615-0.26c-2.3-0.919-4.612-1.807-6.956-2.613c-6.366-2.19-11.904-6.669-17.897-9.665
	c-2.962-1.481-5.997-2.761-8.942-4.206c-1.393-1.112-2.829-2.156-4.382-3.048c-1.622-1.713-3.277-3.399-5.018-5.021
	c-5.9-5.498-12.318-10.39-18.645-15.385c-1.616-1.573-3.249-3.127-4.907-4.654c-4.716-6.588-9.091-13.417-13.057-20.484
	c-5.153-9.181-8.732-18.862-12.395-28.695c-0.968-2.6-2.01-5.162-3.117-7.698c-1.201-4.086-2.374-8.168-3.718-12.203
	c-0.309-3.427-0.671-6.848-0.827-10.294c-0.339-7.472-1.19-14.91-1.51-22.384c-0.356-8.319,0.527-16.5,1.93-24.69
	c2.589-15.111,7.805-29.286,13.436-43.477c3.311-8.343,6.829-16.613,10.806-24.655c6.158-6.684,10.021-15.427,16.556-21.86
	c2.826-2.782,5.84-5.434,9-7.929c2.089-1.431,4.085-2.986,6.115-4.493c2.779-1.898,5.646-3.665,8.58-5.282
	c4.46-2.005,9.215-3.271,13.321-6.131c24.05-9.432,49.637-14.717,73.573-24.563c0.879-0.362,1.565-0.888,2.083-1.509
	c2.057,0.194,4.121,0.481,6.197,0.908c3.707,0.763,7.443,1.024,11.179,0.944c4.604,1.013,9.243,1.022,13.97,1.09
	c3.797,0.054,7.468,1.041,11.248,1.193c5.428,0.218,7.51-3.767,7.731-8.157c3.326-2.735,3.216-8.361,2.967-12.446
	c-0.342-5.599-3.474-9.779-9.32-9.967c-8.753-0.281-17.161,0.163-25.893-1.13c-9.545-1.414-18.64-1.79-28.076,0.586
	c-2.388,0.601-4.709,1.468-7.015,2.394c-0.769-0.615-1.784-1.02-3.065-1.06c-3.034-0.094-5.947,0.318-8.795,1.008
	c-3.476,0.603-6.893,1.487-10.201,2.837c-0.827,0.338-1.562,0.831-2.159,1.429c-2.708,1.067-5.425,2.109-8.195,2.943
	c-7.649,0.684-16.241,2.112-21.623,6.946c-10.743,2.343-20.527,8.063-29.564,14.225c-7.962,5.429-14.395,12.387-20.971,19.243
	c-3.778,3.028-7.282,6.372-10.361,10.166c-0.201,0.248-0.37,0.5-0.522,0.754c-3.221,2.442-6.191,5.308-8.87,8.085
	c-3.439,3.566-7.611,8.482-8.579,13.721c-17.872,18.835-22.622,48.88-26.19,73.366c-1.489,10.219-2.661,21.479-2.619,32.778
	c-1.775,0.294-3.357,1.467-3.84,3.502c-1.42,5.981,1.046,11.535,3.242,17.002c-2.608,17.456,0.923,33.059,8.694,48.802
	c6.98,14.141,16.466,27.207,26.746,39.215c1.289,3.025,3.416,5.801,5.449,8.37c4.868,6.154,10.377,11.613,16.16,16.912
	c9.607,8.804,20.318,19.102,32.676,24.532c0.18,0.365,0.39,0.715,0.652,1.031c8.837,10.667,24.315,14.324,37.666,16.959
	c12.032,11.209,30.173,14.024,46.02,14.195c5.918,0.064,11.761-0.687,17.551-1.777c17.744,4.67,36.576,0.156,53.117-7.262
	c3.652-1.638,7.193-3.49,10.635-5.511c14.102,0.63,27.314-7.245,38.38-15.388c8.032-5.91,14.233-13.371,19.753-21.399
	c10.484-2.35,19.023-14.151,24.275-22.232c2.476-3.809,4.347-7.814,6-11.946c0.16-0.203,0.318-0.41,0.455-0.652
	c4.057-7.17,9.65-13.572,12.594-21.341c2.245-5.925,4.008-12.058,5.395-18.259c0.797-1.944,1.536-3.914,2.182-5.928
	c0.347-1.082,0.315-2.068,0.024-2.921c1.122-3.136,2.212-6.283,3.248-9.449c1.697-0.269,3.294-1.302,4.062-3.297
	c4.187-10.88,3.879-22.461,3.627-33.984c0.385-3.814,0.692-7.627,0.934-11.42c0.433-6.781,0.138-13.54,0.282-20.322
	C389.298,269.824,389.699,262.876,387.151,256.976z"/>
<path d="M358.798,164.601h-44.693l37.232-42.557c4.809-5.493,7.462-12.549,7.462-19.851v-1.24c0-16.622-13.527-30.149-30.149-30.149
	c-16.622,0-30.149,13.527-30.149,30.149v10.05h13.4v-10.05c0-9.238,7.511-16.749,16.749-16.749c9.238,0,16.749,7.511,16.749,16.749
	v1.239c0,4.06-1.476,7.973-4.148,11.028l-42.75,48.862V178h60.298V164.601z"/>
<path d="M412.861,177.702h13.287v-19.931h13.287v-13.287h-13.287V71.405h-17.394L373,142.917v14.854h39.861V177.702z
	 M387.072,144.484l25.789-51.581v51.581H387.072z"/>
<path d="M395.238,253.016C452.77,240.488,496,189.223,496,128C496,57.426,438.574,0,368,0c-61.223,0-112.488,43.23-125.016,100.762
	C228.863,97.656,214.457,96,200,96C89.719,96,0,185.719,0,296s89.719,200,200,200s200-89.719,200-200
	C400,281.543,398.344,267.137,395.238,253.016z M368,16c61.762,0,112,50.238,112,112s-50.238,112-112,112s-112-50.238-112-112
	S306.238,16,368,16z M351.688,288H336v16h15.594c-1.883,35.871-16.195,68.426-38.777,93.504l-11-11l-11.313,11.313l11,11
	c-25.078,22.59-57.633,36.895-93.504,38.777V432h-16v15.594c-35.871-1.883-68.426-16.195-93.504-38.777l11-11l-11.313-11.313l-11,11
	C64.594,372.426,50.289,339.871,48.406,304H64v-16H48.406c1.883-35.871,16.195-68.426,38.777-93.504l11,11l11.313-11.313l-11-11
	c25.078-22.59,57.633-36.895,93.504-38.777V160h16v-15.688c11.504,0.609,22.895,2.543,34.039,5.758
	c9.25,52.891,50.992,94.633,103.891,103.891C349.137,265.105,351.07,276.496,351.688,288z M200,480C98.535,480,16,397.465,16,296
	s82.535-184,184-184c13.648,0,27.258,1.609,40.574,4.617C240.238,120.375,240,124.16,240,128c0,1.672,0.184,3.305,0.246,4.969
	C227.047,129.695,213.559,128,200,128c-92.633,0-168,75.367-168,168s75.367,168,168,168s168-75.367,168-168
	c0-13.559-1.695-27.047-4.969-40.246c1.664,0.063,3.297,0.246,4.969,0.246c3.84,0,7.625-0.238,11.383-0.574
	C382.391,268.742,384,282.352,384,296C384,397.465,301.465,480,200,480z"/>
<path d="M224,296c0-10.414-6.711-19.215-16-22.527V176h-16v97.473c-9.289,3.313-16,12.113-16,22.527c0,13.23,10.77,24,24,24
	c3.695,0,7.152-0.902,10.281-2.406l56.063,56.063l11.313-11.313l-56.063-56.063C223.098,303.152,224,299.695,224,296z M192,296
	c0-4.414,3.586-8,8-8s8,3.586,8,8s-3.586,8-8,8S192,300.414,192,296z"/>
</svg>
