<?xml version="1.0" encoding="UTF-8" standalone="no"?><!DOCTYPE svg PUBLIC "-//W3C//DTD SVG 1.1//EN" "http://www.w3.org/Graphics/SVG/1.1/DTD/svg11.dtd"><svg width="100%" height="100%" viewBox="0 0 250 200" version="1.1" xmlns="http://www.w3.org/2000/svg" xmlns:xlink="http://www.w3.org/1999/xlink" xml:space="preserve" xmlns:serif="http://www.serif.com/" style="fill-rule:evenodd;clip-rule:evenodd;stroke-linejoin:round;stroke-miterlimit:1.41421;"><g id="Automate"><g><path d="M154.6,106.5c-1.3,0 -2.6,-0.9 -2.9,-2.3c-0.4,-1.6 0.5,-3.3 2.2,-3.7l42.6,-11.4l0,-25.6c0,-1.7 1.4,-3.1 3,-3.1c1.7,0 3.1,1.4 3.1,3l0.1,27.9c0,1.4 -0.9,2.6 -2.3,3l-44.8,12c-0.5,0.2 -0.8,0.2 -1,0.2Z" style="fill:#8d9aa3;fill-rule:nonzero;"/><path d="M198.8,64.8c-2.8,0 -6,-1.1 -8,-3.1c-2,-2 -3.1,-4.6 -3.1,-7.4c0,-1.7 1.4,-3.1 3.1,-3.1c1.7,0 3.1,1.4 3.1,3.1c0,2.4 2.6,4.4 5,4.4c1.2,0 2.9,-0.5 3.7,-1.3c0.8,-0.8 1.3,-1.9 1.3,-3.1c0,-1.7 1.4,-3.1 3.1,-3.1c1.7,0 3.1,1.4 3.1,3.1c0,2.8 -1.1,5.5 -3.1,7.5c-2.1,1.9 -5.4,3 -8.2,3Z" style="fill:#8d9aa3;fill-rule:nonzero;"/><path d="M192.4,140.3l-1.2,-6l14.4,-2.9l-5.6,-14.5l-42.2,0.1l0,-6.1l44.4,-0.1c1.3,0 2.5,0.8 2.9,2.1l7.4,19.9c0.3,0.8 0.2,1.7 -0.2,2.5c-0.4,0.8 -1.2,1.3 -2,1.5l-17.9,3.5Z" style="fill:#8d9aa3;fill-rule:nonzero;"/><path d="M182.3,149.1c-1.7,0 -3.1,-1.4 -3.1,-3c0,-1.7 1.4,-3.1 3,-3.1c3.1,0 5.7,-2.6 5.7,-5.7c0,-3.1 -2.6,-5.7 -5.7,-5.7c-1.7,0 -3.1,-1.4 -3.1,-3c0,-1.7 1.4,-3.1 3,-3.1c3.1,0 6.1,1.2 8.3,3.4c2.2,2.2 3.5,5.2 3.5,8.3c0.1,6.6 -5.1,11.9 -11.6,11.9Z" style="fill:#8d9aa3;fill-rule:nonzero;"/><path d="M91.5,114.7c-0.3,0 -0.5,-0.1 -0.8,-0.2l-39.7,-13.3c-1,-0.4 -1.7,-1.2 -2,-2.2l0.5,-28.8c-0.4,-1.6 0.5,-3.1 2,-3.7l16.9,-7.7c1.6,-0.6 3.4,0.3 4,1.9c0.6,1.6 -0.3,3.4 -1.9,4l-14.9,6.7l-0.6,24.4l37.8,12.8c1.6,0.6 2.5,2.4 1.9,4c-0.5,1.5 -1.8,2.3 -3.2,2.1Z" style="fill:#8d9aa3;fill-rule:nonzero;"/><path d="M77.6,70.3c-4.6,-0.5 -8.7,-3.6 -10,-8.3c-1.8,-6.2 1.8,-12.6 7.9,-14.4c1.6,-0.5 3.3,0.5 3.7,2.1c0.5,1.6 -0.5,3.3 -2.1,3.7c-3,0.9 -4.7,4 -3.8,6.9c0.9,3 4,4.7 6.9,3.8c1.6,-0.5 3.3,0.5 3.7,2.1c0.5,1.6 -0.5,3.3 -2.1,3.7c-1.3,0.4 -2.8,0.6 -4.2,0.4Z" style="fill:#8d9aa3;fill-rule:nonzero;"/><path d="M52.3,135.5c-1,0 -1.9,-0.5 -2.5,-1.3l-17.1,-23.1c-1,-1.4 -0.7,-3.4 0.6,-4.4c1.4,-1 3.4,-0.7 4.4,0.6l16,21.5l50.1,-9.6c1.7,-0.3 3.3,0.8 3.6,2.5c0.3,1.7 -0.8,3.3 -2.5,3.6l-52,9.9c-0.3,0.3 -0.4,0.3 -0.6,0.3Z" style="fill:#8d9aa3;fill-rule:nonzero;"/><path d="M28.8,112.9c-0.5,0 -1.1,0 -1.6,-0.1c-2.9,-0.4 -5.9,-2.3 -7.6,-4.6c-1,-1.4 -0.7,-3.4 0.6,-4.4c1.4,-1 3.4,-0.7 4.4,0.6c0.7,1 2.3,2 3.5,2.1c1.2,0.2 2.8,-0.3 3.7,-1c1,-0.7 1.7,-1.9 2,-3.1c0.3,-1.2 -0.4,-2.9 -1.1,-3.9c-1,-1.4 -0.7,-3.4 0.6,-4.4c1.4,-1 3.4,-0.7 4.4,0.6c1.5,2.1 2.7,4.9 2.6,7.3c-0.1,3.1 -2,6.5 -4.7,8.5c-1.9,1.5 -4.5,2.4 -6.8,2.4Z" style="fill:#8d9aa3;fill-rule:nonzero;"/><path d="M76,59.5c-0.5,-1.9 0.6,-3.8 2.5,-4.3l5.4,-1.5c1.8,-0.5 3.8,0.6 4.3,2.5c0.5,1.8 -0.6,3.8 -2.5,4.3l-5.3,1.5c-1.9,0.5 -3.9,-0.7 -4.4,-2.5Z" style="fill:#3fc3e7;fill-rule:nonzero;"/><path d="M195.3,53l0,-5.4c0,-1.9 1.5,-3.4 3.4,-3.4c1.9,0 3.4,1.5 3.4,3.4l0,5.4c0,1.9 -1.5,3.4 -3.4,3.4c-1.9,0 -3.4,-1.6 -3.4,-3.4Z" style="fill:#3fc3e7;fill-rule:nonzero;"/><path d="M185.1,137.2c0,1.9 -1.6,3.4 -3.4,3.4l-5.4,0c-1.9,0 -3.4,-1.6 -3.4,-3.4c0,-1.9 1.6,-3.4 3.4,-3.4l5.4,0c1.8,0 3.4,1.5 3.4,3.4Z" style="fill:#3fc3e7;fill-rule:nonzero;"/><path d="M30.7,103.7c-1.6,1.2 -3.8,0.8 -4.9,-0.7l-3.3,-4.5c-1.1,-1.5 -0.8,-3.8 0.7,-4.9c1.5,-1.1 3.8,-0.8 4.9,0.7l3.3,4.5c1.1,1.6 0.8,3.8 -0.7,4.9Z" style="fill:#3fc3e7;fill-rule:nonzero;"/></g><path d="M128.1,65.1l0.1,16.9l-8.1,0l-0.1,-16.9l8.1,0Z" style="fill:#8d99a3;fill-rule:nonzero;"/><rect x="85" y="81.9" width="79.2" height="64.1" style="fill:#ced3d8;fill-rule:nonzero;"/><rect x="92" y="89.7" width="65.2" height="47.4" style="fill:#f4f5f7;fill-rule:nonzero;"/><path d="M116.8,102.5c-0.6,0 -1.1,0.5 -1.1,1.1c0,0.6 0.5,1.1 1.1,1.1c0.6,0 1.1,-0.5 1.1,-1.1c0,-0.6 -0.5,-1.1 -1.1,-1.1Zm7.8,0c-0.6,0 -1.1,0.5 -1.1,1.1c0,0.6 0.5,1.1 1.1,1.1c0.6,0 1.1,-0.5 1.1,-1.1c0,-0.6 -0.5,-1.1 -1.1,-1.1Zm7.9,0c-0.6,0 -1.1,0.5 -1.1,1.1c0,0.6 0.5,1.1 1.1,1.1c0.6,0 1.1,-0.5 1.1,-1.1c0,-0.6 -0.5,-1.1 -1.1,-1.1Zm7.9,0c-0.6,0 -1.1,0.5 -1.1,1.1c0,0.6 0.5,1.1 1.1,1.1c0.6,0 1.1,-0.5 1.1,-1.1c0,-0.6 -0.5,-1.1 -1.1,-1.1Zm7.8,2.3c0.6,0 1.1,-0.5 1.1,-1.1c0,-0.6 -0.5,-1.1 -1.1,-1.1c-0.6,0 -1.1,0.5 -1.1,1.1c0,0.6 0.5,1.1 1.1,1.1Zm-31.4,6.6c-0.6,0 -1.1,0.5 -1.1,1.1c0,0.6 0.5,1.1 1.1,1.1c0.6,0 1.1,-0.5 1.1,-1.1c0,-0.6 -0.5,-1.1 -1.1,-1.1Zm7.8,0c-0.6,0 -1.1,0.5 -1.1,1.1c0,0.6 0.5,1.1 1.1,1.1c0.6,0 1.1,-0.5 1.1,-1.1c0,-0.6 -0.5,-1.1 -1.1,-1.1Zm7.9,0c-0.6,0 -1.1,0.5 -1.1,1.1c0,0.6 0.5,1.1 1.1,1.1c0.6,0 1.1,-0.5 1.1,-1.1c0,-0.6 -0.5,-1.1 -1.1,-1.1Zm7.9,0c-0.6,0 -1.1,0.5 -1.1,1.1c0,0.6 0.5,1.1 1.1,1.1c0.6,0 1.1,-0.5 1.1,-1.1c0,-0.6 -0.5,-1.1 -1.1,-1.1Zm7.8,0c-0.6,0 -1.1,0.5 -1.1,1.1c0,0.6 0.5,1.1 1.1,1.1c0.6,0 1.1,-0.5 1.1,-1.1c0,-0.6 -0.5,-1.1 -1.1,-1.1Zm-31.4,7.8c-0.6,0 -1.1,0.5 -1.1,1.1c0,0.6 0.5,1.1 1.1,1.1c0.6,0 1.1,-0.5 1.1,-1.1c0,-0.6 -0.5,-1.1 -1.1,-1.1Zm7.8,0c-0.6,0 -1.1,0.5 -1.1,1.1c0,0.6 0.5,1.1 1.1,1.1c0.6,0 1.1,-0.5 1.1,-1.1c0,-0.6 -0.5,-1.1 -1.1,-1.1Zm7.9,0c-0.6,0 -1.1,0.5 -1.1,1.1c0,0.6 0.5,1.1 1.1,1.1c0.6,0 1.1,-0.5 1.1,-1.1c0,-0.6 -0.5,-1.1 -1.1,-1.1Zm7.9,0c-0.6,0 -1.1,0.5 -1.1,1.1c0,0.6 0.5,1.1 1.1,1.1c0.6,0 1.1,-0.5 1.1,-1.1c0,-0.6 -0.5,-1.1 -1.1,-1.1Zm7.8,0c-0.6,0 -1.1,0.5 -1.1,1.1c0,0.6 0.5,1.1 1.1,1.1c0.6,0 1.1,-0.5 1.1,-1.1c0,-0.6 -0.5,-1.1 -1.1,-1.1Zm-31.4,8.9c-0.6,0 -1.1,0.5 -1.1,1.1c0,0.6 0.5,1.1 1.1,1.1c0.6,0 1.1,-0.5 1.1,-1.1c0,-0.6 -0.5,-1.1 -1.1,-1.1Zm7.8,0c-0.6,0 -1.1,0.5 -1.1,1.1c0,0.6 0.5,1.1 1.1,1.1c0.6,0 1.1,-0.5 1.1,-1.1c0,-0.6 -0.5,-1.1 -1.1,-1.1Zm7.9,0c-0.6,0 -1.1,0.5 -1.1,1.1c0,0.6 0.5,1.1 1.1,1.1c0.6,0 1.1,-0.5 1.1,-1.1c0,-0.6 -0.5,-1.1 -1.1,-1.1Z" style="fill:#1d6fc8;fill-rule:nonzero;"/><g><path d="M101,111.4c0.6,0 1.1,0.5 1.1,1.1c0,0.6 -0.5,1.1 -1.1,1.1c-0.6,0 -1.1,-0.5 -1.1,-1.1c0,-0.6 0.5,-1.1 1.1,-1.1Z" style="fill:#ed513a;fill-rule:nonzero;"/><path d="M108.9,111.4c0.6,0 1.1,0.5 1.1,1.1c0,0.6 -0.5,1.1 -1.1,1.1c-0.6,0 -1.1,-0.5 -1.1,-1.1c0,-0.6 0.5,-1.1 1.1,-1.1Z" style="fill:#ed513a;fill-rule:nonzero;"/><path d="M101,119.2c0.6,0 1.1,0.5 1.1,1.1c0,0.6 -0.5,1.1 -1.1,1.1c-0.6,0 -1.1,-0.5 -1.1,-1.1c0,-0.6 0.5,-1.1 1.1,-1.1Z" style="fill:#ed513a;fill-rule:nonzero;"/><path d="M108.9,119.2c0.6,0 1.1,0.5 1.1,1.1c0,0.6 -0.5,1.1 -1.1,1.1c-0.6,0 -1.1,-0.5 -1.1,-1.1c0,-0.6 0.5,-1.1 1.1,-1.1Z" style="fill:#ed513a;fill-rule:nonzero;"/><path d="M101,128.1c0.6,0 1.1,0.5 1.1,1.1c0,0.6 -0.5,1.1 -1.1,1.1c-0.6,0 -1.1,-0.5 -1.1,-1.1c0,-0.6 0.5,-1.1 1.1,-1.1Z" style="fill:#ed513a;fill-rule:nonzero;"/><path d="M108.9,128.1c0.6,0 1.1,0.5 1.1,1.1c0,0.6 -0.5,1.1 -1.1,1.1c-0.6,0 -1.1,-0.5 -1.1,-1.1c0,-0.6 0.5,-1.1 1.1,-1.1Z" style="fill:#ed513a;fill-rule:nonzero;"/></g><path d="M101,102.5c0.6,0 1.1,0.5 1.1,1.1c0,0.6 -0.5,1.1 -1.1,1.1c-0.6,0 -1.1,-0.5 -1.1,-1.1c0,-0.6 0.5,-1.1 1.1,-1.1Z" style="fill:#ced3d8;fill-rule:nonzero;"/><path d="M108.9,102.5c0.6,0 1.1,0.5 1.1,1.1c0,0.6 -0.5,1.1 -1.1,1.1c-0.6,0 -1.1,-0.5 -1.1,-1.1c0,-0.6 0.5,-1.1 1.1,-1.1Z" style="fill:#ced3d8;fill-rule:nonzero;"/><path d="M140.4,128.1c0.6,0 1.1,0.5 1.1,1.1c0,0.6 -0.5,1.1 -1.1,1.1c-0.6,0 -1.1,-0.5 -1.1,-1.1c-0.1,-0.6 0.4,-1.1 1.1,-1.1Z" style="fill:#ced3d8;fill-rule:nonzero;"/><path d="M148.2,128.1c0.6,0 1.1,0.5 1.1,1.1c0,0.6 -0.5,1.1 -1.1,1.1c-0.6,0 -1.1,-0.5 -1.1,-1.1c0,-0.6 0.5,-1.1 1.1,-1.1Z" style="fill:#ced3d8;fill-rule:nonzero;"/><g><path d="M135.1,105.2l-11.7,0c-1.1,0 -2,-0.9 -2,-2c0,-1.1 0.9,-2 2,-2l11.7,0c1.1,0 2,0.9 2,2c0,1.1 -0.9,2 -2,2Z" style="fill:#3fc3e7;fill-rule:nonzero;"/><path d="M125.3,114.4l-10.4,0c-1.1,0 -2,-0.9 -2,-2c0,-1.1 0.9,-2 2,-2l10.4,0c1.1,0 2,0.9 2,2c0.1,1.1 -0.8,2 -2,2Z" style="fill:#3fc3e7;fill-rule:nonzero;"/><path d="M136.4,122.4l-12.4,0c-1.1,0 -2,-0.9 -2,-2c0,-1.1 0.9,-2 2,-2l12.4,0c1.1,0 2,0.9 2,2c0,1.1 -0.9,2 -2,2Z" style="fill:#3fc3e7;fill-rule:nonzero;"/><path d="M118.3,131.4l-11.4,0c-1.1,0 -2,-0.9 -2,-2c0,-1.1 0.9,-2 2,-2l11.4,0c1.1,0 2,0.9 2,2c0.1,1.1 -0.9,2 -2,2Z" style="fill:#3fc3e7;fill-rule:nonzero;"/><path d="M151.4,131.4l-12.4,0c-1.1,0 -2,-0.9 -2,-2c0,-1.1 0.9,-2 2,-2l12.4,0l0,4Z" style="fill:#3fc3e7;fill-rule:nonzero;"/><path d="M97.1,101.3l7.4,0c1.1,0 2,0.9 2,2c0,1.1 -0.9,2 -2,2l-7.4,0l0,-4Z" style="fill:#3fc3e7;fill-rule:nonzero;"/></g><rect x="97.1" y="35" width="54.1" height="37.9" style="fill:#ced3d8;fill-rule:nonzero;"/><path d="M114.4,47.3c3.6,0 6.6,2.9 6.6,6.6c0,3.6 -2.9,6.6 -6.6,6.6c-3.6,0 -6.6,-2.9 -6.6,-6.6c0,-3.6 3,-6.6 6.6,-6.6Z" style="fill:#f4f5f7;fill-rule:nonzero;"/><path d="M124.5,52.3l0,3l-2.2,0.2c-0.2,1 -0.6,1.9 -1.2,2.7l1.4,1.7l-2.1,2.1l-1.7,-1.4c-0.8,0.5 -1.8,0.9 -2.7,1.1l-0.2,2.2l-3,0l-0.2,-2.2c-1,-0.2 -1.9,-0.6 -2.7,-1.1l-1.7,1.4l-2.1,-2.1l1.4,-1.7c-0.6,-0.8 -0.9,-1.8 -1.2,-2.7l-2.2,-0.2l0,-3l2.2,-0.2c0.2,-1 0.6,-1.9 1.2,-2.7l-1.4,-1.7l2.1,-2.1l1.7,1.4c0.8,-0.5 1.8,-0.9 2.7,-1.1l0.2,-2.2l3,0l0.2,2.2c1,0.2 1.9,0.6 2.7,1.1l1.7,-1.4l2.1,2.1l-1.4,1.7c0.6,0.8 0.9,1.8 1.2,2.7l2.2,0.2Zm-4.9,1.5c0,-2.9 -2.3,-5.2 -5.2,-5.2c-2.9,0 -5.2,2.3 -5.2,5.2c0,2.9 2.3,5.2 5.2,5.2c2.8,0.1 5.2,-2.3 5.2,-5.2Z" style="fill:#ed513a;fill-rule:nonzero;"/><path d="M116.9,55.1l-3.2,0c-0.3,0 -0.6,-0.3 -0.6,-0.6l0,-3.6c0,-0.3 0.3,-0.6 0.6,-0.6c0.3,0 0.6,0.3 0.6,0.6l0,3l2.6,0c0.3,0 0.6,0.3 0.6,0.6c0.1,0.3 -0.2,0.6 -0.6,0.6Z" style="fill:#ed513a;fill-rule:nonzero;"/><g><path d="M135.5,47.3c3.6,0 6.6,2.9 6.6,6.6c0,3.6 -2.9,6.6 -6.6,6.6c-3.7,0 -6.6,-2.9 -6.6,-6.6c0.1,-3.6 3,-6.6 6.6,-6.6Z" style="fill:#f4f5f7;fill-rule:nonzero;"/><path d="M144.4,48.5l1.2,2.7l-1.9,1.1c0.2,1 0.2,2 0,3l2,1l-1.1,2.8l-2.1,-0.6c-0.5,0.8 -1.2,1.6 -2.1,2.1l0.7,2.1l-2.8,1.2l-1.1,-2c-1,0.2 -2,0.2 -3,0l-1,2l-2.8,-1.1l0.6,-2.1c-0.8,-0.5 -1.6,-1.2 -2.1,-2.1l-2.1,0.7l-1.2,-2.7l2,-1.1c-0.2,-1 -0.2,-2 0,-3l-2,-1l1.1,-2.8l2.1,0.6c0.5,-0.8 1.2,-1.6 2.1,-2.1l-0.7,-2.1l2.8,-1.2l1.1,2c1,-0.2 2,-0.2 3,0l1,-2l2.7,1.1l-0.6,2.1c0.8,0.5 1.6,1.2 2.1,2.1l2.1,-0.7Zm-4,3.3c-1.1,-2.7 -4.2,-3.9 -6.9,-2.8c-2.7,1.1 -3.9,4.2 -2.8,6.9c1.1,2.7 4.2,3.9 6.9,2.8c2.7,-1.2 3.9,-4.3 2.8,-6.9Z" style="fill:#ef523b;fill-rule:nonzero;"/><path d="M135.3,56.6l1.7,-2.7c0.2,-0.3 0.1,-0.7 -0.2,-0.9l-3.1,-1.9c-0.3,-0.2 -0.7,-0.1 -0.9,0.2c-0.2,0.3 -0.1,0.7 0.2,0.9l2.5,1.5l-1.3,2.2c-0.2,0.3 -0.1,0.7 0.2,0.9c0.3,0.2 0.7,0.1 0.9,-0.2Z" style="fill:#ef523b;fill-rule:nonzero;"/></g><path d="M164.7,148.9l-38.5,0l-42.4,0c-6.6,0 -11.9,5.3 -11.9,11.9c0,6.6 5.3,11.9 11.9,11.9l80.9,0c6.6,0 11.9,-5.3 11.9,-11.9c0,-6.6 -5.3,-11.9 -11.9,-11.9Zm-79.4,16.4c-2.2,0 -4,-1.8 -4,-4c0,-2.2 1.8,-4 4,-4c2.2,0 4,1.8 4,4c0,2.2 -1.8,4 -4,4Zm77.8,0c-2.2,0 -4,-1.8 -4,-4c0,-2.2 1.8,-4 4,-4c2.2,0 4,1.8 4,4c-0.1,2.2 -1.8,4 -4,4Z" style="fill:#8d9aa3;fill-rule:nonzero;"/></g></svg>