<?xml version="1.0" encoding="utf-8"?>
<!-- Generator: Adobe Illustrator 17.0.0, SVG Export Plug-In . SVG Version: 6.00 Build 0)  -->
<!DOCTYPE svg PUBLIC "-//W3C//DTD SVG 1.1//EN" "http://www.w3.org/Graphics/SVG/1.1/DTD/svg11.dtd">
<svg version="1.1" id="Layer_1" xmlns="http://www.w3.org/2000/svg" xmlns:xlink="http://www.w3.org/1999/xlink" x="0px" y="0px"
	 width="2051px" height="2500px" viewBox="0 0 2051 2500" style="enable-background:new 0 0 2051 2500;" xml:space="preserve">
<style type="text/css">
	.st0{fill:#9D5025;}
	.st1{fill:#F58536;}
	.st2{fill:#FFFFFF;}
</style>
<g>
	<path class="st0" d="M1886.9,337.7v1824.5H164.1V337.7H1886.9 M2051,173.7H0v2152.7h2051V173.7L2051,173.7z"/>
	<path class="st1" d="M1886.9,337.7v1722.8H164.1V337.7H1886.9 M2051,173.7H0v2051h2051V173.7L2051,173.7z"/>
	<g>
		<rect x="260.1" y="495.3" class="st0" width="727.6" height="401.9"/>
		<rect x="1063.3" y="495.3" class="st0" width="727.6" height="401.9"/>
		<rect x="260.1" y="434.6" class="st1" width="727.6" height="401.9"/>
		<rect x="305" y="467" class="st2" width="38.8" height="337"/>
		<rect x="404.9" y="467" class="st2" width="38.8" height="337"/>
		<rect x="504.7" y="467" class="st2" width="38.8" height="337"/>
		<rect x="604.5" y="467" class="st2" width="38.8" height="337"/>
		<rect x="704.4" y="467" class="st2" width="38.8" height="337"/>
		<rect x="804.2" y="467" class="st2" width="38.8" height="337"/>
		<rect x="904" y="467" class="st2" width="38.8" height="337"/>
		<rect x="1063.3" y="434.6" class="st1" width="727.6" height="401.9"/>
		<rect x="1108.2" y="467" class="st2" width="38.8" height="337"/>
		<rect x="1208.1" y="467" class="st2" width="38.8" height="337"/>
		<rect x="1307.9" y="467" class="st2" width="38.8" height="337"/>
		<rect x="1407.7" y="467" class="st2" width="38.8" height="337"/>
		<rect x="1507.6" y="467" class="st2" width="38.8" height="337"/>
		<rect x="1607.4" y="467" class="st2" width="38.8" height="337"/>
		<rect x="1707.2" y="467" class="st2" width="38.8" height="337"/>
	</g>
	<g>
		<rect x="260.1" y="1028.6" class="st0" width="727.6" height="401.9"/>
		<rect x="1063.3" y="1028.6" class="st0" width="727.6" height="401.9"/>
		<rect x="260.1" y="967.9" class="st1" width="727.6" height="401.9"/>
		<rect x="305" y="1000.3" class="st2" width="38.8" height="337"/>
		<rect x="404.9" y="1000.3" class="st2" width="38.8" height="337"/>
		<rect x="504.7" y="1000.3" class="st2" width="38.8" height="337"/>
		<rect x="604.5" y="1000.3" class="st2" width="38.8" height="337"/>
		<rect x="704.4" y="1000.3" class="st2" width="38.8" height="337"/>
		<rect x="804.2" y="1000.3" class="st2" width="38.8" height="337"/>
		<rect x="904" y="1000.3" class="st2" width="38.8" height="337"/>
		<rect x="1063.3" y="967.9" class="st1" width="727.6" height="401.9"/>
		<rect x="1108.2" y="1000.3" class="st2" width="38.8" height="337"/>
		<rect x="1208.1" y="1000.3" class="st2" width="38.8" height="337"/>
		<rect x="1307.9" y="1000.3" class="st2" width="38.8" height="337"/>
		<rect x="1407.7" y="1000.3" class="st2" width="38.8" height="337"/>
		<rect x="1507.6" y="1000.3" class="st2" width="38.8" height="337"/>
		<rect x="1607.4" y="1000.3" class="st2" width="38.8" height="337"/>
		<rect x="1707.2" y="1000.3" class="st2" width="38.8" height="337"/>
	</g>
	<g>
		<rect x="260.1" y="1561.8" class="st0" width="727.6" height="401.9"/>
		<rect x="1063.3" y="1561.8" class="st0" width="727.6" height="401.9"/>
		<rect x="260.1" y="1501.1" class="st1" width="727.6" height="401.9"/>
		<rect x="305" y="1533.5" class="st2" width="38.8" height="337"/>
		<rect x="404.9" y="1533.5" class="st2" width="38.8" height="337"/>
		<rect x="504.7" y="1533.5" class="st2" width="38.8" height="337"/>
		<rect x="604.5" y="1533.5" class="st2" width="38.8" height="337"/>
		<rect x="704.4" y="1533.5" class="st2" width="38.8" height="337"/>
		<rect x="804.2" y="1533.5" class="st2" width="38.8" height="337"/>
		<rect x="904" y="1533.5" class="st2" width="38.8" height="337"/>
		<rect x="1063.3" y="1501.1" class="st1" width="727.6" height="401.9"/>
		<rect x="1108.2" y="1533.5" class="st2" width="38.8" height="337"/>
		<rect x="1208.1" y="1533.5" class="st2" width="38.8" height="337"/>
		<rect x="1307.9" y="1533.5" class="st2" width="38.8" height="337"/>
		<rect x="1407.7" y="1533.5" class="st2" width="38.8" height="337"/>
		<rect x="1507.6" y="1533.5" class="st2" width="38.8" height="337"/>
		<rect x="1607.4" y="1533.5" class="st2" width="38.8" height="337"/>
		<rect x="1707.2" y="1533.5" class="st2" width="38.8" height="337"/>
	</g>
</g>
</svg>
