<?xml version="1.0" encoding="utf-8"?>
<!-- Generator: Adobe Illustrator 17.0.0, SVG Export Plug-In . SVG Version: 6.00 Build 0)  -->
<!DOCTYPE svg PUBLIC "-//W3C//DTD SVG 1.1//EN" "http://www.w3.org/Graphics/SVG/1.1/DTD/svg11.dtd">
<svg version="1.1" id="Capa_1" xmlns="http://www.w3.org/2000/svg" xmlns:xlink="http://www.w3.org/1999/xlink" x="0px" y="0px"
	 width="361.85px" height="321.97px" viewBox="-80.925 0 361.85 321.97" enable-background="new -80.925 0 361.85 321.97"
	 xml:space="preserve">
<path fill="#2459FE" d="M22.036,198.964c-1.763-1.846-5.343-2.054-7.071,0c-5,5.941-5.902,14.389-3.286,21.615
	c0.063,0.175,0.135,0.342,0.21,0.502c-0.708,2.641,1.051,5.179,3.532,5.99C30.441,231.98,28.3,205.524,22.036,198.964z"/>
<path fill="#F5F4F7" d="M32.119,139.067c-2.48-5.036-5.657-10.232-10.543-11.321c-2.683-0.598-4.991,0.501-6.581,2.356
	c-8.901,4.856-19.334,13.075-16.827,24.099c1.321,5.81,8.056,5.476,12.582,5.299c6.778-0.264,13.811,1.124,20.547,0.486
	C42.643,158.911,37.108,146.566,32.119,139.067z M24.932,149.77c0.024-0.439,0.034-0.884,0.026-1.334
	c0.093-0.173,0.183-0.349,0.273-0.524c0.322,0.647,0.651,1.29,0.979,1.933C25.785,149.814,25.359,149.79,24.932,149.77z"/>
<g>
	<g>
		<path d="M73.153,218.352l-31.749-23.09v-44.277c0-5.912-2.301-11.466-6.481-15.648l-8.017-8.014
			c-4.075-4.078-11.188-4.078-15.263,0l-8.017,8.017c-4.179,4.179-6.481,9.737-6.481,15.645v44.274l-31.746,23.087
			c-1.897,1.381-3.028,3.604-3.028,5.95c0,4.053,3.297,7.35,7.35,7.35h21.102v-6.323h-21.102c-0.566,0-1.027-0.462-1.027-1.027
			c0-0.329,0.158-0.639,0.424-0.831l28.028-20.384v28.565h44.258v-28.565l28.028,20.384c0.266,0.193,0.424,0.503,0.424,0.831
			c0,0.566-0.462,1.027-1.027,1.027H47.727v6.323h21.102c4.053,0,7.35-3.297,7.35-7.35C76.178,221.952,75.046,219.73,73.153,218.352
			z M22.436,225.322h-6.323v-20.82l3.161-3.161l3.161,3.161V225.322z M35.081,168.419h-6.323v6.323h6.323v50.58h-6.323v-23.438
			l-9.484-9.484l-9.484,9.484v23.438H3.469v-50.58h6.323v-6.323H3.469v-6.323h31.613V168.419z M35.081,155.774H3.469v-4.789
			c0-4.22,1.644-8.191,4.628-11.175l8.017-8.017c1.663-1.663,4.66-1.663,6.323,0l8.017,8.017c2.984,2.984,4.628,6.955,4.628,11.175
			V155.774z"/>
	</g>
</g>
<path fill="#D6D9FF" d="M100.807,302.675c0.291-2.494-0.473-5.229-2.553-7.809c-6.988-8.666-16.931-5.311-26.262-3.997
	c-0.657-2.156-1.961-4.088-3.581-6.06c-1.029-1.253-2.276-2.572-3.665-3.846c-0.32-0.543-0.659-1.068-1.032-1.548
	c-2.539-3.264-5.603-4.374-8.905-4.655c-2.468-0.804-4.986-1.027-7.387-0.33c-0.526,0.153-1.002,0.361-1.447,0.6
	c-1.415,0.069-2.829,0.089-4.224-0.028c-0.822-0.069-1.536,0.036-2.146,0.27c-2.143-3.283-4.524-6.397-7.824-8.994
	c0.298-1.41,0.407-2.836,0.22-4.275c-0.356-2.735-2.006-4.956-5-5c-4.171-0.062-8.327-0.407-12.5-0.25
	c-3.783,0.142-6.235,4.14-4.317,7.524c0.119,0.246,0.261,0.477,0.398,0.711c-0.021,0.016-0.037,0.024-0.058,0.041
	c-2.092,0.993-3.916,2.325-5.773,3.702c-2.822,2.093-5.655,4.416-8.235,6.841c-10.699-4.983-25.182,4.294-26.671,15.667
	c-2.254-0.905-4.522-1.773-6.829-2.537c-3.881-1.286-7.501-0.473-10.645,1.475c-0.467-0.034-0.939-0.055-1.419-0.055
	c-6.406,0.004-11.506,5.305-13.772,10.803c-1.401,3.399-2.568,10.152,0.542,12.979c5.334,4.85,14.966,3.608,22.603,2.465
	c9.772,2.393,21.877,3.643,31.157-0.482c6.967,0.56,13.578,1.685,20.659,0.913c8.726-0.951,17.217-1.858,26.017-1.828
	c8.944,0.031,17.805-0.312,26.738-0.531c8.026-0.197,15.718,1.896,23.805,1.346c4.253-0.289,10.555,0.221,12.759-4.351
	C102.829,308.589,102.241,305.482,100.807,302.675z"/>
<path fill="#F5F4F7" d="M269.329,21.929c-2.066-0.744-3.916-2.084-6.094-2.781c-3.176-1.017-6.345-2.077-9.531-3.063
	c-6.197-1.917-12.078-5.02-18.25-6.813c-5.729-1.663-13.389,3.685-18.362,5.856c-7.734,3.377-15.76,5.233-23.672,8.05
	c0.004,0.01,0.009,0.021,0.013,0.031c-0.398,0.142-0.8,0.296-1.208,0.473c-3.336,1.444-2.987,5.573-0.909,7.849
	c-0.084,2.128,0.063,4.276,0.238,6.394c0.43,5.213,0.369,10.328,0.426,15.556c0.035,3.221,0.43,6.447,1.818,9.28
	c-0.015,0.08-0.039,0.159-0.05,0.239c-0.709,5.281,2.453,10.409,5.932,14.854c0.232,0.842,0.474,1.672,0.746,2.475
	c0.63,1.859,2.329,3.08,4.136,3.454c2.622,3.216,5.055,6.333,8.468,8.823c0.885,0.646,1.795,1.237,2.719,1.802
	c1.388,1.25,2.925,2.325,4.656,3.131c0.143,0.067,0.297,0.12,0.446,0.179c2.636,4.986,8.298,5.223,13.565,2.81
	c2.702-1.238,5.124-3.168,7.472-4.963c5.255-1.411,9.19-4.553,11.996-8.903c0.049-0.046,0.101-0.078,0.149-0.127
	c3.25-3.3,5.786-7.101,7.646-11.211c0.35-0.49,0.698-0.982,1.04-1.478c2.732-3.965,4.279-8.545,5.482-13.166
	c2.392-9.19,2.591-18.049,2.561-27.362c0.293-1.448,0.761-2.821,1.553-4.045C274.186,26.385,272.224,22.971,269.329,21.929z
	 M249.808,59.125c-0.5,4.202-0.612,8.45-1.215,12.639c-0.564,3.917-1.564,7.408-3.541,10.032c-2.863,0.186-5.485,0.928-8.26,1.784
	c-2.878,0.888-5.872,0.292-8.785-0.286c-1.01-0.314-2.105-0.503-3.257-0.544c-1.237-0.044-2.254,0.386-3.046,1.067
	c-2.697-2.539-4.959-5.367-6.688-8.523c-0.614-1.279-1.183-2.578-1.687-3.897c0.644-3.781,0.007-7.324-0.895-10.939
	c0.271-3.194,0.624-6.379,0.904-9.569c8.002-0.952,16.113-1.264,24.357-1.244c3.279,0.008,6.53,0.092,9.788,0.341
	c0.111,0.241,0.223,0.482,0.335,0.723c1.097,2.378,1.703,4.635,2.163,6.977C249.923,58.168,249.865,58.648,249.808,59.125z"/>
<path fill="#2459FE" d="M247.809,54.681c-0.516-3.296-3.763-4.115-6.48-4.752c-8.223-1.928-18.034-3.991-25.853,0.504
	c-2.543,1.462-2.881,4.047-1.972,6.128c-0.41,1.021-0.689,2.167-0.848,3.408c-0.231,1.803,0.17,3.733,0.317,5.531
	c0.238,2.933-0.433,5.925-0.395,8.871c0.076,5.852,4.021,9.727,9.808,9.634c2.576-0.042,5.028-0.538,7.633-0.411
	c3.146,0.154,6.356,0.201,9.31-1.022c0.073-0.03,0.14-0.071,0.212-0.104c9.567,2.308,8.012-10.147,7.802-15.78
	C247.196,62.779,248.405,58.485,247.809,54.681z M230.789,57.934c2.134,0.091,4.175,0.661,6.234,1.192
	c0.17,0.05,0.344,0.084,0.515,0.132c-0.228,2.491-0.245,4.983-0.181,7.497c-1.365,0.682-2.329,1.783-2.939,3.096
	c-0.806-0.962-2.027-1.607-3.668-1.601c-5.618,0.02-8.077-4.463-5.183-9.226c0.242-0.398,0.413-0.811,0.526-1.23
	C227.692,57.757,229.307,57.871,230.789,57.934z"/>
<path fill="#D6D9FF" d="M222.06,182.49c-2.362-0.414-4.007,0.201-6.088,0.813c-0.687-2.391-1.97-4.467-3.483-6.686
	c-1.092-1.602-1.892-3.403-2.572-5.259c-0.027-1.701,0.29-3.456,0.64-5.136c0.536-0.002,1.072-0.013,1.61-0.055
	c4.771-0.378,7.063-6.666,2.524-9.317c-4.865-2.842-7.363-8.25-13.742-7.996c-2.88,0.114-5.065,1.724-6.777,3.905
	c-0.167,0.209-0.319,0.43-0.482,0.642c-0.684-0.68-1.325-1.414-1.986-2.103c-3.532-3.68-9.599,0.109-8.357,4.865
	c1.714,6.563,6.467,11.751,9.929,17.442c2.611,4.291,4.888,8.671,8.014,12.515c-0.276,5.019-0.764,10.027-1.111,15.03
	c-5.026,7.819-11.521,14.291-18.88,20.149c-0.244,0.194-0.452,0.397-0.641,0.604c-4.241,0.47-8.508,0.753-12.798,0.865
	c-0.657-0.361-1.44-0.584-2.359-0.6c-2.532-0.046-5.461-0.394-8.312-1.146c-1.346-5.086-7.971-9.714-12.751-12.825
	c-0.649-2.906-1.757-5.745-3.179-8.64c-0.19-1.593-0.3-3.193-0.362-4.773c0.543-3.578,1.548-7.055,2.406-10.645
	c0.335-1.403,0.601-2.816,0.843-4.233c1.188-2.605,2.244-5.3,2.981-8.015c3.489-1.087,7.176-2.775,9.242-5.186
	c0.737-0.86,1.136-2.018,1.219-3.204c2.44-1.77,3.65-4.685,2.4-8.994c-1.189-4.098-6.968-5.017-9.139-1.194
	c-0.544,0.957-0.929,1.407-1.49,1.64c-1.235-2.087-3.189-3.912-5.211-5.056c-2.325-1.315-4.978-1.012-7.235,0.231
	c-1.742,0.96-3.042,3.807-5.08,4.042c-3.531,0.408-5.112,3.704-4.709,6.41c-0.003,1.541,0.638,3.112,2.186,4.241
	c1.789,1.195,3.297,2.917,4.866,4.484c-0.825,1.856-1.627,3.752-2.566,5.679c-1.346,2.762-3.109,5.372-4.259,8.193
	c-2.501-0.157-5.001-0.14-7.518-0.341c-3.068-0.245-5.924,3.413-4.821,6.329c1.086,2.872,1.432,5.613,1.488,8.671
	c0.038,2.105,1.483,4.386,3.671,4.821c2.532,0.504,5.38,0.943,8.164,0.886c1.188,4.003,3.206,7.623,4.943,11.4
	c-2.303,0.466-4.369,1.738-5.98,3.69c-2.854,3.459-1.016,7.644,3.091,8.451c2.039,1.311,3.509,2.823,4.794,4.941
	c1.796,2.961,6.995,3.541,8.635,0c0.71-1.534,1.284-3.165,1.986-4.711c0.147-0.014,0.295-0.028,0.442-0.048
	c0.072,0.04,0.15,0.072,0.223,0.112c4.477,3.376,8.81,6.036,14.108,8.453c-0.362,1.986-0.512,3.979-0.409,6.003
	c0.136,2.691,2.171,5.039,5,5c8.16-0.113,16.847-1.66,18.097-10.98c0.054-0.4,0.078-0.778,0.083-1.141
	c4.093-1.519,8.527-2.895,12.257-5.045c0.637,1.859,1.901,3.523,4.039,4.817c1.488,0.9,3.562,0.931,5.047,0
	c3.392-2.126,6.742-4.516,8.457-8.229c2.088-4.521-0.125-7.323-1.989-11.38c-0.294-0.64-0.523-1.281-0.703-1.924
	c1.065-3.345,1.601-6.793,1.717-10.317c1.838-0.337,3.655-0.925,5.657-1.645c0.129-0.046,0.259-0.087,0.389-0.127
	c0.137,0.185,0.274,0.358,0.413,0.508c3.997,4.307,10.191-1.165,7.987-5.741C228.254,190.862,227.188,183.388,222.06,182.49z"/>
<path fill="#2459FE" d="M183.329,91.929c-4.633-1.218-7.296,3.487-5.647,7.345c1.374,3.214,2.759,7.67,0.282,10.691
	c-2.684,3.273-8.629,1.877-12.214,1.536c-0.261-0.025-0.513-0.023-0.757-0.005c-0.139-0.375-0.263-0.758-0.359-1.158
	c-1.005-4.215-0.438-8.854,0.115-13.088c0.332-2.541-2.531-5.225-5-5c-6.908,0.63-9.513,6.078-8.862,12.5
	c0.022,0.216,0.063,0.43,0.089,0.645c-0.836,2.678-1.592,5.363-1.435,8.458c0.06,1.178,0.252,2.312,0.544,3.405
	c-0.275,0.903-0.338,1.884-0.158,2.82c0.817,4.238,3.46,6.744,6.405,9.182c1.421,1.776,3.155,3.238,4.893,4.056
	c0.29,0.137,0.582,0.242,0.875,0.321c-1.356,6.767-1.214,14.646,0.164,22.027c-0.783,7.173-0.583,14.491-0.262,21.714
	c-0.312,7.667-1.142,15.335-0.816,22.995c0.081,1.907,0.328,4.14,0.974,6.183c-0.192,4.896-0.252,9.929,5.24,11.908
	c4.064,1.464,11.139-0.128,13.185-4.23c2.346-4.704,1.495-10.315,1.336-15.403c-0.174-5.599-0.836-11.172-1.392-16.75
	c0.066-4.989,0.299-9.96,0.615-14.958c0.201-3.172,0.679-6.452,0.013-9.604c-0.321-1.519-1.013-2.964-1.671-4.411
	c0.818-7.584,1.514-15.25,1.085-22.82c1.528-0.506,3.038-1.101,4.506-1.719c1.976-0.832,3.112-2.56,3.394-4.338
	c3.079-2.149,5.422-5.367,5.97-9.129C195.62,107.03,192.306,94.288,183.329,91.929z"/>
<g>
	<g>
		<polygon points="31.92,237.967 31.92,244.29 22.436,244.29 22.436,237.967 16.114,237.967 16.114,244.29 6.63,244.29 
			6.63,237.967 0.307,237.967 0.307,250.612 38.243,250.612 38.243,237.967 		"/>
	</g>
</g>
<g>
	<g>
		<g>
			<path d="M103.672,313.838c0.616-2.048,0.958-4.173,0.958-6.323c0-12.203-9.926-22.129-22.129-22.129
				c-3.547,0-6.888,0.86-9.86,2.349c-1.881-10.309-10.91-18.155-21.753-18.155c-2.662,0-5.311,0.487-7.789,1.416
				c-3.025-3.481-6.813-6.326-11.178-8.235v-5.826h-6.323v10.208l2.105,0.746c10.084,3.572,16.862,13.145,16.862,23.82h6.323
				c0-5.478-1.495-10.682-4.05-15.272c1.309-0.345,2.659-0.534,4.05-0.534c8.716,0,15.806,7.091,15.806,15.806
				c0,0.123-0.013,0.243-0.016,0.367c-3.895,3.99-6.307,9.436-6.307,15.44h6.323c0-8.716,7.091-15.806,15.806-15.806
				s15.806,7.091,15.806,15.806c0,2.175-0.462,4.328-1.34,6.323H-58.435c-0.866-1.982-1.321-4.135-1.321-6.323
				c0-8.716,7.091-15.806,15.806-15.806c5.624,0,10.872,3.029,13.695,7.906l5.472-3.168c-0.933-1.612-2.071-3.066-3.345-4.369
				c-0.003-0.123-0.016-0.247-0.016-0.37c0-8.716,7.091-15.806,15.806-15.806c1.391,0,2.741,0.19,4.046,0.534
				c-2.551,4.59-4.046,9.794-4.046,15.272c0,7.205,2.491,14.254,7.009,19.853l4.919-3.974c-3.667-4.543-5.605-10.031-5.605-15.879
				c0-10.676,6.778-20.248,16.862-23.817l2.105-0.749v-10.208H6.63v5.826c-4.366,1.909-8.153,4.755-11.178,8.235
				c-2.478-0.929-5.128-1.416-7.789-1.416c-10.856,0-19.891,7.862-21.756,18.187c-3.025-1.511-6.379-2.38-9.857-2.38
				c-12.203,0-22.129,9.926-22.129,22.129c0,2.156,0.335,4.28,0.945,6.323h-13.59v6.323h195.999v-6.323H103.672z"/>
		</g>
	</g>
	<g>
		<g>
			<rect x="0.307" y="285.386" width="6.323" height="6.323"/>
		</g>
	</g>
	<g>
		<g>
			<rect x="38.243" y="298.031" width="6.323" height="6.323"/>
		</g>
	</g>
	<g>
		<g>
			<rect x="79.339" y="301.193" width="6.323" height="6.323"/>
		</g>
	</g>
	<g>
		<g>
			<rect x="-24.983" y="301.193" width="6.323" height="6.323"/>
		</g>
	</g>
</g>
<g>
	<path stroke="#000000" stroke-miterlimit="10" d="M212.743,168.606l8.789-8.791l-18.6-18.6l-8.791,8.789
		c-3.067-1.694-6.313-3.017-9.678-3.988V133.82c8.497-4.572,13.153-12.079,13.153-21.299c0-11.109-7.047-21.065-17.535-24.779
		l-3.506-1.242v21.494l-5.261,1.755l-5.261-1.755V86.499l-3.509,1.242c-10.488,3.714-17.535,13.671-17.535,24.779
		c0,9.22,4.656,16.727,13.153,21.299v12.195c-3.364,0.973-6.61,2.294-9.678,3.988l-8.791-8.789l-18.6,18.6l8.789,8.791
		c-1.697,3.07-3.041,6.311-4.012,9.678h-12.427v26.305h12.427c0.973,3.367,2.315,6.608,4.012,9.678l-8.789,8.791l18.6,18.6
		l8.791-8.789c3.07,1.697,6.311,3.041,9.678,4.012v12.427h26.305v-12.427c3.367-0.973,6.608-2.315,9.678-4.012l8.791,8.789
		l18.6-18.6l-8.789-8.791c1.697-3.07,3.041-6.311,4.012-9.678h12.427v-26.305h-12.427
		C215.783,174.916,214.442,171.675,212.743,168.606z M150.268,112.52c0-7.579,4.106-14.489,10.522-18.201v17.467l10.522,3.506
		l10.522-3.506V94.32c6.416,3.712,10.522,10.622,10.522,18.201c0,7.715-4.027,13.7-11.648,17.306l-1.505,0.713v42.483h5.261v-4.382
		c8.099,4.645,13.153,13.218,13.153,22.796c0,9.712-5.303,18.19-13.153,22.746v-35.899h-5.261v38.245
		c-2.494,0.787-5.143,1.213-7.892,1.213s-5.398-0.426-7.892-1.213v-85.989l-1.505-0.713
		C154.295,126.22,150.268,120.236,150.268,112.52z M223.922,199.327h-11.259l-0.487,2.012c-1.023,4.232-2.694,8.265-4.969,11.982
		l-1.081,1.768l7.968,7.965l-11.161,11.161l-7.965-7.968l-1.768,1.081c-3.72,2.275-7.749,3.946-11.982,4.969l-2.015,0.489v11.259
		H163.42v-11.259l-2.012-0.487c-4.232-1.023-8.265-2.694-11.982-4.969l-1.768-1.081l-7.965,7.968l-11.161-11.161l7.968-7.965
		l-1.081-1.768c-2.275-3.72-3.946-7.749-4.969-11.982l-0.489-2.015h-11.259v-15.783h11.259l0.487-2.012
		c1.023-4.233,2.694-8.265,4.969-11.982l1.081-1.768l-7.968-7.965l11.161-11.161l7.965,7.968l1.768-1.081
		c2.754-1.686,5.682-3.036,8.733-4.038v11.248c-11.24,5.137-18.414,16.196-18.414,28.686c0,17.406,14.16,31.566,31.566,31.566
		s31.566-14.16,31.566-31.566c0-12.492-7.173-23.551-18.414-28.686v-11.248c3.051,1.005,5.979,2.354,8.733,4.038l1.768,1.081
		l7.965-7.968l11.161,11.161l-7.968,7.965l1.081,1.768c2.275,3.72,3.946,7.749,4.969,11.982l0.492,2.012h11.259V199.327z
		 M158.159,168.642v45.539c-7.849-4.556-13.153-13.034-13.153-22.746C145.007,181.861,150.06,173.288,158.159,168.642z"/>
	<rect x="168.681" y="207.219" stroke="#000000" stroke-miterlimit="10" width="5.261" height="5.261"/>
	<rect x="168.681" y="196.697" stroke="#000000" stroke-miterlimit="10" width="5.261" height="5.261"/>
	<rect x="168.681" y="186.175" stroke="#000000" stroke-miterlimit="10" width="5.261" height="5.261"/>
</g>
<path fill="#D6D9FF" d="M-11.117,67.169c-0.278-1.536-1.452-2.676-2.863-3.246c-0.061-0.068-0.108-0.146-0.173-0.211
	c-1.033-1.033-2.148-1.279-3.536-1.464c-2.412-0.322-5.333,0.855-6.878,2.738c-1.217,1.483-1.789,2.897-1.974,4.817
	c-0.176,1.833,0.848,3.467,1.923,4.817c0.898,1.128,2.74,2.014,4.113,2.275c2.018,0.383,3.816,0.102,5.637-0.829
	c1.269-0.649,2.491-1.969,3.084-3.257C-10.916,70.927-10.747,69.214-11.117,67.169z"/>
<path fill="#090A0E" d="M-34.546,94.222l-5.837,5.837l-5.837-5.837l-3.6,3.6l5.837,5.837l-5.837,5.837l3.6,3.6l5.837-5.837
	l5.837,5.837l3.6-3.6l-5.837-5.837l5.837-5.837L-34.546,94.222z"/>
<path fill="#090A0E" d="M-18.57,58.426c-5.616,0-10.183,4.567-10.183,10.183s4.567,10.183,10.183,10.183s10.183-4.567,10.183-10.183
	S-12.954,58.426-18.57,58.426z M-18.57,73.7c-2.808,0-5.091-2.283-5.091-5.091s2.283-5.091,5.091-5.091s5.091,2.283,5.091,5.091
	S-15.762,73.7-18.57,73.7z"/>
<path d="M232.711,5.823l-1.528-0.952l-1.526,0.952c-11.841,7.364-25.427,12.137-39.297,13.803l-2.548,0.306v23.576
	c0,27.708,16.603,52.271,42.293,62.579l1.079,0.431l1.079-0.431c25.691-10.311,42.293-34.874,42.293-62.582V19.93l-2.547-0.304
	C258.141,17.96,244.55,13.187,232.711,5.823z M268.772,43.506c0,24.941-14.714,47.099-37.588,56.768
	c-22.873-9.672-37.588-31.827-37.588-56.768V25.027c13.226-1.934,26.136-6.523,37.588-13.363
	c11.453,6.84,24.364,11.429,37.588,13.363V43.506z"/>
<path d="M216.726,37.648v9.207c-3.356,1.197-5.783,4.378-5.783,8.142v23.131c0,4.782,3.892,8.674,8.674,8.674h23.131
	c4.783,0,8.674-3.892,8.674-8.674V54.997c0-3.764-2.426-6.945-5.783-8.142v-9.207c0-7.971-6.485-14.457-14.457-14.457
	C223.212,23.191,216.726,29.677,216.726,37.648z M245.64,78.128c0,1.593-1.297,2.891-2.891,2.891h-23.131
	c-1.593,0-2.891-1.299-2.891-2.891V54.997c0-1.593,1.299-2.891,2.891-2.891h23.131c1.594,0,2.891,1.299,2.891,2.891V78.128z
	 M239.858,37.648v8.674h-17.349v-8.674c0-4.782,3.892-8.674,8.674-8.674C235.967,28.974,239.858,32.867,239.858,37.648z"/>
<path d="M231.183,54.997c-4.782,0-8.674,3.892-8.674,8.674c0,3.764,2.427,6.945,5.783,8.142v6.315h5.783v-6.315
	c3.357-1.197,5.783-4.378,5.783-8.142C239.858,58.889,235.967,54.997,231.183,54.997z M231.183,66.563
	c-1.593,0-2.891-1.299-2.891-2.891c0-1.593,1.299-2.891,2.891-2.891c1.594,0,2.891,1.299,2.891,2.891
	C234.075,65.264,232.777,66.563,231.183,66.563z"/>
<path fill="#D6D9FF" d="M96.293,107.191c-0.278-1.536-1.452-2.676-2.863-3.246c-0.061-0.068-0.108-0.146-0.173-0.211
	c-1.033-1.033-2.148-1.279-3.536-1.464c-2.412-0.322-5.333,0.855-6.878,2.738c-1.217,1.483-1.789,2.897-1.974,4.817
	c-0.176,1.833,0.848,3.467,1.923,4.817c0.898,1.128,2.74,2.014,4.113,2.275c2.018,0.383,3.816,0.102,5.637-0.829
	c1.269-0.649,2.491-1.969,3.084-3.257C96.494,110.949,96.662,109.236,96.293,107.191z"/>
<path fill="#090A0E" d="M63.017,67.625l-5.837,5.837l-5.837-5.837l-3.6,3.6l5.837,5.837L47.743,82.9l3.6,3.6l5.837-5.837
	l5.837,5.837l3.6-3.6l-5.837-5.837l5.837-5.837L63.017,67.625z"/>
<path fill="#090A0E" d="M88.839,98.448c-5.616,0-10.183,4.567-10.183,10.183s4.567,10.183,10.183,10.183s10.183-4.567,10.183-10.183
	S94.455,98.448,88.839,98.448z M88.839,113.722c-2.808,0-5.091-2.283-5.091-5.091s2.283-5.091,5.091-5.091s5.091,2.283,5.091,5.091
	S91.647,113.722,88.839,113.722z"/>
<path fill="#090A0E" d="M88.401,23.749l-5.837,5.837l-5.837-5.837l-3.6,3.6l5.837,5.837l-5.837,5.837l3.6,3.6l5.837-5.837
	l5.837,5.837l3.6-3.6l-5.837-5.837l5.837-5.837L88.401,23.749z"/>
<path fill="#D6D9FF" d="M252.204,259.785c-0.278-1.536-1.452-2.676-2.863-3.246c-0.061-0.068-0.108-0.146-0.173-0.211
	c-1.033-1.033-2.148-1.279-3.536-1.464c-2.412-0.322-5.333,0.855-6.878,2.738c-1.217,1.483-1.789,2.897-1.974,4.817
	c-0.176,1.833,0.848,3.467,1.923,4.817c0.898,1.128,2.74,2.014,4.113,2.275c2.018,0.383,3.816,0.102,5.637-0.829
	c1.269-0.649,2.491-1.969,3.084-3.257C252.405,263.543,252.574,261.83,252.204,259.785z"/>
<path fill="#090A0E" d="M217.8,279.115l-5.837,5.837l-5.837-5.837l-3.6,3.6l5.837,5.837l-5.837,5.837l3.6,3.6l5.837-5.837
	l5.837,5.837l3.6-3.6l-5.837-5.837l5.837-5.837L217.8,279.115z"/>
<path fill="#090A0E" d="M244.751,251.042c-5.616,0-10.183,4.567-10.183,10.183c0,5.616,4.567,10.183,10.183,10.183
	s10.183-4.567,10.183-10.183C254.934,255.609,250.367,251.042,244.751,251.042z M244.751,266.316c-2.808,0-5.091-2.283-5.091-5.091
	s2.283-5.091,5.091-5.091c2.808,0,5.091,2.283,5.091,5.091S247.559,266.316,244.751,266.316z"/>
</svg>
