<?xml version="1.0" encoding="utf-8"?>
<!-- Generator: Adobe Illustrator 17.0.0, SVG Export Plug-In . SVG Version: 6.00 Build 0)  -->
<!DOCTYPE svg PUBLIC "-//W3C//DTD SVG 1.1//EN" "http://www.w3.org/Graphics/SVG/1.1/DTD/svg11.dtd">
<svg version="1.1" id="Layer_1" xmlns="http://www.w3.org/2000/svg" xmlns:xlink="http://www.w3.org/1999/xlink" x="0px" y="0px"
	 width="359.092px" height="306.422px" viewBox="67.059 8.538 359.092 306.422"
	 enable-background="new 67.059 8.538 359.092 306.422" xml:space="preserve">
<path fill="#D6D9FF" d="M137.317,107.976c-2.397-4.97-5.799-8.972-10.185-12.303c-5.021-3.814-9.557-8.436-15.109-11.491
	c-2.702-1.487-6.637-0.255-7.345,2.988c-0.439,2.011-0.811,4.029-1.152,6.052c-1.426,5.435-3.193,10.683-3.174,16.507
	c0.003,1.007,0.146,1.95,0.385,2.825c-0.424,2.713-0.76,5.434-0.739,8.195c0.039,4.953,5.948,6.098,8.662,3.439
	c0.365-0.092,0.735-0.209,1.111-0.372c4.494-1.941,8.756-4.464,13.399-6.035c4.112-1.391,8.263-1.162,12.351-2.965
	C138.155,113.656,138.393,110.205,137.317,107.976z"/>
<g>
	<path d="M229.894,131.38c-0.87,0.921-2.228,2.016-3.751,2.016s-2.881-1.095-3.777-2.047c-2.391-2.524-5.168-3.857-8.035-3.857
		c0,0,0,0-0.003,0c-2.867,0-5.647,1.336-8.052,3.878c-0.87,0.921-2.231,2.019-3.751,2.019c-1.523,0-2.884-1.098-3.754-2.022
		c-2.394-2.529-5.174-3.87-8.046-3.87c-2.868,0-5.65,1.337-8.046,3.87c-0.873,0.921-2.231,2.022-3.754,2.022
		c-1.522,0-2.881-1.098-3.751-2.019l-4.288,4.056c2.394,2.529,5.174,3.87,8.042,3.87c2.869,0,5.65-1.337,8.046-3.872
		c0.873-0.921,2.232-2.022,3.754-2.022c1.523,0,2.884,1.101,3.754,2.022c2.394,2.529,5.174,3.867,8.043,3.87h0.003
		c2.867,0,5.647-1.337,8.055-3.878c0.868-0.921,2.225-2.019,3.749-2.019c1.523,0,2.881,1.098,3.779,2.042
		c2.387,2.526,5.168,3.861,8.033,3.861c2.867,0,5.647-1.335,8.038-3.861L229.894,131.38z"/>
	<path d="M204.744,119.009c2.869,0,5.65-1.337,8.043-3.867l0.068-0.071c0.873-0.909,2.205-1.954,3.689-1.954
		c1.526,0,2.887,1.101,3.757,2.025c2.394,2.526,5.174,3.867,8.043,3.87c2.869,0,5.65-1.337,8.055-3.878
		c0.873-0.924,2.231-2.022,3.751-2.022c1.52,0,2.881,1.095,3.779,2.042c2.39,2.526,5.171,3.861,8.036,3.861
		c2.867,0,5.647-1.335,8.038-3.861l-4.286-4.058c-0.87,0.921-2.228,2.016-3.751,2.016s-2.881-1.095-3.777-2.044
		c-2.391-2.526-5.171-3.86-8.038-3.86s-5.647,1.336-8.052,3.875c-0.87,0.921-2.231,2.022-3.754,2.022s-2.884-1.101-3.754-2.025
		c-4.791-5.06-11.302-5.06-16.09-0.003l-0.062,0.068c-0.873,0.909-2.208,1.957-3.695,1.957c-1.522-0.003-2.884-1.101-3.754-2.025
		l-4.289,4.058C199.092,117.669,201.874,119.006,204.744,119.009z"/>
	<path d="M256.543,80.298h-7.774L217.983,54.25c-4.89-4.141-11.112-6.419-17.521-6.419c-6.408,0-12.629,2.279-17.521,6.419
		l-30.784,26.048h-6.588c-10.065-5.345-22.013-7.243-33.769-4.765c0.049-0.378,0.114-0.749,0.114-1.139
		c0-4.883-3.972-8.855-8.855-8.855c-4.881,0-8.855,3.972-8.855,8.855c0,2.659,1.202,5.017,3.061,6.641
		c-1.198,0.687-2.346,1.434-3.47,2.214H73.545v5.903h13.271c-3.656,3.751-6.717,8.075-8.979,12.925
		c-5.233,11.227-5.709,23.778-1.337,35.345l1.019,2.695l37.934-13.304l10.077,30.225h-11.57l-8.136-21.7l-5.528,2.075l8.516,22.7
		l-5.54,19.394c-17.669,4.731-27.456,9.959-28.188,10.355l-1.538,0.84v7.657h182.998v-7.657l-1.538-0.837
		c-1.209-0.662-27.289-14.588-72.984-17.521l-6.124-15.307h-34.306l-11.756-35.269l39.038-13.689l-1.069-2.828
		c-2.868-7.595-7.576-14.045-13.459-19.053h102.198V80.298z M106.668,87.606l1.121-2.407l2.405,1.123
		c11.871,5.534,21.099,14.99,26.406,26.821l-33.04,11.587C100.154,112.372,101.193,99.351,106.668,87.606z M103.06,71.443
		c1.627,0,2.952,1.324,2.952,2.952c0,1.626-1.324,2.952-2.952,2.952c-1.626,0-2.952-1.326-2.952-2.952
		C100.109,72.768,101.435,71.443,103.06,71.443z M83.188,104.571c3.776-8.101,10.024-14.604,17.893-18.875
		c-5.9,13.003-6.942,27.364-3.087,40.986l-16.892,5.923C78.327,123.316,79.044,113.464,83.188,104.571z M161.452,171.831
		c-13.994,0.186-26.449,1.435-37.244,3.202l2.013-12.092h33.45L161.452,171.831z M114.142,162.942h6.098l-2.199,13.19
		c-2.854,0.549-5.576,1.128-8.162,1.729L114.142,162.942z M229.978,192.458v-2.952h-5.903v2.952h-14.758v-2.952h-5.903v2.952
		h-14.758v-2.952h-5.903v2.952h-14.758v-2.952h-5.903v2.952h-14.758v-2.952h-5.903v2.952h-14.758v-2.952h-5.903v2.952h-14.758
		v-2.952h-5.903v2.952h-16.6c11.44-4.841,39.967-14.758,81.534-14.758c41.462,0,70.041,9.917,81.517,14.758H229.978z
		 M175.525,172.003c-2.622-0.104-5.317-0.156-8.055-0.183l-1.777-8.878h6.207L175.525,172.003z M135.369,157.039h-3.616
		l-10.725-32.179l3.237-1.136L135.369,157.039z M161.109,104.548l-18.934,6.641c-5.766-13.152-15.888-23.68-28.936-29.929
		C132.745,77.237,152.86,86.829,161.109,104.548z M186.755,58.753c3.826-3.237,8.693-5.02,13.707-5.02
		c5.015,0,9.882,1.783,13.707,5.02l25.46,21.545h-78.335L186.755,58.753z"/>
	<path fill="#FFFFFF" d="M261.214,88.086c-0.832-2.814-2.017-5.501-3.171-8.194c-0.678-1.583-2.378-2.377-4.074-2.435
		c-0.352-0.852-0.841-1.629-1.55-2.262c-0.253-0.227-0.542-0.418-0.847-0.586c-0.04-0.13-0.072-0.262-0.114-0.392
		c-0.865-2.626-2.872-5.013-5.807-5.152c-3.454-3.022-7.906-5.28-11.504-6.486c-1.826-0.612-3.377-0.058-4.432,1.042
		c-1.422-1.274-2.851-2.54-4.301-3.782c-0.384-0.329-0.781-0.64-1.17-0.962c-3.865-3.69-7.711-7.399-12.133-10.373
		c-1.141-1.115-2.321-2.177-3.571-3.147c0.092-0.263,0.193-0.523,0.28-0.789c1.81-5.565-5.707-7.699-8.732-3.681
		c-0.037,0.049-0.077,0.1-0.114,0.149c-2.153-0.45-4.172,0.767-5.192,2.505c-3.155-0.403-6.567,1.345-9.688,3.96
		c-0.604,0.234-1.193,0.509-1.769,0.815c-0.218-5.206,0.265-10.709,1.129-15.214c1.155-6.02-8.053-8.588-9.214-2.54
		c-1.185,6.177-1.239,12.428-0.978,18.681c-0.998,0.522-1.859,1.439-2.366,2.818c-0.472,1.283-0.834,2.617-1.14,3.978
		c-1.265,0.427-2.401,1.006-3.419,1.716c-2.976-0.318-6.406,2.096-5.474,5.923c0.048,0.199,0.108,0.397,0.158,0.596
		c-0.739,1.519-1.33,3.152-1.807,4.836c-0.65-0.3-1.317-0.579-2.029-0.798c-0.898-0.277-1.979-0.209-2.956,0.137
		c-0.07-0.042-0.131-0.091-0.202-0.133c-1.748-1.021-4.404-0.866-5.79,0.747c-0.123,0.144-0.236,0.291-0.352,0.437
		c-0.404-0.219-0.815-0.357-1.224-0.429c-2.921-5.422-11.165-0.598-8.248,4.826c2.913,5.416,8.351,7.034,12.872,10.185
		c1.059,0.9,2.113,1.808,3.163,2.725c1.059,0.926,2.204,1.31,3.292,1.304c0.497,0.295,0.993,0.592,1.497,0.876
		c2.33,1.313,4.817,0.345,6.195-1.41c1.888,1.004,4.439,0.54,5.947-1.07c0.185-0.043,0.37-0.088,0.55-0.151
		c0.675,1.912,2.5,3.532,4.529,3.284c1.27-0.155,2.429-0.434,3.533-0.806c7.632,1.253,15.473,0.454,23.199-0.962
		c3.009,2.398,8.148,2.249,12.546,1.17c0.226-0.004,0.455-0.017,0.691-0.051c7.57-1.088,15.197-1.523,22.833-1.38
		c0.631,0.801,1.513,1.414,2.482,1.712c-0.135,2.494-0.277,4.989-0.309,7.483c-0.078,6.165,9.478,6.157,9.555,0
		c0.019-1.537,0.118-3.123,0.229-4.723c1.162,1.78,3.341,2.748,5.506,2.152C260.31,93.524,261.986,90.698,261.214,88.086z
		 M201.893,78.68c-2.171,0.399-4.351,0.736-6.529,0.969c0.19-0.315,0.38-0.631,0.551-0.974c0.981-1.973,0.658-4.708-1.015-6.139
		c0.231-0.692,0.281-1.447,0.169-2.187c2.003-2.948,3.349-6.677,4.496-9.66c0.077-0.2,0.153-0.409,0.229-0.617
		c0.471-0.561,0.934-1.128,1.385-1.704c0.31,2.79,0.875,5.576,1.359,8.432C203.22,70.81,202.392,74.722,201.893,78.68z
		 M222.471,78.847c-0.632-1.809-2.205-3.369-4.405-3.54c-2.104-0.164-4.172-0.042-6.185,0.338c0.008-0.058,0.019-0.118,0.026-0.176
		c0.522-3.839,0.384-7.377-0.155-11.212c-0.151-1.073-0.354-2.14-0.558-3.205c3.705,3.97,7.608,7.925,12.581,10.258
		c0.2,0.094,0.403,0.168,0.606,0.232c2.442,2.191,4.846,4.424,7.266,6.641C228.585,78.318,225.527,78.537,222.471,78.847z"/>
	<path fill="#FFFFFF" d="M94.591,77.355c-0.04-0.08-0.08-0.159-0.119-0.239c-1.164-2.328-4.402-2.965-6.537-1.714
		c-0.287,0.168-0.551,0.371-0.795,0.593c-0.08,0.032-0.164,0.06-0.243,0.094c-1.506-1.335-3.655-1.437-5.571-0.568
		c-0.787,0.357-1.566,0.913-2.326,1.51c-1.248-0.018-2.495,0.427-3.379,1.386c-0.949,1.03-1.817,2.127-2.618,3.276
		c-0.208,0.298-0.387,0.623-0.57,0.942c-0.331,0.331-0.661,0.664-0.992,0.998c-1.011,1.02-1.397,2.22-1.351,3.384
		c-0.834,1.696-0.237,4.014,1.033,5.284c1.582,1.582,3.862,1.732,5.79,0.747c0.688-0.352,1.258-0.847,1.816-1.358
		c0.039,0.001,0.079-0.006,0.118-0.006c1.44,0.767,3.121,0.65,4.674-0.069c0.853-0.395,1.613-1.079,2.337-1.775
		c0.11-0.059,0.226-0.105,0.33-0.176c0.773-0.526,1.482-1.092,2.109-1.78c0.219-0.241,0.429-0.49,0.646-0.733
		c0.115-0.128,0.237-0.249,0.361-0.369c1.167-0.807,2.289-1.623,3.169-2.709c0.135-0.061,0.277-0.108,0.405-0.182
		c1.068-0.626,1.867-1.661,2.196-2.855C95.431,79.736,95.18,78.533,94.591,77.355z"/>
	<path fill="#2459FE" d="M198.56,38.364c-1.057-4.877-3.934-9.375-8.036-12.182c-1.965-1.345-4.199-0.799-5.721,0.602
		c-0.805-0.904-1.987-1.513-3.552-1.534c-10.469-0.142-14.832,8.101-14.273,16.631c-1.228,6.553,1.37,13.524,9.417,16.76
		c0.589,0.237,1.191,0.422,1.801,0.564c7.941,3.215,15.654-2.06,19.019-8.952c0.981-1.548,1.696-3.206,2.06-4.905
		C199.825,42.777,199.494,40.405,198.56,38.364z"/>
	<path stroke="#000000" stroke-miterlimit="10" d="M182.351,63.992c11.129,0,20.181-9.055,20.181-20.181
		s-9.053-20.181-20.181-20.181s-20.181,9.055-20.181,20.181S171.222,63.992,182.351,63.992z M182.351,28.114
		c8.653,0,15.697,7.041,15.697,15.697s-7.044,15.697-15.697,15.697c-8.653,0-15.697-7.041-15.697-15.697
		S173.698,28.114,182.351,28.114z"/>
	<path fill="#FFFFFF" d="M259.928,191.879c-1.068-0.978-2.159-1.928-3.266-2.856c-0.55-0.984-1.399-1.729-2.48-2.012
		c-8.258-6.453-17.557-11.408-27.92-13.686c-6.704-1.473-13.83-1.872-20.651-2.554c-7.177-0.717-14.386-0.958-21.552-0.024
		c-0.577,0.075-1.088,0.245-1.564,0.454c-2.725-0.471-5.454-0.906-8.197-1.14c-6.653-0.568-13.345-0.533-20.01-0.156
		c-5.115-2.27-11.963-1.404-17.135-0.57c-3.37,0.543-7.185,1.83-9.826,4.13c-6.871,1.421-13.666,3.205-20.37,5.245
		c-1.733,0.227-3.447,0.562-5.128,1.076c-0.838-1.933-2.692-2.562-4.551-2.231c-2.168-2.097-6.226-1.935-7.869,1.001
		c-1.179,2.107-1.638,4.413-1.927,6.75c-0.372-2.299-0.993-4.421-1.771-6.083c-2.177-4.648-9.134-2.202-9.304,2.398
		c-2.261-4.109-9.334-3.605-9.346,2.125c-0.005,2.254,0.058,5.07,0.432,7.884c0.103,2.932,0.24,5.859,0.746,8.778
		c0.553,3.191,3.666,4.084,6.255,3.266c1.208,0.42,2.605,0.583,4.234,0.405c2.52-0.275,4.425-1.378,5.832-2.99
		c0.424,0.421,0.855,0.826,1.299,1.193c1.957,1.613,4.637,1.891,6.544,0.459c0.176,0.119,0.363,0.22,0.551,0.319
		c0.196,0.896,0.399,1.791,0.62,2.683c0.312,1.261,1.12,2.192,2.134,2.794c1.723,2.215,4.888,3.745,7.691,4.698
		c4.198,1.427,7.859-3.729,5.647-7.345c-0.113-0.185-0.212-0.38-0.322-0.567c5.893,0.606,12.086-0.729,17.793-1.975
		c2.681-0.585,5.356-1.126,8.031-1.614c3.765-0.038,7.528-0.139,11.278-0.375c0.202,2.289,2.054,4.406,4.903,4.722
		c5.909,0.654,11.727-1.369,17.398-2.746c7.68-1.865,16.089-0.944,23.936-1.254c0.756-0.03,1.431-0.238,2.032-0.554
		c0.788,1.583,2.283,2.824,4.302,2.888c11.369,0.36,22.944,0.587,33.996-2.512c0.268-0.075,0.521-0.168,0.758-0.273
		c2.818,0.005,5.603-0.239,8.386-0.604c0.365,0.226,0.759,0.416,1.197,0.544c1.7,0.495,3.743,0.669,5.475,0.012
		c1.806,1.393,4.481,1.834,6.723,0.035c1.106-0.887,2.71-1.312,3.988-1.885C261.818,198.431,262.135,193.9,259.928,191.879z
		 M223.367,189.368c-0.496-0.164-1.035-0.276-1.642-0.286c-0.28-0.005-0.56-0.004-0.84-0.007c-0.755-1.346-2.141-2.326-4.16-2.326
		h-7.692c-7.015-0.929-13.908-0.107-20.975,0c-0.613,0.009-1.167,0.108-1.663,0.278c-3.557,0.094-7.114,0.219-10.67,0.389
		c-1.435,0.068-2.592,0.707-3.429,1.622c-0.575-1.815-2.097-3.289-4.571-3.289c-0.831,0-1.553,0.168-2.17,0.458
		c-0.574-0.608-1.301-1.069-2.167-1.279c-4.837-1.175-9.654-1.693-14.452-1.757c2.289-0.549,4.577-1.088,6.869-1.503
		c4.151-0.75,8.69-0.643,12.897-0.728c4.145-0.084,8.87-0.134,12.5,2.125c2.411,1.501,4.729,0.674,6.111-1.012
		c2.681,0.447,5.367,0.841,8.08,1.028c1.622,0.112,2.832-0.44,3.633-1.334c9.114,1.354,17.997,3.943,26.732,7.042
		C224.954,188.962,224.155,189.15,223.367,189.368z"/>
</g>
<g>
	<path stroke="#000000" stroke-miterlimit="10" d="M299.699,220.273c1.057,0,1.919,0.862,1.919,1.919h3.837
		c0-2.498-1.61-4.609-3.837-5.403v-4.191h-3.837v4.191c-2.228,0.794-3.837,2.905-3.837,5.403c0,3.173,2.583,5.756,5.756,5.756
		c1.057,0,1.919,0.862,1.919,1.919s-0.862,1.919-1.919,1.919c-1.057,0-1.919-0.862-1.919-1.919h-3.837
		c0,2.498,1.61,4.609,3.837,5.403v4.191h3.837v-4.191c2.228-0.794,3.837-2.905,3.837-5.403c0-3.173-2.583-5.756-5.756-5.756
		c-1.057,0-1.919-0.862-1.919-1.919S298.642,220.273,299.699,220.273z"/>
	<path fill="#F5F4F7" d="M322.62,20.512c-0.094-0.293-0.21-0.559-0.337-0.813c-0.201-0.707-0.522-1.411-1.036-2.109
		c-2.887-3.923-9.022-3.705-14.285-3.383c-0.34-0.014-0.694,0.006-1.063,0.065c-1.416,0.088-2.749,0.163-3.901,0.139
		c-9.953-0.205-19.893-0.648-29.835,0.094c-0.452-0.143-0.899-0.304-1.336-0.501c-0.482-0.307-0.979-0.589-1.506-0.814
		c-4.149-1.773-7.761,1.543-7.477,4.903c-2.868,12.091-2.079,24.9-0.201,37.077c0.418,2.711,3.752,4.133,6.151,3.492
		c5.255-1.404,10.791-3.306,15.811-0.407c3.944,2.278,8.659,5.476,10.542,9.776c2.285,5.217,10.885,1.477,9.139-3.853
		c-0.799-2.439-1.609-4.919-2.335-7.427c2.817,0.634,5.844,0.764,8.095,0.87c3.282,0.155,6.475-0.222,9.006-1.499
		c1.986-0.264,3.893-1.616,4.233-3.618c0.065-0.381,0.116-0.76,0.16-1.137c0.331-0.834,0.579-1.756,0.713-2.797
		C324.356,39.201,325.544,29.65,322.62,20.512z"/>
	<path fill="#2459FE" d="M395.132,87.841c-0.033-4.12-0.198-8.539-3.19-11.736c-3.871-4.135-9.419-6.256-13.809-9.758
		c-3.865-3.083-8.66-4.826-13.547-5.377c-8.929-1.007-19.254,0.797-26.847,5.75c-7.332,4.782-8.332,12.779-10.762,20.459
		c-0.588,1.926-0.064,3.503,0.995,4.578c-0.498,0.788-1.058,1.534-1.709,2.216c-4.453,4.66,2.609,11.741,7.071,7.071
		c0.334-0.35,0.644-0.709,0.942-1.073c3.962-0.051,7.656-1.728,11.233-3.647c2.324-1.247,4.438-2.701,6.49-4.35
		c1.307-1.05,2.453-2.377,3.672-3.528c0.186-0.147,0.372-0.295,0.557-0.442c1.189,0.971,2.409,1.936,3.656,2.872
		c3.395,7.543,15.528,10.845,24.248,10.966c0.421,0.006,0.812-0.033,1.178-0.108c2.391,2.071,5.718,0.987,7.473-1.369
		C395.428,96.813,395.166,92.054,395.132,87.841z"/>
	<path fill="#D6D9FF" d="M344.396,180.799c-5.114,0.834-10.442-0.112-15.597,0.042c-2.241,0.067-4.464,0.318-6.683,0.618
		c-0.794-0.766-1.899-1.265-3.317-1.285c-5.974-0.082-11.743,1.461-17.631,2.084c-7.145-0.41-14.276-0.584-21.387,0.459
		c-3.19-1.527-7.095-1.737-10.254-0.162c-3.569,1.779-4.371,4.784-3.64,7.751c-0.025,0.042-0.054,0.077-0.078,0.12
		c-2.904,5.161,0.618,10.429,6.25,10.719c6.836,0.351,13.932-0.399,20.778-0.566c7.225-0.177,14.493-0.221,21.733-0.112
		c4.089,0.379,8.187,0.771,12.309,1.139c5.349,0.477,11.118,0.532,15.663-2.726c3.754-2.691,5.629-6.993,8.459-10.505
		C354.857,183.592,348.488,176.817,344.396,180.799z"/>
	<path fill="#D6D9FF" d="M423.62,187.17c0.652-4.026-2.184-6.721-6.151-6.151c-1.494,0.215-2.98,0.486-4.467,0.742
		c-1.846-0.546-3.687-1.233-5.543-1.531c-1.572-0.252-3.067-0.273-4.49-0.045c-3.556-2.554-9.611,1.887-7.155,6.846
		c0.012,0.025,0.024,0.05,0.037,0.076c0.13,1.174,0.635,2.301,1.497,3.085c1.106,2.269,2.277,4.521,3.799,6.507
		c3.155,4.115,7.237,4.534,12.121,4.459c4.178-0.064,8.241-1.24,9.899-5.414C424.255,193.006,423.163,189.992,423.62,187.17z"/>
	<path fill="#D6D9FF" d="M325.989,269.524c-0.948-0.506-5.025-3.533-5.194-5.399c0.638-0.815,1.15-1.792,1.492-2.954
		c1.34-4.55-5.122-8.877-8.357-4.865c-0.27,0.334-0.51,0.674-0.736,1.016c-0.039,0-0.069,0.001-0.111,0.001
		c-0.737-0.003-1.516-0.337-2.205-0.553c-0.766-0.24-2.795-1.193-2.746-1.929c0.273-4.07-4.376-5.846-7.524-4.317
		c-1.429,0.694-2.438,1.465-3.679,2.448c-1.15,0.912-1.664,1.981-1.72,3.041c-0.025,0.003-0.049,0.003-0.074,0.006
		c-1.585,0.218-3.136,0.487-4.699,0.66c-2.169-1.406-5.407-1.435-7.289,1.304c-1.761,2.582-2.815,5.477-2.381,8.457
		c-1.789,2.339-3.543,4.66-4.123,7.737c-0.519,2.751,0.73,5.287,3.492,6.151c0.324,0.101,0.641,0.169,0.959,0.241
		c-0.038,3.092-0.115,6.182-0.297,9.271c-0.099,1.677,1.008,3.534,2.476,4.317c2.013,1.074,3.985,1.915,6.194,2.504
		c2.117,0.565,4.124-0.29,5.322-1.911c0.593,0.551,1.186,1.101,1.805,1.626c-0.956-0.809,0.378,1.283,0.427,1.367
		c0.728,1.243,2.029,2.301,3.407,2.703c4.46,1.302,9.359-1.064,11.266-5.029c3.768-0.01,7.477,0.731,10.141-3.074
		c3.356-4.792-1.568-11,4.151-14.185C329.195,276.373,329.287,271.286,325.989,269.524z M312.717,281.383
		c-0.017,1.361,0.143,2.576,0.385,3.913c0.027,0.148,0.066,0.274,0.111,0.387c-2.426-0.055-4.631-0.153-7.077,0.337
		c-1.251,0.251-2.48,1.287-3.157,2.537c-2.556-2.75-5.592-5.373-8.312-7.918c-1.095-1.024-2.351-1.438-3.557-1.408
		c0.014-1.685,0.022-3.37,0.022-5.056c0-1.278-0.56-2.445-1.416-3.339c1.006-1.239,2.021-2.47,2.733-3.804
		c0.106-0.199,0.195-0.396,0.275-0.592c1.689-0.243,3.375-0.543,5.07-0.776c2.187-0.301,3.301-1.635,3.566-3.222
		c2.665,2.655,6.597,4.46,10.374,4.85c0.709,2.465,2.109,4.807,3.953,6.801C313.965,276.277,312.749,278.848,312.717,281.383z"/>
	<g>
		<path d="M407.402,160.935c-2.14-7.125-8.014-12.378-15.333-13.71l-18.451-3.352v-1.459c3.27-1.898,6.116-4.437,8.382-7.443h5.677
			c4.651,0,8.435-3.785,8.435-8.435V84.704c0-7.848-5.14-14.692-12.594-16.919l-1.406-1.406
			c-6.54-6.537-15.232-10.139-24.485-10.139c-19.092,0-34.622,15.533-34.622,34.622v21.615c0,5.421,3.855,9.957,8.967,11.014
			c1.577,8.081,6.627,14.92,13.528,18.924v1.459l-18.451,3.355c-7.322,1.333-13.193,6.585-15.333,13.71l-6.549,21.834h108.784
			L407.402,160.935z M390.489,126.535c0,1.549-1.26,2.812-2.812,2.812h-2.365c0.815-1.859,1.434-3.818,1.833-5.857
			c1.203-0.25,2.311-0.728,3.343-1.33V126.535z M387.677,117.318v-9.684c1.673,0.976,2.812,2.77,2.812,4.842
			C390.489,114.548,389.35,116.342,387.677,117.318z M331.44,117.315c-1.673-0.973-2.812-2.767-2.812-4.839
			c0-2.072,1.139-3.866,2.812-4.842V117.315z M331.44,98.417v3.211c-1.001,0.261-1.94,0.655-2.812,1.164V90.861
			c0-15.991,13.01-28.998,28.998-28.998c7.749,0,15.032,3.017,20.507,8.495l2.48,2.48l0.759,0.188
			c5.368,1.344,9.116,6.144,9.116,11.678v18.088c-0.872-0.509-1.811-0.905-2.812-1.164v-3.211h-8.919
			c-7.62,0-14.9-3.639-19.472-9.732l-2.233-2.986l-5.59,5.59c-4.597,4.597-10.71,7.128-17.211,7.128H331.44z M337.064,118.1v-14.188
			c6.942-0.644,13.387-3.655,18.375-8.649l1.094-1.094c5.643,6.223,13.764,9.87,22.225,9.87h3.295v14.059
			c0,4.1-1.119,7.935-3.042,11.247h-19.452v5.624h14.83c-3.965,3.489-9.147,5.624-14.83,5.624
			C347.156,140.594,337.064,130.503,337.064,118.1z M351.362,144.992c2.595,0.793,5.345,1.226,8.196,1.226s5.601-0.433,8.196-1.226
			l-8.196,6.147L351.362,144.992z M355.279,154.957l-5.736,5.739l-3.726-11.166l1.791-0.326L355.279,154.957z M371.509,149.204
			l1.791,0.326l-3.726,11.166l-5.736-5.739L371.509,149.204z M312.725,177.148l4.381-14.596c1.527-5.089,5.722-8.843,10.952-9.794
			l12.175-2.213l6.852,20.56l12.473-12.476l12.479,12.476l6.852-20.56l12.175,2.213c5.227,0.95,9.425,4.704,10.952,9.791
			l4.375,14.599H312.725z"/>
	</g>
	<g>
		<g>
			<path d="M316.365,10.47h-50.613c-4.651,0-8.435,3.785-8.435,8.435v33.742c0,4.651,3.785,8.435,8.435,8.435h13.123l27.174,20.383
				l-2.91-20.383h13.227c4.651,0,8.435-3.785,8.435-8.435V18.906C324.801,14.255,321.016,10.47,316.365,10.47z M319.177,52.648
				c0,1.549-1.26,2.812-2.812,2.812h-19.714l1.912,13.359L280.748,55.46h-14.995c-1.552,0-2.812-1.263-2.812-2.812V18.906
				c0-1.549,1.26-2.812,2.812-2.812h50.613c1.552,0,2.812,1.263,2.812,2.812V52.648z"/>
		</g>
	</g>
	<g>
		<g>
			<rect x="268.564" y="21.718" width="44.989" height="5.624"/>
		</g>
	</g>
	<path fill="#FFFFFF" d="M380.545,150.728c-2.313-0.454-4.564-0.992-6.913-1.262c-1.458-0.167-3.054,0.446-4.079,1.471
		c-0.398,0.401-0.709,0.853-0.949,1.347c-0.674,0.46-1.457,0.797-2.162,1.198c-0.429,0.244-0.8,0.56-1.126,0.913
		c-0.578,0.162-1.135,0.394-1.74,0.735c-0.623,0.352-1.16,0.867-1.719,1.313c-0.042,0.033-1.127,0.892-0.377,0.332
		c-0.581,0.434-1.152,0.876-1.71,1.335c-0.006-0.002-0.011-0.005-0.018-0.006c-0.228-0.063-0.467-0.1-0.71-0.125
		c-0.334-0.364-0.713-0.689-1.179-0.913c-0.01-0.005-0.015-0.007-0.024-0.011c-0.341-0.315-0.671-0.642-1.016-0.952
		c-0.973-0.876-2.079-1.634-3.342-1.926c-0.829-0.579-1.636-1.196-2.493-1.736c-0.158-0.099-0.328-0.16-0.494-0.238
		c-0.849-1.612-2.518-2.814-4.405-2.695c-1.403,0.089-2.664,0.408-4.008,0.756c-0.455,0.118-0.933,0.171-1.394,0.261
		c-0.218,0.046-0.437,0.087-0.655,0.129c-0.08,0.003-0.193,0.009-0.359,0.02c0.001,0.009,0.003,0.019,0.004,0.028
		c-0.427,0.019-0.866,0.061-1.333,0.15c-2.16,0.415-3.671,2.731-3.671,4.821c0,2.558,2.132,4.941,4.739,4.995
		c0.209,0.162,0.416,0.327,0.626,0.487c-1.014-0.769-0.184-0.049,0.011,0.184c0.269,0.322,0.553,0.599,0.847,0.854
		c0.001,0.001,0.001,0.003,0.002,0.004c0.254,0.433,0.571,0.788,0.913,1.106c-0.178,0.646-0.333,1.294-0.293,2.021
		c0.17,3.067,2.571,6.194,5.932,5.862c2.888-0.285,5.188-2.289,6.492-4.821c0.139,0.24,0.304,0.466,0.485,0.682
		c0.246,0.408,0.533,0.801,0.898,1.167c1.847,1.847,5.33,2.474,7.577,0.941c1.022-0.697,1.648-1.291,2.371-2.283
		c0.056-0.072,0.1-0.152,0.153-0.226c0.469-0.291,0.941-0.577,1.408-0.87c1.396-0.876,2.756-1.898,3.833-3.15
		c0.021-0.025,0.039-0.052,0.06-0.077c0.084-0.018,0.166-0.039,0.248-0.065c1.922,0.206,3.994-0.619,4.89-2.412
		c0.021-0.041,0.042-0.083,0.062-0.124c0.651,0.146,1.302,0.293,1.958,0.422c2.672,0.525,5.388-0.72,6.151-3.492
		C384.718,154.402,383.22,151.254,380.545,150.728z"/>
	<path fill="#2459FE" d="M405.199,208.026c-2.419-4.023-4.868-8.029-7.463-11.939c-0.236-0.462-0.518-0.922-0.826-1.38
		c-0.473-0.908-0.825-1.851-1.112-2.813c0.001-0.018-0.001-0.035,0-0.053c0.049-1.164-0.24-2.114-0.742-2.856
		c-0.457-1.934-0.935-3.869-1.941-5.667c-0.536-0.959-1.315-1.618-2.196-2.005c-0.118-0.661-0.254-1.313-0.433-1.944
		c0.109-4.012-0.795-7.824-2.705-11.384c-1.048-1.953-2.754-2.639-4.42-2.467c-0.862-6.876-6.393-11.362-13.362-7.852
		c-3.271,1.648-4.842,6.358-6.655,9.282c-2.485,4.008-4.323,8.417-7.415,12.026c-1.282,1.496-1.502,3.202-1.074,4.708
		c-1.07,0.567-2,1.501-2.545,2.832c-3.006,7.344-7.41,14.037-11.496,20.806c-1.141,1.89-0.793,3.923,0.318,5.398
		c-0.036,0.053-0.074,0.106-0.11,0.159c-0.139,0.206-0.257,0.419-0.382,0.63c-2.317-0.102-4.091,1.509-4.997,3.674
		c-0.945,2.259-1.629,4.578-2,7c-0.308,2.011,0.202,4.011,1.67,5.222c-0.057,0.083-0.106,0.168-0.166,0.25
		c-1.271,1.747-0.737,4.65,0.782,6.059c5.098,4.729,16.228,5.74,22.731,1.683c7.42,1.274,15.081,1.703,21.907-0.972
		c0.517,0.223,1.1,0.367,1.753,0.408c1.024,0.413,2.162,0.52,3.14,0.167c0.024-0.009,0.045-0.018,0.068-0.027
		c9.109,0.368,22.553,0.443,25.566-9.34C413.215,220.748,408.587,213.66,405.199,208.026z M367.314,180.066
		c0.816-1.31,1.594-2.647,2.357-4.005c1.944-0.222,3.931-0.664,5.807-0.362c2.437,0.392,4.364,4.893,5.579,6.852
		c0.681,2.791-0.216,6.31-0.705,8.889c-0.664,3.504-1.145,7.648-2.654,10.897c-1.273,2.742-4.358,3.056-6.998,3.612
		c-0.565,0.119-1.123,0.251-1.678,0.389c0.078-0.789,0.162-1.525,0.264-2.166c0.412-2.583-0.624-4.836-2.745-5.817
		c0.869-5.389,0.459-10.999,0.924-16.512C367.521,181.18,367.46,180.59,367.314,180.066z M368.527,228.605
		c-0.061-0.247-0.135-0.499-0.24-0.76c-0.584-1.45-1.197-2.635-2.154-3.617c0.855-2.109,1.415-4.534,1.798-7.015
		c1.313-0.544,2.67-0.921,4.043-1.257c0.34,0.978,1.072,1.877,2.302,2.535c0.181,0.086,0.343,0.197,0.518,0.29
		c2.177,1.271,4.111,3.131,4.32,5.687c0.005,0.064,0.01,0.123,0.014,0.186c0.008,0.17,0.011,0.343,0.004,0.519
		c0.012-0.002,0.024-0.003,0.036-0.005c0.029,0.349,0.06,0.663,0.094,0.948C376.262,228.2,372.409,228.744,368.527,228.605z"/>
	<g>
		<g>
			<rect x="268.564" y="44.212" width="33.742" height="5.624"/>
		</g>
	</g>
	<g>
		<g>
			<rect x="268.564" y="32.965" width="44.989" height="5.624"/>
		</g>
	</g>
	<g>
		<g>
			<rect x="307.93" y="44.212" width="5.624" height="5.624"/>
		</g>
	</g>
	<path fill="#FFFFFF" d="M378.116,178.651c-0.655-1.118-1.738-1.954-2.988-2.298c-1.421-0.391-2.557-0.053-3.853,0.504
		c-3.525,1.514-4.943,5.851-3.631,9.313c0.479,1.265,1.094,2.283,2.298,2.988c1.155,0.676,2.562,0.859,3.853,0.504
		c2.112-0.581,3.903-2.85,3.723-5.103c0.525-0.612,0.917-1.381,1.103-2.055C378.975,181.213,378.792,179.806,378.116,178.651z"/>
	<path d="M393.532,177.97l-10.087-20.175c-1.902-3.806-5.727-6.169-9.982-6.169s-8.079,2.363-9.982,6.169l-10.087,20.175h-90.576
		V314.96H426.15V177.97H393.532z M420.882,183.239v15.806h-16.812l-7.903-15.806H420.882z M368.193,160.151
		c1.003-2.007,3.022-3.256,5.269-3.256s4.265,1.249,5.269,3.256l30.54,61.084c0.701,1.402,1.073,2.969,1.073,4.539
		c0,5.598-4.555,10.153-10.153,10.153h-53.457c-5.598,0-10.153-4.555-10.153-10.153c0-1.571,0.372-3.137,1.073-4.542
		L368.193,160.151z M350.758,183.239l-7.903,15.806h-74.769v-15.806H350.758z M268.086,309.691V204.314h72.135l-7.281,14.56
		c-1.065,2.129-1.629,4.516-1.629,6.9c0,8.504,6.918,15.422,15.422,15.422h53.457c8.504,0,15.422-6.918,15.422-15.422
		c0-2.384-0.563-4.771-1.628-6.897l-7.281-14.563h14.178v105.376H268.086z"/>
	<path d="M272.894,188.668h5.269v5.269h-5.269V188.668z"/>
	<path d="M283.892,188.508h5.269v5.269h-5.269V188.508z"/>
	<path d="M294.43,188.508h5.269v5.269h-5.269V188.508z"/>
	<path d="M364.993,202.004c0.479,4.321,4.12,7.579,8.469,7.579s7.991-3.258,8.467-7.579l2.008-18.056
		c0.042-0.374,0.063-0.751,0.063-1.123c0-5.581-4.542-10.123-10.123-10.123h-0.828c-5.581,0-10.123,4.542-10.123,10.123
		c0,0.374,0.021,0.749,0.063,1.118L364.993,202.004z M373.048,177.97h0.828c2.676,0,4.855,2.179,4.855,4.855
		c0,0.178-0.01,0.356-0.03,0.535l-2.007,18.061c-0.184,1.649-1.573,2.893-3.233,2.893s-3.049-1.244-3.233-2.893l-2.007-18.064
		c-0.019-0.176-0.03-0.355-0.03-0.533C368.193,180.149,370.372,177.97,373.048,177.97z"/>
	<path d="M373.462,214.852c-4.357,0-7.903,3.546-7.903,7.903s3.546,7.903,7.903,7.903s7.903-3.546,7.903-7.903
		S377.819,214.852,373.462,214.852z M373.462,225.39c-1.451,0-2.634-1.183-2.634-2.634s1.183-2.634,2.634-2.634
		s2.634,1.183,2.634,2.634S374.913,225.39,373.462,225.39z"/>
	<path d="M327.893,260.022l-10.138-10.138l-6.096,3.049l-2.157-6.468h-14.335l-2.157,6.468l-6.096-3.049l-10.138,10.138l3.051,6.098
		l-6.473,2.155v14.335l6.47,2.155l-3.051,6.099L286.911,301l6.096-3.049l2.157,6.47h14.335l2.157-6.468l6.096,3.049l10.138-10.138
		l-3.051-6.098l6.473-2.155v-14.335l-6.47-2.155L327.893,260.022z M326.043,272.075v6.74l-6.053,2.018l-0.442,1.173
		c-0.127,0.334-0.259,0.664-0.404,0.988l-0.511,1.14l2.848,5.696l-4.766,4.766l-5.696-2.848l-1.141,0.511
		c-0.329,0.148-0.661,0.277-0.998,0.409l-1.162,0.445l-2.016,6.041h-6.74l-2.016-6.043l-1.162-0.445
		c-0.337-0.133-0.673-0.264-0.999-0.409l-1.14-0.511l-5.696,2.848l-4.766-4.766l2.848-5.696l-0.511-1.14
		c-0.145-0.324-0.277-0.653-0.404-0.988l-0.442-1.173l-6.051-2.018v-6.74l6.053-2.018l0.443-1.173
		c0.127-0.334,0.259-0.664,0.404-0.988l0.511-1.14l-2.851-5.693l4.766-4.766l5.696,2.848l1.14-0.511
		c0.329-0.148,0.662-0.277,0.999-0.409l1.162-0.445l2.018-6.043h6.74l2.016,6.043l1.162,0.445c0.337,0.133,0.673,0.264,0.999,0.409
		l1.14,0.511l5.696-2.848l4.766,4.766l-2.848,5.696l0.511,1.14c0.145,0.324,0.277,0.653,0.404,0.988l0.443,1.173L326.043,272.075z"
		/>
	<path d="M302.333,262.271c-7.263,0-13.172,5.909-13.172,13.172c0,7.263,5.909,13.172,13.172,13.172s13.172-5.909,13.172-13.172
		C315.505,268.181,309.596,262.271,302.333,262.271z M302.333,283.347c-4.357,0-7.903-3.546-7.903-7.903
		c0-4.357,3.546-7.903,7.903-7.903s7.903,3.546,7.903,7.903C310.236,279.8,306.69,283.347,302.333,283.347z"/>
	<path d="M326.043,209.583h-52.688v31.613h52.688V209.583z M320.774,235.927h-42.151v-21.075h42.151V235.927z"/>
	<path d="M410.344,299.153h5.269v5.269h-5.269V299.153z"/>
	<path d="M341.849,299.153h63.226v5.269h-63.226V299.153z"/>
	<path d="M341.849,288.616h73.763v5.269h-73.763V288.616z"/>
	<path d="M341.849,278.078h73.763v5.269h-73.763V278.078z"/>
	<path d="M341.849,267.54h21.075v5.269h-21.075V267.54z"/>
	<path d="M368.193,267.54h47.419v5.269h-47.419V267.54z"/>
	<path d="M352.387,257.003h63.226v5.269h-63.226V257.003z"/>
	<path d="M341.849,257.003h5.269v5.269h-5.269V257.003z"/>
</g>
<path fill="#D6D9FF" d="M218.088,236.813c-0.278-1.536-1.452-2.676-2.863-3.246c-0.061-0.068-0.108-0.146-0.173-0.211
	c-1.033-1.033-2.148-1.279-3.536-1.464c-2.412-0.322-5.333,0.855-6.878,2.738c-1.217,1.483-1.789,2.897-1.974,4.817
	c-0.176,1.833,0.848,3.467,1.923,4.817c0.898,1.128,2.74,2.014,4.113,2.275c2.018,0.383,3.816,0.102,5.637-0.829
	c1.269-0.649,2.491-1.969,3.084-3.257C218.29,240.571,218.458,238.858,218.088,236.813z"/>
<path fill="#090A0E" d="M203.135,275.178l-5.837,5.837l-5.837-5.837l-3.6,3.6l5.837,5.837l-5.837,5.837l3.6,3.6l5.837-5.837
	l5.837,5.837l3.6-3.6l-5.837-5.837l5.837-5.837L203.135,275.178z"/>
<path fill="#090A0E" d="M211.205,228.184c-5.616,0-10.183,4.567-10.183,10.183s4.567,10.183,10.183,10.183
	s10.183-4.567,10.183-10.183S216.821,228.184,211.205,228.184z M211.205,243.458c-2.808,0-5.091-2.283-5.091-5.091
	c0-2.808,2.283-5.091,5.091-5.091c2.808,0,5.091,2.283,5.091,5.091C216.296,241.174,214.013,243.458,211.205,243.458z"/>
<path fill="#090A0E" d="M167.29,214.852l-5.837,5.837l-5.837-5.837l-3.6,3.6l5.837,5.837l-5.837,5.837l3.6,3.6l5.837-5.837
	l5.837,5.837l3.6-3.6l-5.837-5.837l5.837-5.837L167.29,214.852z"/>
<path fill="#D6D9FF" d="M388.249,17.167c-0.278-1.536-1.452-2.676-2.863-3.246c-0.061-0.068-0.108-0.146-0.173-0.211
	c-1.033-1.033-2.148-1.279-3.536-1.464c-2.412-0.322-5.333,0.855-6.878,2.738c-1.217,1.483-1.789,2.897-1.974,4.817
	c-0.176,1.833,0.848,3.467,1.923,4.817c0.898,1.128,2.74,2.014,4.113,2.275c2.018,0.383,3.816,0.102,5.637-0.829
	c1.269-0.649,2.491-1.969,3.084-3.257C388.45,20.925,388.618,19.212,388.249,17.167z"/>
<path fill="#090A0E" d="M381.365,8.538c-5.616,0-10.183,4.567-10.183,10.183s4.567,10.183,10.183,10.183
	c5.616,0,10.183-4.567,10.183-10.183S386.981,8.538,381.365,8.538z M381.365,23.812c-2.808,0-5.091-2.283-5.091-5.091
	s2.283-5.091,5.091-5.091s5.091,2.283,5.091,5.091S384.173,23.812,381.365,23.812z"/>
<path fill="#090A0E" d="M421.551,37.587l-5.837,5.837l-5.837-5.837l-3.6,3.6l5.837,5.837l-5.837,5.837l3.6,3.6l5.837-5.837
	l5.837,5.837l3.6-3.6l-5.837-5.837l5.837-5.837L421.551,37.587z"/>
</svg>
