<?xml version="1.0" encoding="utf-8"?>
<!-- Generator: Adobe Illustrator 17.0.0, SVG Export Plug-In . SVG Version: 6.00 Build 0)  -->
<!DOCTYPE svg PUBLIC "-//W3C//DTD SVG 1.1//EN" "http://www.w3.org/Graphics/SVG/1.1/DTD/svg11.dtd">
<svg version="1.1" id="Layer_1" xmlns="http://www.w3.org/2000/svg" xmlns:xlink="http://www.w3.org/1999/xlink" x="0px" y="0px"
	 width="339.45px" height="303.475px" viewBox="78.17 17.386 339.45 303.475" enable-background="new 78.17 17.386 339.45 303.475"
	 xml:space="preserve">
<path fill="#D6D9FF" d="M134.833,188.167c-0.073-2.699-2.219-5.033-5-5c-9.063,0.107-17.773-3.307-26.951-2.898
	c-6.769,0.301-9.645,3.307-10.871,9.569c-0.39,1.992,0.309,3.62,1.483,4.719c-1.044,3.088-0.739,6.677-0.662,9.944
	c0.084,3.565-0.572,7.183,2.304,9.906c3.511,3.324,9.474,1.917,13.696,1.452c7.601-0.838,16.666,4.711,23.577-0.48
	C140.307,209.447,135.052,196.233,134.833,188.167z"/>
<path fill="#D6D9FF" d="M134.321,266.171c-0.99-4.209-0.536-8.553-0.406-12.861c0.536-4.71,0.346-9.454-0.594-14.139
	c-0.76-3.789-5.826-4.694-8.357-2.206c-0.521,0.512-0.96,1.053-1.363,1.607c-0.906,0.046-1.822,0.135-2.768,0.261
	c-1.097,0.147-2.005,0.565-2.735,1.14c-1.946-0.387-3.882-0.937-5.599-1.14c-5.322-0.628-10.641-0.963-16-1
	c-5.05-0.035-6.143,6.086-3.286,8.767c-1.405,2.544-1.479,5.715-1.837,8.541c-0.864,6.808-0.716,15.938,7.814,17.054
	c4.536,0.593,9.469,0.569,14.015,0.189c5.008-0.418,10.097-1.929,14.965-0.064C131.935,273.763,135.117,269.554,134.321,266.171z"/>
<path fill="#2459FE" d="M228.167,259.5c-0.017-2.469-2.276-5.339-5-5c-4.549,0.566-9.095,0.369-13.667,0.333
	c-4.027-0.032-5.538,3.854-4.536,6.79c-0.197,0.719-0.22,1.484-0.029,2.245c-0.956,2.968-0.741,6.778,0.087,10.401
	c0.014,0.063,0.026,0.122,0.04,0.184c-0.302,4.348-0.481,8.705-0.305,13.063c0.273,6.778,1.964,17.851,10.851,18.029
	c10.133,0.203,12.086-9.301,12.763-17.34C229.175,278.641,228.232,269.069,228.167,259.5z"/>
<path fill="#D6D9FF" d="M240.876,163.943c-4.169-3.662-9.226-6.698-14.836-7.283c-4.292-0.447-8.676,0.199-12.984,1.149
	c-18.551,1.723-36.636,10.854-37.472,31.946c-0.404,10.176,3.158,20.928,8.497,29.478c5.809,9.303,14.438,14.029,25.222,15.228
	c24.662,2.743,47.956-14.711,47.682-40.476C256.854,181.636,249.806,171.788,240.876,163.943z M237.889,216.109
	c-7.112,7.042-17.475,9.263-27.145,8.513c-8.416-0.653-14.276-4.427-18.679-11.478c-4.103-6.571-6.31-14.546-6.489-22.261
	c-0.24-10.338,5.872-16.436,13.907-19.8c0.327-0.002,0.664-0.029,1.014-0.095c4.022-0.753,8.326-2.154,12.648-3.161
	c2.048-0.207,4.074-0.311,6.023-0.327c1.138-0.009,2.07-0.332,2.806-0.851c3.259,0.018,6.421,0.696,9.362,2.515
	c7.775,4.808,13.772,13.075,15.428,22.01C248.447,200.258,244.238,209.823,237.889,216.109z"/>
<path fill="#D6D9FF" d="M345.963,278.297c-0.041-1.611-0.142-3.225-0.211-4.827c-0.02-0.666-0.053-1.332-0.059-2
	c-0.03-2.604-1.679-4.156-3.63-4.656c-1.089-1.39-2.841-2.273-5.033-1.832c-11.55,2.322-14.929,22.572-3.663,27.32
	c2.574,1.085,4.993,0.922,7.001-0.093c2.798,0.513,6.027-1.063,5.991-4.738C346.329,284.408,346.136,281.353,345.963,278.297z"/>
<g>
	<path d="M259.619,196.191c0-23.22-18.13-42.234-40.972-43.75v-23.561H78.17v158.036h122.917v8.78
		c0,8.068,6.565,14.633,14.633,14.633s14.633-6.565,14.633-14.633v-43.899H224.5v-12.59
		C244.512,235.127,259.619,217.392,259.619,196.191z M253.766,196.191c0,20.978-17.068,38.046-38.046,38.046
		s-38.046-17.068-38.046-38.046s17.068-38.046,38.046-38.046S253.766,175.213,253.766,196.191z M201.087,251.796v29.266H84.023
		v-146.33h128.77v17.708c-22.843,1.516-40.972,20.53-40.972,43.75c0,21.201,15.107,38.936,35.119,43.016v12.59H201.087z
		 M224.5,295.695c0,4.84-3.94,8.78-8.78,8.78c-4.84,0-8.78-3.94-8.78-8.78V257.65h17.56V295.695z M218.647,251.796h-5.853v-11.855
		c0.972,0.064,1.938,0.149,2.927,0.149c0.989,0,1.955-0.084,2.927-0.149V251.796z"/>
	<path d="M183.528,196.191c0,17.75,14.443,32.193,32.193,32.193s32.193-14.443,32.193-32.193s-14.443-32.193-32.193-32.193
		S183.528,178.441,183.528,196.191z M242.06,196.191c0,14.524-11.818,26.339-26.339,26.339c-14.522,0-26.339-11.815-26.339-26.339
		c0-14.524,11.818-26.339,26.339-26.339C230.242,169.852,242.06,181.667,242.06,196.191z"/>
	<path d="M218.647,295.695c0,1.616-1.31,2.927-2.927,2.927c-1.616,0-2.927-1.31-2.927-2.927s1.31-2.927,2.927-2.927
		C217.336,292.769,218.647,294.079,218.647,295.695z"/>
	<path d="M205.639,202.536l-3.25,4.87l11.541,7.691l16.116-32.231l-5.239-2.615l-13.15,26.301L205.639,202.536z"/>
	<path d="M130.623,226.583l-5.402-2.252l-4.127,9.906H89.877v40.972h46.826v-40.972h-9.269L130.623,226.583z M130.849,240.09v29.266
		H95.73V240.09h22.927l-6.386,15.326l-5.689-5.689l-4.138,4.138l11.871,11.871l10.682-25.646H130.849z"/>
	<path d="M130.623,170.978l-5.402-2.252l-4.127,9.906H89.877v40.972h46.826v-40.972h-9.269L130.623,170.978z M130.849,184.485
		v29.266H95.73v-29.266h22.927l-6.386,15.326l-5.689-5.689l-4.138,4.138l11.871,11.871l10.682-25.646H130.849z"/>
	<path d="M160.115,152.292h5.853v5.853h-5.853V152.292z"/>
	<path d="M89.877,152.292h64.385v5.853H89.877V152.292z"/>
	<path d="M142.555,234.237h35.119v5.853h-35.119V234.237z"/>
	<path d="M142.555,245.943h35.119v5.853h-35.119V245.943z"/>
	<path d="M142.555,257.65h35.119v5.853h-35.119V257.65z"/>
	<path d="M142.555,269.356h35.119v5.853h-35.119V269.356z"/>
	<path d="M142.555,178.631h23.413v5.853h-23.413V178.631z"/>
	<path d="M142.555,190.338h23.413v5.853h-23.413V190.338z"/>
	<path d="M142.555,202.044h23.413v5.853h-23.413V202.044z"/>
	<path d="M142.555,213.751h23.413v5.853h-23.413V213.751z"/>
	<path d="M89.877,140.586h76.092v5.853H89.877V140.586z"/>
</g>
<path fill="#F5F4F7" d="M371.365,152.996c-3.76-4.449-9.207-5.33-14.759-5.049c-4.609,0.233-9.049,1.368-13.685,1.111
	c-1.096-0.061-2.305-0.065-3.514,0.047c-0.884-5.798-9.231-5.307-9.908,0.729c-0.11,0.978-0.067,1.92,0.106,2.813
	c0.312,7.783,1.052,17.39,6.666,22.424c2.668,5.822,11.673,6.439,17.591,6.073c9.563-0.592,16.463-5.46,19.731-14.687
	C375.155,162.048,374.398,156.584,371.365,152.996z M343.561,163.223c-0.571,0.445-1.1,0.957-1.566,1.547
	c-0.181,0.229-0.346,0.463-0.499,0.7c-0.425-0.729-0.759-1.549-1.019-2.428C341.501,163.138,342.542,163.191,343.561,163.223z"/>
<path fill="#F5F4F7" d="M250.988,62.171c-1.306-4.082-0.244-8.597-2.963-11.831c3.11-2.514,3.961-7.047,0.308-11.37
	c-7.183-8.499-21.338-8.198-31.162-5.957c-1.484,0.338-2.557,1.372-3.139,2.644c-0.99,0.335-1.887,1.073-2.516,2.321
	c-2.741,5.44-3.98,11.375-0.486,16.794c3.495,5.421,10.481,7.547,16.474,8.551c1.056,0.177,2.01,0.054,2.841-0.27
	c0.624,0.298,1.336,0.474,2.155,0.449c1.671-0.053,3.183-0.434,4.61-1.013c1.229-0.367,2.485-0.841,3.548-1.495
	c0.122,1.302,0.292,2.602,0.687,3.838C243.302,70.946,252.959,68.33,250.988,62.171z M238.813,43.983
	c0.213,0.111,0.428,0.211,0.637,0.332c0.475,0.293,0.896,0.651,1.261,1.074C241.819,46.472,238.623,45.223,238.813,43.983z"/>
<path fill="#2459FE" d="M220.017,121.085c-3.594-0.688-6.996-0.197-9.77,2.301c-2.273,2.046-2.559,4.94-2.543,7.776
	c-0.169,0.502-0.248,1.035-0.204,1.588c0.926,11.515,17.592,9.367,20.901,0.46C230.588,127.323,225.445,122.123,220.017,121.085z"/>
<path fill="#2459FE" d="M286.068,74.86c-0.417-3.131-2.018-5.36-4.711-7.011c-1.331-0.816-2.928-0.847-4.311-0.309
	c-4.504-1.378-10.516-0.647-12.945,3.893c-3.082,5.762,2.272,11.564,7.585,13.226c4.085,1.278,9.289-0.292,12.063-3.523
	C285.204,79.441,286.374,77.165,286.068,74.86z"/>
<path fill="#2459FE" d="M318.764,112.852c-2.629-1.449-6.349-1.251-8.783,0.601c-1.932-0.538-4.128-0.026-5.465,2.19
	c-3.164,5.248-2.795,11.275,2.343,14.996c4.193,3.037,10.496,1.849,14.024-1.566C325.551,124.554,324.49,116.008,318.764,112.852z"
	/>
<path fill="#F5F4F7" d="M341.017,36.229c-0.59-4.68-2.949-10.13-7.411-11.577c-0.385-0.569-0.898-1.079-1.583-1.468
	c-9.043-5.146-17.094-4.631-24.703,0.938c-2.811,1.175-4.992,3.054-5.951,6.007c-3.62,5.753-4.164,13.91,1.165,18.608
	c3.415,3.011,7.539,3.731,10.85,2.572c0.829,0.833,1.988,1.417,3.448,1.525c2.891,0.214,5.352-0.084,7.4-0.83
	c0.226,0.174,0.467,0.338,0.743,0.481c2.06,1.069,4.021,1.619,6.353,1.579c0.876-0.015,1.761-0.212,2.629-0.313
	c1.107-0.129,0.104-0.116,0.891,1.607c2.228,4.883,9.044,1.985,9.317-2.524C344.524,46.949,343.232,41.478,341.017,36.229z
	 M308.562,40.219c-0.224-0.752-0.185-1.513,0.027-2.259c0.14-0.081,0.275-0.17,0.405-0.265c0.07,0.901,0.169,1.8,0.256,2.68
	c0.016,0.165,0.072,0.579,0.129,1.024C308.829,41.12,308.723,40.763,308.562,40.219z"/>
<path d="M323.946,115.709l30.908-30.908c2.207,1.462,4.843,2.324,7.68,2.324c7.691,0,13.948-6.257,13.948-13.948
	s-6.257-13.948-13.948-13.948c-7.691,0-13.948,6.257-13.948,13.948c0,2.837,0.862,5.473,2.324,7.68l-30.908,30.908
	c-2.207-1.462-4.843-2.324-7.68-2.324c-1.93,0-3.771,0.396-5.445,1.11l-21.226-28.3c0.968-1.9,1.565-4.014,1.565-6.285
	c0-7.691-6.257-13.948-13.948-13.948s-13.948,6.257-13.948,13.948c0,2.815,0.851,5.426,2.29,7.621l-38.161,35.617
	c-1.819-0.868-3.827-1.395-5.972-1.395c-7.691,0-13.948,6.257-13.948,13.948c0,7.691,6.257,13.948,13.948,13.948
	c7.691,0,13.948-6.257,13.948-13.948c0-3.501-1.342-6.664-3.479-9.116l37.586-35.081c2.218,1.484,4.876,2.354,7.735,2.354
	c3.336,0,6.363-1.227,8.768-3.188l20.258,27.011c-2.416,2.508-3.919,5.903-3.919,9.652c0,7.691,6.257,13.948,13.948,13.948
	s13.948-6.257,13.948-13.948C326.27,120.552,325.408,117.916,323.946,115.709z M362.534,64.808c4.614,0,8.369,3.755,8.369,8.369
	s-3.755,8.369-8.369,8.369c-4.614,0-8.369-3.755-8.369-8.369S357.92,64.808,362.534,64.808z M217.477,140.126
	c-4.614,0-8.369-3.755-8.369-8.369c0-4.614,3.755-8.369,8.369-8.369c4.614,0,8.369,3.755,8.369,8.369
	C225.846,136.371,222.091,140.126,217.477,140.126z M273.268,84.335c-4.614,0-8.369-3.755-8.369-8.369s3.755-8.369,8.369-8.369
	c4.614,0,8.369,3.755,8.369,8.369S277.882,84.335,273.268,84.335z M312.322,131.757c-4.614,0-8.369-3.755-8.369-8.369
	c0-4.614,3.755-8.369,8.369-8.369c4.614,0,8.369,3.755,8.369,8.369C320.691,128.003,316.936,131.757,312.322,131.757z"/>
<path d="M315.112,56.439h15.808l14.877,11.158V36.913c0-10.765-8.762-19.527-19.527-19.527h-11.158
	c-10.765,0-19.527,8.762-19.527,19.527S304.347,56.439,315.112,56.439z M315.112,22.965h11.158c7.691,0,13.948,6.257,13.948,13.948
	v19.527l-7.44-5.579h-17.666c-7.691,0-13.948-6.257-13.948-13.948S307.421,22.965,315.112,22.965z"/>
<rect x="309.532" y="28.544" width="22.316" height="5.579"/>
<rect x="309.532" y="39.702" width="11.158" height="5.579"/>
<rect x="326.27" y="39.702" width="5.579" height="5.579"/>
<path fill="#FFFFFF" d="M377.924,70.774c-0.889-5.552-5.712-14.352-12.174-14.607c-2.867-0.113-5.484,0.97-7.532,2.823
	c-1.116-0.019-2.274,0.314-3.337,1.142c-4.167,3.243-7.698,8.558-7.394,13.587c-0.225,0.495-0.385,1.017-0.465,1.549
	c-0.639,1.604-0.469,3.503,1.109,5.102c2.215,2.243,4.652,4.501,7,6.583c3.141,2.786,7.978,1.817,11.679,0.868
	C373.999,85.976,379.058,77.862,377.924,70.774z M362.743,78.517c-2.22,0.276-1,0.932-2.708-0.969
	c-0.12-0.134-0.261-0.251-0.388-0.379c0.049-0.502,0.003-1.013-0.15-1.521c0.995-1.214,1.849-2.565,2.548-4.141
	c0.738-1.662,1.522-3.498,2.677-4.923c0.297-0.367,2.499,3.138,2.662,3.424C369.422,73.592,366.78,78.015,362.743,78.517z"/>
<path d="M223.056,67.598h15.808l14.877,11.158V48.071c0-10.765-8.762-19.527-19.527-19.527h-11.158
	c-10.765,0-19.527,8.762-19.527,19.527S212.292,67.598,223.056,67.598z M223.056,34.123h11.158c7.691,0,13.948,6.257,13.948,13.948
	v19.527l-7.44-5.579h-17.666c-7.691,0-13.948-6.257-13.948-13.948S215.366,34.123,223.056,34.123z"/>
<rect x="217.477" y="39.702" width="22.316" height="5.579"/>
<rect x="217.477" y="50.86" width="11.158" height="5.579"/>
<rect x="234.215" y="50.86" width="5.579" height="5.579"/>
<path d="M356.955,145.705h-15.808l-14.877-11.158v30.685c0,10.765,8.762,19.527,19.527,19.527h11.158
	c10.765,0,19.527-8.762,19.527-19.527S367.72,145.705,356.955,145.705z M356.955,179.18h-11.158
	c-7.691,0-13.948-6.257-13.948-13.948v-19.527l7.44,5.579h17.666c7.691,0,13.948,6.257,13.948,13.948
	C370.903,172.923,364.646,179.18,356.955,179.18z"/>
<rect x="340.218" y="168.021" width="22.316" height="5.579"/>
<rect x="351.376" y="156.863" width="11.158" height="5.579"/>
<rect x="340.218" y="156.863" width="5.579" height="5.579"/>
<g>
	<g>
		<path stroke="#000000" stroke-width="3" stroke-miterlimit="10" d="M353.975,236.146h-55.963c-2.571,0-4.664,2.092-4.664,4.664
			v1.634c-12.133,0.805-21.763,10.905-21.763,23.239v3.109c0,12.792,10.353,23.2,23.121,23.309
			c3.207,9.046,11.827,15.555,21.961,15.555h18.654c12.858,0,23.318-10.46,23.318-23.318V240.81
			C358.638,238.239,356.546,236.146,353.975,236.146z M274.694,268.792v-3.109c0-10.617,8.237-19.331,18.654-20.13v6.231
			c-6.984,0.776-12.436,6.709-12.436,13.899v3.109c0,7.19,5.452,13.123,12.436,13.899v1.646c0,1.578,0.162,3.118,0.462,4.608
			C283.175,288.372,274.694,279.566,274.694,268.792z M293.348,254.925v24.624c-5.264-0.759-9.327-5.287-9.327-10.757v-3.109
			C284.021,260.212,288.085,255.684,293.348,254.925z M355.529,284.337c0,11.143-9.066,20.209-20.209,20.209h-18.654
			c-11.143,0-20.209-9.066-20.209-20.209v-1.555v-3.109V240.81c0-0.858,0.696-1.555,1.555-1.555h34.2
			c1.715,0,3.109,1.394,3.109,3.109v20.333c-5.264,0.759-9.327,5.287-9.327,10.757v20.209h21.763v-20.209
			c0-5.47-4.064-9.999-9.327-10.757v-20.333c0-1.138-0.33-2.19-0.864-3.109h16.41c0.858,0,1.555,0.696,1.555,1.555V284.337z
			 M336.875,265.683c4.286,0,7.773,3.487,7.773,7.773v17.1h-15.545v-17.1C329.102,269.169,332.589,265.683,336.875,265.683z"/>
		<path stroke="#000000" stroke-width="3" stroke-miterlimit="10" d="M327.614,214.64c0,3.857,3.139,6.995,6.995,6.995h4.664
			c2.144,0,3.886,1.743,3.886,3.886v3.886h3.109v-3.886c0-3.857-3.139-6.995-6.995-6.995h-4.664c-2.144,0-3.886-1.743-3.886-3.886
			c0-3.857-3.139-6.995-6.995-6.995h-22.541v3.109h22.541C325.872,210.753,327.614,212.496,327.614,214.64z"/>
		<rect x="301.121" y="225.265" stroke="#000000" stroke-width="3" stroke-miterlimit="10" width="4.664" height="3.109"/>
		<path stroke="#000000" stroke-width="3" stroke-miterlimit="10" d="M315.112,221.532c0,3,2.441,5.441,5.441,5.441h1.555
			c1.286,0,2.332,1.046,2.332,2.332v2.332h3.109v-2.332c0-3-2.441-5.441-5.441-5.441h-1.555c-1.286,0-2.332-1.046-2.332-2.332
			c0-3-2.441-5.441-5.441-5.441h-11.659v3.109h11.659C314.065,219.201,315.112,220.247,315.112,221.532z"/>
	</g>
</g>
<path fill="#D6D9FF" d="M161.228,44.467c-0.278-1.536-1.452-2.676-2.863-3.246c-0.061-0.068-0.108-0.146-0.173-0.211
	c-1.033-1.033-2.148-1.279-3.536-1.464c-2.412-0.322-5.333,0.855-6.878,2.738c-1.217,1.483-1.789,2.897-1.974,4.817
	c-0.176,1.833,0.848,3.467,1.923,4.817c0.898,1.128,2.74,2.014,4.113,2.275c2.018,0.383,3.816,0.102,5.637-0.829
	c1.269-0.649,2.491-1.969,3.084-3.257C161.429,48.225,161.598,46.512,161.228,44.467z"/>
<path fill="#090A0E" d="M134.577,75.595l-5.837,5.837l-5.837-5.837l-3.6,3.6l5.837,5.837l-5.837,5.837l3.6,3.6l5.837-5.837
	l5.837,5.837l3.6-3.6l-5.837-5.837l5.837-5.837L134.577,75.595z"/>
<path fill="#090A0E" d="M153.775,35.724c-5.616,0-10.183,4.567-10.183,10.183s4.567,10.183,10.183,10.183
	s10.183-4.567,10.183-10.183S159.391,35.724,153.775,35.724z M153.775,50.998c-2.808,0-5.091-2.283-5.091-5.091
	c0-2.808,2.283-5.091,5.091-5.091c2.808,0,5.091,2.283,5.091,5.091C158.866,48.715,156.583,50.998,153.775,50.998z"/>
<g>
	<path fill="#231E1B" d="M374.879,50.957c-14.185,0-25.687,11.5-25.687,25.687c0,11.349,7.36,20.977,17.566,24.374
		c1.284,0.238,1.755-0.558,1.755-1.236c0-0.612-0.024-2.636-0.035-4.782c-7.146,1.554-8.654-3.031-8.654-3.031
		c-1.168-2.969-2.852-3.758-2.852-3.758c-2.331-1.594,0.176-1.562,0.176-1.562c2.579,0.181,3.938,2.647,3.938,2.647
		c2.291,3.927,6.009,2.792,7.475,2.135c0.231-1.66,0.896-2.793,1.631-3.435c-5.705-0.649-11.703-2.852-11.703-12.695
		c0-2.804,1.003-5.096,2.647-6.895c-0.267-0.647-1.146-3.26,0.249-6.798c0,0,2.157-0.69,7.065,2.633
		c2.049-0.569,4.246-0.855,6.429-0.865c2.183,0.01,4.382,0.295,6.435,0.865c4.903-3.323,7.057-2.633,7.057-2.633
		c1.398,3.538,0.519,6.151,0.252,6.798c1.647,1.799,2.644,4.09,2.644,6.895c0,9.866-6.009,12.038-11.729,12.674
		c0.921,0.797,1.742,2.36,1.742,4.757c0,3.437-0.029,6.203-0.029,7.049c0,0.684,0.462,1.485,1.764,1.232
		c10.201-3.4,17.552-13.025,17.552-24.371C400.565,62.456,389.065,50.957,374.879,50.957z"/>
	<path fill="#231E1B" d="M358.921,87.837c-0.057,0.128-0.257,0.166-0.44,0.079c-0.187-0.084-0.291-0.258-0.231-0.386
		c0.055-0.131,0.256-0.168,0.442-0.08C358.879,87.533,358.985,87.709,358.921,87.837L358.921,87.837z"/>
	<path fill="#231E1B" d="M359.962,88.998c-0.123,0.114-0.362,0.061-0.524-0.119c-0.168-0.179-0.199-0.419-0.075-0.534
		c0.126-0.114,0.359-0.06,0.527,0.119C360.057,88.645,360.09,88.882,359.962,88.998L359.962,88.998z"/>
	<path fill="#231E1B" d="M360.974,90.477c-0.157,0.11-0.415,0.007-0.574-0.222c-0.157-0.228-0.157-0.503,0.004-0.612
		c0.159-0.11,0.413-0.011,0.574,0.216C361.135,90.091,361.135,90.365,360.974,90.477L360.974,90.477z"/>
	<path fill="#231E1B" d="M362.362,91.906c-0.141,0.155-0.441,0.114-0.66-0.098c-0.225-0.207-0.287-0.501-0.146-0.656
		c0.143-0.155,0.445-0.112,0.665,0.098C362.444,91.457,362.512,91.752,362.362,91.906L362.362,91.906z"/>
	<path fill="#231E1B" d="M364.276,92.736c-0.062,0.201-0.351,0.293-0.642,0.207c-0.291-0.088-0.481-0.324-0.422-0.527
		c0.06-0.203,0.35-0.298,0.644-0.206C364.146,92.297,364.337,92.531,364.276,92.736L364.276,92.736z"/>
	<path fill="#231E1B" d="M366.378,92.89c0.007,0.212-0.24,0.388-0.545,0.391c-0.307,0.007-0.556-0.165-0.559-0.373
		c0-0.214,0.241-0.388,0.548-0.393C366.128,92.509,366.378,92.68,366.378,92.89L366.378,92.89z"/>
	<path fill="#231E1B" d="M368.335,92.557c0.037,0.206-0.176,0.419-0.479,0.475c-0.298,0.055-0.574-0.073-0.612-0.278
		c-0.037-0.212,0.179-0.424,0.477-0.479C368.024,92.223,368.296,92.347,368.335,92.557L368.335,92.557z"/>
</g>
<path fill="#D6D9FF" d="M415.066,207.611c-0.278-1.536-1.452-2.676-2.863-3.246c-0.061-0.068-0.108-0.146-0.173-0.211
	c-1.033-1.033-2.148-1.279-3.536-1.464c-2.412-0.322-5.333,0.855-6.878,2.738c-1.217,1.483-1.789,2.897-1.974,4.817
	c-0.176,1.833,0.848,3.467,1.923,4.817c0.898,1.128,2.74,2.014,4.113,2.275c2.018,0.383,3.816,0.102,5.637-0.829
	c1.269-0.649,2.491-1.969,3.084-3.257C415.268,211.37,415.436,209.657,415.066,207.611z"/>
<path fill="#090A0E" d="M403.837,244.677L398,250.514l-5.837-5.837l-3.6,3.6l5.837,5.837l-5.837,5.837l3.6,3.6l5.837-5.837
	l5.837,5.837l3.6-3.6l-5.837-5.837l5.837-5.837L403.837,244.677z"/>
<path fill="#090A0E" d="M407.437,201.795c-5.616,0-10.183,4.567-10.183,10.183s4.567,10.183,10.183,10.183
	c5.616,0,10.183-4.567,10.183-10.183S413.053,201.795,407.437,201.795z M407.437,217.069c-2.808,0-5.091-2.283-5.091-5.091
	c0-2.808,2.283-5.091,5.091-5.091s5.091,2.283,5.091,5.091C412.528,214.786,410.245,217.069,407.437,217.069z"/>
</svg>
