<?xml version="1.0" encoding="utf-8"?>
<!-- Generator: Adobe Illustrator 17.0.0, SVG Export Plug-In . SVG Version: 6.00 Build 0)  -->
<!DOCTYPE svg PUBLIC "-//W3C//DTD SVG 1.1//EN" "http://www.w3.org/Graphics/SVG/1.1/DTD/svg11.dtd">
<svg version="1.1" id="Capa_1" xmlns="http://www.w3.org/2000/svg" xmlns:xlink="http://www.w3.org/1999/xlink" x="0px" y="0px"
	 width="361.847px" height="321.965px" viewBox="-85.518 14.672 361.847 321.965"
	 enable-background="new -85.518 14.672 361.847 321.965" xml:space="preserve">
<g display="none">
	<g display="inline">
		<g>
			<path d="M64.516,131.452c-5.335,0-9.677-4.342-9.677-9.677h-6.452c0,8.894,7.235,16.129,16.129,16.129
				s16.129-7.235,16.129-16.129h-6.452C74.194,127.11,69.852,131.452,64.516,131.452z"/>
			<path d="M135.484,137.903c8.894,0,16.129-7.235,16.129-16.129h-6.452c0,5.335-4.342,9.677-9.677,9.677s-9.677-4.342-9.677-9.677
				h-6.452C119.355,130.668,126.59,137.903,135.484,137.903z"/>
			<path d="M174.194,99.452v-3.484c0-11.084-26.042-15.765-41.565-17.568l-0.742,6.406c26.826,3.119,35.855,8.971,35.855,11.161
				c0,4.377-23.91,12.903-67.742,12.903s-67.742-8.526-67.742-12.903c0-2.19,9.029-8.042,35.855-11.161L67.371,78.4
				c-15.523,1.803-41.565,6.484-41.565,17.568v3.484c-10.926,1.574-19.355,10.971-19.355,22.323
				c0,11.381,8.468,20.794,19.429,22.335c1.119,28.087,17.91,52.21,41.861,63.823V225h6.452v-14.313
				c8.042,2.99,16.735,4.635,25.806,4.635s17.765-1.645,25.806-4.635V225h6.452v-17.068c23.952-11.613,40.742-35.735,41.861-63.826
				c10.961-1.539,19.429-10.952,19.429-22.332C193.548,110.423,185.119,101.026,174.194,99.452z M25.806,137.577
				c-7.352-1.5-12.903-8.016-12.903-15.803s5.552-14.303,12.903-15.803V137.577z M167.742,141.129
				c0,37.355-30.387,67.742-67.742,67.742s-67.742-30.387-67.742-67.742v-36.526c14.055,8.274,47.8,10.719,67.742,10.719
				s53.687-2.445,67.742-10.719V141.129z M174.194,137.577v-31.606c7.352,1.5,12.903,8.013,12.903,15.803
				S181.545,136.077,174.194,137.577z"/>
			<path fill="#090A0E" d="M80.645,75.655v7.41h-6.452v6.452h6.452v12.903h38.71V89.516h6.452v-6.452h-6.452v-7.41
				c6.171-5.516,9.677-13.31,9.677-21.623C129.032,38.026,116.006,25,100,25S70.968,38.026,70.968,54.032
				C70.968,62.345,74.474,70.139,80.645,75.655z M112.903,95.968H87.097v-6.452h25.806V95.968z M96.774,54.032
				c0-1.777,1.448-3.226,3.226-3.226s3.226,1.448,3.226,3.226c0,1.777-1.448,3.226-3.226,3.226S96.774,55.81,96.774,54.032z
				 M100,31.452c12.452,0,22.581,10.129,22.581,22.581c0,6.871-3.087,13.294-8.471,17.613l-1.206,0.968v10.452h-9.677V63.116
				c3.745-1.335,6.452-4.884,6.452-9.084c0-5.335-4.342-9.677-9.677-9.677s-9.677,4.342-9.677,9.677c0,4.2,2.706,7.748,6.452,9.084
				v19.948h-9.677V72.613l-1.206-0.968c-5.384-4.319-8.471-10.742-8.471-17.613C77.419,41.581,87.548,31.452,100,31.452z"/>
			<rect x="135.484" y="50.806" fill="#090A0E" width="19.355" height="6.452"/>
			
				<rect x="138.707" y="27.695" transform="matrix(-0.3164 -0.9486 0.9486 -0.3164 150.8923 184.5277)" fill="#090A0E" width="6.451" height="20.402"/>
			
				<rect x="131.733" y="66.931" transform="matrix(0.9487 0.3162 -0.3162 0.9487 29.4655 -41.2798)" fill="#090A0E" width="20.403" height="6.452"/>
			<rect x="45.161" y="50.806" fill="#090A0E" width="19.355" height="6.452"/>
			
				<rect x="47.862" y="34.677" transform="matrix(-0.9487 -0.3162 0.3162 -0.9487 101.1642 92.2211)" fill="#090A0E" width="20.403" height="6.452"/>
			
				<rect x="54.838" y="59.959" transform="matrix(0.3164 0.9486 -0.9486 0.3164 106.2479 -7.1196)" fill="#090A0E" width="6.451" height="20.402"/>
		</g>
	</g>
</g>
<path fill="#D6D9FF" d="M7.571,60.171c-0.278-1.536-1.452-2.676-2.863-3.246c-0.061-0.068-0.108-0.146-0.173-0.211
	C3.503,55.682,2.387,55.435,1,55.25c-2.412-0.322-5.333,0.855-6.878,2.738c-1.217,1.483-1.789,2.897-1.974,4.817
	c-0.176,1.833,0.848,3.467,1.923,4.817c0.898,1.128,2.74,2.014,4.113,2.275C0.202,70.281,2,70,3.821,69.069
	c1.269-0.649,2.491-1.969,3.084-3.257C7.773,63.929,7.941,62.216,7.571,60.171z"/>
<path fill="#D6D9FF" d="M245.743,90.671c-0.318-1.03-0.702-2.115-1.331-3.002c-0.356-0.501-0.733-1.069-1.211-1.484
	c-1.037-0.898-1.403-1.065-2.653-1.564c-1.063-0.424-2.521-0.339-3.603-0.05c-1.232,0.33-2.14,0.972-3.087,1.792
	c-1.184,1.026-2.088,2.694-2.501,4.187c-0.614,2.219-0.229,4.966,1.565,6.568c0.805,0.718,1.623,1.256,2.689,1.521
	c1.334,0.331,2.099,0.209,3.424,0.017c0.418-0.061,0.819-0.189,1.211-0.342c0.927-0.363,1.834-0.755,2.7-1.246
	c0.817-0.463,1.432-1.153,1.849-1.942C245.785,93.902,246.228,92.245,245.743,90.671z"/>
<path fill="#D6D9FF" d="M222.707,309.303c-1.801-1.923-4.061-3.351-6.749-3.462c-2.447-0.101-4.947,1.468-6.044,3.635
	c-0.686,1.354-0.832,2.2-1.023,3.675c-0.113,0.87,0.058,1.749,0.192,2.606c0.126,0.798,0.478,1.614,0.893,2.289
	c0.304,0.494,0.661,0.981,1.085,1.381c0.95,0.894,1.417,1.051,2.588,1.536c1.067,0.442,2.63,0.335,3.709,0.029
	c1.425-0.404,2.484-1.175,3.598-2.117c0.607-0.514,1.029-1.291,1.258-2.102c0.168-0.128,0.341-0.247,0.492-0.398
	C224.68,314.401,224.569,311.29,222.707,309.303z"/>
<path fill="#D6D9FF" d="M149,36.5c-6.449,0-6.449,10,0,10S155.449,36.5,149,36.5z"/>
<path fill="#D6D9FF" d="M173.75,36.5c-6.449,0-6.449,10,0,10S180.199,36.5,173.75,36.5z"/>
<path fill="#D6D9FF" d="M198.75,37.5c-6.449,0-6.449,10,0,10S205.199,37.5,198.75,37.5z"/>
<path fill="#D6D9FF" d="M270.366,181.847c-0.021-3.418-0.676-6.928-1.884-9.658c-4.095-9.249-15.101-15.902-25.231-14.689
	c-0.528,0.063-1.038,0.202-1.522,0.391c-0.58-0.142-1.177-0.255-1.804-0.306c-4.966-0.41-10.28,3.472-13.959,6.38
	c-5.722,4.523-11.246,10.108-12.342,17.636c-1.276,8.766,4.574,15.86,9.503,22.441c2.156,2.878,4.15,5.594,7.246,7.399
	c0.194,0.676,0.452,1.361,0.812,2.083c0.935,1.879,3.661,3.011,5.647,2.298c0.72-0.259,1.355-0.576,1.924-0.939
	c0.315,0.06,0.642,0.108,0.997,0.118c3.092,0.086,6.987,0.639,10.507,0.215c0.303,0.213,0.618,0.419,0.969,0.603
	c4.679,2.44,8.915-2.913,7.147-6.567c0.041-0.256,0.062-0.513,0.066-0.771c9.379-0.097,11.793-10.993,12.199-19.528
	C270.757,186.458,270.669,184.083,270.366,181.847z M241.933,176.524c1.035,1.659,2.707,2.443,4.46,3.122
	c2.439,0.944,2.544,4.515,2.206,6.896c-0.584,4.117-5.689,4.255-7.696,7.719c-0.223-0.323-0.462-0.646-0.721-0.971
	c-2.554-3.21-5.762-5.09-4.667-9.755c0.663-2.824,3.589-5.752,6.232-7.345C241.809,176.301,241.864,176.414,241.933,176.524z"/>
<path fill="#D6D9FF" d="M97.321,159.829c0.65-2.46-0.791-5.651-3.492-6.151c-1.905-0.353-3.745-0.423-5.573-0.343
	c-0.039-0.004-0.072-0.013-0.111-0.017c-0.781-0.068-1.65,0.069-2.513,0.226c-0.853,0.098-1.711,0.218-2.573,0.351
	c-2.175,0.118-4.382-0.083-6.545-0.247c-4.862-0.368-9.702-0.616-14.579-0.678c-9.18-0.116-18.338,0.474-27.514,0.064
	c-5.531-0.247-11.007-0.354-16.314,0.718c-7.233-0.748-14.516-1.21-21.645-1.329c-10.317-0.172-20.627,0.265-30.939-0.177
	c-6.689-0.286-14.179-0.895-20.66,1.147c-0.595,0.187-1.127,0.432-1.629,0.702c-0.223-0.146-0.459-0.285-0.71-0.414
	c-5.222-2.684-9.887,4.26-6.309,7.738c-0.23,1.076-0.451,2.128-0.593,3.229c-0.263,2.034,0.088,3.964,1.14,5.741
	c3.554,6.004,14.094,3.773,19.672,3.648c8.983-0.201,17.983,0.103,26.966,0.185c8.107,0.074,16.007-0.649,24-1.516
	C8,172.94,8.7,173.051,9.5,173c8.574-0.542,17.275,0.628,25.734,1.898c8.772,1.317,17.367-1.051,26.173-0.538
	c8.446,0.492,18.688,1.022,26.573-2.768c2.001,3.232,8.388,2.674,9.091-1.512c0.497-2.96,0.37-5.47-0.489-8.108
	C96.867,161.31,97.117,160.602,97.321,159.829z"/>
<path fill="#F5F4F7" d="M25.916,320.36c-1.047-3.193-2.026-5.989-2.171-9.404c-0.308-7.225,2.163-14.436,2.501-21.659
	c0.166-3.54,0.231-7.339-0.353-10.784c0.605-3.249,0.622-6.51-0.942-9.305c-2.426-4.333-8.106-3.693-12.149-2.891
	c-6.354,1.261-12.756,1.277-19.219,1.775c-0.899,0.069-1.797,0.151-2.694,0.238c-6.171,0.048-12.347-0.055-18.514-0.091
	c-13.163-0.076-26.578-1.438-39.724-0.075c-3.359-0.452-7.169-0.549-10.192,0.73c-0.149-0.066-0.305-0.121-0.436-0.211
	c-4.701-3.225-10.25,4.07-6.059,7.853c1.169,1.055,1.628,2.638,1.968,4.226c-0.375,0.492-0.646,1.051-0.754,1.659
	c-1.02,5.698,0.37,11.149,0.821,16.829c0.521,6.557,0.297,13.199-0.06,19.755c-0.241,4.419,0.447,9.122,4.536,11.563
	c4.465,2.665,11.251,0.405,16.013-0.029c7.523-0.685,15.356-0.145,22.916-0.281c8.629-0.155,17.258-0.346,25.888-0.449
	c7.475-0.089,14.951-0.059,22.426-0.059c4.871,0,12.945,1.504,15.968-3.657C26.718,324.332,26.526,322.217,25.916,320.36z
	 M-6.223,278.338c-0.37,0.239-0.733,0.496-1.09,0.764c-0.089-0.262-0.2-0.516-0.328-0.764
	C-7.169,278.338-6.696,278.34-6.223,278.338z"/>
<path fill="#2459FE" d="M101.885,31.008c-5.068-6.522-11.035-9.58-19.174-10.579c-15.593-1.914-32.346,4.275-35.033,21.491
	c-0.273,1.748,0.15,3.476,1.169,4.685c-0.159,0.428-0.305,0.863-0.419,1.315c-1.152,4.54,3.614,7.178,6.919,5.895
	c1.045,0.206,2.164,0.215,3.26,0.014c6.249-1.146,10.874-4.919,14.697-9.528c1.88,2.489,4.875,4.284,7.454,5.801
	c3.335,1.962,6.84,3.627,10.724,4.035c4.17,0.438,8.346-0.044,12.517,0.362c2.206,0.215,4.245-1.688,4.821-3.671
	C110.908,43.649,106.094,36.425,101.885,31.008z"/>
<path fill="#2459FE" d="M200.235,128.246c-0.173-8.348-3.32-15.172-8.834-21.452c-5.935-6.758-14.243-6.641-22.535-6.225
	c-15.879,0.797-25.612,11.719-28.937,26.601c-1.185,5.303,5.499,8.031,8.458,4.968c11.121,2.329,22.769,0.563,30.583-8.061
	c3.738,3.587,8.626,6.173,12.995,9.708c0.005-0.006,0.01-0.012,0.014-0.019c0.32,0.267,0.644,0.532,0.998,0.8
	C196.914,137.56,201.94,132.06,200.235,128.246z"/>
<path fill="#2459FE" d="M187.75,122.75c1.236,0.109,0.085-0.005-0.189-0.075c-0.021-0.005-0.034-0.008-0.053-0.013
	c-0.008-0.004-0.013-0.007-0.021-0.012c-0.043-0.023-0.095-0.056-0.149-0.094c-0.093-0.087-0.178-0.182-0.264-0.277
	c-0.098-0.126-0.221-0.287-0.282-0.383c-0.182-0.289-0.337-0.593-0.494-0.896c-0.091-0.176-0.169-0.359-0.252-0.54
	c-0.073-0.173-0.185-0.437-0.225-0.541c-0.987-2.538-3.319-4.271-6.151-3.492c-2.425,0.667-4.481,3.607-3.492,6.151
	c0.966,2.486,1.977,4.676,3.738,6.703c1.988,2.289,4.921,3.212,7.834,3.468c2.719,0.239,5-2.455,5-5
	C192.75,124.844,190.464,122.988,187.75,122.75z"/>
<path fill="#2459FE" d="M156.079,166.179c-1.406-0.252-2.727-0.248-4.025-0.141c0.08-3.337-0.506-7.003-2.237-9.812
	c-2.385-3.868-7.691-2.826-9.139,1.194c-1.699,4.721,0.218,9.523,0.071,14.329c-0.08,2.633,2.336,5.122,5,5
	c2.413-0.111,5.289-1.355,7.671-0.929c2.68,0.48,5.379-0.687,6.151-3.492C160.244,169.885,158.764,166.66,156.079,166.179z"/>
<path fill="#2459FE" d="M200.049,163.842c0.648-1.803,1.093-3.668,1.201-5.592c0.317-5.647-8.571-6.807-9.821-1.329
	c-0.318,1.395-0.72,2.878-1.091,4.396c-0.605,1.22-1.386,2.379-1.987,3.564c-0.093,0.183-0.198,0.36-0.298,0.54
	c-0.435,0.03-0.871,0.053-1.303,0.079c-6.407,0.383-6.444,10.386,0,10c1.572-0.094,3.086-0.238,4.479-0.621
	c0.292,0.397,0.612,0.785,0.985,1.156c2.504,2.494,7.629,1.579,8.357-2.206c0.46-2.39,0.472-4.661,0.429-7.079
	C200.978,165.561,200.619,164.593,200.049,163.842z"/>
<path fill="#2459FE" d="M128.361,307.56c-4.451-9.894-17.761-11.093-26.128-5.989c-10.954,6.683-9.615,22.964,1.076,29.246
	c1.789,1.051,3.519,0.87,4.864,0.037c0.26,0.142,0.521,0.28,0.786,0.402c6.369,2.944,14.628,1.329,18.747-4.523
	C131.721,321.03,131.1,313.648,128.361,307.56z M115.921,322.695c-3.119,0.184-4.968-2.031-6.46-4.458
	c-0.64-1.04-1.166-2.267-1.261-3.494c-0.057-0.729-0.096-0.45,1.296-0.754c3.11-0.681,4.03-3.375,3.411-5.764
	c1.609-0.018,3.255,0.474,4.75,1.673C121.585,313.046,122.321,322.317,115.921,322.695z"/>
<path fill="#F5F4F7" d="M211.964,20.997c-4.435-1.477-9.646-1.027-14.248-0.879c-9.166,0.293-18.109-0.922-27.241-1.308
	c-11.774-0.499-23.525,1.153-35.307,0.691c-5.529-0.217-6.297,7.094-2.358,9.348c-0.226,0.316-0.424,0.648-0.584,1.003
	c-2.333,5.18-0.978,12.381-0.405,17.894c0.294,2.834,0.733,6.349,1.882,9.436c-2.136,2.906-0.933,7.917,3.798,7.985
	c6.862,0.099,14.294,1.501,21.32,0.88c-0.144,0.523-0.248,1.053-0.283,1.577c-0.086,1.28,1.191,4.687,0.427,5.674
	c-2.621,3.387-0.386,10.5,4.865,8.357c3.369-1.375,5.375-3.306,7.373-6.331c0.203-0.307,0.409-0.586,0.617-0.852
	c0.179-0.095,0.358-0.2,0.538-0.322c2.252-1.523,4.307-2.974,6.814-3.754c0.529-0.132,1.079-0.265,1.658-0.409
	c1.701-0.424,2.742-1.388,3.244-2.549c2.817-0.407,5.527-1.111,8.206-1.986c5.064-0.056,10.209,0.36,15.172-0.188
	c5.24-0.579,7.776-3.824,7.824-8.924c0.042-4.477-0.356-8.538,0.157-13.041c0.441-3.872,0.647-8.18-0.918-11.808
	C217.643,28.023,217.275,22.766,211.964,20.997z M143.5,49.5c-0.634,0.023-1.221,0.17-1.759,0.401
	c-0.607-3.811-0.402-8.552-0.494-10.553c-0.001-0.027-0.003-0.054-0.004-0.081c0.641-0.183,1.291-0.433,1.979-0.771
	c1.948-0.956,2.806-3.125,4.469-4.346c0.111-0.082,0.23-0.152,0.348-0.225c0.091-0.012,0.183-0.022,0.275-0.034
	c3.008,0.584,6.254,2.347,7.437,3.568c2.045,2.11-0.029,6.809-1.126,8.843c-0.715,1.327-1.686,2.528-2.826,3.363
	C148.988,49.428,146.18,49.401,143.5,49.5z M177.608,47.268c-2.005,0.733-8.008,1.436-9.457-0.625
	c-0.621-0.883-1.396-1.492-2.226-1.874c0.543-2.208,0.739-4.474,0.475-6.648c4.998,0.239,9.914-1.172,14.852-2.258
	c-0.089,0.23-0.182,0.455-0.264,0.693c-0.726,1.253-1.318,2.607-1.746,4.078c-0.51,1.753-0.567,3.507-0.294,5.203
	C178.639,46.515,178.215,47.046,177.608,47.268z M183.794,55.292c0.12-0.075,0.219-0.171,0.334-0.251
	c0.209,0.196,0.422,0.387,0.638,0.573c-0.604,0.047-1.208,0.094-1.812,0.144C183.236,55.605,183.525,55.46,183.794,55.292z
	 M205.557,42.082c-0.145,1.712-0.363,3.391-0.505,5.072c-0.706,0.135-1.39,0.367-2.014,0.732c-0.943,0.552-1.799,1.481-2.397,2.382
	c-0.165,0.249-0.35,0.466-0.542,0.67c-2.523-0.097-5.135-0.961-7.357-2.017c-2.072-0.984-3.147-2.168-3.526-3.424
	c0.017-0.085,0.039-0.173,0.056-0.258c0.19-0.973,0.29-2.144,0.465-3.299c1.221-2.319,3.876-4.497,6.286-5.79
	c0.709-0.38,1.237-0.921,1.622-1.542c2.316,0.322,4.658,0.614,6.94,0.592C206.306,36.437,205.821,38.96,205.557,42.082z"/>
<path fill="#090A0E" d="M263.525,113.48l-5.837,5.837l-5.837-5.837l-3.6,3.6l5.837,5.837l-5.837,5.837l3.6,3.6l5.837-5.837
	l5.837,5.837l3.6-3.6l-5.837-5.837l5.837-5.837L263.525,113.48z"/>
<path fill="#090A0E" d="M172.749,308.051l5.837-5.837l5.837,5.837l3.6-3.6l-5.837-5.837l5.837-5.837l-3.6-3.6l-5.837,5.837
	l-5.837-5.837l-3.6,3.6l5.837,5.837l-5.837,5.837L172.749,308.051z"/>
<path fill="#090A0E" d="M-10.46,88.244l-5.837,5.837l-5.837-5.837l-3.6,3.6l5.837,5.837l-5.837,5.837l3.6,3.6l5.837-5.837
	l5.837,5.837l3.6-3.6l-5.837-5.837l5.837-5.837L-10.46,88.244z"/>
<path fill="#090A0E" d="M239.591,101.465c5.616,0,10.183-4.567,10.183-10.183s-4.567-10.183-10.183-10.183
	s-10.183,4.567-10.183,10.183S233.975,101.465,239.591,101.465z M239.591,86.191c2.808,0,5.091,2.283,5.091,5.091
	s-2.283,5.091-5.091,5.091c-2.808,0-5.091-2.283-5.091-5.091S236.783,86.191,239.591,86.191z"/>
<path fill="#090A0E" d="M0.118,51.428c-5.616,0-10.183,4.567-10.183,10.183s4.567,10.183,10.183,10.183s10.183-4.567,10.183-10.183
	S5.734,51.428,0.118,51.428z M0.118,66.702c-2.808,0-5.091-2.283-5.091-5.091s2.283-5.091,5.091-5.091s5.091,2.283,5.091,5.091
	S2.926,66.702,0.118,66.702z"/>
<g>
	<g>
		<g>
			<path fill="#090A0E" d="M124.385,110.918c-2.227-7.797-8.552-13.628-16.503-15.218L90.603,92.24v-0.81
				c5.699-3.309,9.944-8.829,11.571-15.384c5.684-1.094,9.993-6.087,9.993-12.085V48.558c0-18.684-15.203-33.886-33.886-33.886
				S44.395,29.874,44.395,48.558v15.403c0,5.998,4.31,10.991,9.993,12.088c1.627,6.555,5.872,12.076,11.571,15.384v0.81L48.683,95.7
				c-7.954,1.59-14.278,7.421-16.506,15.218l-4.19,14.654h100.583L124.385,110.918z M102.925,69.266V58.656
				c1.833,1.069,3.081,3.034,3.081,5.305C106.006,66.231,104.758,68.197,102.925,69.266z M53.636,69.266
				c-1.833-1.069-3.081-3.034-3.081-5.305c0-2.27,1.248-4.236,3.081-5.305V69.266z M50.556,53.351v-4.793
				c0-15.286,12.439-27.725,27.725-27.725s27.725,12.439,27.725,27.725v4.793c-1.821-1.06-3.906-1.713-6.161-1.713h-5.413
				c-7.606,0-14.756-2.96-20.135-8.339l-2.655-2.659l-3.121,4.679c-2.637,3.955-7.051,6.318-11.805,6.318
				C54.462,51.639,52.377,52.292,50.556,53.351z M59.798,70.122V57.538c5.058-0.773,9.654-3.395,12.858-7.436
				c6.146,4.987,13.752,7.698,21.776,7.698h2.332v12.322c0,10.194-8.29,18.483-18.483,18.483S59.798,80.316,59.798,70.122z
				 M84.442,93.956v0.81c0,3.398-2.763,6.161-6.161,6.161c-3.398,0-6.161-2.763-6.161-6.161v-0.81
				c1.975,0.511,4.029,0.81,6.161,0.81C80.413,94.766,82.467,94.468,84.442,93.956z M105.331,119.411l-2.498-9.99l-5.976,1.494
				l2.122,8.496H57.583l2.123-8.493l-5.976-1.494l-2.498,9.987H36.157l1.944-6.802c1.593-5.57,6.109-9.738,11.789-10.871
				l16.678-3.336c1.562,5.012,6.192,8.687,11.712,8.687s10.15-3.675,11.712-8.687l16.681,3.336
				c5.681,1.137,10.197,5.302,11.789,10.871l1.941,6.802H105.331z"/>
		</g>
	</g>
	<g>
		<g>
			<path fill="#090A0E" d="M216.801,191.012c-1.805-6.327-6.337-11.315-12.217-13.838v-48.522c0-18.684-15.203-33.886-33.886-33.886
				s-33.886,15.203-33.886,33.886v48.522c-5.884,2.523-10.412,7.51-12.217,13.838l-4.19,14.654h100.583L216.801,191.012z
				 M142.973,128.653c0-15.286,12.439-27.725,27.725-27.725s27.725,12.439,27.725,27.725v4.793c-1.821-1.06-3.906-1.713-6.161-1.713
				c-4.753,0-9.168-2.363-11.805-6.318l-3.121-4.679l-2.655,2.659c-5.379,5.379-12.529,8.339-20.135,8.339h-5.413
				c-2.255,0-4.34,0.653-6.161,1.713V128.653z M170.698,168.7c-10.194,0-18.483-8.29-18.483-18.483v-12.322h2.332
				c8.022,0,15.631-2.711,21.776-7.698c3.201,4.039,7.797,6.663,12.858,7.436v12.584C189.181,160.41,180.891,168.7,170.698,168.7z
				 M176.859,174.051v0.81c0,3.398-2.763,6.161-6.161,6.161s-6.161-2.763-6.161-6.161v-0.81c1.975,0.511,4.029,0.81,6.161,0.81
				C172.829,174.861,174.884,174.562,176.859,174.051z M183.02,171.528c5.699-3.309,9.944-8.829,11.571-15.384
				c1.38-0.265,2.655-0.792,3.832-1.479v20.754l-15.403-3.081V171.528z M195.342,149.36v-10.609
				c1.833,1.069,3.081,3.034,3.081,5.305S197.175,148.291,195.342,149.36z M146.053,138.751v10.609
				c-1.833-1.069-3.081-3.034-3.081-5.305S144.22,139.82,146.053,138.751z M142.973,154.665c1.177,0.687,2.452,1.214,3.832,1.479
				c1.627,6.555,5.872,12.076,11.571,15.384v0.81l-15.403,3.081V154.665z M197.748,199.505l-2.498-9.99l-5.976,1.494l2.122,8.496
				h-41.397l2.123-8.493l-5.976-1.494l-2.498,9.987h-15.073l1.944-6.802c1.593-5.57,6.109-9.738,11.789-10.871l16.678-3.336
				c1.562,5.012,6.192,8.687,11.712,8.687c5.52,0,10.15-3.675,11.712-8.687l16.681,3.336c5.681,1.137,10.197,5.302,11.789,10.871
				l1.941,6.802H197.748z"/>
		</g>
	</g>
	<g>
		<g>
			<path fill="#090A0E" d="M210.745,14.672h-73.933c-5.095,0-9.242,4.146-9.242,9.242V60.88c0,5.095,4.146,9.242,9.242,9.242h18.483
				v21.16l31.739-21.16h23.711c5.095,0,9.242-4.146,9.242-9.242V23.914C219.987,18.818,215.84,14.672,210.745,14.672z
				 M213.825,60.88c0,1.697-1.383,3.081-3.081,3.081h-25.578l-23.711,15.806V63.961h-24.644c-1.697,0-3.081-1.383-3.081-3.081
				V23.914c0-1.697,1.383-3.081,3.081-3.081h73.933c1.697,0,3.081,1.383,3.081,3.081V60.88z"/>
		</g>
	</g>
	<g>
		<g>
			<path fill="#090A0E" d="M149.134,33.155c-5.095,0-9.242,4.146-9.242,9.242s4.146,9.242,9.242,9.242
				c5.095,0,9.242-4.146,9.242-9.242S154.229,33.155,149.134,33.155z M149.134,45.477c-1.697,0-3.081-1.383-3.081-3.081
				c0-1.697,1.383-3.081,3.081-3.081c1.697,0,3.081,1.383,3.081,3.081C152.214,44.094,150.831,45.477,149.134,45.477z"/>
		</g>
	</g>
	<g>
		<g>
			<path fill="#090A0E" d="M173.778,33.155c-5.095,0-9.242,4.146-9.242,9.242s4.146,9.242,9.242,9.242
				c5.095,0,9.242-4.146,9.242-9.242S178.873,33.155,173.778,33.155z M173.778,45.477c-1.697,0-3.081-1.383-3.081-3.081
				c0-1.697,1.383-3.081,3.081-3.081c1.697,0,3.081,1.383,3.081,3.081C176.859,44.094,175.476,45.477,173.778,45.477z"/>
		</g>
	</g>
	<g>
		<g>
			<path fill="#090A0E" d="M198.423,33.155c-5.095,0-9.242,4.146-9.242,9.242s4.146,9.242,9.242,9.242s9.242-4.146,9.242-9.242
				S203.518,33.155,198.423,33.155z M198.423,45.477c-1.697,0-3.081-1.383-3.081-3.081c0-1.697,1.383-3.081,3.081-3.081
				s3.081,1.383,3.081,3.081C201.503,44.094,200.12,45.477,198.423,45.477z"/>
		</g>
	</g>
</g>
<g>
	<path fill="#090A0E" d="M101.532,148.065H-67.371v114.613h-18.097v72.387H29.145v-30.161h72.387V148.065z M95.5,154.097v18.097
		H-61.339v-18.097H95.5z M23.113,329.032H-79.436V268.71H23.113V329.032z M-61.339,262.677v-84.452h96.516v120.645h-6.032v-36.194
		H-61.339z M41.209,298.871V178.226H95.5v120.645H41.209z"/>
	<path fill="#090A0E" d="M-55.307,160.129h6.032v6.032h-6.032V160.129z"/>
	<path fill="#090A0E" d="M-43.242,160.129h6.032v6.032h-6.032V160.129z"/>
	<path fill="#090A0E" d="M-31.178,160.129h6.032v6.032h-6.032V160.129z"/>
	<path fill="#090A0E" d="M-10.792,321.944l19.78-23.073l-19.78-23.073l-4.577,3.92l16.413,19.153l-16.413,19.153L-10.792,321.944z"
		/>
	<path fill="#090A0E" d="M-40.954,318.024l-16.413-19.153l16.413-19.153l-4.577-3.92l-19.78,23.073l19.78,23.073L-40.954,318.024z"
		/>
	<path fill="#090A0E" d="M-37.114,322.27l12.053-48.26l5.85,1.461l-12.053,48.26L-37.114,322.27z"/>
	<path fill="#090A0E" d="M47.242,190.29h42.226v6.032H47.242V190.29z"/>
	<path fill="#090A0E" d="M47.242,208.387h42.226v6.032H47.242V208.387z"/>
	<path fill="#090A0E" d="M47.242,226.484h42.226v6.032H47.242V226.484z"/>
	<path fill="#090A0E" d="M47.242,244.581h42.226v6.032H47.242V244.581z"/>
	<path fill="#090A0E" d="M47.242,262.677h42.226v6.032H47.242V262.677z"/>
	<path fill="#090A0E" d="M47.242,280.774h42.226v6.032H47.242V280.774z"/>
	<path fill="#090A0E" d="M-55.307,184.258h84.452v6.032h-84.452V184.258z"/>
	<path fill="#090A0E" d="M-55.307,196.323h84.452v6.032h-84.452V196.323z"/>
	<path fill="#090A0E" d="M-55.307,208.387h39.21v6.032h-39.21V208.387z"/>
	<path fill="#090A0E" d="M-10.065,208.387h39.21v6.032h-39.21V208.387z"/>
	<path fill="#090A0E" d="M-55.307,220.452h84.452v6.032h-84.452V220.452z"/>
	<path fill="#090A0E" d="M-55.307,232.516h84.452v6.032h-84.452V232.516z"/>
	<path fill="#090A0E" d="M-55.307,244.581h84.452v6.032h-84.452V244.581z"/>
</g>
<g>
	<path fill="#090A0E" d="M104.094,315.85c0,4.911,3.998,8.909,8.909,8.909s8.909-3.998,8.909-8.909c0-4.911-3.998-8.909-8.909-8.909
		S104.094,310.939,104.094,315.85z M115.973,315.85c0,1.636-1.334,2.97-2.97,2.97s-2.97-1.334-2.97-2.97
		c0-1.636,1.334-2.97,2.97-2.97S115.973,314.215,115.973,315.85z"/>
	<path fill="#090A0E" d="M196.151,265.368h5.939v5.939h-5.939V265.368z"/>
	<path fill="#090A0E" d="M184.273,265.368h5.939v5.939h-5.939V265.368z"/>
	<path fill="#090A0E" d="M172.394,265.368h5.939v5.939h-5.939V265.368z"/>
	<path fill="#090A0E" d="M110.034,280.215v15.086c-10.059,1.449-17.817,10.099-17.817,20.549c0,11.462,9.325,20.787,20.787,20.787
		s20.787-9.325,20.787-20.787c0-10.45-7.759-19.101-17.817-20.549v-15.086c0-4.911,3.998-8.909,8.909-8.909h41.574v-5.939h-41.574
		C116.695,265.368,110.034,272.029,110.034,280.215z M127.851,315.85c0,8.187-6.661,14.848-14.848,14.848
		s-14.848-6.661-14.848-14.848c0-8.187,6.661-14.848,14.848-14.848S127.851,307.663,127.851,315.85z"/>
	<path fill="#090A0E" d="M261.481,244.581v-11.878h5.939v-5.939h-5.939v-5.939h5.939v-5.939h-5.939v-2.349
		c9.2-6.007,14.848-16.333,14.848-27.347c0-18.01-14.655-32.665-32.665-32.665c-18.01,0-32.665,14.655-32.665,32.665
		c0,11.017,5.648,21.342,14.848,27.347v2.349h-5.939v5.939h5.939v5.939h-5.939v5.939h5.939v11.878h14.848v11.878
		c0,4.911-3.998,8.909-8.909,8.909h-23.756v5.939h23.756c8.187,0,14.848-6.661,14.848-14.848v-11.878H261.481z M230.304,208.311
		c-8.243-4.775-13.366-13.637-13.366-23.121c0-14.735,11.991-26.726,26.726-26.726c14.735,0,26.726,11.991,26.726,26.726
		c0,9.484-5.123,18.347-13.366,23.121l-1.482,0.858v5.716h-8.909v-21.334c3.448-1.23,5.939-4.496,5.939-8.362
		c0-4.911-3.998-8.909-8.909-8.909c-4.911,0-8.909,3.998-8.909,8.909c0,3.866,2.491,7.132,5.939,8.362v21.334h-8.909v-5.716
		L230.304,208.311z M240.694,185.189c0-1.636,1.334-2.97,2.97-2.97c1.636,0,2.97,1.334,2.97,2.97c0,1.636-1.334,2.97-2.97,2.97
		C242.028,188.159,240.694,186.825,240.694,185.189z M231.786,220.824h23.756v5.939h-23.756V220.824z M231.786,232.702h23.756v5.939
		h-23.756V232.702z"/>
</g>
<path fill="#090A0E" d="M216.5,323.73c5.616,0,10.183-4.567,10.183-10.183c0-5.616-4.567-10.183-10.183-10.183
	s-10.183,4.567-10.183,10.183C206.317,319.164,210.884,323.73,216.5,323.73z M216.5,308.456c2.808,0,5.091,2.283,5.091,5.091
	s-2.283,5.091-5.091,5.091c-2.808,0-5.091-2.283-5.091-5.091S213.692,308.456,216.5,308.456z"/>
</svg>
