<?xml version="1.0" encoding="utf-8"?>
<!-- Generator: Adobe Illustrator 22.1.0, SVG Export Plug-In . SVG Version: 6.00 Build 0)  -->
<svg version="1.1" id="Layer_1" xmlns="http://www.w3.org/2000/svg" xmlns:xlink="http://www.w3.org/1999/xlink" x="0px" y="0px"
	 viewBox="0 0 250 200" style="enable-background:new 0 0 250 200;" xml:space="preserve">
<style type="text/css">
	.st0{fill:#ACB3B9;}
	.st1{fill:#CED5E0;}
	.st2{fill:#707E8B;}
	.st3{fill:#E6E8ED;}
	.st4{fill:#FFFFFF;}
	.st5{fill:#ED523B;}
	.st6{fill:#3FC3E6;}
	.st7{fill:#EF523B;}
	.st8{fill:#1467C5;}
	.st9{fill:#CCD3DC;}
</style>
<g id="Version_Control">
	<path class="st0" d="M43.2,152.2c0,4.5,3.7,8.2,8.2,8.2h129c4.5,0,8.2-3.7,8.2-8.2H43.2z"/>
	<path class="st1" d="M188.6,152.2H43.2l13.9-9.9c2-1.4,4.4-2.2,6.9-2.2h103.9c2.5,0,4.9,0.8,6.9,2.2L188.6,152.2z"/>
	<path class="st2" d="M107.8,154.9h16.1v2.3h-16.1V154.9z"/>
	<path class="st3" d="M170.5,140H61.3c-0.5,0-1-0.4-1-1V62.5c0-0.5,0.4-1,1-1h109.2c0.5,0,1,0.4,1,1v76.6
		C171.5,139.6,171,140,170.5,140z"/>
	<path class="st4" d="M66.4,69.3h99v63h-99C66.4,132.3,66.4,69.3,66.4,69.3z"/>
	<path class="st1" d="M157,77.1L145.1,89h3.1l10-10h6.9l0.1-1.9H157z"/>
	<path class="st1" d="M130.1,81.1l-17.8,18h3l15.9-16h21.6l1.4-1.9L130.1,81.1L130.1,81.1z"/>
	<path class="st1" d="M104.5,109.9l13.4-13.4l-2.1-1L103.2,108h-13l-1.8,1.9H104.5z"/>
	<path class="st1" d="M80.3,118.5L98.7,100h-2.8l-18.6,18.6L80.3,118.5z"/>
	<path class="st1" d="M129.4,96.6h8l-0.6,2.1H130l-7.3,7.1l-2.4-0.3L129.4,96.6z"/>
	<path class="st1" d="M108.3,87.6h16l-0.6,2.1h-14.8L98.6,100l-2.4-0.3L108.3,87.6z"/>
	<path class="st1" d="M118.5,126H99.6l0.6-2.1h17.7l5.3-5.3l2.4,0.3L118.5,126z"/>
	<path class="st5" d="M181.5,63.5l-13.2-13.2c-0.8-0.8-2-0.8-2.7,0l-2.7,2.7l3.5,3.5c0.8-0.3,1.7-0.1,2.4,0.6
		c0.6,0.6,0.8,1.6,0.5,2.4l3.3,3.3c0.8-0.3,1.7-0.1,2.4,0.5c0.9,0.9,0.9,2.4,0,3.3s-2.4,0.9-3.3,0c-0.7-0.7-0.8-1.7-0.5-2.5L168,61
		v8.2c0.2,0.1,0.4,0.3,0.6,0.4c0.9,0.9,0.9,2.4,0,3.3s-2.4,0.9-3.3,0c-0.9-0.9-0.9-2.4,0-3.3c0.2-0.2,0.5-0.4,0.8-0.5v-8.3
		c-0.3-0.1-0.5-0.3-0.8-0.5c-0.7-0.7-0.8-1.7-0.5-2.5l-3.4-3.4l-9,9c-0.8,0.8-0.8,2,0,2.7l13.2,13.2c0.8,0.8,2,0.8,2.7,0l13.1-13.1
		C182.2,65.5,182.2,64.3,181.5,63.5z"/>
	<path class="st6" d="M100.9,84.1H80.1c-1.1,0-2,0.9-2,2V101c0,1.1,0.9,2,2,2h20.8c1.1,0,2-0.9,2-2V86.1
		C102.9,85,102,84.1,100.9,84.1z M93.7,96.1c0,0.6-0.4,1-1,1h-4.8c-0.6,0-1-0.4-1-1v-0.2c0-0.6,0.4-1,1-1h4.8c0.6,0,1,0.4,1,1V96.1z
		 M98.1,92.3H82.7c-0.4,0-0.8-0.3-0.8-0.8c0-0.4,0.3-0.8,0.8-0.8H98c0.4,0,0.8,0.3,0.8,0.8C98.9,92,98.5,92.3,98.1,92.3z"/>
	<path class="st7" d="M105,116.9H75c-1.1,0-2,0.9-2,2v7.9c0,1.1,0.9,2,2,2h30c1.1,0,2-0.9,2-2v-7.9C107,117.8,106.1,116.9,105,116.9
		z M88.9,123.4c0,0.3-0.2,0.5-0.5,0.5h-1.8c-0.3,0-0.5-0.2-0.5-0.5v-0.1c0-0.3,0.2-0.5,0.5-0.5h1.8
		C88.7,122.9,88.9,123.1,88.9,123.4L88.9,123.4z M93.9,123.4c0,0.3-0.2,0.5-0.5,0.5h-1.8c-0.3,0-0.5-0.2-0.5-0.5v-0.1
		c0-0.3,0.2-0.5,0.5-0.5h1.8C93.6,122.9,93.9,123.1,93.9,123.4L93.9,123.4z M96.3,120.5c0,0.4-0.3,0.7-0.7,0.7H84.2
		c-0.4,0-0.7-0.3-0.7-0.7v-0.1c0-0.4,0.3-0.7,0.7-0.7h11.4C96,119.7,96.3,120,96.3,120.5C96.3,120.4,96.3,120.5,96.3,120.5z"/>
	<path class="st8" d="M152,87.2h-15.2c-1.1,0-2,0.9-2,2v9.7c0,1.1,0.9,2,2,2H152c1.1,0,2-0.9,2-2v-9.7C154,88.1,153.1,87.2,152,87.2
		z M137.8,90c0-0.6,0.4-1,1-1h6.8c0.6,0,1,0.4,1,1v0.2c0,0.6-0.4,1-1,1h-6.8c-0.6,0-1-0.4-1-1V90z M138.2,93.1h6.4
		c0.3,0,0.5,0.2,0.5,0.5s-0.2,0.5-0.5,0.5h-6.4c-0.3,0-0.5-0.2-0.5-0.5C137.7,93.3,138,93.1,138.2,93.1z M143.2,98h-4.9
		c-0.3,0-0.5-0.2-0.5-0.5s0.2-0.5,0.5-0.5h4.9c0.3,0,0.5,0.2,0.5,0.5S143.5,98,143.2,98z M148.1,96h-9.9c-0.2,0-0.4-0.2-0.4-0.4
		c0-0.2,0.2-0.4,0.4-0.4h9.9c0.2,0,0.4,0.2,0.4,0.4C148.6,95.8,148.3,96,148.1,96z"/>
	<path class="st9" d="M136,104h-20.1c-1.1,0-2,0.9-2,2v13.6c0,1.1,0.9,2,2,2H136c1.1,0,2-0.9,2-2V106C138,104.9,137.1,104,136,104z
		 M121.4,115.9L121.4,115.9c-0.4,0-0.6-0.2-0.6-0.5s0.2-0.5,0.5-0.5h0.1c0.3,0,0.5,0.2,0.5,0.5C121.9,115.7,121.7,115.9,121.4,115.9
		z M121.4,113.9L121.4,113.9c-0.4,0-0.6-0.2-0.6-0.5s0.2-0.5,0.5-0.5h0.1c0.3,0,0.5,0.2,0.5,0.5
		C121.9,113.7,121.7,113.9,121.4,113.9z M121.4,112L121.4,112c-0.4,0-0.6-0.2-0.6-0.5s0.2-0.5,0.5-0.5h0.1c0.3,0,0.5,0.2,0.5,0.5
		C121.9,111.7,121.7,112,121.4,112z M128,115.9h-4.7c-0.3,0-0.5-0.2-0.5-0.5s0.2-0.5,0.5-0.5h4.7c0.3,0,0.5,0.2,0.5,0.5
		C128.5,115.7,128.3,115.9,128,115.9z M130.2,113.9h-6.9c-0.2,0-0.4-0.2-0.4-0.4s0.2-0.4,0.4-0.4h6.9c0.2,0,0.4,0.2,0.4,0.4
		S130.4,113.9,130.2,113.9z M122.8,111.5c0-0.3,0.2-0.5,0.5-0.5h5.6c0.3,0,0.5,0.2,0.5,0.5s-0.2,0.5-0.5,0.5h-5.6
		C123,111.9,122.8,111.7,122.8,111.5z M133,108.5c0,0.3-0.2,0.5-0.5,0.5h-13.1c-0.3,0-0.5-0.2-0.5-0.5l0,0c0-0.3,0.2-0.5,0.5-0.5
		h13.1C132.8,107.9,133,108.2,133,108.5L133,108.5z"/>
</g>
</svg>
