<?xml version="1.0" encoding="utf-8"?>
<!-- Generator: Adobe Illustrator 19.2.0, SVG Export Plug-In . SVG Version: 6.00 Build 0)  -->
<svg version="1.1" id="Layer_1" xmlns="http://www.w3.org/2000/svg" xmlns:xlink="http://www.w3.org/1999/xlink" x="0px" y="0px"
	 viewBox="0 0 496 496" style="enable-background:new 0 0 496 496;" xml:space="preserve">
<style type="text/css">
	.st0{fill:#2459FE;}
	.st1{fill:#FFFFFF;}
</style>
<path d="M464,112V96h-92v16h76v304H256v-72h-16v72H48V112h76V96H32v16H0v352h208.8c3.7,18.2,19.9,32,39.2,32s35.5-13.8,39.2-32H496
	V112H464z M480,448H272v8c0,13.2-10.8,24-24,24s-24-10.8-24-24v-8H16V128h16v304h432V128h16V448z"/>
<path d="M432,240H310v16h106v96H288v-92.1h-16V368h160V240z"/>
<path d="M64,384h160v16H64V384z"/>
<path d="M64,352h160v16H64V352z"/>
<path d="M272,384h160v16H272V384z"/>
<path class="st0" d="M248,329.9l-30.7-61.4C156.1,254.4,112,199.3,112,136C112,61,173,0,248,0s136,61,136,136
	c0,63.3-44.1,118.4-105.3,132.5L248,329.9z"/>
<path class="st1" d="M248,80c-13.2,0-24-10.8-24-24s10.8-24,24-24s24,10.8,24,24S261.2,80,248,80z M248,48c-4.4,0-8,3.6-8,8
	s3.6,8,8,8s8-3.6,8-8S252.4,48,248,48z"/>
<path class="st1" d="M288,240h-80v-48h16v-48h-16V96h64v96h16V240z M224,224h48v-16h-16v-96h-32v16h16v80h-16V224z"/>
<path d="M64,320h160v16H64V320z"/>
<path d="M64,288h144v16H64V288z"/>
</svg>
