<?xml version="1.0" encoding="utf-8"?>
<!-- Generator: Adobe Illustrator 17.0.0, SVG Export Plug-In . SVG Version: 6.00 Build 0)  -->
<!DOCTYPE svg PUBLIC "-//W3C//DTD SVG 1.1//EN" "http://www.w3.org/Graphics/SVG/1.1/DTD/svg11.dtd">
<svg version="1.1" id="Capa_1" xmlns="http://www.w3.org/2000/svg" xmlns:xlink="http://www.w3.org/1999/xlink" x="0px" y="0px"
	 width="202.001px" height="205px" viewBox="4.6 98.8 202.001 205" enable-background="new 4.6 98.8 202.001 205"
	 xml:space="preserve">
<g>
	<g>
		<g>
			<path fill="#6782E5" d="M140.6,174.2L140.6,174.2C140.6,174.2,140.6,174.1,140.6,174.2L140.6,174.2z"/>
		</g>
	</g>
</g>
<path fill="#191919" stroke="#191919" stroke-width="2" stroke-miterlimit="10" d="M186.3,180.5v-19.6h-77.4v-16.1h-6.5v16.1H25
	v19.6c-10.9,1.6-19.4,11-19.4,22.3c0,12.4,10.1,22.6,22.6,22.6s22.6-10.1,22.6-22.6c0-11.4-8.4-20.7-19.4-22.3v-13.2h32.3v90.6
	c-10.9,1.6-19.4,11-19.4,22.3c0,12.4,10.1,22.6,22.6,22.6s22.6-10.1,22.6-22.6c0-11.4-8.4-20.7-19.4-22.3v-90.6h32.3v13.2
	c-10.9,1.6-19.4,11-19.4,22.3c0,11.4,8.4,20.7,19.4,22.3v19.6h38.7v13.2c-10.9,1.6-19.4,11-19.4,22.3c0,12.4,10.1,22.6,22.6,22.6
	c12.4,0,22.6-10.1,22.6-22.6c0-11.4-8.4-20.7-19.4-22.3v-19.6h-38.7v-13.2c10.9-1.6,19.4-11,19.4-22.3s-8.4-20.7-19.4-22.3v-13.2h71
	v13.2c-10.9,1.6-19.4,11-19.4,22.3c0,12.4,10.1,22.6,22.6,22.6s22.6-10.1,22.6-22.6C205.7,191.5,197.2,182.1,186.3,180.5z
	 M44.4,202.8c0,8.9-7.2,16.1-16.1,16.1s-16.1-7.2-16.1-16.1c0-8.9,7.2-16.1,16.1-16.1S44.4,193.9,44.4,202.8z M83.1,280.2
	c0,8.9-7.2,16.1-16.1,16.1c-8.9,0-16.1-7.2-16.1-16.1s7.2-16.1,16.1-16.1S83.1,271.3,83.1,280.2z M160.5,280.2
	c0,8.9-7.2,16.1-16.1,16.1c-8.9,0-16.1-7.2-16.1-16.1s7.2-16.1,16.1-16.1S160.5,271.3,160.5,280.2z M121.8,202.8
	c0,8.9-7.2,16.1-16.1,16.1c-8.9,0-16.1-7.2-16.1-16.1c0-8.9,7.2-16.1,16.1-16.1C114.6,186.7,121.8,193.9,121.8,202.8z M183.1,218.9
	c-8.9,0-16.1-7.2-16.1-16.1c0-8.9,7.2-16.1,16.1-16.1c8.9,0,16.1,7.2,16.1,16.1C199.2,211.7,192,218.9,183.1,218.9z"/>
<path fill="#D6D9FF" stroke="#191919" stroke-width="8" stroke-miterlimit="10" d="M105.7,148c-12.4,0-22.6-10.1-22.6-22.6
	s10.1-22.6,22.6-22.6s22.6,10.1,22.6,22.6S118.1,148,105.7,148z"/>
</svg>
