<?xml version="1.0" encoding="utf-8"?>
<!-- Generator: Adobe Illustrator 17.0.0, SVG Export Plug-In . SVG Version: 6.00 Build 0)  -->
<!DOCTYPE svg PUBLIC "-//W3C//DTD SVG 1.1//EN" "http://www.w3.org/Graphics/SVG/1.1/DTD/svg11.dtd">
<svg version="1.1" id="Capa_1" xmlns="http://www.w3.org/2000/svg" xmlns:xlink="http://www.w3.org/1999/xlink" x="0px" y="0px"
	 width="201px" height="201px" viewBox="2.9 109.6 201 201" enable-background="new 2.9 109.6 201 201" xml:space="preserve">
<g>
	<path fill="#D6D9FF" d="M171.6,171.2c-0.4-2.3-1-4.5-1.7-6.6c-0.9-3.5-2.7-6.5-5.1-9.1c-2.4-3-5.4-5.7-8.9-8
		c-4.2-2.8-9.2-4.6-14.1-5.7c-3.1-0.7-6.5-1.7-9.4-0.2c-3.3,0.9-4.8,5.1-3.1,7.7c0.4,1.7,1.2,3.4,1.7,4.9c2,5.5,3.9,11.1,4.9,16.9
		c0.6,3.6,3.4,6,7,6.5c1.5,0.2,2.9,0.2,4.3,0.2c0,0.4,0,0.8,0,1.2c-0.1,3.8,0.9,9.4,2.8,12.7c1.1,1.9,4.5,3.5,7.4,3.7
		c0.3,0.2,0.7,0.5,1,0.7c1.6,1.2,3.6,0.9,5-0.1c1.7-0.2,3.1-1.4,3.5-3.6c0.1-0.3,0.1-0.6,0.1-0.9c0.7-0.5,1.5-1,2.1-1.6
		c1.4-1.3,2.2-2.7,2.9-4.5C173.8,181.5,172.3,175.4,171.6,171.2z"/>
	<circle fill="#D6D9FF" cx="136.2" cy="243.8" r="30.6"/>
	<circle fill="#D6D9FF" cx="70.9" cy="178.5" r="49.1"/>
	<g>
		<g>
			<path fill="#6782E5" d="M140.6,174.2L140.6,174.2C140.6,174.2,140.6,174.1,140.6,174.2L140.6,174.2z"/>
		</g>
	</g>
</g>
<g>
	<g>
		<g>
			<path fill="#191919" stroke="#191919" stroke-miterlimit="10" d="M203.4,258.6v-32.3H188c-1-3.3-2.3-6.5-3.9-9.5l10.9-10.9
				l-18.5-18.5c0.5-2.1,0.8-4.2,0.9-6.3h6.7v-6.5h-6.6c-0.3-3.4-0.9-6.7-1.9-9.8l6.1-2.5l-2.5-6l-6.1,2.5c-1.5-3-3.4-5.8-5.5-8.3
				l4.7-4.7l-4.6-4.6l-4.7,4.7c-2.5-2.2-5.3-4-8.3-5.5l2.5-6.1l-6-2.5l-2.5,6.1c-3.1-1-6.4-1.7-9.8-1.9v-6.6h-6.5v6.6
				c-2.4,0.2-4.8,0.6-7.2,1.2c-12.4-16.4-32-27.1-54.1-27.1c-37.4,0-67.7,30.4-67.7,67.7c0,36.3,28.7,65.9,64.5,67.6v13.1h15.4
				c1,3.3,2.3,6.5,3.9,9.5l-10.9,10.9l22.8,22.8l10.9-10.9c3,1.6,6.2,2.9,9.5,3.9v15.4h32.3v-15.4c3.3-1,6.5-2.3,9.5-3.9l10.9,10.9
				l22.8-22.8L184.1,268c1.6-3,2.9-6.2,3.9-9.5h15.4V258.6z M135.7,142.4c19.6,0,35.5,15.9,35.5,35.5c0,2.4-0.3,4.7-0.8,7l-9.1,9.1
				c-3-1.6-6.2-2.9-9.5-3.9v-15.4h-13.1c-0.5-11.5-4-22.3-9.6-31.6C131.3,142.7,133.5,142.4,135.7,142.4z M9.9,177.9
				c0-33.8,27.5-61.3,61.3-61.3s61.3,27.5,61.3,61.3s-27.5,61.3-61.3,61.3S9.9,211.7,9.9,177.9z M128.1,214.5c2.5-0.7,5-1.1,7.6-1.1
				c16,0,29,13,29,29s-13,29-29,29s-29-13-29-29c0-2.6,0.4-5.1,1.1-7.6C115.9,229.6,122.8,222.6,128.1,214.5z M185.8,278.9
				l-13.7,13.7l-9.8-9.8l-2.2,1.3c-3.9,2.3-8.1,4-12.4,5.1l-2.4,0.6v13.9H126v-13.9l-2.4-0.6c-4.4-1.1-8.6-2.9-12.4-5.1l-2.2-1.3
				l-9.8,9.8l-13.7-13.7l9.8-9.8L94,267c-2.3-3.9-4-8.1-5.1-12.4l-0.6-2.4H74.4v-6.6c9.3-0.4,18.1-2.7,26-6.6
				c-0.1,1.2-0.2,2.3-0.2,3.5c0,19.6,15.9,35.5,35.5,35.5s35.5-15.9,35.5-35.5s-16-35.5-35.5-35.5c-1.2,0-2.3,0.1-3.5,0.2
				c3.8-7.9,6.1-16.7,6.6-26h6.6V195l2.4,0.6c4.4,1.1,8.6,2.9,12.4,5.1l2.2,1.3l9.8-9.8l13.7,13.7l-9.8,9.8l1.3,2.2
				c2.3,3.9,4,8.1,5.1,12.4l0.6,2.4H197v19.4h-13.9l-0.6,2.4c-1.1,4.4-2.9,8.6-5.1,12.4l-1.3,2.2L185.8,278.9z"/>
			<path fill="#191919" stroke="#191919" stroke-miterlimit="10" d="M71.1,123.1c-30.2,0-54.8,24.6-54.8,54.8
				c0,30.2,24.6,54.8,54.8,54.8s54.8-24.6,54.8-54.8C125.9,147.7,101.4,123.1,71.1,123.1z M111.3,151c1.2,1.8,2.2,3.7,3.2,5.6
				l-19.6,11.3c-0.8-2-2-3.9-3.3-5.6L111.3,151z M80.8,130.5c10.5,2.1,19.6,7.7,26.5,15.4L87,157.6c-1.9-1.5-3.9-2.7-6.2-3.6V130.5z
				 M90.5,177.9c0,10.7-8.7,19.4-19.4,19.4c-10.7,0-19.4-8.7-19.4-19.4c0-10.7,8.7-19.4,19.4-19.4S90.5,167.2,90.5,177.9z
				 M67.9,129.7c1.1-0.1,2.1-0.2,3.2-0.2c1.1,0,2.2,0.1,3.2,0.2v22.6c-1.1-0.1-2.1-0.2-3.2-0.2c-1.1,0-2.2,0.1-3.2,0.2V129.7z
				 M61.5,130.5V154c-2.2,0.9-4.3,2.1-6.2,3.6L35,145.9C41.8,138.2,51,132.6,61.5,130.5z M31,151l19.7,11.3
				c-1.3,1.7-2.4,3.6-3.3,5.6l-19.6-11.3C28.7,154.7,29.8,152.8,31,151z M22.8,177.9c0-5.4,0.9-10.5,2.5-15.3l20.3,11.7
				c-0.2,1.2-0.3,2.4-0.3,3.6s0.1,2.4,0.3,3.6l-20.3,11.7C23.7,188.4,22.8,183.3,22.8,177.9z M31,204.8c-1.2-1.8-2.2-3.7-3.2-5.6
				l19.6-11.3c0.8,2,2,3.9,3.3,5.6L31,204.8z M61.5,225.3C51,223.2,41.8,217.7,35,210l20.3-11.7c1.9,1.5,3.9,2.7,6.2,3.6V225.3z
				 M74.4,226.1c-1.1,0.1-2.1,0.2-3.2,0.2c-1.1,0-2.2-0.1-3.2-0.2v-22.6c1.1,0.1,2.1,0.2,3.2,0.2c1.1,0,2.2-0.1,3.2-0.2V226.1z
				 M80.8,225.3v-23.5c2.2-0.9,4.3-2.1,6.2-3.6l20.3,11.7C100.5,217.7,91.3,223.2,80.8,225.3z M111.3,204.8l-19.7-11.3
				c1.3-1.7,2.4-3.6,3.3-5.6l19.6,11.3C113.6,201.2,112.5,203.1,111.3,204.8z M96.7,181.5c0.2-1.2,0.3-2.4,0.3-3.6s-0.1-2.4-0.3-3.6
				l20.3-11.7c1.6,4.8,2.5,10,2.5,15.3c0,5.3-0.9,10.5-2.5,15.3L96.7,181.5z"/>
			<path fill="#191919" stroke="#191919" stroke-miterlimit="10" d="M71.1,165c-7.1,0-12.9,5.8-12.9,12.9c0,7.1,5.8,12.9,12.9,12.9
				c7.1,0,12.9-5.8,12.9-12.9C84.1,170.8,78.3,165,71.1,165z M71.1,184.4c-3.6,0-6.5-2.9-6.5-6.5s2.9-6.5,6.5-6.5
				c3.6,0,6.5,2.9,6.5,6.5S74.7,184.4,71.1,184.4z"/>
		</g>
	</g>
</g>
</svg>
