<?xml version="1.0" encoding="utf-8"?>
<!-- Generator: Adobe Illustrator 22.1.0, SVG Export Plug-In . SVG Version: 6.00 Build 0)  -->
<svg version="1.1" id="Layer_1" xmlns="http://www.w3.org/2000/svg" xmlns:xlink="http://www.w3.org/1999/xlink" x="0px" y="0px"
	 viewBox="0 0 36 36" style="enable-background:new 0 0 36 36;" xml:space="preserve">
<style type="text/css">
	.st0{fill:#295FFA;}
</style>
<path class="st0" d="M35.7,6.6c0.3-0.2,0.3-0.7,0.1-1c-0.8-1.2-5-3.2-6.3-3.2c-0.5,0-1.1,0.4-1.6,0.9C20.5,17.1,16.5,25,15.5,24.1
	C12.7,21,11.1,17.2,9,14c-0.8-1.1-1.4-1.2-2-1.2c-1,0.1-2.7,0.5-3.1,1.1c-0.8,1.2-0.5,1.8-0.2,2.3c0.1,0.5,4.8,9.2,9,15.9
	c0.5,0.7,0.6,0.9,2.6,1.1c1.1,0,1.4,0,2.3-0.1c0.6-0.1,1,0,3.8-4.6C23.4,25,33.6,9.6,35.7,6.6z"/>
</svg>
