<?xml version="1.0" encoding="utf-8"?>
<!-- Generator: Adobe Illustrator 17.0.0, SVG Export Plug-In . SVG Version: 6.00 Build 0)  -->
<!DOCTYPE svg PUBLIC "-//W3C//DTD SVG 1.1//EN" "http://www.w3.org/Graphics/SVG/1.1/DTD/svg11.dtd">
<svg version="1.1" id="Layer_1" xmlns="http://www.w3.org/2000/svg" xmlns:xlink="http://www.w3.org/1999/xlink" x="0px" y="0px"
	 width="1875.2px" height="1875.2px" viewBox="0 0 1875.2 1875.2" style="enable-background:new 0 0 1875.2 1875.2;"
	 xml:space="preserve">
<style type="text/css">
	.st0{fill:#221E1F;}
	.st1{fill:#C5C4C4;}
	.st2{fill:#646364;}
	.st3{fill:#757374;}
	.st4{fill:#B1AFB0;}
	.st5{fill:#FEFFFF;}
	.st6{fill:#FEFEFE;}
	.st7{fill:#868182;}
	.st8{fill:#231F20;}
	.st9{fill:#262223;}
	.st10{fill:#262122;}
	.st11{fill:#FCFDFD;}
</style>
<metadata><?xpacket begin="﻿" id="W5M0MpCehiHzreSzNTczkc9d"?>
<x:xmpmeta xmlns:x="adobe:ns:meta/" x:xmptk="Adobe XMP Core 5.5-c014 79.151739, 2013/04/03-12:12:15        ">
   <rdf:RDF xmlns:rdf="http://www.w3.org/1999/02/22-rdf-syntax-ns#">
      <rdf:Description rdf:about=""
            xmlns:xmpMM="http://ns.adobe.com/xap/1.0/mm/"
            xmlns:stEvt="http://ns.adobe.com/xap/1.0/sType/ResourceEvent#"
            xmlns:stRef="http://ns.adobe.com/xap/1.0/sType/ResourceRef#"
            xmlns:dc="http://purl.org/dc/elements/1.1/"
            xmlns:xmp="http://ns.adobe.com/xap/1.0/"
            xmlns:xmpGImg="http://ns.adobe.com/xap/1.0/g/img/"
            xmlns:xmpTPg="http://ns.adobe.com/xap/1.0/t/pg/"
            xmlns:stDim="http://ns.adobe.com/xap/1.0/sType/Dimensions#"
            xmlns:xmpG="http://ns.adobe.com/xap/1.0/g/">
         <xmpMM:DocumentID>xmp.did:7be522c7-e4f7-b147-abb4-ef0449de7859</xmpMM:DocumentID>
         <xmpMM:InstanceID>xmp.iid:7be522c7-e4f7-b147-abb4-ef0449de7859</xmpMM:InstanceID>
         <xmpMM:OriginalDocumentID>xmp.did:58b825b5-1808-644a-a354-3d953b2a68a5</xmpMM:OriginalDocumentID>
         <xmpMM:History>
            <rdf:Seq>
               <rdf:li rdf:parseType="Resource">
                  <stEvt:action>saved</stEvt:action>
                  <stEvt:instanceID>xmp.iid:58b825b5-1808-644a-a354-3d953b2a68a5</stEvt:instanceID>
                  <stEvt:when>2018-11-22T14:41:55Z</stEvt:when>
                  <stEvt:softwareAgent>Adobe Illustrator CC (Windows)</stEvt:softwareAgent>
                  <stEvt:changed>/</stEvt:changed>
               </rdf:li>
               <rdf:li rdf:parseType="Resource">
                  <stEvt:action>saved</stEvt:action>
                  <stEvt:instanceID>xmp.iid:7be522c7-e4f7-b147-abb4-ef0449de7859</stEvt:instanceID>
                  <stEvt:when>2018-11-22T20:44:30Z</stEvt:when>
                  <stEvt:softwareAgent>Adobe Illustrator CC (Windows)</stEvt:softwareAgent>
                  <stEvt:changed>/</stEvt:changed>
               </rdf:li>
            </rdf:Seq>
         </xmpMM:History>
         <xmpMM:DerivedFrom rdf:parseType="Resource">
            <stRef:instanceID>xmp.iid:58b825b5-1808-644a-a354-3d953b2a68a5</stRef:instanceID>
            <stRef:documentID>xmp.did:58b825b5-1808-644a-a354-3d953b2a68a5</stRef:documentID>
            <stRef:originalDocumentID>xmp.did:58b825b5-1808-644a-a354-3d953b2a68a5</stRef:originalDocumentID>
         </xmpMM:DerivedFrom>
         <dc:format>image/svg+xml</dc:format>
         <xmp:CreatorTool>Adobe Illustrator CC (Windows)</xmp:CreatorTool>
         <xmp:CreateDate>2018-11-22T20:44:30Z</xmp:CreateDate>
         <xmp:MetadataDate>2018-11-22T20:44:30Z</xmp:MetadataDate>
         <xmp:ModifyDate>2018-11-22T20:44:30Z</xmp:ModifyDate>
         <xmp:Thumbnails>
            <rdf:Alt>
               <rdf:li rdf:parseType="Resource">
                  <xmpGImg:width>256</xmpGImg:width>
                  <xmpGImg:height>256</xmpGImg:height>
                  <xmpGImg:format>JPEG</xmpGImg:format>
                  <xmpGImg:image>/9j/4AAQSkZJRgABAgEASABIAAD/7QAsUGhvdG9zaG9wIDMuMAA4QklNA+0AAAAAABAASAAAAAEA&#xA;AQBIAAAAAQAB/+4ADkFkb2JlAGTAAAAAAf/bAIQABgQEBAUEBgUFBgkGBQYJCwgGBggLDAoKCwoK&#xA;DBAMDAwMDAwQDA4PEA8ODBMTFBQTExwbGxscHx8fHx8fHx8fHwEHBwcNDA0YEBAYGhURFRofHx8f&#xA;Hx8fHx8fHx8fHx8fHx8fHx8fHx8fHx8fHx8fHx8fHx8fHx8fHx8fHx8fHx8f/8AAEQgBAAEAAwER&#xA;AAIRAQMRAf/EAaIAAAAHAQEBAQEAAAAAAAAAAAQFAwIGAQAHCAkKCwEAAgIDAQEBAQEAAAAAAAAA&#xA;AQACAwQFBgcICQoLEAACAQMDAgQCBgcDBAIGAnMBAgMRBAAFIRIxQVEGE2EicYEUMpGhBxWxQiPB&#xA;UtHhMxZi8CRygvElQzRTkqKyY3PCNUQnk6OzNhdUZHTD0uIIJoMJChgZhJRFRqS0VtNVKBry4/PE&#xA;1OT0ZXWFlaW1xdXl9WZ2hpamtsbW5vY3R1dnd4eXp7fH1+f3OEhYaHiImKi4yNjo+Ck5SVlpeYmZ&#xA;qbnJ2en5KjpKWmp6ipqqusra6voRAAICAQIDBQUEBQYECAMDbQEAAhEDBCESMUEFURNhIgZxgZEy&#xA;obHwFMHR4SNCFVJicvEzJDRDghaSUyWiY7LCB3PSNeJEgxdUkwgJChgZJjZFGidkdFU38qOzwygp&#xA;0+PzhJSktMTU5PRldYWVpbXF1eX1RlZmdoaWprbG1ub2R1dnd4eXp7fH1+f3OEhYaHiImKi4yNjo&#xA;+DlJWWl5iZmpucnZ6fkqOkpaanqKmqq6ytrq+v/aAAwDAQACEQMRAD8A9U4q7FXYq7FXYq7FXYq7&#xA;FXYq7FUp8webfLPly3+sa7qltp0ZFU+sSKjPT+RCeTn2UHFXkvmX/nLPyJp5ePRLK71qVa8ZKC1g&#xA;b/ZyBpf+SWKaeZ63/wA5afmFeFl0uzsdLiP2WCNcSj5tI3A/8i8VphGp/nZ+a+pEm48z3sZPX6q4&#xA;tP8AqHEWKaY1d+ZfMd4a3eq3lwag1luJX3AoPtMcVQDTzMoVpGKjopJIxVyzTKpVZGVSCCoJAIPU&#xA;YqjrXzJ5is25WmqXdu1a1inlQ1Ip+yw7YqyXTPzr/NfTSDb+Z76Qj/lqcXY616XAlxWmcaH/AM5Z&#xA;/mHZsq6paWOqQj7bGNreY/Jo24D/AJF4op6b5a/5yy8hagUj1u0u9Emb7UhH1qBf9nEBL/ySxWnr&#xA;Xl/zZ5a8x231nQtTttRhH2zbyK7JXs6D4kPswGKE1xV2KuxV2KuxV2KuxV2KuxV2KuxV2KuxV2Ku&#xA;xV2KuxV2KsN8+/m35I8kQt+mL4Pf8eUel21Jbp67j4KgID/M5UYq+cfPP/OUvnfWmktvL6LoGnts&#xA;HjpLdsOm8rDilf8AIUEfzYpp45e319f3L3V9cS3V1KayTzu0kjHxZmJJxSoYq7FXYq7FXYq7FXYq&#xA;7FXYq7FURY6hf6fdR3dhcy2l3EaxXEDtFIp8VdCGGKvY/I3/ADlN520Zo7bzCia/p4oGkekV2o9p&#xA;VHF/9mtT/MMUU+jvIn5teRvO0SjRb9RfceUmmXFIrpaCp/dknmB3KFh74oZjirsVdirsVdirsVdi&#xA;rsVdirsVdirsVdirsVQesazpWi6dNqWq3cdlYW45TXEzBUUdBuepJ2AG5xV8w/mh/wA5S6rqRm0v&#xA;ySr6dYbo+rSAC6lHSsSnaEHsft/6pxTTwO4uJ7ieSe4keaeVi8ssjFnZjuWZjUknFKnirsVdirsV&#xA;dirsVZn+Wf5VeZPzB1OS10vhBZ2vE32oTV9OINXiKDd3ahoo+kgYq9mk/wCcOLf6uRH5qc3PH4Wa&#xA;yHAt7gTVAPzxRbwbzz5H17yV5gl0TWo1W4RRJDNGS0U0TEhZI2IBKkgjcbEUxSx/FXYq7FXYq7FV&#xA;SCee3mSeCRoZomDRyxkqysNwVYbgjFXvX5Yf85S6vphi0zzqr6nYCipqkYH1qMdP3o2Ey++zf62K&#xA;KfT2i65pGuabDqekXcV9YTisVxCwZT4g+DDuDuO+KEdirsVdirsVdirsVdirsVdirsVdirEvzH/M&#xA;3y15C0f69q0vqXUoIsdOiI9adx/KD9lR+052HuaAqvjL8x/zR80efdUN1q03p2UTE2OmREiCBTts&#xA;P2nI+07bn2FAFkw/FXYq7FXYq7FXYq7FXYq+0/8AnGPTLaz/ACi025hWkmpT3VzcHxdZ2tx/wkC4&#xA;oL1bFD59/wCcwNEgk8t6FrlALi2vHsSQN2S4iaXc/wCSbfb5nFIfLGKXYq7FXYq7FXYq7FWW/l5+&#xA;Z3mnyJqgu9HuOVrIwN5p0pJt5wNviUHZgOjjcfLbFX2b+W35o+WvP2k/XNLk9K9hA+vabIR60DH7&#xA;uSE/ZcbH2O2LFmGKuxV2KuxV2KuxV2KuxV2KsC/Nv829G/L7RvVl43Wt3Sn9G6bXdj09SSm6xKep&#xA;79B7KvifzP5o1zzPrM+sa3dNd305+J22VVH2URRsqL2AxZJVirsVdirsVdirsVdirsVdir7e/wCc&#xA;b2U/kz5fAO6m8B+f12c/xxQU+/MH80fKPkSxW41u5JuZRW106AB7mXelVQlQFHdmIH07YofLv5u/&#xA;n1ffmBosOkDRY9O06O6FzHK0jTSs8SMgAbjGg+GU8tj8/FZU8lxV2KorTtL1PU7pbTTbSa9un+xb&#xA;20byyH5IgY4qy21/JP8ANe6iEsfli9VTtSVBC3Sv2ZCjfhitpXrX5cefdEjkl1Xy/f2sEW8lw1vI&#xA;YQPeVQY/xxVjmKuxV2Kpp5a8za35a1m31jRbprS/tmqki9GHdHXoyN3U9cVfa35Q/m9pH5h6Q7Kg&#xA;s9cswv6R07lWldhLETu0bH6VOx7ErF6BirsVdirsVdirsVdirEPzQ/MjSfIPlmXVbykt5LWPTbEG&#xA;jTz02Hsi9XbsPcgFV8M+Z/M2s+Ztcuta1ic3F9dvydt+Kj9lEG/FFGyjFklWKuxV2KuxV2KuxV2K&#xA;uxV2KuxV9hf84oao13+WUtmxFdO1CeFFrvwkRJgf+CkbFBeor5S8sjVZNXbTLeXVZTVr+aMSzjsF&#xA;WWTk6qOyqQB2GKHeafLeh+YtBu9H1qFZdOuIyJeVFKU3EiMfssh3B7Yq/PO/itYb+5itJfXtY5XW&#xA;3nI4l41YhHp25Lviye4/kz/zjdN5itYPMPm4yWmjy8ZLPTUqk9ynUPI3WOJu1PiYbjiKEqLfT+ge&#xA;W9A8vWC6folhDp9otP3UCBeRApyc/adv8piTihMsVdirzT8xvyD8j+cYJJordNH1o1ZNSs41Xk53&#xA;/fxDistT1Ozf5WKbfIXnjyJ5i8la5JpGuQenMKtBOh5QzxVIEkTbVU077juAcUsexV2Kpp5Z8y6z&#xA;5a1u11rR7hra/tG5RuOjD9pHH7SMNmHfFX3N+Vv5laT5+8tR6pZ0hvYaRanYk1aCalfpRuqN3HuC&#xA;MWLMMVdirsVdirsVQWt61puh6Rd6vqcwt7Cyjaa4lbsq+A7k9ABuTtir4P8AzP8AzE1Tz55pn1i7&#xA;5R2q1i02yrVYLcH4V8OTdXPc+1BiyYlirsVdirsVdirsVdirsVdirsVdir6F/wCcP9fWHXNe0Fyf&#xA;9Mt4ryEE7A2zmNwPdhOv/A4oL6kxQ8y/5yK82t5d/K/UBCxS71dl0y3I7CcMZj/yJRxXxIxSHgn/&#xA;ADjh+VsPm7zLJrOqwiTQtEZWeFwSlxctvHEexVKc3H+qCKNipfR35q/m1oP5e6SstyPrer3IP1DT&#xA;EYKz025ud+EYP7VN+gxQ+RPOX5vfmB5tuXk1PVZorVieGn2jNBbKp7emh+Oni5Y++LJJNI84+a9G&#xA;uVudL1e8s5lNeUU0ig07MteLD2IxV9B/lT/zlELmaHSPPfCKRyEh1yNQkZJ2H1lBRU/1128QOuKK&#xA;fRcciSIskbB43AZHU1BB3BBGKGF/m3+W2n+ffKc+nSIqapbhptIuzsY5wNlLdfTkpxcfT1AxV8I3&#xA;VrcWl1Na3MbQ3Nu7RTROKMjoSrKw8QRTFkpYq7FWW/ll+YeqeRPNMGsWZMls1ItRs6/DPbkgsv8A&#xA;rDqp7H2rir7v0LW9M13R7TV9MmFxYX0azW8q91bsR2ZTsw7HbFijsVdirsVdir5V/wCcpfzQbUtV&#xA;HknS5q2GnMJNWZDtJdDdYiR1WEHcfz9d1xSHz/il2KuxV2KuxV2KuxV2KuxV2KuxV2Ksr/KzzYPK&#xA;nn/RdbduNtBcCO8O9Pq8wMUxoOvFHLD3GKvv0EMAymoO4I6EYsXzL/zmJqpa88taSr0Ecdzdyx+J&#xA;dkjjJ+XB6YpD0z8uYtJ/Ln8jrLU7wcUisf0rfEAK8k9yokWM7fb+JIV+QxV8febvNWreavMN5ruq&#xA;yc7u8csVFeMaDZI0B6Ki7DFKT4q7FXYq9u/Ij8+p/LE0PlzzLM03lyQhLW6YlnsmOw8SYfFf2eo7&#xA;jFBD64ililiSWJ1kikUNHIpDKysKggjYgjFD4s/5yW8uQ6L+at7JAoSHV4YtRCL2aTlHKfm0sLMf&#xA;niyDyvFXYq7FXv3/ADi1+Z50zWG8lanL/uP1Ny+lOx2iu6fFEPaYDb/KH+VigvqzFDsVdirD/wA2&#xA;PPkPkjyRfa0eJvafV9Nib9u6lBEe3cJQuw8FOKvgm4uJ7m4lubiRpbiZ2kmlclmd3NWZiepJNTiy&#xA;U8VdirsVdirsVdirsVdirsVdirsVdirsVfcX/OP3mDWta/LLTX1e2mhuLMG0huJlKi5t4gPRmSv2&#xA;hwIQt3Kk4oLxj/nL+KQectElKkRvpxVW7FlncsPo5DFQzv8A5yU1MxfktpS2bUtdRurKJqGtYfq8&#xA;k6io6/FEpxUPkrFLsVdir6N/Lf8A5xZ07VvLVtq3mu/u7a5v41nt7GyMcZijccl9VpUlqzKQeIA4&#xA;9MUW8o/Nj8sdS/L/AMx/o6dzc6dcqZdNvuPH1YwaMrAVAdCaMPke+KQ98/5xT89XOreWr3yzfSGS&#xA;fQyjWTsak2s1aJ/zydTT2YDtigsE/wCcviv+OdHAI5DTASO9DcS0/jioeD4pdirsVVIJ5reeOeB2&#xA;imhYSRSKaMrKaqwI6EHFX3r+UvnuLzt5GsNaLL9eC/V9TjWg43UQAk2HQPUOB4MMWLMcVdir5F/5&#xA;yq88HV/OUPlu2krY6Cn78Do13MAz/PgnFfY8sUh4fil2KuxV2KuxV2KuxV2KuxV2KuxV2KuxV9G/&#xA;kL/zj5FeQ2/mzzjbB7Zwsul6RKNpFO6zXCnqh6qh69W22Kgl9NgAAACgGwAxQ+f/APnL7y9Nc+XN&#xA;E16IFl024ltrgAVol2qsrsewVoOPzbFISnWpz55/5xYsriD95feV2hW5iTcj6iDbkn/o1mEpxV83&#xA;YpdirsVfcPkf88fy817y/a3VzrNnpN8saLeWN9PHbtHKBRghlKCRa/ZZe3Wh2xY08Y/5ye/Mnyl5&#xA;lOk6NoNxHqMmnSSzXN/D8US+ooURRydHrTkxXbpv1opCM/5w+0y5bXPMOqUItobWK1J7GSWQuPnx&#xA;EX44qWD/APOSHmWLXPzV1FYXElvpMcemxuvjDVpR/sZpHX6MUh5hirsVdirsVe1/84s+eTovnWTy&#xA;9cyEWGvpwiBPwrdxAtGf9mvJPc8cUF9f4oS3zLrlroHl/Udaut4NOtpbl1rQt6algo92IoMVfnjq&#xA;mpXmqand6lev6l5ezSXFxIf2pJWLsfvOLJC4q7FXYq7FXYq7FXYq7FXYq7FXYq7FXuX/ADjn+TA8&#xA;yXyea9ft+Xl+yk/0G2kHw3dwh6kH7UUTDfszfDuAwxQS+t8UOxVKvNXlvTfM3l2/0HUlLWeoRGKQ&#xA;inJT1SRa1HJHAZfcYq+X/wAvNT1D8ovP+oeS/OkYHlvWx6E8zj/R2VqpFdqTt6TqSknh+1ulMUsG&#xA;/N38s73yJ5nktlDS6HeEzaPe9VeE78Cw25x1o3js3Q4pYLirsVdiqL0rStR1bUrfTdNt3ur67cRW&#xA;8EYqzMf86k9sVfVl7faZ+RH5RRadHJHN5q1EO0QWh9S9kUB5qEbxW44jpvQDYtih8lTTSzzPNM7S&#xA;TSsXkkYkszMakknqScUrMVdirsVdiqI0+/utPv7a/tHMd1ZypPbyDqskTB0b6GGKv0N8qeYLXzF5&#xA;a0zXLWno6jbxzhRvxZ1+JPmjVU/LFi8p/wCcrvMx038vYNHjak+t3So61pWC2pK//JT0x9OKQ+QM&#xA;UuxV2KuxV2KuxV2KuxV2KuxV2KuxVnP5Qflne+fvNUengPFpNrxm1a8Uf3cNdkUnb1JCOK/SaUU4&#xA;q+59N06x0zT7fT7CFbeytI1ht4EFFREFFA+jFiicVfHn/ORWpedovzUuUlnvILRPRGhLE0iJwMaE&#xA;mHgd2MteRG9foxZB9R/l/Jr8nkjRH8wBxrLWcRvRIKSc+PWQdnIpy98WKp5v8k+WfN+lnTdfsUvL&#xA;cVaJzVZYnP7cUi0ZD8uveoxVhMP5Q3sWiyeUdUu18zeSn/3jiviYtS0/iKR/V7hVZJePQBhHxG32&#xA;fhKl4h54/wCcXvPWjXEk3l9V17TKkx+mVjulXweJiAx/1Ca+AxW2AN+V35lCT0z5U1flWlRY3BX/&#xA;AIIJx/HFLLvK3/ONX5na3KjXlmmiWZI5T3zgPTvxhTlJX/WCj3xW3rWp6P5R/wCcfvKKaxY6e+ue&#xA;Y79/qcepXHFAJGQuRtX0oqITwWrN0LdwofM/m3zdr/mzWptY1y6a5vJdlHRI4wSVjiXoqLXYfT1x&#xA;Sk2KuxV2KuxV2KuxV9ef84m+ZW1DyDd6LK3KXRLphGvhBdVlT/kqJcUF5r/zlvrhu/Pmn6SjVi0u&#xA;xVmXwmuXLN/yTSPFQ8NxS7FXYq7FXYq7FXYq7FXYq7FXYqi9J0rUNX1O10vToGub68kWG2gXqzua&#xA;AVOw9ydhir7v/K38u9P8h+U7fR7fjJevSbU7sdZrhh8RFd+C/ZQeHvXFiy/FXxx+enmz8wLb81tQ&#xA;he/vbFbSVBo8NvLJGgh4qY5IgpUFnO7H+bbtiyD6f03zM2kfl5p+v+cplsLiKwgm1V5BwKzNGvJe&#xA;A35s5pwA+1sMWL5m84/85RfmDqGszSeW7hdG0hCVtoPQgmldB0eZpklHI+CUA6b9Spp6x+R/5/Q+&#xA;byug+Y2itfMg/wB5plHCK7Ub/COiyjuvQ9R4BUh7Tih2KuxV2KvC/wDnLyeJfy+0q3J/eyatHIi+&#xA;KpbThj9BdcUh8lYpdirsVdirsVdirsVe3f8AOJetmz/MK80tmpFqli4VfGW3ZZFP0J6mKCwz889U&#xA;Opfmz5luOXIR3f1UdNvqqLb02/4x4pDBMVdirsVdirsVdirsVdirsVdir0zyJ/zj3+Yfmv07hrT9&#xA;D6W9D9dvw0ZZTTeKGnqPsag0Cn+bFbfRn5b/AJE+V/y+kOsRSS6trccbBryZB8CFTzFtCleDMNqk&#xA;s3YEVOKLem29xBcwR3FvIs0EyLJDKhDK6MKqysNiCDUHFCpiqnJbW8skckkSPJEaxOyglT0qpPTF&#xA;Xy7/AM5favq58yaLo5d10hLP62iCoR7l5ZI3J7MURFp4cj44pD59xSvhmmgmSaF2imiYPHIhKsrK&#xA;ahlI3BB6HFX33+Veu6lr35eaDq2p1N/dWqm4c7F2UlPUNP8AfgXl9OLFlWKuxV2KsA/Oz8uE89eS&#xA;p7OAU1exrdaU/jKqmsR9pV+H2ND2xUPhYggkEUI2IOLJrFXYq7FXYq7FXYqzb8k9TOnfmv5YuAac&#xA;71Lav/MUDb0+n1cVLH/N14b3zXrV6W5G5v7mYtUmvqTM1an54qlOKuxV2KuxV2KuxV2KuxVlHkH8&#xA;tvNfnnUzZaHa8o46G7vpapbwKehkeh3PZVBY9hscVfWX5bf84/8AkryasV3PENZ1xaMdQukBWNhv&#xA;+4hPJY6U2Y1b37Yot6fih2KvMfy88zDTfzB80/lzdSbWMx1LQidv9EvAs8luvtA83we1R0XFL07F&#xA;DsVYd+Z/5ZaJ5/0A6df/ALm9g5PpuoKKvBKR4bckag5r39iAQq+JPOHk3X/KOtzaPrdsYLmIn05B&#xA;UxTJ2kieg5If7DQ7Ysme/kn+R2o+dr2PVdWR7TytA1Xl+y90yneKH/J/nft0G/RUl9lWlpbWdrDa&#xA;WsSwW1uixQQxgKiIg4qqgdAAMWKrirsVWySJGjSSMERAWd2NAANySTirAdX/AD8/KTSrlra48wwy&#xA;zLs31WOa6T/kZAkkf/DYrT4u843mnXvm7XLzTDy0251C6msm4lKwSTM0Z4kAr8BGxGLJJ8VdirsV&#xA;dirsVdiqZ+WLs2XmTSbwbG2vLeYEb/3cqt/DFUDdTCe6mmA4iV2fj1pyJNMVUsVdirsVdirsVdir&#xA;sVeifk7+T+q/mFq5LFrTy9ZuP0jfgbk9fRhrsZGHfoo3PYMq+0/L3lzRPLmkw6TotpHZWEA+CGMd&#xA;SerMxqzMe7ManFimWKuxV2Kvmb87fMA8pf8AOQ/lnX0b0447O1kvT4wPPPBN/wAka4pD6ZxQ7FXY&#xA;qh7zT7C9RUvbaK5RDyVZkWQA9KgMDiquiIiKiKFRQFVVFAANgABireKsV/Mzz7p/kfyjd65dUedR&#xA;6Wn2xP8AfXLg+mny25N4KDirx/8A5xl/Nu61O+v/ACr5guzNf3k02oaZPIRV3lYy3MIpQD4iZVAH&#xA;8/tikvoiSKOROEiB0qDxYAioNRsfAjFCm9lZuhR4I2RhRlKKQR7gjFXnXnz/AJx//L3zTZyehYRa&#xA;LqvE+hf2CLEA+5HqwrxjkBPWo5eDDFNvjrzf5S1vylr91oesw+leWx2ZamORD9iWNiByRh0P0Ghq&#xA;MUpNirsVdirsVdiqtZhjdwBWKMZFAcdQeQ3GKr9Ss5LLUbqykp6lrNJC9NxyjYqafdiqGxV2KuxV&#xA;2KuxV2Kpz5O8ral5q8zaf5f04f6VfyhA5+zGgBaSRvZEBY/LFX3x5R8qaR5U8vWehaTH6dpZoF5G&#xA;nORzu8shFKu7bn+mLFOMVdirsVdir5E/5y5dW/MrTwDUpo8Ab2P1m5P6jikPqPybqD6l5Q0PUXPJ&#xA;73T7W4ZtxUywq5O+/fFCcYq7FXYq7FUHrGsaZo2l3OqapcJaafZoZbi4kNFVR8tySdgBuTsN8VfD&#xA;35w/mnffmD5lN3RoNGs+UWlWbHdUJ+KR6bepJQFqdBQb0qVkwvTtQvdOv7fULGZre8tJFmt502ZJ&#xA;EPJWHyIxV9x/k9+aun/mB5cW4+CDXLMLHqtkp+y/QSxg7+nJSo8Ps70qViz7FXYq8y/Pb8qYPPXl&#xA;h5rKIf4k0xWk02QUBlXq9sxPUP8As16NTcAtVSHxIysjFHBVlNGU7EEdQRilrFXYq7FXYqq2jMt1&#xA;CyqXYOpVB1JBGw+eKpj5usvqHmvWrHjw+q39zBxApT05mWlPoxVKcVdirsVdirsVdir6U/5xA8rw&#xA;sNc80SoGlQpp1m3ddhNPt71iofnigvpXFDsVdirsVdir4T/OTzF/jD809VudN5XULzpY6csfx+os&#xA;IEK+nTqJHBZafzYsn215Z0n9DeW9K0jly/Rtnb2nLx9CJY6/8LixTLFXYq7FUDret6Toel3Gq6td&#xA;JZ6farznuJTRVFaAeJJOwA3J2GKvjT86Pzs1Lz9ffUrISWXlm2ettZsaPM46TT0JFf5V6L898WQD&#xA;y/FXYqnHlPzZrnlTXLfWtFuDb3tufmkiH7Uci/tI3cfxocVfaH5T/nL5d/MCw4RkWWvQKDeaW7Dl&#xA;7yQk/wB5H+K9+xKxeg4q7FXin5s/842aT5rvbjXPL1wmla5cEvcQSA/VLiQ9XbiC0bt+0ygg9eNS&#xA;Tim3y95v8keaPKGp/o7zBYvZzmphc0aKVR+1FItVcb70O3ehxSkWKuxV2Kpn5Ysze+ZdJs1BJub2&#xA;3hAHWskqr/HFWU/nrpZ0382vMsHHiJbr60PA/Wo1nr98mKhgeKuxV2KuxV2KuxV9Rf8AOH2vWr6L&#xA;r2gEhbuG5S/UE7vHNGsTUH+Q0Qr/AKwxQX0PihbLJ6cbPxZuIrxUVY+wGKvGvP8A/wA5JW3lO6Nl&#xA;/hTVDdVIjbUFFjDIo2LxPSdpF/2IxTTyLXP+cq/zNviy6eLLSI6n0zBD60gHYM1wZUJ+SDFaYtqn&#xA;55/mzq9lNp955hna3ugUlSGKCBmVuqhoY43APQgH2xTT2z8j/wDnHWbQr6081ebCjajEFm0/SlHI&#xA;QSEVWSdjsZUrsq7Kd6k9FBL6BxQ7FXYqwv8AMb82vKHkOz56rcetqMi8rXSoCGuJK7AkdET/ACm+&#xA;ip2xV8e/mV+a3mjz9qXr6nL6GnQsTZaVET6EI6An+eSh3dvooNsWTDMVdirsVdiqvYX97p95De2M&#xA;8lreW7CSC4hYpIjDoVZaEHFX0x+Vf/OUtrciHSfPdLe42SLW4lpE/YfWI1HwGv7ajj4hRviin0La&#xA;XdreW0V1aTJcW0yh4Z4mDo6ncMrKSCD7YoVcVeU/85Oadp1z+Umo3VzGrXNjNay2Eh2ZZHuEifj8&#xA;4pHqP6YpD4sxS7FXYqzn8kNLOp/mx5ZtwK+neLdH/o0Vrj/mVipZ5/zlxoRtPPOm6uq0i1OxCMfG&#xA;W2cq3/JOSPFAeFYpdirsVdirsVR+gaJqGu61ZaNpyepe38yQQKdhyc0qx7KOpPYYq+8Py4/LrQvI&#xA;nl6LStNQPOwDX9+ygS3EvdmI/ZFSEX9ke9SViyrFVk00UMTzTOscMal5JHIVVVRUsxOwAGKvjX/n&#xA;IX827bzvrcOmaRxbQdIZ/QuqfFcTOAHlFRVUFKIO/U9QAsg8jxV7L/zjP+W3+JPNv6fv4uWjaCyy&#xA;KGHwy3nWJPf0/wC8b/Yg7NigvsTFDsVdiqU+bfMdn5a8talr14R6GnW7zlSQvNgPgjBPeR6KPc4q&#xA;/PbVNTvtU1G51G/ma4vbuRpbiZzVmdjUk1xZIXFXYq7FXYq7FXYq7FWVeS/zP87+TJa6DqckFszc&#xA;pbGSkts+4rWJ6qCaU5LRvfFXsWl/85i6jHbKuqeWYbi5APKa1umgQmm1I3jnI3/yziinnv5tfnlr&#xA;v5hx29k9oml6PbP6yWUchlZ5aFQ8shCcuIJ4gIOp64pp5rirsVdir3D/AJxK0M3nn++1VlrFpdiw&#xA;VqdJbhwi/fGJMUF6j/zlb5a/SX5dRavGtZ9EuklZu4guP3Mg/wCDMZ+jFQ+PsUuxV2KuxV2KvR/+&#xA;ceLywtPzf0CS9dY0dp4YXc0Ammt5I4xv3ZmCj3IxUvuLFiknmvzp5Y8p6cdQ1/UIrGDf01c1kkI/&#xA;ZijWruf9UfPFXyX+cH5/635356TpavpflkMawV/f3ND8JuGU0C9/TU0r1LbUWVPJcVVrKzur68gs&#xA;rSJpru6kSG3hTdnkkYKij3LGmKvv38t/JNn5L8nafoNvxaWBOd7Ov+7bmTeWTxpy2WvRQB2xYsmx&#xA;V2KuxV83f85Z+f0WCy8kWMtZHK3urhT0Uf7zwtT+Y/vCD4Ie+KQ+Z8UuxV2KuxV2KuxV2KuxV2Ku&#xA;xV2KuxV2KuxV9e/84neWjp3kC51mVOM2t3TNG1NzBbViT/kp6mKC9c8yaHaa9oGo6Ld/7z6jbyW0&#xA;h7qJFK8h7qTUYofnjq2mXmlapd6Zep6d5YzSW9wnhJExRh94xZITFXYq7FXYq2rMrBlJDA1BGxBG&#xA;KvQLb8/vzft7FbKPzJMYUXgGkit5Zae80kbSk+5auK0wrVdY1bV7177Vb2e/vHAD3FzI0shA6Dk5&#xA;JoOwxVB4q7FXtP8Azix5KTWvPEuu3UYez8vxiWMNQg3c1Vh2P8iq7+zBcUF9gYodirsVSXzn5r03&#xA;yn5Zv9f1Fv8AR7GIuIwaNJIdo4l/ynchR9/TFXwF5j8wal5h12+1vU5PUvr+VppjvQcuiLUmiotF&#xA;UdgMWSW4q7FXYq7FXYq7FXYq7FXYq7FXYq7FXYqidM0671LUbXTrNDLd3s0dvbxjq0krBEH0k4q/&#xA;Q3yvoNr5e8uabodrvBp1tHbq1KciigM592arHFimmKvkf/nKzyOdJ84W/ma2SllrqcbggbLdwKFa&#xA;vYepHxI8SGxSHhuKXYq7FXYq7FXYq7FXYq7FX2t/zjX5ZGiflZY3DoUutZkk1CavXi59OHfwMUas&#xA;PnigvU8UOxV2KvkD/nJj80R5k8xDyzpkvLRdEkImdT8M96AVdvdYgSi+/I9CMUh4ril2KuxV2Kux&#xA;V2KuxV2KuxV2KuxV2KuxV2Kvb/8AnFbyM2sec5fMlzHWw0FKwk9Gu5gVQb9eCcm9jxxQX13ih2Ks&#xA;T/NLyLb+dvJV/oT8VunUTafM3+67mKpjb2Dbo3+STir4Hu7S5s7uazuo2huraRoZ4XFGSRCVZWHi&#xA;CKYslHFXYq7FXYq7FXYq7FXYq/Rjy5pUekeXtM0qKvp6faQWqV60hjVBX/gcWKY4q7FXkP8AzkP+&#xA;bA8n+Xf0Npc3HzHq8bLEyNRra3PwvPtuGbdY/ep/ZpikPjTFLsVdirsVdirsVdirsVdirsVdirsV&#xA;dirsVVbW2uLq5itbaNpbid1ihiUVZnc8VUDxJOKvvb8qPIcHkjyTYaKoBvOP1jUpRQ87qUAybjqF&#xA;oEX/ACQMWLL8VdirsVfLn/OVH5YGzv1886ZF/ot4yw6yijZJ/sxzewkFFb/Kp3bFIfPGKXYq7FXY&#xA;q7FXYqjNG0fU9Z1S10rTLdrq/vJBFbwJ1Zm9zsAOpJ2A3O2KvoXz9/zjxZ+X/wAmvWsVW78yaXIN&#xA;Q1W8UbyRcOM8UdQD6cQ+MV/lJ6mmKLfSyOrorqaqwDKfY74oXYqxn8xPP2j+R/LNxrepHmy/u7O0&#xA;Bo887A8I1+6rHsKnFXwj5o8y6t5m1681zVpfWvr1+ch6Ko6KiDsqKAqjwxZJVirsVdirsVdirsVd&#xA;irsVdirsVdirsVdirsVfQX/OLP5Xtf6mfPGqRf6FYM0ekIw2kuejzb9ViGw/yv8AVxQX1Rih2Kux&#xA;V2KoXVtK0/VtMutM1GFbixvI2huIW6MjihH9D2xV8J/mv+WupeQfNMumT8pdOmrLpV6RtNBXoSNu&#xA;aV4uPp6EYsmF4q7FXYq7FXYq+vP+ccPyhXy1o6eadZgpr+px1topB8VrauKgUPSSUbt3Aou3xYoL&#xA;2uSOOWNo5FDxuCrowBVlIoQQeoOKFKxtVtLOG1Q1jgQRx1qTwQUUEsWJIUCpJ3xVCeYvMOj+XdGu&#xA;tZ1i4W10+zTnNK2/eiqoG7MxNFA6nFXw3+an5m6v5/8AMbajdcoNPgrHpmn1qsMR6k0pV3pV2+jo&#xA;BiyYZirsVdirsVdirsVdirsVdirsVdirsVdirsVZh+Vn5can5980w6TbcorGOkup3oFRDADv125t&#xA;0QePsDir7u0bSNO0bSrXStNhW3sbKNYbeFeiqop9J7k9zixRmKuxV2KuxV2KsV/Mn8vNH89+WZtG&#xA;1AenMP3lheKAXgnAorjxU9GXuPehxV8L+bfKeteVNeutE1mEw3ls1KivCRD9mSNiByRux/jiySfF&#xA;XYq7FXqv/OOv5dxeb/PAub+MSaPoYS7u42FVklJIt4W9mZSx7EKR3xUvtTFi7FUDrmuaToWlXGra&#xA;vdJZ6farznuJDsB0AAFSSTsFG5OwxV8VfnL+cOqfmBrJjiL23luzc/o6wOxY9PXmAJBkYdOyjYdy&#xA;VkHnOKuxV2KuxV2KuxV2KuxV2KuxV2KuxV2KuxVNvKvlXW/NOuW2i6Lbm4vrk0A6Iij7Ukjfsoo6&#xA;n+OKvuf8s/y50byF5bj0mwAluXpJqN8RR55qULHc0UdFWuw9ySViy3FXYq7FXYq7FXYq7FWEfmr+&#xA;VWh/mDoZtboC31W3BbTdSUVeJz+y380bftL9I3xV8SebPKWveVNam0bW7Vra8hNRXdJEqQskbftI&#xA;1Nj/ABxZJPirsVfVn/OIEumnyhrkSMv6SGoBrhf2vQMKCEn25iWmKC99xQxrzz+YflXyTpZv9dux&#xA;EWB+rWaUa4nYfsxR1BPuTRR3IxV8cfmp+cHmP8wdQBuv9D0a3YtZaVGxKKdx6kjbepJQ05UoOwFT&#xA;VZMCxV2KuxV2KuxV2KuxV2KuxV2KuxV2KuxV2Kpv5V8q675p1u30bRbZrm9uDsBsiKPtSSN0VF7k&#xA;/rxV9rflJ+Umjfl9o3pRcbrW7pR+ktSpux6+nHXdYlPQd+p9liz3FXYq7FXYq7FXYq7FXYq7FWK/&#xA;mH+W3lrz3o50/WIaTR1NlfxgCeByOqN3U/tKdj86HFXxl+ZP5UeavIOo+jqkPrafKxFlqkIJglHU&#xA;A/yPTqjb+FRviyYZiqceVfN3mLypqyatoN69leoCjMtGV0PVJEYFXU+BHXfqMVelal/zlV+ad5ZG&#xA;2h/R9hKRT63bW7GX/ktJNHv/AKmKKeU6vrOq6zfy6jqt3LfX0xrLcTuZHNNgKtXYDYDtilB4q7FX&#xA;Yq7FXYq7FXYq7FXYq7FXYq7FXYq7FWZflx+Vfmnz7qX1fSofSsImAvNUlBEEI8K/tvTog3+Q3xV9&#xA;mfl1+WflryHo/wBQ0iLncShTfahIB607juxHRRU8VGw+dSViyzFXYq7FXYq7FXYq7FXYq7FXYq7F&#xA;UJquk6Zq+nzadqdrHeWNwvCa3mUOjD5HuOx7Yq+ZvzQ/5xYv7My6n5FZry0qWfRpmHrxj/imRiBI&#xA;B/K3xe7HFNvn+7tLuzuZLW8hktrqFik0EylJEYdVZWAIPzxSo4q7FXYq7FXYq7FXYq7FXYq7FXYq&#xA;7FXYq7FVW1tbq7uI7a1he4uZmCRQRKXd2PRVVQST8sVfQH5X/wDOLGoXrQ6p55ZrOz2ZNGib/SJB&#xA;1HrSLtGp/lX4vdTii301pOj6Xo+nw6dpdrFZWNuvGG3hUIij5Due56nFCLxV2KuxV2KuxV2KuxV2&#xA;KuxV2KuxV2KuxV2KsT88/lb5K87W/p67YK9yopDqEP7q6j/1ZANx/kuCvtir5088f84peb9KMlz5&#xA;YuE1yyG4tmpBdqOv2WPpyU9mBP8ALim3i+qaRquk3bWeqWc9jdp9u3uY2ikH+xcA4pQmKuxV2Kux&#xA;V2KuxV2KuxV2KuxVF6ZpOqareJZaZaTX15J9i3t42lkPyVATir2fyP8A84p+cNVMdz5mnTQrI0Jt&#xA;xxnu2H+qp9NK/wCUxI/lxRb6M8jflZ5J8kwcdCsFW6ZeM2oTfvbqQd6yEfCD/KgC+2KGWYq7FXYq&#xA;7FXYq7FXYq7FXYq7FXYq7FXYq7FXYq7FXYq7FUv1vy9oOu2n1TWdPt9Rtt6RXMSSgE915A8T7jFX&#xA;lHmX/nFT8udTLy6VJdaJO1Sqwv68AJ8Y5uT/AEBxim3mWu/84i+d7VmbR9UsdThHQS+payn/AGBE&#xA;qf8AJTFbYNqn5Efm3ppPr+W7mYCtGtTHdVA70gaQ/eMU2xq88m+b7GovdD1C1pUn1rWaOnHc/aUd&#xA;MVS42F+DQ20oPWhRq0+7FWxp9+xoLaUnrQI39MVTG08mecLxuNnoWoXLGlBDazud+n2UPXFWR6X+&#xA;RX5takV9Dy1dRBu916drQe/rtGcVtnOhf84j+ebsq2r6lY6ZEeqoXuZR/sVEcf8AyUxRb0zy1/zi&#xA;l+XemlZNXmutcmHVJH+rwfQkNH++Q4rb1jQ/LegaDafVNF0630637x20axhj4txALH3OKExxV2Ku&#xA;xV2KuxV2KuxV2KuxV2Kv/9k=</xmpGImg:image>
               </rdf:li>
            </rdf:Alt>
         </xmp:Thumbnails>
         <xmpTPg:MaxPageSize rdf:parseType="Resource">
            <stDim:w>1875.178925</stDim:w>
            <stDim:h>1875.178955</stDim:h>
            <stDim:unit>Pixels</stDim:unit>
         </xmpTPg:MaxPageSize>
         <xmpTPg:NPages>1</xmpTPg:NPages>
         <xmpTPg:HasVisibleTransparency>False</xmpTPg:HasVisibleTransparency>
         <xmpTPg:HasVisibleOverprint>False</xmpTPg:HasVisibleOverprint>
         <xmpTPg:PlateNames>
            <rdf:Seq>
               <rdf:li>Cyan</rdf:li>
               <rdf:li>Magenta</rdf:li>
               <rdf:li>Yellow</rdf:li>
               <rdf:li>Black</rdf:li>
            </rdf:Seq>
         </xmpTPg:PlateNames>
         <xmpTPg:SwatchGroups>
            <rdf:Seq>
               <rdf:li rdf:parseType="Resource">
                  <xmpG:groupName>Default Swatch Group</xmpG:groupName>
                  <xmpG:groupType>0</xmpG:groupType>
               </rdf:li>
            </rdf:Seq>
         </xmpTPg:SwatchGroups>
      </rdf:Description>
   </rdf:RDF>
</x:xmpmeta>
                                                                                                    
                                                                                                    
                                                                                                    
                                                                                                    
                                                                                                    
                                                                                                    
                                                                                                    
                                                                                                    
                                                                                                    
                                                                                                    
                                                                                                    
                                                                                                    
                                                                                                    
                                                                                                    
                                                                                                    
                                                                                                    
                                                                                                    
                                                                                                    
                                                                                                    
                                                                                                    
                           
<?xpacket end="w"?>
	</metadata>
<g>
	<g>
		<path class="st0" d="M928.2,1.6c8.9,0,17.7,0,26.6,0c7.2,2,14.6,1.7,22,1.4c4.7,0,9.3,0,14,0c17.9,1.2,35.8,2.6,53.7,4.5
			c49.7,5.4,98.7,14.8,146.9,28.2c282.8,78.6,513.5,286.1,621.2,559c39.7,100.6,61.7,204.9,64.5,313.1c0,20.9,0,41.8,0,62.7
			c-0.6,39.4-4.7,78.4-10.9,117.3c-11.1,70.7-30.3,139.2-57.3,205.4c-109.4,267.6-335.5,469.8-613.8,548.7
			c-53.4,15.1-107.8,25.2-163.1,30.6c-20,1.9-40,2.6-60,4.3c-8,0-15.9,0.1-23.9,0.1c-12.9,0-25.7,0-38.6,0c-1.6-0.1-3.1-0.3-4.7-0.4
			c-43.5-1.9-86.7-6.2-129.5-13.9c-67-12-131.9-31.1-194.9-57.2c-258.2-106.9-457.9-328-538.2-596c-20-66.8-32.3-135-37.3-204.5
			c-0.1-1.8,0.1-3.8-0.7-5.4c-0.8-1.6-2-0.5-2.6,0.7c0-1,0-2.1,0-3.1c0.9,1.8,2.2,2.5,2.7,0c0.5-2.7,0.3-5.6-0.5-8.4
			c1.3-5.1-0.9-10-0.6-15c2.8-7-0.2-13.6-1.6-20.3c0-9.9,0-19.8,0-29.7c2.3-11,3.6-22,2.6-33.3c0.8-20,2.7-40,4.9-59.9
			c6.1-53.9,16.8-106.9,32.5-158.8c59.9-197.1,171.9-358.3,336.2-482.2C529.4,75.1,701,13.8,890.6,3c6.2,0.8,12.4,0,18.6-0.2
			C915.6,3.1,922,3.8,928.2,1.6z M750,795.4c0.5-0.5,1-1,1.4-1.5c2.6,2.9,5.2,5.8,7.7,8.8c47.5,57.6,71.1,123.9,71.6,198.4
			c0.1,21.2-4.8,41.2-14.9,59.9c-8.9,16.3-21.5,28.6-39,35.4c-2.9,1.1-4.7,2.8-6.2,5.4c-18,32-37.1,63.3-54.1,95.8
			c-23.1,44.4-43.3,89.9-56.2,138.4c-13.4,50.5-18.3,101.3-5,152.7c-0.7,0.6-1.4,1.2-2,1.9c-14.4-23.2-27.5-47.1-35.2-74.3
			c-1.3,0.8-1.7,2-2.6,3c-14.6,16.6-28.8,33.6-42.5,51c-22.2,28.3-43.7,57-61.1,88.6c-8.3,15.2-14.3,31.1-17.1,48.3
			c-2.2,13.8,1.2,25.9,10.5,36.1c16.5,18.1,36.4,25.1,60.6,18.4c19.3-5.3,36.7-14.5,53.3-25.4c35.3-23.1,66.4-51.2,95.7-81.2
			c86.7-88.7,160.2-187.5,222.6-294.6c25.3-43.4,48-88.2,64-136c1.1-3.3,3.4-5,6.1-6.6c13.4-8.1,26.4-16.6,39.2-25.6
			c63.2-44.3,118.6-96.6,163.5-159.6c12.7-17.8,24-36.4,34-55.9c2.7,1.7,3.2,4.4,4.4,6.6c27.7,54.4,63.4,102.6,109.7,142.8
			c37.2,32.4,77.4,60.7,120,85.6c17.1,10,34.9,18.5,53.7,24.9c14.9,5,30,8.9,45.8,8.3c18.2-0.7,34-6.6,42.8-23.8
			c13.5-26.4,10.9-52.4-15.7-70.7c-5.4-3.7-10.9-7.1-16.7-10c-7.2-3.7-14.4-7.2-21.6-10.8c-7-3.5-13.9-7.1-20.4-11.5
			c-6.3-4.4-11.6-9.6-15.4-16.3c-17-30-38.1-57.1-60.9-82.9c-9.4-10.6-20.5-18.3-33.4-23.8c-25-10.7-51.2-13.3-78-11.6
			c-9.8,0.6-19.5,1.9-29.8,3.4c0.8-1,1.1-1.6,1.5-1.8c24-14,49.5-23,77.8-21c6.2,0.4,7.2,2.1,7.2-6.9c0.1-14.5-2.6-28.5-8.3-41.8
			c-6.1-14.2-14.3-27.2-23.8-39.3c-2.9-3.7-4.1-7-2.7-12c3.2-11.3,4.8-22.9,5.3-34.6c0.5-13.3-0.3-26.6-4.6-39.3
			c-1.1-3.4-0.5-5.5,2.8-6.8c1-0.4,1.8-1.1,2.7-1.6c76.7-46.1,116.3-132.9,100.9-221c-17-97.3-99.9-171-198.5-176.2
			c-48.1-2.5-92.2,9.8-132.2,36.7c-34.4,23.2-58.6,54.7-76.5,91.8c-18.6,38.7-24.9,79-15.9,120.8c14.1,65.5,49,116.9,107.8,150.9
			c1.8,1,4.1,1.5,5.3,4.3c-18.6-3-36-8.3-52.5-15.9c-45.3-20.9-77.1-54-92.1-102.2c-15.5-49.7-16.3-99.8-4.3-150.3
			c7.1-30,17.7-58.8,31.9-86.1c2.4-4.6,2.2-7.7-1.2-11.7c-7.2-8.3-14.3-16.6-21.9-24.4c-3.2-3.2-6.4-4.5-11-4.2
			c-26.7,1.4-52.6,6.6-77.6,16.1c-1.9,0.7-3.8,2.8-6.7,1.2c11.1-12.8,23.4-24,37.2-33.4c15.8-10.7,32.7-18.2,52.1-18.7
			c3.1-0.1,4.1-1.4,3.9-4.3c-0.5-8.8-0.5-17.7-1.4-26.5c-1.6-17.2-5-34-12.5-49.7c-7.9-16.5-20.8-27-38.8-31
			c-13.3-3-26.4-2.3-39.3,1.7c-23.7,7.4-38.1,23.5-43.6,47.5c-4.1,17.9-4.1,36.2-3.8,54.4c0.6,30.5,4.3,60.7,9.9,90.7
			c9.5,50.6,24,99.5,46.4,146c4.5,9.3,9.4,18.5,14.2,28c-8.5,5.3-16.7,10.9-24.5,17c-29,22.5-53.5,49.4-76.7,77.6
			C822.5,664,783,719.6,744.5,775.9c-2.9,4.3-6.3,7-11.2,8.9c-49.3,19.2-96.9,41.7-141.5,70.5c-36.1,23.3-69.5,49.7-96.8,83.1
			c-20.4,24.8-38.3,51.3-50,81.5c-12.1,31.3-13.1,62.2,4.7,92.3c-1.7,1.5-3.6,3.3-5.5,5c-10.2,9.3-19.9,19.1-28.4,30.1
			c-12.1,15.7-19.1,33.4-18.7,53.5c0.5,21.8,12.3,38.5,31,44c8.1,2.4,16.4,2.7,24.7,1.5c12.2-1.7,23.7-5.7,34.8-11
			c34.1-16.2,64.8-37.6,92.3-63.3c15.1-14.1,28.9-29.3,40.4-46.5c3.8-5.6,3.7-5.7-2.1-9.4c-7.8-4.9-16.4-7.8-25.3-9.9
			c-8.3-1.9-16.8-2.4-25.2-3.8c2.5-1,5-1.7,7.5-2.3c26.2-6.5,52.6-12.3,78.7-19.5c26.4-7.3,53.4-11.7,80.9-11.3
			c11.9,0.2,20.5-4.5,27.1-13.9c5.2-7.6,8.9-15.9,11.7-24.5c8.1-24.4,11.6-49.6,12.1-75.2c0.5-26.1-1.6-52-6.1-77.7
			C774.5,848.7,765.9,820.8,750,795.4z"/>
		<path class="st1" d="M1877,907.8c0.5-0.1,0.9-0.1,1.3,0.1c0,20.8,0,41.7,0,62.5l-0.7,0.1l-0.7,0C1877,949.6,1877,928.7,1877,907.8
			z"/>
		<path class="st1" d="M971.9,1876.7c0,0.5,0,1.1,0,1.6c-20.8,0-41.7,0-62.5,0c0-0.5,0-1,0-1.6c12.9,0,25.7,0,38.6,0
			C956,1876.8,964,1876.7,971.9,1876.7z"/>
		<path class="st2" d="M1.6,953.2c1.4,6.7,4.5,13.3,1.6,20.3c-0.5,0-1.1,0-1.6,0C1.6,966.8,1.6,960,1.6,953.2z"/>
		<path class="st3" d="M976.8,2.9c-7.4,0.3-14.8,0.6-22-1.4c7.3,0,14.6,0,21.9,0C976.6,2,976.6,2.5,976.8,2.9z"/>
		<path class="st1" d="M1.6,973.5c0.5,0,1.1,0,1.6,0c-0.3,5,1.9,10,0.6,15c-0.7,0.2-1.5,0.4-2.2,0.6C1.6,983.9,1.6,978.7,1.6,973.5z
			"/>
		<path class="st4" d="M890.6,3c0.2-0.5,0.2-0.9,0.1-1.4c6.3,0,12.5,0,18.8,0c-0.2,0.4-0.2,0.8-0.3,1.2C903,3,896.8,3.8,890.6,3z"/>
		<path class="st2" d="M909.2,2.8c0-0.4,0.1-0.8,0.3-1.2c6.3,0,12.5,0,18.8,0C922,3.8,915.6,3.1,909.2,2.8z"/>
		<path class="st1" d="M976.8,2.9c-0.2-0.4-0.2-0.9-0.1-1.4c4.7,0,9.4,0,14.1,0c-0.1,0.5,0,0.9,0.1,1.4
			C986.1,2.9,981.5,2.9,976.8,2.9z"/>
		<path class="st5" d="M1.6,989.2c0.7-0.2,1.5-0.4,2.2-0.6c0.8,2.8,1,5.7,0.5,8.4c-0.5,2.5-1.8,1.7-2.7,0
			C1.6,994.4,1.6,991.8,1.6,989.2z"/>
		<path class="st6" d="M655.3,1488.9c-13.2-51.4-8.4-102.2,5-152.7c12.9-48.5,33.1-94.1,56.2-138.4c16.9-32.5,36.1-63.8,54.1-95.8
			c1.5-2.6,3.2-4.3,6.2-5.4c17.5-6.8,30.2-19.1,39-35.4c10.1-18.7,15-38.7,14.9-59.9c-0.5-74.6-24.1-140.8-71.6-198.4
			c-2.5-3-5.1-5.9-7.7-8.8c-1.4-3.1-3.9-5-6.8-6.6c1.7,2.8,2.5,6.2,5.4,8.1c15.9,25.3,24.5,53.3,29.6,82.4
			c4.5,25.7,6.6,51.7,6.1,77.7c-0.5,25.6-4,50.8-12.1,75.2c-2.9,8.7-6.5,17-11.7,24.5c-6.5,9.4-15.1,14.1-27.1,13.9
			c-27.5-0.4-54.5,4-80.9,11.3c-26.1,7.2-52.5,13-78.7,19.5c-2.5,0.6-5,1.3-7.5,2.3c8.4,1.4,16.9,1.9,25.2,3.8
			c8.9,2,17.5,4.9,25.3,9.9c5.8,3.7,5.8,3.8,2.1,9.4c-11.5,17.2-25.3,32.4-40.4,46.5c-27.6,25.8-58.2,47.1-92.3,63.3
			c-11.1,5.3-22.6,9.3-34.8,11c-8.4,1.2-16.6,0.9-24.7-1.5c-18.7-5.6-30.5-22.2-31-44c-0.4-20.1,6.5-37.7,18.7-53.5
			c8.5-10.9,18.2-20.7,28.4-30.1c1.9-1.8,3.8-3.5,5.5-5c-17.8-30.2-16.8-61.1-4.7-92.3c11.6-30.2,29.6-56.7,50-81.5
			c27.4-33.3,60.8-59.8,96.8-83.1c44.5-28.7,92.2-51.2,141.5-70.5c4.9-1.9,8.3-4.6,11.2-8.9c38.5-56.3,78-111.9,121.2-164.7
			c23.1-28.3,47.7-55.1,76.7-77.6c7.8-6.1,16-11.6,24.5-17c-4.8-9.5-9.7-18.6-14.2-28c-22.4-46.5-36.9-95.4-46.4-146
			c-5.6-30-9.3-60.2-9.9-90.7c-0.4-18.2-0.3-36.5,3.8-54.4c5.5-24,19.9-40.1,43.6-47.5c12.9-4,26.1-4.7,39.3-1.7
			c18,4,30.9,14.5,38.8,31c7.5,15.7,10.9,32.5,12.5,49.7c0.8,8.8,0.9,17.7,1.4,26.5c0.2,2.9-0.7,4.2-3.9,4.3
			c-19.4,0.5-36.4,8-52.1,18.7c-13.9,9.4-26.1,20.5-37.2,33.4c2.8,1.6,4.8-0.5,6.7-1.2c25-9.5,50.9-14.7,77.6-16.1
			c4.6-0.2,7.9,1,11,4.2c7.6,7.8,14.7,16.1,21.9,24.4c3.5,4,3.6,7,1.2,11.7c-14.3,27.3-24.8,56.1-31.9,86.1
			c-11.9,50.5-11.1,100.6,4.3,150.3c15,48.3,46.9,81.3,92.1,102.2c16.6,7.7,33.9,12.9,52.5,15.9c-1.2-2.8-3.6-3.3-5.3-4.3
			c-58.7-34-93.6-85.4-107.8-150.9c-9-41.8-2.8-82.1,15.9-120.8c17.9-37.1,42.1-68.7,76.5-91.8c40-26.9,84.1-39.2,132.2-36.7
			c98.6,5.2,181.5,78.9,198.5,176.2c15.4,88.1-24.2,174.9-100.9,221c-0.9,0.5-1.7,1.2-2.7,1.6c-3.3,1.3-4,3.4-2.8,6.8
			c4.2,12.8,5,26,4.6,39.3c-0.4,11.7-2,23.4-5.3,34.6c-1.4,5-0.3,8.2,2.7,12c9.5,12.1,17.7,25.1,23.8,39.3
			c5.7,13.4,8.3,27.3,8.3,41.8c-0.1,9-1,7.3-7.2,6.9c-28.4-2-53.8,7-77.8,21c-0.4,0.2-0.7,0.8-1.5,1.8c10.3-1.5,20-2.8,29.8-3.4
			c26.8-1.7,53,0.9,78,11.6c12.8,5.5,24,13.3,33.4,23.8c22.9,25.8,43.9,52.9,60.9,82.9c3.8,6.7,9.1,12,15.4,16.3
			c6.4,4.5,13.4,8,20.4,11.5c7.2,3.6,14.4,7.2,21.6,10.8c5.8,2.9,11.4,6.3,16.7,10c26.6,18.3,29.3,44.2,15.7,70.7
			c-8.8,17.2-24.6,23.1-42.8,23.8c-15.8,0.6-31-3.3-45.8-8.3c-18.8-6.4-36.6-14.9-53.7-24.9c-42.6-24.9-82.7-53.2-120-85.6
			c-46.2-40.2-82-88.4-109.7-142.8c-1.2-2.3-1.7-5-4.4-6.6c-10,19.5-21.3,38.1-34,55.9c-44.9,63.1-100.3,115.4-163.5,159.6
			c-12.8,9-25.9,17.5-39.2,25.6c-2.7,1.6-5,3.3-6.1,6.6c-16,47.8-38.7,92.6-64,136c-62.4,107.1-135.9,205.9-222.6,294.6
			c-29.4,30-60.5,58.1-95.7,81.2c-16.6,10.9-34,20.1-53.3,25.4c-24.2,6.6-44.2-0.3-60.6-18.4c-9.3-10.2-12.7-22.3-10.5-36.1
			c2.8-17.2,8.7-33.1,17.1-48.3c17.4-31.6,38.9-60.3,61.1-88.6c13.7-17.4,27.9-34.3,42.5-51c0.8-0.9,1.3-2.2,2.6-3
			c7.7,27.2,20.8,51.1,35.2,74.3c0.7,2.3,1.6,4.3,4,5.5c0.8-2-0.5-3.3-0.6-4.7C656.5,1490.4,656.3,1489.5,655.3,1488.9z
			 M1265.5,697.3c24.6,0.2,49.6-5.5,73.4-16.2c43.4-19.7,76.2-50.2,94.7-94.8c14.9-35.9,11.4-70.1-10-102.5
			c-7.8-11.8-16.9-22.4-26.8-32.4c-15.2-15.3-31.1-30-47.3-44.3c-16.4-14.5-33.9-27.6-53.7-37.4c-14.1-7-28.8-12-44.6-13.4
			c-24.5-2.2-47,4.2-67.5,17.3c-28.1,17.9-50.9,41.3-68,69.9c-22.7,38-27.6,78.5-14.6,120.9c12.6,40.9,37.3,73.3,69.9,100.3
			C1198,687,1229.1,697.5,1265.5,697.3z M1042.9,720.1c-10.5-0.2-20.5,3.3-28.5,11c-13.7,13.1-27.4,26.4-40.3,40.3
			c-15.6,17-15.2,42.1,0.6,58.8c13.8,14.5,28,28.8,42.5,42.5c16.9,16,42.5,15.9,59.5-0.1c13.3-12.5,26.2-25.4,38.7-38.7
			c16.2-17.2,16.2-43-0.1-60.1c-13.6-14.3-27.8-28.2-42-42C1065.1,724,1055,720.1,1042.9,720.1z M920.1,765.9
			c15.4,0,27.9-12.2,28.2-27.5c0.3-15.4-12.7-28.6-28.1-28.6c-15.2,0-27.9,12.4-28,27.7C891.9,753.3,904.3,765.8,920.1,765.9z
			 M980.4,705.1c15.8,0.2,28.5-12.4,28.5-28c0-15.2-12.6-27.8-27.8-28.1c-15.3-0.2-27.9,12-28.3,27.4
			C952.5,692.4,964.6,705,980.4,705.1z"/>
		<path class="st7" d="M750,795.4c-2.8-1.9-3.6-5.3-5.4-8.1c2.9,1.6,5.4,3.5,6.8,6.6C751,794.5,750.5,794.9,750,795.4z"/>
		<path class="st7" d="M655.3,1488.9c0.9,0.6,1.2,1.6,1.3,2.6c0.1,1.5,1.4,2.7,0.6,4.7c-2.4-1.1-3.3-3.2-4-5.5
			C654,1490.1,654.6,1489.5,655.3,1488.9z"/>
		<path class="st8" d="M1265.5,697.3c-36.4,0.2-67.5-10.3-94.5-32.6c-32.6-27-57.4-59.4-69.9-100.3c-13-42.4-8.2-82.9,14.6-120.9
			c17.1-28.6,39.9-51.9,68-69.9c20.5-13.1,43-19.5,67.5-17.3c15.8,1.4,30.5,6.4,44.6,13.4c19.7,9.8,37.2,22.8,53.7,37.4
			c16.2,14.3,32.1,29,47.3,44.3c9.9,10,19,20.7,26.8,32.4c21.5,32.4,24.9,66.6,10,102.5c-18.5,44.6-51.3,75.1-94.7,94.8
			C1315.1,691.8,1290.1,697.4,1265.5,697.3z M1339.3,580c10.4,0.2,19.9-2,28.5-7.4c11.9-7.5,16.8-19,13.9-32.8
			c-3-14.3-11.4-25.5-21-35.9c-11.4-12.3-26.5-14.4-41-5.7c-12.9,7.7-21.1,19.1-24.5,33.8c-4.4,19,3.8,35.4,21.7,43.4
			C1324.1,578.7,1331.7,580.2,1339.3,580z"/>
		<path class="st8" d="M1042.9,720.1c12.2,0,22.2,3.9,30.4,11.8c14.2,13.8,28.3,27.7,42,42c16.3,17.2,16.3,42.9,0.1,60.1
			c-12.5,13.2-25.4,26.2-38.7,38.7c-17,16-42.5,16.1-59.5,0.1c-14.6-13.8-28.7-28-42.5-42.5c-15.9-16.8-16.3-41.9-0.6-58.8
			c12.9-14,26.6-27.2,40.3-40.3C1022.3,723.4,1032.4,719.9,1042.9,720.1z"/>
		<path class="st9" d="M920.1,765.9c-15.8,0-28.1-12.6-28-28.4c0.2-15.3,12.8-27.8,28-27.7c15.4,0,28.4,13.2,28.1,28.6
			C948,753.7,935.5,765.9,920.1,765.9z"/>
		<path class="st10" d="M980.4,705.1c-15.8-0.2-27.9-12.7-27.6-28.7c0.3-15.3,13-27.6,28.3-27.4c15.3,0.2,27.8,12.9,27.8,28.1
			C1009,692.8,996.2,705.3,980.4,705.1z"/>
		<path class="st11" d="M1339.3,580c-7.7,0.2-15.2-1.3-22.5-4.5c-17.9-8-26.1-24.3-21.7-43.4c3.4-14.6,11.6-26,24.5-33.8
			c14.5-8.7,29.6-6.7,41,5.7c9.6,10.4,18,21.6,21,35.9c2.9,13.8-1.9,25.3-13.9,32.8C1359.2,578,1349.7,580.2,1339.3,580z"/>
	</g>
</g>
</svg>
