<?xml version="1.0" encoding="utf-8"?>
<!-- Generator: Adobe Illustrator 17.0.0, SVG Export Plug-In . SVG Version: 6.00 Build 0)  -->
<!DOCTYPE svg PUBLIC "-//W3C//DTD SVG 1.1//EN" "http://www.w3.org/Graphics/SVG/1.1/DTD/svg11.dtd">
<svg version="1.1" id="Layer_1" xmlns="http://www.w3.org/2000/svg" xmlns:xlink="http://www.w3.org/1999/xlink" x="0px" y="0px"
	 width="2000px" height="2761px" viewBox="0 0 2000 2761" style="enable-background:new 0 0 2000 2761;" xml:space="preserve">
<style type="text/css">
	.st0{fill:#252021;}
	.st1{fill:#81AFC3;}
	.st2{fill:#DAD7D6;}
	.st3{fill:#6D6B6D;}
	.st4{fill:#335061;}
	.st5{fill:#EFD6B7;}
	.st6{fill:#FFFFFF;}
	.st7{fill:#D33833;}
	.st8{fill:#49718A;}
	.st9{fill:#FDFEFE;}
	.st10{fill:#F5E3CC;}
	.st11{fill:#ED3D3A;}
	.st12{fill:#262222;}
</style>
<metadata><?xpacket begin="﻿" id="W5M0MpCehiHzreSzNTczkc9d"?>
<x:xmpmeta xmlns:x="adobe:ns:meta/" x:xmptk="Adobe XMP Core 5.5-c014 79.151739, 2013/04/03-12:12:15        ">
   <rdf:RDF xmlns:rdf="http://www.w3.org/1999/02/22-rdf-syntax-ns#">
      <rdf:Description rdf:about=""
            xmlns:xmpMM="http://ns.adobe.com/xap/1.0/mm/"
            xmlns:stRef="http://ns.adobe.com/xap/1.0/sType/ResourceRef#"
            xmlns:stEvt="http://ns.adobe.com/xap/1.0/sType/ResourceEvent#"
            xmlns:dc="http://purl.org/dc/elements/1.1/"
            xmlns:xmp="http://ns.adobe.com/xap/1.0/"
            xmlns:xmpGImg="http://ns.adobe.com/xap/1.0/g/img/"
            xmlns:xmpTPg="http://ns.adobe.com/xap/1.0/t/pg/"
            xmlns:stDim="http://ns.adobe.com/xap/1.0/sType/Dimensions#"
            xmlns:xmpG="http://ns.adobe.com/xap/1.0/g/">
         <xmpMM:DerivedFrom rdf:parseType="Resource">
            <stRef:instanceID>xmp.iid:3e122268-9c95-a447-b8c9-ef4d7f146dcb</stRef:instanceID>
            <stRef:documentID>xmp.did:3e122268-9c95-a447-b8c9-ef4d7f146dcb</stRef:documentID>
            <stRef:originalDocumentID>xmp.did:960b41ca-119a-1041-a1ac-5813d2d829e4</stRef:originalDocumentID>
            <stRef:renditionClass>proof:pdf</stRef:renditionClass>
         </xmpMM:DerivedFrom>
         <xmpMM:DocumentID>xmp.did:b608157b-a490-234d-b2fb-5ebb4eda8736</xmpMM:DocumentID>
         <xmpMM:InstanceID>xmp.iid:b608157b-a490-234d-b2fb-5ebb4eda8736</xmpMM:InstanceID>
         <xmpMM:OriginalDocumentID>xmp.did:960b41ca-119a-1041-a1ac-5813d2d829e4</xmpMM:OriginalDocumentID>
         <xmpMM:History>
            <rdf:Seq>
               <rdf:li rdf:parseType="Resource">
                  <stEvt:action>saved</stEvt:action>
                  <stEvt:instanceID>xmp.iid:960b41ca-119a-1041-a1ac-5813d2d829e4</stEvt:instanceID>
                  <stEvt:when>2018-11-22T14:43:43Z</stEvt:when>
                  <stEvt:softwareAgent>Adobe Illustrator CC (Windows)</stEvt:softwareAgent>
                  <stEvt:changed>/</stEvt:changed>
               </rdf:li>
               <rdf:li rdf:parseType="Resource">
                  <stEvt:action>saved</stEvt:action>
                  <stEvt:instanceID>xmp.iid:b608157b-a490-234d-b2fb-5ebb4eda8736</stEvt:instanceID>
                  <stEvt:when>2018-11-22T18:22:09Z</stEvt:when>
                  <stEvt:softwareAgent>Adobe Illustrator CC (Windows)</stEvt:softwareAgent>
                  <stEvt:changed>/</stEvt:changed>
               </rdf:li>
            </rdf:Seq>
         </xmpMM:History>
         <xmpMM:RenditionClass>proof:pdf</xmpMM:RenditionClass>
         <dc:format>image/svg+xml</dc:format>
         <xmp:CreatorTool>Adobe Illustrator CC (Windows)</xmp:CreatorTool>
         <xmp:CreateDate>2018-11-22T18:22:09Z</xmp:CreateDate>
         <xmp:MetadataDate>2018-11-22T18:22:09Z</xmp:MetadataDate>
         <xmp:ModifyDate>2018-11-22T18:22:09Z</xmp:ModifyDate>
         <xmp:Thumbnails>
            <rdf:Alt>
               <rdf:li rdf:parseType="Resource">
                  <xmpGImg:width>188</xmpGImg:width>
                  <xmpGImg:height>256</xmpGImg:height>
                  <xmpGImg:format>JPEG</xmpGImg:format>
                  <xmpGImg:image>/9j/4AAQSkZJRgABAgEASABIAAD/7QAsUGhvdG9zaG9wIDMuMAA4QklNA+0AAAAAABAASAAAAAEA&#xA;AQBIAAAAAQAB/+4ADkFkb2JlAGTAAAAAAf/bAIQABgQEBAUEBgUFBgkGBQYJCwgGBggLDAoKCwoK&#xA;DBAMDAwMDAwQDA4PEA8ODBMTFBQTExwbGxscHx8fHx8fHx8fHwEHBwcNDA0YEBAYGhURFRofHx8f&#xA;Hx8fHx8fHx8fHx8fHx8fHx8fHx8fHx8fHx8fHx8fHx8fHx8fHx8fHx8fHx8f/8AAEQgBAAC8AwER&#xA;AAIRAQMRAf/EAaIAAAAHAQEBAQEAAAAAAAAAAAQFAwIGAQAHCAkKCwEAAgIDAQEBAQEAAAAAAAAA&#xA;AQACAwQFBgcICQoLEAACAQMDAgQCBgcDBAIGAnMBAgMRBAAFIRIxQVEGE2EicYEUMpGhBxWxQiPB&#xA;UtHhMxZi8CRygvElQzRTkqKyY3PCNUQnk6OzNhdUZHTD0uIIJoMJChgZhJRFRqS0VtNVKBry4/PE&#xA;1OT0ZXWFlaW1xdXl9WZ2hpamtsbW5vY3R1dnd4eXp7fH1+f3OEhYaHiImKi4yNjo+Ck5SVlpeYmZ&#xA;qbnJ2en5KjpKWmp6ipqqusra6voRAAICAQIDBQUEBQYECAMDbQEAAhEDBCESMUEFURNhIgZxgZEy&#xA;obHwFMHR4SNCFVJicvEzJDRDghaSUyWiY7LCB3PSNeJEgxdUkwgJChgZJjZFGidkdFU38qOzwygp&#xA;0+PzhJSktMTU5PRldYWVpbXF1eX1RlZmdoaWprbG1ub2R1dnd4eXp7fH1+f3OEhYaHiImKi4yNjo&#xA;+DlJWWl5iZmpucnZ6fkqOkpaanqKmqq6ytrq+v/aAAwDAQACEQMRAD8A9U4q7FXYq7FXYq7FXYq7&#xA;FUHq2s6To9jJf6reQ2NlF/eXFw6xoPAVYjc9h3xV4t5v/wCcsfKWnM9v5bsZtanXYXMhNtbfNeQa&#xA;VvlwX54pp495j/5yR/NTWSyxagmk27V/c6fGIz7fvX9SX7nGKaSfTdH/ADj85gT2/wCl9Vhfdbq4&#xA;nl9FqbbTTusZp7NkTMDmyESmsX5C/nAE2shHy+Jk+uQ9T1rSQiuQ8aKeAqL/AJU/nboiGa3sb2JY&#xA;9laxukdqDpxSCUv/AMLhGWPevAVtr+b351eU7kW93quoRSDc2urRmZiPldK0gHyIyYNsSHqXk3/n&#xA;LmKSSO2836UIQSA2oafUqPdoJCW+ZVz7LhY09+0DzFofmHTY9T0W9iv7GX7E0JqK91YGjKw7qwBG&#xA;KExxV2KuxV2KuxV2KuxV2KuxV2KuxV2KuxVbLLFDE8szrHFGCzyOQqqo3JJOwGKvEvP3/OTWjWFy&#xA;dH8k2p8w6y7elHcKGa1Eh2AjCfHcGvZKA9mOKaedXH5ZfmP51uBrv5i66NNt+scUzKzRqd+KQqUh&#xA;hBHvXxFcCWP6n+XflfXtRg0H8to73Vb22k/3J6zO6/UUjao+KQKoqCNuK7j7PLsJSA5sgCXrvkH/&#xA;AJx78qeXljvNZVdb1YUNZl/0WNqfsQmoan8z18QFzGnlJ5NsYAPVKogA2UAbDpsPDKbbFhuIh0Nf&#xA;l/bg4gnhK03SdgT89sHGvChr6DTtRtmtdQtIru1k2kgnRZUb5q4IOInSmDy3zh/zjv5J1dXn0NpN&#xA;CvjUhUrLasx3+KJjyXw+BgB/KcujqK5tZxPIbWf8yfyZ80JMv7pZftKCZLG9iU7g/ZrT6HWvauZU&#xA;JiXJplEjm+tfy3/MjQfPmgrqemN6dzHRL+wcgy28pHQ+Kn9lu/zqBNrZZirsVdirsVdirsVdirsV&#xA;dirsVdiqF1bVdP0nTbnU9RnW2sbONprid+iooqT7+wHXFXyr5m86eePzs8xy6HoPPTvKVuwMqsSq&#xA;+nXaW6Kn43alUiBp9xbFlTKrS08m/lnZ/UdFt1vvMDpS5vpaF6nrzYfYXbaNae++5VY3pug+avzT&#xA;1+WK6vJYPLti/p6nfLQc5Optbdfs1oRy2oO9dg1eTJwsoQt73oPl/RPLulRabpFqlnYwj4Y0HU9C&#xA;zsaszGm7Hc5hyle5cgBESXLHZNh498rMmYiokkmp3ORZOwK7FXYq7FUq8z+WNH8y6PNpOrQ+tazb&#xA;gjZ43H2ZI234utdj9B2qMlGRibCJRBD5huE84/k35+WaymNU+KCWhEF5aM26SL9FGXqrbg9Dmyxz&#xA;EhbiTjRp9h+QvPGjedfLVtrultSOX4Li3YgvBOoHOJ/cV2PcUPfJtTIcVdirsVdirsVdirsVdirs&#xA;Vdir5u/5yw8/RtFYeTNPukbk31rWVjapXgQIIpONab1cqd9lOKQxy3/NvyR5K8pR+X/J6S6jflQ0&#xA;2o+mYInnegklPqgSFtqKOFAKb7YEsRj17XNQ1DT7GXT5dNm1q4jt7e/uuZSszqplHJE58fUr1xJ2&#xA;UB9X+X9C03y/otrpOnp6dnZpwSu7MerO5FKs7Esx7k5gSlZsuUAqyylz4KOgyom2wCnRws/TYeOI&#xA;FqSkt/5z8k2F4bG78wWEF4pKvBJcRKysOz1b4D/rZPwix8QJpDNDNEk0LrLDIoaORCGVlIqCpGxB&#xA;ytmvwK7FXYqh9T1fSdE0m51jVp1trC0XlNK1SBUgAACpJJIAA6nLIRtjKVPAvzR/OT8u/OuhzaY+&#xA;l363MFZNL1EpCGjmA7j1CfTelGFem9KgZmQxmJceUgUn/wCccPzBk8seeYdMuZeOj68y2twrH4Un&#xA;Jpby/wDBngfZqnpl7UX2dixdirsVdirsVdirsVdirsVeT/8AORH5oXfkvyvDZ6TL6WuayXit5hTl&#xA;BCgHqyj/ACviCr7mvbFID5w/LT8q9V873cl/eTPaaLG5N3qDbySvWrJEW6t/Mx2Hv0wJeu2mqfl7&#xA;5LX6r5X0mO5u4wVfUGoWYnr+/YNIwqOi0Xww0rz783/OWq65pNkblIovq12HgMKlWUlG/aYsewxp&#xA;Q+n5Ji0aDuVDN8yK5rJno5sQsjXk4XxyADIl4j+bH5k+Y9e8xN+X3kYSGRWMGo3UB4u7r/eRK9R6&#xA;ccfSRqip26fazYQERZcaUiTQS3S/+cX53tVfVNdWK5YDlDbQeoi+I5u6Fv8AgRkTqu4JGDzeueQf&#xA;KP8AhLy3Don11r9YHkdJmT06CRy3ELyegFfHMfJPiNt0I0KZFlbJ2KuxVLfMHl3SPMNhHp+rwfWb&#xA;KOZbj0CzKrOgIXnxI5LvWnTJxmY8mJiDzSXVPyp/LvUbRraXQLOFSNpLWJbaQHsQ8QRvvyQyyHVB&#xA;gO589fmr+VF75Gu4b6xne50W4fjb3LbSwyj4hHIVoK0FVYUrQ7CmZmLLxe9onDhfYnkLzEPMfkzR&#xA;dcqDJfWkUk9Ogm48ZR9EgYZc0J9irsVdirsVdirsVdirsVfHX/OTupXOrfm2dKjq50+2tbOGIV+3&#xA;MPX6eJ9cDFkGb+cbyDQtJsfJekn07SxgjW7ZaKXNK0andv7x/EnEIYThVJ9fsV1W80XRQaSajqEM&#xA;KkdlY+mx+j1BkZGhbKIsvqsmprmqc5pnkRWeJQ0gU8FJoCabAnEHdBDz78n/AMuJvKWl3F1qoWTz&#xA;DqLlryUNz4RhjxjD96/aY9z8hl2bJxHbkwxwr3vQsobFk08MEfqTOscYIBdjQVYhRufEmmFV+BXY&#xA;q7FXYqp3FxDbW8txO4jghRpJZG6KiirE/IDCArHPzH0iDXPIGtWnETc7OSe24/FWWFfViKkeLIOm&#xA;TxmpBjMWFD/nFnVmvvyrjtWP/HMvbi1Uf5Lcbj9c5zZuCXr+KHYq7FXYq7FXYq7FWM/mB+YXl7yN&#xA;oTarrEp+I8LSzjoZp5P5Y1JHT9pjsPuxV8ZP5ruPNn5s2fmHUkWJ9Q1S0eSJSSqRpJHGqVO5CxoB&#xA;iyeiea7iSfzLqkkhqRcyoD/koxRf+FUYoSrCqL8k2n1781fL8TIGjsIrm8etO8ZRDv4ScTlOc1Et&#xA;uIep9EZrXLdirsVbVeTAeJphCoPzb5fXWfK2q6TGFE95ayx27t+zMVJievbjJxOXQ2NtUtwkf5c+&#xA;ah5k8q2t5L8OpW9bXVITs6XUPwyBh25faHschkhwlnCVhk+VsmEXXnS+sfzZtvK92yLpeo6aJrIk&#xA;AN9aWR6/H7pGRTxplwhcLYcXqpm+Us1V7G3ubOWCdQ8dwjRyKehRxQj7jlsRW7CReb/lBrMt75dv&#xA;vK+pOr6r5ank0q7FeQaKMtHG2/ailP8AY5LNGjfejGbFJR/zh9rNqdO8waM0oF0s0V5HATu0bIY3&#xA;ZR/klVB+YzYOGX0Xih2KuxV2KuxV2KpD5386aL5O8u3OuatJxggFIoV/vJpSPgijHdmP3Dc7DFXx&#xA;T5k8x+aPzM82S6jfyELWkUYqYbS3r8MaDb+rHc5VlyiAsufoNBk1OTgh8T3JdrkFpoHmCxawFWs1&#xA;hmep5EypIWq3gSANsr02SU42e9yu2dJj0+UY8fSIv37/ALGQz+aPOfmfVL6/0LQJriGad5Wjt4Z7&#xA;sxmQluLPGAO/8ozIMgHU8KGi82ajZX5sfMFg9jMKBg0ckTpXoXik+Kn+dMIKCGd/l3cwwfmjo03I&#xA;OmoWl1bRsD8IKp6wNeh5BaDKdQPS2YfqfQOa5y3Yq7FUNqeo2+mabd6lccvq9jDJczcBVuESF24j&#xA;uaLkgLNIJoPPrD/nJT8v7hP35u7Jh2ng5V+XotLmQcM2nxIvNNN8/QQ/nSL3yhLNLpPmC8gj1C1k&#xA;j9NZXmbjIyrWvws5kVjQ1rXatbJQuHq5hiJerZ9K5guS8l/5yB8uXsuk2HmzSy0eo6BKHeRPtCFm&#xA;BDj/AIxyAH5E5k6eW9Hq1ZY9WX/lr57s/OXluLUE4pfw0i1G2H7EwHUD+R/tL93UHKsmPhLKErDz&#xA;Lz5+fXn3y95m1DRotLtLeC2ldLZ7lJneSKtI5QVkjWjr8XT2zIhhBF21SyEHko/k3pvn7VvzAn85&#xA;3tubHTb1JPr7lPRS45p8Cwo27UkVWLex3qccxiI8K4wSbeQafrOteX/MJ1rR5ntLuyuW9G4jGwYk&#xA;/A37JDLUFTsRmSC1mBq62fan5R/mlpv5geXRdoFg1e0Cx6rZA/YkI2kSpJ9N6Er4dO2SayGdYodi&#xA;rsVdiqyeeG3gknnkWKCFTJLK5CqqKKszE7AAdcVfE35v/mPqP5k+clgsC36FtHaDSLfcBlr8dw47&#xA;M9K/5KgDxrGcxEWXI0+CWWYhEXKSYaNpFrpNitvDuQOU0tN3bux9vAZo8uU5JW+maHRQ0mGh75Hv&#xA;/HRLPyf8hDz/AOcp59U5HSbP/StSCkr6hdj6cAYbqHINafsqaUNDm4keCNB81nM5ZmcuZNvS/Nn5&#xA;/wBt5W1E6L5c0CN9J092tRcMTBAzwnjIkCovHih2rX6MhHFe5LEzrko+adc8rfm7+XOo31rb/U/M&#xA;vl+Jrtbd6PIqoC0io6iskciKQNh8dKjxAuEvIqfUHkPlvzYLOfy6qrI11p2owzMRQ8olc/ADWvxK&#xA;/GmZExYIa47F9j5qnNdirsVWyRxyxtFKoeNwVdGAKspFCCD1Bwq861T8gPy4v7p7hLaeyLks0VrK&#xA;VjqfBXDhfktBlw1Eg1nEE38n/lR5L8qXJvNMtWkv6FVvLl/VkVTsQmwVdtqha5GeWUuaY4wGYZUz&#xA;U54IbiCSCdBJDMrRyxsKqysKMpHgRhCvm7WbHW/yb8+pqWnK8/ly/JCxknjJCTVoHPQSR9Ub6f5h&#xA;maCMkaPNxiDA+T6D0LW9I8xaRa6rp0i3FnOBJGTQlGHVWG/F0OxHbMOUTE0XIBBCZZFL5D8vW1ve&#xA;adqMcoElvPdyjbeuykEH8Qcu1UzGUSOdO+7C08cuDJGYuJP6EN5V8y65+W/nS31SyYyLEaTRV4pc&#xA;2rn44260rT/YsK9szMWUTjYee12jlp8hhL4HvD7l8ueYNL8w6HZ61pcomsb6MSwv3FdirDsytVWH&#xA;Y5a4KY4q7FXYq8C/5yn/ADIbTNHh8m6dLxvNUX1dUZT8SWoNFjNOnrMN/wDJH+VikPGPI+hi0sv0&#xA;hMv+kXQ/dg9Vi6j/AILr8qZqdbm4jwjkHvvZzs7w8fjSHqny8o/t+5P7mTkDEh2OxPYnMWGxDutS&#xA;TKJA7iyX/nFCWL0PMsXSUPZsfEqRMB9xGbfP0fLsac+e/Lul6t+a3k7R7i2jOkRw3lybIKFiJWsl&#xA;OAHH4nVeQ75VCRECerOUfUAvTyAfL35vabqmiWYi0DWbe4ttSt4VCwwusJcDiBxCSFFoPEHB4lwo&#xA;8wngqW3Jlujflp5D0a7F5p2i20N0hDRzMDKyEd0MhfgfdcrOWR5lmIAMmytk7FXYq7FXYq7FV0cb&#xA;OaD7zhAtBLTKVJB6jFKU+Z/LWleZdFuNI1SL1LacbEbMjj7MiHsyn/OmGMjE2ESjYp87+T9U80fl&#xA;t+ZZ8qc/rdjdXkNvPb0PCVbgqIriMb8X4ODt/qnM2YE4240SYyp9J6rfR2GmXl9IaR2kEk7nwWNC&#xA;x8fDMKIsuSTs+UfJkDR6KHPSaR5F+Qon/GmDWm5/B6z2dhWnvvkf0D9CJ8w6QNSsGRR/pEVXgO3X&#xA;uv8Asshp83BLycntbQfmMW31x3H6vizX/nFn8yH0zW5fJeoy0sdTYy6aXO0d2B8UYr0Eqj/ggP5s&#xA;3L55IPqvFi7FUPqN/aadp9zqF5IIrSziee4lPRY41LM30AYq+D9S1S88+/mDe6xeg8b2driSMmvp&#xA;26UWOKu2yoFSuU6jJwQJdn2VovzGeMP4eZ9w/FM3lcRx0XYnZQNqDNGH02ZERQQmFoQn5Yeao/I3&#xA;5nH64wi0fUq29yxqESOZg0Um/aNwAT2HLNxE8eMHq+c6/B4GolHpe3uL6T1Dy/ZXmt6XrDkreaV6&#xA;6wlaUZLiPg6t9wIzEEiAQwqzaZ5BLsVdirsVdirsVdirsVYppvn4N+ZOq+UJlVPRtILixfoXahaY&#xA;Gp3PGRaAdlY5dw1Dia7uVMnuru3t4nuLqZIYV3eWVgige7NQDKty2cnmPm//AJyB8paRzttGDa5q&#xA;H2V9E8bcMdt5aHl/sAa+OXw05PPZqllA5JB+X/kXzl5h8+L+YPmqBbCPn61vZOCsjER+nEBGd0SM&#xA;UPxbmnvXJ5MkRHhDGESTZZ7+cer/AKL/AC21uUEB7iH6ogPf6ywian+wdjlOEXINmQ1F4ToNuING&#xA;s4wT/dBzXsZPjI+9sxtRK5l7vsrFwaaA8r+e6Pyl2DCfMsFzpOuwarYuYJWdbiCVNik8TBuQ960b&#xA;55ttJl4o11Dwnb2j8LNxD6Z7/Hr+t9w/l75tt/N3k3S9fhoGvIR9YjXok6fBMn0Opp7ZluhZDirx&#xA;3/nKPzY2jfl2NKgfjda9OLY0qD9Xi/eTEfOiIfZsUh89/l/p3padJesPjun4xnb7EZI+irV+7NVr&#xA;slyEe57v2Y0vDillPOR+wft+5PZpObk9hsvyzDd9I2VmKEm8y6F+k7YPDQXkNfTrQch3Qn9X9uZW&#xA;mz8Bo8i6btjs38xDij/eR+0d36k28ifnxr/lWzTRdZszqVlagR2/JzFcwqOiciGDqo+yCKjxpQZn&#xA;Twie4eJ4pQPDIbhP9R/Orzd531G28teRrJtNub1irXkjq03ACrGtOMSqoJZhybwoeojgEd5IOUnY&#xA;Pd9L06507RtOsrq5a8ura2ihuLtyS00kaBWkYsSaud9zmNk5t0ERlbJ2KuxVciM5oorhAUlB6zdX&#xA;en6bc3cFo17PboZFtI2AeQLuVStfip9kdzthEd6KCdmEaT+e35b36gS376dP+1BeROhB7gsgeP8A&#xA;4bLTgkGAyxYz5/8ALn5c+dtYtdZsvOthpOoxosLsJYXMnE1jIUzQurjlStd9vDJ45SiKpjOMZG7S&#xA;yy/JTyzqV1FBqPn79LMxpFbwvEJCfBec1xv16LkjmkP4WIxg9U9trn8ify6mcRSRT6xauY3ajXl2&#xA;sibMK0KRMKUNOOQIyT9zL0RY9dfnH5y89a5F5c8l250qG6bi969HuFi/blYj4Igq/wAtT4NXJjDG&#xA;AuTE5DI0G/z6uIra08seRLWZpOJW5upZKvIaVhjkdjXkWJlZvffBiNAzLdHEck44x1ISHbtsPAZq&#xA;yX0kAAUHYEpV5nsRd6NOB9uEesnzQb/8LXMjSz4ZjzdT21pvF0574+ofDn9j1D/nELzYWTWvKkz/&#xA;AGOOpWSHwNIpwPp9M0+ebl89L6RxQ+Rv+csNfa//ADAtNHRqxaRZoGTwnuT6j/fH6eLKIQNrbLY6&#xA;ZDbLT91GsVQNi1KMfp3OaCcuKRL6tp8Pg4I4+4D9qlkUuxV2KoW90zT70UuoFlI2DEUYDrQMKMPv&#xA;yyGWUeRcXU6HDm+uIP3/ADU/ySvY9D/N+0tXPGC5a4sQ77GjqTF9LOiD6c20jxQt88zYvCyyh/NJ&#xA;D6yulqgPgf15hyZRQ2Vs0NHqFpJfz2CyD63bpHLJCftenKWCOP8AJLIw+Yw1ta2icCqtu6o55GgI&#xA;yUSiQeefmB5g81+VtcsvMYk+t+Tgq2+s2KRqZYS7EC5VvtHdlHWm1O9RZjiJCv4mEiRv0QvmL8rP&#xA;y98/2663YSiGe6HJdSsCvGQ/8WxkcWbx6N4nDHLKGxUwEt3nOp/84x+ZomJ0zVrO6jHT11kt3I+S&#xA;iYV+nLhqR1DUcJU/LP5C/mBpfmjSdQmFn6Fje29zJIJiRxhlWQ0XiGP2cMs8SCscRBTrV/8AnHTW&#xA;tY826rqdzq1tbaff3k91H6aSSzBJpDJxKkRqCOVPtHIDUAACmRwkl6d5S8j+VPIekTmyURqqGW/1&#xA;K4IMjJGCxZ3oAqKKmgoMonMzLbGIiHzrLrU/m3z5qnmaQMsAYraI2xWOnpxKRuNoh8VP2ss1J4MY&#xA;j3u17A0/iZzkPKH3lOc1r2rsVdhQRYopV+TerHyz+cekDkVglu20+TltWO6rChP+yZW+jN7jlxRB&#xA;fMNVh8PJKH80kPuHJuM+GPP16+ufnVrE+0g/SrxCtKGKzf0x9Hpw5VmlUCfJz+zcXHqMcf6QZFdt&#xA;uq7bAn7+x+7NEH07Kd1DC1uxV2KuxVivmWK80vWLPzDYnjNBLFIH68ZoSGjanh8I+73zZaPJceEv&#xA;He0OjMZjMOUufv8A2vsPRNYtNe0Gy1azNbe/gSeIVFRzUHi1O6nY++CUejo4nquyhtYN+Y+m6zZy&#xA;2XnPy/H62qaIrre2QNPrenuQ00OwNWQjmnga0BNBl2Mg+k9WEweYZN5b8xaX5i0a21fTJfVtLleQ&#xA;rTkjftI4FaMp2IyuUTE0WQNhM8ilRvbO1vbSazu4lntbhGinhcVVkcUZSPcYQaUh85+Zfyw/MfyN&#xA;qk995MnvJ9JlYsn1JmMyKTUJNCu8nH+biR40zNjljIepxpQlHkg7b82/zutf3c0c07L8JE9gAw+f&#xA;CNN8PgwR4kk40v8AMb8/9UkCWOkNJy6SNZGOP6ZJCiD78iceMMhOZe4eV4/MSaJb/wCI5optYYFr&#xA;n6uoWNCTsi068R1PjmLOr25N8brd5J/zkR+YnoQDybpkh+sXAWTVnU7rGaNHBtvV9mb/ACaDoxzI&#xA;0+P+ItWWXQMI0fTY9OsI7Zd2HxSsP2nP2j2+Q9s1+bJxyt9A7P0Y0+IQ69fejcqc52KuxVg/maSf&#xA;TvM8V/C1Jl9G5iPg0R4r+MebfSSvG8F29j4dST/OAP6P0Pvn9J236J/Slf8ARvQ+s1/4r4c/1ZlO&#xA;jfBuizvd+fprtjVpbi6lYjepcPXf/ZZjas/uy7z2fjesh5X/ALks1uCTM1RQg8SB7bZp3vpGyp4o&#xA;dirsVdiqReatTsItOns5GElxMoCwg7g1BDNTpTrv1zL0uKRkJdHRduazFHDLGTc5dP1vS/8AnGTz&#xA;4j29x5NvZAJIi11pPI/aRjyniH+q37wD3bwzNzR6vF4z0e5XEfF+Q6N+vMOQciJUsil5V5g0jWPy&#xA;71m481+WoWuvLF2/q+YdBj/3Sf2rq2HanVh2/wBX7GREiYo82ogxNjk9A8teaNE8y6XHqej3K3Fs&#xA;+zAbPG/dJE6qw8D8+mUyiYmi2CQPJNcil2KuxV2KvOfzN/OTQ/KdtNY2UiX3mEqVjtkIZIGI2acj&#xA;pTrw+0fYGuX4sJlz5Nc8gD5jvbXXtQWfXLtZJ2uJGlnuW3ZmY1ZyOtK96UzZDGRG62cLxRxVe7Jv&#xA;LvmeO8VLW7IS86K5oFk8P9l7ZqdRpuHePJ7jsntkZQMeQ1Poe/8AayHMJ6F2KuxVhnnuGl3azV+3&#xA;GyU/1Gr/AMb5s9CfSfe8b7Sx/exP9H9L65/Sx/6F7/SXIep/hbny3p6v1ClPH7e2ZzzL5F8hxKvm&#xA;QxS0DiN1WvXkGANPormJrR6Pi772cI/NA/0T9zNCSTU9T1zUvdOxV2KqF7f2dlF6t1KsSdq9SfYD&#xA;c/Rk4Y5SNBx9Tq8eGPFM0xS9806lqM31TSInQNsGArKR3O2yD/OubLBogOe5eQ7Q9oZzBGP0R7+v&#xA;7Pxuq6f5Hd/3upTkM25ijILVO/xOa/TQfTm2hpu95PJrN9lLUdK1Hy1fW2s6NcSRm2dXjuAR6kUg&#xA;OxNBQqem49j715sHD7mzBqOLY83tnkz/AJyY0C8tY7XzbA+n3iij31ujS270/aKLylQnwAYe46Zr&#xA;54O5z45Gf2f5i+Qb1Va28w6e3PdFe4jic9/7uQq4+7MY4pDo3CYKF82/mf5M8s2Mdzf3q3BuATb2&#xA;1pxnklApUgAhAN+rMBhhilJEpgPnnXfPPley1ptf/L59S0DUZW/0myeOD6nICan4VlfiK78CjL4c&#xA;aZmRgSKlu0GQuwzvyz/zk5b+ksXmXS3WUChu7AhlY17wysvHbwc/LKZabuLOObvZpH+fn5XOgZtU&#xA;kjY9Ua2uKj58Y2H45X+Xkz8WKU61/wA5JeR7NWXTYLvU5gDwKoIIifdpDzH/ACLOSGml1QcweV+c&#xA;Pz4876+j29o40bT3JHp2hYSsNtnnNG2/yONe4y+GCI82qWUl57aesZxIkP1lk+NkKlwab1YDqMv4&#xA;gGAxylsL+DPPLvmKPVEaGZViu4xUoPssvioO+3cZn4cvFsXV58HBuOSS+ZvK7W5a+sE/cfamhXrH&#xA;3LL/AJP6vl0pzYK3HJyNPqL2PNX8u+bOZS01F/i+zHct37AP7/5X3+OaXUaX+KL23ZPbfLHmPul+&#xA;v9fzZXmverdirE/PxHGwHes1f+SebLQ8i8j7TfVD3H9D6c/9df8A/Ba/7F8z3ler5e0+OW1/MC6t&#xA;5TWWO5vIpC2x5L6lfpqMxtWLxl3PYMuHVQ+P+5LMc0737TMqqWYhVUEsx2AA6k4QLRKQAs8mO6v5&#xA;xtLcNFY0uJ+nqf7rXfx/a+jb3zMw6MneWwed1/b8IenF6pd/T9qVadoOq63MLzUJXSBv22+0ynek&#xA;a9Av4eFc3GDTbbbB4nWa+UpEyPFNmVhptnYQ+jaxiNduR6sxHdj1ObCEBHk6meQyNlfcXdvAP3jg&#xA;N2QbsfowmQDERJSu91T143hSMCJwVbluSp26dBtlcpXs2RjRtD+TdZvfJfmE6xYWcGp2ssT217pt&#xA;0oZZLeQhnQEg90FDT6DmJPCRyc6GcHYvZtF8w/8AONHmhAl9odho95WsltNGLAqw2pzjMcR+Qf6M&#xA;pb3k/mny95Jf807/AE/yzEo8u2UcckcayvOkj+lHz4yMzsR6kndj0PyzG1WQwhY5u57D0cdRqBGe&#xA;8QLP495Rt15Y8v3ICyWkEZFaGMrCRXx4FfxzWR1GQdXtM/ZOjnsYAe7b7mNap+XrqGk0uf1ePWGQ&#xA;iv0Ovw/eB88zMeuH8Qef1fsyRvhlxeR5/P8AsVfLes+R9PC6Z518rNcvb1AvrSWWC5oSWpJGJI45&#xA;OuzVG3jmUblvEvNTxnHLhnGpBnEH5h/kPotnJLovlV7i+UVt0u4Uk+PtWWeSdkHuoOV+HkPMrxwH&#xA;IMYuINd85X0eteZbgfVyAbLT4Phijib4gqKDRFpT/KPc1yjLqRj9Meb0fZfYJzgZMpqB5Adf1ff7&#xA;k4hWzs4hBaxLGi/sIAq/2nxzAkTI2S9fihjwjhhEAMO1eFYPNqyRVRbuIySBdhyAav3sgY++bns+&#xA;ZIHls+e+02nEMxIFCQ4v1p1ZatSiXJ6dJe/+y/rm5EnkTFjvnDQ7a1VNQtaJHM4R4l+zyYFgy02o&#xA;QuY2oxgbhzNNlJ9JZJoEk8mjWjz19QxgVPUqDRT9K0zm9QAJmn1LsqcpaaBlzr+z7Ewyl2DC/Pc1&#xA;by1h/kjL1/12p/xpmz0I9J97xntLL97Ef0f0vr79EN/yoD9F8P3v+F/S48T/AHv1Drx61575nPNP&#xA;lr8zLA6J+dWtQk+kp1M3BPQCO8In+7hNleWNxI8nM0GTgzQl3SCd5on0xi3nu4nSC0hVisUpcyKP&#xA;2inGlflXNhoYjc9XlfaXLMcEf4Tfxb8teVrX0Ir+8pO0ih4YuqKDuC38x9u2bzDhFWXhNRqDfCGR&#xA;XWoW9uSrEtJ/IOu/jmSZU4gjaWT6tcyVEZ9Je3H7X/Bf0yBkWYiEFkWTsVdiqhdWVtcj98gLUoHG&#xA;zD6cjKAPNnDIY8lbyVZC08zzR1JiNsXRmpXiZEG/yIpmn7RjUQPN7L2UnxZ5H/az98WT5qXtl8TB&#xA;ZUY9AQT8sVSbzhHqNxpsojt7aSCMFmlL8pVQfEWUMqhTQb7k5l6QxEhub+x03bsc08RqEDEdbuQA&#xA;7rAr7V002nt5Si5hRbfVQD0pzKdB/lcx9+ACXjedpnkwnQC64eD/AGVffbfksNHoVvNLNI6OZFSI&#xA;8SqhWI22B+84dYfXVBh7Pg+AJGUuZ2vZNGPJielTWmYjvCbY35mijk1TSxWj/vmbxogVl/EHNr2b&#xA;+l4r2rq4/wBUrM3bxCW649zMlpYRtyE8tVjJ/b2VflXmcx9RKg5mixGUqHM7M1ghSCCOBK8IkVEr&#xA;1oooP1ZzMpWSX1vDiGOAgOURS/ItjCPMMM+qebINNiH72RoLSGm9TKQR0/ypM3GkjWMPA9u5OLUy&#xA;/o0H33+j7X9Hfo/j/ovo/V+G393x4UpSnTMl0j5S/wCctPL7WXnnT9aRaQ6tZhGfxntW4t/yTePF&#xA;kEg0+7F3YwXIIJlRWbj0DU+IfQds0WWPDIh9O0efxcMZ94+3r9qVecbH6xpBlUVktmEnSp4nZh+N&#xA;foy/Rzqdd7q/aDT8eDiHOBv4dVHyNqHq2Utk5+K3blGNvsPvQD2av350WmntT5tq4UbR+txkSxyU&#xA;ADKV26kqa7/8EMunzceHJLcgzdirsVdirsVatLj6nrljckkRzE2sx2pSTeMb/wCXucwO0MXFB6D2&#xA;c1fg6mN8jt8/20ymVOEjp14kivyOc8+lrcVY1qnmK1urlNItriOGK6kFvdahJUxRRyHg7bdQATU+&#xA;HTNjptKR6pPJ9r9tAg4sW97E/q/W9p8vf842eSIpAbuS61dnTZHkEMXQHmPS4N970zPeUtj/AJu/&#xA;I7UdNhk1XyTqyrpiJJM1jcy+pEAgJb0ZaSRv0p8f0tkJ4oy5hysGtzYtoSIH2fJhvlnQPPur6VHq&#xA;UVxZCCevoi55K5CsVJpClANj1xj2bGQsN59qNRjNE38B+xIdZtdb0/zGq+YIFhkeMpaPHvCQD1Rq&#xA;mtanrvvvTLsGEYjTga/Xz1frJ3VszXUobTIVu/NCkhSllHy8QW7fSGf8M1faGSon5PT+zem48wJ5&#xA;R9X6mX5o30RxIAqTQDqThARKQAspd+R2kHzJ+cmlSlD6FtcSanL34C3rJH/yV4DN9CPCAHy/U5fE&#xA;nKf84kvt3JOO8k/5yc8ptrn5bS38ClrvQpVvVAFSYT+7nHyCtzP+rikPmjyRfiSzlsmb44G5xgn9&#xA;h+tB7N1+eazWwoiT2fs3qbhLGecdx7j+372SSxxyxvFIOUcilXXxVhQjMKJo29FkgJxMTyIpgWgv&#xA;LpfmVbeQndzbSUH2uRop37cuJzo9Pk3B73yrXacw4oHnE/czPWYw1qHC1ZGHxeCkEH8aZsJuogku&#xA;VtjsVdirQZTIIgQZCpYJ34r1NMb3pNGrbxQh9QtzcWkka050qh/ylNdvn0yGSNhsxT4ZWrHz1brb&#xA;rzt5JLug9ZTxROX7VDVj1/yc0R0Jvns99H2liMY9JM637k48r+Xte85L9ZvZDp+ghipEQpJOQSCq&#xA;k12HRm6V7E1pn6bQxG7zvafb+bIOG6HcP0s71n8v9Bu/LT6NZ20drwBe0lUfEswGzMxqzcujV7fR&#xA;mxliBjQechqJCXEU7/IPzJ+n/LureQNekeK+tLebTmYNxm+qTAxfCxr8ULfBWlAOOYBFO2uxYZ3a&#xA;fl7pP5f/AJR+ZNItbqW7txaaheyz3PEkM1sQeKqKKAsY+mpxRbzHyDb/AFfybpEe/wAVusm//FtZ&#xA;P+Ns2GL6Q6nUH1liX5p6pb317a6Giq4s2F3eP3VipWKL/ZBizDwpkMnqNdzbgHDEy72JO6ojO32U&#xA;BZiN9gKnJE0FAs0r+Tbd/qc99IKSXkpb2KqTuP8AZFs53XZLlT6N7N6bhxGf8418B+1kGYL0iUea&#xA;r76po8oBpJcfuU7/AGvtf8LXMnS4+KfudP23qfC05A5z2/X9j1n/AJxE8pNDYax5rnSjXLDT7JiK&#xA;H046STkeIZyg+anNw+fl9FYoUru0try0mtLqMS21zG0U8TfZeNwVZT7EGmKvg/zRoF3+X/5h3ukX&#xA;HIwWspWOTf8Ae2kvxRvt1+Ag0/mFMqzY+OJDn9n6vwM0Z9OvuZQrKyhlIZWFVYGoIPcHNIRT6TGQ&#xA;IscmGedrIw30N9Ht6w4uRXZ46UP/AANKfLNnoslxrueM9o9Nw5RkHKY+0fsZW0ovNJ9YfAJoRNTr&#xA;TYPxzoLuNvCEcMqSLK2x2KuxVrS4vU8zROKj0bVnJ8TzK/8AG+QiP3nwbSf3R96K1KFIb2REFF+E&#xA;gf6yhv45YebSOSGwJS3U57UTw2srejHcun1udVqyxBgKgd+n4ZRlI5OTgiTv3Pf9J/Rn6Nt10to3&#xA;sEQJbmFgycFFAAQTXpmXGq2ddO735ovCxYB5huZPJn5iaP5zgqljcuLXVeNehHFiQOp9P4lH8yZh&#xA;6iFG3ZaPJY4e56Vq3kefQ9C/MjzlLr81/b+YNLvli09w3pwm4ViN+bBuHLhHQCi5juWxKXU4/LHk&#xA;q0luF5TWtpBbxQd5JxGEVB82G9O1Tmwvhi6jh48h97yjlO7yTXD+rdXDtNcS/wA0jmrEeA7D2yER&#xA;TdOVnbkl+tysLVbdAWkuGCKoG5AIJp71pleeVBv0uMykzCxtUtLOG2SlIUC1ApUgbt9J3zmMk+KR&#xA;L61pcAxYowH8IV8g5DCdce717zFbaTpyGeVpVtbWJerzysF2+bUX6M2+lxcMb6l4LtzWeNmofTDb&#xA;9f48n3P5J8r2nlXyppnl+1oY7CBY3kApzlPxSyU/y5GZvpzKdGneKuxV4d/zlD+Wza55dj816dFy&#xA;1LREIvFUbyWVSzH/AJ4tVv8AVLYpD5/8m6wJ7f8AR8zfvoRWEk/aj8P9j+r5ZrNZho8Qez9n9fxR&#xA;8GR9UeXu7vh93uRnm62E2hzGhLQssqgeIPE1/wBixyvSSqfvczt7Dx6Yn+aQf0fpXeT5459ChRqt&#xA;6LPFJXvvy2/2LDOmwG4Pl2pFTQHTFDsVdiqJ0hANXVwPie3lUn2V4iP14xHr+CZH0fFU1j/joSf6&#xA;qf8AJtclLmxjyQWRSoXdjb3ScZV3H2XGzD5HIygJM4ZDHkhtNuPMvl24Nzo903E09SNRVX/14jUN&#xA;12pv8so4ZQ3DkccMgqTPPL3502E3GHXbY2knQ3UALxfMpu6/Ryy2GoHVoyaI/wALKdeg0rzf5WvL&#xA;XT7mK6LpygeN1bjMvxxhuvGpFDXemWzqcdmjGTjmCUt0b8wE1r8km8pXU3HVJLyy0dkNOfo+ukiS&#xA;cfAQRMhPiuYERZp2szQtifm3zJ/iDV+cDE6VYlo7Lwkk6STbdR+yvt4VzLviN9A4AjwRrqeaUZNg&#xA;gdLjW/8AMokNDBYqXqdt0O24/wAs1+QzV67Lsa67PTez+lEswJ5R9R/Qnd95s0e1JVZDcSD9mGjD&#xA;pUfEaL91c1uPSTl5PV6nt3T4tgeM+XL5/qtK180a5qjNbaRpzvMUJIhV55AOnIBAKU+WZUNFEHc2&#xA;6XUe0eWQIjERv4lMfyY81eXfJ35g2+qeZbSV4oVeFJFHxWs0nwGZ4yKtxUsCBuK1AJFMzXnC+5YJ&#xA;4biCOeCRZYJlEkUqEMrIwqrKRsQR0xYr8VdirTojoyOoZGBVlYVBB2IIOKvi787/AMr7v8vfNa6l&#xA;pSsvl+/kMunSjcQSdXtmP+T+zXqniQ2RlEEUW7FllCQlE1IJfaahFrWjTiGgneJ4pYu6u6kfcexz&#xA;UyxnHkHdb3WLVx1mllX1cJBHnX4pLvIM7ta3cH7Ebo4+cgIP/JvOj0p5h8z1g3BV7z/eubag9RiB&#xA;8zlpaAo4EoW/upbWNZlQPEppMK0ahoFI+RyE5EbtmOAlsv0bXLE6yheQRwmB1V5KIA7MrEMTt0TI&#xA;wyji+DOeGXBXW0RrGr6Z9fdhco6kJRkPMbKAd1r3GTlljfNrjhlXJL5db05PsyGX/UVh/wASC5Dx&#xA;otg08lh8w6fx2WXl4cVp9/LB44T+WPehz5kWu1uSO/x0/wCNTg8fyZflvNQu9WsblTzsf3h6Sep8&#xA;XSg3CCtPfK5TB6NsMRj1QFtd3VpOs9rM9vOn2JYmKOPky0OVg02kA82nuJ3med5GaaQsZJCSWYvX&#xA;kSeprXfG1pMU8wTRgJDbxCJQAityJAHuCuW+MRyaTgB3KybX76RaKEh94wa/exbAcsikYIhNvIf5&#xA;febfOuoPp2gQckABu7mRjHbxrXYyPvX2UAt4DKqb+IgU978r/wDOJvlzT4lvPN2rvemMB5ba2pbW&#xA;y0HxB5WrIy+44YWFvUvI7flfpfLRPJj2HIbzx6ewuGqoJBnmQyMSOgMje2KGGf8AOSP5aadr3k+7&#xA;8yWluqa7o0f1h50ADTWsf96kh78Eq616UoOuKQV//OL3nFtc/L86TcPzvPL8ott+ptpKvAfooyD2&#xA;XFS9ixQ7FXYqlPmvyto3mnQbrRNYh9ayu14tTZ0YbrJGf2XQ7g/wxV8S+evJHmb8svNTWk9Xt3LN&#xA;p99xIiuoAe4rsw25rWqn6DleTGJCi5el1U8M+OH7D5FL/IUrjULmIfYaHm3zVwB/xPMzTH1Os1g9&#xA;I96c6rx+vyU6UX7+ArmTLm4keSGi9P1F9UMY6/FxoGp7VyKVQ+WtLvSPUv55A55CIOi79NkK7fdk&#xA;ThB5lsGoMeQX6R+Xem3/AJ10LQ5byW2s9WuDBLK3EyJQVHEkKtW6Db78ozYhGqcjBmM7sPonSv8A&#xA;nFf8rLI1ukvtT9rm44D6Pq6wH8cpb7ZVpv5J/lRpy8bfyxZOP+XlDdH77gy4otPbLyX5Osf94dC0&#xA;61oCo9G0gj2JqR8KDviqaJZ2iKESCNVUUVQqgADsBTFXG0tSCDChB2IKj+mKsY81+SvJt5aq93oW&#xA;nzyFwPUktYWanE/tFa4pD5V1zyro2m/mL5j0+G1T6pavC1tAw5Ii3EYlICtXpy2zI08QSbcbVTIA&#xA;pIfOemWMGmRTW9vHDIsoUtGqpVWU1rQCu4GT1EABYa9LkJlRL6o/ItbDWvyX0WC7t4pbeWCe0uoG&#xA;UFHSOeSKjim/JRU/PMRzCwT/AJx/tZPLHnzzf5Omc8bC7VrUNQM8ZLx+of8AWQxHFJV/zS0fSf04&#xA;l/8Amv5vMWkM5fS/KWlrKQ0at8JkYDkfBnKLXorL0xUMv8kfmr+VMVpDpHl60utPtU2ihj0264E0&#xA;ryZoo5KkjqzH5nFFPR7uC0v9Omt509W0u4WjlRh9qORSGBB8VOKvk3/nHPVJ/K/5wXXlu5f4L4XO&#xA;nTdl9e1ZnRuvX90yj/WxZF9eYsXYq7FXYqkfnLyX5f8AOGhy6PrluJ7aT4opB8MsMgFFkif9llr8&#xA;j0NRtir4g0ez/Q/na/0nn6v1aW5s/V+zy9GQjlTfr6fTLtOfU06oehNNV/3tf5L+oZly5uDHkhMi&#xA;ydiqM0C+Sw82eW71zwW21iylketAEWUc6nbYjKc/JyNOdy+5sxnKdirsVdirsVSzzD/vEn/GQf8A&#xA;EWxSHyP+aUs1r+bOtmFyvrwWrSDYiogjUdR4DLsB3cfUjYMO1uWSTTpy7F2IUVYkkAOp75bl+lpw&#xA;bSD6O/5xM1Jrj8ur2zdqtY6lKsa+EcsUbj/hy+YjnFQuIk0n/nJ29lrx/TGjxTha0q0bRp0r1pan&#xA;FRyen+bPMHm7TGiTy/5Vl8wM68pJBeWtlEhrQLWZi5PySnvihj2n/mJ+Yzy8dS/Le+towaFra/s7&#xA;k08QHNuD9+Ks0OpNNoxu3t5bOSRCPq1wFEqMfhowRnX32Y4q+Uru0S3/AOcobSK2UgNqtlMwXxli&#xA;ilkO3uzE4sn2BixdirsVdirsVfCuvL/yGnzCBsBrGqfhLNluD6w16j+7K/Va/XpAewX8VBzMlzdf&#xA;HkhMiydiqE1Y8dPldaiRODRsOqsHG4PbK8o9LdgPqfeWj6jFqekWOpQmsV7bxXEZHTjKgcdfZsxH&#xA;MReKuxV2KuxVLPMP+8Sf8ZB/xFsUh8o/nXAy/me78QBJpkMldtwJClfwpluDm06j6WEXqB7K4BFQ&#xA;Inb6VUkfqy/J9JcbF9Qeof8AOKOtzWcvmWyjIrMtpMoO9OBlViN/8sZhOwIRPnzzjpGn/n/oerX9&#xA;+gs7XTjb38yfvPTdvrShHWMMVIZ0JFMVZtJ+en5awgE+YB4DhFdN/wARjOKorSfzo8papJ6Wmaje&#xA;3bA0Igs7+Wh9+ETYrTJ9U1yG006W+1K79Gxt0MsssxIVVA6kHv7dcVeHfkpBcee/zz1Hzi8TCw03&#xA;1LlSw6F0+rWkbU/a9Orf7HCpfVOLF2KuxV2KuxV8X/n35A80aB591bXhazHSNRuWvLbU4QTGrTfE&#xA;yO6/3bK9QAevXFPMMAtvMU/L/TAZa9ZRTl9I6HLo5j1aJ6cHknMFzBcLyhcOvenUfMHcdMyIyB5O&#xA;LKBjzVMLFRvADZzgitY3oPfiafjkZjYs8ZqQfX/5Hat+lfyn8tXB2MVoLQj/AJhHa2H4RZhOwLOc&#xA;UOxV2KuxVLteFbD5OD+vFIfLH/OQBjs/Pmn3kxKQXOliEPQkco7h3PSvZh0yeOVFhliZRoPL7vW7&#xA;JoZok5sXVlVgAFNRTuQfwy2WYVTRDBIG03/KLyRqnnTzcmiWl5Np9rJC76leQBjxgUV4sAVB5vxU&#xA;VPU5juWX0np3/OLX5VWsIS5ivb+Sm8s9yyGvyhEQxRbDPPf/ADjFqNlrNrq35d/V/RiAMmm37CXh&#xA;KvR0M6yI6t3V+h6eytty2f8AzlVHF9Xi0WyooAW4iksQdqbgPOF/4TAm0quvyZ/5yB85vFD5q1GG&#xA;zsgwLxyzRFBT9oQ2YMbsO1T9OFbe9flt+XOi+QvLqaRppM0rt6t7fSACSeUinIgfZUDZV7DxNSVi&#xA;yvFXYq7FXYq7FWnRHRkdQyMCrKwqCDsQQcVeV+fP+ccvIHmdZLixg/QOqNUi5slAhZj/AL8t9kP+&#xA;x4n3xTb5086/kT+Y/k+R7k2bajp6E8dR07lKAvjIgHqR7dSRx9zinYsLt9fu46CULMvf9lqAeI2/&#xA;DLRmIaZaeJ8kdD5jtftSxOrA1CrRh9JJTJ+OO5r/ACx6F9Kf84k62LryJqOlO/KbTb4uqfyw3Mas&#xA;n3yJJmO5Je5YodirsVdiqB1sV06Q+BU/iBikPBfzQ8uaTr35j+SNN1SMy2V2morPGHZOQhhWVByU&#xA;hh8Q7HAlif58/l15Y8v+VtMvtC09LL0rr6tMULMXSWNnBkZyzNxMWxJ74q95/I/TtJs/yu8vPp9v&#xA;HCbmzjlunjUBpJmB9Rnbqx5V6/IbYUFneKHYq7FXYq7FXYq7FXYq7FXYq7FXYq7FWL+Y/wArvy+8&#xA;yO0us6DaXM7/AG7lU9GY/OWExyH/AILFbYdf/wDOMX5UT2txHa2E9pcSIwhmW5nf03I+Fgrs4ND4&#xA;4pt5X/zirqVxo/5h615avKRPd2zq8R6m5sZacR8keX7sUl9W4sXYq7FXYqhdUXlp84/ya/ca4q8S&#xA;89yiL8z/AMu2IrWTU12/y7eNR+vAyR/5yaWdS/LXW4lA5wQrdKT2+rusrU/2CkYqiv8AnFzXP0j+&#xA;VsVkzVk0i7ntaHrwci4U/wDJYgfLCgvXsUOxV2KuxV2KuxV2KuxV2KuxV2KuxV2KuxV2Kvkzz4o/&#xA;L/8A5yVtNb2hsL26h1BpD0EN5WG8b/gjKcWXR9Z4sXYq7FXYqp3Kepbyp/MjD7xirwD8476HStd8&#xA;kazczehY2WpsLqYVJVHCcjRQSRxVq4GSC/MH87fIE3lfVdL067k1G81C0ntI1hidURp4igd3lEYo&#xA;OX7NTiqO/wCcPrW8Ty95huXRhaTXUCQOa8S8cbGSnyDpXCgvoLFDsVdirsVdirsVdirsVdirsVdi&#xA;rsVdirsVdir5+/5y68r/AFnQNI8ywx1ksJ2s7ph19K4HJC3ssiU/2WKQ9O/KDzla+a/IGj363CzX&#xA;8dulvqSclMi3EI9Ny6g1XmV5ivYjFBZnirsVdiqDutWs7eoL83/kTf7z0GKvAf8AnJS1M/kOCdQB&#xA;9W1CKRhUfZaOVKCvuwwMlH8k/wAgfIHmDyZpfmjWvrOoXF76rNaGT0bdfSneLjSMLIf7vc89/DCg&#xA;l9DaXpWm6TYQ6fplrFZ2NuvGG2hUIiitTRR4nc+OKEVirsVdirsVdirsVdirsVdirsVdirsVdirs&#xA;VdiqR+ePK9v5p8par5fnIVdQgaOOQioSUfFE5H+RIqt9GKvkHVPyG/OLy3dfWLXTJbgxn91e6VKJ&#xA;Gr4qqFZx9KDFlbVv+YX5/wDlyscl7rUHHquowPORv/y9xyU32xVMrf8A5ya/OC1ipcTW05NCJJ7R&#xA;VNOn+6/TXr7YrTc3/OS35rXiD4LQqNm9O3koa9KjmRitIFvzR/PHVCRZ/WuLE0S0sFb3oG9J22Hv&#xA;gVbZfld+ePne6ij1G01H0S1frOsPJDDEDtzCTfFT/jGhOFbfWv5eeTLXyZ5Q0/y7bzNci0VjLcMO&#xA;JkllcySMF7Dk2w8MWLI8VdirsVdirsVdirsVf//Z</xmpGImg:image>
               </rdf:li>
            </rdf:Alt>
         </xmp:Thumbnails>
         <xmpTPg:MaxPageSize rdf:parseType="Resource">
            <stDim:w>2000.000092</stDim:w>
            <stDim:h>2760.999878</stDim:h>
            <stDim:unit>Pixels</stDim:unit>
         </xmpTPg:MaxPageSize>
         <xmpTPg:NPages>1</xmpTPg:NPages>
         <xmpTPg:HasVisibleTransparency>False</xmpTPg:HasVisibleTransparency>
         <xmpTPg:HasVisibleOverprint>False</xmpTPg:HasVisibleOverprint>
         <xmpTPg:PlateNames>
            <rdf:Seq>
               <rdf:li>Cyan</rdf:li>
               <rdf:li>Magenta</rdf:li>
               <rdf:li>Yellow</rdf:li>
               <rdf:li>Black</rdf:li>
            </rdf:Seq>
         </xmpTPg:PlateNames>
         <xmpTPg:SwatchGroups>
            <rdf:Seq>
               <rdf:li rdf:parseType="Resource">
                  <xmpG:groupName>Default Swatch Group</xmpG:groupName>
                  <xmpG:groupType>0</xmpG:groupType>
               </rdf:li>
            </rdf:Seq>
         </xmpTPg:SwatchGroups>
      </rdf:Description>
   </rdf:RDF>
</x:xmpmeta>
                                                                                                    
                                                                                                    
                                                                                                    
                                                                                                    
                                                                                                    
                                                                                                    
                                                                                                    
                                                                                                    
                                                                                                    
                                                                                                    
                                                                                                    
                                                                                                    
                                                                                                    
                                                                                                    
                                                                                                    
                                                                                                    
                                                                                                    
                                                                                                    
                                                                                                    
                                                                                                    
                           
<?xpacket end="w"?>
	</metadata>
<g>
	<g>
		<path class="st0" d="M2,1358c0-15.3,0-30.7,0-46c2-11.9,4.1-23.8,3.3-35.9c3.8-67,13.9-133.1,30.7-198.1
			c42.4-164,120.3-308.9,233.8-434.6c28.8-32,59.7-61.8,92.5-89.7c3.7-3.2,5.9-6.3,6.1-11.7c0.6-19.3,2.5-38.6,5.8-57.6
			c5.4-31,13.9-61,29.9-88.4c14.3-24.4,33.3-44.1,58.8-56.8c4.3-2.1,6.4-4.8,7.7-9.4c9.5-34.2,25.8-64.8,49.2-91.6
			c23-26.4,50.4-47.4,79.7-66.1c36.5-23.3,75.4-42.5,112.6-64.6c62.4-37,129.8-61.3,199-81.3C961.5,11.5,1013.6,6,1065.9,3.7
			c18,0,36.1,0,54.1,0c10,0.7,19.9,1.3,29.9,2c47.7,3.2,94.5,11.2,140.4,24.5c60.5,17.6,115.8,45.1,163.5,86.9
			c34.9,30.6,67.6,63.3,98.7,97.7c46.8,51.6,78.5,111.1,97.1,178.1c16.7,60.2,26.6,121.6,30.3,183.9c0.5,8.8,2.9,15.4,9.5,21.7
			c36.2,34.6,69.3,72.1,99.5,112c125.5,166.2,194.5,353.4,208.4,561c5.4,81.1,0.7,161.8-13,242c-17.9,104.8-51.1,204.5-100,298.9
			c-6.6,12.7-13.3,25.3-20.6,37.7c-2.8,4.7-1.9,6.5,2.7,8.9c21.3,10.8,36.1,28,46.4,49.3c1.9,3.9,3.6,7.9,5.4,11.8
			c16.7,38.5,30,78.3,41.7,118.6c4.8,16.6,9.8,33.2,12.1,50.4c2.8,21.7,1.1,43.3-2.2,64.7c-5.1,32.8-14.6,64.2-30.8,93.3
			c-16.5,29.6-40.2,48.2-74.2,55.1c-52.1,10.7-103.8,8.5-156,1.2c-17.5-2.5-28.4-11-36.8-25.1c-1-1.7-2.3-3.3-3.1-5.1
			c-1.8-4.5-5-5.4-9.5-5.3c-11.3,0.3-22.7-0.3-34,0.4c-30.4,1.7-60.1,6.7-88.3,19.3c-5.6,2.5-7.9,5.3-7.8,11.8
			c0.4,16.3-7.4,27.9-22.3,34.7c-4.5,2-9.1,4.6-13.9,5.4c-8.4,1.3-10.3,6.7-11.2,13.8c-2.2,16.7-1.5,33.3,0.8,49.8
			c4,28.4,11.7,56,18,83.9c5.1,22.8,9,45.7,7.1,69.3c-1.6,19.6-10.5,34.8-27.1,45.3c-8.8,5.6-18.4,9.4-28.2,12.5
			c-14,4.4-28.4,7.1-42.7,10c-8.1,1.7-8.1,1.6-8.3,10.3c-0.4,15.7,0.4,31.4,3.3,46.8c2.2,11.2-0.8,20.3-7,29
			c-5.8,8.3-13.3,14.9-21.7,20.4c-13.3,8.6-27.8,14.4-43.2,17.6c-28.5,5.9-57.5,7.4-86.3,9.9c-18.2,1.6-36.5,2.7-54.8,4
			c-6.6-1-13.2,0.6-19.7,0.3c-5.4-1.1-10.9-0.2-16.4-0.1c-5.3,0.4-10.9-1.5-15.9,1.9c-13.3,0-26.7,0-40,0c-10-2.8-20.1-2.2-30.2-1.8
			c-5.9-0.1-11.8-0.2-17.7-0.2c-26.8-2.8-53.8-4.1-80.5-8c-34.3-5-68.2-11.8-101.2-22.5c-5.2-1.7-8.2-4.4-10.2-9.6
			c-7.7-20.2-15.2-40.5-22.2-61c-23.5-69.3-42.7-140-63.6-210.1c-2.7-9.2-2.7-9.4-11.8-8.8c-46.9,3.4-92.2-4.4-136.5-19.5
			c-37.3-12.8-72.6-29.7-107.7-47.3c-34.5-17.3-68.9-34.7-105.5-47.3c-7.9-2.7-15.3-6.5-22.6-10.5c-15.1-8.2-23.7-20.8-26.3-37.8
			c-2.6-17.2-3.6-34.5-3.4-51.8c0.3-35.7-3-71.2-4.8-106.8c-0.3-5-2.1-8.5-6-11.9c-78.3-69.1-144.4-148.4-198.2-237.8
			C89.6,1768.9,47.1,1659,23.7,1541.6C14.1,1493.5,8,1445,5.1,1396.1c1.1-3.2,0.3-6.5,0-9.8C4.2,1376.9,3.1,1367.4,2,1358z
			 M1446,1330c7.7,0.1,14.8-3.3,22.3-4.4c4.9,3.4,11,1.7,16.3,3.8c10.9,4.4,19,12,25.8,21.3c2.9,4,5.1,8.6,9.2,11.8
			c0.1,3.8,1.7,7.1,3.1,10.5c11.8,27.2,17.1,56,18.8,85.2c1.4,22.8,1.7,45.8-1.2,68.7c-2.7,21.2-6.3,42-14.7,61.8
			c-2.2,5.1-1.8,9.6,0.8,14.3c4,7.4,9.2,13.8,15.2,19.6c5.2,5.2,10.2,10.5,14.1,16.8c2.8,4.5,2.7,8.6,0.1,13.1
			c-10.2,17.5-20,35.3-30.5,52.6c-39.8,65.7-79.9,131.2-119.7,196.9c-7.6,12.5-15.8,24.6-21.5,38.1c-0.8,0.4-1,0.7-0.3,0.8
			c0.1,0,0.3-0.5,0.4-0.7c4.2,0.4,7.7-1.8,11.5-3c7-2.2,14-4,21.2-5.3c20.8-3.8,41.8-0.7,62.7-3.4c10.5-1.3,21.2-1.2,31.8-2.3
			c22.9-2.3,39.4-12.9,48-34.6c1.2-3.1,3-6,4.3-9c4.2-10.1,8.3-20.3,12.5-30.5c21-51.4,41.1-103.3,58.9-155.9
			c11-32.5,21.1-65.2,30.1-98.3c10-36.9,18.1-74.2,25-111.8c1.5-6.5,1.6-13.2,2.9-19.7c2.7-13.7-1.1-25.7-8.4-36.9
			c-6.5-9.8-14.8-18.1-24.1-25.1c-28.7-21.7-55.7-45.3-80.6-71.3c-11-11.5-22.4-22.8-34-33.7c-9.4-8.9-19.5-17.1-29.1-25.8
			c-3.5-3.1-5.8-3.3-8.8,0.7c-5.6,7.5-12.5,13.7-19.9,19.5c-9.4,7.4-18.7,14.9-28,22.4C1454.5,1319.9,1449.7,1324.3,1446,1330
			c-0.9,0.3-1,0.6-0.4,0.7C1445.7,1330.7,1445.9,1330.2,1446,1330z M1255.9,1470.9c-11.1-1.4-20.7,3.2-30.3,7.9
			c-5.2,2.6-7.1,6.5-7.1,12c0,12.7,2.1,25.1,5.8,37.2c1.2,5.8,2.4,11.7,3.5,17.5c0.5,2.5,1.4,4.4,4,5.2c14.3,4.5,32.2,4.6,44.8-7.7
			c13.6-13.2,16.2-38,5.8-55.4C1276.4,1477.5,1268,1471.3,1255.9,1470.9z M758.1,1412c4.8,6.7,11.9,10.4,18.7,14.4
			c27.8,16.1,57.7,26.6,89,33.4c4.4,1,9.6,3.9,13.5,1.4c4.6-2.8,1.7-9.2,3.3-13.8c0.3-0.9,0.3-2,0.4-2.9c3-9.4,6.3-18.9,7.3-28.8
			c0.8-7.8,0.2-8.6-7.6-9.4c-16.2-1.6-32.4-2.8-48.5-4.4c-26.7-2.5-53.8-3.2-78-16.8c-3.3-1.9-4.8-0.4-6.3,2.1
			c-2.7,4.7-2.7,9.5-0.5,14.3C751.3,1405.7,753.8,1409.6,758.1,1412z M784.3,160.2c1.2,0.4,1.8-0.1,2-1.3c3.7-1.7,7-4,9.4-7.2
			c3.8-5.1,9.1-7.4,14.9-9.3c3.5-1.1,6.9-2.4,10.2-3.9c3.8-1.7,6.4-4.6,8.1-8.4c1.9-4.2,1.1-7.5-2.6-10.5
			c-5.2-4.3-10.6-4.6-16.8-2.7c-16.8,5.2-33.6,10.7-49.9,17.2c-63.1,25.2-121.9,57.9-173.1,103.1c-25.4,22.4-47.6,47.4-63.8,77.4
			c-1.8,3.3-4.1,6.5-4.4,11.1c13-1.6,24.6-5.4,36-9.7c10.5-4,21.7-6.2,31.5-12.1c1.7,0.1,3.4,0.5,5,0.1c15.5-3.8,30.9-3,46.5-0.4
			c14.8,2.5,27.7-1.7,37.8-13.3c3.3-3.8,6.7-7.5,9.7-11.4c10-12.9,18.4-27,26.2-41.3c13.6-24.7,30.7-45.9,54.5-61.3
			c4.2-2.7,8.2-5.7,12-8.9c2.4-2.1,6.1-3.2,6.6-7.1L784.3,160.2z M1355.5,1863.9c5-21,7.9-42.4,10.4-63.8
			c4.6-40.6,5.8-81.4,7.7-122.2c0.4-8.6,1.2-17.2,0.2-25.8c1.9-10.5,1.8-21.2,2.4-31.8c0.2-3.1-0.4-5.1-4.1-5.2
			c-17.9-0.4-32.2-9.5-46.1-19.4c-6.5-4.6-13-9.3-20.1-13c-10-5.2-20.2-6.1-30.7-1.3c-7,3.2-13.9,6.4-20.9,9.5
			c-7.1,3.1-15,6.5-22.2,4.1c-11.3-3.8-17.2,1.3-22.8,9.5c-2.6,3.8-5.9,7.1-9,10.8c1.3,1.8,2.4,3.5,3.6,5
			c15.4,19.3,28.6,40.1,40.4,61.7c17.2,31.2,31.5,63.8,45.7,96.4c16.1,37.2,31.7,74.7,50.4,110.7c1.6,3,2.4,6.7,6.4,9.1
			C1350.4,1886.3,1353.5,1875.3,1355.5,1863.9z M1585,2175.8c0.1-0.7,0.4-1.3,0.3-2c-2.1-38.6-6.5-76.9-15.8-114.5
			c-5.3-21.3-12.4-42.1-22.7-61.6c-2.1-4.1-4.4-7.2-9.5-7.5c-16-1.2-31.9,0-47.9,1.4c-2.5,0.2-3.4,1.6-3.1,4c0.3,2,0.6,4,0.8,5.9
			c3.8,35.7,9.7,71.2,15.1,106.7c4.7,30.6,9.4,61.1,14.1,91.7c1.2,11.6,2.6,23.1,3.6,34.7c1.5,17.8,2.1,18.3,19.6,14.6
			c0.6-0.1,1.3-0.4,1.9-0.6c14.4-3.1,27.4-10.3,41.6-13.8c2.9-0.7,3.4-2.7,3.3-5.3C1586,2211.7,1587,2193.7,1585,2175.8z
			 M1493.9,1424c-1-9.1-5-17.2-8.9-25.3c-6.1-12.7-16.7-18.4-30.5-18.9c-12.6-0.5-24.3,3-35.8,7.7c-19.8,8.1-37.6,19.9-55.4,31.6
			c-16.4,10.8-32,22.8-49.8,31.5c-4.1,2-3.9,4.6-2.4,8.1c2.8,6.7,6,13.3,7.4,20.6c1.3,6.8,1.6,6.9,8.6,5.8
			c15.5-2.5,30.5-0.3,45.3,4.2c2.7,0.8,5.5,1.4,7.9,4.5c-7.1,0.8-13.3,1.5-19.6,2.1c-8,0.7-15.9,2-23.5,4.4
			c-11.5,3.7-13.2,5.9-13.3,17.9c-0.1,8.7,0.1,17.3,0.5,26c0.3,5.5-2.8,12.3,1.3,16.3c3.8,3.6,10.5,3.6,16.1,4.6
			c0.9,0.3,1.9,0.7,2.8,1c26.9,6.5,54.1,10.8,81.6,13.6c19.2,1.9,38.5,2.6,57.7,4.2c6.8,0.6,10.8-2,13.1-8c1.7-4.3,3.7-8.6,4.9-13.1
			c4.7-17.1,6.4-34.7,5.3-52.4c-0.8-12.6-1.8-25.2-3.5-37.7C1501.6,1456.3,1499.8,1439.7,1493.9,1424z M1368.2,1908.2
			c11.6-14.6,22.4-29.8,33-45.1c35.2-51,66.1-104.6,97.1-158.2c7.8-13.5,15.5-27.2,23.6-40.5c2.4-4,2.3-7.1-0.4-10.8
			c-6-8-12.5-15.6-20.3-21.9c-25.9-21.3-54.8-27.6-86.9-16.9c-9.3,3.1-9.6,3.6-10,13.4c-1.7,50.9-5.9,101.6-12.2,152.1
			c-5,40-11.7,79.6-22.6,118.4c-0.9,3.2-2.4,6.3-1.2,9.7C1368.3,1908.3,1368.3,1908.2,1368.2,1908.2z M1348.1,2088
			c0.3,19.3,0.3,38.5,1.4,57.9c1.5,26.5,2.9,53.1,4.2,79.7c1.2,24.6,4.2,49,4.6,73.6c0.1,8.3,2.3,9.7,10.7,8.2
			c6.2-1.1,12.4-2.4,18.6-3.2c22.4-2.9,44.5-7.5,66.7-11.9c4.8-1,6.1-3.1,5.5-7.5c-2.9-21.1-4.6-42.2-6.1-63.4
			c-0.7-9.9-1-19.9-1.9-29.8c-1.8-21.2-3.7-42.3-5.6-63.5c-1.4-15.9-2.5-31.8-4.7-47.6c-0.8-5.4,0.2-11.4-3.1-16.4
			c-0.8-20.7-6.3-40.6-10.9-60.7c-0.9-3.9-3.7-5.2-7.4-5c-10.6,0.6-21.2,1.1-31.8,1.5c-11.7,0.4-23,2.9-34.3,5.6
			c-5.7,1.4-7.3,4.3-7.4,9.8C1346.2,2039.5,1346.3,2063.7,1348.1,2088z M1197.4,1543.9c1.7-5.2-2.4-6.2-5.6-7.7
			c-15.3-6.9-31.1-11.8-47.7-14.3c-6.6-1-13.2-1.8-21.7-3c12.8-6.4,24.7-8.1,36.3-10.8c9.7-2.3,19.5-4.6,28.5-9.1
			c5.1-2.6,6.5-6.9,5.6-13.5c-0.7-4.9-4.7-4.3-7.6-4.7c-15.9-2.2-30.1-8.5-43.2-17.3c-20.8-14-43.3-24.9-66.3-34.7
			c-32.6-13.8-66-25-100.8-31.9c-20.3-4-35.3,3.7-44,22.5c-3.1,6.7-5.2,13.7-6.7,20.9c-4.2,20-4.3,40.4-4.1,60.7
			c0.2,18.7,0.4,37.3,3.4,55.8c5.7,34.8,19.2,67.1,32.5,99.4c2.2,7.7,4,15.4,6.6,22.9c4.2,12.3,10.7,16.3,23.8,13.8
			c46.6-8.7,90.3-24.8,129-52.9c26.9-19.6,50.7-43.1,77.7-62.5c2.4-1.7,3.4-3.8,3.5-6.7C1196.7,1561.8,1198.6,1552.9,1197.4,1543.9z
			 M655.9,369.9c-1.1-8.3-3.9-16.1-6.3-24.1c-1.1-3.8-3.3-5.2-7.4-4.6c-6.9,1.1-13.9,1.6-20.8,2.7c-57.2,9.1-106.8,33.4-148.2,74.3
			c-17.5,17.3-29.3,37.7-35.9,61.2c-5.6,19.6-8.4,39.7-9.2,60c-1.3,29.3,0,58.6,2.4,87.8c0.6,7.8,1.6,15.5,2.4,23.6
			c5.7-1.3,9.4-4,12.8-7.1c2.5,0.5,4.5-1,6.6-1.8c21-8.4,42.5-12.3,65.2-10.3c27.7,2.4,52.4,11.6,74.1,28.9
			c26.6,21.1,42.4,48.1,44.5,82.5c0.4,7,2,8.1,8.6,6.6c6.7-1.6,11.2-5.4,13.4-12.1c1.8-5.5,2.3-11.1,1.1-16.7
			c-1.4-6.5-2.7-13-4.4-19.4c-3.5-12.8-7.7-25.5-10.7-38.4c-8.2-35.5-6-71.3-1.4-107.1c4.9-38.2,12.6-76,16-114.5
			C660.8,417.3,660.3,393.6,655.9,369.9z M1410,159.9L1410,159.9c-4.1-4.4-9.4-7.3-14.5-10.3c-30.1-18-61.9-32.5-94.7-44.4
			C1224,77.2,1145.3,60.6,1063.1,66c-38.2,2.5-75,11-109.3,28.6c-23.4,12-46.6,24.3-69.3,37.7c-45.7,27-89.3,56.9-128.1,93.4
			c-28.6,26.9-53.6,56.5-71.2,91.9c-2.6,5.2-3.1,9.5-0.9,15c9.4,23.1,13,47.4,13.4,72.2c0.3,19.4-2.8,38.5-5.1,57.6
			c-1.2,5.5-2.4,11-3.5,16.6c-6.6,33.3-15.2,66.1-20,99.8c-3.5,24.5-5.1,49-0.7,73.6c3.2,18,8.2,35.7,12.7,53.4
			c5.3,20.6,10.2,41.3,11.5,62.7c0.3,5.6-1.5,9.6-5.4,13.2c-6.5,6-14.3,9.7-22.6,12.3c-17.4,5.4-35.3,6.5-53.3,6
			c-7.5-0.2-7.5-0.3-9.2-7.3c-2.3-9.6-3.6-19.6-7.8-28.7c-4.8-20.7-13.5-39.6-27.3-55.8c-11.5-13.5-26.2-21.5-43.7-23.6
			c-14.3-1.7-28.5-0.9-42.6,2.6c-56.7,14.2-96.8,72.3-91.8,133.3c3.8,46.9,20.8,89,49.2,126.5c3,3.9,5.4,8.4,9.9,10.8
			c15.5,18.6,34.9,31.6,58.4,37.7c23.6,6.1,45.5,2.8,64.2-14.1c4.2-3.8,8.8-7.1,13.4-10.4c7.1-5.1,14.9-8.7,23.6-10.1
			c3.6-0.6,7.3-1.6,10.4,1.3c6.8,17.4,1.9,31.8-11,44.4c-5.2,5.1-10.3,10.5-15.5,15.6c-10.3,10.2-13.3,22.2-10.8,36.5
			c14.6,81.6,44.8,157.1,87.5,227.8c7.4,12.3,16.2,23.7,27,33.2c31.7,27.8,69.8,40.3,110.6,46.4c0.6,0.3,1.2,0.8,1.8,0.9
			c30.2,5.3,60.8,7.9,91.4,9.8c3.1,0.2,5-0.8,6.6-3.4c8.5-13.8,21.8-20,36.9-23.4c19.8-4.4,39.7-3.5,59.6-0.8c2,0.3,3.9,0.7,5.9,0.8
			c1.6,0.1,3.6,1.1,5.4-1.2c-15-7.7-29-16-41.6-26.4c-52.6-43.2-98.3-92.8-137.4-148.4c-12.7-18.1-22-38-27.4-59.6
			c-2.2-8.7-4.1-17.5-3.5-28.8c3.8,5.2,6.4,8.7,8.9,12.1c25.5,35.4,51.1,70.8,79.4,104.1c43.7,51.3,94.5,93.4,155.3,123.4
			c66.9,33.1,136,42.3,208.7,24.4c56.2-13.8,107.7-38,156.6-68.6c27.6-17.3,50.3-39.3,68.5-66.1c11.9-17.7,23.8-35.4,35.7-53
			c18-26.5,33.8-54.3,47.4-83.3c51.6-109.9,75.2-226.4,79.9-347.1c2.2-55.4-1.6-110.6-4.5-165.8c-1.6-29.3-4.9-58.4-11.2-87.1
			c-12.5-57.7-47.2-95-102.9-113c-29.9-9.7-58.5-7.2-84.1,13c-0.8,0.6-1.8,0.7-2.8,0.1c-0.4-2.9-0.9-5.8-1.3-8.8
			c0.6-4.9,0.8-10,2-14.8c5-20.4,18.8-33.2,37.7-40.7c20.1-8,40.8-8,61.7-3.4c2.4,0.5,4.8,1.5,8.3,0.2c-13.9-17.6-26-35.3-40.2-51.6
			c-17.6-24.6-37.5-47.3-59-68.5c-10.8-10.7-21.8-21.3-34.9-29.3C1412.2,160.7,1411.3,160,1410,159.9z M1612,1972.3
			c-5.6,2.4-9.9,6.7-14.7,10.2c-4.9,3.6-6,7.5-4.2,13.7c8,27.9,12.8,56.5,16.7,85.2c6.1,45.6,10.1,91.4,14.3,137.1
			c0.7,7.4,0.7,7.4,8.3,7.7c25.7,0.9,51.3-1.3,76.9-3.2c27.3-2,54.5-4.4,81.8-1.1c12.4,1.5,24.7,3.7,36.3,8.9
			c-1.7,2.6-4.2,2.7-6.4,3.3c-16.1,4.5-32.6,6.9-48.9,9.8c-18.3,3.3-36.7,6.5-54.1,13.7c-3.2,1.3-7.1,1.8-9.1,5.6
			c8.7,3.9,17.9,5.5,27.1,6.7c31.4,3.9,62.5,0.8,93.5-4.4c35.5-6,60.5-26.2,76.8-57.7c10-19.2,14.9-39.8,15.7-61.4
			c0.5-13.7-0.7-27.3-3.9-40.7c-5.3-22.6-9.1-45.6-16.1-67.8c0.3-3.8-1.1-7.2-2-10.7c-7-27.7-14.1-55.4-26.3-81.4
			c-10.5-22.4-28.1-37.6-51-46.5c-15.7-6.1-31.1-5.3-45.8,4c-12.1,7.7-25,13.8-38.5,18.6c-27.8,10-55.7,19.6-83.5,29.6
			C1640,1957.1,1625.2,1963.1,1612,1972.3z M1604,1908c2.9,0.3,5.1-1.5,7.4-2.6c16-7.4,31.9-15.1,48.1-22.1
			c41.1-17.8,83.3-32.2,128.2-36.5c7.3-0.7,11.1-3.6,14.6-9.5c54-91,92.4-188.2,114.7-291.6c11.5-53.5,18.7-107.5,21.1-162.2
			c1.2-29,1.6-57.9,0.3-86.9c-1.3-28-3.4-55.9-6.9-83.6c-7.6-59.6-20.5-118-38.8-175.3c-22.4-69.8-52.4-136.1-89.7-199.1
			c-32.2-54.3-69.7-104.8-111.9-151.9c-2-2.3-3.7-5.4-8-6c-0.2,2.9-0.5,5.1-0.5,7.4c-0.5,18-1,35.9-2.1,53.9
			c-1.9,30.9-4.8,61.7-8.9,92.4c-7.7,58.5-19.4,116.2-35.3,173c-14.9,53.4-31.9,105.9-63,152.6c-6.6,9.9-11.5,21-15.9,32.2
			c-5.1,12.8-3.5,23.7,5.6,34.2c8.3,9.6,16.9,18.9,26.4,27.2c31.8,27.9,63.8,55.5,95.8,83.3c17.1,14.9,34.3,29.6,48.5,47.5
			c11.2,14.1,17.5,29.6,16.5,48c-0.7,12.4-2.5,24.5-5.3,36.5c-6.7,29.3-17.4,57.3-26,86c-34.6,115.9-70.9,231.2-113.3,344.4
			C1604.5,1902.2,1603,1904.9,1604,1908c-0.3,0.2-0.6,0.4-0.9,0.6c0.2,0,0.4,0.1,0.6,0C1605,1908.4,1603.1,1908.9,1604,1908z
			 M339.8,768c1.4-7.9,2.6-15.7,4.3-23.5c4.6-21.6,10.2-42.6,25-60.1c15.3-18.1,7.6-38,4-57.7c-3.8,0.9-5.2,2.9-6.8,4.4
			c-37.4,35.3-71.8,73.3-103,114.1c-74.7,97.7-128.9,205.8-162.6,324.1c-22,77.2-34,156.1-36.5,236.3c-1.1,35-0.8,70,2.1,104.9
			c1.5,17.2,2.2,34.6,5.7,51.6c0,9.7,2.3,19.1,3.7,28.6c8.1,54.2,21.2,107.1,38.7,159c30.9,91.6,74.3,176.7,130.7,255.2
			c28.3,39.3,59.1,76.4,93.1,110.9c2.1,2.1,3.6,5.7,8.2,5c-0.3-5-0.4-9.6-1-14.2c-3.4-27.1-6.8-54.2-11.5-81
			c-6.8-38.7-14.3-77.3-26.6-114.7c-16.2-49.4-37.7-96.8-54-146.2c-10.8-32.9-24.8-64.7-34.1-98.1c-4.6-16.7-8.6-33.5-7.7-51.1
			c0.7-14,5.8-25.8,15.5-35.8c8.7-9,19.1-15.7,30.3-20.9c27.7-12.7,53.1-28.8,78.3-45.9c60.1-40.8,124.1-75.4,186.9-111.9
			c17.9-10.4,35.9-20.4,52.8-32.4c11.2-8,14.5-18.4,12.8-31.3c-0.7-5.4-2.5-10.4-4.5-15.3c-4.5-10.8-10.7-20.7-17-30.5
			c-6.1-9.5-12.4-18.9-17.1-29.3c-12.7-28.1-21.3-57.4-24.9-88.1c-1.1-9.4-1.3-9.4-10.1-11.4c-54.7-12.1-96.5-42.7-125.8-89.8
			c-31.2-50.3-46.8-105.7-49-164.8C339.3,794.6,339.8,781.3,339.8,768z M1268.1,1999.9c-1.9-0.5-3.8-1.4-5.7-1.6
			c-42.4-5.4-84.9-7.9-127.6-8c-51.7-0.2-103.2,2.7-154.7,7.3c-67.1,5.9-133.6,15.4-199.9,27c-5.9,1-13.7-0.1-17,4.1
			c-3.8,4.7-0.2,12.1,0.5,18.3c7.4,68.9,16.9,137.5,28,205.8c16,98,36.7,194.9,62.7,290.7c10.7,39.5,22.5,78.7,35,117.6
			c1.6,5.1,4,7.8,9.2,9c7.8,1.8,15.4,4.2,23.1,6.2c48.4,12.9,97.6,20.9,147.5,25.2c23.5,2.1,47.2,3.9,70.9,2.5
			c3.2,1.4,6.6,0.8,9.9,0.8c41,0,81.9-2.7,122.5-9.1c26-4.1,51.6-9.7,77-17c8.3-2.4,7.2-4.1,6-10.5c-1.2-6.2-2.4-12.4-3.3-18.7
			c-7.7-48.1-10.6-96.6-12.2-145.3c-1.3-40.6-2.4-81.3-4.2-121.9c-1.1-24.6-2.5-49.2-5.1-73.8c-2.5-23.9-5-47.7-6.3-71.7
			c-2.6-47.2-4.1-94.5-6.5-141.8c-1.4-27.6-4.2-55.1-7.9-82.5c-0.6-4.1-1.6-6.7-6.3-7.4C1291.7,2003.3,1280.2,2000,1268.1,1999.9z
			 M754.1,1712.1c0.6,5.9,1.5,11.9,1.7,17.8c0.7,26-2.7,51.7-4.4,77.6c-1.4,20.5-3.5,41-2.9,61.7c0.1,4.6,1,9.3,0.6,13.9
			c-1.7,20.3-0.5,40.5,1.3,60.7c0.8,8.6,3.5,16.9,7,24.9c1.8,4.2,4.4,6.2,9.2,5.7c9.9-1.1,19.8-2,29.6-4.2
			c8.9-0.9,17.8-1.8,26.7-2.8c15.2-1.7,30.3-3.6,45.5-5.3c14.5-1.7,29-3.4,43.6-4.5c17.9-1.4,35.6-4.1,53.5-5.2
			c11.6-0.7,23.3-1.6,34.8-2.8c22.1-2.3,44.4-3.2,66.5-5c23.8-2,47.8-3.1,71.7-3.9c21.9-0.7,43.9-2.4,65.8-2.5c2.4,0,4.8,0,7.2,0
			c-3.5-3.1-7.1-4.7-10.8-6.2c-29.3-12-58.7-23.5-86.9-38c-12.7-6.6-25.1-13.9-38.1-19.8c-19.4-8.8-38.5-18.4-57.4-28.1
			c-10.1-5.2-19.4-11.5-27.4-19.8c-8.1-8.5-10.3-18.5-7.9-29.5c1.6-7.1,4.1-14,8.6-20.1c6.1-8.3,12.1-16.7,18-25.2
			c4.3-6.2,8.3-12.6,9.9-21.1c-7.2,0.5-12.5,4.3-18.5,5.7c-23,5.7-37.2,0.9-50.9-15.4c-2.5-3-4.6-6.6-6.6-10
			c-6.6-10.9-11.3-22.6-15.1-34.7c-8-25.7-16.1-51.5-23.6-77.3c-7-23.9-13.2-48.1-16.6-72.9c-1.1-7.7-4.1-12.4-11.4-15.7
			c-31.9-14.4-63.4-29.7-94.3-46c-34.6-18.3-70.1-35.7-98.2-64.1c-3.2-7.2-9.3-12.1-14.2-17.9c-14.6-17.3-29.2-34.6-45.1-50.7
			c-7-7.1-13.3-8.8-22.9-4.8c-37.5,15.8-73.8,33.9-109,54.3c-75.4,43.7-145.5,94.9-214.4,148c-6,4.7-6.2,5.3-3,12.6
			c5.1,11.9,10.6,23.7,15.5,35.7c35.8,86,61.4,175.2,80.4,266.2c17.3,82.4,28.6,165.8,35.9,249.6c3.2,36.8,5.9,73.6,7,110.5
			c0.4,12.9,1.3,25.9,1.5,38.9c0.1,3.1,0.4,6,3.7,7.5c8.8,3.9,16.8,9.6,26.3,11.9c1,1.9,2.9,2.7,4.7,3.6
			c39.3,19.7,77.5,41.6,117.1,60.6c45.2,21.7,91.7,39.4,141,49.4c19.9,4,40,6.2,60.1,8.5c8.3,0.9,9.7-0.8,8.5-8.6
			c-3.1-20.3-6.3-40.7-9.1-61.1c-4.8-34.5-9.7-69-13.9-103.6c-4.4-36.6-9.4-73.1-12.7-109.8c-0.8-8.8-0.6-18-3.5-26.6
			c0.7-8.7-1.3-17.2-1.8-25.7c-1.2-18.7-1.9-19.5-20.4-22.2c-0.7-0.1-1.3-0.1-2-0.2c-23.5-4.1-46.9-0.3-70.3,1.2
			c-9.6,0.6-19.2,0.7-28.8,0.5c-3.3-0.1-6.7-0.5-8.8-3.7c0.8-15,10-22.4,23.5-25.9c3.5-0.9,7.2-1.4,10.7-2.3c4.5-1.1,9.2-2,13.4-3.7
			c12.8-5.3,15.9-17.7,7.4-28.4c-3.1-3.9-6.3-7.7-9.6-11.5c-5.9-6.6-8.1-14.4-7.2-23.1c0.7-6.8,2.9-8.3,9.1-5.6
			c8.9,3.8,16.7,9.5,24.6,15.2c9.4,6.8,18.7,14,29.5,18.6c10.7,4.5,12.5,3.8,15.6-7.2c4.2-15.1,6.9-30.3,7.4-46.1
			c1-30.7-1.8-61.1-4.6-91.5c-0.7-7.9-1.4-15.9-2.3-23.8c-2.4-22.2-2.8-44.4,2.5-66.4c1.3-5.3,3.5-10.1,6.4-14.5
			c5.4-8.3,14.8-7.9,20,0.6C752.9,1709.7,753.5,1710.9,754.1,1712.1z M1304.4,1912.4c-1.5-4.1-2.3-6.5-3.2-8.9
			c-5.8-13.8-11.6-27.6-17.4-41.4c-19.7-47-39.6-93.9-64-138.7c-14.2-26.1-29.7-51.3-47.8-74.9c-4.3-5.6-4.5-5.6-10.3-1.7
			c-17.8,11.8-35.7,23.3-52.8,36.1c-13.7,10.1-26.7,21-38.6,33.2c-17.9,18.5-31.7,39.4-39.2,64.2c-2.9,9.6-2.9,9.6,6,14.6
			c51.7,29,104.7,55.4,159.4,78.4C1231.2,1887.8,1266.4,1900.9,1304.4,1912.4z M1365.1,2359.7c-1.6,4.4-1,8.4-1.1,12.4
			c-0.7,43.7,2.5,87.2,4.8,130.8c1.1,20.6,2.3,41.2,3.5,61.8c0.4,7.2,0.5,7.3,7.4,7.2c4.7,0,9.3-0.4,14-0.8
			c19.4-1.7,37.7-8,55.8-14.7c7.9-2.9,8-2.9,8-11.2c0.1-27.1-3.3-53.8-8.4-80.3c-6.4-33.3-14.7-66.2-20.4-99.7
			c-0.9-5.2,1.8-12.5-4.3-15.3c-5.4-2.5-11.8-0.4-17.7,1C1392.9,2354.3,1379.2,2358.6,1365.1,2359.7z M1338.7,1382.6
			c-5.4,0.8-10.6,1.5-15.7,2.4c-22.9,4-45.4,10.3-68.1,15.1c-35,7.4-70.1,13.4-105.1-0.1c-3.3-1.3-5.7,0.1-7.5,3.4
			c22.2,17.9,46.8,30.4,75.3,34.2c14.5,1.9,29.2,2.2,43.8,1.8c4.9-0.1,8.9-1.6,12.8-4.6c21.4-16.4,41.5-34.3,63.6-49.8
			C1338.2,1384.7,1338.2,1383.8,1338.7,1382.6z"/>
		<path class="st1" d="M5.1,1396.1c-1,0-2.1,0-3.1-0.1c0-12.7,0-25.3,0-38c1.1,9.4,2.2,18.9,3.1,28.3
			C5.5,1389.6,6.3,1392.8,5.1,1396.1z"/>
		<path class="st2" d="M1065.9,3.7c0.1-0.6,0.1-1.2,0.1-1.7c18,0,36,0,54,0c0,0.6,0,1.2,0.1,1.7C1102,3.7,1084,3.7,1065.9,3.7z"/>
		<path class="st3" d="M1069.8,2762.3c10.1-0.5,20.3-1,30.2,1.8c-10,0-20,0-30,0C1070.1,2763.4,1070,2762.8,1069.8,2762.3z"/>
		<path class="st2" d="M1192,2762c0,0.7,0,1.4,0,2c-6.7,0-13.3,0-20,0c-0.2-0.6-0.2-1.2,0.2-1.8
			C1178.8,2762.6,1185.4,2760.9,1192,2762z"/>
		<path class="st2" d="M1069.8,2762.3c0.3,0.6,0.4,1.1,0.2,1.8c-6,0-12,0-18,0c0-0.7,0-1.3,0-2
			C1057.9,2762.1,1063.8,2762.2,1069.8,2762.3z"/>
		<path class="st4" d="M1140,2764c5-3.4,10.5-1.5,15.9-1.9c-0.1,0.6,0,1.3,0.1,1.9C1150.7,2764,1145.3,2764,1140,2764z"/>
		<path class="st3" d="M1156,2764c-0.1-0.6-0.2-1.2-0.1-1.9c5.4-0.1,10.9-1,16.4,0.1c-0.4,0.6-0.4,1.2-0.2,1.8
			C1166.7,2764,1161.3,2764,1156,2764z"/>
		<path class="st5" d="M594.2,764c4.2,9.1,5.5,19.1,7.8,28.7c1.7,7.1,1.6,7.1,9.2,7.3c18.1,0.5,35.9-0.6,53.3-6
			c8.3-2.6,16.1-6.4,22.6-12.3c3.9-3.6,5.7-7.5,5.4-13.2c-1.3-21.4-6.2-42.1-11.5-62.7c-4.6-17.7-9.6-35.3-12.7-53.4
			c-4.3-24.6-2.8-49.1,0.7-73.6c4.8-33.6,13.4-66.5,20-99.8c1.1-5.5,2.3-11,3.5-16.6c3.8-1.6,5-5.3,6.4-8.6
			c11.1-28.3,25-55.2,40.8-81.1c20.1-33,43.4-63.7,70.2-91.6c15.7-16.3,32.9-31,50.8-44.8c32.9-25.3,68.8-45.3,107.3-60.7
			c28.8-11.5,58.6-19.7,89-25.4c22.2-4.2,44.3-8.3,66.8-10.6c12.9-1.3,25.8-2.5,38.5-4.2c15.2-2.1,30.5-2,45.7-2.9
			c20.5-1.3,41.1-1.3,61.8,1c14.8,1.6,29.7,2.3,44.5,4.2c23.1,3,45.7,7.8,68.1,14.4c9.2,2.7,17.7,7.9,27.6,7.7l0,0
			c0.9,0.6,1.8,1.3,2.7,1.9c13.1,8.1,24,18.7,34.9,29.3c21.5,21.2,41.4,43.9,59,68.5c-4.9,0.8-9.9,1.3-14.7,2.5
			c-25.4,6-46.7,18.6-61.7,40.6c-9.3,13.6-12.4,29.1-14.2,45.1c-0.9,8.5,1.7,16.5,4.3,24.3c2,6,3.5,6.3,8.2,2.3
			c2.5-2.2,4.7-4.7,8.5-4.4c0.4,3,0.9,5.9,1.3,8.8c1.1,0.6,2,0.5,2.8-0.1c25.6-20.2,54.2-22.7,84.1-13c55.6,18,90.3,55.3,102.9,113
			c6.3,28.8,9.6,57.9,11.2,87.1c3,55.2,6.7,110.5,4.5,165.8c-4.8,120.7-28.3,237.1-79.9,347.1c-13.6,29-29.4,56.8-47.4,83.3
			c-12,17.6-23.8,35.4-35.7,53c-18.1,26.9-40.8,48.8-68.5,66.1c-48.9,30.6-100.4,54.8-156.6,68.6c-72.6,17.9-141.7,8.7-208.7-24.4
			c-60.8-30.1-111.6-72.1-155.3-123.4c-28.4-33.3-53.9-68.7-79.4-104.1c-2.5-3.5-5-6.9-8.9-12.1c-0.5,11.3,1.4,20.1,3.5,28.8
			c5.4,21.6,14.7,41.5,27.4,59.6c39.1,55.6,84.8,105.3,137.4,148.4c12.6,10.3,26.6,18.7,41.6,26.4c-1.8,2.3-3.7,1.3-5.4,1.2
			c-2-0.1-4-0.6-5.9-0.8c-19.9-2.7-39.8-3.6-59.6,0.8c-15,3.4-28.4,9.5-36.9,23.4c-1.6,2.5-3.5,3.6-6.6,3.4
			c-30.6-1.9-61.1-4.5-91.4-9.8c-0.6-0.1-1.2-0.6-1.8-0.9c-3.1-5.3-8-8.9-12.1-13.1c-13.3-13.5-27.2-26.4-38.8-41.4
			c-26.8-34.6-48.1-72.4-64.7-112.8c-14.8-36.1-25.7-73.4-33.8-111.4c-6-28.4-11-57.2-12.8-86.4c-0.6-9.1-1.8-18.5-6.7-26.8
			c-4.3-7.4-10-12.3-19.1-11.9c-3.2-2.9-6.9-1.9-10.4-1.3c-8.7,1.5-16.5,5-23.6,10.1c-4.6,3.3-9.2,6.7-13.4,10.4
			c-18.8,16.9-40.6,20.3-64.2,14.1c-23.5-6.1-42.8-19.1-58.4-37.7c-0.6-4.1-3-7.4-4.6-11c-3.6-8.2-7.3-16.4-9.5-25.2
			c-5.9-24.3-5.3-48.8-0.9-73.2c3.8-20.9,8.6-41.6,13-62.4c3.7-5.2,8.2-9.6,13.4-13.2c7-4.8,14.5-6.4,22.3-1.5c0,0.8,0.2,1.5,0,2.1
			c-10.1,23.3-11.5,47.7-9.7,72.5c1.2,16,4.7,31.6,12.3,46c2.2,4.2,4.6,8.4,9.8,12.2c0-4.9,0-8.2,0-11.5c0-15.7-0.4-31.3,0.1-47
			c0.5-14.6,1.7-29.4,8-42.9c8.8-19,27.8-20.9,40.4-4.3c5.7,7.5,9.4,16.1,13.4,24.5c3.9,8.4,7.6,17,13,24.7
			c2.7,3.9,5.4,8.1,10.5,9.7c10.8-47.3-8.7-90.7-41.3-112.6c-2.2-1.5-4.2-3.1-6.4-4.7c4.1-0.6,7.8,0.8,11.6,2
			C560.9,748.1,577.5,756.2,594.2,764z M1548,530c-20.6,3.8-36.8,15.1-49.3,31.3c-9.1,11.8-13.8,25.8-12.6,41
			c0.9,11.9,7.5,18.5,18.2,18c8-0.4,15.7-1.1,23.4-3.6c10.5-3.3,19.9-9.1,30.3-12.6c3.3-1.1,5.6-3.5,7.8-5.9
			c3.6,5.3,5.3,11.4,7.7,17.2c6.8,16.6,6.6,17-11.3,21.1c-11.7,2.7-23.7,3.3-35.7,3.9c-13.3,0.6-26.6,1.3-39.5,5.2
			c-3.2,1-6.3,1.6-6.5,6.1c-1,16.1,9.5,32.6,25.1,38.4c9.8,3.7,20.1,4.7,30.4,3.6c23.9-2.6,45.8-10.7,65.5-24.7
			c7.1-5,13.3-11,18.5-18c3.3-4.5,3.8-8.1,0.3-13.3c-11-15.9-20.2-32.9-28.4-50.3c-11.6-24.3-22.9-48.7-34.3-73.1
			c-1-2.1-2-4.2-3.1-6.3c-0.9-1.9-2.1-3.5-4.5-2.9c-2.1,0.6-1.8,2.5-1.9,4.1C1548,516,1548,523,1548,530z M860,480
			c2.1,4.5,2.6,9.6,6.3,13.4c7.3,7.7,11.2,7.3,15.6-1.9c0.6-1.2,1.1-2.4,1.7-3.6c11.9-24.4,26-47.2,45.8-66.1
			c24.1-23.1,52.6-35.7,86.2-36.2c12.7-0.2,25.3,0.5,37.7,3.6c4.7,1.2,6.7-0.4,8.4-4.4c5-12.3,3-23.4-5.5-33.5
			c-5-6-11.6-9.9-18.1-13.9c0.3-3.5-1-6.7-3.2-9.2c-18.3-21.5-34.9-30.2-65.9-24.7c-15.9,2.9-30.3,9.5-43.9,18.1
			c-31.8,20.2-58.1,45.3-71.4,81.6c-6.7,18.3-10.2,37.2-5.1,56.6C850.4,467.4,852.5,475.3,860,480z M1106.5,531.9
			c-27.9,3.3-53,12.7-71.8,34.6c-11.6,13.5-14.5,42.5,5.3,56.1c9.5,6.5,20.2,10.6,31.6,11.2c23,1.3,45.9,1,67.2-10
			c5.7,9.4,11.2,18.9,17,28.1c2.3,3.7,1.6,5.8-1.7,8.2c-9,6.4-19,9.4-29.9,10c-16.8,1-33.2-2.1-49.6-5.1c-10.8-2-21.6-4.3-32.5-5.1
			c-2.9-0.2-6.1-0.9-7.9,2.5c-6.7,12.2-10.3,26.3,3.4,39.1c6.7,6.3,14.8,10.1,23.5,12.7c24.2,7.5,48.9,8.5,74.1,6.3
			c20.3-1.8,36.5-10.1,51.5-23.6c16-14.4,17.4-41.3,5.3-57.4c-3.6-4.8-7.5-9.5-12.1-13.2c-20.4-16.7-33.8-38.2-43.9-62.2
			c-6.6-15.7-13.3-31.2-20.1-46.8c-1.4-3.1-2.4-6.7-5.9-9.4C1106.3,516,1107.6,524.2,1106.5,531.9z M1251.8,892.5
			c-3-2.8-4.3-0.5-5.9,1.8c-17.4,26.3-12.7,71.1,9.6,94c3.2,3.2,6.6,4,10.6,4.4c33.1,3.1,65.8,0.5,98.3-6.6
			c60-13.2,111.7-44,162.6-76.6c2.1-1.4,3.1-3.1,3.2-5.7c0.3-9.1,3.9-17.5,6.9-25.9c3-8.5,6.1-16.9,8-25.7
			c3.3-15.1,1.3-28.2-12.1-38.3c-8.5-6.4-16.5-13.7-23.7-21.5c-41.4-44.8-81.1-91.2-115.1-141.9c-19.1-28.4-38.7-56.8-45.3-91.5
			c-0.7-3.9-2.7-7.5-5.4-10.6c-3.3-3.6-7.2-4.2-11.8-2.6c-4.4,1.6-5,4.8-4.8,8.7c0.6,9,0.8,18,2,26.9c4.4,32.5,16.3,62.3,32.1,90.8
			c19.7,35.4,44.7,67,70.3,98.2c15.8,19.4,32.8,37.7,48.8,56.9c17.7,21.2,19,41.3,5.8,65.6c-1.8,3.3-4,5.7-7.6,7.3
			c-19.4,8.8-38.6,17.9-57.9,26.9c-19.6,9.1-39.5,17.7-60.3,23.8c-21.9,6.4-44.1,10-67,7.1c-14.6-1.8-24.8-8.9-29.9-22.9
			c-2.5-6.9-4.9-13.8-5.2-21.2c6.4-0.6,9-6.5,13.4-9.8c13-9.7,25.6-20,39.4-28.7c2.9-1.8,5.6-4,4.7-8c-3.3-14.3-10.4-25.8-24.4-31.9
			c-8.4-3.6-14.6-2.2-20.4,4.8c-4.3,5.2-6.6,11.4-9.1,17.6C1257.3,869.3,1255.3,881.1,1251.8,892.5z M1410.7,1152.2
			c-4.6-2-7.9-1-11.2-0.9c-49.6,0.8-99.3,3.3-148.8-1.3c-27.6-2.6-54.7-7.5-80.6-17.8c-32.4-13-57.9-33.7-73.5-65.6
			c-4.7-9.5-4.6-9.5-14.8-8.7c-3.4,0.3-6.6,0.9-9.7,2.2c-6.3,2.7-7.6,6.5-4.4,12.7c2.8,5.4,7.1,9.7,11.6,13.7
			c10.6,9.3,19,20.4,27,32c9.2,13.4,18.8,26.7,29.4,39.1c19.8,23.4,44.8,37,74.8,42.5c30.8,5.7,61.7,5.7,92.6,3.1
			c22.9-1.9,45.5-5.8,67.6-12.5C1390.6,1184.8,1401.9,1170.6,1410.7,1152.2z M1106.7,997.1c-1.1,4,1,6.1,2.1,8.3
			c7.4,14.5,18.1,26.3,30.8,36.3c18.8,14.8,40.1,24.7,62.6,32.3c34.2,11.6,69.6,17.4,105.6,19.8c19.3,1.3,38.5,2.2,57.9,0.9
			c4.7-0.3,7.3-1,7-6.7c-0.7-15.9,0-31.9-2.5-47.8c-1.6-10.2-1.5-10.3-11.5-10.2c-42.9,0.5-85.9,0.6-128.7-3.8
			C1187.8,1021.9,1146.2,1015.5,1106.7,997.1z M1573.3,955.9c-3.6,1.7-7.2,3.2-10.7,5c-18.8,9.9-37.6,19.9-56.5,29.9
			c-32.6,17.2-66.6,30.4-103.5,34.7c-5.1,0.6-6.5,2.7-7.1,7.4c-2.2,16.3-0.5,32.6,0.4,48.9c0.5,8.6,0.6,8.8,9.3,8.4
			c35.6-1.9,67.6-13.8,95.6-36C1533.7,1028.2,1555.3,993.7,1573.3,955.9z M1071.2,1024.9c-18-10.4-36.1-10.2-54.4-8
			c-8.3,1-15.7,8.4-15.1,19c1.3,21,6.1,41.2,11.2,61.4c1.2,4.9,11.6,9.4,16.4,7.9c1.9-0.6,2.6-2.2,2.5-3.8
			c-0.7-7.7,1.4-15.2,2.3-22.7c2.8-22,11-41,32.6-51.2C1067.9,1027.1,1069,1026.3,1071.2,1024.9z"/>
		<path class="st4" d="M684.2,1400c28.2,28.4,63.6,45.7,98.2,64.1c30.9,16.4,62.4,31.7,94.3,46c7.3,3.3,10.3,8,11.4,15.7
			c3.4,24.7,9.7,48.9,16.6,72.9c7.5,25.9,15.6,51.6,23.6,77.3c3.8,12.1,8.5,23.8,15.1,34.7c2.1,3.4,4.1,6.9,6.6,10
			c13.7,16.3,27.9,21.1,50.9,15.4c6-1.5,11.3-5.3,18.5-5.7c-1.6,8.5-5.6,14.9-9.9,21.1c-5.8,8.5-11.8,16.9-18,25.2
			c-4.5,6-7,12.9-8.6,20.1c-2.5,11-0.2,21,7.9,29.5c7.9,8.3,17.3,14.6,27.4,19.8c19,9.8,38,19.3,57.4,28.1
			c13,5.9,25.4,13.2,38.1,19.8c28.2,14.5,57.6,26,86.9,38c3.6,1.5,7.2,3.1,10.8,6.2c-2.4,0-4.8,0-7.2,0c-22,0.1-43.9,1.7-65.8,2.5
			c-23.9,0.8-47.8,1.9-71.7,3.9c-22.2,1.8-44.4,2.7-66.5,5c-11.5,1.2-23.2,2.1-34.8,2.8c-17.9,1.1-35.6,3.8-53.5,5.2
			c-14.6,1.1-29.1,2.9-43.6,4.5c-15.2,1.7-30.3,3.6-45.5,5.3c-8.9,1-17.8,1.9-26.7,2.8c0-24.6,0-49.2,0-73.9c0-41.9,0-83.8,0-125.8
			c0-4.3,0.4-8.5-2.8-12.3c-9.4-11.1-18.5-22.6-27.9-33.8c-3.6-4.3-6-9.7-11.3-12.4c-0.6-1.2-1.2-2.4-1.8-3.5
			c-5.2-8.4-14.5-8.8-20-0.6c-2.9,4.4-5.1,9.3-6.4,14.5c-5.3,22-4.9,44.1-2.5,66.4c0.9,7.9,1.5,15.9,2.3,23.8
			c2.8,30.4,5.6,60.9,4.6,91.5c-0.5,15.7-3.2,31-7.4,46.1c-3,11-4.8,11.7-15.6,7.2c-10.8-4.6-20-11.8-29.5-18.6
			c-7.8-5.6-15.7-11.3-24.6-15.2c-6.2-2.7-8.4-1.2-9.1,5.6c-0.9,8.7,1.3,16.4,7.2,23.1c3.3,3.7,6.5,7.6,9.6,11.5
			c8.5,10.7,5.4,23.1-7.4,28.4c-4.3,1.8-8.9,2.6-13.4,3.7c-3.5,0.9-7.2,1.3-10.7,2.3c-13.5,3.5-22.6,10.9-23.5,25.9
			c-6.7,0.1-13.4,0.2-20.1,0.3c11.9,10.4,24.6,18.3,36.3,27.4c6.4,5,13.4,7,20.9,8.2c16,2.5,32,5,48,7.4c15.7,2.3,31.4,4.5,47.1,6.8
			c2.9,8.6,2.7,17.8,3.5,26.6c3.3,36.7,8.3,73.2,12.7,109.8c4.2,34.6,9.1,69.1,13.9,103.6c2.8,20.4,6,40.7,9.1,61.1
			c1.2,7.8-0.2,9.6-8.5,8.6c-20.1-2.3-40.3-4.4-60.1-8.5c-49.3-10-95.8-27.7-141-49.4c-39.7-19-77.8-40.9-117.1-60.6
			c-1.8-0.9-3.7-1.7-4.7-3.6c-0.1-3.3,0.2-6.6,1-9.9c5.6-23,8-46.6,8.6-70c0.9-34.6,1.5-69.2-1.1-103.8c-1.9-25.8-3.5-51.6-6.3-77.4
			c-2.2-20.4-3.8-41-6.5-61.3c-3.3-25-8-49.8-11.3-74.8c-4.5-33.9-10.7-67.5-17.1-101.1c-13.8-71.8-28.4-143.4-45.8-214.4
			c-1.8-7.2-1.7-7.4,5-10.4c26.4-11.9,52.8-23.7,79.2-35.6c28.2-12.7,56.4-25.5,84.7-38.1c36.1-16.2,72.2-32.5,108.6-48.3
			C657.9,1411.1,670.3,1403.7,684.2,1400z"/>
		<path class="st6" d="M1140,2704c-23.7,1.5-47.3-0.4-70.9-2.5c-49.8-4.4-99.1-12.4-147.5-25.2c-7.7-2.1-15.3-4.5-23.1-6.2
			c-5.1-1.2-7.5-3.8-9.2-9c-12.5-39-24.3-78.2-35-117.6c-26-95.8-46.8-192.7-62.7-290.7c-11.1-68.4-20.6-137-28-205.8
			c-0.7-6.2-4.3-13.6-0.5-18.3c3.4-4.2,11.2-3.1,17-4.1c66.3-11.6,132.8-21.1,199.9-27c51.5-4.5,103-7.4,154.7-7.3
			c42.7,0.1,85.2,2.7,127.6,8c1.9,0.2,3.8,1.1,5.7,1.6c0.9,15.7-2.1,31.2-2,46.8c0.2,72.6-0.8,145.1,1.8,217.7
			c0.8,21.3,3.3,42.5,2.3,63.8c0,0.7,0,1.3,0.1,2c2.3,18.5,2.8,37,3.8,55.6c0.5,10.3,1.4,20.6,2.5,30.8c1.9,17.8,3.4,35.7,5.1,53.5
			c2.4,25.1,5.5,50.1,9,75.1c3.7,26.2,7.5,52.5,13.2,78.5c2,9.1,1.7,9.2-6,14c-3.1,1.9-6.3,3.7-9.5,5.4
			c-45,23.5-91.7,42.5-140.7,55.8C1144.6,2699.5,1140.5,2699.4,1140,2704z"/>
		<path class="st7" d="M339.8,768c0,13.3-0.5,26.7,0,40c2.2,59.1,17.8,114.5,49,164.8c29.2,47.1,71.1,77.7,125.8,89.8
			c8.8,1.9,9,2,10.1,11.4c3.5,30.7,12.2,59.9,24.9,88.1c4.7,10.4,11.1,19.7,17.1,29.3c6.3,9.9,12.5,19.7,17,30.5
			c2,4.9,3.8,9.9,4.5,15.3c1.7,12.9-1.6,23.3-12.8,31.3c-16.9,12-34.9,22.1-52.8,32.4c-62.8,36.4-126.8,71-186.9,111.9
			c-25.2,17.1-50.6,33.2-78.3,45.9c-11.2,5.1-21.6,11.8-30.3,20.9c-9.6,10-14.8,21.9-15.5,35.8c-0.8,17.6,3.1,34.4,7.7,51.1
			c9.2,33.5,23.2,65.3,34.1,98.1c16.3,49.4,37.8,96.8,54,146.2c12.3,37.4,19.8,76,26.6,114.7c4.7,26.9,8.2,54,11.5,81
			c0.6,4.6,0.6,9.2,1,14.2c-4.7,0.7-6.2-2.9-8.2-5c-34-34.4-64.9-71.6-93.1-110.9c-56.4-78.5-99.9-163.7-130.7-255.2
			c-17.5-51.8-30.6-104.8-38.7-159c-1.4-9.5-3.7-18.9-3.7-28.6c0.6-1.2,1.6-2.3,1.7-3.5c1.5-15.8,3.5-31.6,4.1-47.5
			c0.6-15.9,3-31.7,4.6-47.5c2.3-23,5.8-46,10-68.8c5-27.4,10.7-54.7,17-81.8c10-43.1,22.7-85.4,37.4-127.1
			c13-36.7,28.3-72.4,45-107.6c10.8-22.8,23.5-44.8,36.3-66.5c12.7-21.5,26.2-42.4,40.9-62.5c15.6-21.5,32-42.4,49.4-62.4
			C324.7,779.8,330.4,771.6,339.8,768z"/>
		<path class="st7" d="M1604,1908c-1.1-3.1,0.4-5.9,1.5-8.6c42.4-113.3,78.7-228.6,113.3-344.4c8.6-28.7,19.3-56.8,26-86
			c2.8-12,4.6-24.1,5.3-36.5c1-18.3-5.3-33.9-16.5-48c-14.2-17.9-31.4-32.6-48.5-47.5c-31.9-27.8-64-55.4-95.8-83.3
			c-9.5-8.3-18.1-17.6-26.4-27.2c-9.1-10.5-10.7-21.4-5.6-34.2c4.5-11.2,9.3-22.2,15.9-32.2c31.1-46.7,48.1-99.2,63-152.6
			c15.9-56.9,27.5-114.6,35.3-173c4.1-30.7,7-61.5,8.9-92.4c1.1-18,1.5-35.9,2.1-53.9c0.1-2.3,0.3-4.5,0.5-7.4c4.3,0.7,6,3.8,8,6
			c42.1,47.1,79.6,97.6,111.9,151.9c37.4,63,67.4,129.3,89.7,199.1c18.3,57.2,31.3,115.7,38.8,175.3c3.5,27.7,5.7,55.6,6.9,83.6
			c1.3,29,1,57.9-0.3,86.9c-2.3,54.7-9.5,108.7-21.1,162.2c-22.3,103.4-60.8,200.6-114.7,291.6c-3.5,5.9-7.3,8.8-14.6,9.5
			c-44.9,4.3-87.1,18.8-128.2,36.5c-16.2,7-32.1,14.7-48.1,22.1C1609.1,1906.5,1606.9,1908.3,1604,1908L1604,1908z"/>
		<path class="st8" d="M684.2,1400c-13.9,3.7-26.3,11.1-39.4,16.8c-36.3,15.7-72.4,32.1-108.6,48.3c-28.2,12.7-56.4,25.4-84.7,38.1
			c-26.4,11.9-52.9,23.7-79.2,35.6c-6.7,3-6.7,3.2-5,10.4c17.4,71,32.1,142.6,45.8,214.4c6.4,33.5,12.6,67.2,17.1,101.1
			c3.3,25,8,49.8,11.3,74.8c2.7,20.4,4.2,40.9,6.5,61.3c2.8,25.7,4.4,51.6,6.3,77.4c2.6,34.6,2,69.3,1.1,103.8
			c-0.6,23.4-3,47-8.6,70c-0.8,3.3-1.1,6.6-1,9.9c-9.5-2.3-17.5-8-26.3-11.9c-3.3-1.5-3.7-4.4-3.7-7.5c-0.2-13-1.2-25.9-1.5-38.9
			c-1.1-36.9-3.8-73.8-7-110.5c-7.3-83.9-18.6-167.2-35.9-249.6c-19.1-91.1-44.6-180.2-80.4-266.2c-5-12-10.4-23.8-15.5-35.7
			c-3.1-7.3-3-7.9,3-12.6c68.8-53.1,139-104.3,214.4-148c35.2-20.4,71.5-38.5,109-54.3c9.6-4.1,15.9-2.3,22.9,4.8
			c15.9,16.1,30.5,33.4,45.1,50.7C674.9,1387.9,681,1392.8,684.2,1400z"/>
		<path class="st4" d="M1689.9,1485.9c-6.9,37.6-15,74.9-25,111.8c-9,33.1-19.1,65.8-30.1,98.3c-17.8,52.7-37.8,104.5-58.9,155.9
			c-4.2,10.2-8.3,20.3-12.5,30.5c-1.3,3.1-3,5.9-4.3,9c-8.7,21.8-25.1,32.3-48,34.6c-10.6,1.1-21.3,1-31.8,2.3
			c-20.9,2.7-41.9-0.4-62.7,3.4c-7.2,1.3-14.3,3.1-21.2,5.3c-3.8,1.2-7.3,3.4-11.5,3l-0.1-0.1c5.7-13.5,14-25.6,21.5-38.1
			c39.8-65.7,79.9-131.2,119.7-196.9c10.5-17.3,20.3-35.1,30.5-52.6c2.6-4.5,2.7-8.6-0.1-13.1c-3.9-6.3-8.8-11.6-14.1-16.8
			c-5.9-5.9-11.2-12.3-15.2-19.6c-2.5-4.7-3-9.1-0.8-14.3c8.4-19.7,12.1-40.6,14.7-61.8c2.9-22.9,2.5-45.9,1.2-68.7
			c-1.7-29.2-7-58-18.8-85.2c-1.4-3.3-3-6.7-3.1-10.5c3.1,0.5,5.3,2.7,7.7,4.4c45.3,33.6,90.3,67.4,135.7,100.8
			C1671.7,1474.1,1679.3,1482.2,1689.9,1485.9z"/>
		<path class="st9" d="M1612,1972.3c13.2-9.3,28-15.2,42.9-20.6c27.8-10.1,55.7-19.6,83.5-29.6c13.5-4.8,26.4-10.9,38.5-18.6
			c14.7-9.4,30-10.1,45.8-4c22.9,8.9,40.5,24,51,46.5c12.2,26,19.3,53.7,26.3,81.4c0.9,3.5,2.3,7,2,10.7c-2.2,2.1-1.9,4.8-1.9,7.5
			c-0.1,8.3-0.7,16.5-1.8,24.8c-4.5,33.9-15,66-28,97.3c-2.8,6.7-6.9,9.1-13.8,8.4c-16.5-1.8-33.1-2.3-49.7-2.1c-0.3,0-0.7,0-1-0.1
			c-19.4-3-39.1-2.3-58.6-3.4c-19.2-1.1-38.4-2.3-57.7-2.9c-11.9-0.4-23.8-1.1-35.8-1.6c-2.6-0.1-5.3-0.5-7.9-1
			c-3.7-0.7-5.7-2.8-5.8-6.8c-0.3-15.6-3.8-30.9-5.9-46.3c-3.8-28.3-8.7-56.3-13.4-84.4C1617.7,2009,1614.9,1990.7,1612,1972.3z
			 M1646.9,2035.9c18.6,1,33.9-3.8,48.7-10.9c13.5-6.4,26.1-14.6,38.8-22.4c17.3-10.6,34.5-21.2,54.2-27.1c0.8-0.3,1.5-1.2,2.3-2
			c-11-0.1-21.8,1.1-32.4,2.7c-26.8,4.1-52.6,11.3-75.8,25.9C1669.1,2010.6,1657.4,2021.1,1646.9,2035.9z M1674,2135.1
			c55.7,3.6,108.9,5.2,162.4,4c-0.6-2.9-2.5-2.9-3.9-3.4c-15.9-6.1-32.4-9.9-49.1-12.8c-25-4.2-50.1-7.1-75.4-2.9
			C1696.3,2121.9,1684.8,2124.7,1674,2135.1z M1676.7,2070.6c49.2,3.6,96.5-3.3,144.7-8.3c-2.2-2.7-4.3-2.6-6.1-3.1
			c-24.1-6.9-48.7-10.6-73.8-10.9c-14.4-0.2-28.6,1.2-42.3,6C1690.8,2057.2,1682.8,2061.3,1676.7,2070.6z"/>
		<path class="st10" d="M1410.1,159.9c-10,0.1-18.5-5.1-27.6-7.7c-22.4-6.5-45-11.4-68.1-14.4c-14.8-1.9-29.7-2.6-44.5-4.2
			c-20.7-2.3-41.3-2.3-61.8-1c-15.2,0.9-30.4,0.8-45.7,2.9c-12.7,1.8-25.7,3-38.5,4.2c-22.5,2.2-44.6,6.4-66.8,10.6
			c-30.4,5.7-60.2,13.9-89,25.4c-38.5,15.4-74.4,35.4-107.3,60.7c-17.9,13.8-35.1,28.5-50.8,44.8c-26.8,27.9-50.1,58.6-70.2,91.6
			c-15.7,25.9-29.7,52.8-40.8,81.1c-1.3,3.3-2.6,7-6.4,8.6c2.3-19.2,5.4-38.2,5.1-57.6c-0.3-24.8-4-49.1-13.4-72.2
			c-2.2-5.5-1.7-9.8,0.9-15c17.6-35.4,42.7-65,71.2-91.9c38.8-36.5,82.4-66.3,128.1-93.4c22.6-13.4,45.9-25.7,69.3-37.7
			c34.3-17.7,71.1-26.1,109.3-28.6c82.2-5.4,160.9,11.2,237.7,39.1c32.9,12,64.7,26.4,94.7,44.4
			C1400.6,152.6,1405.9,155.5,1410.1,159.9z"/>
		<path class="st3" d="M655.9,369.9c4.5,23.7,4.9,47.4,2.8,71.5c-3.4,38.5-11.1,76.2-16,114.5c-4.5,35.7-6.8,71.5,1.4,107.1
			c3,12.9,7.2,25.6,10.7,38.4c1.7,6.4,3,12.9,4.4,19.4c1.2,5.7,0.7,11.2-1.1,16.7c-2.1,6.7-6.7,10.5-13.4,12.1
			c-6.6,1.6-8.2,0.4-8.6-6.6c-2.1-34.4-17.9-61.4-44.5-82.5c-21.7-17.3-46.5-26.4-74.1-28.9c-22.8-2-44.3,1.9-65.2,10.3
			c-2.1,0.9-4.1,2.3-6.6,1.8c-5.2-30.1-6.1-60.3-1.7-90.5c7.9-53.4,31.8-97.7,75.4-130.5c29.8-22.4,63.6-36,99.5-44.7
			C631.2,375.1,643.6,372.6,655.9,369.9z"/>
		<path class="st2" d="M1140,2704c0.5-4.6,4.6-4.5,7.5-5.3c49-13.3,95.8-32.3,140.7-55.8c3.2-1.7,6.4-3.5,9.5-5.4
			c7.8-4.8,8-4.9,6-14c-5.7-26-9.5-52.2-13.2-78.5c-3.5-24.9-6.6-50-9-75.1c-1.7-17.8-3.2-35.7-5.1-53.5c-1.1-10.2-2-20.5-2.5-30.8
			c-1-18.6-1.5-37.1-3.8-55.6c-0.1-0.7-0.1-1.3-0.1-2c1.1-21.3-1.5-42.5-2.3-63.8c-2.6-72.5-1.6-145.1-1.8-217.7
			c0-15.6,3-31.1,2-46.8c12.1,0.1,23.7,3.4,35.5,5.3c4.6,0.7,5.7,3.3,6.3,7.4c3.7,27.4,6.5,54.9,7.9,82.5
			c2.4,47.3,3.9,94.6,6.5,141.8c1.3,23.9,3.8,47.8,6.3,71.7c2.6,24.5,4,49.2,5.1,73.8c1.8,40.6,2.9,81.3,4.2,121.9
			c1.6,48.6,4.6,97.2,12.2,145.3c1,6.2,2.2,12.5,3.3,18.7c1.2,6.5,2.3,8.2-6,10.5c-25.3,7.3-51,12.9-77,17
			c-40.6,6.4-81.4,9.1-122.5,9.1C1146.5,2704.8,1143.2,2705.4,1140,2704z"/>
		<path class="st7" d="M1197.4,1543.9c1.2,9-0.7,17.9-0.9,26.9c-0.1,2.9-1.1,5-3.5,6.7c-27.1,19.4-50.8,42.9-77.7,62.5
			c-38.7,28.1-82.4,44.2-129,52.9c-13.1,2.5-19.6-1.5-23.8-13.8c-2.6-7.5-4.4-15.3-6.6-22.9c3-2.6,1.9-6.1,2.3-9.3
			c0.7-7.4-2.4-14.3-2.1-21.8c0.5-11.3-1.6-22.5-2.4-33.7c-1-13.8-1.8-27.8-3.7-41.5c-1.5-11.2-1.5-22.4-3.1-33.6
			c-2-14.5-1.4-29.2,3.3-43.4c3.5-10.5,11.3-16.4,21.6-18.6c8.7-1.8,17.7-2.3,26.7-2.5c9.1-0.2,17.8,2.7,26.8,2.2
			c19.2-1.2,37.7,2,56,7.3c9,2.6,17.8,5.4,26.6,8.5c8.3,3,11.7,9.2,12.3,17.5c0.6,7.8-0.5,15.1-4.5,22.1c-4.1,7-3.6,10.9,2.7,15.5
			c15.6,11.4,31.8,21.6,52.5,21.3C1179.7,1546.1,1188.4,1544.2,1197.4,1543.9z"/>
		<path class="st11" d="M339.8,768c-9.5,3.6-15.1,11.9-21.3,19c-17.4,20-33.8,40.9-49.4,62.4c-14.7,20.2-28.2,41.1-40.9,62.5
			c-12.8,21.8-25.5,43.7-36.3,66.5c-16.7,35.1-32,70.9-45,107.6c-14.8,41.7-27.5,84-37.4,127.1c-6.3,27.1-12,54.4-17,81.8
			c-4.2,22.8-7.7,45.7-10,68.8c-1.6,15.8-4,31.5-4.6,47.5c-0.6,15.9-2.6,31.7-4.1,47.5c-0.1,1.2-1.1,2.3-1.7,3.5
			c-3.5-17-4.2-34.4-5.7-51.6c-3-34.9-3.2-69.9-2.1-104.9c2.5-80.2,14.5-159.1,36.5-236.3c33.7-118.3,87.8-226.4,162.6-324.1
			c31.2-40.8,65.7-78.8,103-114.1c1.7-1.6,3-3.6,6.8-4.4c3.7,19.7,11.3,39.6-4,57.7c-14.8,17.5-20.5,38.5-25,60.1
			C342.5,752.2,341.2,760.1,339.8,768z"/>
		<path class="st1" d="M1304.4,1912.4c-38-11.4-73.2-24.6-107.8-39.2c-54.7-23-107.7-49.5-159.4-78.4c-8.9-5-8.9-5-6-14.6
			c7.6-24.8,21.4-45.7,39.2-64.2c11.9-12.2,24.9-23.1,38.6-33.2c17.1-12.7,35-24.3,52.8-36.1c5.8-3.8,6-3.8,10.3,1.7
			c18.1,23.6,33.6,48.8,47.8,74.9c24.4,44.8,44.2,91.7,64,138.7c5.8,13.8,11.6,27.6,17.4,41.4
			C1302.2,1905.8,1302.9,1908.3,1304.4,1912.4z"/>
		<path class="st2" d="M1612,1972.3c2.9,18.3,5.7,36.7,8.8,55c4.7,28.1,9.6,56.2,13.4,84.4c2.1,15.4,5.5,30.7,5.9,46.3
			c0.1,4.1,2.1,6.1,5.8,6.8c2.6,0.5,5.2,0.9,7.9,1c11.9,0.4,23.9,1.2,35.8,1.6c19.3,0.6,38.5,1.8,57.7,2.9
			c19.5,1.1,39.2,0.4,58.6,3.4c0.3,0.1,0.7,0.1,1,0.1c16.6-0.1,33.2,0.3,49.7,2.1c6.9,0.8,11-1.7,13.8-8.4
			c13.1-31.4,23.5-63.5,28-97.3c1.1-8.3,1.6-16.5,1.8-24.8c0-2.6-0.2-5.4,1.9-7.5c7.1,22.2,10.8,45.2,16.1,67.8
			c3.2,13.4,4.3,26.9,3.9,40.7c-0.8,21.6-5.7,42.2-15.7,61.4c-16.4,31.5-41.3,51.7-76.8,57.7c-31,5.3-62.1,8.3-93.5,4.4
			c-9.3-1.2-18.4-2.8-27.1-6.7c2-3.9,5.9-4.3,9.1-5.6c17.4-7.2,35.7-10.4,54.1-13.7c16.4-2.9,32.9-5.4,48.9-9.8
			c2.2-0.6,4.7-0.7,6.4-3.3c-11.6-5.3-23.9-7.4-36.3-8.9c-27.3-3.4-54.6-0.9-81.8,1.1c-25.6,1.9-51.2,4.1-76.9,3.2
			c-7.6-0.3-7.6-0.3-8.3-7.7c-4.2-45.8-8.2-91.6-14.3-137.1c-3.9-28.7-8.6-57.3-16.7-85.2c-1.8-6.2-0.8-10.1,4.2-13.7
			C1602.2,1979,1606.4,1974.7,1612,1972.3z"/>
		<path class="st10" d="M617.9,962.1c9.1-0.4,14.8,4.6,19.1,11.9c4.8,8.3,6.1,17.7,6.7,26.8c1.8,29.2,6.8,57.9,12.8,86.4
			c8.1,38,19,75.3,33.8,111.4c16.6,40.5,37.9,78.2,64.7,112.8c11.6,15,25.6,27.9,38.8,41.4c4.2,4.2,9.1,7.8,12.1,13.1
			c-40.8-6.1-78.9-18.6-110.6-46.4c-10.9-9.5-19.6-20.9-27-33.2c-42.7-70.7-72.9-146.3-87.5-227.8c-2.6-14.3,0.5-26.3,10.8-36.5
			c5.2-5.2,10.2-10.5,15.5-15.6C619.8,993.9,624.8,979.4,617.9,962.1z"/>
		<path class="st4" d="M1438.2,2064c3.4,5,2.4,11,3.1,16.4c2.3,15.8,3.3,31.7,4.7,47.6c1.9,21.2,3.8,42.3,5.6,63.5
			c0.8,9.9,1.2,19.9,1.9,29.8c1.5,21.2,3.2,42.4,6.1,63.4c0.6,4.4-0.7,6.5-5.5,7.5c-22.2,4.4-44.3,9-66.7,11.9
			c-6.3,0.8-12.4,2.1-18.6,3.2c-8.4,1.5-10.5,0.1-10.7-8.2c-0.4-24.6-3.4-49.1-4.6-73.6c-1.2-26.6-2.6-53.1-4.2-79.7
			c-1.1-19.3-1.1-38.6-1.4-57.9c9.3-0.3,18.6,0.9,27.8-0.9c16.4-3.3,32-8.7,46.9-16.3C1427.8,2068.2,1432.5,2064.8,1438.2,2064z"/>
		<path class="st1" d="M1368.4,1908.3c-1.2-3.4,0.3-6.5,1.2-9.7c10.9-38.8,17.7-78.5,22.6-118.4c6.3-50.5,10.5-101.2,12.2-152.1
			c0.3-9.8,0.7-10.4,10-13.4c32.1-10.7,60.9-4.3,86.9,16.9c7.8,6.4,14.2,13.9,20.3,21.9c2.8,3.7,2.9,6.8,0.4,10.8
			c-8.1,13.4-15.8,27-23.6,40.5c-31,53.6-62,107.2-97.1,158.2c-10.6,15.3-21.4,30.5-33,45.1L1368.4,1908.3z"/>
		<path class="st7" d="M1493.9,1424c5.8,15.7,7.7,32.3,9.9,48.7c1.7,12.5,2.7,25.1,3.5,37.7c1.1,17.7-0.6,35.2-5.3,52.4
			c-1.2,4.5-3.2,8.7-4.9,13.1c-2.3,6-6.3,8.6-13.1,8c-19.2-1.6-38.5-2.3-57.7-4.2c-27.5-2.8-54.7-7.1-81.6-13.6
			c-1-0.2-1.9-0.6-2.8-1c-1.5-4.1-3.3-8-4.3-12.2c-5-20.5-0.3-26.8,18.3-30.6c4.5-0.9,9.2-1.3,13.7-2.1
			c15.9-2.6,24.3-12.1,24.3-28.4c0-6-0.3-11.8-1.3-17.8c-3.1-18.1,4.5-37.1,25.4-42.4c16.1-4.1,32.2-8,49-7.7
			C1476,1424.1,1485,1424,1493.9,1424z"/>
		<path class="st11" d="M1197.4,1543.9c-8.9,0.3-17.7,2.2-26.7,2.3c-20.7,0.3-36.8-10-52.5-21.3c-6.3-4.6-6.7-8.5-2.7-15.5
			c4-7,5.1-14.3,4.5-22.1c-0.6-8.3-4-14.5-12.3-17.5c-8.8-3.2-17.6-6-26.6-8.5c-18.3-5.3-36.8-8.5-56-7.3c-9,0.6-17.7-2.3-26.8-2.2
			c-9,0.2-18,0.6-26.7,2.5c-10.3,2.2-18.1,8.2-21.6,18.6c-4.7,14.2-5.3,28.8-3.3,43.4c1.5,11.2,1.5,22.4,3.1,33.6
			c1.9,13.7,2.7,27.7,3.7,41.5c0.8,11.2,2.9,22.4,2.4,33.7c-0.3,7.4,2.8,14.4,2.1,21.8c-0.3,3.2,0.7,6.8-2.3,9.3
			c-13.3-32.3-26.8-64.6-32.5-99.4c-3-18.5-3.2-37.2-3.4-55.8c-0.2-20.3-0.1-40.7,4.1-60.7c1.5-7.2,3.6-14.2,6.7-20.9
			c8.7-18.8,23.7-26.5,44-22.5c34.8,6.9,68.2,18.1,100.8,31.9c23,9.8,45.5,20.7,66.3,34.7c13.2,8.8,27.3,15.2,43.2,17.3
			c2.9,0.4,6.9-0.2,7.6,4.7c0.9,6.7-0.5,11-5.6,13.5c-9,4.5-18.7,6.8-28.5,9.1c-11.6,2.7-23.5,4.4-36.3,10.8c8.5,1.2,15.1,2,21.7,3
			c16.6,2.5,32.5,7.4,47.7,14.3C1195,1537.7,1199.1,1538.7,1197.4,1543.9z"/>
		<path class="st2" d="M1365.1,2359.7c14.2-1.1,27.8-5.5,41.7-8.8c5.8-1.4,12.2-3.5,17.7-1c6.1,2.8,3.4,10.1,4.3,15.3
			c5.6,33.5,14,66.4,20.4,99.7c5.1,26.5,8.4,53.3,8.4,80.3c0,8.3-0.2,8.3-8,11.2c-18.1,6.7-36.4,12.9-55.8,14.7
			c-4.6,0.4-9.3,0.8-14,0.8c-6.9,0.1-6.9-0.1-7.4-7.2c-1.2-20.6-2.4-41.2-3.5-61.8c-2.3-43.6-5.5-87.1-4.8-130.8
			C1364.1,2368.1,1363.5,2364.1,1365.1,2359.7z"/>
		<path class="st10" d="M446,786c-4.4,20.8-9.2,41.5-13,62.4c-4.4,24.4-5,48.9,0.9,73.2c2.1,8.8,5.8,17,9.5,25.2
			c1.6,3.6,4,6.9,4.6,11c-4.6-2.5-7-6.9-9.9-10.8c-28.4-37.5-45.4-79.5-49.2-126.5c-4.9-61,35.1-119.1,91.8-133.3
			c14.1-3.5,28.3-4.3,42.6-2.6c17.6,2.1,32.3,10.1,43.7,23.6c13.8,16.3,22.5,35.1,27.3,55.8c-16.8-7.7-33.3-15.9-50.8-21.8
			c-3.8-1.3-7.5-2.6-11.6-2c-10.5-4.2-20.9-8.4-32.4-9c-31.5-1.8-60.7,26.9-58.4,58.1C442.8,788,444.4,787,446,786z"/>
		<path class="st8" d="M1689.9,1485.9c-10.6-3.7-18.2-11.9-27-18.3c-45.4-33.4-90.4-67.2-135.7-100.8c-2.3-1.7-4.6-3.9-7.7-4.4
			c-4.1-3.1-6.2-7.7-9.2-11.7c-6.8-9.3-14.9-16.9-25.8-21.3c-5.3-2.1-11.4-0.4-16.3-3.8c-0.5-5.2-6.7-5.5-8.4-9.6
			c9.3-7.5,18.6-15,28-22.4c7.4-5.8,14.4-12,19.9-19.5c3-4.1,5.3-3.9,8.8-0.7c9.6,8.7,19.7,16.9,29.1,25.8c11.6,11,23,22.2,34,33.7
			c24.9,26,51.9,49.6,80.6,71.3c9.3,7,17.6,15.3,24.1,25.1c7.4,11.2,11.2,23.2,8.4,36.9C1691.5,1472.7,1691.4,1479.4,1689.9,1485.9z
			"/>
		<path class="st9" d="M1516.3,2199.9c-4.7-30.6-9.4-61.1-14.1-91.7c-5.4-35.5-11.3-71-15.1-106.7c-0.2-2-0.5-4-0.8-5.9
			c-0.3-2.4,0.6-3.8,3.1-4c15.9-1.4,31.8-2.6,47.9-1.4c5.1,0.4,7.4,3.5,9.5,7.5c10.3,19.6,17.4,40.3,22.7,61.6
			c9.4,37.6,13.7,75.9,15.8,114.5c0,0.6-0.2,1.3-0.3,2c-9.6,0.9-18.3,5.1-27.3,8.3C1543.8,2189.1,1530.6,2195.9,1516.3,2199.9z"/>
		<path class="st9" d="M1373.7,1652.1c1,8.6,0.2,17.3-0.2,25.8c-2,40.8-3.1,81.6-7.7,122.2c-2.4,21.4-5.3,42.8-10.4,63.8
			c-5.5-0.5-6.2-5.6-8-9.2c-24.8-49-49.3-98.1-71.2-148.4c-6.5-14.9-13.3-29.8-17.2-45.7c-1-4-1.5-7.7,0.4-11.6
			c4.1-8.4,8.7-16.4,15.5-23c8.9-8.6,18.7-10.3,30.1-5.5c19.7,8.3,38.2,18.7,57.4,27.9C1366.1,1650,1369.4,1652.5,1373.7,1652.1z
			 M1307.7,1751.6c-0.1,11.3,8.8,20.3,20,20.4c11.2,0,20.3-9,20.3-20.1c0-11.3-8.8-20.2-20.1-20.2
			C1316.5,1731.6,1307.7,1740.2,1307.7,1751.6z M1307,1637.6c-11.4,0.2-19.8,9.1-19.6,20.6c0.2,11.3,9.4,20,20.6,19.8
			c11-0.3,20.1-9.8,19.8-20.8C1327.6,1646,1318.4,1637.4,1307,1637.6z"/>
		<path class="st2" d="M585.9,303.9c-9.8,5.9-21,8.1-31.5,12.1c-11.4,4.3-23.1,8.2-36,9.7c0.4-4.6,2.6-7.8,4.4-11.1
			c16.3-29.9,38.5-55,63.8-77.4c51.2-45.2,110-77.9,173.1-103.1c16.4-6.5,33.1-12.1,49.9-17.2c6.2-1.9,11.6-1.6,16.8,2.7
			c3.7,3.1,4.5,6.3,2.6,10.5c-1.7,3.8-4.3,6.7-8.1,8.4c-3.3,1.5-6.7,2.9-10.2,3.9c-5.8,1.8-11.1,4.1-14.9,9.3
			c-2.4,3.2-5.7,5.5-9.4,7.2c-1.2-0.4-1.9-0.1-2,1.3l-0.1,0.1c-7.8,0.6-14.4,4.7-21.3,7.7c-57.4,25.4-109.3,58.9-152.4,104.9
			C601.4,282.5,591.7,291.7,585.9,303.9z"/>
		<path class="st2" d="M1373.7,1652.1c-4.3,0.4-7.6-2-11.2-3.7c-19.2-9.2-37.8-19.7-57.4-27.9c-11.4-4.8-21.2-3.1-30.1,5.5
			c-6.8,6.6-11.5,14.6-15.5,23c-1.9,3.9-1.4,7.6-0.4,11.6c3.9,15.9,10.7,30.8,17.2,45.7c21.8,50.4,46.3,99.5,71.2,148.4
			c1.8,3.6,2.5,8.7,8,9.2c-2,11.4-5.1,22.4-8.7,34.2c-4-2.4-4.8-6.1-6.4-9.1c-18.7-36-34.3-73.5-50.4-110.7
			c-14.1-32.7-28.5-65.2-45.7-96.4c-11.9-21.6-25-42.4-40.4-61.7c-1.2-1.5-2.3-3.2-3.6-5c3.1-3.7,6.4-7,9-10.8
			c5.6-8.2,11.5-13.3,22.8-9.5c7.2,2.4,15.1-1,22.2-4.1c7-3,13.9-6.3,20.9-9.5c10.5-4.8,20.7-3.9,30.7,1.3c7.1,3.7,13.6,8.3,20.1,13
			c13.9,9.9,28.2,19,46.1,19.4c3.7,0.1,4.3,2.2,4.1,5.2C1375.6,1630.9,1375.7,1641.6,1373.7,1652.1z"/>
		<path class="st2" d="M655.9,369.9c-12.3,2.7-24.7,5.2-37,8.2c-35.9,8.7-69.7,22.3-99.5,44.7c-43.6,32.8-67.6,77.1-75.4,130.5
			c-4.4,30.2-3.5,60.4,1.7,90.5c-3.5,3.1-7.1,5.8-12.8,7.1c-0.8-8-1.8-15.8-2.4-23.6c-2.3-29.2-3.6-58.5-2.4-87.8
			c0.9-20.3,3.7-40.4,9.2-60c6.7-23.6,18.5-43.9,35.9-61.2c41.3-41,90.9-65.2,148.2-74.3c6.9-1.1,13.9-1.5,20.8-2.7
			c4.1-0.7,6.3,0.8,7.4,4.6C652,353.8,654.7,361.6,655.9,369.9z"/>
		<path class="st11" d="M1493.9,1424c-9,0-18,0.1-27,0c-16.8-0.3-32.9,3.6-49,7.7c-20.9,5.3-28.5,24.3-25.4,42.4
			c1,6,1.3,11.9,1.3,17.8c0,16.3-8.4,25.8-24.3,28.4c-4.6,0.7-9.3,1.2-13.7,2.1c-18.6,3.8-23.3,10.1-18.3,30.6
			c1,4.2,2.9,8.1,4.3,12.2c-5.6-1-12.2-0.9-16.1-4.5c-4.2-3.9-1-10.8-1.3-16.3c-0.5-8.6-0.6-17.3-0.5-26c0.1-12,1.8-14.1,13.3-17.9
			c7.6-2.5,15.5-3.7,23.5-4.4c6.3-0.6,12.5-1.3,19.6-2.1c-2.4-3.1-5.3-3.6-7.9-4.5c-14.8-4.6-29.8-6.7-45.3-4.2
			c-7,1.1-7.3,1.1-8.6-5.8c-1.4-7.3-4.5-13.9-7.4-20.6c-1.5-3.6-1.7-6.1,2.4-8.1c17.8-8.6,33.4-20.7,49.8-31.5
			c17.8-11.7,35.6-23.5,55.4-31.6c11.5-4.7,23.2-8.2,35.8-7.7c13.8,0.5,24.4,6.2,30.5,18.9C1489,1406.8,1492.9,1414.9,1493.9,1424z"
			/>
		<path class="st8" d="M754.1,1712.1c5.4,2.7,7.7,8.1,11.3,12.4c9.4,11.2,18.4,22.6,27.9,33.8c3.2,3.8,2.8,8,2.8,12.3
			c0,41.9,0,83.8,0,125.8c0,24.6,0,49.2,0,73.9c-9.7,2.1-19.7,3.1-29.6,4.2c-4.8,0.5-7.4-1.5-9.2-5.7c-3.5-8-6.2-16.3-7-24.9
			c-1.9-20.2-3.1-40.4-1.3-60.7c0.4-4.6-0.5-9.3-0.6-13.9c-0.6-20.6,1.5-41.1,2.9-61.7c1.7-25.8,5.1-51.6,4.4-77.6
			C755.6,1724,754.7,1718,754.1,1712.1z"/>
		<path class="st3" d="M585.9,303.9c5.8-12.2,15.5-21.4,24.5-31c43.2-46,95.1-79.5,152.4-104.9c6.9-3.1,13.5-7.1,21.3-7.7
			c-0.5,3.9-4.1,5-6.6,7.1c-3.8,3.2-7.9,6.2-12,8.9c-23.8,15.4-41,36.7-54.5,61.3c-7.8,14.3-16.2,28.4-26.2,41.3
			c-3.1,3.9-6.4,7.6-9.7,11.4c-10.1,11.6-22.9,15.8-37.8,13.3c-15.6-2.6-31-3.5-46.5,0.4C589.3,304.4,587.5,303.9,585.9,303.9z"/>
		<path class="st8" d="M1438.2,2064c-5.8,0.9-10.4,4.2-15.4,6.8c-14.9,7.6-30.5,13-46.9,16.3c-9.2,1.9-18.6,0.6-27.8,0.9
			c-1.8-24.2-1.8-48.5-1.7-72.7c0-5.5,1.6-8.4,7.4-9.8c11.3-2.7,22.6-5.2,34.3-5.6c10.6-0.4,21.2-0.9,31.8-1.5c3.8-0.2,6.5,1,7.4,5
			C1431.9,2023.4,1437.4,2043.2,1438.2,2064z"/>
		<path class="st10" d="M1437.1,369.9c-3.8-0.3-6,2.2-8.5,4.4c-4.7,4-6.2,3.7-8.2-2.3c-2.7-7.9-5.3-15.9-4.3-24.3
			c1.8-15.9,4.9-31.5,14.2-45.1c15-21.9,36.2-34.5,61.7-40.6c4.8-1.1,9.8-1.7,14.7-2.5c14.2,16.2,26.3,34,40.2,51.6
			c-3.5,1.3-5.9,0.3-8.3-0.2c-20.9-4.6-41.6-4.6-61.7,3.4c-18.9,7.5-32.7,20.2-37.7,40.7C1437.9,360,1437.7,365,1437.1,369.9z"/>
		<path class="st5" d="M1338.7,1382.6c-0.4,1.2-0.5,2.1-0.9,2.4c-22.1,15.5-42.2,33.4-63.6,49.8c-3.9,3-7.9,4.4-12.8,4.6
			c-14.7,0.4-29.3,0.1-43.8-1.8c-28.5-3.8-53.1-16.3-75.3-34.2c1.8-3.3,4.2-4.7,7.5-3.4c35,13.4,70.1,7.5,105.1,0.1
			c22.8-4.8,45.2-11.2,68.1-15.1C1328.1,1384.1,1333.2,1383.4,1338.7,1382.6z"/>
		<path class="st8" d="M738.1,2074.1c-15.7-2.3-31.4-4.5-47.1-6.8c-16-2.4-32-4.8-48-7.4c-7.5-1.2-14.5-3.2-20.9-8.2
			c-11.7-9.1-24.3-17-36.3-27.4c6.7-0.1,13.4-0.2,20.1-0.3c2.1,3.1,5.5,3.6,8.8,3.7c9.6,0.2,19.2,0.1,28.8-0.5
			c23.4-1.5,46.8-5.3,70.3-1.2c0.7,0.1,1.3,0.1,2,0.2c18.4,2.6,19.1,3.5,20.4,22.2C736.8,2056.9,738.7,2065.4,738.1,2074.1z"/>
		<path class="st9" d="M758.1,1412c-4.3-2.4-6.8-6.3-8.8-10.5c-2.3-4.8-2.3-9.6,0.5-14.3c1.5-2.6,2.9-4,6.3-2.1
			c24.2,13.7,51.4,14.3,78,16.8c16.2,1.5,32.4,2.7,48.5,4.4c7.8,0.8,8.4,1.6,7.6,9.4c-1,9.9-4.3,19.4-7.3,28.8
			c-34.3-3.2-67-13.2-99.3-24.6C775.2,1416.9,767.1,1413,758.1,1412z"/>
		<path class="st2" d="M1516.3,2199.9c14.3-4,27.5-10.8,41.4-15.8c8.9-3.2,17.6-7.3,27.3-8.3c2,17.9,1,35.9,1.3,53.8
			c0,2.5-0.5,4.6-3.3,5.3c-14.2,3.5-27.2,10.7-41.6,13.8c-0.6,0.1-1.3,0.4-1.9,0.6c-17.5,3.7-18.1,3.2-19.6-14.6
			C1518.9,2223,1517.5,2211.5,1516.3,2199.9z"/>
		<path class="st7" d="M1255.9,1470.9c12.1,0.4,20.5,6.6,26.5,16.7c10.4,17.4,7.8,42.3-5.8,55.4c-12.6,12.2-30.5,12.2-44.8,7.7
			c-2.5-0.8-3.5-2.7-4-5.2c-1.1-5.9-2.3-11.7-3.5-17.5c5.4,0.2,9.3-2.6,12.9-6.2C1251.3,1507.7,1257.7,1490.8,1255.9,1470.9z"/>
		<path class="st2" d="M758.1,1412c9,1,17.2,4.9,25.6,7.9c32.3,11.4,64.9,21.4,99.3,24.6c-0.1,1,0,2-0.4,2.9
			c-1.6,4.6,1.3,11-3.3,13.8c-3.9,2.4-9.1-0.5-13.5-1.4c-31.3-6.8-61.2-17.4-89-33.4C770,1422.4,762.8,1418.7,758.1,1412z"/>
		<path class="st11" d="M1255.9,1470.9c1.8,19.9-4.6,36.8-18.7,50.9c-3.6,3.6-7.5,6.4-12.9,6.2c-3.7-12.1-5.8-24.5-5.8-37.2
			c0-5.5,1.9-9.4,7.1-12C1235.2,1474,1244.8,1469.5,1255.9,1470.9z"/>
		<path class="st4" d="M1459.9,1315.9c1.7,4.1,7.8,4.5,8.4,9.6c-7.5,1.1-14.5,4.5-22.3,4.4l0,0
			C1449.7,1324.3,1454.5,1319.9,1459.9,1315.9z"/>
		<path class="st3" d="M784.3,160.2c0.1-1.3,0.8-1.7,2-1.3C786.1,160.1,785.4,160.5,784.3,160.2z"/>
		<path class="st10" d="M1412.7,161.8c-0.9-0.6-1.8-1.3-2.7-1.9C1411.3,160,1412.2,160.7,1412.7,161.8z"/>
		<path class="st1" d="M1368.2,1908.2c0,0,0.1,0.1,0.1,0.1C1368.4,1908.3,1368.2,1908.2,1368.2,1908.2z"/>
		<path class="st7" d="M1604,1908c-0.9,1,1,0.4-0.3,0.7c-0.2,0-0.4,0-0.6,0C1603.4,1908.4,1603.7,1908.2,1604,1908
			C1604,1908,1604,1908,1604,1908z"/>
		<path class="st4" d="M1384,1940.1c-0.1,0.3-0.3,0.7-0.4,0.7C1383,1940.7,1383.1,1940.3,1384,1940.1
			C1384,1940,1384,1940.1,1384,1940.1z"/>
		<path class="st4" d="M1446,1330c-0.1,0.3-0.3,0.7-0.4,0.7C1445,1330.6,1445.1,1330.3,1446,1330L1446,1330z"/>
		<path class="st12" d="M1257.9,914c0.3,7.4,2.7,14.3,5.2,21.2c5.1,13.9,15.4,21,29.9,22.9c23,2.9,45.1-0.7,67-7.1
			c20.8-6.1,40.7-14.7,60.3-23.8c19.3-9,38.6-18.1,57.9-26.9c3.6-1.6,5.8-4,7.6-7.3c13.2-24.3,11.9-44.4-5.8-65.6
			c-16-19.2-33-37.5-48.8-56.9c-25.5-31.2-50.6-62.8-70.3-98.2c-15.8-28.5-27.7-58.3-32.1-90.8c-1.2-8.9-1.4-17.9-2-26.9
			c-0.3-3.9,0.4-7.1,4.8-8.7c4.6-1.6,8.5-1.1,11.8,2.6c2.8,3,4.7,6.7,5.4,10.6c6.6,34.7,26.3,63.1,45.3,91.5
			c34,50.8,73.7,97.1,115.1,141.9c7.2,7.8,15.2,15.1,23.7,21.5c13.4,10.1,15.3,23.3,12.1,38.3c-1.9,8.8-5,17.3-8,25.7
			c-3,8.4-6.6,16.8-6.9,25.9c-0.1,2.6-1.1,4.4-3.2,5.7c-50.9,32.6-102.6,63.4-162.6,76.6c-32.4,7.1-65.2,9.7-98.3,6.6
			c-4-0.4-7.5-1.2-10.6-4.4c-22.3-22.9-26.9-67.7-9.6-94c1.5-2.3,2.8-4.6,5.9-1.8C1253.8,899.7,1255.9,906.8,1257.9,914z"/>
		<path class="st12" d="M1410.7,1152.2c-8.8,18.4-20.1,32.5-40,38.5c-22.1,6.6-44.7,10.6-67.6,12.5c-30.9,2.6-61.8,2.5-92.6-3.1
			c-30-5.5-55-19.2-74.8-42.5c-10.6-12.5-20.1-25.7-29.4-39.1c-7.9-11.6-16.3-22.7-27-32c-4.5-3.9-8.7-8.3-11.6-13.7
			c-3.3-6.2-2-10.1,4.4-12.7c3.1-1.3,6.3-1.9,9.7-2.2c10.1-0.8,10.1-0.9,14.8,8.7c15.6,31.9,41,52.6,73.5,65.6
			c25.9,10.3,53,15.2,80.6,17.8c49.6,4.7,99.2,2.1,148.8,1.3C1402.7,1151.3,1406.1,1150.3,1410.7,1152.2z"/>
		<path class="st12" d="M1106.7,997.1c39.5,18.3,81.1,24.8,123.3,29.1c42.8,4.4,85.7,4.3,128.7,3.8c10-0.1,9.8-0.1,11.5,10.2
			c2.5,15.9,1.9,31.9,2.5,47.8c0.2,5.7-2.4,6.4-7,6.7c-19.3,1.3-38.6,0.4-57.9-0.9c-36-2.4-71.3-8.2-105.6-19.8
			c-22.5-7.6-43.8-17.6-62.6-32.3c-12.7-10-23.4-21.8-30.8-36.3C1107.6,1003.2,1105.6,1001.1,1106.7,997.1z"/>
		<path class="st12" d="M1106.5,531.9c1.1-7.8-0.1-15.9,3.6-24c3.5,2.7,4.6,6.2,5.9,9.4c6.8,15.5,13.5,31.1,20.1,46.8
			c10,24,23.4,45.5,43.9,62.2c4.6,3.8,8.5,8.4,12.1,13.2c12.1,16.1,10.7,43-5.3,57.4c-14.9,13.5-31.2,21.8-51.5,23.6
			c-25.2,2.2-49.9,1.2-74.1-6.3c-8.7-2.7-16.8-6.5-23.5-12.7c-13.6-12.8-10.1-26.9-3.4-39.1c1.9-3.4,5-2.7,7.9-2.5
			c11,0.8,21.7,3.1,32.5,5.1c16.4,3,32.8,6,49.6,5.1c10.9-0.6,20.9-3.6,29.9-10c3.3-2.4,4-4.5,1.7-8.2c-5.9-9.3-11.4-18.7-17-28.1
			c-0.4-1.2-0.8-2.6-1.4-3.7C1122.6,592.3,1110.5,563.5,1106.5,531.9z"/>
		<path class="st12" d="M1037.9,337.3c6.5,4,13.1,7.9,18.1,13.9c8.5,10.1,10.5,21.2,5.5,33.5c-1.6,4-3.7,5.5-8.4,4.4
			c-12.3-3.1-25-3.8-37.7-3.6c-33.6,0.5-62.1,13.2-86.2,36.2c-19.8,18.9-33.9,41.8-45.8,66.1c-0.6,1.2-1.1,2.4-1.7,3.6
			c-4.4,9.2-8.3,9.6-15.6,1.9c-3.7-3.9-4.2-9-6.3-13.4c0.1-9,1.3-17.8,3.3-26.6c12.1-53,69-103.3,112.4-117.5
			C996.7,329,1017.4,327.9,1037.9,337.3z"/>
		<path class="st12" d="M1573.3,955.9c-18,37.7-39.6,72.3-72.5,98.3c-28,22.2-59.9,34.1-95.6,36c-8.7,0.5-8.8,0.3-9.3-8.4
			c-0.9-16.3-2.6-32.5-0.4-48.9c0.6-4.7,2-6.8,7.1-7.4c36.9-4.2,70.9-17.4,103.5-34.7c18.8-10,37.6-20,56.5-29.9
			C1566.1,959.1,1569.7,957.6,1573.3,955.9z"/>
		<path class="st12" d="M1548,530c0-7,0.1-14,0.2-20.9c0-1.6-0.2-3.5,1.9-4.1c2.4-0.7,3.6,1,4.5,2.9c1,2.1,2.1,4.2,3.1,6.3
			c11.4,24.4,22.8,48.8,34.3,73.1c8.3,17.4,17.4,34.4,28.4,50.3c3.5,5.1,3,8.8-0.3,13.3c-5.1,7.1-11.4,13-18.5,18
			c-19.7,14-41.6,22.1-65.5,24.7c-10.4,1.1-20.6,0.1-30.4-3.6c-15.6-5.9-26.1-22.3-25.1-38.4c0.3-4.5,3.3-5.2,6.5-6.1
			c12.9-3.9,26.2-4.5,39.5-5.2c12-0.6,23.9-1.2,35.7-3.9c17.9-4.1,18.1-4.4,11.3-21.1c-2.4-5.8-4.1-11.9-7.7-17.2
			C1557.9,575.9,1550.6,553.5,1548,530z"/>
		<path class="st12" d="M446,786c-1.6,1-3.2,2-5,3.2c-2.3-31.2,26.8-59.8,58.4-58.1c11.5,0.7,21.9,4.8,32.4,9
			c2.1,1.6,4.2,3.2,6.4,4.7c32.6,21.9,52.1,65.3,41.3,112.6c-5.1-1.7-7.8-5.8-10.5-9.7c-5.4-7.7-9-16.3-13-24.7
			c-3.9-8.4-7.7-17-13.4-24.5c-12.5-16.6-31.5-14.7-40.4,4.3c-6.3,13.6-7.5,28.3-8,42.9c-0.5,15.6-0.1,31.3-0.1,47
			c0,3.3,0,6.5,0,11.5c-5.2-3.8-7.6-8-9.8-12.2c-7.6-14.4-11.1-29.9-12.3-46c-1.9-24.8-0.5-49.3,9.7-72.5c0.2-0.5,0-1.3,0-2.1
			c-7.8-4.9-15.3-3.3-22.3,1.5C454.2,776.4,449.7,780.8,446,786z"/>
		<path class="st10" d="M1106.5,531.9c4.1,31.6,16.2,60.3,31,88.1c0.6,1.2,0.9,2.5,1.4,3.7c-21.2,11.1-44.2,11.3-67.2,10
			c-11.4-0.6-22.2-4.7-31.6-11.2c-19.8-13.6-16.9-42.6-5.3-56.1C1053.5,544.6,1078.6,535.3,1106.5,531.9z"/>
		<path class="st10" d="M1037.9,337.3c-20.5-9.4-41.2-8.3-62.2-1.5c-43.4,14.2-100.3,64.5-112.4,117.5c-2,8.8-3.2,17.6-3.3,26.6
			c-7.5-4.7-9.5-12.6-11.6-20.2c-5.1-19.4-1.6-38.2,5.1-56.6c13.3-36.4,39.6-61.4,71.4-81.6c13.6-8.6,28-15.3,43.9-18.1
			c31-5.6,47.6,3.2,65.9,24.7C1036.9,330.6,1038.2,333.8,1037.9,337.3z"/>
		<path class="st10" d="M1548,530c2.7,23.5,10,45.9,17.9,68c-2.3,2.4-4.6,4.8-7.8,5.9c-10.4,3.5-19.8,9.3-30.3,12.6
			c-7.7,2.5-15.4,3.2-23.4,3.6c-10.7,0.5-17.3-6.1-18.2-18c-1.2-15.2,3.5-29.2,12.6-41C1511.2,545.1,1527.4,533.8,1548,530z"/>
		<path class="st10" d="M1071.2,1024.9c-2.2,1.4-3.3,2.2-4.5,2.7c-21.6,10.2-29.8,29.2-32.6,51.2c-0.9,7.5-3.1,15-2.3,22.7
			c0.2,1.7-0.6,3.3-2.5,3.8c-4.8,1.5-15.2-3.1-16.4-7.9c-5.1-20.2-9.8-40.5-11.2-61.4c-0.7-10.6,6.8-18,15.1-19
			C1035.1,1014.7,1053.3,1014.5,1071.2,1024.9z"/>
		<path class="st10" d="M1257.9,914c-2.1-7.2-4.1-14.4-6.2-21.5c3.5-11.4,5.5-23.2,9.9-34.4c2.4-6.2,4.8-12.5,9.1-17.6
			c5.8-7,12-8.5,20.4-4.8c14,6.1,21.1,17.6,24.4,31.9c0.9,4-1.8,6.2-4.7,8c-13.8,8.7-26.4,19-39.4,28.7
			C1266.9,907.5,1264.3,913.4,1257.9,914z"/>
		<path class="st12" d="M1646.9,2035.9c10.5-14.7,22.2-25.2,35.8-33.8c23.2-14.7,49-21.8,75.8-25.9c10.6-1.6,21.4-2.8,32.4-2.7
			c-0.9,0.8-1.5,1.8-2.3,2c-19.7,5.9-36.9,16.5-54.2,27.1c-12.7,7.8-25.3,16-38.8,22.4C1680.8,2032,1665.4,2036.9,1646.9,2035.9z"/>
		<path class="st12" d="M1674,2135.1c10.7-10.5,22.2-13.2,34-15.1c25.3-4.2,50.4-1.3,75.4,2.9c16.7,2.8,33.2,6.7,49.1,12.8
			c1.5,0.6,3.4,0.5,3.9,3.4C1782.9,2140.4,1729.7,2138.7,1674,2135.1z"/>
		<path class="st12" d="M1676.7,2070.6c6.1-9.4,14-13.4,22.5-16.4c13.7-4.8,27.9-6.2,42.3-6c25.1,0.3,49.7,4,73.8,10.9
			c1.8,0.5,3.9,0.4,6.1,3.1C1773.2,2067.3,1725.9,2074.2,1676.7,2070.6z"/>
		<path class="st0" d="M1307.7,1751.6c0.1-11.4,8.8-20.1,20.2-20c11.3,0,20.2,8.9,20.1,20.2c0,11.1-9.2,20.2-20.3,20.1
			C1316.5,1772,1307.6,1763,1307.7,1751.6z"/>
		<path class="st0" d="M1307,1637.6c11.3-0.2,20.5,8.4,20.8,19.6c0.3,11-8.8,20.5-19.8,20.8c-11.2,0.3-20.4-8.5-20.6-19.8
			C1287.2,1646.7,1295.7,1637.8,1307,1637.6z"/>
	</g>
</g>
</svg>
