<?xml version="1.0" encoding="utf-8"?>
<!-- Generator: Adobe Illustrator 17.0.0, SVG Export Plug-In . SVG Version: 6.00 Build 0)  -->
<!DOCTYPE svg PUBLIC "-//W3C//DTD SVG 1.1//EN" "http://www.w3.org/Graphics/SVG/1.1/DTD/svg11.dtd">
<svg version="1.1" id="Layer_1" xmlns="http://www.w3.org/2000/svg" xmlns:xlink="http://www.w3.org/1999/xlink" x="0px" y="0px"
	 width="187.627px" height="187.738px" viewBox="0 0 187.627 187.738" enable-background="new 0 0 187.627 187.738"
	 xml:space="preserve">
<metadata><?xpacket begin="﻿" id="W5M0MpCehiHzreSzNTczkc9d"?>
<x:xmpmeta xmlns:x="adobe:ns:meta/" x:xmptk="Adobe XMP Core 5.5-c014 79.151739, 2013/04/03-12:12:15        ">
   <rdf:RDF xmlns:rdf="http://www.w3.org/1999/02/22-rdf-syntax-ns#">
      <rdf:Description rdf:about=""
            xmlns:xmp="http://ns.adobe.com/xap/1.0/"
            xmlns:xmpGImg="http://ns.adobe.com/xap/1.0/g/img/"
            xmlns:xmpTPg="http://ns.adobe.com/xap/1.0/t/pg/"
            xmlns:stDim="http://ns.adobe.com/xap/1.0/sType/Dimensions#"
            xmlns:xmpG="http://ns.adobe.com/xap/1.0/g/"
            xmlns:dc="http://purl.org/dc/elements/1.1/">
         <xmp:CreatorTool>Adobe Illustrator CC (Windows)</xmp:CreatorTool>
         <xmp:CreateDate>2018-11-22T14:53:06Z</xmp:CreateDate>
         <xmp:Thumbnails>
            <rdf:Alt>
               <rdf:li rdf:parseType="Resource">
                  <xmpGImg:width>256</xmpGImg:width>
                  <xmpGImg:height>256</xmpGImg:height>
                  <xmpGImg:format>JPEG</xmpGImg:format>
                  <xmpGImg:image>/9j/4AAQSkZJRgABAgEASABIAAD/7QAsUGhvdG9zaG9wIDMuMAA4QklNA+0AAAAAABAASAAAAAEA&#xA;AQBIAAAAAQAB/+4ADkFkb2JlAGTAAAAAAf/bAIQABgQEBAUEBgUFBgkGBQYJCwgGBggLDAoKCwoK&#xA;DBAMDAwMDAwQDA4PEA8ODBMTFBQTExwbGxscHx8fHx8fHx8fHwEHBwcNDA0YEBAYGhURFRofHx8f&#xA;Hx8fHx8fHx8fHx8fHx8fHx8fHx8fHx8fHx8fHx8fHx8fHx8fHx8fHx8fHx8f/8AAEQgBAAEAAwER&#xA;AAIRAQMRAf/EAaIAAAAHAQEBAQEAAAAAAAAAAAQFAwIGAQAHCAkKCwEAAgIDAQEBAQEAAAAAAAAA&#xA;AQACAwQFBgcICQoLEAACAQMDAgQCBgcDBAIGAnMBAgMRBAAFIRIxQVEGE2EicYEUMpGhBxWxQiPB&#xA;UtHhMxZi8CRygvElQzRTkqKyY3PCNUQnk6OzNhdUZHTD0uIIJoMJChgZhJRFRqS0VtNVKBry4/PE&#xA;1OT0ZXWFlaW1xdXl9WZ2hpamtsbW5vY3R1dnd4eXp7fH1+f3OEhYaHiImKi4yNjo+Ck5SVlpeYmZ&#xA;qbnJ2en5KjpKWmp6ipqqusra6voRAAICAQIDBQUEBQYECAMDbQEAAhEDBCESMUEFURNhIgZxgZEy&#xA;obHwFMHR4SNCFVJicvEzJDRDghaSUyWiY7LCB3PSNeJEgxdUkwgJChgZJjZFGidkdFU38qOzwygp&#xA;0+PzhJSktMTU5PRldYWVpbXF1eX1RlZmdoaWprbG1ub2R1dnd4eXp7fH1+f3OEhYaHiImKi4yNjo&#xA;+DlJWWl5iZmpucnZ6fkqOkpaanqKmqq6ytrq+v/aAAwDAQACEQMRAD8A9U4q7FXYq7FXYq7FXYq7&#xA;FXYq7FXYqp3NzBa28tzcOIoIUaSWRtgqKKsT8hgJplCBlIRAsl5dr35+6Nbs0WjWUl8wqBcTH0Yq&#xA;+IWjOw+fHMSesA5C3qtL7KZZb5ZCPkNz+r72C6r+c/nu+LCK6jsIz+xbRqNv9eT1H+45jS1Uz5O/&#xA;wezekx84mZ8z+qgxi88z+Y70n63ql3OD2knkYU+RNMqOSR5l2mPQ4IfTCI+AS1mZ2LMSzHqTuTkH&#xA;KApysyMGUlWHQjYjFSLTKy8z+ZLEg2eqXcFOgjnkUfcDTJjJIci4uTQ4J/VCJ+AZPpX50eerEgS3&#xA;MV/GP2LmME0/1o/Tb7zlsdVMebq8/s3pMnIGB8j+u2d6D+fmi3LLFrNlJYOaAzxH1ovmRRXUfINm&#xA;TDWA8xToNV7KZY74pCfkdj+r7nqME0M8Mc8LiSGVQ8cimqsrCoIPgRmYC8rKJiSDsQvxYuxV2Kux&#xA;V2KuxV2KuxV2KuxV2KuxV2KuxV2KuxV2KuxV2KuxVaskbFgrBipowBBIPvikghdihC6tpsGp6Xd6&#xA;dcVEN5C8MhHUB1K1HuK5GUbFN2nzHFkjMc4kH5PkzWdKu9I1W60y7XjcWkjRv4Gh2YezDcZppRMT&#xA;RfXdNnjmxxyR5SFoPItzsVdirsVdirsVR2h6Pd6zq9ppdoKz3cgjU9QoO7MfZVqxyUImRoNGq1Ec&#xA;OOWSXKIfWmn2UNhYW1jBtDaxJBED/LGoVfwGbqIoU+Q5spyTMzzkSfmr4Wta0kasqswVn2QEgEn2&#xA;xtIBK7FDsVdirsVdirsVdirsVdirsVdirsVdirsVdirsVUL6/srCzlvb2ZLe0gUvNPIQqqo7knBK&#xA;QAs8mzFilkkIxFyPR89fmR+fmo6k0umeVmey06pWTUPs3EwH8neJT/wXy6ZpdT2gZbQ2He+g9j+y&#xA;0MdTz+qf83oPf3n7PewDyP541fylryapZuZI3PG+tmJ4zxk7hv8AKHVW7H6RmHgzyxysO/7S7Nx6&#xA;vF4cv809x/HN9c+XPMWl+YtHt9W0yX1bW4WoB+0jftI43oynYjOjx5BOPEHyTWaTJp8hxzFSH4se&#xA;SZZY4zxr8+vKoBtvMtunWltf0/5JOf8AiJ+jMDWY/wCJ7X2V1/PBL3x/SP0/N43mC9o7FXYq7FXY&#xA;q7FXs35CeViBdeZLhPtVtrEkdusrj8FB+eZ+jx/xPFe1eu+nBH3y/QP0/J7Hmc8WlXmjzNpXlrRb&#xA;jV9Tk4W8A+FB9uRz9mNB3Zj/AFO2V5cohHiLl6LR5NTlGOA3P2eZfI3nPzprHmvXpNWvnKGtLS3V&#xA;jwgjB+FU/WT3O+c3nzyyS4i+t9ndnY9LiGOHxPefN6L+W35+X2nNFpfmt3u9P2WPUqFp4h0/e95E&#xA;Hj9r/W6ZnabtAx2nuO953tj2WjkvJp/TP+b0Pu7j9nufQdneWl7axXdnMlxazqHhmjIZGU9CCM3M&#xA;ZAiw+fZMcoSMZCpDorYWDsVdirsVdirsVdirsVdirsVdirsVdiqD1nWdN0bTZ9S1Kdbaytl5Syt+&#xA;AA6kk7ADrkZzERZ5N2n0880xCAuRfK35mfmlqvnO+MSlrXQ4HJtLIHduwkmpsz/gvbuTz2q1Ryn+&#xA;i+qdjdiY9HG/qynmf0Dy+9g+YjvHYqzf8rPzJu/JmsfvS0uiXbKL+2G5HYTRj+dR2/aG3gRl6TUn&#xA;FL+iXR9udjx1mPbbLH6T+g+X3Pq+xvrO/s4b2zmWe1uEEkMyGqsrCoIzooyBFjk+UZcUscjGQqQ5&#xA;hDeYNGt9a0S90qenp3cTR8jvxbqjf7FgDgnHiBDbpNScGWOQc4l8mXlpPZ3c1pcLwnt5GilQ9nQl&#xA;WH3jNKRRp9ex5BOIlHkRajgZuxV2KuxVFaXpt1qepW2n2q8ri6kWKMe7GlT7DqcMY2aDVnzRxQM5&#xA;coi31loekWuj6RaaXaj9xaRrGpPViPtMfdjUnN1CIiKD5FqtRLNklklzkbVNS1Gx02wnv76Zbezt&#xA;kMk0zmgVR/nsMZSERZ5MMOGWSYhAXI8nyd+Z/wCY175z1oyDlDpFqWXTrU9Qp6yPT9t6b+HT3PO6&#xA;rUnLL+j0fWOxeyI6PFXPJL6j+geQYZmK7p2Ks6/LL81dV8mXggk5XehTNW5sq7oT1lhr0bxHRu/i&#xA;MzS6s4j3xdF2z2Hj1kbHpyjkf0Hy+77H1Po2s6brOmwalps63NlcryilX8QR1BB2IPTOghMSFjk+&#xA;WajTzwzMJipBGZJpdirsVdirsVdirsVdirsVdirsVUb29tLG0mvLyVYLW3QyTTOaKqKKkk4JSAFl&#xA;njxynIRiLkeT5S/NX8zbzzlqvpwFodCtGP1K2Oxc9PWlH8x7fyjbxrz2r1Ryn+iH1bsPsaOjx2d8&#xA;suZ/QPL72C5hu9dirsVdir1L8l/zVby1eLomryk6DdP+7kbf6rKx+17Rsft+HXxrsNFq+A8Mvp+5&#xA;5b2i7D/Mx8XGP3sf9kP193y7n00rKyhlIZWFQRuCDm+fMiKeGfnd5JmtNSPmSyiJsrui3wUf3cw2&#xA;DmnRZBTf+b5jNdq8VHiD3vsz2mJw8CR9Ufp8x3fD7vc8qzDesdirsVdir1v8hfK/r3115iuE/d2o&#xA;NvZEjYyuP3jD/VQ0/wBlmbo8e/E8h7Va7hgMI5y3Pu6fb9z2ySSOONpJGCRoCzuxAAAFSST0AzYP&#xA;DAEmg+Yfzk/NSTzRfNpOlSFfL9o/2hUfWZFP943+QP2B9J7U0Gt1fiHhH0j7X072e7DGlh4mQfvZ&#xA;f7Ed3v7/AJe/mWYD07sVdirsVZ7+U/5nXfk7VRBcs0ugXbj65AN/TY0Hrxj+YD7QH2h70zM0mqOI&#xA;0fpLoO3exY6zHcdsseR7/wCifxs+q7W6tru2iuraRZredFkhlQ1VkYVVgR2IzoQQRYfKpwlCRjIU&#xA;Qq4WLsVdirsVdirsVdirsVdirsVeF/8AOS2v6xD+jNEiLRaXdI1xOwqBNIjUCE+CbNT3B7DNT2nk&#xA;kKj0e69jtLjPHlO847DyHf8AF4Nmne8dirsVdirsVdir6I/5x1846vqVhd6Beh57fS0R7O7O/CNi&#xA;V9Bm/FPao6AZu+zc0pAxPR879rez8eOcc0djM7jz7/1vY5oYponhmRZIpAVkjcBlZTsQQdiM2ZDx&#xA;0ZGJsbFh9z+T/wCX085mOmemWNWSOaVEP+xDUH0ZQdNA9HdQ9odZEVx/MD9Sa2fkTybaW31eHRbM&#xA;xHqJIUlY/NpA7H6TkxhgOgcPJ2pqZy4jklfka+5Un8l+UJ/73RLFj/N9XiB29wtcTiiegYx7S1Me&#xA;WSf+mKV3H5T/AJeztyfR0B/4rkmjH3I6jIHTwPRy4dv6yPLIfkD94ZJp2m2GmWUVlYQJbWkIpHDG&#xA;KAdz9JO5OXRiAKDrM2aeWRnM8Uj1eO/85HebdZsbey8v2nKCx1CNpby4WoMoVuPohvAdXHeo7ddX&#xA;2lmkAIjkXsPZDQY5mWaW8oGgO7z/AFfF8+5pn0F2KuxV2KuxV2Kvff8AnGzzNq9zFqHl+dHm06zQ&#xA;XFtcH7MLO9DDX/LqWUezZuOzMsjcegeB9sNFjiY5htOWxHf5/Dkfg9wzbPDuxV2KuxV2KuxV2Kux&#xA;V2KuxVK/MnljRPMmmPpusWy3Ns3xLXZ0cbB42G6sP89sry4ozFSDlaPW5dNPjxmj9/kXzT+Y/wCT&#xA;eueU2kvbTlqOhVqLpR+8iHhOo6f642+XTNFqdFLHuN4vpXZHtDi1dRl6Mvd0Pu/Vz97zzMJ6J2Ku&#xA;xV2KvU/yv/JK+8ypHq2tl7HRDRoUG01yP8mv2E/yj17eObDS6Ez9Uto/e8t217SQ0148VSy/ZH9Z&#xA;8vm+jNF0LSNDsE0/SbSOztI+kcYpU0pyY9WY03Y75u4Y4wFRFB851OqyZ5meSRlJHZNodirsVdir&#xA;sVdiqA1zQNG13T30/V7SO8tH6xyDcH+ZWFGVvdTXIZMcZipCw5Gm1WTBPjxyMZPnD8z/AMldR8sC&#xA;TVdIL32hDeSorNbj/iyg+JP8sfT4nSarQnHvHeL6N2L7Rw1NY8npy/ZL3efl8nmGa96h2KuxV2Kv&#xA;R/y1/JjWPNbR6hqHPT9BrUTkUlnHhCp7f5Z28K5nabRSybnaLzfbHtFj0twh68vd0Hv/AFfc+ldA&#xA;8vaPoGmx6bpNslraR9EXqzd2djuzHxOb3HjjAVEbPmuq1eTUTM8h4pFMcm47sVdirsVdirsVdirs&#xA;VQ+oahY6dZy3t/cR2tpAOU1xMwRFFabs1B1NMEpACy2YsUskhGIMpHoFHSNd0XWbc3Gk30F/Ap4t&#xA;JbyLIAfBuJND88EZiXI2yz6bJiNZImJ8xSOyTS0yq6lHAZWBDKRUEHqCMUg08T/Mz8g4bn1dW8oo&#xA;sNxu8+kV4xv3JgJ2Q/5B+Hwp0zVars+/VD5Pa9je1JjWPUbjpPr/AJ3f7+fe8DuLa4tp5Le4iaGe&#xA;JiksUilXVgaEMp3BGacgg0XvoTEgDE2Cp4GT1v8AJP8AKhdenXzFrcVdGt3pa2zja6kXYk+MaHr/&#xA;ADHbsc2Wh0nH6pfT97yXtJ274A8HEf3h5n+aP1n7Ofc+kgAoCqKAbADoBm8fNnYq7FXYq7FXYq7F&#xA;XYq7FWnRHRkdQyMCGUioIOxBBxSDW4fNP51flSPLlydd0aL/AHBXL0nhXcWsrHYf8Y3P2fA7eGaL&#xA;XaTgPFH6fufSvZzt38xHwsp/ejkf5w/WOvz73lOa56tUtrW5uriO2tonnuJmCRQxqXdmOwCqKkk4&#xA;QCTQYTnGIMpGgHv35Z/kHBaelq3m5Fnudnh0nZok7gzkbO3+QPh8a9BuNL2fXqn8nge2fakzvHp9&#xA;o9ZdT/V7vfz9z2pVVVCqAqqKADYADNq8UTbeKoDWde0XRLQ3er3sNjb9BJO4QE+C13Y+wyM5iIsm&#xA;m/BpsmaXDjiZHyV9O1Gw1KyhvrC4jurOdeUM8TB0YdNiPfbDGQIsMMuKWORjMVIdCiMLW7FXYq7F&#xA;XYq7FXgP/OT3mwj9G+Vrd+v+nXwB+aQqaf7JiPlms7QycovceyGi+rOf6o/T+j7Xh2j65rGi3qX2&#xA;k3ktldp0lhYqSPA02YHuDtmujMxNg09nn0+PNHhyREo+b2zyV/zkzNGEtPN1p6oG36Ss1Af5yQ1C&#xA;n3KEf6ubDFr+k3j+0PZEH1ac1/Rl+g/r+b2/y/5o8v8AmKyF5ot9FewbcjGfiQns6GjofZgM2MMk&#xA;ZCwbeN1Wjy4JcOSJifxy700ybjMH/Mb8qND85W7T0FlraLSG/RftUGyTAfbX36jt4ZianSRyi+Uu&#xA;93nZHbuXRmvqxdY/q7njeg/kB5zuPMKWmrwLaaVE4NzfJIjh4wakQgHlyboOSinfwzWY+z8hlUtg&#xA;9lqvarTRwmWM8WQ8o0efm+lrGytLCzgsrOJYLW2RYoIU2VUQUUD6M3sYgCg+aZckpyMpG5Hcq2Fg&#xA;7FXYq7FXYq7FXYq7FXYq7FUPqOn2WpWE9hexLPaXSNFPE3RlYUIyMoiQo8mzDlljmJxNSibD5o1j&#xA;8gPO8PmKSx0yBbnS3etvqLyRoixE7eqK8+Sj7XFT7Zop9n5BKhy730vT+1WlOETmanW8aPPy6fa9&#xA;p/Lr8qtC8m24mUC81mRaT6g43FeqQrvwX8T38BtdNpI4h3y73i+1+3MusNfTj6R/X3lm2ZTpEp8x&#xA;+bPLvluz+ua3fxWUJrwDmruR2jjWruf9UZDJkjAWS5Wl0WXUS4ccTI/jmeQeIedP+cmbqQva+UbQ&#xA;QR7j9I3ahpD7xw7qvsXr/q5rsuvPKD2XZ/sjEerOb/ox/Sf1fN4rrGuaxrV699q15Le3b9ZZmLED&#xA;wFdlA7AbZr5TMjZNvX4NPjwx4ccRGPk94/5xi83eraah5VuH+OA/XbEHrwchZlH+q3Fv9kc2XZ+X&#xA;YxeJ9r9DUo5x19J/R+PJ7vmyeKdirsVdirsVWTzw28Ek8ziOGJS8jt0VVFST8hgJplGJkQBzL4g8&#xA;6+ZJvMvmrUtbkqBeTM0KHqsK/BEp/wBWNVGc9lycciX2Ps/SDT4I4x/CPt6/akmVuY7FUXpmranp&#xA;V4l7pt1LZ3ce6TQOyMPaqkbe2GMjE2GrNhhljwzAlHzey+S/+cmNVtSlt5rtfr8Gw+v2wWOce7x/&#xA;DG/0cfpzYYteRtLd5LX+yUJerAeE9x5fPmPte5eV/OnljzRafWdEv47oKAZYQeM0df8AfkbUdfnS&#xA;h7ZsceWMx6S8ZrOz82mlWSJj9x9xTvLHDdirsVdirsVdirsVdirsVdirsVdirsVdiqR+avO/ljyr&#xA;ai41y+S25gmGHd5pKfyRrVj8+g75XkzRgPUXN0XZ+bUyrHG/uHxeF+c/+cl9YvPUtfK1qNOtjVRf&#xA;XAWS5I8VTeOP6eWa3Lrydo7PaaD2SxwqWc8Z7hy/WfseOalqmpandveajdS3l1J9ued2kc/7JiTm&#xA;BKRJsvWYsMMceGAEY9wQuBsdiqf+Q/NEvljzbputIT6dtKBcov7UD/BKtP8AUY098tw5OCQLg9pa&#xA;ManBLH3jb39PtfbkM0U0STRMHikUPG6moZWFQQfcZ0IL47KJBo812KHYq7FXYq8v/wCchfNv6F8j&#xA;tpsL8b3W2NsoHUQKOU7fSKJ/ssw9bl4YV3vSey+i8bU8Z+nHv8en6/g+Us0r6a7FXYq7FXYq9M/5&#xA;x60i/vvzGtrm2kaGDToZZ7tl2DIy+mIz2+JnG3gMy9FEnJfc877UZ4w0hiRZmQB99vrHN2+YOxV2&#xA;KuxV2KuxV2KuxV2KuxV2KuxV2KuxV8l/85B2OpW/5l3st4zPBdRQy2LGtBCIwhVew4yK36++aTWg&#xA;jIbfUPZjJCWjiI84k377/VTzbMR6F2KuxV2KuxV9Yf8AOPvm39OeRY7Cd+V7ojC0kr1MJFYG+XGq&#xA;f7HN1osvFCuofMfafReDqTIfTk3+PX9fxem5mPOOxV2KuxV8g/nd5wHmXz1dGCTnp+mf6FZ0NVPp&#xA;k+o4/wBaSu/hTNFq8vHPyD6r7PaH8vphY9c/Uf0D5MAzGd47FXYq7FXYq+ov+cbPLP6N8mTaxKhW&#xA;41mYspIofQgJSP735n5UzcaDHUL73zf2s1fiagYxyxj7Tuf0PW8znlnYq7FXYq7FXYq7FXYq7FXY&#xA;q7FXYq7FXYq8j/5yR8qjUvJ8WtwpW50WUGQgbm3nIRx9D8G9hXMHX47hfc9T7Kazw9QcZ5ZB9o/Z&#xA;b5ezTvpDsVdirsVdir0X8iPN3+H/AD7bQzPxsNXH1K4r0Duawv8ARJQV8CcytHl4Z+RdB7R6Hx9K&#xA;SPqh6h+n7H1xm8fLXYq7FVsyGSJ0VijOpUOOoJFKj5YlMTRt8W+cfy283+VLmRdUsZDaKxCajEC9&#xA;u47HmPs18Goc5/LgnDmH17QdrafUgcEvV/NPP5fqYtlLsnYq7FXYqr2VnPe3tvZ268ri5kSGFfF5&#xA;GCqPvOECzTDJkEImR5AW+6ND0m30fRrHSrf+4sYI7eM+IjULU+5pXOjhHhAHc+L6jOcuSUzzkSfm&#xA;jsk0uxV2KuxV2KuxV2KuxV2KuxV2KuxV2KuxVB61pVtq+kXul3Irb30ElvLtWiyKVqPcVqMjOPEC&#xA;D1btPmOLJGcecSD8nwrfWVxY3txZXC8bi1leGZfB42KsPvGc4RRp9ox5BOIkORF/NQwM3Yq7FXYq&#xA;yzyb+WfnTzTNE+lWMiWhYV1KasUCUP2g5+1x8Eqcuxaec+QdZr+19PpgROQ4v5o3Py/W+z4lZIkR&#xA;25sqgM52qQNz9OdAHyKRsrsUOxV2KtOiOjI6hkYFWVhUEHYgg4pBrcPOvN/5DeRPMHOa3tzo9+2/&#xA;r2QCxk/5cB/dn/Y8T75iZdHCXkXf6H2k1WDYnxI90v18/veI+cPyE88+X/UntIRrNgtT69mCZQo/&#xA;ngPx/wDA8h75r8ujnHluHsND7S6bPtI+HLuly+fL5084dHR2R1KupKsrChBGxBBzEegBvcLcUvQv&#xA;yH0L9LfmVpzMnODTg99N7ekKRn/kayZlaOHFkHk6L2k1PhaOXfP0/Pn9lvrvN4+VuxV2KuxV2Kux&#xA;V2KuxV2KuxV2KuxV2KuxV2KuxV8g/npoo0r8y9U4LxivuF7H7+sv7w/8jQ+aLWQ4ch831X2c1Hia&#xA;OHfH0/Ll9lMAzGd4uSN5HVI1LuxoqqKkk9gBigkDcvSfKP5A+ete4T3sI0Wxah9W8B9Yg/ywD46/&#xA;6/HMvFopy57B5/Xe02mw7RPiS/o8vny+VvbvKP5E+Q/L3CeW2OrX60P1m9o6gj+SEfux7VBPvmxx&#xA;aOEfMvHa72j1WfYHgj3R/XzehqqqoVQFVRRVGwAHYZlOgJtvFXYq7FVM3VsLgWxmQXDDksJYcyvi&#xA;F60wWy4TV1sqYWLsVdirGfNn5beTPNSE6vp0b3NKLexfurgeH7xaFqeDVHtlOTBCfMOx0Xa2o039&#xA;3LbuO4+X6njPmb/nGDWIZGl8uanFdwdRb3lYpQPAOgZH+5cwMnZ5/hL12k9r8ZFZomJ747j5cx9r&#xA;P/yU/Ku88lWd7d6s8b6vf8UKxEssUKVIXkQKszGrdthmTpNOcYJPMuj9oO2Y6uUY478OPf1L03Mx&#xA;5x2KuxV2KuxV2KuxV2KuxV2KuxV2KuxV2KuxV2KvD/8AnIn8v9f12+0jVtEsJL+VI3tLtIRydVDc&#xA;4iR141d6ntmu12GUiCBb2Xst2niwxnjySERfEL+R/Qxzyf8A84z65e8LjzPdrpluaE2cBWW4I8C2&#xA;8af8N8sqxaCR+rZ2Gu9rcUNsI4z3nYfrP2PbvKn5c+TvKqD9D6dHHcUo15J+8uG8f3jVIr4LQe2b&#xA;DHghDkHjdb2rqNT/AHkjXdyHyZLlzr3Yq7FVJby0a5Nqs8ZuVXk0AZeYXpUrWtMFsuA1dbKuFitl&#xA;ljhieWVgkcal3c9AqipJxSASaD4L80eYLvXfMuoa3M7eteXDzoSd0Ut+7UH/ACFoo+WaOcuKRL6j&#xA;psAxY4wHQUm+ifmz+Y2ihVsdfuvST7MM7fWYwPAJOJAB8snHPMci0Zuy9Pk+qA+G33PQtC/5yp80&#xA;23FNZ0q11BBsZIGe2kPua+qn3KMvjrZdQ6nN7M4j9EjH37/qehaJ/wA5Nfl3fFU1BbvSpD9ppovV&#xA;iB9mhMjfegzIjrIHns6nN7O6iP01L4/regaH538oa7QaRrFpeSN0hjlT1fpjJDj7svjkjLkXU5tH&#xA;mxfXGQ+Cd5NxnYq7FXYq7FXYq7FXYq7FXYq7FXYq7FXYq7FXYq7FXYq7FXYqkmt+d/KGhVGr6zaW&#xA;ci9YZJkEv0Rglz92QlkjHmXJw6PNl+iMj8Hn2u/85N/l7Yck05LvVpR9loo/Rir7tMUb7kOUS1kB&#xA;y3dth9nNRL6qj9v3frefa5/zlT5quQyaPpVpp6HYSTM9zIPcH90n3qcx5a2XQO2w+zOIfXIy+z9b&#xA;zzXfzW/MTXOQ1DXroxN9qGB/q8ZHgUhEan6colmnLmXbYezNPi+mA+O/3pb5P8wz6B5r0zW0dg1n&#xA;cxyykE1aPl+9U9/jQkHI45cMgW7V4BlxSh3j+x94o6SIroQyOAysNwQdwRm7fLyKYb+cmtnRvy01&#xA;66VuMstubSLx5XREO3uA5P0ZTqJVAuw7Jw+JqYDzv5bvibNO+kuxV2KuxV2Ksn0D8zPPugvGdM1y&#xA;7jijPw20khmg+XpSc0/DLI5pR5Fws/Z2DL9UB7+R+YfZ/lDWJ9b8q6RrFxEIZ9Qs4LmWNahQ0sYY&#xA;8a78d9vbNvjlcQXzrVYhjyygOUZEJtk3HdirsVdirsVdirsVdirsVdirsVdirsVdirsVdiqQ+fNc&#xA;vdB8m6xrFlGsl3Y2sksCuCV5AbMwHUL1IyGSRjEkOVosMcuaMJcpF8ca7+Znn7XS36S127ljc1aC&#xA;OQww/wDIqLgn4ZqJZpy5l9Dw9nYMX0wH3n5ljJNdz1ytzWsVdirsVdir7e/KXW/01+XGgXxPKQWq&#xA;28p7l7YmBifcmOubnBK4AvmnamHw9TOPnfz3ef8A/OVWsG38q6RpStQ3940zDuUto6EfLlMpzH1s&#xA;vSA7b2ZxXllP+bH7/wCx8w5rntXYq7FXYq7FXYq+/tBsBp+h6dYAcRZ2sMAXpT0owlPwzeRFAB8q&#xA;zz45yl3klHZJqdirsVdirsVdirsVdirsVdirsVdirsVdirsVdiqV+arFb/yxq9iwqLqyuISP+MkT&#xA;L/HIzFxIb9NPgyxl3SH3vgfNG+puxV2KuxV2KuxV9Sf84s6v9Z8l6hpjGr6fel0HhHcIpUf8GjnN&#xA;lopekh4j2lxVmjL+dH7vwGC/85Uar6/nTTdOUgpY2IdvaSeRiR/wMaHKdbL1AOz9msVYZS/nS+54&#xA;rmG9I7FXYq7FXYqitLt/rGp2dvQH1p446N0PJwN/vwxG7XllUSe4P0CzevlLsVdirsVdirsVdirs&#xA;VdirsVdirsVdirsVdirsVdiriARQ9MVfnxcw+jcywg8hG7JXx4mmaEvrETYtSxZOxV2KuxV2Kvcf&#xA;+cU9UMPmnWdLJot5ZLcAeLW0oUfhOczNFL1EPM+02K8UZd0q+Y/Ywv8APTUv0h+amuuGqkEkdsg8&#xA;PQiRGH/Bhsq1JuZdj2Lj4NLDz3+ZYFlDtXYq7FXYq7FUx8uf8pDpf/MXB/ycXJQ5hp1H93L+qfuf&#xA;febx8rdirsVdirsVdirsVdirsVdirsVdirsVdirsVdirsVdir4C1+NI9d1GNBREuplUeAEjAZopc&#xA;y+q4DcI+4IDA2uxV2KuxV2KvRPyB1I2P5qaPU0juvWtpPf1IX4/8OFy/Smph1HbmPi0svKj9rEfN&#xA;t/8ApHzVrN/Wv1u+uZgfaSVmHh45VM3Ilz9LDgxRj3RH3JTkXIdirsVdirsVTHy5/wApDpf/ADFw&#xA;f8nFyUOYadR/dy/qn7n33m8fK3Yq7FXYq7FXYq7FXYq7FXYq7FXYq7FXYq7FXYq7FXYq+ANam9bW&#xA;L+anH1LiV+PWnJyaZopc31bCKgB5BBYGx2KuxV2KuxVPPI2ofo7zpoV8TRbbULaRz/kCVeQ+la5P&#xA;GakD5uLrcfHhnHvifuZpq/8Azjn+Z9pqE0Fhp6ajaKx9C7juLeMOlfhJWaSNgadRTLpaSYOwddi7&#xA;f00ogylwnuo/oCin/OO35rsoJ0uJSRupureo+5yMH5XJ3Mj2/pf532H9TUv/ADjx+bCLVdIjlNfs&#xA;rdWwP/DSKMfyuTuSO3tJ/O+w/qUf+hfvzd/6sP8A092X/VbB+Vydyf5d0n8//Yy/UiF/5x1/NcqC&#xA;dLiUkdDdW9R9z4fyuTuY/wAv6X+d9hak/wCcd/zYVCy6VG5HRVurap/4KQD8cfyuTuUdvaT+d9h/&#xA;Umfk7/nHv8xz5k0+XVrBNO0+3uIpri4e4gkPCNwzBFheU8iBtUUyWPSzsW06vt3TeHIQPFIg9D+m&#xA;n1fm0eEdirsVdirsVdirsVdirsVdirsVdirsVdirsVdirsVdir5M81f847/mPDr97+ibBNR06SZ5&#xA;LW4S4gjPpsxKhlmkjYMAd+o981c9LO9g95pu3tMcY45cMq32P6AgE/5x2/NdlBOlxKSN1N1b1H3O&#xA;RkfyuTubT2/pf532H9TZ/wCcdfzWp/xzIv8ApKt/+a8fyuTuX+X9L/OPyKH/AOhfvzd/6sP/AE92&#xA;X/VbB+VydzL+XdJ/P/2Mv1K8f/OO/wCbDIGbSo0J6q11bVH/AAMhH44fyuTuYnt7SfzvsP6nP/zj&#xA;t+a6qWGlRuR0Vbq3qfvcDH8rk7lHb2k/nfYf1Izy5/zjv+Zk2s2g1Gwj02yWVHnupLi3k4orAtxS&#xA;GSRi1Ogp9OGGlne+zXqO3tMIHhPEe6j+kPrbNq8E7FXYq7FXYq7FXYq7FXYq7FXYq7FXYq7FXYq7&#xA;FXYq7FXYq7FXYq7FXYq7FXYq7FXYq7FXYq7FXYq7FXYq7FXYq7FXYq7FXYq7FXYq7FXYq7FXYq7F&#xA;XYq7FXYq7FXYq7FXYq7FXYq7FXYq7FXYq7FXYq7FXYq7FXYq7FXYq7FXYq7FXYq7FXYq7FXYq7FX&#xA;Yq7FXYq7FXYq7FXYq7FXYq7FXYq7FXYq7FXYq7FXYq7FXYq7FXlV9/zkl+XlrqMtmI7+4WF2Q3cM&#xA;MZhYrtVeUquR4fDmKdXAF3kPZ/USiD6R5Xv9yz/oZf8ALr/fWof8iI/+quP5uHmn/Q7qP6Pz/Ynm&#xA;ifnj+WmrSrCmrCzmfYJeI0A/5GMPS/4bJx1MD1cbN2NqcYvhseW/7Wdo6OiujBkYBlZTUEHcEEZe&#xA;6wikHrWs6doulXOq6jL6NlaIZJpKE0HQAAbkkmgHjglIAWWeHDLJMQiLkXmQ/wCcmPIBk4G01MLU&#xA;j1DDBx+e0/L8MxvzcPN3X+h3PXOHzP6lX/oZL8vP99ah/wAiE/6qY/m4ebH/AEP6j+j8/wBinJ/z&#xA;kv5AVwq2upOD1dYYaD/gpgfwx/Nw82Q9ndR3x+Z/U9L0PWtP1vSbXVtOk9WyvIxJC5FDQ7EEdiCK&#xA;HMiMgRYdNmwyxzMJcw84uf8AnJP8u4L2W2CX8yRMVF1FDGYnoaVSsqvQ9qrmOdXC3cR9ntQYg+ke&#xA;V/sW/wDQy35df761D/kQn/VTH83DzX/Q7qP6Pz/YitP/AOcivy1u5xFLPc2QNAJbiA8Kn3iMpH0j&#xA;CNVAsMnYGpiLAB9x/XT0aw1Cx1CzivLG4jurSYcop4mDow9mG2ZAIO4dRPHKB4ZCiFfCwYBqH52e&#xA;TbO5mtwl3cPC5jLRRJxJU0JBd02zGlqoB6HD7M6mcQfSL7z+oFkHlHztonmq2mm00yI9uQs9vMoW&#xA;ReVeJIUsKGhpQ5bjyifJ13aHZmXSSAnW/Ijkn+WOvdiqR+afOeg+WLeObVJirzEiC3jXnK9OtF22&#xA;FepIGV5MsYc3P0PZubVSIxjlzJ5Bj2mfnV5MvrqK2P1q0aZgivcRqEBJoKmN5KVPfKo6qBLsc/s1&#xA;qscTL0yruP6wGe5kvPsBvfzt8kWt3Lbc7mf0mKGWGIGMkGh4lmUke9MxjqoAvQYvZnVTiJekX3nf&#xA;7ma6bqNnqVhBf2UgltblBJDIKiqt7HcHxGZEZAiw6TNhlimYSFSjsWJa7+b3lHRtRuNPm+sT3Nsx&#xA;SYQRggOOq1dk3GUT1MYmnb6X2e1OaAmOERlys/qBRXlT8zvLPma9NjZGa3vOJZILlFQuF3bgUZ1N&#xA;PCtcOPURmaDVr+xM+ljxyox7x0+wMsy91DCNe/ODylo2qS6bMLm5nt29OdreNWRHGzKS7pUjvTMe&#xA;epjE073S+z2ozYxMcIB5Wf1Asn0DX9M17TItS02X1LaSo3HFlZdmVlPQjLoTEhYdXq9JkwZDCYqQ&#xA;S3zb570Pyt6C6gJpJbmpjhgVWbivVjyZFA38chkzCHNyez+ysuqvgoAdT+Cxz/lenlL/AJZL/wD5&#xA;Fw/9Vsq/Nx83Zf6F9R/Oh8z/AMS7/lenlL/lkv8A/kXD/wBVsfzcfNf9C+o/nQ+Z/wCJRmkfnH5U&#xA;1PUbewSK7t5Ll1jikmjjCc2NFBKSORUnwyUdVEmmnUezuoxQMyYkR32J/SA+Oc1T270ry9+QfnHX&#xA;NBtdYgubK3jvUEsEFw8of023VjwjcDkNwPDMmOmlIW6bP25hxZDAiRrur9bFvOHkLzP5SuUh1m19&#xA;OOUkW91GweGSnXiw7+zAH2yrJilHm52k12LOLgfh1eif84+fmVqGn69B5V1CdpdJ1AlLIOa+hcUq&#xA;oQnokn2eP81D45kaXMQeE8nU9u9nxnjOWI9UefmP2PX/AM843f8AKvXFUVIFs30LdxMfwGZWp+gv&#xA;P9imtVD4/wC5L5EAJIAFSegzVPfPQdL/ACH/ADJ1C0S6GnpapIAyJdSpHIQfFN2X5MAcyI6aZ6Op&#xA;y9t6aBriv3BMZP8AnHH8xVUFfqUhJoVWc1Hv8SDD+Um1D2g0/wDS+T6F8heXZ/Lnk/S9FuJFluLO&#xA;LjM6V483YuwWtDQFqDNhihwxAeS1uoGbNKY5EviDNK+lvUfL3/OPXnPWNLttSa5srKG7iWaGKZ5G&#xA;l4OAyllRGUVU1+1XxzJjpZEW6TP29hxyMakSPx3pB53/ACn83+T4ludRhjuNPYhfr1qzSRKxNAr8&#xA;lRkJ91p4HIZMEoc3K0famHUGompdxTX8lfzIuvKnmOGxupidB1KRYruNieMTt8Kzr4cTTn4r8hkt&#xA;Pl4TXQtHbHZ4z4zID1x5efl+p9b5tXgnyRrP/HXvv+YiX/iZzSS5l9f0393H+qPuZZ+T2uDS/Olv&#xA;DI3GDUVNo9enNqNF9PNQv05fpp1P3up9otL4ulJHOHq/X9j6LzaPmzsVfN35taz+k/O96FblDZcb&#xA;SLfp6X2/+ShbNVqZXMvpnYGm8LSx75er58vspjmhQJPrmnQP9iW5hRvk0gByqAsh2WqkY4pkdIn7&#xA;n1pm6fIXxtmifaX07+VP/kvtH/4xyf8AJ582+n+gPlvb3+OZPePuDwj8whGPO+temar9bkrX+avx&#xA;fjmtzfWXvuyL/K47/mhLdB1abSNZstTh3ktJVl4/zAH4l/2S1GRhLhILk6rTjNiljP8AEKfWFndw&#xA;XlpDd27B7e4jWWJx0KOAyn7jm5BsW+SZMZhIxlzBp8s+c/8AlMNd/wC2hdf8n3zT5fqPvfVuzf8A&#xA;Fsf9SP8AuQ9n/IoU8lympNb2U79vgjG2Z+k+j4vFe1P+ND+oPvLGPz4QjXdNkrs1qVA/1ZCf+Nsp&#xA;1n1B2nssf3Ux/S/QwHQdB1TXdRTT9Ni9W4YFjU0VUHVmY9AK5jQgZGg9BqtXjwQ45mgyx/yW86q1&#xA;Ats48Vm2/wCGUZf+Vm6ge0mlP875Jj5a/J7zRb69Y3WoGCG0tpknlKyc2IjYNxUAdTSmSx6aQkCX&#xA;G1vtFglilGFmUgRy73zZmE719nfl3/ygXl3/ALZtr/yZXNvi+ke5861/9/P+sfvY/wDnzaW8/wCW&#xA;OpyyoGktZLaWBj1VzcJESP8AYSMPpyGpHoLl9iSI1MQOt/db5l8rSyw+Z9ImhJE0d7bPGR1DLKpF&#xA;PpzXQ+oPaakA4pA/zT9z61/On/yWGvf8Yo/+T8ebTUfQXguyP8Zh7/0F8q+Ubq1tPNei3V3T6pb3&#xA;9tLccqFfTSZWetdqcRmsgakHudVEyxTA5mJ+59wddxm5fNHYq7FXwDmifVX2z5HMp8leXzLtKdNs&#xA;zIOnxeglfxzc4/pHufNtbXjTr+dL70frOk2WsaTd6XepztbyJoZV2OzClRXuvUHsclKIIotWHLLH&#xA;MSjzBfEGpWE+n6jdWE9PXs5pIJadOcTFG/EZpSKNPpeOYnESHIi32b+V+vvr/kHRdSkbnO9uIrhj&#xA;1MsBMLsf9Zo65t8MuKAL532lg8LPOI5X9+75w1n/AI7F9/zES/8AEzmplzL6jpv7uP8AVH3IeCaW&#xA;CaOeFiksTB43HUMpqD9BwAtsoiQIPIvq/wAu6vFrOh2OqRU43cKyED9lqUdf9iwIzdQlxAF8k1mn&#xA;OHLLGf4S7zDq8Wj6HfapLTjaQtIoP7TgURf9k1BjOXCCV0enObLHGP4j/a+T5ppJpnmlYvLIxeRz&#xA;1LMak/fmlJfW4xEQAOQROjf8dix/5iIv+JjDHmGrU/3cv6p+59b5u3yB8cSRtHI0bfaQlTTxBpmi&#xA;faImxb6b/Kn/AMl9o/8Axjk/5PPm30/0B8u7e/xzJ7x9weDeff8AlNdb/wCYyb/iZzW5vrPve/7K&#xA;/wAVx/1AkGVuwe8/kd5m+vaDLos71udMasNept5DUf8AAvUfKmbHSZLjXc8B7T6Lw8wyj6Z8/eP1&#xA;j9Lx/wA5/wDKYa7/ANtC6/5PvmDl+o+97Ls3/Fsf9SP+5D2j8i/+UKk/5jJf+IJmfpPo+LxPtR/j&#xA;Q/qD9LGvz5/46+l/8w7/APE8q1nMOz9lf7uf9YfchfyMngj80XcbsFkmtGEQPVisiMQPoFcjpD6v&#xA;g2+1EScESOQl+gvcs2LwjsVfAGaJ9VfU35b/AJmeSB5G0mC61e2srqwtY7a5t7mRY5A0CBCVVqcg&#xA;1KjjX782eLNHhG7xHaHZ2fx5ERJEje3m87/Or83tN8xWSeX9AZpdPEiy3l6VKCUpusaKwDcQ3xEk&#xA;DcCm3XH1GcSFB23Y/ZUsMvEyfV0HckP5GeTLnzF55tLlo66bo7peXcpHw8kNYY/CruOn8oOQ02Pi&#xA;l5Byu2tWMWAj+Kew/S9+/PUkflVrhBof9FG3gbuEHM7U/QXlexf8ah8f9yXyNmqe+TdfOPm9LeO3&#xA;XXNQW3hAWGEXUwRFAoAq8qAAeGT8SXeXHOkw3fBGz5B6h/zj95x81XnnQ6Xe6nc31hLays0NzK8y&#xA;oyFSrJzLcfDbxzJ0uSRlRLpe3dJijh4oxEZWOQp9H5sHj3wDmifVX2z5GlaXyT5flagaTTbNiB0q&#xA;0CHNzj+ke5821orPMf05feneTcZ8YfmUip+YPmIKKA6hctT3aQk/ic0+b6z730bs43p4f1R9z6F/&#xA;5xtmkk/LjgxqsN9OiewIR/1sc2Gk+h5L2hFan/NDxzWf+Oxff8xEv/EzmtlzL6Hpv7uP9Ufcg8Dc&#xA;9v8AyG1719KvdElar2b+vbg/77l2YD/VcV/2WbDRz2IeG9qtLw5I5R/EKPvH7Pud+fPmD0NLs9Di&#xA;akl4/wBYuAP99RGiA+zPv/scdZPYBfZXScWSWU8o7D3n9n3vEeJoWp8I2J7VP+1mve5tF6N/x2LH&#xA;/mIi/wCJjDHmGnU/3cv6p+59b5u3yB8eXv8AvZP/AMZH/wCJHNGeb7Ni+ke59L/lT/5L7R/+Mcn/&#xA;ACefNtp/oD5h29/jmT3j7g8G8+/8prrf/MZN/wATOa3N9Z973/ZX+K4/6gdZ+TtQvPKF35mgdXt7&#xA;K4+rz29DzC8UYyDtQeoP14jETHiXJ2jCGpjgPOUbB+e32NeSPM7+WvMdtqnFpIFrHdRIaF4nFGAr&#xA;tUGjD3GOLJwSte09CNThOPr09/42QPmG/g1DX9Tv4OQgu7ueeIMKNwlkZ1qN96HIzNyJb9HiOPDC&#xA;B5xiB8g9x/Iv/lCpP+YyX/iCZsNJ9HxeF9qP8aH9QfpY1+fP/HX0v/mHf/ieVazmHZ+yv93P+sPu&#xA;eYwzTQyrLC7RyoapIhKsD4gjfMMF6mURIURYR7eZvMjNybVrxmPUm4lJ/wCJZPxJd5ccaLAP4If6&#xA;UPcvyj1TUtS8pCbULiS5mjuJI0llJZygCkAsdzuT1zYaaRMd3g/aDBDHqKgBEcIOz41zVPdOxVkX&#xA;kLygfNvmW20UX0Nh61WMsxNSF6rEv7clOi1GWYocRpxNdqvAxmdGVfjfyfYflDyhovlTRYtJ0mL0&#xA;4Y/illahklkI+KSRu7H8Og2zbQgIig+farVTzzM5nf7mOfnv/wCSq1z/AKNf+oyHK9T9BczsX/Go&#xA;fH/cl8nadZS3+oWtjEQJbqVIIyenKRgor9JzVgWae7yTEYmR6C31rYfkp+W1pYR2jaPHcsq0e4mZ&#xA;2lc03YtyFK/5NBm1GngByeCn2xqZSvipOPLH5feTvK880+haalnPcLwll5ySuVqDxDSs5C1ANBtk&#xA;oYox5Bx9Trs2YATlYH46MhyxxHwDmifVX215J9L/AAZoHo/3X6OtPT/1fQSnX2zc4/pHufNtZfjT&#xA;v+dL706ybjPibzvfx6h5y1y9iYPDcX9y8LjoYzK3A/8AA0zTZDcifN9J0cDDDCJ5iI+59Pf84/6Y&#xA;9l+WOnO68XvZJ7kjvRpCin6UQHNlpRUA8V27k4tTLyoPDdZ/47F9/wAxEv8AxM5rJcy+kab+7j/V&#xA;H3M213yfFP8AllovmW0jAubZDHf8R9uJpmVHPujUX5H2zIni/diQdHpe0THXZMEj6Sbj76Fj4/jm&#xA;kf5deY00DzZZ3sz8LRyYLtt6CKTYsafytRvoyvBPhkC5/bGjOo08oj6uY94/FLfzC8xLr/my+von&#xA;52qt6Foe3pRfCCK/zGrfTjmnxSJT2Ro/y+njA/VzPvP6uSdP5XFt+T51aRP9Iu7+O4DU3EKB4EB+&#xA;bOx+kZZ4dYr83BGu4u0vDHKMCPjtI/oYbo3/AB2LH/mIi/4mMx48w7rU/wB3L+qfufW+bt8gfHl4&#xA;Qbucg1BkYgj/AFjmjPN9mx/SPc+mPyrVl/L/AEYEEH0nND4GVyM22n+gPmHbp/wzJ7/0B4L59/5T&#xA;XW/+Yyb/AImc1ub6z73v+yv8Vx/1A9X/ACOtoLryNqNrcIJIJ72aOWM9GR7eEMD8wczdILgR5vJe&#xA;08zDVwkNiIA/7KTx/wA1aBNoHmC90qWpFvIfSc/txN8UbfSpGYOSHDIh7HQasajDHIOo+3qlOQcx&#xA;9A/kX/yhUn/MZL/xBM2Wk+j4vnntR/jQ/qD9LGvz5/46+l/8w7/8TyrWcw7P2V/u5/1h9ySflR5X&#xA;07X/ADBMupR+taWkJlMNSAzlgqhiCDTcnK9NjEpbud29rp6fCOA1KRp6235YeRGkEh0mPkOweUL/&#xA;AMCH4/hmb+Xh3PIDtvVgVxn5D9Sf6dpthptolpYQJbW0deEUYooqak/TlsYgCg6/NmnklxTPFJ8E&#xA;5o31B9FeXvyX8s+Zvyi02W0t1tPMFzCbiPUmLEtLyPwyb/3bAU2G3Ue+whp4yxjveRz9r5cOrkCb&#xA;xg1Xl+t4HqWm6toOsS2V5HJZ6lYy0ZalXR0NVZWH0FWHzGYJBiaPN6nHkhlgJDeMn05+S/5wxea7&#xA;UaNrMiReYrdfhbZRdoo3dR0Ei/tqPmNqgbHT5+LY83i+1+yjgPHD+7P2fsTj89//ACVWuf8ARr/1&#xA;GQ5PU/QWjsX/ABqHx/3JfJ+mXz2GpWl8gq9pNHOo8TG4YfqzVg0be6yQ44mPeKfYOn/mv+Xl7YRX&#xA;q69ZwLIATDPKkUyEj7LRsQ233ZthngRdvn8+zNRGXDwSPuGyt/ys78vP+pisP+R6f1w+NDvDH+Tt&#xA;R/Ml8mQWd7Z31rFd2c8dzazLyhniYOjKe6stQcmDfJxJwMTUhRD4HzRvqb7S8h6jo0/k7Rl068ju&#xA;LeCytoQysvJTHEq8XWp4sKbqembjERwinzjXY5jNLiFEyP3sV/NX839E8v6Pc2Gk3kd3r9wjQxLb&#xA;uHFuWBBlkZahWXqq9a07ZVmziIoc3P7M7KnlmJTFYx39fJ8z6Bol7rmtWWkWK8rq9lWKPwHI7sfZ&#xA;RUn2zXRiZGg9nnzRxQM5cgH3HpGmW2laVZ6ZailtZQx28IPXhEoUV99s3URQp8zy5DORkeZNvlPW&#xA;f+Oxff8AMRL/AMTOaWXMvrem/u4/1R9z6D8gafBqX5XWOn3ArDd200L7VoHkcVHuOubPDG8YD532&#xA;tmOPXymOcZA/YHzxqFjPYX9xZXA4z2sjwyj/ACkYqf1ZrJCjT6NhyjJATHKQtfpWnT6lqdrp9uKz&#xA;XcqQx+xdgKn2GMY2aRnzDFCUzyiLe/fmjp1vZ/lfdWcAKwWSWscK/wCSk0cYr9GbPURrHT572Hml&#xA;PXxkecuK/kS8C0b/AI7Fj/zERf8AExmsjzD6Dqf7uX9U/c+t83b5A+Ns0T7S+ovyxdX8haKy9BBx&#xA;+lXZT+Izb6f6A+V9titXk97wHz7/AMprrf8AzGTf8TOa3N9Z976D2V/iuP8AqB65+Qn/ACh95/20&#xA;JP8AkxDmbo/pPveP9q/8Zj/UH+6kgvz38s+vp1t5ggSstmRb3ZA/3U5+Bj/quaf7LI6vHY4m/wBl&#xA;tbwzOE8pbj39fs+54jmA9y+gfyL/AOUKk/5jJf8AiCZstJ9HxfPPaj/Gh/UH6WNfnz/x19L/AOYd&#xA;/wDieVazmHZ+yv8Adz/rD7ki/KnzPYaB5jd9Qk9Kzu4TA0u5CPyVlZqdtiPpyrT5BGW7n9vaGeow&#xA;VAXKJt7TN568mwqGfWrMg9OEyOfuQsc2BzQ7w8THsvUn/Jy+S+285+U7maOGDV7R5pSFjQSpVmPQ&#xA;AE9TiMsT1Yz7N1EQSYSoeT4s1Dyx5g0/UZdOu9OuI7yJzG0XpOSSDT4aD4gexHXNQYEGqfQsepxz&#xA;jxCQp9h/lbp+oad+XuhWeowmC8ith6kLAqycmLKGB3DcSKjxzbYQRAAvn3aWSM9ROUTYtIfzh/Ke&#xA;286ad9csQkPmKzSltMdlmjFT6Eh+Z+Fux9ichnwcYsc3K7J7UOnlUv7s8/LzfLEllr2iaykLw3Fh&#xA;q9rIpjTi0cySKfhK9GrUbEZrKIPm9wJ48kLsSgfk+n/NsHmzzD+RMy6hZOPMM9rbzXNoqESEw3Ec&#xA;jH0xuHaOPkVp12pmymJSxb83idLLFi1w4T+7BNH3g/pfMB07UASDbSgjYgo39M1tF7bxI94VzoGu&#xA;gEnTboAbkmGT/mnDwnuYePD+cPmoDT787C2l/wCAb+mCiz8SPeH1d+ROnapp/wCXNlBqMMlvI0s0&#xA;kUMoKsI3clfhO45Gp/HNppgRDd4XtrJGeoJib5PmPzZ5I8weXtau7C60+dI4pXW3m9NzHJGGPB0e&#xA;hDAr75rZ4zE1T2ml1mPLASEhySdNM1J2CJaTMx2CiNyT9AGQouQckR1DINC/K3z/AK3MiWWiXSxv&#xA;T/SLiM28IB785eIP0VyyOGZ5BxM/aWnxj1THw3P2Pov8pvybsfJSNqF7Kt7r8ycGnUH0oUPVIeVC&#xA;Se7kV7bb12GDTiG55vI9qdrS1PpjtjH2+96TmQ6Z8reY9F1a18wX9vNaSrL9Yk4jgx5BnPErtuG7&#xA;EZppwIkX1jR6nHPDGQkK4R9z6D/LTTbzTfI+lWl5G0VyqSO8bghlEsryKCD0PFxtmzwRIgAXzvtr&#xA;NHJqpyibjt9gAeWfnP5U1CDzM+r21s8llfojSSRqWVJkXgytTpUKG98w9VjIlfe9X7N6+EsHhyIE&#xA;ofdzVvyV8o6jJ5gGuXVs8NnZxv6Ekilecsg4fDWlQFLVPyw6XGeKyw9pe0IDD4UTcpHeugD0n80d&#xA;PvtQ8janbWSNLORE/ooOTOscqOwA67Ba7eGZeoiTA08z2Hmhj1cJTNDff3gh4F5X0DV77zDYW8Fp&#xA;KXFxGZDwaiKrgszmmwUZrccCZB9B12rx48MpGQ+k9eez6nzcPlD5HvvLuuWN/JYXFjOtzG5TgI2P&#xA;KhpVaD4gexGaQwINU+wYtZinATEhw+99K/l1p15p3krSbO8jMNzHETJE2zLzdnAYdjRtxm2wRIgA&#xA;XzHtjNHJqpyibjf6KeGfmToeq2nnPVHltZfSuZ3nglCMUdJDyHFgKGlaH3zXZ4ETL3nY2qxz00AC&#xA;LjGj8Hq35I6bfWPk+X65A8BuLySaFZAVYxmONA1DvuUOZukiRDfveS9ps0MmpHCbqAHxsn9LNdX0&#xA;y31TS7rTrkVgu4mifxAYUqPcdRl8o2KdJp80sWSM484m3y1q/lrW9K1GWwu7OVZo3KqQjFXANAyG&#xA;nxA9qZp5YyDRfVtPrcWWAnGQo/Z73uP5J2WoWnk6RL23e3L3cjwrIpRmjKRjlRv8oNmx0oIhu8J7&#xA;S5YT1IMTfpF++yxz889K1GXUtPv4oJJLQQGFpEUsquHLUanSobbKtXE2C7L2XzwEJQJAld/Y8vWx&#xA;vnYKlvKzHoAjE/qzDovVHLAdQvfStTReT2c6qOpaNwPxGPCWIz4zykPmvsNJ1a7vYbe0tpWuJHAj&#xA;Cq1QSdjWm1PHDGJJ2Y5dRjhEykRwh//Z</xmpGImg:image>
               </rdf:li>
            </rdf:Alt>
         </xmp:Thumbnails>
         <xmpTPg:MaxPageSize rdf:parseType="Resource">
            <stDim:w>187.626639</stDim:w>
            <stDim:h>187.738483</stDim:h>
            <stDim:unit>Pixels</stDim:unit>
         </xmpTPg:MaxPageSize>
         <xmpTPg:NPages>1</xmpTPg:NPages>
         <xmpTPg:HasVisibleTransparency>False</xmpTPg:HasVisibleTransparency>
         <xmpTPg:HasVisibleOverprint>False</xmpTPg:HasVisibleOverprint>
         <xmpTPg:PlateNames>
            <rdf:Seq>
               <rdf:li>Cyan</rdf:li>
               <rdf:li>Magenta</rdf:li>
               <rdf:li>Yellow</rdf:li>
               <rdf:li>Black</rdf:li>
            </rdf:Seq>
         </xmpTPg:PlateNames>
         <xmpTPg:SwatchGroups>
            <rdf:Seq>
               <rdf:li rdf:parseType="Resource">
                  <xmpG:groupName>Default Swatch Group</xmpG:groupName>
                  <xmpG:groupType>0</xmpG:groupType>
               </rdf:li>
            </rdf:Seq>
         </xmpTPg:SwatchGroups>
         <dc:format>image/svg+xml</dc:format>
      </rdf:Description>
   </rdf:RDF>
</x:xmpmeta>
                                                                                                    
                                                                                                    
                                                                                                    
                                                                                                    
                                                                                                    
                                                                                                    
                                                                                                    
                                                                                                    
                                                                                                    
                                                                                                    
                                                                                                    
                                                                                                    
                                                                                                    
                                                                                                    
                                                                                                    
                                                                                                    
                                                                                                    
                                                                                                    
                                                                                                    
                                                                                                    
                           
<?xpacket end="w"?>
	</metadata>
<g>
	<path fill="#FEFEFE" d="M167.125,127.438c5.498,0,11.001-0.128,16.494,0.05c3.137,0.102,4.224-1.105,3.827-4.131
		c-1.469-11.215-3.402-22.33-6.373-33.264c-0.599-2.206-1.5-2.63-3.496-2.133c-9.836,2.449-19.68,4.872-29.539,7.229
		c-2.063,0.493-2.626,1.519-2.266,3.569c1.417,8.078,1.42,16.252,1.199,24.409c-0.086,3.177,0.75,4.502,4.161,4.338
		C156.453,127.249,161.793,127.436,167.125,127.438z M20.179,127.436c5.494,0,10.993-0.143,16.479,0.056
		c3.054,0.111,4.085-0.918,4.005-3.988c-0.212-8.15-0.265-16.321,1.119-24.395c0.437-2.552-0.526-3.591-2.884-4.145
		c-9.537-2.244-19.058-4.558-28.561-6.94c-2.21-0.554-3.178-0.162-3.841,2.271c-2.977,10.926-4.945,22.026-6.335,33.245
		c-0.329,2.656,0.548,4.029,3.538,3.944C9.188,127.325,14.685,127.438,20.179,127.436z M93.758,29.953
		c0.008-0.081,0.016-0.162,0.025-0.243c3.129,0.306,6.287,0.446,9.379,0.972c2.38,0.405,3.708-0.321,4.703-2.482
		c3.052-6.632,6.193-13.225,9.402-19.783c1.061-2.168,1.125-3.496-1.561-4.463c-14.632-5.271-29.2-5.284-43.816,0.037
		c-2.525,0.919-2.817,2.064-1.582,4.411c2.315,4.399,4.582,8.865,6.343,13.502c2.465,6.492,5.678,11.034,13.638,8.101
		C91.312,29.627,92.595,29.953,93.758,29.953z M51.564,60.537c-0.19-1.587-1.612-2.166-2.917-2.795
		c-7.625-3.677-15.313-7.228-22.863-11.05c-2.445-1.238-3.552-0.698-4.505,1.647c-2.937,7.223-5.785,14.493-9.052,21.567
		c-1.538,3.329-0.159,4.34,2.549,5.451c6.445,2.643,12.809,5.483,19.203,8.249c8.979,3.884,9.116,3.922,11.592-5.411
		C47.149,72.246,49.175,66.478,51.564,60.537z M163.617,45.93c-0.576,0.274-1.322,0.629-2.068,0.986
		c-7.485,3.583-14.951,7.207-22.465,10.728c-2.497,1.17-3.521,2.474-2.165,5.359c3.187,6.783,5.085,14.017,6.616,21.33
		c0.461,2.201,0.957,3.357,3.556,2.193c8.934-4.001,17.93-7.868,26.932-11.715c1.853-0.792,2.647-1.724,1.765-3.789
		c-3.261-7.633-6.43-15.305-9.644-22.958C165.701,47.007,165.374,45.787,163.617,45.93z M73.828,33.427
		c-0.175-0.352-0.313-0.852-0.618-1.208c-5.613-6.553-11.262-13.075-16.864-19.638c-1.313-1.538-2.382-1.001-3.821-0.094
		c-7.691,4.847-13.869,11.256-19.569,18.244c-2.048,2.51-1.324,3.847,0.997,5.515c6.328,4.549,12.602,9.185,18.725,14.005
		c2.59,2.039,3.865,1.279,5.484-1.125c3.548-5.268,7.848-9.848,13.373-13.158C72.488,35.397,73.664,34.927,73.828,33.427z
		 M156.111,33.172c-0.277-0.463-0.571-1.054-0.956-1.578c-5.656-7.693-12.408-14.206-20.451-19.415
		c-2.133-1.381-3.036-0.073-4.091,1.142c-5.22,6.014-10.327,12.126-15.618,18.076c-1.713,1.926-1.389,3.093,0.627,4.284
		c5.829,3.443,10.393,8.203,14.068,13.822c1.538,2.351,2.956,2.543,5.21,0.785c6.272-4.892,12.706-9.575,19.055-14.371
		C154.851,35.239,155.949,34.66,156.111,33.172z M100.255,174.99c-0.4-0.041-0.8-0.083-1.201-0.124
		c-2.641-7.338-5.374-14.644-7.885-22.026c-1.336-3.926-4.416-2.015-6.719-2.155c-2.712-0.165-1.795,2.309-1.807,3.733
		c-0.083,9.659-0.012,19.319-0.068,28.978c-0.014,2.348-0.076,4.126,3.268,4.099c3.085-0.026,3.571-1.313,3.483-3.919
		c-0.154-4.552-0.043-9.112-0.043-13.669c3.352,3.625,4.082,8.049,5.788,12.061c0.916,2.153,0.489,5.535,4.56,5.492
		c3.939-0.041,3.755-3.108,4.626-5.426c1.628-4.329,3.142-8.702,4.703-13.056c1.07,5.151,1.155,9.972,1.034,14.789
		c-0.06,2.387,0.408,3.675,3.232,3.702c2.893,0.028,3.691-1.016,3.648-3.799c-0.143-9.324,0.03-18.653-0.125-27.977
		c-0.03-1.796,1.499-4.762-2.12-5.071c-3.111-0.266-5.94-0.667-7.156,3.875C105.608,161.472,102.713,168.173,100.255,174.99z
		 M142.924,167.46c0.518-0.021,1.035-0.041,1.553-0.062c0.742,1.435,1.538,2.846,2.217,4.31c2.027,4.371,4.216,8.684,5.936,13.176
		c1.196,3.124,3.535,2.565,5.756,2.438c3.014-0.172,1.924-2.641,1.938-4.217c0.088-9.652-0.046-19.307,0.101-28.957
		c0.044-2.887-0.976-3.675-3.754-3.671c-2.712,0.003-3.431,1.026-3.359,3.532c0.137,4.743,0.04,9.492,0.04,14.288
		c-1.912-0.126-1.997-1.285-2.37-2.127c-1.886-4.255-3.977-8.441-5.521-12.819c-1.515-4.297-4.866-2.676-7.539-2.656
		c-2.927,0.022-1.853,2.661-1.868,4.24c-0.091,9.486,0.06,18.974-0.105,28.458c-0.051,2.947,0.64,4.127,3.832,4.093
		c3.383-0.036,3.197-1.93,3.165-4.233C142.875,177.989,142.924,172.724,142.924,167.46z M15.046,174.389
		c6.733-4.282,9.17-9.673,7.475-16.043c-1.407-5.288-5.899-7.801-13.98-7.819c-1.499-0.003-3.016,0.147-4.494-0.032
		c-2.941-0.357-4.114,0.521-4.044,3.765c0.211,9.823,0.16,19.655,0.026,29.481c-0.038,2.785,0.744,3.79,3.658,3.742
		c2.753-0.045,3.532-1.106,3.252-3.586c-0.111-0.987-0.123-2.011,0.006-2.993c0.181-1.369-0.776-3.3,1.119-3.918
		c1.495-0.487,2.156,1.235,3.015,2.129c2.19,2.28,4.223,4.711,6.402,7.001c1.888,1.984,4.75,2.058,6.356,0.707
		c2.162-1.818-0.402-3.404-1.66-4.786C19.846,179.477,17.456,176.967,15.046,174.389z M52.882,168.843c0,3.153,0,6.306,0,9.458
		c0,9.427-0.001,9.372,9.609,9.109c5.921-0.163,10.823-2.085,13.33-7.792c3.153-7.178,3.171-14.53,0.095-21.746
		c-1.718-4.031-4.659-6.935-9.298-7.231c-3.637-0.232-7.3-0.006-10.946-0.147c-2.198-0.085-2.87,0.803-2.826,2.918
		C52.955,158.553,52.882,163.699,52.882,168.843z M28.025,168.723c0,5.15,0.081,10.302-0.037,15.449
		c-0.052,2.271,0.552,3.352,3.05,3.28c4.814-0.139,9.636-0.11,14.452-0.007c2.284,0.049,3.3-0.633,3.239-3.116
		c-0.055-2.228-0.543-3.475-3.055-3.309c-1.985,0.132-4.008-0.165-5.974,0.065c-3.739,0.437-5.075-0.703-5.112-4.785
		c-0.038-4.289,1.289-5.505,5.347-5.103c2.115,0.21,5.138,1.331,5.123-3.097c-0.014-3.975-2.579-2.818-4.695-3.197
		c-1.872-0.335-4.516,1.555-5.529-1.539c-1.544-4.718,0.145-6.95,5.118-6.962c1.827-0.004,3.666-0.128,5.48,0.027
		c2.39,0.204,2.677-1.088,2.718-3.024c0.043-2.04-0.447-3.029-2.755-2.949c-4.48,0.154-8.978,0.214-13.452-0.014
		c-2.976-0.151-4.172,0.625-3.993,3.831C28.219,159.077,28.02,163.906,28.025,168.723z M166.843,168.97
		c0,4.997,0.11,9.997-0.046,14.989c-0.08,2.558,0.718,3.596,3.38,3.511c4.825-0.154,9.663-0.154,14.488-0.002
		c2.658,0.084,2.958-1.309,2.962-3.418c0.003-2.005-0.505-3.195-2.794-3.062c-1.826,0.106-3.704-0.23-5.487,0.064
		c-5.058,0.834-6.059-1.446-5.916-6.082c0.181-5.873,4.271-3.016,6.777-3.606c1.51-0.356,3.631,0.44,3.523-2.237
		c-0.056-1.391,0.783-3.347-1.078-3.948c-1.52-0.491-3.316-0.379-4.953-0.199c-3.279,0.36-4.204-0.937-4.257-4.189
		c-0.058-3.531,1.03-4.831,4.526-4.413c1.97,0.236,4-0.072,5.989,0.07c2.489,0.178,3.113-1.015,3.135-3.274
		c0.022-2.303-1.045-2.791-3.062-2.752c-4.662,0.089-9.333,0.17-13.988-0.029c-2.835-0.121-3.299,1.184-3.238,3.588
		C166.929,158.975,166.841,163.974,166.843,168.97z M130.208,169.109c0-5.144-0.087-10.291,0.038-15.432
		c0.058-2.383-0.81-3.207-3.175-3.145c-2.212,0.058-3.799,0.103-3.76,3.08c0.132,10.121,0.12,20.246,0.005,30.368
		c-0.03,2.612,0.858,3.468,3.446,3.449c2.504-0.018,3.591-0.68,3.494-3.386C130.077,179.07,130.205,174.087,130.208,169.109z"/>
	<path fill="#A40707" d="M167.125,127.437c-5.332-0.001-10.673-0.189-15.992,0.066c-3.411,0.164-4.248-1.161-4.161-4.338
		c0.222-8.157,0.218-16.33-1.199-24.409c-0.36-2.051,0.203-3.076,2.266-3.569c9.859-2.356,19.702-4.779,29.539-7.229
		c1.995-0.497,2.896-0.072,3.496,2.133c2.971,10.934,4.903,22.049,6.373,33.264c0.397,3.027-0.69,4.233-3.827,4.131
		C178.126,127.31,172.624,127.438,167.125,127.437z"/>
	<path fill="#A40707" d="M20.179,127.437c-5.494,0.001-10.991-0.112-16.48,0.046c-2.99,0.086-3.867-1.288-3.538-3.944
		c1.391-11.219,3.358-22.319,6.335-33.245c0.663-2.433,1.631-2.825,3.841-2.271c9.503,2.382,19.024,4.696,28.561,6.94
		c2.358,0.555,3.322,1.593,2.884,4.145c-1.384,8.074-1.332,16.245-1.119,24.395c0.08,3.07-0.951,4.099-4.005,3.988
		C31.172,127.293,25.673,127.436,20.179,127.437z"/>
	<path fill="#E92F3B" d="M93.758,29.953c-1.163,0-2.445-0.326-3.469,0.052c-7.959,2.933-11.173-1.609-13.638-8.101
		c-1.761-4.638-4.028-9.104-6.343-13.502c-1.235-2.347-0.943-3.492,1.582-4.411c14.615-5.321,29.184-5.307,43.816-0.037
		c2.686,0.968,2.622,2.296,1.561,4.463c-3.21,6.558-6.35,13.151-9.402,19.783c-0.995,2.161-2.323,2.887-4.703,2.482
		c-3.092-0.526-6.25-0.666-9.379-0.972C93.774,29.791,93.766,29.872,93.758,29.953z"/>
	<path fill="#CC0606" d="M51.564,60.537c-2.389,5.941-4.416,11.709-5.994,17.657c-2.476,9.334-2.613,9.295-11.592,5.411
		c-6.394-2.766-12.758-5.606-19.203-8.249c-2.708-1.11-4.086-2.122-2.549-5.451c3.268-7.074,6.115-14.344,9.052-21.567
		c0.954-2.345,2.061-2.885,4.505-1.647c7.55,3.823,15.238,7.374,22.863,11.05C49.952,58.372,51.375,58.95,51.564,60.537z"/>
	<path fill="#CC0606" d="M163.617,45.93c1.757-0.142,2.083,1.077,2.526,2.133c3.214,7.653,6.383,15.325,9.644,22.958
		c0.882,2.065,0.088,2.997-1.765,3.789c-9.002,3.847-17.997,7.714-26.932,11.715c-2.599,1.164-3.096,0.008-3.556-2.193
		c-1.53-7.313-3.429-14.547-6.616-21.33c-1.356-2.886-0.332-4.189,2.165-5.359c7.514-3.522,14.98-7.145,22.465-10.728
		C162.295,46.559,163.042,46.204,163.617,45.93z"/>
	<path fill="#DD1106" d="M73.828,33.427c-0.163,1.5-1.34,1.97-2.294,2.542c-5.524,3.31-9.824,7.89-13.373,13.158
		c-1.619,2.404-2.894,3.164-5.484,1.125c-6.123-4.821-12.396-9.456-18.725-14.005c-2.32-1.668-3.045-3.005-0.997-5.515
		c5.7-6.988,11.878-13.397,19.569-18.244c1.439-0.907,2.508-1.444,3.821,0.094c5.601,6.563,11.251,13.085,16.864,19.638
		C73.515,32.575,73.652,33.075,73.828,33.427z"/>
	<path fill="#DD1106" d="M156.111,33.172c-0.162,1.488-1.259,2.067-2.157,2.745c-6.348,4.795-12.783,9.478-19.055,14.371
		c-2.254,1.758-3.673,1.566-5.21-0.785c-3.675-5.619-8.239-10.379-14.068-13.822c-2.016-1.19-2.34-2.358-0.627-4.284
		c5.291-5.95,10.398-12.063,15.618-18.076c1.055-1.216,1.959-2.523,4.091-1.142c8.044,5.209,14.795,11.722,20.451,19.415
		C155.54,32.118,155.833,32.71,156.111,33.172z"/>
	<path fill="#E93641" d="M100.255,174.99c2.459-6.818,5.354-13.518,7.22-20.494c1.215-4.542,4.044-4.141,7.156-3.875
		c3.619,0.309,2.09,3.275,2.12,5.071c0.154,9.324-0.018,18.653,0.125,27.977c0.043,2.784-0.754,3.827-3.648,3.799
		c-2.824-0.027-3.291-1.315-3.232-3.702c0.12-4.816,0.036-9.638-1.034-14.789c-1.561,4.354-3.075,8.727-4.703,13.056
		c-0.871,2.317-0.687,5.384-4.626,5.426c-4.071,0.043-3.644-3.339-4.56-5.492c-1.707-4.013-2.436-8.436-5.788-12.061
		c0,4.557-0.111,9.118,0.043,13.669c0.088,2.607-0.398,3.894-3.483,3.919c-3.344,0.028-3.282-1.751-3.268-4.099
		c0.056-9.659-0.015-19.319,0.068-28.978c0.012-1.423-0.905-3.897,1.807-3.733c2.303,0.14,5.383-1.771,6.719,2.155
		c2.511,7.382,5.244,14.688,7.885,22.026C99.454,174.908,99.854,174.949,100.255,174.99z"/>
	<path fill="#E93540" d="M142.924,167.46c0,5.264-0.049,10.529,0.023,15.792c0.031,2.303,0.218,4.197-3.165,4.233
		c-3.192,0.034-3.883-1.145-3.832-4.093c0.165-9.484,0.013-18.972,0.105-28.458c0.015-1.579-1.059-4.218,1.868-4.24
		c2.673-0.02,6.023-1.641,7.539,2.656c1.544,4.378,3.635,8.564,5.521,12.819c0.373,0.842,0.459,2.001,2.37,2.127
		c0-4.796,0.097-9.545-0.04-14.288c-0.072-2.506,0.647-3.529,3.359-3.532c2.777-0.003,3.798,0.784,3.754,3.671
		c-0.147,9.651-0.013,19.305-0.101,28.957c-0.014,1.577,1.075,4.045-1.938,4.217c-2.221,0.127-4.56,0.685-5.756-2.438
		c-1.72-4.491-3.909-8.804-5.936-13.176c-0.679-1.465-1.475-2.875-2.217-4.31C143.959,167.419,143.442,167.439,142.924,167.46z"/>
	<path fill="#A81313" d="M15.046,174.389c2.41,2.578,4.8,5.088,7.133,7.649c1.258,1.382,3.822,2.967,1.66,4.786
		c-1.606,1.35-4.468,1.277-6.356-0.707c-2.18-2.291-4.212-4.721-6.402-7.001c-0.859-0.894-1.52-2.616-3.015-2.129
		c-1.895,0.618-0.939,2.548-1.119,3.918c-0.13,0.982-0.118,2.006-0.006,2.993c0.28,2.48-0.499,3.541-3.252,3.586
		c-2.914,0.048-3.696-0.957-3.658-3.742c0.134-9.826,0.185-19.658-0.026-29.481c-0.07-3.244,1.103-4.122,4.044-3.765
		c1.477,0.179,2.995,0.029,4.494,0.032c8.081,0.018,12.573,2.531,13.98,7.819C24.216,164.716,21.779,170.108,15.046,174.389z
		 M9.569,156.202c-1.952-0.332-2.914,0.649-2.738,3.082c0.155,2.155,0.113,4.333,0.012,6.494c-0.147,3.153,1.845,3.805,4.192,3.251
		c3.842-0.907,5.269-3.781,5.018-7.551C15.805,157.734,13.403,156.391,9.569,156.202z"/>
	<path fill="#A91414" d="M52.882,168.843c0-5.144,0.073-10.29-0.035-15.431c-0.045-2.114,0.628-3.003,2.826-2.918
		c3.645,0.141,7.309-0.085,10.946,0.147c4.639,0.296,7.579,3.2,9.298,7.231c3.076,7.216,3.058,14.568-0.095,21.746
		c-2.507,5.707-7.409,7.629-13.33,7.792c-9.61,0.264-9.609,0.318-9.609-9.109C52.882,175.148,52.882,171.995,52.882,168.843z
		 M59.456,169.129c0,2.319-0.236,4.671,0.074,6.948c0.253,1.856-1.635,4.774,1.564,5.392c2.756,0.532,5.662,0.03,7.686-2.427
		c3.335-4.046,3.352-16.263,0.128-20.439c-2.046-2.651-4.932-2.727-7.677-2.245c-3.295,0.579-1.481,3.482-1.703,5.325
		C59.234,164.132,59.456,166.644,59.456,169.129z"/>
	<path fill="#AB1B1B" d="M28.022,168.723c-0.002-4.818,0.197-9.647-0.072-14.45c-0.18-3.206,1.017-3.983,3.993-3.831
		c4.474,0.228,8.972,0.168,13.452,0.014c2.308-0.079,2.798,0.909,2.755,2.949c-0.041,1.936-0.328,3.228-2.718,3.024
		c-1.814-0.155-3.652-0.031-5.48-0.027c-4.973,0.011-6.662,2.243-5.118,6.962c1.012,3.094,3.656,1.203,5.529,1.539
		c2.115,0.379,4.681-0.778,4.695,3.197c0.015,4.428-3.007,3.307-5.123,3.097c-4.059-0.403-5.385,0.814-5.347,5.103
		c0.036,4.083,1.373,5.222,5.112,4.785c1.967-0.23,3.989,0.067,5.974-0.065c2.511-0.167,2.999,1.08,3.055,3.309
		c0.061,2.483-0.955,3.165-3.239,3.116c-4.816-0.103-9.638-0.132-14.452,0.007c-2.498,0.072-3.102-1.009-3.05-3.28
		C28.105,179.025,28.025,173.873,28.022,168.723z"/>
	<path fill="#EA404A" d="M166.842,168.97c-0.001-4.997,0.087-9.996-0.039-14.989c-0.061-2.403,0.403-3.709,3.238-3.588
		c4.655,0.199,9.326,0.118,13.988,0.029c2.018-0.039,3.085,0.449,3.062,2.752c-0.022,2.259-0.646,3.452-3.135,3.274
		c-1.988-0.142-4.019,0.166-5.989-0.07c-3.496-0.419-4.584,0.881-4.526,4.413c0.053,3.252,0.978,4.549,4.257,4.189
		c1.637-0.18,3.433-0.291,4.953,0.199c1.861,0.601,1.022,2.557,1.078,3.948c0.108,2.676-2.012,1.881-3.523,2.237
		c-2.506,0.59-6.596-2.267-6.777,3.606c-0.143,4.636,0.858,6.916,5.916,6.082c1.783-0.294,3.662,0.042,5.487-0.064
		c2.289-0.133,2.797,1.057,2.794,3.062c-0.003,2.109-0.304,3.502-2.962,3.418c-4.825-0.153-9.663-0.153-14.488,0.002
		c-2.662,0.085-3.459-0.953-3.38-3.511C166.953,178.967,166.843,173.967,166.842,168.97z"/>
	<path fill="#E92F3B" d="M130.206,169.109c-0.001,4.979-0.129,9.962,0.05,14.934c0.097,2.706-0.99,3.368-3.494,3.386
		c-2.588,0.019-3.475-0.837-3.446-3.449c0.114-10.122,0.126-20.247-0.005-30.368c-0.039-2.977,1.548-3.022,3.76-3.08
		c2.366-0.062,3.233,0.762,3.175,3.145C130.121,158.818,130.208,163.964,130.206,169.109z"/>
	<path fill="#F9F0F0" d="M9.569,156.202c3.834,0.188,6.235,1.532,6.484,5.276c0.25,3.771-1.176,6.644-5.018,7.551
		c-2.347,0.554-4.339-0.098-4.192-3.251c0.101-2.161,0.143-4.34-0.012-6.494C6.656,156.851,7.617,155.87,9.569,156.202z"/>
	<path fill="#FBF6F6" d="M59.456,169.129c0-2.485-0.222-4.997,0.073-7.446c0.222-1.844-1.592-4.746,1.703-5.325
		c2.745-0.482,5.631-0.406,7.677,2.245c3.224,4.176,3.207,16.393-0.128,20.439c-2.025,2.456-4.93,2.959-7.686,2.427
		c-3.199-0.618-1.312-3.536-1.564-5.392C59.22,173.8,59.456,171.448,59.456,169.129z"/>
</g>
</svg>
