<?xml version="1.0" encoding="utf-8"?>
<!-- Generator: Adobe Illustrator 17.0.0, SVG Export Plug-In . SVG Version: 6.00 Build 0)  -->
<!DOCTYPE svg PUBLIC "-//W3C//DTD SVG 1.1//EN" "http://www.w3.org/Graphics/SVG/1.1/DTD/svg11.dtd">
<svg version="1.1" id="Layer_1" xmlns="http://www.w3.org/2000/svg" xmlns:xlink="http://www.w3.org/1999/xlink" x="0px" y="0px"
	 width="201px" height="201px" viewBox="-0.5 24.5 201 201" enable-background="new -0.5 24.5 201 201" xml:space="preserve">
<path fill="#D6D9FF" stroke="#060607" stroke-width="2" stroke-miterlimit="10" d="M105.991,32.518
	c-0.334-0.109-0.677-0.196-1.025-0.269c-0.703-2.37-2.934-4.457-6.045-3.945c-7.002,1.151-11.802,2.634-14.753,9.634
	c-2.2,5.218,0.692,12.481,4.375,16.269c4.093,4.211,10.653,4.706,16.1,3.899c5.984-0.887,9.482-6.065,9.94-11.702
	C115.03,40.894,111.353,34.271,105.991,32.518z"/>
<path fill="#D6D9FF" stroke="#060607" stroke-width="2" stroke-miterlimit="10" d="M42.716,164.127
	c-2.171-4.033-5.54-5.765-9.949-6.282c-3.386-0.397-9.19-0.81-11.802,1.745c-1.113,1.089-1.99,2.551-2.638,4.198
	c-4.375,4.745-4.19,13.537-0.433,18.395c4.631,5.988,14.093,6.723,19.86,2.057C43.055,179.95,46.093,170.401,42.716,164.127z"/>
<path fill="#D6D9FF" stroke="#060607" stroke-width="2" stroke-miterlimit="10" d="M186.696,169.671
	c-1.293-8.866-17.69-14.408-23.711-7.408c-5.467,2.504-8.03,8.828-7.154,14.994c0.978,6.884,7.449,10.31,13.692,10.062
	c3.991,0.564,8.921-0.768,12.203-2.377C187.424,182.15,187.474,174.998,186.696,169.671z"/>
<path fill="#D6D9FF" stroke="#060607" stroke-width="2" stroke-miterlimit="10" d="M125.625,76.375
	c-0.647-5.536-1.044-11.358-5.947-14.776c-1.834-1.279-4.601-1.335-6.724-1.568c-3.483-0.383-6.897-0.754-10.407-0.813
	c-7.833-0.132-15.723,1.168-23.376,2.711c-1.903,0.384-2.985,1.528-3.402,2.903c-6.059,5.159-3.666,16.374-1.715,23.622
	c0.47,1.747,1.569,2.794,2.869,3.26c0.914,0.927,2.31,1.481,4.452,1.411c7.018-0.23,13.987-1.105,21.051-1.153
	c3.706-0.025,7.412,0.013,11.117,0.026c3.217,0.011,6.934,0.532,9.86-1.182C128.316,87.937,126.145,80.83,125.625,76.375z"/>
<path fill="#D6D9FF" stroke="#060607" stroke-width="2" stroke-miterlimit="10" d="M52.865,195.014
	c-2.663-5.092-6.986-6.536-12.484-6.64c-7.073-0.133-13.837,1.332-20.835,1.735c-3.156,0.182-5.835,0.444-8.714,1.784
	c-2.085,0.97-3.546,3.345-5.243,4.822c-1.25,1.088-1.708,2.361-1.622,3.581c-0.301,0.568-0.512,1.217-0.592,1.955
	c-0.164,1.504-0.1,3.07,0.188,4.588c-0.628,1.804-1.002,3.85-1.065,6.18c-0.344,12.88,19.219,7.713,26.501,7.607
	c9.544-0.139,25.373,4.892,26.236-9.687C55.532,205.939,55.238,199.552,52.865,195.014z"/>
<path fill="#D6D9FF" stroke="#060607" stroke-width="2" stroke-miterlimit="10" d="M197.606,213.949
	c0.592-2.637,0.396-5.566-0.037-7.992c-0.847-4.734-2.539-9.119-5.76-12.745c-4.238-4.771-11.017-4.125-16.738-3.826
	c-10.587,0.554-24.872-1.108-29.888,10.59c-0.628,1.464-0.561,2.88-0.068,4.09c-0.414,0.924-0.531,2.062-0.186,3.388
	c1.057,4.076-0.018,8.502,1.754,12.319c1.047,2.256,3.278,2.777,5.648,2.728c1.648,0.193,3.397,0.123,4.919,0.123
	c7.258,0,14.448-0.552,21.714-0.316c3.74,0.122,8.018,0.253,11.682-0.989c0.423,0.083,0.843,0.166,1.275,0.251
	C196.741,222.527,199.438,217.108,197.606,213.949z"/>
<g>
	<path fill="none" stroke="#060607" stroke-width="2" stroke-miterlimit="10" d="M29.032,186.29c7.116,0,12.903-5.787,12.903-12.903
		s-5.787-12.903-12.903-12.903c-7.116,0-12.903,5.787-12.903,12.903S21.916,186.29,29.032,186.29z"/>
	<path fill="none" stroke="#060607" stroke-width="2" stroke-miterlimit="10" d="M116.129,89.516h6.452V70.161
		c0-3.558-2.894-6.452-6.452-6.452H83.871c-3.558,0-6.452,2.894-6.452,6.452v19.355h6.452h6.452h19.355H116.129z"/>
	<path fill="none" stroke="#060607" stroke-width="2" stroke-miterlimit="10" d="M100,57.258c7.116,0,12.903-5.787,12.903-12.903
		c0-7.116-5.787-12.903-12.903-12.903s-12.903,5.787-12.903,12.903C87.097,51.471,92.884,57.258,100,57.258z"/>
	<path fill="none" stroke="#060607" stroke-width="2" stroke-miterlimit="10" d="M45.161,192.742H12.903
		c-3.558,0-6.452,2.894-6.452,6.452v19.355h6.452h6.452H38.71h6.452h6.452v-19.355C51.613,195.635,48.719,192.742,45.161,192.742z"
		/>
	<path fill="none" stroke="#060607" stroke-width="2" stroke-miterlimit="10" d="M187.097,192.742h-32.258
		c-3.558,0-6.452,2.894-6.452,6.452v19.355h6.452h6.452h19.355h6.452h6.452v-19.355
		C193.548,195.635,190.655,192.742,187.097,192.742z"/>
	<path fill="none" stroke="#060607" stroke-width="2" stroke-miterlimit="10" d="M170.968,186.29
		c7.116,0,12.903-5.787,12.903-12.903s-5.787-12.903-12.903-12.903c-7.116,0-12.903,5.787-12.903,12.903
		S163.852,186.29,170.968,186.29z"/>
	<path d="M58.065,199.194c0-3.216-1.226-6.126-3.177-8.387c-2.019-2.381-5.403-3.719-5.403-3.719
		c-1.361-0.484-2.8-0.797-4.323-0.797h-1.742c3.077-3.429,4.968-7.942,4.968-12.903c0-10.674-8.681-19.355-19.355-19.355
		c-0.848,0-1.681,0.074-2.503,0.181c-3.244,0.167-6.245,1.932-6.245,1.932c-6.284,3.2-10.606,9.719-10.606,17.242
		c0,4.961,1.89,9.474,4.968,12.903h-1.742C5.787,186.29,0,192.077,0,199.194V225h58.065v-11.755v-7.729V199.194z M29.032,160.484
		c7.116,0,12.903,5.787,12.903,12.903s-5.787,12.903-12.903,12.903c-7.116,0-12.903-5.787-12.903-12.903
		S21.916,160.484,29.032,160.484z M51.613,218.548h-6.452H38.71H19.355h-6.452H6.452v-19.355c0-3.558,2.894-6.452,6.452-6.452
		h32.258c3.558,0,6.452,2.894,6.452,6.452V218.548z"/>
	<path stroke="#060607" stroke-width="2" stroke-miterlimit="10" d="M25.293,141.219c0-26.956,14.753-51.356,37.457-63.322v-6.825
		c-26.187,12.449-43.395,39.8-43.395,70.146c0,2.112,0.112,4.22,0.294,6.319c1.836-1.27,4.486-1.578,5.824-1.651
		C25.359,144.335,25.293,142.779,25.293,141.219z"/>
	<path stroke="#060607" stroke-width="2" stroke-miterlimit="10" d="M180.645,141.13c0-30.316-17.255-57.638-43.512-70.067v6.815
		c22.766,11.947,37.56,36.322,37.56,63.252c0,1.51-0.064,3.017-0.172,4.519c2.847,0.115,4.8,0.978,5.847,1.599
		C180.541,145.216,180.645,143.175,180.645,141.13z"/>
	<path d="M103.226,95.968h25.806V76.113l-0.103-6.977c-0.532-6.629-6.035-11.877-12.8-11.877h-1.742
		c3.077-3.429,4.968-7.942,4.968-12.903C119.355,33.681,110.674,25,100,25s-19.355,8.681-19.355,19.355
		c0,4.961,1.89,9.474,4.968,12.903h-1.742c-6.765,0-12.268,5.248-12.8,11.877l-0.103,6.977v19.855h25.806H103.226z M100,31.452
		c7.116,0,12.903,5.787,12.903,12.903c0,7.116-5.787,12.903-12.903,12.903s-12.903-5.787-12.903-12.903
		C87.097,37.239,92.884,31.452,100,31.452z M83.871,89.516h-6.452V70.161c0-3.558,2.894-6.452,6.452-6.452h32.258
		c3.558,0,6.452,2.894,6.452,6.452v19.355h-6.452h-6.452H90.323H83.871z"/>
	<g>
		<path fill="none" stroke="#060607" stroke-width="2" stroke-miterlimit="10" d="M187.097,192.742h-32.258
			c-3.558,0-6.452,2.894-6.452,6.452v19.355h6.452h6.452h19.355h6.452h6.452v-19.355
			C193.548,195.635,190.655,192.742,187.097,192.742z"/>
		<path fill="none" stroke="#060607" stroke-width="2" stroke-miterlimit="10" d="M170.968,186.29
			c7.116,0,12.903-5.787,12.903-12.903s-5.787-12.903-12.903-12.903c-7.116,0-12.903,5.787-12.903,12.903
			S163.852,186.29,170.968,186.29z"/>
		<path stroke="#060607" stroke-width="2" stroke-miterlimit="10" d="M100.098,218.548c-11.976,0-23.482-3.584-33.643-10.352v7.439
			C76.766,221.781,88.227,225,100.098,225c11.88,0,23.348-3.225,33.662-9.376v-7.442
			C123.596,214.96,112.081,218.548,100.098,218.548z"/>
		<path d="M187.097,186.29h-1.742c3.077-3.429,4.968-7.942,4.968-12.903c0-7.523-4.323-14.042-10.606-17.242
			c-2.761-1.711-6.245-1.932-6.245-1.932c-0.823-0.106-1.655-0.181-2.503-0.181c-10.674,0-19.355,8.681-19.355,19.355
			c0,4.961,1.89,9.474,4.968,12.903h-1.742c-1.523,0-2.961,0.313-4.319,0.797c0,0-3.256,1.401-5.403,3.719
			c-1.955,2.261-3.181,5.171-3.181,8.387v6.319v7.732V225H200v-25.806C200,192.077,194.213,186.29,187.097,186.29z M170.968,160.484
			c7.116,0,12.903,5.787,12.903,12.903s-5.787,12.903-12.903,12.903c-7.116,0-12.903-5.787-12.903-12.903
			S163.852,160.484,170.968,160.484z M193.548,218.548h-6.452h-6.452H161.29h-6.452h-6.452v-19.355c0-3.558,2.894-6.452,6.452-6.452
			h32.258c3.558,0,6.452,2.894,6.452,6.452V218.548z"/>
	</g>
</g>
</svg>
