<?xml version="1.0" encoding="utf-8"?>
<!-- Generator: Adobe Illustrator 17.0.0, SVG Export Plug-In . SVG Version: 6.00 Build 0)  -->
<!DOCTYPE svg PUBLIC "-//W3C//DTD SVG 1.1//EN" "http://www.w3.org/Graphics/SVG/1.1/DTD/svg11.dtd">
<svg version="1.1" id="Layer_1" xmlns="http://www.w3.org/2000/svg" xmlns:xlink="http://www.w3.org/1999/xlink" x="0px" y="0px"
	 width="103.46px" height="136.98px" viewBox="38.756 88.016 103.46 136.98" enable-background="new 38.756 88.016 103.46 136.98"
	 xml:space="preserve">
<path fill="#D6D9FF" d="M128.945,104.079c-4.51,5.56-9.55,10.714-14.795,15.581c-3.858,3.581-7.975,6.931-11.469,10.842
	c-1.852-1.174-3.954-2.038-5.977-2.692c-2.763-0.893-5.665-0.884-8.521-0.648c-3.43,0.283-5.892,1.897-8.665,3.242
	c-4.228-4.824-8.6-9.206-13.502-13.45c-5.353-4.634-9.528-10.25-15.887-13.657c-5.682-3.045-10.733,5.588-5.047,8.635
	c5.505,2.95,9.343,7.909,13.863,12.093c5.46,5.053,10.546,9.911,15.375,15.625c0.005,0.006,0.011,0.011,0.017,0.018
	c-0.056,6.351-0.264,12.699-0.339,19.049c-0.085,7.156,0.12,13.563-1.634,20.567c-1.673,6.681-2.206,13.518-3.58,20.251
	c-1.175,5.761-2.14,11.824-0.25,17.533c1.529,4.619,8.243,4.915,9.643,0c2.217-7.785,3.827-15.773,6.08-23.585
	c1.854-6.431,3.374-13.536,4.131-20.432c0.539-0.176,1.078-0.355,1.62-0.532c0.659-0.207,1.332-0.345,2.012-0.451
	c0.127,1.912,0.332,3.814,0.674,5.7c0.015,0.386,0.035,0.765,0.065,1.13c0.337,4.062,1.03,8.067,2.052,12.009
	c2.159,8.326,4.341,16.815,6.847,25.037c1.687,5.534,9.478,4.26,9.821-1.329c0.589-9.593-2.13-18.963-5.315-27.985
	c-1.091-6.245-2.019-12.542-2.01-18.824c0.012-8.141,0.754-16.297,0.735-24.447c1.552-0.622,2.859-1.91,3.205-3.682
	c3.513-5.041,8.746-8.697,13.126-12.945c5.15-4.994,10.266-9.998,14.795-15.581C140.039,106.19,133.009,99.069,128.945,104.079z"/>
<g>
	<path fill="#333333" d="M105.812,129.622"/>
	<path fill="#D6D9FF" d="M101.83,104.777c-0.017-0.124-0.041-0.247-0.066-0.369c-0.118-0.61-0.265-1.195-0.443-1.737
		c-0.167-0.508-0.362-0.981-0.571-1.437c-2.081-8.503-15.578-16.093-20.699-6.552c-0.05,0.093-0.085,0.191-0.132,0.285
		c-0.774,0.798-1.269,1.918-1.253,3.367c0.035,3.3-0.837,6.344,0.02,9.631c0.656,2.513,2.611,4.44,4.922,5.595
		c1.09,1.363,2.443,2.521,3.871,3.316c3.9,2.172,8.09,1.21,11.426-1.431C101.87,113.097,102.458,108.502,101.83,104.777z"/>
	<path fill="#333333" d="M106.693,128.755"/>
	<polygon fill="none" points="97.055,175.291 97.055,175.291 96.371,170.162 	"/>
	<polygon fill="none" points="103.305,173.986 103.305,173.986 103.225,173.388 	"/>
	<polygon fill="none" points="75.208,138.023 75.563,138.373 77.421,140.204 77.422,138.64 	"/>
	<path fill="none" d="M90.443,114.83c5.805,0,10.525-4.72,10.525-10.525S96.248,93.78,90.443,93.78s-10.525,4.72-10.525,10.525
		S84.638,114.83,90.443,114.83z"/>
	<path fill="#191919" d="M90.436,120.092c0.002,0,0.004,0,0.006,0s0.005,0,0.007,0c8.705-0.003,15.783-7.083,15.783-15.788
		c0-8.707-7.081-15.788-15.788-15.788s-15.788,7.081-15.788,15.788C74.655,113.009,81.732,120.088,90.436,120.092z M90.322,89.516
		c7.116,0,12.903,5.787,12.903,12.903s-5.787,12.903-12.903,12.903s-12.903-5.787-12.903-12.903S83.206,89.516,90.322,89.516z"/>
	<path fill="#191919" stroke="#191919" stroke-miterlimit="10" d="M90.322,115.323c7.116,0,12.903-5.787,12.903-12.903
		s-5.787-12.903-12.903-12.903s-12.903,5.787-12.903,12.903S83.206,115.323,90.322,115.323z M90.443,93.779
		c5.805,0,10.525,4.72,10.525,10.525s-4.72,10.525-10.525,10.525s-10.525-4.72-10.525-10.525S84.638,93.779,90.443,93.779z"/>
	<polygon fill="#333333" points="90.329,121.774 90.321,121.774 90.314,121.774 90.322,121.775 	"/>
	<path fill="#333333" d="M75.208,138.023l0.355,0.35L75.208,138.023z"/>
	<g>
		<path fill="#191919" d="M140.387,101.954c-1.703-2.273-4.263-3.693-7.039-3.9c-2.776-0.211-5.504,0.788-7.485,2.741
			l-24.718,24.369c-3.182-2.173-6.943-3.388-10.815-3.39c-0.002,0-0.005,0-0.007,0c-0.003,0-0.006,0-0.008,0
			c-3.713,0.001-7.25,1.062-10.313,3.013L55.11,100.248c-1.981-1.954-4.709-2.953-7.485-2.741c-2.776,0.207-5.336,1.627-7.039,3.9
			c-2.834,3.788-2.327,9.25,1.182,12.709l29.189,28.774c-0.001,0.416,0.01,0.656,0.01,0.656v29.11v0.52l-5.426,40.7
			c-0.652,4.884,2.297,9.51,6.858,10.764c2.739,0.751,5.632,0.303,7.952-1.235c2.323-1.535,3.865-3.997,4.232-6.755l5.335-40.036
			h0.803l6.332-1.322l-0.684-5.129h-12.1l-0.684,5.128l-5.4,40.507c-0.122,0.906-0.629,1.719-1.397,2.223
			c-0.778,0.516-1.729,0.655-2.68,0.397c-1.442-0.397-2.4-2.019-2.174-3.697l5.431-40.729l0.025-0.184l0.031-33.603l-1.858-1.832
			l-0.354-0.349l0,0l-3.045-3.002L46.3,109.527c-1.208-1.187-1.445-3.056-0.549-4.253c0.593-0.787,1.43-1.261,2.361-1.33
			c0.916-0.073,1.814,0.259,2.466,0.899l24.577,24.227c0,0,0,0.001-0.001,0.001l4.548,4.509l1.358-1.407
			c2.468-2.545,5.755-3.948,9.261-3.948c3.645,0,7.032,1.526,9.533,4.294l1.42,1.571l4.538-4.468l24.582-24.232
			c0.652-0.641,1.551-0.972,2.466-0.899c0.931,0.069,1.768,0.543,2.361,1.33c0.896,1.198,0.658,3.067-0.549,4.253l-25.883,25.514
			l-3.134,3.089l0,0l-2.43,2.395v32.315l0.079,0.598l6.372-1.331v-12.172v-6.451h-0.001v-9.939c0,0,0.013-0.098,0.029-0.275
			l0.258-0.332l29.241-28.825C142.714,111.204,143.221,105.741,140.387,101.954z"/>
		<path fill="#191919" d="M109.694,173.175v-0.52l-6.398,1.336l5.431,40.729c0.226,1.678-0.732,3.3-2.174,3.697
			c-0.951,0.258-1.903,0.119-2.68-0.397c-0.768-0.504-1.274-1.316-1.397-2.223l-5.4-40.507l-6.333,1.323l5.335,40.036
			c0.367,2.758,1.91,5.22,4.232,6.755c2.32,1.539,5.213,1.987,7.952,1.235c4.561-1.255,7.51-5.88,6.858-10.764L109.694,173.175z"/>
	</g>
</g>
</svg>
