<?xml version="1.0" encoding="utf-8"?>
<!-- Generator: Adobe Illustrator 17.0.0, SVG Export Plug-In . SVG Version: 6.00 Build 0)  -->
<!DOCTYPE svg PUBLIC "-//W3C//DTD SVG 1.1//EN" "http://www.w3.org/Graphics/SVG/1.1/DTD/svg11.dtd">
<svg version="1.1" id="Layer_1" xmlns="http://www.w3.org/2000/svg" xmlns:xlink="http://www.w3.org/1999/xlink" x="0px" y="0px"
	 width="512px" height="512px" viewBox="0 0 512 512" enable-background="new 0 0 512 512" xml:space="preserve">
<path d="M496.387,0H67.746c-8.629,0-15.617,6.996-15.617,15.613v276.238H15.613C6.996,291.852,0,298.836,0,307.465v188.922
	C0,505.004,6.996,512,15.613,512h188.922c8.629,0,15.613-6.996,15.613-15.613v-36.516h276.238c8.617,0,15.613-6.988,15.613-15.617
	V15.613C512,6.996,505.004,0,496.387,0z M188.922,480.773H31.227V323.078h135.605l-72.586,72.586c-6.09,6.102-6.09,15.988,0,22.078
	c6.094,6.094,15.969,6.121,22.09,0l72.586-72.586V480.773z M480.773,428.641H220.148V313.93l121.73-121.73v62.457
	c0,8.629,6.984,15.613,15.613,15.613c8.621,0,15.613-6.984,15.613-15.613V154.508c0-8.906-7.281-15.613-15.613-15.613H257.344
	c-8.629,0-15.613,6.992-15.613,15.613c0,8.629,6.984,15.613,15.613,15.613h62.457l-121.738,121.73H83.359V31.227h397.414V428.641z"
	/>
</svg>
