<?xml version="1.0" encoding="utf-8"?>
<!-- Generator: Adobe Illustrator 17.0.0, SVG Export Plug-In . SVG Version: 6.00 Build 0)  -->
<!DOCTYPE svg PUBLIC "-//W3C//DTD SVG 1.1//EN" "http://www.w3.org/Graphics/SVG/1.1/DTD/svg11.dtd">
<svg version="1.1" id="Capa_1" xmlns="http://www.w3.org/2000/svg" xmlns:xlink="http://www.w3.org/1999/xlink" x="0px" y="0px"
	 width="140.154px" height="167.615px" viewBox="0.596 76.792 140.154 167.615"
	 enable-background="new 0.596 76.792 140.154 167.615" xml:space="preserve">
<path fill="#D6D9FF" d="M135.731,118.688c-0.249-1.6-0.674-3.086-1.344-4.381c0.012-0.076,0.028-0.15,0.033-0.232
	c0.235-4.078-4.42-5.889-7.405-7.405c-6.051-3.074-12.331-5.592-18.506-8.4c-6.203-2.821-12.609-4.995-19.002-7.322
	c-5.165-1.88-10.828-5.408-16.454-5.75c-1.095-1-2.906-1.101-4.283-0.49c-5.172,2.296-10.261,4.786-15.296,7.368
	c-4.753,2.437-9.198,5.351-14.108,7.492c-5.192,2.264-10.416,4.455-15.592,6.757c-2.866,1.275-5.722,2.576-8.576,3.877
	c-2.029,0.925-4.045,2.286-6.327,2.456c-2.034,0.151-3.149,1.672-3.35,3.263c-0.98,0.524-1.702,1.51-1.702,2.963v8.694
	c0,3.031-0.733,6.025-0.94,9.046c-0.265,3.882,0.258,7.863,1.277,11.673c0.294,3.541,0.97,7.047,2.051,10.415
	c1.973,6.145,2.53,12.505,4.817,18.577c2.38,6.317,5.281,12.596,8.541,18.505c6.217,11.27,14.965,21.154,25.816,28.109
	c5.59,3.583,11.546,7.6,17.709,10.09c0.531,0.215,1.103,0.392,1.687,0.553c0.999,0.932,2.041,1.813,3.287,2.515
	c0.922,0.52,1.821,0.586,2.609,0.358c0.883,0.436,1.964,0.425,3.063-0.358c4.775-3.401,10.042-6.008,14.843-9.382
	c4.419-3.106,8.526-6.654,12.23-10.582c2.03-1.601,3.691-3.949,5.274-6.146c0.734-0.894,1.433-1.821,2.112-2.767
	c0.074-0.088,0.148-0.181,0.222-0.266c5.533-6.329,10.52-12.512,14.752-19.819c3.987-6.884,6.097-15.272,7.861-22.968
	c0.897-3.912,1.537-8.011,1.937-12.14c1.686-5.357,2.175-11.012,2.314-16.601C135.426,130.537,136.64,124.522,135.731,118.688z
	 M119.319,136.589c-1.914,5.356-2.184,11.25-2.631,16.871c-0.186,2.343-0.51,4.666-0.946,6.965
	c-1.325,3.495-2.485,7.102-2.937,10.754c-1.834,5.157-4.209,10.132-6.984,14.849C99.932,196.038,92.476,203.66,83,210.286
	c-3.998,2.796-8.45,5.361-11.961,8.784c-0.249,0.242-0.455,0.506-0.645,0.779c-0.744-0.269-1.501-0.512-2.268-0.749
	c-2.811-0.87-5.465-2.427-8.016-3.869c-4.288-2.425-8.301-5.478-12.034-8.675c-8.025-6.871-14.001-15.385-19.017-24.616
	c-2.55-4.692-4.604-9.601-6.164-14.707c-1.589-5.2-2.086-10.604-3.225-15.902c-0.101-0.469-0.209-0.936-0.315-1.403
	c-0.05-1.238-0.093-2.464-0.135-3.665c-0.277-8.009,0.35-16.022,0.531-24.031c0.305-0.189,0.608-0.378,0.909-0.565
	c3.16-1.965,6.822-3.369,10.155-5.031c7.143-3.561,14.297-7.089,21.819-9.789c3.488-1.252,6.995-2.49,10.629-3.243
	c1.872-0.388,3.635-1.091,5.401-1.787c0.197,0.218,0.424,0.424,0.694,0.609c2.418,1.634,4.803,3.384,7.554,4.425
	c2.074,0.785,4.233,1.216,6.408,1.585c3.844,1.555,7.337,3.603,11.003,5.649c4.046,2.258,8.065,3.515,12.646,4.092
	c0.991,0.125,1.967,0.277,2.938,0.439c3.089,2.017,6.319,3.766,9.857,4.968c0.345,1.222,0.659,2.459,0.842,3.756
	c0.119,0.842,0.215,1.684,0.303,2.526C120.738,132.212,120.143,134.283,119.319,136.589z"/>
<path fill="#F5F4F7" d="M114.458,122.775c-3.399-2.985-8.408-4.712-12.572-6.306c-6.602-2.527-13.562-3.932-20.059-6.77
	c-2.619-1.144-4.884-3.004-7.522-4.046c-2.953-1.166-5.498-0.209-8.13,1.273c-6.362,3.582-13.215,6.477-19.726,9.797
	c-6.632,3.382-13.518,6.002-20.325,8.986c-0.521,0.228-0.92,0.524-1.211,0.862c-1.491-0.153-2.94,0.586-3.228,2.537
	c-1.533,10.389,0.251,20.498,3.378,30.437c2.921,9.286,6.75,19.02,11.639,27.454c4.885,8.426,13.199,14.435,20.664,20.393
	c2.951,2.355,6.566,7.126,10.484,7.702c4.009,0.589,8.611-3.15,11.883-5.06c8.136-4.75,15.079-11.688,20.702-19.208
	c2.988-3.996,4.954-8.901,6.97-13.434c2.114-4.755,4.095-9.685,5.694-14.638c1.458-4.518,1.277-9.47,2.103-14.115
	c0.959-5.39,1.279-10.384,1.107-15.857C116.206,129.577,117.181,125.167,114.458,122.775z"/>
<g>
	<g>
		<path d="M70.673,96.674l-52.558,24.531v19.709c0,32.121,17.112,62.342,44.657,78.872l7.901,4.739l7.906-4.739
			c27.545-16.525,44.652-46.75,44.652-78.872v-19.709L70.673,96.674z M114.471,140.914c0,29.064-15.478,56.408-40.404,71.36
			l-3.394,2.037l-3.39-2.037c-24.925-14.953-40.408-42.296-40.408-71.36v-14.134l43.798-20.441l43.798,20.441V140.914z"/>
	</g>
</g>
<g>
	<g>
		<polygon points="89.476,132.748 57.534,164.69 51.871,159.027 45.678,165.22 57.534,177.076 95.669,138.941 		"/>
	</g>
</g>
<path d="M70.673,76.792l-58.479,27.291l-8.041,3.758l-3.556,1.656v30.869c0,3.81,0.258,7.586,0.653,11.339
	c0,0,0.421,4.712,1.266,8.76c5.751,30.418,24.286,57.621,51.244,73.795l16.915,10.148l16.915-10.148
	c32.792-19.674,53.162-55.65,53.162-93.894v-30.869L70.673,76.792z M131.99,140.365c0,35.183-18.741,68.286-48.909,86.383
	l-12.408,7.446l-12.408-7.446c-30.168-18.097-48.909-51.2-48.909-86.383v-25.289l61.317-28.613l61.317,28.613V140.365z"/>
<g>
	<path fill="none" stroke="#FFFFFF" stroke-width="3" stroke-miterlimit="10" d="M70.96,243.532l-11.866-7.163l-10.666-6.682
		c0,0-24.564-15.647-36.388-42.569S1.383,152.055,1.883,107.787"/>
</g>
<g>
	<path fill="none" stroke="#FFFFFF" stroke-width="3" stroke-miterlimit="10" d="M70.386,244.407l11.866-7.33l10.666-6.838
		c0,0,24.564-16.012,36.388-43.562s10.657-35.882,10.157-81.182"/>
</g>
<line fill="none" stroke="#FFFFFF" stroke-width="4" stroke-miterlimit="10" x1="67.083" y1="75.792" x2="139.503" y2="109.705"/>
<line display="none" fill="none" stroke="#FFFFFF" stroke-width="4" stroke-miterlimit="10" x1="-0.83" y1="110.705" x2="71.589" y2="76.792"/>
<path fill="none" stroke="#F5F4F7" stroke-width="4" stroke-miterlimit="10" d="M70.285,214.311c0,0-15.388-8.608-24.316-19.959
	c-8.928-11.352-21.37-27.04-19.482-67.571l44.186-20.441l43.798,20.441c1.888,40.531-10.555,56.219-19.482,67.571
	c-8.928,11.352-24.316,19.959-24.316,19.959"/>
<rect x="67.752" y="211.836" transform="matrix(0.5242 -0.8516 0.8516 0.5242 -149.7421 160.7711)" fill="#F5F4F7" width="2.493" height="5.1"/>
<rect x="70.827" y="211.836" transform="matrix(-0.5425 -0.84 0.84 -0.5425 -68.914 391.2427)" fill="#F5F4F7" width="2.493" height="5.1"/>
<line fill="none" stroke="#FFFFFF" stroke-width="4" stroke-miterlimit="10" x1="-0.404" y1="110.705" x2="72.016" y2="76.792"/>
</svg>
