<?xml version="1.0" encoding="utf-8"?>
<!-- Generator: Adobe Illustrator 17.0.0, SVG Export Plug-In . SVG Version: 6.00 Build 0)  -->
<!DOCTYPE svg PUBLIC "-//W3C//DTD SVG 1.1//EN" "http://www.w3.org/Graphics/SVG/1.1/DTD/svg11.dtd">
<svg version="1.1" id="Capa_1" xmlns="http://www.w3.org/2000/svg" xmlns:xlink="http://www.w3.org/1999/xlink" x="0px" y="0px"
	 width="196.69px" height="156.878px" viewBox="3.31 47.285 196.69 156.878" enable-background="new 3.31 47.285 196.69 156.878"
	 xml:space="preserve">
<path fill="#D6D9FF" d="M192.946,139.82c-1.809-12.881-9.978-23.006-19.247-31.593c-4.869-4.511-9.804-8.721-14.149-13.772
	c-4.495-5.225-7.588-10.138-14.22-12.777c-4.584-1.824-9.313,1.216-10.141,5.848c-0.418,2.34-0.084,4.747,0.843,6.924
	c-2.429-1.245-4.789-2.742-6.693-3.485c-4.324-1.688-9.982-1.795-13.95,0.796c-5.112,3.337-4.86,10.117-2.7,15.118
	c0.213,0.493,0.457,0.958,0.696,1.427c-0.111,0.363-0.198,0.732-0.264,1.106c-0.613-0.539-1.216-1.091-1.804-1.664
	c-5.095-4.975-10.989-9.758-18.534-7.992c-8.169,1.912-6.512,11.461-2.623,16.377c2.449,3.096,5.989,6.533,8.607,10.293
	c-1.492-1.208-2.98-2.419-4.356-3.711c-6.458-6.064-12.385-12.789-18.565-19.138c-5.291-5.436-11.32-13.162-19.324-14.239
	c-6.945-0.935-10.292,4.244-11.172,10.161c-0.082,0.134-0.167,0.254-0.247,0.394c-3.158,5.52,1.389,11.511,5.484,14.862
	c6.862,5.614,13.543,11.452,20.209,17.297c6.721,5.893,13.56,11.696,19.886,18.016c2.719,2.717,5.605,5.23,8.531,7.719
	c1.461,1.243,2.738,2.637,4.176,3.84c0.154,3.018,1.672,5.736,3.164,8.391c-0.207,0.177-0.435,0.388-0.708,0.675
	c-1.576,1.009-3.631,1.577-5.471,1.809c-3.01,0.379-6.057,0.542-9.072,0.908c-5.542,0.672-11.137,1.319-16.576,2.596
	c-6.388,1.499-18.646,6.048-18.646,14.29c0,9.508,13.354,8.425,19.619,8.236c11.742-0.355,23.379-0.19,35.125,0.065
	c6.13,0.133,12.475,0.074,18.744-0.522c4.707,1.319,10.73,0.697,14.806,0.677c5.392-0.027,10.036-2.972,14.001-6.421
	c1.425-0.456,3.207-0.623,4.394-1.014c2.182-0.718,3.924-2.105,5.703-3.498c3.947-3.09,7.532-7.751,10.774-11.561
	c0.259-0.304,0.502-0.615,0.735-0.929c0.275-0.187,0.543-0.408,0.803-0.667c4.739-4.721,8.085-8.362,9.844-15.014
	C192.266,153.457,193.844,146.218,192.946,139.82z"/>
<g>
	<g>
		<g>
			<path d="M188.084,114.451l-31.34-34.424c-6.008-6.025-16.441-6.067-22.557,0.05c-1.975,1.975-3.325,4.35-4.025,6.883
				c-6.083-4.667-15.366-4.158-20.974,1.45c-1.975,1.975-3.325,4.35-4.042,6.875c-6.067-4.667-15.358-4.133-20.957,1.458
				c-1.942,1.942-3.275,4.267-4,6.725L65.422,88.701c-6.208-6.2-16.291-6.217-22.566,0.05c-6.208,6.2-6.208,16.299,0,22.507
				l56.731,56.731l-33.632,5.283c-9.1,1.301-15.958,9.2-15.958,18.391c0,6.892,5.608,12.499,12.499,12.499h78.572
				c12.233,0,23.741-4.767,32.424-13.433l13.099-13.108c8.65-8.641,13.408-20.141,13.408-32.365
				C200,133.841,195.767,122.9,188.084,114.451z M180.693,171.74l-13.099,13.108c-7.092,7.083-16.516,10.983-26.524,10.983H62.497
				c-2.292,0-4.167-1.867-4.167-4.167c0-5.067,3.783-9.425,8.85-10.158l41.79-6.567c1.55-0.242,2.825-1.333,3.317-2.825
				c0.483-1.483,0.092-3.125-1.017-4.233l-62.522-62.522c-2.95-2.958-2.95-7.766,0.05-10.775c1.483-1.475,3.425-2.217,5.367-2.217
				c1.942,0,3.883,0.742,5.367,2.225l24.465,24.466c0.058,0.067,0.133,0.133,0.2,0.2l17.033,17.024c1.625,1.625,4.267,1.625,5.892,0
				c1.625-1.625,1.625-4.267,0-5.892l-17.174-17.174c-2.808-2.967-2.758-7.675,0.192-10.633c2.867-2.85,7.85-2.867,10.716,0
				l8.191,8.2c0.05,0.05,0.092,0.1,0.142,0.142l8.7,8.691c1.625,1.625,4.267,1.625,5.892,0c1.625-1.625,1.625-4.267,0-5.892
				l-8.8-8.791c-2.842-2.967-2.808-7.708,0.158-10.683c2.858-2.85,7.85-2.867,10.716,0l8.7,8.733
				c0.008,0.008,0.008,0.017,0.017,0.017l0.008,0.008c0.068,0.034,0.051,0.025,0.033,0.017c0,0,0,0.008,0.008,0.008
				c0.008,0.008,0.008,0.008,0.008,0.008c0.008,0.008,0.008,0.008,0.008,0.008h0.008c0.008,0,0.008,0,0.008,0
				c1.65,1.533,4.217,1.492,5.8-0.108c1.617-1.625,1.617-4.258-0.008-5.883l-0.5-0.5c-2.817-2.967-2.775-7.683,0.183-10.641
				c2.867-2.85,7.983-2.725,10.583-0.142l31.199,34.29c6.292,6.917,9.75,15.858,9.75,25.199
				C191.659,155.257,187.759,164.665,180.693,171.74z"/>
			<path d="M134.603,103.026h0.008c-0.009-0.004-0.017-0.008-0.017-0.008C134.603,103.026,134.611,103.026,134.603,103.026z"/>
		</g>
	</g>
</g>
<line fill="none" stroke="#000000" stroke-width="8" stroke-linecap="round" stroke-miterlimit="10" x1="29.667" y1="74.033" x2="15.167" y2="59.533"/>
<line fill="none" stroke="#000000" stroke-width="8" stroke-linecap="round" stroke-miterlimit="10" x1="42.892" y1="67.594" x2="38.201" y2="51.285"/>
<line fill="none" stroke="#000000" stroke-width="8" stroke-linecap="round" stroke-miterlimit="10" x1="23.596" y1="87.209" x2="7.31" y2="80.819"/>
<line fill="none" stroke="#000000" stroke-width="8" stroke-linecap="round" stroke-miterlimit="10" x1="58.694" y1="68.897" x2="60.73" y2="55.65"/>
<line fill="none" stroke="#000000" stroke-width="8" stroke-linecap="round" stroke-miterlimit="10" x1="8.568" y1="104.039" x2="21.814" y2="101.997"/>
</svg>
