<?xml version="1.0" encoding="utf-8"?>
<!-- Generator: Adobe Illustrator 17.0.0, SVG Export Plug-In . SVG Version: 6.00 Build 0)  -->
<!DOCTYPE svg PUBLIC "-//W3C//DTD SVG 1.1//EN" "http://www.w3.org/Graphics/SVG/1.1/DTD/svg11.dtd">
<svg version="1.1" xmlns="http://www.w3.org/2000/svg" xmlns:xlink="http://www.w3.org/1999/xlink" x="0px" y="0px"
	 width="332.812px" height="332.543px" viewBox="0 0 332.812 332.543" enable-background="new 0 0 332.812 332.543"
	 xml:space="preserve">
<g id="OBJECTS">
	<g>
		<ellipse fill="#C4D4EE" cx="164.686" cy="322.804" rx="104.557" ry="9.739"/>
		<g>
			<g>
				<path fill="#FFDC8E" d="M124.377,69.571c2.017-0.905,3.622-2.618,4.571-4.616c0.914-1.925,1.367-3.879,2.743-5.551
					c1.321-1.605,3.299-2.556,5.231-3.205c2.432-0.818,5.014-1.292,7.234-2.577c2.037-1.179,3.681-3.024,4.618-5.183
					c0.68-1.565,0.989-3.262,1.253-4.947c0.221-1.409,0.413-2.821,0.606-4.234c-3.818,3.986-8.372,7.551-13.747,8.804
					c-3.639,0.848-7.553,0.615-10.967,2.133c-3.505,1.558-5.987,4.743-8.105,7.941c-0.878,1.326-1.72,2.677-2.524,4.049
					c-0.835,1.425-1.656,3.086-1.162,4.662C115.231,70.369,121.627,70.805,124.377,69.571z"/>
				<g>
					<path fill="#4D2D54" d="M124.755,70.219c2.806-1.539,4.123-3.455,5.46-6.329c1.601-3.441,3.215-5.602,6.906-6.967
						c1.927-0.713,3.981-1.047,5.863-1.894c6.582-2.964,7.478-9.045,8.373-15.571c0.094-0.687-0.674-1.318-1.254-0.73
						c-2.769,2.811-5.779,5.482-9.379,7.184c-3.395,1.606-6.748,1.703-10.401,2.35c-5.879,1.042-9.421,4.039-12.751,8.898
						c-2.013,2.937-6.221,7.901-3.226,11.472c2.301,2.744,7.147,2.75,10.229,1.663c0.904-0.319,0.515-1.769-0.399-1.447
						c-1.858,0.655-3.979,0.804-5.905,0.299c-5.05-1.325-2.135-7.059-0.244-9.965c3.614-5.554,7.353-8.717,14.088-9.652
						c7.854-1.09,13.457-4.068,19.047-9.741c-0.418-0.243-0.836-0.486-1.254-0.73c-0.529,3.859-0.747,8.117-3.239,11.289
						c-2.978,3.792-7.357,3.856-11.396,5.678c-6.131,2.765-5.643,9.807-11.278,12.898C123.152,69.388,123.908,70.684,124.755,70.219
						z"/>
				</g>
			</g>
			<g>
				<path fill="#D1A7F1" d="M119.563,66.096c4.093-2.717,2.46-8.181,5.581-11.589c1.251-1.366,3.072-2.052,4.861-2.532
					c2.979-0.799,6.057-1.158,9.062-1.852c3.005-0.694,6.006-1.765,8.35-3.769c2.344-2.003,3.939-5.082,3.533-8.139
					c-1.429,2.196-3.638,3.873-6.138,4.658c-3.518,1.105-7.309,0.45-10.997,0.426c-2.865-0.018-5.72,0.353-8.544,0.836
					c-1.069,0.183-2.139,0.383-3.165,0.732c-1.197,0.407-2.319,1.012-3.377,1.704c-2.224,1.455-4.188,3.308-5.77,5.444
					c-2.368,3.198-3.887,7.254-3.155,11.166c0.353,1.883,1.395,3.774,3.425,3.984C115.481,67.399,117.598,67.4,119.563,66.096z"/>
				<g>
					<path fill="#4D2D54" d="M120.093,66.626c2.396-1.965,2.81-4.168,3.616-7.033c2.008-7.136,8.475-7.21,14.652-8.555
						c6.702-1.459,13.553-5.041,13.339-12.822c-0.022-0.798-0.966-0.949-1.398-0.378c-5.765,7.624-16.935,3.989-25.231,5.576
						c-5.518,1.055-10.014,4.164-13.183,8.844c-4.973,7.345-3.26,20.138,8.052,14.487c0.864-0.431,0.105-1.726-0.757-1.295
						c-2.053,1.026-6.241,1.623-7.959-0.49c-1.062-1.306-0.93-4.425-0.646-5.986c0.571-3.133,2.353-5.926,4.444-8.259
						c4.142-4.622,9.376-6.028,15.36-6.516c8.021-0.654,15.698,1.692,21.215-5.603c-0.466-0.126-0.932-0.252-1.398-0.379
						c0.352,12.807-15.554,10.108-23.117,14.008c-5.662,2.92-3.558,9.657-8.051,13.342
						C118.285,66.178,119.352,67.234,120.093,66.626z"/>
				</g>
			</g>
			<g>
				<path fill="#8190EB" d="M107.972,52.457c1.084-2.013,2.626-3.809,4.387-5.201c5.461-4.315,12.814-5.8,19.641-5.728
					c3.56,0.037,7.121,0.649,10.664,0.313c3.544-0.336,7.244-1.847,8.999-4.944c-0.047,2.549-1.495,5.028-3.692,6.322
					c-1.478,0.87-3.201,1.207-4.893,1.488c-3.887,0.646-7.796,1.018-11.724,1.295c-3.782,0.266-7.86,0.871-11.077,3.023
					c-3.102,2.075-5.164,6.379-5.846,9.971c-0.258,1.356-0.347,2.764-0.894,4.031c-0.547,1.267-1.706,2.403-3.086,2.394
					c-1.246-0.008-1.926-0.585-2.65-1.599C105.464,60.549,106.187,55.774,107.972,52.457z"/>
				<g>
					<path fill="#4D2D54" d="M108.62,52.835c5.577-9.36,16.982-10.931,26.94-10.385c6.273,0.343,12.826,0.557,16.752-5.175
						c-0.466-0.126-0.932-0.252-1.398-0.378c-1.244,11.447-22.415,6.385-30.301,11.064c-2.588,1.536-4.361,3.909-5.573,6.648
						c-0.785,1.775-0.82,3.838-1.557,5.553c0.11,1.926-0.96,2.28-3.21,1.064c-2.355,0.746-3.378,0.185-3.07-1.683
						C106.613,57.506,107.801,54.572,108.62,52.835c0.409-0.868-0.883-1.631-1.295-0.757c-1.739,3.689-3.249,10.329,0.83,13.255
						c4.863,3.488,6.417-3.681,7.16-6.825c3.008-12.73,15.612-11.284,25.919-12.764c5.702-0.819,10.493-2.524,11.18-8.847
						c0.088-0.806-1.022-0.927-1.398-0.379c-5.534,8.079-18.882,3.354-27.188,4.967c-6.756,1.312-12.919,4.577-16.504,10.593
						C106.829,52.91,108.126,53.665,108.62,52.835z"/>
				</g>
			</g>
		</g>
		<g>
			<g>
				<path fill="#FFDC8E" d="M148.234,79.321c2.583-0.283,4.932-1.462,6.611-3.104c1.618-1.582,2.716-3.327,4.79-4.532
					c1.99-1.157,4.542-1.496,6.952-1.558c3.033-0.079,6.136,0.216,9.065-0.374c2.686-0.541,5.119-1.834,6.833-3.635
					c1.243-1.305,2.099-2.844,2.901-4.385c0.67-1.288,1.309-2.589,1.947-3.889c-5.56,2.719-11.841,4.818-18.381,4.46
					c-4.427-0.242-8.851-1.603-13.218-1.137c-4.483,0.478-8.274,2.815-11.65,5.271c-1.4,1.018-2.765,2.07-4.094,3.154
					c-1.38,1.125-2.813,2.482-2.712,4.138C137.502,77.432,144.714,79.707,148.234,79.321z"/>
				<g>
					<path fill="#4D2D54" d="M148.434,80.044c3.582-0.646,5.749-2.237,8.295-4.745c4.699-4.627,9.181-4.197,15.34-4.434
						c8.73-0.335,12.308-5.325,15.911-12.644c0.341-0.693-0.34-1.35-1.026-1.026c-4.574,2.161-9.375,3.948-14.464,4.32
						c-4.406,0.322-8.64-0.822-13.001-1.12c-7.268-0.498-13.028,3.121-18.538,7.475c-2.5,1.975-5.849,4.598-3.644,7.992
						c2.095,3.226,7.379,4.381,10.927,4.208c0.961-0.047,0.967-1.547,0-1.5c-2.029,0.099-3.988-0.275-5.873-1.018
						c-0.825-0.325-3.046-1.091-3.413-2.035c-0.676-1.733,0.584-4.167,1.572-5.398c3.819-4.756,12.16-8.451,18.029-8.264
						c5.361,0.172,10.377,1.673,15.786,0.964c4.705-0.616,9.114-2.317,13.376-4.331c-0.342-0.342-0.684-0.684-1.026-1.026
						c-2.276,4.624-4.4,9.378-9.655,11.152c-4.313,1.456-8.947,0.282-13.358,1.002c-6.642,1.085-9.067,7.794-15.637,8.979
						C147.087,78.769,147.488,80.215,148.434,80.044z"/>
				</g>
			</g>
			<g>
				<path fill="#D1A7F1" d="M143.737,74.586c5.501-1.42,5.242-7.14,9.832-9.505c1.84-0.948,4.132-1.078,6.328-1.019
					c3.655,0.098,7.294,0.647,10.948,0.853c3.654,0.206,7.415,0.049,10.698-1.193c3.283-1.243,6.023-3.735,6.461-6.788
					c-2.289,1.694-5.321,2.662-8.422,2.69c-4.365,0.039-8.522-1.691-12.747-2.784c-3.283-0.85-6.669-1.322-10.054-1.679
					c-1.281-0.135-2.568-0.253-3.85-0.216c-1.494,0.043-2.961,0.299-4.38,0.656c-2.983,0.751-5.785,1.959-8.231,3.551
					c-3.664,2.383-6.606,5.835-6.922,9.803c-0.152,1.91,0.485,4.028,2.753,4.82C138.667,74.652,141.097,75.268,143.737,74.586z"/>
				<g>
					<path fill="#4D2D54" d="M143.936,75.31c3.123-1.09,4.498-3.045,6.301-5.7c4.317-6.357,11.243-4.72,17.87-4.154
						c7.319,0.625,18.363,0.549,20.62-8.322c0.154-0.605-0.535-1.216-1.102-0.847c-8.565,5.59-18.23-0.168-27.264-1.444
						c-7.114-1.005-13.542-0.549-19.794,3.279c-3.969,2.43-8.591,6.933-7.896,12.091C133.368,75.365,139.768,76.008,143.936,75.31
						c0.95-0.159,0.547-1.605-0.399-1.446c-4.599,0.77-5.293,0.307-7.45-3.168c-1.831-2.951-2.013-3.563-0.23-6.298
						c1.741-2.671,4.586-4.653,7.401-6.059c6.213-3.102,12.546-2.826,19.226-1.654c8.901,1.561,17.409,6.438,25.898,0.898
						c-0.367-0.282-0.734-0.565-1.102-0.847c-3.094,12.159-21.325,5.875-29.861,6.644c-2.409,0.217-4.561,0.896-6.321,2.599
						c-2.831,2.739-3.382,6.427-7.561,7.885C142.632,74.179,143.022,75.629,143.936,75.31z"/>
				</g>
			</g>
			<g>
				<path fill="#8190EB" d="M134.467,58.127c1.839-1.618,4.14-2.894,6.573-3.719c7.543-2.557,16.422-1.847,24.236,0.204
					c4.074,1.069,7.98,2.691,12.147,3.398c4.167,0.707,8.861,0.33,11.79-2.134c-0.808,2.433-3.202,4.393-6.106,4.997
					c-1.953,0.406-4.031,0.229-6.055,0.008c-4.652-0.509-9.249-1.286-13.839-2.161c-4.419-0.842-9.278-1.446-13.607-0.314
					c-4.174,1.091-7.813,4.624-9.658,7.875c-0.697,1.227-1.216,2.553-2.218,3.611c-1.002,1.058-2.668,1.811-4.25,1.402
					c-1.428-0.369-2.037-1.121-2.568-2.304C129.196,65.167,131.437,60.793,134.467,58.127z"/>
				<g>
					<path fill="#4D2D54" d="M134.997,58.657c9.061-7.281,22.3-5.703,32.679-2.569c7.094,2.142,15.192,5.167,21.916,0.435
						c-0.342-0.342-0.684-0.684-1.026-1.026c-3.366,7.434-13.746,4.484-19.984,3.433c-5.431-0.915-10.939-2.385-16.487-1.722
						c-3.817,0.456-7.053,2.065-9.772,4.788c-1.363,1.364-2.385,2.865-3.353,4.528c-0.326,0.626-0.667,1.244-1.021,1.854
						c-2.293-0.775-4.587-1.55-6.88-2.325C130.511,63.602,133.494,60.136,134.997,58.657c0.689-0.678-0.372-1.739-1.061-1.061
						c-3.084,3.034-7.104,10.248-2.17,13.728c5.696,4.017,8.855-5.588,11.616-8.268c8.175-7.937,20.244-3.209,30.09-1.869
						c6.093,0.829,13.372,1.729,16.388-4.934c0.275-0.607-0.346-1.505-1.026-1.026c-8.959,6.304-21.715-1.72-31.345-2.857
						c-8.228-0.971-16.917-0.107-23.553,5.225C133.184,58.201,134.251,59.256,134.997,58.657z"/>
				</g>
			</g>
		</g>
		<g>
			<g>
				<path fill="#FFDC8E" d="M168.932,95.279c2.583-0.283,4.932-1.462,6.61-3.104c1.618-1.582,2.716-3.327,4.79-4.532
					c1.99-1.157,4.542-1.496,6.952-1.558c3.033-0.079,6.136,0.216,9.065-0.374c2.686-0.541,5.119-1.834,6.833-3.635
					c1.242-1.305,2.099-2.844,2.901-4.386c0.67-1.288,1.309-2.589,1.948-3.889c-5.56,2.719-11.841,4.818-18.381,4.46
					c-4.427-0.242-8.851-1.603-13.218-1.137c-4.483,0.478-8.274,2.815-11.65,5.271c-1.4,1.018-2.765,2.07-4.094,3.154
					c-1.38,1.125-2.813,2.482-2.713,4.138C158.199,93.389,165.411,95.664,168.932,95.279z"/>
				<g>
					<path fill="#4D2D54" d="M169.131,96.002c3.582-0.646,5.749-2.237,8.295-4.745c4.699-4.627,9.181-4.198,15.34-4.434
						c8.73-0.335,12.308-5.325,15.911-12.644c0.341-0.693-0.341-1.35-1.026-1.026c-4.574,2.161-9.375,3.948-14.464,4.32
						c-4.406,0.322-8.64-0.822-13.001-1.12c-7.268-0.498-13.029,3.121-18.538,7.475c-2.5,1.975-5.848,4.598-3.644,7.992
						c2.095,3.226,7.38,4.381,10.927,4.209c0.961-0.047,0.966-1.547,0-1.5c-2.029,0.098-3.988-0.275-5.873-1.018
						c-0.825-0.325-3.046-1.091-3.413-2.035c-0.676-1.733,0.584-4.167,1.572-5.398c3.819-4.756,12.16-8.451,18.029-8.264
						c5.361,0.172,10.377,1.673,15.786,0.964c4.705-0.616,9.114-2.317,13.376-4.331c-0.342-0.342-0.684-0.684-1.026-1.026
						c-2.276,4.624-4.4,9.378-9.655,11.152c-4.313,1.456-8.947,0.282-13.358,1.002c-6.642,1.085-9.067,7.794-15.637,8.979
						C167.784,94.726,168.186,96.172,169.131,96.002z"/>
				</g>
			</g>
			<g>
				<path fill="#D1A7F1" d="M164.434,90.544c5.501-1.42,5.242-7.14,9.832-9.505c1.84-0.948,4.132-1.078,6.328-1.019
					c3.655,0.098,7.295,0.647,10.948,0.853c3.654,0.206,7.415,0.049,10.698-1.193c3.283-1.243,6.023-3.735,6.461-6.788
					c-2.289,1.694-5.321,2.662-8.422,2.689c-4.364,0.039-8.522-1.691-12.747-2.784c-3.283-0.85-6.669-1.322-10.054-1.679
					c-1.281-0.135-2.568-0.253-3.849-0.216c-1.494,0.043-2.961,0.299-4.38,0.656c-2.983,0.751-5.784,1.959-8.231,3.551
					c-3.664,2.383-6.606,5.835-6.922,9.803c-0.152,1.91,0.485,4.028,2.753,4.82C159.364,90.61,161.794,91.225,164.434,90.544z"/>
				<g>
					<path fill="#4D2D54" d="M164.634,91.267c3.123-1.09,4.498-3.045,6.301-5.7c4.317-6.357,11.243-4.72,17.87-4.154
						c7.319,0.625,18.363,0.549,20.62-8.322c0.154-0.605-0.535-1.217-1.102-0.847c-8.565,5.59-18.23-0.169-27.264-1.444
						c-7.114-1.005-13.542-0.549-19.794,3.279c-3.969,2.43-8.591,6.933-7.896,12.091C154.065,91.322,160.465,91.965,164.634,91.267
						c0.95-0.159,0.547-1.605-0.399-1.446c-4.599,0.77-5.293,0.307-7.451-3.168c-1.831-2.951-2.013-3.563-0.23-6.298
						c1.741-2.671,4.586-4.653,7.401-6.059c6.213-3.102,12.546-2.826,19.226-1.654c8.901,1.561,17.409,6.438,25.898,0.898
						c-0.367-0.282-0.734-0.565-1.102-0.847c-3.094,12.159-21.325,5.875-29.861,6.644c-2.409,0.217-4.561,0.896-6.321,2.599
						c-2.831,2.739-3.382,6.427-7.561,7.885C163.329,90.136,163.719,91.586,164.634,91.267z"/>
				</g>
			</g>
			<g>
				<path fill="#8190EB" d="M155.164,74.084c1.839-1.618,4.14-2.894,6.573-3.719c7.544-2.557,16.422-1.847,24.236,0.204
					c4.074,1.069,7.98,2.691,12.147,3.397c4.167,0.707,8.861,0.33,11.79-2.134c-0.808,2.433-3.203,4.393-6.106,4.997
					c-1.953,0.406-4.031,0.229-6.055,0.008c-4.652-0.509-9.249-1.286-13.839-2.161c-4.419-0.842-9.278-1.446-13.607-0.314
					c-4.174,1.091-7.813,4.624-9.658,7.875c-0.697,1.227-1.216,2.553-2.218,3.611c-1.002,1.058-2.669,1.811-4.25,1.402
					c-1.428-0.369-2.037-1.122-2.568-2.305C149.894,81.124,152.134,76.75,155.164,74.084z"/>
				<g>
					<path fill="#4D2D54" d="M155.695,74.614c9.062-7.281,22.3-5.703,32.679-2.57c7.094,2.142,15.192,5.167,21.916,0.436
						c-0.342-0.342-0.684-0.684-1.026-1.026c-3.366,7.434-13.746,4.484-19.984,3.433c-5.431-0.915-10.939-2.385-16.488-1.722
						c-3.817,0.456-7.053,2.065-9.772,4.788c-1.363,1.364-2.385,2.865-3.353,4.529c-0.326,0.626-0.667,1.244-1.021,1.854
						c-2.293-0.775-4.587-1.55-6.88-2.325C151.208,79.559,154.192,76.093,155.695,74.614c0.689-0.678-0.372-1.739-1.061-1.061
						c-3.084,3.034-7.104,10.248-2.17,13.728c5.696,4.017,8.855-5.588,11.616-8.268c8.175-7.937,20.244-3.208,30.09-1.869
						c6.093,0.829,13.372,1.729,16.388-4.934c0.275-0.607-0.346-1.505-1.026-1.026c-8.959,6.303-21.715-1.72-31.345-2.857
						c-8.228-0.971-16.917-0.107-23.553,5.225C153.881,74.158,154.949,75.214,155.695,74.614z"/>
				</g>
			</g>
		</g>
		<g>
			<g>
				<path fill="#FFDC8E" d="M187.989,115.995c1.255-0.574,2.416-1.353,3.407-2.312c1.953-1.89,3.256-4.347,5.053-6.386
					c4.644-5.27,11.448-2.737,17.527-3.96c3.943-0.793,6.884-3.247,9.227-6.413c0.435-0.588,0.841-1.202,1.127-1.874
					c1.101-2.584,0.294-5.54-0.522-8.227c-0.073,1.213,0.501,3.391,0.089,4.534c-0.205,0.57-0.342,0.802-0.75,1.25
					c-0.377,0.414-1.011,1.383-1.502,1.652c-4.185,2.283-9.606,1.891-14.369,1.63c-4.427-0.242-8.851-1.603-13.218-1.137
					c-4.483,0.478-8.274,2.815-11.65,5.271c-1.4,1.018-2.765,2.07-4.094,3.154c-2.717,2.216-5.787,5.756-3.98,9.465
					c0.863,1.773,2.554,3.04,4.391,3.757C181.691,117.556,185.091,117.321,187.989,115.995z"/>
				<g>
					<path fill="#4D2D54" d="M188.368,116.643c4.762-2.502,6.33-7.942,10.746-10.618c4.664-2.826,10.709-0.807,15.778-2.151
						c3.656-0.969,6.728-3.433,8.9-6.495c2.442-3.442,1.853-6.898,0.739-10.756c-0.229-0.794-1.507-0.667-1.473,0.199
						c0.083,2.159,0.456,4.367-1.149,6.134c-2.208,2.43-6.705,2.377-9.72,2.382c-4.234,0.008-8.295-0.673-12.489-1.162
						c-8.201-0.957-14.14,2.304-20.424,7.278c-3.366,2.664-7.935,6.76-5.59,11.564c2.607,5.342,9.691,5.546,14.502,3.699
						c0.892-0.342,0.505-1.793-0.399-1.446c-2.346,0.9-4.826,1.448-7.351,0.867c-2.69-0.246-3.997-1.82-3.92-4.72
						c-1.873-2.242-1.772-4.182,0.303-5.82c2.186-2.486,5.155-4.466,7.915-6.281c3.393-2.232,7.069-3.857,11.196-3.912
						c3.789-0.051,7.568,0.943,11.343,1.234c4.266,0.328,10.957,1.006,14.748-1.732c3.099-2.238,2.665-4.689,2.534-8.083
						c-0.491,0.066-0.982,0.133-1.473,0.199c1.966,6.81-0.98,12.914-7.876,15.219c-3.833,1.281-7.982,0.44-11.92,0.946
						c-7.906,1.016-9.235,8.776-15.679,12.161C186.756,115.797,187.513,117.092,188.368,116.643z"/>
				</g>
			</g>
			<g>
				<path fill="#D1A7F1" d="M182.062,108.171c5.501-1.42,5.242-7.14,9.832-9.505c1.84-0.948,4.133-1.078,6.328-1.019
					c3.655,0.098,7.294,0.647,10.948,0.853c3.915,0.221,9.025,0.621,12.27-1.984c1.525-1.224,2.601-3.033,2.809-4.977
					c0.172-1.614-0.239-3.226-0.646-4.797c0.092,0.964,0.184,1.939,0.054,2.898s-0.502,1.918-1.211,2.578
					c-1.916,1.784-5.731,1.074-8.045,0.679c-3.15-0.538-6.156-1.676-9.242-2.475c-3.283-0.85-6.669-1.322-10.054-1.679
					c-1.28-0.135-2.568-0.253-3.849-0.216c-1.494,0.043-2.961,0.299-4.38,0.656c-2.983,0.751-5.785,1.959-8.231,3.551
					c-3.664,2.383-6.606,5.835-6.922,9.803c-0.152,1.91,0.485,4.028,2.753,4.82C176.992,108.238,179.422,108.853,182.062,108.171z"
					/>
				<g>
					<path fill="#4D2D54" d="M182.261,108.895c3.59-1.252,4.795-3.704,6.914-6.65c4.586-6.374,14.674-3.24,21.34-2.918
						c8.774,0.423,16.244-2.824,13.811-12.783c-0.197-0.805-1.538-0.656-1.473,0.199c0.639,8.422-8.504,5.535-12.896,4.293
						c-3.745-1.059-7.406-2.063-11.269-2.609c-7.114-1.004-13.542-0.549-19.794,3.28c-3.969,2.43-8.591,6.933-7.896,12.091
						C171.692,108.95,178.093,109.593,182.261,108.895c0.95-0.159,0.547-1.605-0.399-1.446c-3.469,0.581-9.959,0.054-9.215-6.012
						c0.235-1.913,1.911-4.137,3.176-5.451c2.443-2.537,5.753-4.293,9.057-5.42c6.941-2.367,14.717-0.916,21.617,1.005
						c6.523,1.816,18.698,6.277,17.855-4.828c-0.491,0.066-0.982,0.133-1.473,0.199c3.947,16.153-17.999,9.473-26.314,9.956
						c-2.685,0.156-5.166,0.752-7.142,2.664c-2.831,2.739-3.382,6.427-7.561,7.885C180.957,107.764,181.346,109.214,182.261,108.895
						z"/>
				</g>
			</g>
			<g>
				<path fill="#8190EB" d="M172.792,91.712c1.839-1.618,4.14-2.894,6.573-3.719c7.543-2.557,16.422-1.847,24.236,0.204
					c5.038,1.322,9.217,3.287,14.539,3.425c1.827,0.047,2.846-0.397,3.989-1.767c0.672-0.806,0.768-1.937,0.758-2.986
					c-0.012-1.235-0.184-2.586-1.078-3.437c0.29-0.267,0.751-0.008,1.034,0.266c1.825,1.768,2.801,4.495,2.133,6.947
					c-1.242,4.554-5.872,4.229-9.599,3.821c-4.652-0.509-9.249-1.286-13.839-2.161c-4.419-0.842-9.278-1.446-13.607-0.314
					c-4.174,1.091-7.813,4.624-9.658,7.875c-0.697,1.227-1.216,2.553-2.218,3.611c-1.002,1.058-2.669,1.811-4.25,1.402
					c-1.428-0.369-2.037-1.121-2.568-2.304C167.521,98.752,169.762,94.378,172.792,91.712z"/>
				<g>
					<path fill="#4D2D54" d="M173.322,92.242c11.535-9.268,26.199-3.838,38.814-0.75c6.394,1.565,13.146,0.796,10.995-7.444
						c1.048,4.016,2.467,8.66-3.247,9.763c-1.105,0.213-2.255,0.1-3.366,0.019c-3.217-0.236-6.433-0.781-9.611-1.316
						c-5.142-0.865-10.384-2.267-15.645-1.822c-4.136,0.35-7.669,1.94-10.615,4.888c-1.363,1.364-2.385,2.865-3.353,4.528
						c-0.326,0.626-0.667,1.244-1.021,1.854c-2.293-0.775-4.587-1.55-6.88-2.325C168.836,97.187,171.819,93.721,173.322,92.242
						c0.689-0.678-0.372-1.738-1.061-1.061c-3.178,3.127-7.746,12.893-0.457,14.447c3.84,0.819,5.487-2.732,7.115-5.385
						c4.342-7.073,11.267-8.782,19.128-7.738c5.508,0.732,10.931,1.971,16.459,2.608c2.867,0.33,6.494,0.888,9.008-0.97
						c3.103-2.293,3.269-12.132-1.904-11.436c-0.469,0.063-0.694,0.739-0.448,1.102c0.325,1.02,0.65,2.039,0.975,3.058
						c-1.332,1.334-2.665,2.668-3.997,4.002c-1.121,0.431-3.584-0.367-4.816-0.629c-2.129-0.453-4.192-1.187-6.27-1.82
						c-4.254-1.296-8.571-2.276-13.01-2.648c-7.7-0.645-15.627,0.46-21.782,5.406C171.509,91.786,172.576,92.841,173.322,92.242z"/>
				</g>
			</g>
		</g>
		<g>
			<g>
				<path fill="#FFDC8E" d="M203.333,262.101c3.369-0.01,6.767-0.342,9.99-1.489c6.299-2.241,11.651-7.482,18.078-9.158
					c7.455-1.944,12.154,2.28,18.319,6.247c4.021,2.588,8.665,3.565,13.247,3.887c3.592,0.252,7.307,0.099,10.612-1.564
					c4.295-2.161,7.458-6.691,9.408-11.655c1.95-4.965,2.829-10.395,3.691-15.763c-7.439,11.558-21.347,16.797-33.166,12.493
					c-4.734-1.724-7.897-5.662-12.189-8.285c-4.982-3.045-10.969-2.354-16.539-1.454c-3.032,0.49-6.07,1.022-9.011,2.012
					c-1.616,0.544-3.195,1.224-4.773,1.903c-3.509,1.511-7.054,3.044-10.259,5.327c-1.482,1.055-2.79,2.368-4.298,3.338
					c-1.422,0.914-2.636,2.092-3.528,3.719C188.058,260.526,198.144,262.101,203.333,262.101z"/>
				<g>
					<path fill="#4D2D54" d="M203.333,262.851c4.082-0.082,8.02-0.535,11.807-2.159c4.114-1.764,7.669-4.56,11.646-6.582
						c6.417-3.263,11.852-2.663,17.815,1.111c3.991,2.525,7.523,5.072,12.178,6.2c7.043,1.705,15.3,1.853,20.889-3.398
						c6.802-6.391,8.322-16.479,9.734-25.217c0.134-0.827-0.874-1.312-1.371-0.578c-7.652,11.309-23.563,18.257-36.05,10.17
						c-4.874-3.156-8.272-7.414-14.324-8.33c-5.821-0.88-12.719,0.451-18.308,2.039c-5.809,1.651-12.085,4.322-16.987,7.849
						c-3.757,2.702-8.712,5.8-9.396,10.875C190.065,261.527,198.426,262.779,203.333,262.851c0.965,0.014,0.966-1.486,0-1.5
						c-3.509-0.052-9.423-0.396-10.667-4.401c-1.874-6.028,8.418-12.015,12.733-14.28c11.411-5.987,27.821-11.465,39.025-2.706
						c6.65,5.199,12.98,8.382,21.705,7.06c8.863-1.342,16.245-6.72,21.198-14.041c-0.457-0.193-0.914-0.385-1.371-0.578
						c-1.46,9.03-3.029,20.875-11.5,26.253c-9.377,5.953-20.967,0.412-29.099-4.734c-5.554-3.514-10.9-4.749-17.142-2.154
						c-3.432,1.427-6.461,3.617-9.666,5.463c-4.88,2.811-9.591,4.002-15.216,4.116C202.369,261.371,202.366,262.871,203.333,262.851
						z"/>
				</g>
			</g>
			<g>
				<path fill="#D1A7F1" d="M198.535,253.168c6.747,1.919,13.641-0.824,19.493-4.692c4.969-3.285,10.695-7.769,16.649-7.947
					c5.386-0.161,9.492,4.044,13.89,6.961c4.787,3.174,10.267,4.923,15.773,4.992c5.614,0.07,11.414-1.703,15.651-6.006
					c4.276-4.344,6.537-10.724,8.654-16.864c-6.598,5.696-14.44,10.435-22.616,9.634c-10.936-1.072-19.411-11.551-29.795-15.697
					c-6.805-2.717-14.304-2.596-21.265-0.486c-5.624,1.705-10.918,4.666-15.812,8.294c-4.419,3.276-5.874,7.906-6.356,14.054
					C192.459,249.768,195.081,252.185,198.535,253.168z"/>
				<g>
					<path fill="#4D2D54" d="M198.335,253.891c9.543,2.174,16.94-2.825,24.602-7.809c5.343-3.476,11.196-6.412,17.432-3.286
						c4.364,2.188,7.796,5.785,12.296,7.806c6.989,3.139,15.563,3.769,22.546,0.244c8.171-4.125,11.342-12.917,14.156-21.036
						c0.267-0.769-0.731-1.169-1.253-0.73c-6.116,5.151-13.498,10.122-21.877,9.375c-6.087-0.542-11.283-4.022-16.181-7.417
						c-9.34-6.474-18.141-11.693-29.985-9.897c-8.718,1.322-21.325,6.377-25.686,14.647
						C190.985,242.234,190.393,251.181,198.335,253.891c0.916,0.312,1.309-1.136,0.399-1.447
						c-6.807-2.323-5.906-10.562-3.054-15.899c2.56-4.791,8.191-7.847,12.937-10.148c11.896-5.768,24.004-5.179,35.052,2.056
						c6.881,4.506,13.628,10.633,22.16,11.515c8.913,0.921,16.844-4.351,23.345-9.827c-0.418-0.243-0.836-0.486-1.254-0.73
						c-3.426,9.883-7.66,19.961-19.181,21.978c-10.37,1.816-17.569-3.575-25.758-8.793c-5.335-3.399-10.338-3.392-15.969-0.648
						c-9.415,4.588-16.745,13.124-28.278,10.496C197.794,252.23,197.393,253.676,198.335,253.891z"/>
				</g>
			</g>
			<g>
				<path fill="#8190EB" d="M224.58,216.172c6.513-0.103,14.486,1.317,20.027,5.539c4.108,3.13,7.234,7.17,11.069,10.66
					c3.794,3.452,7.979,4.144,12.636,4.416c9.068,0.529,18.695-3.001,24.632-11.35c-3.381,13.05-15.619,20.648-27.273,21.446
					c-13.596,0.932-21.675-16-34.883-17.145c-7.379-0.64-14.975,1.527-21.107,6.414c-3.644,2.904-6.634,8.255-10.722,10.127
					c-2.175,0.996-4.917,0.818-6.529-1.157c-6.594-8.082,11.106-21.867,16.032-24.716
					C213.139,217.702,218.81,216.263,224.58,216.172z"/>
				<g>
					<path fill="#4D2D54" d="M224.58,216.922c8.963,0.011,16.815,2.385,23.34,8.699c4.859,4.702,8.701,10.033,15.69,11.391
						c11.46,2.228,22.947-1.873,29.981-11.196c-0.457-0.193-0.914-0.385-1.371-0.578c-4.27,14.807-22.829,26.557-37.307,17.86
						c-10.362-6.224-17.152-15.659-30.464-13.973c-6.41,0.812-12.669,3.681-17.232,8.288c-2.474,2.498-4.471,5.792-7.548,7.626
						c-5.82,3.471-8.902-2.472-7.333-7.026c1.87-5.427,7.166-9.993,11.54-13.466C209.946,219.728,216.753,217.229,224.58,216.922
						c0.962-0.038,0.967-1.538,0-1.5c-11.601,0.455-20.981,5.926-28.605,14.43c-3.555,3.965-10.499,16.251-0.492,17.715
						c5.681,0.831,9.435-5.736,12.794-9.091c6.344-6.337,16.982-9.954,25.794-7.334c11.043,3.284,17.652,15.9,29.782,16.501
						c13.499,0.669,26.168-9.365,29.813-22.005c0.252-0.875-0.889-1.217-1.371-0.578c-8.993,11.919-27.557,15.428-38.559,4.39
						c-4.327-4.341-8.231-8.924-14.005-11.348c-4.787-2.01-9.996-2.673-15.151-2.679
						C223.615,215.421,223.613,216.921,224.58,216.922z"/>
				</g>
			</g>
		</g>
		<g>
			<path fill="#FBF5F9" d="M84.913,292.747c-3.798,7.757-9.745,19.337-5.704,26.092c3.684,6.16,12.034,1.438,15.601-2.336
				c2.958-3.13,4.953-7.02,7.016-10.8c7.553-13.84,19.963-19.746,33.626-26.363c7.983-3.866,16.813-10.269,16.808-20.086
				c-0.01-19.867-27.36-22.079-40.712-14.952c-7.727,4.124-10.936,12.965-14.413,20.471c-3.745,8.083-6.973,16.303-10.554,24.449
				C86.122,290.263,85.548,291.452,84.913,292.747z"/>
		</g>
		<path fill="#E16D90" d="M94.808,316.503c1.855-1.963,3.332-4.227,4.684-6.574c-0.346-0.463-0.826-0.883-1.494-1.234
			c-1.61-0.848-3.56-0.071-5.205,0.705c0.99-0.467-0.777-3.127-1.164-3.478c-0.935-0.847-2.531-1.681-3.824-1.667
			c-0.661,0.007-3.421,0.943-2.928,2.08c-0.337-0.777-0.154-1.704-0.494-2.48c-0.288-0.657-0.912-1.11-1.567-1.403
			c-0.783-0.351-1.528-0.439-2.235-0.332c-2.435,6.036-3.973,12.375-1.374,16.72C82.892,324.999,91.242,320.277,94.808,316.503z"/>
		<g>
			<path fill="#F0D9E9" d="M135.752,241.602c1.972,2.298,3.336,5.248,3.829,8.939c1.301,9.73-6.607,17.243-14.009,22.129
				c-12.67,8.363-24.192,15.855-29.851,30.571c-1.546,4.019-3.01,8.139-5.529,11.632c-1.859,2.578-5.447,5.74-8.975,6.52
				c4.125,1.601,9.872-1.925,12.674-4.89c2.958-3.13,4.953-7.02,7.016-10.8c7.552-13.84,19.963-19.746,33.626-26.363
				c7.982-3.866,16.813-10.269,16.808-20.086C151.336,249.23,144.368,243.705,135.752,241.602z"/>
		</g>
		<g>
			<g>
				<path fill="#4D2D54" d="M84.266,292.369c-3.349,6.826-8.409,15.407-6.965,23.334c1.184,6.501,6.836,8.125,12.355,5.47
					c8.39-4.036,10.903-13.236,16.089-20.224c6.271-8.451,15.443-13.729,24.696-18.331c7.369-3.665,15.513-7.129,19.994-14.471
					c3.334-5.463,3.456-12.666,0.141-18.185c-6.39-10.638-22.282-11.676-33.044-8.768c-8.419,2.275-13.637,7.793-17.478,15.474
					C94.227,268.313,89.958,280.67,84.266,292.369c-0.421,0.865,0.873,1.626,1.295,0.757c3.896-8.006,7.02-16.374,10.645-24.503
					c3.136-7.033,5.994-15.596,11.85-20.886c8.573-7.745,24.619-8.51,34.568-3.118c5.505,2.984,8.942,8.296,8.886,14.636
					c-0.08,9.047-7.901,15.055-15.234,18.839c-12.346,6.372-25.143,11.925-33.107,23.938c-4.223,6.369-9.301,20.365-19.308,18.936
					c-11.955-1.707-0.905-22.53,1.7-27.841C85.985,292.262,84.691,291.501,84.266,292.369z"/>
			</g>
		</g>
		<g>
			<path fill="#FBF5F9" d="M120.192,183.353c-0.9,0.265-1.798,0.492-2.677,0.683c-8.29,1.803-23.44,4.074-30.622-1.848
				c-4.067-3.353-5.294-9.706-3.628-14.588c1.622-4.753,6.046-7.18,10.452-8.928c10.842-4.302,23.952-6.778,34.632-0.512
				c4.575,2.684,6.986,8.027,5.704,13.333C132.487,177.979,126.284,181.556,120.192,183.353z"/>
		</g>
		<g>
			<path fill="#F0D9E9" d="M120.546,183.353c-0.9,0.265-1.798,0.492-2.677,0.683c-8.29,1.803-23.44,4.074-30.622-1.848
				c-4.067-3.353-5.294-9.706-3.628-14.588c1.622-4.753,6.046-7.18,10.452-8.928c10.842-4.302,23.952-6.778,34.632-0.512
				c4.575,2.684,6.986,8.027,5.705,13.333C132.841,177.979,126.639,181.556,120.546,183.353z"/>
		</g>
		<g>
			<path fill="#FBF5F9" d="M121.952,60.505c-5.841-0.346-11.199,2.022-17.742,5.26c-14.072,6.964-8.814,20.682-2.14,31.242
				c4.926,7.793,11.11,14.762,15.526,22.883c4.447,8.178,7.146,17.69,8.59,26.858c3.027,19.22,0.578,39.978-9.033,57.098
				c-9.21,16.406-19.738,34.675-12.214,53.879c6.257,15.97,21.708,24.596,38.257,25.762c38.261,2.695,62.204-28.904,69.025-63.358
				c11.712-59.167-28.935-128.256-80.285-156.49C128.304,61.641,125.06,60.689,121.952,60.505z"/>
		</g>
		<g>
			<path fill="#F0D9E9" d="M159.39,272.723c-15.97,4.494-36.583-5.841-42.84-21.811c-7.525-19.204,3.003-37.474,12.214-53.879
				c9.611-17.12,12.06-37.877,9.033-57.098c-1.444-9.167-4.143-18.68-8.59-26.858c-4.416-8.121-10.601-15.09-15.527-22.883
				c-5.565-8.803-10.134-19.8-3.348-27.25c-1.947,0.809-3.956,1.76-6.099,2.821c-14.072,6.964-8.814,20.683-2.14,31.242
				c4.926,7.793,11.111,14.762,15.526,22.883c4.447,8.178,7.147,17.69,8.59,26.858c3.027,19.22,0.578,39.978-9.033,57.098
				c-9.21,16.406-19.738,34.675-12.214,53.879c6.257,15.97,21.708,24.596,38.257,25.762c15.425,1.087,28.518-3.406,39.105-11.407
				C173.231,268.039,168.974,270.026,159.39,272.723z"/>
		</g>
		<g>
			<g>
				<path fill="#4D2D54" d="M121.952,59.755c-8.048-0.144-19.571,3.827-24.597,10.465c-4.322,5.708-2.859,13.111-0.22,19.204
					c3.97,9.168,10.744,16.688,16.219,24.938c7.103,10.704,10.971,22.998,12.549,35.694c1.479,11.897,0.852,24.124-2.261,35.718
					c-3.223,12.001-10.104,21.978-15.331,33.094c-8.392,17.844-9.996,38.63,5.453,53.218c12.577,11.877,31.842,14.655,48.198,10.6
					c16.013-3.97,29.025-15.016,37.788-28.731c20.075-31.417,18.419-71.482,5.322-105.177c-7.69-19.784-19.11-38.111-33.289-53.894
					c-7.06-7.858-14.848-15.073-23.299-21.414C140.818,67.721,131.774,60.683,121.952,59.755c-0.961-0.091-0.954,1.41,0,1.5
					c8.991,0.849,17.559,7.448,24.649,12.676c7.217,5.321,13.944,11.297,20.159,17.757c12.527,13.019,23.031,28.019,31.02,44.223
					c15.287,31.005,21.495,67.849,8.894,100.862c-5.905,15.471-15.984,29.992-30.471,38.494
					c-15.259,8.955-35.409,10.465-51.441,2.599c-8.598-4.218-15.58-11.387-19.099-20.341c-4.205-10.701-2.55-22.044,1.579-32.473
					c3.928-9.921,10.163-18.657,14.282-28.462c3.63-8.641,5.681-17.877,6.37-27.212c1.671-22.638-4.432-43.86-17.733-62.129
					c-5.638-7.744-12.698-16.32-13.921-26.175c-1.613-13.007,14.769-20.014,25.71-19.818
					C122.917,61.272,122.918,59.772,121.952,59.755z"/>
			</g>
		</g>
		<g>
			<path fill="#FBF5F9" d="M155.858,124.812c24.328-27.024-14.495-55.975-39.073-59.363c-4.246-0.585-8.68-0.705-12.706,0.765
				c-9.767,3.566-9.77,15.801-9.635,24.637c0.157,10.333,1.295,20.622,2.432,30.893c1.741,15.727,2.231,30.413,8.309,45.305
				c2.313,5.668,5.377,11.437,10.641,14.563c9.978,5.925,23.586-0.742,29.26-10.865c5.674-10.123,5.607-22.35,5.475-33.953
				c-0.024-2.085-0.033-4.236,0.76-6.165C152.261,128.341,154.203,126.65,155.858,124.812z"/>
		</g>
		<g>
			<g>
				<g>
					<path fill="#F0D9E9" d="M103.619,76.29c6.543-3.238,11.9-5.605,17.742-5.26c3.108,0.184,6.352,1.136,9.985,3.133
						c43.838,24.103,79.867,77.981,82.186,130.042c2.518-55.165-35.385-114.834-82.186-140.567
						c-3.633-1.997-6.877-2.949-9.985-3.133c-5.841-0.346-11.199,2.022-17.742,5.26c-8.855,4.382-10.053,11.439-8.064,18.7
						C96.729,81.284,99.236,78.459,103.619,76.29z"/>
				</g>
			</g>
		</g>
		<g>
			<g>
				<g>
					<path fill="#F0D9E9" d="M152.026,128.115c-2.025,1.421-4.297,2.633-5.726,4.652c-1.205,1.702-1.678,3.801-2.122,5.838
						c-2.472,11.338-5.147,23.269-12.945,31.863c-4.624,5.096-11.695,8.382-18.436,8.543c1.009,0.985,2.109,1.871,3.34,2.602
						c9.978,5.925,23.586-0.742,29.26-10.865c5.674-10.123,5.607-22.35,5.475-33.953c-0.024-2.085-0.033-4.236,0.76-6.165
						c0.94-2.288,2.882-3.979,4.538-5.817c0.139-0.154,0.265-0.309,0.4-0.464C155.246,125.651,153.742,126.91,152.026,128.115z"/>
				</g>
				<g>
					<path fill="#F0D9E9" d="M95.728,107.665c1.046-8.852,2.192-17.697,4.056-26.41c1.039-4.858,2.362-10.753,5.154-15.212
						c-0.182,0.059-0.367,0.106-0.548,0.172c-9.767,3.566-9.77,15.801-9.635,24.637C94.841,96.467,95.221,102.07,95.728,107.665z"/>
				</g>
			</g>
		</g>
		<g>
			<g>
				<path fill="#4D2D54" d="M103.88,65.491c-11.627,4.867-10.485,19.737-10.042,30.201c0.42,9.929,1.657,19.785,2.67,29.664
					c0.907,8.839,1.588,17.73,3.366,26.451c2.436,11.947,7.479,30.775,22.028,32.642c13.433,1.724,23.989-10.008,27.278-21.842
					c2.514-9.047,1.699-18.144,2.128-27.385c0.29-6.259,5.228-9.326,8.418-14.149c2.258-3.415,3.713-7.102,4.371-11.14
					c0.154-0.944-1.291-1.351-1.446-0.399c-1.258,7.722-5.893,12.188-10.392,18.134c-3.448,4.557-2.367,10.433-2.418,15.806
					c-0.135,14.228-2.554,30.766-16.923,37.536c-33.469,15.769-34.911-53.815-36.611-71.794c-0.74-7.832-1.335-15.742-1.108-23.615
					c0.211-7.313,1.529-15.503,9.08-18.663C105.156,66.57,104.771,65.118,103.88,65.491L103.88,65.491z"/>
			</g>
		</g>
		<path fill="#FBF5F9" d="M259.409,95.454c2.376,0.143,4.707,0.509,6.95,1.168c1.437,0.422,2.865,1.017,3.953,2.047
			c3.717,3.521,0.716,10.412-2.57,13.124c-3.747,3.093-8.694,4.183-13.312,5.696c-11.854,3.886-21.743,11.637-31.602,19.008
			c-8.186,6.12-22.757,19.347-33.809,17.662c-8.714-1.329-10.962-11.671-9.542-18.918c2.585-13.197,13.551-20.678,25.126-25.732
			c9.693-4.232,19.651-7.947,29.937-10.46C242.23,97.169,251.102,94.953,259.409,95.454z"/>
		<path fill="#E16D90" d="M270.311,98.605c-1.088-1.03-2.516-1.625-3.953-2.047c-2.243-0.659-4.573-1.024-6.95-1.168
			c-3.564-0.215-7.23,0.087-10.865,0.631c0.014,0.249,0.025,0.496,0.077,0.769c0.373,1.962,2.374,3.106,4.166,3.989
			c-1.078-0.531-2.155,2.806-2.191,3.379c-0.088,1.383,0.287,3.323,1.184,4.425c0.458,0.563,3.15,2.293,3.789,1.092
			c-0.437,0.821-1.358,1.298-1.792,2.121c-0.368,0.697-0.329,1.543-0.133,2.306c0.359,1.403,1.197,2.296,2.302,2.845
			c4.164-1.293,8.456-2.459,11.797-5.216C271.027,109.017,274.028,102.126,270.311,98.605z"/>
		<path fill="#F0D9E9" d="M200.557,151.839c8.303-3.834,16.744-11.209,22.273-15.342c9.859-7.371,19.748-15.121,31.602-19.008
			c4.618-1.514,9.564-2.603,13.312-5.696c2.977-2.457,5.701-8.334,3.429-12.038c-0.809,1.98-2.091,3.78-3.429,4.884
			c-3.747,3.093-8.694,4.183-13.312,5.696c-11.854,3.886-21.743,11.637-31.602,19.007c-6.14,4.59-15.871,13.177-25.015,16.474"/>
		<path fill="#FBF5F9" d="M133.599,130.238c3.37-0.726,6.686-0.719,9.224,0.985c16.143,10.839-25.913,37.991-33.371,44.104
			c-2.995,2.455-6.04,4.941-9.591,6.485c-3.551,1.544-7.738,2.05-11.275,0.473c-5.359-2.391-7.518-8.873-6.754-14.358
			c1.204-8.639,9.403-14.145,15.897-18.866C108.153,141.483,120.795,132.996,133.599,130.238z"/>
		<path fill="#E16D90" d="M142.823,131.222c-2.538-1.704-5.854-1.711-9.224-0.985c-4.658,1.003-9.293,2.771-13.809,4.971
			c-0.07,0.824,0.135,1.717,0.719,2.685c1.032,1.71,3.305,2.088,5.292,2.292c-1.195-0.123-1.046,3.38-0.881,3.93
			c0.398,1.327,1.424,3.016,2.648,3.738c0.625,0.368,3.75,1.056,3.932-0.293c-0.125,0.921-0.822,1.689-0.944,2.611
			c-0.103,0.781,0.228,1.561,0.676,2.208c1.14,1.645,2.783,2.107,4.602,1.856C144.794,145.568,150.65,136.478,142.823,131.222z"/>
		<path fill="#F0D9E9" d="M142.86,131.222c-0.109-0.073-0.227-0.126-0.339-0.193c6.574,12.182-29.382,35.497-36.223,41.105
			c-2.995,2.455-6.04,4.941-9.591,6.485c-3.551,1.544-7.738,2.05-11.275,0.473c-0.482-0.215-0.93-0.474-1.36-0.752
			c1.113,1.685,2.622,3.082,4.552,3.944c3.537,1.577,7.723,1.071,11.275-0.473c3.551-1.544,6.596-4.03,9.591-6.485
			C116.947,169.213,159.003,142.061,142.86,131.222z"/>
		<g>
			<g>
				<path fill="#FBF5F9" d="M95.763,74.731c-3.286-1.267-6.614-2.544-10.111-2.958c-3.497-0.414-7.238,0.122-10.078,2.205
					c-0.532,0.39-1.045,0.856-1.274,1.474c-0.191,0.515-0.165,1.084-0.084,1.626c0.379,2.547,1.872,4.795,3.574,6.728
					c2.307,2.62,5.129,4.87,8.416,6.047c3.287,1.177,7.075,1.192,10.171-0.422"/>
				<g>
					<path fill="#4D2D54" d="M95.962,74.008c-5.35-2.051-11.316-4.246-17.074-2.475c-3.206,0.986-6.017,2.729-5.258,6.369
						c2.005,9.607,14.349,15.987,23.123,12.177c0.883-0.384,0.12-1.676-0.757-1.295c-7.199,3.126-17.883-1.85-20.313-9.573
						c-3.447-10.959,15.619-5.389,19.879-3.756C96.466,75.8,96.856,74.35,95.962,74.008L95.962,74.008z"/>
				</g>
			</g>
			<path fill="#FF9AA5" d="M93.675,78.84c1.081,0.325,2.098,0.83,3.109,1.334c0.199,0.099,0.4,0.2,0.564,0.349
				c0.233,0.213,0.372,0.509,0.477,0.807c0.36,1.026,0.366,2.173,0.016,3.203c-0.062,0.183-0.137,0.366-0.265,0.511
				c-0.163,0.185-0.397,0.291-0.63,0.372c-0.932,0.327-1.952,0.346-2.924,0.171c-0.972-0.175-1.901-0.537-2.794-0.958
				c-1.132-0.533-2.235-1.178-3.088-2.095c-0.786-0.845-1.761-2.495-1.319-3.709c0.22-0.604,1.104-0.451,1.627-0.471
				c0.821-0.033,1.644-0.04,2.464,0.013C91.846,78.43,92.777,78.571,93.675,78.84z"/>
			<g>
				<g>
					<path fill="#4D2D54" d="M96.858,84.577c-1.646,0.088-3.38,0.16-4.977-0.322c-2.046-0.617-4.905-2.559-4.351-5.007
						c0.213-0.94-1.233-1.341-1.446-0.399c-0.586,2.588,1.089,4.41,3.121,5.745c2.321,1.524,4.946,1.627,7.653,1.482
						C97.819,86.026,97.825,84.526,96.858,84.577L96.858,84.577z"/>
				</g>
			</g>
			<g>
				<g>
					<path fill="#4D2D54" d="M97.192,79.42c-5.481-2.979-11.954-2.708-17.131,0.799c-0.795,0.538-0.045,1.839,0.757,1.295
						c4.739-3.21,10.567-3.544,15.617-0.799C97.283,81.176,98.041,79.882,97.192,79.42L97.192,79.42z"/>
				</g>
			</g>
		</g>
		<g>
			<g>
				<g>
					<path fill="#E16D90" d="M113.454,80.402c4.048-7.044-0.324-21.529-10.001-20.998c-7.49,0.411-13.031,9.112-10.921,16.137
						c2.59,8.621,15.675,13.829,20.887,4.922C113.43,80.443,113.442,80.423,113.454,80.402z"/>
				</g>
				<g>
					<g>
						<path fill="#FFFFFF" d="M114.129,80.855c0.708-4.428-0.368-8.829-3.103-12.406c-3.299-4.314-7.846-5.596-13.039-6.247
							c-1.274-0.16-1.262,1.842,0,2c4.275,0.536,8.147,1.51,11.039,4.928c2.613,3.089,3.813,7.2,3.174,11.192
							C112,81.583,113.926,82.125,114.129,80.855L114.129,80.855z"/>
					</g>
				</g>
				<g>
					<g>
						<path fill="#4D2D54" d="M114.101,80.715c3.007-5.774,1.709-13.925-2.695-18.691c-5.093-5.51-13.159-3.731-17.301,2.011
							c-4.479,6.209-3.192,14.278,2.942,18.809C102.435,86.823,110.424,87.056,114.101,80.715c0.485-0.837-0.811-1.593-1.295-0.757
							c-3.444,5.938-10.973,5.006-15.591,1.118c-5.335-4.492-5.695-12.101-0.984-17.287c10.519-11.581,21.878,5.985,16.575,16.169
							C112.361,80.813,113.655,81.572,114.101,80.715z"/>
					</g>
				</g>
				<g>
					<path fill="#E16D90" d="M101.135,74.765c2.36-5.902-0.984-18.495-7.213-18.387c-4.822,0.084-8.086,7.354-6.471,13.461
						c1.982,7.495,10.619,12.437,13.663,4.977C101.122,74.799,101.129,74.782,101.135,74.765z"/>
				</g>
				<g>
					<g>
						<path fill="#FFFFFF" d="M100.798,76.259c1.711-4.179,1.36-8.907-1.248-12.676c-2.472-3.573-7.194-4.657-11.307-4.537
							c-1.284,0.037-1.29,2.038,0,2c3.751-0.109,8,0.829,10.044,4.278c1.925,3.249,1.988,6.97,0.582,10.404
							C98.382,76.918,100.316,77.436,100.798,76.259L100.798,76.259z"/>
					</g>
				</g>
				<g>
					<g>
						<path fill="#4D2D54" d="M101.859,74.898c1.822-5.156,0.598-12.298-2.851-16.562c-3.317-4.1-8.366-3.178-10.947,1.234
							c-3.313,5.663-1.846,13.469,3.252,17.568C95.138,80.214,99.917,79.703,101.859,74.898c0.361-0.895-1.089-1.284-1.446-0.399
							c-2.4,5.94-8.53,2.162-10.824-1.616c-2.549-4.199-2.642-10.985,1.278-14.487c4.442-3.968,8.083,1.693,9.293,5.458
							c1.087,3.379,1.452,7.254,0.253,10.646C100.09,75.411,101.539,75.803,101.859,74.898z"/>
					</g>
				</g>
				<g>
					<path fill="#E16D90" d="M91.967,65.975c0.466-5.683-4.916-16.661-9.632-15.709c-3.65,0.737-4.495,7.787-1.89,13.111
						c3.197,6.534,10.882,9.838,11.518,2.647C91.964,66.008,91.966,65.992,91.967,65.975z"/>
				</g>
				<g>
					<g>
						<path fill="#FFFFFF" d="M79.838,53.792c3.192,0.812,5.647,3.132,7.373,5.868c1.323,2.096,3.519,6.597,1.555,8.956
							c-0.818,0.982,0.59,2.405,1.414,1.414c2.275-2.733,1.056-6.944-0.361-9.803c-1.911-3.853-5.193-7.282-9.449-8.364
							C79.122,51.546,78.589,53.474,79.838,53.792L79.838,53.792z"/>
					</g>
				</g>
				<g>
					<g>
						<path fill="#4D2D54" d="M92.717,65.909c0.237-5.082-2.265-11.36-6.06-14.782c-3.606-3.252-7.444-1.173-8.275,3.317
							c-1.043,5.636,1.732,12.252,6.709,15.208C88.822,71.869,92.34,70.333,92.717,65.909c0.082-0.962-1.419-0.956-1.5,0
							c-0.468,5.49-5.704,2.781-7.982,0.232c-2.848-3.187-4.666-8.593-3.037-12.758c2.14-5.468,6.653-0.264,8.248,2.562
							c1.677,2.97,2.932,6.514,2.771,9.964C91.172,66.874,92.672,66.872,92.717,65.909z"/>
					</g>
				</g>
				<g>
					<path fill="#E16D90" d="M82.257,58.12c-0.053-4.682-5.566-12.848-9.55-11.417c-3.084,1.108-3.248,6.953-0.579,10.914
						c3.276,4.862,10.157,6.474,10.129,0.544C82.257,58.147,82.257,58.133,82.257,58.12z"/>
				</g>
				<g>
					<g>
						<path fill="#FFFFFF" d="M70.635,49.25c6.733,0.604,8.785,5.808,8.282,11.954c-0.105,1.283,1.896,1.276,2,0
							c0.606-7.404-2.432-13.25-10.282-13.954C69.354,47.135,69.361,49.136,70.635,49.25L70.635,49.25z"/>
					</g>
				</g>
				<g>
					<g>
						<path fill="#4D2D54" d="M83.007,58.054c-0.19-4.187-2.903-9.091-6.462-11.36c-3.416-2.177-6.585-0.064-6.991,3.767
							c-0.5,4.717,2.374,9.686,6.735,11.563C79.699,63.492,83.039,62.048,83.007,58.054c-0.008-0.965-1.508-0.967-1.5,0
							c0.032,4.057-3.885,3.362-6.252,1.667c-2.914-2.086-4.805-6.004-4.149-9.601c0.769-4.22,4.349-2.839,6.434-0.592
							c2.08,2.243,3.827,5.422,3.968,8.525C81.55,59.015,83.051,59.02,83.007,58.054z"/>
					</g>
				</g>
				<g>
					<path fill="#E16D90" d="M74.916,52.167c-0.886-3.997-6.598-10.957-9.403-9.727c-2.171,0.952-1.243,5.942,1.524,9.319
						c3.396,4.144,8.977,5.505,7.886,0.443C74.921,52.19,74.918,52.178,74.916,52.167z"/>
				</g>
				<g>
					<g>
						<path fill="#FFFFFF" d="M66.217,45.368c3.264,2.224,6.089,5.381,5.718,9.57c-0.113,1.282,1.887,1.274,2,0
							c0.433-4.905-2.892-8.695-6.709-11.297C66.161,42.914,65.159,44.647,66.217,45.368L66.217,45.368z"/>
					</g>
				</g>
				<g>
					<g>
						<path fill="#4D2D54" d="M75.639,51.901c-0.906-3.616-3.69-7.451-6.812-9.484c-2.814-1.832-5.469-0.478-5.24,2.996
							c0.28,4.247,3.462,8.631,7.396,10.242C74.062,56.917,76.373,55.258,75.639,51.901c-0.206-0.943-1.652-0.544-1.446,0.399
							c0.873,3.993-3.583,1.725-5.118,0.409c-2.103-1.804-4.496-5.311-3.979-8.268c0.57-3.264,4.037-0.001,5.146,1.19
							c1.732,1.86,3.327,4.177,3.951,6.67C74.427,53.236,75.874,52.839,75.639,51.901z"/>
					</g>
				</g>
				<g>
					<path fill="#E16D90" d="M68.065,44.612c-1.416-3.146-7.391-7.697-9.547-6.046c-1.668,1.279-0.05,5.245,2.845,7.455
						c3.554,2.711,8.481,2.61,6.714-1.382C68.074,44.63,68.07,44.621,68.065,44.612z"/>
				</g>
				<g>
					<g>
						<path fill="#FFFFFF" d="M57.66,39.792c3.044,1.33,6.395,4.001,6.781,7.533c0.138,1.266,2.14,1.28,2,0
							c-0.466-4.27-3.987-7.606-7.771-9.259C57.502,37.555,56.482,39.278,57.66,39.792L57.66,39.792z"/>
					</g>
				</g>
				<g>
					<g>
						<path fill="#4D2D54" d="M68.713,44.167c-1.4-2.854-4.554-5.616-7.615-6.533c-2.878-0.862-4.585,1.246-3.742,4.019
							c1.044,3.434,4.447,6.352,8.003,6.835C68.277,48.885,69.942,46.921,68.713,44.167c-0.393-0.88-1.686-0.118-1.295,0.757
							c1.395,3.123-2.954,1.969-4.351,1.236c-1.977-1.038-4.453-3.476-4.467-5.903c-0.015-2.683,3.506-0.625,4.591,0.115
							c1.692,1.155,3.316,2.695,4.227,4.553C67.843,45.791,69.137,45.031,68.713,44.167z"/>
					</g>
				</g>
			</g>
		</g>
		<g>
			<path fill="#FBF5F9" d="M235.833,302.554c1.896,6.026,4.134,15.338-0.284,20.822c-6.949,8.627-17.059-0.402-22.096-5.999
				c-7.038-7.821-15.119-15.043-23.969-20.777c-9.777-6.335-25.849-12.142-30.094-23.877c-2.881-7.965-0.475-17.822,6.592-22.815
				c2.752-1.945,6.209-2.64,9.578-2.765c27.109-1.003,49.111,28.792,58.676,51.06C234.759,299.422,235.315,300.908,235.833,302.554z
				"/>
		</g>
		<path fill="#E16D90" d="M229.787,299.823c-1.752,0.959-2.225,3.214-2.513,5.191c0.173-1.189-3.333-1.187-3.889-1.045
			c-1.342,0.342-3.074,1.296-3.846,2.488c-0.395,0.609-1.213,3.702,0.127,3.941c-0.915-0.163-1.653-0.893-2.569-1.053
			c-0.776-0.136-1.569,0.162-2.235,0.583c-2.509,1.586-2.475,4.385-1.352,7.273c0.053,0.059,0.109,0.116,0.162,0.175
			c5.037,5.597,15.147,14.626,22.096,5.999c4.418-5.484,2.179-14.796,0.284-20.822c-0.149-0.475-0.302-0.931-0.456-1.377
			C234.14,299.418,232.237,298.483,229.787,299.823z"/>
		<g>
			<path fill="#F0D9E9" d="M159.435,272.723c4.245,11.734,20.317,17.541,30.094,23.877c8.85,5.735,16.931,12.957,23.969,20.777
				c5.037,5.597,15.147,14.626,22.097,5.999c0.804-0.999,1.383-2.126,1.788-3.336c-6.765,4.944-15.479-2.931-20.037-7.996
				c-7.038-7.821-15.119-15.043-23.969-20.777c-8.746-5.667-22.529-10.911-28.378-20.354"/>
		</g>
		<g>
			<g>
				<path fill="#FFDC8E" d="M99.775,100.462c-1.444,0.987-3.263,1.362-5.003,1.177c-1.676-0.179-3.182-0.68-4.879-0.442
					c-1.628,0.228-3.088,1.17-4.324,2.206c-1.556,1.303-2.943,2.849-4.728,3.817c-1.637,0.887-3.561,1.234-5.405,0.975
					c-1.337-0.188-2.609-0.68-3.856-1.198c-1.042-0.433-2.075-0.887-3.107-1.34c4.267-0.929,8.554-2.53,11.62-5.639
					c2.076-2.105,3.535-4.842,5.97-6.519c2.499-1.721,5.674-2.08,8.707-2.188c1.258-0.045,2.517-0.055,3.775-0.03
					c1.306,0.025,2.766,0.157,3.626,1.142C104.092,94.621,101.744,99.116,99.775,100.462z"/>
				<g>
					<path fill="#4D2D54" d="M99.397,99.815c-4.505,2.462-9.092-0.717-13.551,2.45c-1.857,1.318-3.325,3.292-5.382,4.307
						c-4.043,1.994-7.88,0.068-11.611-1.564c-0.06,0.457-0.119,0.914-0.179,1.371c5.666-1.352,10.135-3.559,13.88-8.085
						c2.989-3.613,5.845-5.725,10.693-6.154c1.361-0.121,3.041-0.414,4.356-0.116c4.514,1.024,4.45,5.497,1.643,7.908
						c-0.733,0.63,0.332,1.687,1.061,1.061c1.971-1.693,4.184-5.093,3.118-7.849c-1.187-3.068-5.049-2.667-7.71-2.604
						c-4.076,0.096-8.153,0.549-11.324,3.347c-1.855,1.636-3.07,3.872-4.827,5.6c-3.107,3.057-7.146,4.458-11.289,5.446
						c-0.584,0.139-0.782,1.107-0.179,1.371c4.602,2.012,9.06,4.055,13.762,1.153c1.145-0.707,2.072-1.654,3.099-2.513
						c2.979-2.492,5.803-2.369,9.617-2.581c2.104-0.117,3.642-0.193,5.581-1.253C101.001,100.647,100.245,99.351,99.397,99.815z"/>
				</g>
			</g>
			<g>
				<path fill="#D1A7F1" d="M99.419,95.778c-3.524,1.64-6.536-1.72-10.125-1.022c-1.439,0.28-2.654,1.225-3.717,2.234
					c-1.77,1.68-3.284,3.609-4.994,5.349c-1.71,1.741-3.672,3.323-5.993,4.077c-2.32,0.754-5.056,0.558-6.951-0.979
					c2.072-0.057,4.117-0.855,5.679-2.217c2.199-1.917,3.323-4.746,4.831-7.244c1.172-1.941,2.601-3.714,4.094-5.42
					c0.565-0.646,1.142-1.285,1.802-1.833c0.769-0.639,1.641-1.146,2.545-1.575c1.901-0.9,3.962-1.459,6.057-1.644
					c3.137-0.277,6.501,0.374,8.837,2.484c1.125,1.016,1.97,2.501,1.274,3.957C101.985,93.562,101.11,94.991,99.419,95.778z"/>
				<g>
					<path fill="#4D2D54" d="M99.219,95.055c-4.759,1.458-8.356-2.844-12.905,0.323c-5.437,3.785-10.051,14.546-18.297,9.413
						c-0.126,0.466-0.252,0.932-0.379,1.398c5.916-0.686,7.978-4.407,10.793-9.197c2.323-3.954,5.373-8.059,9.811-9.729
						c1.892-0.712,3.958-1.116,5.985-1.065c2.012-0.004,3.888,0.497,5.629,1.505c2.716,3.214,2.444,5.69-0.817,7.429
						c-0.817,0.51-0.065,1.809,0.757,1.295c8.407-5.249,0.833-11.939-6.36-11.7c-4.242,0.142-8.36,1.731-11.292,4.824
						c-4.649,4.904-7.02,14.27-14.506,15.138c-0.71,0.082-1.056,0.976-0.378,1.398c4.48,2.788,9.1,1.082,12.796-2.196
						c3.968-3.519,6.47-9.147,12.889-7.962c2.545,0.47,4.075,1.369,6.673,0.573C100.538,96.219,100.146,94.771,99.219,95.055z"/>
				</g>
			</g>
			<g>
				<path fill="#8190EB" d="M95.004,82.323c-1.806-0.101-3.655,0.198-5.322,0.812c-5.168,1.902-9.208,6.251-11.98,10.886
					c-1.446,2.417-2.504,5.073-4.195,7.325c-1.691,2.253-4.239,4.125-7.054,4.029c1.739,1.021,4.01,1.069,5.791,0.121
					c1.198-0.637,2.137-1.661,3.025-2.687c2.042-2.356,3.908-4.84,5.717-7.376c1.742-2.442,3.835-4.943,6.616-6.226
					c2.682-1.236,6.437-0.849,9.144,0.175c1.021,0.386,2.009,0.908,3.09,1.063s2.326-0.159,2.89-1.093
					c0.51-0.844,0.401-1.541,0.016-2.449C101.5,83.974,97.98,82.488,95.004,82.323z"/>
				<g>
					<path fill="#4D2D54" d="M95.004,81.573c-5.503,0.089-10.061,2.556-13.795,6.528c-4.663,4.959-7.091,15.921-14.755,16.525
						c-0.881,0.069-0.972,1.149-0.199,1.473c5.541,2.327,8.71-1.572,11.919-5.642c2.088-2.648,3.85-5.67,6.263-8.04
						c4.777-4.692,8.844-2.727,14.418-1.47c2.305,0.52,4.974-0.131,4.94-2.994C103.745,83.776,98.23,81.95,95.004,81.573
						c-0.957-0.112-0.949,1.389,0,1.5c1.7,0.105,3.277,0.605,4.73,1.497c0.52,4.278-0.409,5.641-2.787,4.089
						c-1.064-0.167-2.091-0.645-3.177-0.802c-2.776-0.4-5.478-0.066-7.88,1.44c-6.038,3.786-10.786,18.904-19.237,15.355
						c-0.066,0.491-0.133,0.982-0.199,1.473c4.957-0.39,7.645-3.873,9.887-8.004c4.04-7.442,9.291-14.896,18.663-15.048
						C95.969,83.057,95.972,81.557,95.004,81.573z"/>
				</g>
			</g>
		</g>
		<g>
			<g>
				<path fill="#4D2D54" d="M187.441,121.583c10.404-10.505,26.231-15.693,40.091-19.847c6.917-2.073,14.072-3.9,21.223-4.946
					c7.167-1.049,28.505-1.84,20.971,11.362c-3.813,6.681-12.955,7.421-19.46,10.088c-5.778,2.369-11.134,5.602-16.262,9.143
					c-10.96,7.566-20.85,17.097-32.699,23.267c-0.856,0.446-0.099,1.741,0.757,1.295c15.129-7.879,26.969-20.867,41.967-29.062
					c4.39-2.399,8.957-4.136,13.712-5.644c3.123-0.99,6.355-1.969,9.089-3.839c3.731-2.552,6.98-7.669,5.685-12.351
					c-1.614-5.832-9.941-6.322-14.892-6.413c-8.472-0.155-16.959,2.027-25.093,4.144c-15.689,4.082-34.47,9.95-46.148,21.742
					C185.7,121.209,186.76,122.27,187.441,121.583L187.441,121.583z"/>
			</g>
		</g>
		<g>
			<g>
				<path fill="#4D2D54" d="M107.706,177.698c8.853-7.156,18.338-13.384,26.673-21.201c5.04-4.726,16.275-14.859,11.743-22.926
					c-3.551-6.322-11.886-4.558-17.513-2.767c-10.41,3.312-19.776,9.412-28.608,15.698c-6.479,4.612-14.463,9.433-17.71,17.064
					c-2.927,6.877-1.938,14.459,4.07,19.151c9.645,7.532,22.898,3.344,33.812,1.423c0.949-0.167,0.547-1.613-0.399-1.446
					c-9.785,1.723-21.167,5.403-30.388,0.273c-6.291-3.5-8.332-10.139-6.375-16.931c2.407-8.354,11.089-13.499,17.747-18.238
					c7.422-5.283,15.14-10.333,23.592-13.815c5.721-2.357,20.04-7.218,21.203,2.633c1.006,8.516-10.531,17.467-16.099,22.296
					c-7.296,6.327-15.315,11.667-22.81,17.725C105.895,177.245,106.962,178.3,107.706,177.698L107.706,177.698z"/>
			</g>
		</g>
		<g>
			<g>
				<g>
					<g>
						<path fill="#4D2D54" d="M121.009,112.77c0.678,3.933,4.036,6.158,7.947,5.555c4.362-0.673,7.503-4.124,8.221-8.391
							c0.159-0.944-1.286-1.35-1.446-0.399c-0.536,3.179-2.428,5.877-5.565,6.953c-3.511,1.204-7.045-0.258-7.71-4.117
							C122.292,111.421,120.846,111.824,121.009,112.77L121.009,112.77z"/>
					</g>
				</g>
				<g>
					<g>
						<path fill="#4D2D54" d="M124.538,116.944c-0.52,1.27-1.041,2.539-1.561,3.809c-0.366,0.893,1.085,1.281,1.446,0.399
							c0.52-1.27,1.041-2.539,1.561-3.809C126.35,116.45,124.9,116.061,124.538,116.944L124.538,116.944z"/>
					</g>
				</g>
				<g>
					<g>
						<path fill="#4D2D54" d="M128.867,117.889c0.142,0.993,0.284,1.986,0.426,2.979c0.058,0.404,0.567,0.618,0.923,0.524
							c0.432-0.114,0.581-0.523,0.524-0.923c-0.142-0.993-0.284-1.986-0.426-2.979c-0.058-0.404-0.567-0.618-0.922-0.524
							C128.959,117.08,128.81,117.49,128.867,117.889L128.867,117.889z"/>
					</g>
				</g>
				<g>
					<g>
						<path fill="#4D2D54" d="M132.985,115.647c0.587,1.067,1.174,2.134,1.76,3.2c0.465,0.846,1.761,0.09,1.295-0.757
							c-0.587-1.067-1.174-2.134-1.76-3.2C133.815,114.044,132.519,114.8,132.985,115.647L132.985,115.647z"/>
					</g>
				</g>
			</g>
		</g>
		<g>
			<g>
				<g>
					<g>
						<path fill="#4D2D54" d="M97.52,118.336c0.556,3.228,3.341,5.05,6.543,4.549c3.536-0.553,6.099-3.354,6.683-6.819
							c0.159-0.944-1.286-1.35-1.447-0.399c-0.42,2.493-1.886,4.61-4.348,5.459c-2.737,0.943-5.467-0.182-5.985-3.189
							C98.802,116.988,97.357,117.391,97.52,118.336L97.52,118.336z"/>
					</g>
				</g>
				<g>
					<g>
						<path fill="#4D2D54" d="M100.343,121.597c-0.416,1.016-0.833,2.032-1.249,3.048c-0.366,0.893,1.085,1.281,1.446,0.399
							c0.416-1.016,0.833-2.032,1.249-3.048C102.156,121.103,100.705,120.714,100.343,121.597L100.343,121.597z"/>
					</g>
				</g>
				<g>
					<g>
						<path fill="#4D2D54" d="M103.807,122.432c0.114,0.795,0.227,1.589,0.341,2.384c0.057,0.4,0.568,0.623,0.923,0.524
							c0.431-0.121,0.582-0.518,0.524-0.923c-0.114-0.794-0.227-1.589-0.341-2.384c-0.057-0.4-0.568-0.623-0.923-0.524
							C103.9,121.631,103.749,122.028,103.807,122.432L103.807,122.432z"/>
					</g>
				</g>
				<g>
					<g>
						<path fill="#4D2D54" d="M107.117,120.674c0.469,0.854,0.939,1.707,1.409,2.561c0.465,0.846,1.761,0.09,1.295-0.757
							c-0.469-0.854-0.939-1.707-1.409-2.561C107.947,119.071,106.651,119.827,107.117,120.674L107.117,120.674z"/>
					</g>
				</g>
			</g>
		</g>
		<g>
			<g>
				<path fill="#4D2D54" d="M198.544,254.497c12.948,8.207,22.759,20.681,30.092,33.986c3.364,6.104,6.328,12.461,7.851,19.294
					c1.75,7.855,0.067,22.341-11.832,17.451c-6.447-2.649-10.747-8.71-15.515-13.498c-5.45-5.473-11.392-10.503-17.81-14.81
					c-10.566-7.091-26.09-11.625-31.217-24.398c-0.355-0.885-1.807-0.499-1.446,0.399c4.224,10.522,15.211,15.662,24.536,20.853
					c6.597,3.673,12.722,7.988,18.415,12.961c5.539,4.838,10.094,10.697,15.655,15.468c6.851,5.878,17.9,8.572,21.002-2.709
					c3.001-10.913-3.861-23.883-9.067-33.062c-7.385-13.02-17.161-25.152-29.906-33.23
					C198.483,252.684,197.73,253.981,198.544,254.497L198.544,254.497z"/>
			</g>
		</g>
		<g>
			<g>
				<path fill="#4D2D54" d="M132.792,171.937c-0.072,0.284-0.421,1.61-0.908,1.592c-0.557-0.021-0.398-1.436-0.326-1.778
					c0.084-0.4,0.362-1.469,0.837-1.56C133.034,170.07,132.858,171.567,132.792,171.937c-0.17,0.944,1.276,1.349,1.446,0.399
					c0.222-1.236,0.205-3.404-1.43-3.678c-1.493-0.25-2.429,1.482-2.697,2.695c-0.268,1.208-0.187,3.297,1.33,3.665
					c1.555,0.377,2.491-1.475,2.797-2.681C134.476,171.4,133.03,171,132.792,171.937z"/>
			</g>
		</g>
		<g>
			<g>
				<path fill="#4D2D54" d="M114.66,177.751c0.769,0.947,2.279,2.091,3.523,1.272c1.364-0.898,0.535-2.935-0.226-3.927
					c-0.741-0.966-2.258-2.151-3.522-1.386c-1.412,0.854-0.626,2.87,0.108,3.888c0.559,0.776,1.861,0.028,1.295-0.757
					c-0.173-0.24-1.065-1.55-0.635-1.851c0.434-0.303,1.378,0.767,1.575,1.025c0.18,0.236,0.971,1.444,0.577,1.764
					c-0.423,0.343-1.446-0.858-1.634-1.09C115.112,175.94,114.057,177.007,114.66,177.751z"/>
			</g>
		</g>
		<g>
			<g>
				<path fill="#FBF5F9" d="M123.861,62.268c0.234-3.514,0.476-7.071,1.572-10.417c1.096-3.347,3.157-6.515,6.241-8.215
					c0.577-0.318,1.216-0.588,1.873-0.536c0.547,0.043,1.052,0.307,1.511,0.608c2.151,1.415,3.562,3.716,4.599,6.073
					c1.406,3.196,2.259,6.702,1.944,10.179c-0.316,3.477-1.896,6.92-4.663,9.049"/>
				<g>
					<path fill="#4D2D54" d="M124.611,62.268c0.315-4.569,3.777-24.879,12.036-15.968c5.498,5.932,5.897,16.724-0.239,22.18
						c-0.723,0.643,0.341,1.701,1.061,1.061c3.781-3.362,5.372-8.027,4.831-13.054c-0.48-4.457-2.61-10.945-6.788-13.366
						c-3.081-1.786-5.847,0.552-7.833,2.955c-3.727,4.511-4.182,10.605-4.568,16.193C123.045,63.231,124.545,63.227,124.611,62.268
						L124.611,62.268z"/>
				</g>
			</g>
			<path fill="#FF9AA5" d="M128.468,62.103c-0.16,1.118-0.129,2.253-0.098,3.381c0.006,0.222,0.013,0.447,0.08,0.659
				c0.095,0.301,0.305,0.552,0.532,0.772c0.779,0.758,1.817,1.246,2.899,1.362c0.192,0.021,0.39,0.029,0.575-0.026
				c0.237-0.07,0.431-0.238,0.603-0.415c0.688-0.708,1.135-1.626,1.386-2.581c0.25-0.955,0.313-1.95,0.307-2.937
				c-0.008-1.251-0.128-2.524-0.601-3.682c-0.436-1.068-1.522-2.647-2.809-2.757c-0.64-0.055-0.873,0.812-1.112,1.277
				c-0.375,0.731-0.728,1.474-1.025,2.241C128.865,60.271,128.601,61.175,128.468,62.103z"/>
			<g>
				<g>
					<path fill="#4D2D54" d="M133.661,68.099c1.929-3.662,3.887-11.485-1.914-12.862c-0.939-0.223-1.339,1.223-0.399,1.446
						c2.435,0.578,3.026,3.79,2.777,5.911c-0.2,1.7-0.969,3.248-1.759,4.747C131.916,68.195,133.21,68.954,133.661,68.099
						L133.661,68.099z"/>
				</g>
			</g>
			<g>
				<g>
					<path fill="#4D2D54" d="M129.011,65.466c-0.39-5.681,2.34-10.957,7.243-13.87c0.829-0.493,0.076-1.79-0.757-1.295
						c-5.334,3.17-8.412,8.965-7.986,15.165C127.577,66.424,129.077,66.431,129.011,65.466L129.011,65.466z"/>
				</g>
			</g>
		</g>
	</g>
	<g>
		<g>
			<path fill="#FFFFFF" d="M240.331,71.532c-4.969-4.969-9.034-4.969-14.003,0c4.969-4.969,4.969-9.034,0-14.003
				c4.969,4.969,9.034,4.969,14.003,0C235.362,62.497,235.362,66.563,240.331,71.532z"/>
		</g>
		<g>
			<path fill="#FFFFFF" d="M297.673,197.356c-4.673-4.673-8.496-4.673-13.169,0c4.673-4.673,4.673-8.496,0-13.169
				c4.673,4.673,8.496,4.673,13.169,0C293.001,188.86,293.001,192.683,297.673,197.356z"/>
		</g>
		<g>
			<path fill="#FFFFFF" d="M239.74,172.769c-4.714-4.714-8.57-4.714-13.284,0c4.714-4.714,4.714-8.57,0-13.284
				c4.714,4.714,8.57,4.714,13.284,0C235.026,164.199,235.026,168.055,239.74,172.769z"/>
		</g>
		<g>
			<path fill="#FFFFFF" d="M40.85,228.133c-4.714-4.714-8.57-4.714-13.284,0c4.714-4.714,4.714-8.571,0-13.284
				c4.714,4.714,8.571,4.714,13.284,0C36.137,219.563,36.137,223.42,40.85,228.133z"/>
		</g>
		<g>
			<path fill="#FFFFFF" d="M59.711,163.155c-4.714-4.714-8.571-4.714-13.284,0c4.714-4.714,4.714-8.571,0-13.284
				c4.714,4.714,8.57,4.714,13.284,0C54.997,154.585,54.997,158.441,59.711,163.155z"/>
		</g>
		<g>
			<path fill="#FFFFFF" d="M108.537,13.284c-4.714-4.714-8.571-4.714-13.284,0c4.714-4.714,4.714-8.57,0-13.284
				c4.714,4.714,8.571,4.714,13.284,0C103.823,4.714,103.823,8.571,108.537,13.284z"/>
		</g>
		<g>
			<path fill="#FFFFFF" d="M317.012,94.006c-4.714-4.714-8.571-4.714-13.284,0c4.714-4.714,4.714-8.57,0-13.284
				c4.714,4.714,8.571,4.714,13.284,0C312.298,85.435,312.298,89.292,317.012,94.006z"/>
		</g>
		<g>
			<path fill="#FFFFFF" d="M301.979,290.289c-4.714-4.714-8.57-4.714-13.284,0c4.714-4.714,4.714-8.571,0-13.284
				c4.714,4.714,8.571,4.714,13.284,0C297.265,281.718,297.265,285.575,301.979,290.289z"/>
		</g>
		<g>
			<path fill="#FFFFFF" d="M176.468,34.803c-2.925-2.925-5.317-2.925-8.242,0c2.924-2.925,2.924-5.317,0-8.242
				c2.924,2.925,5.317,2.925,8.242,0C173.543,29.485,173.543,31.878,176.468,34.803z"/>
		</g>
		<g>
			<path fill="#FFFFFF" d="M91.155,218.491c-2.924-2.924-5.317-2.924-8.242,0c2.925-2.924,2.925-5.317,0-8.242
				c2.925,2.924,5.317,2.924,8.242,0C88.23,213.173,88.23,215.566,91.155,218.491z"/>
		</g>
		<g>
			<path fill="#FFFFFF" d="M52.904,74.203c-2.924-2.925-5.317-2.925-8.242,0c2.924-2.925,2.924-5.317,0-8.242
				c2.924,2.925,5.317,2.925,8.242,0C49.98,68.885,49.98,71.278,52.904,74.203z"/>
		</g>
		<path fill="#FCDADE" stroke="#FFFFFF" stroke-miterlimit="10" d="M35.622,128.227l-5.521-0.925
			c-0.295-0.049-0.594,0.049-0.802,0.264l-3.892,4.024c-0.523,0.54-1.438,0.247-1.549-0.497l-0.826-5.536
			c-0.044-0.295-0.231-0.55-0.499-0.681l-5.029-2.458c-0.676-0.33-0.679-1.292-0.006-1.627l5.01-2.497
			c0.267-0.133,0.452-0.389,0.494-0.685l0.783-5.543c0.105-0.745,1.019-1.045,1.546-0.509l3.923,3.993
			c0.209,0.213,0.51,0.309,0.804,0.258l5.514-0.968c0.741-0.13,1.309,0.646,0.962,1.313l-2.586,4.965
			c-0.138,0.265-0.137,0.581,0.003,0.844l2.624,4.944C36.926,127.571,36.364,128.351,35.622,128.227z"/>
		<path fill="#FCDADE" stroke="#FFFFFF" stroke-miterlimit="10" d="M287.693,153.557l-3.651-4.243
			c-0.195-0.226-0.489-0.342-0.785-0.31l-5.565,0.603c-0.748,0.081-1.263-0.73-0.873-1.373l2.907-4.784
			c0.155-0.255,0.175-0.57,0.052-0.843l-2.293-5.106c-0.308-0.686,0.304-1.427,1.036-1.255l5.448,1.286
			c0.291,0.069,0.596-0.01,0.818-0.211l4.148-3.759c0.557-0.505,1.451-0.152,1.513,0.598l0.46,5.579
			c0.025,0.298,0.194,0.564,0.453,0.713l4.857,2.783c0.652,0.374,0.593,1.334-0.101,1.624l-5.164,2.162
			c-0.275,0.115-0.477,0.359-0.538,0.651l-1.146,5.479C289.115,153.887,288.184,154.127,287.693,153.557z"/>
		<path fill="#FCDADE" stroke="#FFFFFF" stroke-miterlimit="10" d="M59.202,266.715l-5.552,0.712
			c-0.296,0.038-0.555,0.219-0.691,0.485l-2.561,4.977c-0.344,0.669-1.306,0.652-1.627-0.027l-2.393-5.061
			c-0.128-0.27-0.38-0.46-0.675-0.508l-5.525-0.898c-0.742-0.121-1.024-1.04-0.477-1.556l4.073-3.84
			c0.217-0.205,0.32-0.503,0.274-0.798l-0.854-5.532c-0.115-0.743,0.673-1.295,1.332-0.934l4.91,2.688
			c0.262,0.143,0.578,0.149,0.844,0.014l4.998-2.521c0.671-0.339,1.44,0.24,1.3,0.978l-1.039,5.5
			c-0.055,0.293,0.037,0.595,0.248,0.807l3.942,3.974C60.261,265.71,59.948,266.619,59.202,266.715z"/>
		<g>
			<g>
				<g>
					<path fill="#FFFFFF" d="M10.24,67.758c0,1.963,0,3.927,0,5.89c0,1.287,2,1.289,2,0c0-1.963,0-3.926,0-5.89
						C12.24,66.471,10.24,66.469,10.24,67.758L10.24,67.758z"/>
				</g>
			</g>
			<g>
				<g>
					<path fill="#FFFFFF" d="M0.558,74.412c1.7,0.982,3.4,1.963,5.101,2.945c1.117,0.645,2.125-1.083,1.01-1.727
						c-1.7-0.982-3.401-1.963-5.101-2.945C0.451,72.041-0.557,73.768,0.558,74.412L0.558,74.412z"/>
				</g>
			</g>
			<g>
				<g>
					<path fill="#FFFFFF" d="M1.494,86.121c1.7-0.982,3.4-1.963,5.101-2.945c1.114-0.643,0.108-2.372-1.009-1.727
						c-1.7,0.982-3.4,1.963-5.101,2.945C-0.629,85.037,0.377,86.766,1.494,86.121L1.494,86.121z"/>
				</g>
			</g>
			<g>
				<g>
					<path fill="#FFFFFF" d="M12.093,91.175c0-1.963,0-3.926,0-5.89c0-1.287-2-1.289-2,0c0,1.963,0,3.927,0,5.89
						C10.093,92.462,12.093,92.464,12.093,91.175L12.093,91.175z"/>
				</g>
			</g>
			<g>
				<g>
					<path fill="#FFFFFF" d="M21.774,84.521c-1.7-0.982-3.4-1.963-5.101-2.945c-1.117-0.645-2.125,1.083-1.01,1.727
						c1.7,0.982,3.4,1.963,5.101,2.945C21.882,86.893,22.89,85.165,21.774,84.521L21.774,84.521z"/>
				</g>
			</g>
			<g>
				<g>
					<path fill="#FFFFFF" d="M20.838,72.813c-1.7,0.982-3.4,1.963-5.101,2.945c-1.114,0.643-0.108,2.372,1.009,1.727
						c1.7-0.982,3.401-1.963,5.101-2.945C22.962,73.896,21.956,72.167,20.838,72.813L20.838,72.813z"/>
				</g>
			</g>
		</g>
		<g>
			<g>
				<g>
					<path fill="#FFFFFF" d="M279.209,47.615c0,1.963,0,3.926,0,5.89c0,1.287,2,1.289,2,0c0-1.963,0-3.927,0-5.89
						C281.209,46.328,279.209,46.326,279.209,47.615L279.209,47.615z"/>
				</g>
			</g>
			<g>
				<g>
					<path fill="#FFFFFF" d="M269.527,54.269c1.7,0.982,3.4,1.963,5.101,2.945c1.117,0.645,2.125-1.083,1.01-1.727
						c-1.7-0.982-3.401-1.963-5.101-2.945C269.42,51.898,268.412,53.625,269.527,54.269L269.527,54.269z"/>
				</g>
			</g>
			<g>
				<g>
					<path fill="#FFFFFF" d="M270.463,65.978c1.7-0.982,3.4-1.963,5.101-2.945c1.114-0.643,0.108-2.372-1.009-1.727
						c-1.7,0.982-3.4,1.963-5.101,2.945C268.34,64.894,269.346,66.623,270.463,65.978L270.463,65.978z"/>
				</g>
			</g>
			<g>
				<g>
					<path fill="#FFFFFF" d="M281.062,71.033c0-1.963,0-3.927,0-5.89c0-1.287-2-1.289-2,0c0,1.963,0,3.926,0,5.89
						C279.062,72.319,281.062,72.322,281.062,71.033L281.062,71.033z"/>
				</g>
			</g>
			<g>
				<g>
					<path fill="#FFFFFF" d="M290.743,64.378c-1.7-0.982-3.401-1.963-5.101-2.945c-1.117-0.645-2.125,1.083-1.009,1.727
						c1.7,0.982,3.4,1.963,5.101,2.945C290.851,66.75,291.859,65.022,290.743,64.378L290.743,64.378z"/>
				</g>
			</g>
			<g>
				<g>
					<path fill="#FFFFFF" d="M289.807,52.67c-1.7,0.982-3.401,1.963-5.101,2.945c-1.114,0.643-0.108,2.372,1.009,1.727
						c1.7-0.982,3.401-1.963,5.101-2.945C291.931,53.753,290.925,52.024,289.807,52.67L289.807,52.67z"/>
				</g>
			</g>
		</g>
		<g>
			<g>
				<g>
					<path fill="#FFFFFF" d="M328.171,232.667c-1.388,1.388-2.776,2.776-4.165,4.165c-0.911,0.911,0.502,2.326,1.414,1.414
						c1.388-1.388,2.776-2.777,4.165-4.165C330.496,233.17,329.082,231.756,328.171,232.667L328.171,232.667z"/>
				</g>
			</g>
			<g>
				<g>
					<path fill="#FFFFFF" d="M316.623,230.539c0.508,1.896,1.016,3.793,1.524,5.689c0.333,1.242,2.263,0.715,1.928-0.532
						c-0.508-1.896-1.016-3.793-1.524-5.689C318.219,228.765,316.289,229.292,316.623,230.539L316.623,230.539z"/>
				</g>
			</g>
			<g>
				<g>
					<path fill="#FFFFFF" d="M308.99,239.465c1.896,0.508,3.793,1.016,5.689,1.524c1.245,0.333,1.776-1.595,0.532-1.928
						c-1.896-0.508-3.793-1.016-5.689-1.524C308.277,237.203,307.746,239.132,308.99,239.465L308.99,239.465z"/>
				</g>
			</g>
			<g>
				<g>
					<path fill="#FFFFFF" d="M312.922,250.536c1.388-1.388,2.777-2.776,4.165-4.165c0.911-0.911-0.503-2.326-1.414-1.414
						c-1.388,1.388-2.776,2.777-4.165,4.165C310.597,250.033,312.011,251.448,312.922,250.536L312.922,250.536z"/>
				</g>
			</g>
			<g>
				<g>
					<path fill="#FFFFFF" d="M324.47,252.665c-0.508-1.896-1.016-3.793-1.524-5.689c-0.333-1.242-2.263-0.715-1.929,0.532
						c0.508,1.896,1.016,3.793,1.524,5.689C322.875,254.438,324.804,253.911,324.47,252.665L324.47,252.665z"/>
				</g>
			</g>
			<g>
				<g>
					<path fill="#FFFFFF" d="M332.103,243.739c-1.896-0.508-3.793-1.016-5.689-1.524c-1.245-0.333-1.776,1.595-0.532,1.929
						c1.896,0.508,3.793,1.016,5.689,1.524C332.816,246.001,333.347,244.072,332.103,243.739L332.103,243.739z"/>
				</g>
			</g>
		</g>
	</g>
</g>
<g id="DESIGNED_BY_FREEPIK">
</g>
</svg>
