<?xml version="1.0" encoding="utf-8"?>
<!-- Generator: Adobe Illustrator 17.0.0, SVG Export Plug-In . SVG Version: 6.00 Build 0)  -->
<!DOCTYPE svg PUBLIC "-//W3C//DTD SVG 1.1//EN" "http://www.w3.org/Graphics/SVG/1.1/DTD/svg11.dtd">
<svg version="1.1" id="Layer_1" xmlns="http://www.w3.org/2000/svg" xmlns:xlink="http://www.w3.org/1999/xlink" x="0px" y="0px"
	 width="496px" height="496px" viewBox="0 0 496 496" enable-background="new 0 0 496 496" xml:space="preserve">
<path fill="#2459FE" d="M296,416h16v16h-16V416z"/>
<path fill="#2459FE" d="M360,416h16v16h-16V416z"/>
<path fill="#2459FE" d="M480,216h-64v-96c0-13.23-10.77-24-24-24s-24,10.77-24,24v41.473c-2.512-0.898-5.184-1.473-8-1.473
	c-6.168,0-11.742,2.406-16,6.238c-4.258-3.84-9.832-6.238-16-6.238c-2.816,0-5.488,0.574-8,1.473V120c0-13.23-10.77-24-24-24
	s-24,10.77-24,24v72h-3.719c-5.359,0-10.336,2.664-13.313,7.129L243.719,216h-29.293c-6.355,0-12.25-3.16-15.77-8.441
	C192.168,197.824,181.297,192,169.574,192H90.945C71.68,192,56,207.68,56,226.945v58.109C56,304.32,71.68,320,90.953,320h78.633
	c11.711,0,22.582-5.824,29.078-15.559c3.52-5.281,9.414-8.441,15.77-8.441h26.016c0.383,2.406,1,4.777,2.086,6.953l28.625,57.246
	c0.543,1.105,0.84,2.336,0.84,3.578V384h-16v11.473L208.449,424L256,452.527V464h16v32h128v-32h16v-11.473L463.551,424L416,395.473
	V384h-16v-20.922c0-1.023,0.191-2.016,0.574-2.965l13.707-34.273c1.145-2.848,1.719-5.848,1.719-8.918V296h64
	c8.824,0,16-7.176,16-16v-48C496,223.176,488.824,216,480,216z M104,280h16v24h-16V280z M104,248h16v16h-16V248z M88,264H72v-16h16
	V264z M104,208h16v24h-16V208z M152,264h-16v-16h16V264z M136,280h16v24h-16V280z M152,232h-16v-24h16V232z M88,208.297V232H72
	v-5.055C72,217.512,78.961,209.727,88,208.297z M72,285.055V280h16v23.703C78.961,302.273,72,294.488,72,285.055z M185.344,295.559
	c-3.52,5.281-9.414,8.441-15.77,8.441H168v-96h1.574c6.355,0,12.25,3.16,15.77,8.441c5.281,7.926,13.48,13.191,22.656,14.902V248h16
	v-16h16v48h-16v-16h-16v16.656C198.824,282.367,190.625,287.641,185.344,295.559z M325.488,271.742
	c0.84,0.09,1.656,0.258,2.512,0.258c6.168,0,11.742-2.406,16-6.238c4.258,3.84,9.832,6.238,16,6.238c13.23,0,24-10.77,24-24v-16h32
	v48h-86.527C328.289,277.176,326.977,274.414,325.488,271.742z M336,248c0,4.414-3.594,8-8,8s-8-3.586-8-8v-8h16V248z M304,246.832
	c-1.602-1.238-3.145-2.543-4.84-3.68L294.426,240H304V246.832z M432,232h16v48h-16V232z M384,120c0-4.414,3.594-8,8-8s8,3.586,8,8
	v96h-16V120z M360,176c4.406,0,8,3.586,8,8v64c0,4.414-3.594,8-8,8s-8-3.586-8-8v-14.23c0.313-0.281,0.672-0.496,0.977-0.801
	C357.504,228.441,360,222.406,360,216c0-7.063-3.129-13.359-8-17.762V184C352,179.586,355.594,176,360,176z M328,176
	c4.406,0,8,3.586,8,8v8h-16v-8C320,179.586,323.594,176,328,176z M288,120c0-4.414,3.594-8,8-8s8,3.586,8,8v72h-16V120z
	 M239.551,424L256,414.129v19.742L239.551,424z M384,480h-96v-16h96V480z M400,448H272v-48h128V448z M432.449,424L416,433.871
	v-19.742L432.449,424z M400,316.922c0,1.023-0.191,2.016-0.574,2.965l-13.707,34.273c-1.145,2.848-1.719,5.848-1.719,8.918V384h-96
	v-20.223c0-3.707-0.871-7.418-2.527-10.73l-28.625-57.246c-0.551-1.105-0.848-2.336-0.848-3.578v-65.809L268.281,208H336
	c4.406,0,8,3.586,8,8c0,2.145-0.832,4.152-2.336,5.656c-1.512,1.512-3.52,2.344-5.664,2.344h-64v20.281l18.281,12.184
	C308.887,268.871,320,289.633,320,312h16c0-5.449-0.68-10.777-1.703-16H400V316.922z M480,280h-16v-48h16V280z"/>
<path fill="#2459FE" d="M135.023,92.281C140.816,86.496,144,78.816,144,70.625C144,53.742,130.266,40,113.367,40
	c-8.176,0-15.863,3.184-21.656,8.969L88,52.688l-3.719-3.719C78.496,43.184,70.809,40,62.633,40C45.734,40,32,53.742,32,70.625
	c0,8.184,3.184,15.871,8.977,21.656L88,139.313L135.023,92.281z M48,70.625C48,62.559,54.559,56,62.633,56
	c3.902,0,7.582,1.52,10.344,4.281L88,75.313l15.023-15.031c2.77-2.762,6.441-4.281,10.344-4.281C121.441,56,128,62.559,128,70.625
	c0,3.848-1.559,7.613-4.289,10.344L88,116.688L52.281,80.969C49.559,78.238,48,74.48,48,70.625z"/>
<path fill="#2459FE" d="M176,88c0-48.52-39.48-88-88-88S0,39.48,0,88s39.48,88,88,88S176,136.52,176,88z M16,88
	c0-39.703,32.305-72,72-72s72,32.297,72,72s-32.305,72-72,72S16,127.703,16,88z"/>
</svg>
