<?xml version="1.0" encoding="utf-8"?>
<!-- Generator: Adobe Illustrator 17.0.0, SVG Export Plug-In . SVG Version: 6.00 Build 0)  -->
<!DOCTYPE svg PUBLIC "-//W3C//DTD SVG 1.1//EN" "http://www.w3.org/Graphics/SVG/1.1/DTD/svg11.dtd">
<svg version="1.1" id="Capa_1" xmlns="http://www.w3.org/2000/svg" xmlns:xlink="http://www.w3.org/1999/xlink" x="0px" y="0px"
	 width="200px" height="200px" viewBox="0 25 200 200" enable-background="new 0 25 200 200" xml:space="preserve">
<g>
	<g>
		<path fill="#2459FE" d="M150.229,145.761c0.7-1.561,1.435-3.103,2.216-4.632h16.91c16.897,0,30.645-13.748,30.645-30.645
			s-13.748-30.645-30.645-30.645h-2.348c-2.358-5.126-10.519-9.219-24.397-12.184l-1.348,6.306
			c14.59,3.123,20.029,7.242,20.029,9.103c0,4.377-21.632,12.903-61.29,12.903s-61.29-8.526-61.29-12.903
			c0-1.861,5.439-5.981,20.029-9.103l-1.348-6.306c-16.677,3.565-25.132,8.752-25.132,15.41c0,29.016,7.035,42.348,13.239,54.106
			c0.626,1.187,1.242,2.355,1.842,3.523c-6.303-3.79-13.655-6.016-21.532-6.016h-9.677v9.677c0,4.026,0.603,7.91,1.668,11.6
			C3.094,163.358,0,171.271,0,176.613c0,11.013,14.39,22.461,41.771,29.277l0.332,0.774l3.774,11.323l1.677,0.452
			C63.555,222.732,81.694,225,100,225s36.445-2.268,52.448-6.561l1.677-0.452l3.726-11.184l0.348-0.906
			c27.4-6.813,41.8-18.265,41.8-29.284C200,163.468,181.41,151.977,150.229,145.761z M167.694,86.29h1.661
			c13.342,0,24.194,10.852,24.194,24.194s-10.852,24.194-24.194,24.194h-13.542C161.416,123.932,167.223,111.113,167.694,86.29z
			 M38.971,92.126c11.735,7.016,37.045,10.294,61.029,10.294s49.294-3.277,61.029-10.294c-1.239,21.174-6.813,31.768-12.232,42.039
			c-5.187,9.829-10.087,19.113-10.087,35.997c0,3.413-14.697,9.677-38.71,9.677c-2.206,0-4.374-0.068-6.506-0.171
			c11.652-7.458,19.41-20.484,19.41-35.313v-9.677h-9.677c-17.419,0-32.384,10.681-38.71,25.832
			c-1.555-3.723-3.632-7.168-6.139-10.258l-0.097-0.445c-1.89-5.813-4.41-10.587-7.077-15.645
			C45.784,123.894,40.21,113.297,38.971,92.126z M91.268,151.752l-23.455,23.455c0.748-18.913,16.323-34.077,35.413-34.077h3.226
			v3.226c0,19.09-15.165,34.665-34.077,35.413l23.455-23.455L91.268,151.752z M22.581,141.129h3.226
			c19.09,0,34.665,15.165,35.413,34.077l-23.455-23.455l-4.561,4.561l23.455,23.455c-18.913-0.748-34.077-16.323-34.077-35.413
			V141.129z M149.106,212.645c-30.11,7.729-68.1,7.729-98.21,0l-1.7-5.084c14.074,2.835,31.045,4.535,50.803,4.535
			c19.787,0,36.781-1.703,50.871-4.548L149.106,212.645z M100,205.645c-55.129,0-93.548-15.3-93.548-29.032
			c0-4.868,4.858-10.023,13.642-14.571c6.69,14.297,21.174,24.248,37.971,24.248h3.226h6.452h3.226c3.652,0,7.177-0.516,10.555-1.4
			l1.939,0.384c5.255,0.677,10.823,1.016,16.539,1.016c22.442,0,45.161-5.542,45.161-16.129c0-7.474,1.045-13.242,2.687-18.31
			c27.765,5.365,45.7,15.081,45.7,24.761C193.548,190.345,155.129,205.645,100,205.645z"/>
	</g>
</g>
<g>
	<g>
		<path fill="#2459FE" d="M75.984,48.116c-3.203-2.135-5.016-3.461-5.016-5.919c0-2.455,1.813-3.781,5.016-5.916
			C79.5,33.939,83.871,31.026,83.871,25h-6.452c0,2.452-1.813,3.777-5.016,5.913c-3.513,2.342-7.887,5.258-7.887,11.284
			s4.371,8.942,7.887,11.287c3.203,2.135,5.016,3.461,5.016,5.919s-1.813,3.787-5.016,5.923c-3.516,2.345-7.887,5.261-7.887,11.287
			h6.452c0-2.455,1.813-3.784,5.016-5.919c3.516-2.345,7.887-5.261,7.887-11.29C83.871,53.377,79.5,50.461,75.984,48.116z"/>
	</g>
</g>
<g>
	<g>
		<path fill="#2459FE" d="M101.79,48.116c-3.203-2.135-5.016-3.461-5.016-5.919c0-2.455,1.813-3.781,5.016-5.916
			c3.516-2.342,7.887-5.255,7.887-11.281h-6.452c0,2.452-1.813,3.777-5.016,5.913c-3.513,2.342-7.887,5.258-7.887,11.284
			s4.371,8.942,7.887,11.287c3.203,2.135,5.016,3.461,5.016,5.919s-1.813,3.787-5.016,5.923c-3.516,2.345-7.887,5.261-7.887,11.287
			h6.452c0-2.455,1.813-3.784,5.016-5.919c3.516-2.345,7.887-5.261,7.887-11.29C109.677,53.377,105.306,50.461,101.79,48.116z"/>
	</g>
</g>
<g>
	<g>
		<path fill="#2459FE" d="M127.597,48.116c-3.203-2.135-5.016-3.461-5.016-5.919c0-2.455,1.813-3.781,5.016-5.916
			c3.516-2.342,7.887-5.255,7.887-11.281h-6.452c0,2.452-1.813,3.777-5.016,5.913c-3.513,2.342-7.887,5.258-7.887,11.284
			s4.371,8.942,7.887,11.287c3.203,2.135,5.016,3.461,5.016,5.919s-1.813,3.787-5.016,5.923c-3.516,2.345-7.887,5.261-7.887,11.287
			h6.452c0-2.455,1.813-3.784,5.016-5.919c3.516-2.345,7.887-5.261,7.887-11.29C135.484,53.377,131.113,50.461,127.597,48.116z"/>
	</g>
</g>
</svg>
