<?xml version="1.0"?>
<svg xmlns="http://www.w3.org/2000/svg" height="512px" viewBox="-40 0 497 497.016" width="512px"><path d="m392.007812 0h-368c-13.230468 0-23.9999995 10.769531-23.9999995 24v134.574219c0 142.042969 78.2890625 270.984375 204.3124995 336.523437l3.6875 1.917969 3.6875-1.910156c126.023438-65.546875 204.3125-194.488281 204.3125-336.53125v-134.574219c0-13.230469-10.769531-24-24-24zm8 158.574219c0 134.65625-73.464843 257.027343-192 320.378906-118.535156-63.351563-192-185.722656-192-320.378906v-134.574219c0-4.40625 3.59375-8 8-8h368c4.40625 0 8 3.59375 8 8zm0 0" fill="#2459fe"/><path d="m323.167969 136c-24.414063 0-48.175781 4.871094-70.625 14.496094l-12.535157 5.375v-11.871094h-16v37.398438c0 32.289062 4.855469 64.21875 14.441407 95l-30.441407 18.273437-30.441406-18.265625c9.585938-30.78125 14.441406-62.71875 14.441406-95.007812v-37.398438h-16v11.871094l-12.535156-5.375c-22.449218-9.625-46.199218-14.496094-70.625-14.496094-20.457031 0-40.261718 6-57.28125 17.34375l-7.261718 4.839844 15.679687 19.601562c15.351563 19.199219 38.273437 30.214844 62.863281 30.214844 9.6875 0 19.199219-1.726562 28.273438-5.128906l40.75-15.277344c-.625 30.589844-5.773438 60.804688-15.464844 89.878906l-2.023438 6.085938 25.472657 15.289062c-1.472657 25.136719-22.335938 45.152344-47.847657 45.152344-26.472656 0-48-21.527344-48-48v-4c0-11.03125 8.976563-20 20-20 11.023438 0 20 8.96875 20 20h16c0-19.847656-16.152343-36-36-36-19.847656 0-36 16.152344-36 36v4c0 35.289062 28.710938 64 64 64 3.832032 0 7.566407-.398438 11.214844-1.046875l12.3125 16.40625c5.871094 7.839844 10 17.066406 11.921875 26.679687 3.472657 17.359376 18.847657 29.960938 36.550781 29.960938 17.703126 0 33.082032-12.601562 36.550782-29.960938 1.921875-9.613281 6.050781-18.832031 11.921875-26.671874l12.3125-16.414063c3.648437.648437 7.382812 1.046875 11.214843 1.046875 35.289063 0 64-28.710938 64-64v-4c0-19.847656-16.152343-36-36-36-19.847656 0-36 16.152344-36 36h16c0-11.03125 8.976563-20 20-20 11.023438 0 20 8.96875 20 20v4c0 26.472656-21.527343 48-48 48-25.511718 0-46.375-20.015625-47.855468-45.160156l25.472656-15.289063-2.023438-6.085937c-9.691406-29.074219-14.847656-59.28125-15.464843-89.878906l40.75 15.277343c9.066406 3.410157 18.578125 5.136719 28.273437 5.136719 24.601563 0 47.511719-11.015625 62.863282-30.214844l15.679687-19.601562-7.261719-4.839844c-17.007812-11.34375-36.816406-17.34375-57.273437-17.34375zm-193.65625 51.894531c-7.265625 2.722657-14.886719 4.105469-22.65625 4.105469-19.703125 0-38.0625-8.824219-50.375-24.214844l-4.503907-5.632812c12.550782-6.664063 26.519532-10.160156 40.871094-10.160156 22.242188 0 43.878906 4.441406 64.320313 13.199218l15.335937 6.578125zm114.167969 177.875c-7.304688 9.734375-12.421876 21.191407-14.816407 33.132813-1.976562 9.90625-10.75 17.097656-20.855469 17.097656-10.105468 0-18.878906-7.191406-20.863281-17.105469-2.382812-11.933593-7.503906-23.398437-14.816406-33.140625l-8.984375-11.976562c1.207031-.578125 2.417969-1.136719 3.578125-1.785156h82.167969c1.15625.648437 2.375 1.207031 3.574218 1.785156zm-13.550782-29.769531h-44.242187c6.457031-8.03125 11-17.640625 12.976562-28.160156l9.144531 5.488281 9.144532-5.488281c1.976562 10.519531 6.519531 20.128906 12.976562 28.160156zm129.398438-168.207031c-12.304688 15.382812-30.664063 24.207031-50.367188 24.207031-7.769531 0-15.382812-1.382812-22.65625-4.113281l-42.992187-16.117188 15.335937-6.578125c20.441406-8.757812 42.082032-13.199218 64.320313-13.199218 14.34375 0 28.320312 3.496093 40.871093 10.160156zm0 0" fill="#2459fe"/><path d="m134.503906 109.832031 15.648438 12.519531c4.542968 3.648438 10.261718 5.648438 16.085937 5.648438 14.210938 0 25.769531-11.558594 25.769531-25.769531v-2.519531c0-10.328126-6.136718-19.621094-15.617187-23.679688l-30.246094-12.96875c-10.945312-4.6875-22.527343-7.0625-34.433593-7.0625-27.367188 0-53.503907 13.070312-70.085938 35.183594l-12.65625 16.785156 53.710938-10.738281c17.984374-3.621094 37.417968 1.089843 51.824218 12.601562zm-60.097656-27.273437c19.25-11.789063 44.296875-13.855469 65.433594-4.789063l30.257812 12.964844c3.589844 1.539063 5.917969 5.058594 5.917969 8.976563v2.519531c-.007813 5.386719-4.390625 9.769531-9.777344 9.769531-2.207031 0-4.375-.761719-6.101562-2.144531l-15.648438-12.511719c-13.976562-11.183594-31.535156-17.34375-49.441406-17.34375-5.207031 0-10.429687.519531-15.519531 1.535156zm0 0" fill="#2459fe"/><path d="m249.777344 128c5.824218 0 11.542968-2 16.09375-5.648438l15.648437-12.511718c14.402344-11.511719 33.824219-16.207032 51.832031-12.609375l53.449219 10.488281-12.5625-16.75c-16.429687-21.898438-42.566406-34.96875-69.933593-34.96875-11.90625 0-23.496094 2.375-34.433594 7.070312l-30.246094 12.960938c-9.480469 4.066406-15.617188 13.359375-15.617188 23.679688v2.519531c0 14.210937 11.558594 25.769531 25.769532 25.769531zm-9.769532-28.289062c0-3.910157 2.328126-7.429688 5.921876-8.976563l30.246093-12.964844c8.9375-3.832031 18.398438-5.777343 28.128907-5.777343 13.230468 0 26.101562 3.734374 37.230468 10.550781l-5.046875-1.007813c-22.566406-4.511718-46.921875 1.367188-64.96875 15.808594l-15.648437 12.511719c-1.71875 1.382812-3.886719 2.144531-6.09375 2.144531-5.386719 0-9.769532-4.382812-9.769532-9.769531zm0 0" fill="#2459fe"/></svg>
