<?xml version="1.0" encoding="iso-8859-1"?>
<!-- Generator: Adobe Illustrator 19.0.0, SVG Export Plug-In . SVG Version: 6.00 Build 0)  -->
<svg xmlns="http://www.w3.org/2000/svg" xmlns:xlink="http://www.w3.org/1999/xlink" version="1.1" id="Capa_1" x="0px" y="0px" viewBox="0 0 496.044 496.044" style="enable-background:new 0 0 496.044 496.044;" xml:space="preserve" width="512px" height="512px">
<g>
	<g>
		<g>
			<path d="M421.358,102.7l-7.672,14.04c11.824,6.464,18.336,13.32,18.336,19.312c0,9.88-17.776,22.552-52.056,32.4     c0.528-2.152,1.136-4.272,1.56-6.48c6.928-35.664-0.448-71.88-20.768-102S309.606,9.468,273.942,2.54     c-35.664-6.936-71.88,0.448-102,20.768c-22.96,15.496-40.216,37.12-50.216,62.32c-34.56,8.568-73.704,24.064-73.704,50.416     c0,14.84,12.608,27.832,37.472,38.592l6.352-14.688c-17.68-7.656-27.824-16.36-27.824-23.904c0-8.504,14-21.552,52.072-32.352     c-0.52,2.144-1.152,4.248-1.576,6.432c-3.872,19.952-3.016,39.712,1.56,58.264c-3.72-1.064-7.344-2.152-10.736-3.296     l-5.112,15.168c6.608,2.232,13.952,4.264,21.624,6.168c16.632,41.464,53.216,73.992,100.24,83.128     c1.376,0.264,2.744,0.376,4.12,0.6c-1.376,3.024-2.192,6.36-2.192,9.896v76.688l-21.432,21.424     c-6.816,6.824-10.568,15.888-10.568,25.528v24.72c0,9.64,3.752,18.712,10.576,25.528l21.424,21.424v20.68h16v-27.312     L213.91,442.62c-3.8-3.8-5.888-8.848-5.888-14.216v-24.72c0-5.368,2.088-10.424,5.888-14.216l10.112-10.112v20.688h16v-120     c0-4.392,3.56-7.96,7.944-7.992c0.032,0,0.064,0.008,0.096,0.008c0.008,0,0.016,0,0.032,0c4.376,0.04,7.928,3.6,7.928,7.984v64     v16h16v-16c0-4.416,3.592-8,8-8c4.408,0,8,3.584,8,8v16h16v-16c0-4.416,3.592-8,8-8c4.408,0,8,3.584,8,8v16h16v-16     c0-4.416,3.592-8,8-8c4.408,0,8,3.584,8,8V451.1c0,6.128-2.48,12.12-6.808,16.448l-9.192,9.184v19.312h16v-12.688l4.504-4.496     c7.416-7.416,11.496-17.272,11.496-27.76V344.044c0-13.232-10.768-24-24-24c-6.168,0-11.744,2.408-16,6.24     c-4.256-3.84-9.832-6.24-16-6.24c-6.168,0-11.744,2.408-16,6.24c-4.256-3.84-9.832-6.24-16-6.24c-2.816,0-5.488,0.576-8,1.472     v-41.472c0-3.504-0.8-6.816-2.152-9.824c46.512-7.624,86.72-39.208,104.488-83.904c42.64-10.6,73.664-27.352,73.664-50.272     C448.022,123.588,439.046,112.364,421.358,102.7z M278.678,20.148c27.392,7.208,51.04,23.592,67.432,46.92     c-11.8,9.376-31.52,30.6-41.336,71.848l-47.368-9.2L278.678,20.148z M247.774,16.012c5.048,0,10.128,0.44,15.2,1.088     l-21.28,109.576l-47.368-9.2c6.344-41.952-4.024-69.024-11.456-82.128C202.478,22.652,224.854,16.012,247.774,16.012z      M169.974,44.972c5.944,11.176,13.92,33.896,8.664,69.456l-46.512-9.032C138.366,81.7,151.446,60.796,169.974,44.972z      M141.566,191.292c-11.264-21.608-15.576-45.888-12.488-70.192l46.512,9.032C167.15,165.084,151.246,183.172,141.566,191.292z      M217.374,251.94c-27.392-7.208-51.048-23.592-67.432-46.92c11.8-9.376,31.528-30.6,41.336-71.848l47.368,9.2L217.374,251.94z      M233.078,254.972L254.35,145.42l47.368,9.2c-1.496,9.92-2.112,19.04-2,27.304c-8.944,0.728-18.176,1.336-27.984,1.696     l0.584,15.984c9.472-0.344,19.016-0.928,28.512-1.728c2.352,18.072,7.848,30.912,12.304,38.784     C290.086,251.58,261.974,258.612,233.078,254.972z M326.03,227.044c-3.392-6.4-7.424-16.568-9.312-30.72     c13.08-1.464,25.888-3.376,38.088-5.72C347.598,204.692,337.766,217.004,326.03,227.044z M366.966,150.996l-13.416-2.608     l-3.048,15.704l13.4,2.6c-0.552,2.088-1.104,4.168-1.76,6.2c-13.576,3.024-29.08,5.592-46.464,7.512     c-0.024-6.888,0.512-14.48,1.736-22.736l18.312,3.552l3.048-15.704l-18.312-3.552c8.44-34.944,24.336-53.024,34.024-61.16     C365.75,102.404,370.054,126.684,366.966,150.996z" fill="#2459fe"/>
			<path d="M408.606,96.62c-4.344-1.816-9.08-3.568-14.072-5.216l-5.016,15.192c4.608,1.52,8.96,3.136,12.928,4.792L408.606,96.62z" fill="#2459fe"/>
		</g>
	</g>
</g>
<g>
</g>
<g>
</g>
<g>
</g>
<g>
</g>
<g>
</g>
<g>
</g>
<g>
</g>
<g>
</g>
<g>
</g>
<g>
</g>
<g>
</g>
<g>
</g>
<g>
</g>
<g>
</g>
<g>
</g>
</svg>
