<?xml version="1.0" encoding="iso-8859-1"?>
<!-- Generator: Adobe Illustrator 19.0.0, SVG Export Plug-In . SVG Version: 6.00 Build 0)  -->
<svg xmlns="http://www.w3.org/2000/svg" xmlns:xlink="http://www.w3.org/1999/xlink" version="1.1" id="Capa_1" x="0px" y="0px" viewBox="0 0 496 496" style="enable-background:new 0 0 496 496;" xml:space="preserve" width="512px" height="512px">
<g>
	<g>
		<path d="M396,152h-53.72c3.4-6.808,5.456-14.336,5.696-22.288c0.568-19.104-8.52-36.928-24.024-47.688    C323.984,81.352,324,80.68,324,80c0-30.88-25.128-56-56-56c-5.608,0-11.136,0.936-16.448,2.568C241.664,10.648,224.072,0,204,0    c-20.088,0-37.688,10.672-47.576,26.608C151.112,24.976,145.624,24,140,24c-30.872,0-56,25.12-56,56    c0,0.664,0.144,1.32,0.168,1.984C69.584,92.104,60,108.944,60,128c0,14.616,5.792,28.672,16,39.112v128.032    c0,7.232,3.104,13.856,8,18.456V416H68v16h16v20.688l-16,16V496h288v-27.312l-16-16V432h16v-16h-16v-19.056L413.888,360    c13.64-6.824,22.112-20.528,22.112-35.776V192C436,169.944,418.056,152,396,152z M76,128c0-22.056,17.944-40,40-40V72    c-5.352,0-10.512,0.8-15.416,2.208C103.424,54.912,119.928,40,140,40c3.416,0,6.744,0.568,10,1.408c-1.264,4.656-2,9.536-2,14.592    h16c0-22.056,17.944-40,40-40c22.056,0,40,17.944,40,40h16c0-5.096-0.744-10.008-2.024-14.704C261.232,40.456,264.6,40,268,40    c22.056,0,40,17.944,40,40c0,1.752-0.16,3.464-0.376,5.152l-0.704,5.352l4.704,2.656c13,7.344,20.808,21.168,20.352,36.088    c-0.64,21.36-19.48,38.752-41.992,38.752H236v152c0,2.352-1.032,4.576-2.824,6.096c-1.824,1.544-4.168,2.168-6.576,1.792    c-3.704-0.608-6.6-4.448-6.6-8.744V192c0-13.232-10.768-24-24-24s-24,10.768-24,24v24c0,2.352-1.032,4.576-2.824,6.096    c-1.824,1.544-4.168,2.168-6.576,1.792c-3.704-0.608-6.6-4.448-6.6-8.744V192c0-13.232-10.768-24-24-24s-24,10.768-24,24v104    c0,2.352-1.032,4.576-2.824,6.096c-1.824,1.544-4.176,2.16-6.576,1.792c-3.704-0.608-6.6-4.448-6.6-8.744V160.136l-2.656-2.384    C80.856,150.144,76,139.304,76,128z M100,416v-96.104c5.68-0.008,11.184-1.896,15.544-5.608C120.92,309.712,124,303.048,124,296    v-46.672c12.232-6.08,25.624-9.328,40-9.328c10.584,0,23.424,2.12,40,6.608v72.536c0,12.128,8.608,22.672,20.032,24.528    c1.312,0.216,2.624,0.32,3.928,0.32c5.696,0,11.208-1.992,15.584-5.712C248.92,333.712,252,327.048,252,320v-58.248    c24.936,8.272,50.192,16.2,72,17.864V416H100z M324,432v16H100v-16H324z M142.648,226.264c-6.392,1.264-12.656,2.92-18.648,5.344    V192c0-4.408,3.584-8,8-8s8,3.592,8,8v23.144C140,219.12,141,222.88,142.648,226.264z M185.784,226.08    c1.44-3.12,2.216-6.552,2.216-10.08v-24c0-4.408,3.584-8,8-8s8,3.592,8,8v38.072C197.44,228.392,191.376,227.048,185.784,226.08z     M252,244.896V184h37.984c12.64,0,24.4-4.08,34.016-10.872v90.464C302.928,261.744,277.152,253.28,252,244.896z M340,480H84    v-4.688L95.312,464h233.376L340,475.312V480z M340,200h40c4.416,0,8,3.592,8,8v102.112c0,3.048-1.696,5.792-4.424,7.152    L340,339.056V200z M420,324.224c0,9.152-5.088,17.376-13.264,21.464L340,379.056v-22.112l50.736-25.368    c8.176-4.088,13.264-12.312,13.264-21.464V208c0-13.232-10.768-24-24-24h-40v-16h56c13.232,0,24,10.768,24,24V324.224z" fill="#2459fe"/>
	</g>
</g>
<g>
	<g>
		<rect x="140" y="264" width="16" height="16" fill="#2459fe"/>
	</g>
</g>
<g>
	<g>
		<rect x="116" y="360" width="16" height="16" fill="#2459fe"/>
	</g>
</g>
<g>
	<g>
		<rect x="172" y="328" width="16" height="16" fill="#2459fe"/>
	</g>
</g>
<g>
	<g>
		<rect x="244" y="376" width="16" height="16" fill="#2459fe"/>
	</g>
</g>
<g>
	<g>
		<rect x="276" y="312" width="16" height="16" fill="#2459fe"/>
	</g>
</g>
<g>
	<g>
		<rect x="244" y="88" width="16" height="16" fill="#2459fe"/>
	</g>
</g>
<g>
	<g>
		<rect x="188" y="128" width="16" height="16" fill="#2459fe"/>
	</g>
</g>
<g>
	<g>
		<rect x="148" y="72" width="16" height="16" fill="#2459fe"/>
	</g>
</g>
<g>
	<g>
		<rect x="276" y="112" width="16" height="16" fill="#2459fe"/>
	</g>
</g>
<g>
	<g>
		<rect x="116" y="112" width="16" height="16" fill="#2459fe"/>
	</g>
</g>
<g>
</g>
<g>
</g>
<g>
</g>
<g>
</g>
<g>
</g>
<g>
</g>
<g>
</g>
<g>
</g>
<g>
</g>
<g>
</g>
<g>
</g>
<g>
</g>
<g>
</g>
<g>
</g>
<g>
</g>
</svg>
