<?xml version="1.0" encoding="iso-8859-1"?>
<!-- Generator: Adobe Illustrator 19.0.0, SVG Export Plug-In . SVG Version: 6.00 Build 0)  -->
<svg xmlns="http://www.w3.org/2000/svg" xmlns:xlink="http://www.w3.org/1999/xlink" version="1.1" id="Capa_1" x="0px" y="0px" viewBox="0 0 499.312 499.312" style="enable-background:new 0 0 499.312 499.312;" xml:space="preserve" width="512px" height="512px">
<g>
	<g>
		<path d="M369.656,483.312v-26.664l-24-32v-30.784L301.2,275.312h12.456V237.2l20.944-41.888h19.056v-48h-49.752l-8-32h-22.248v-24    h32v-48h-32V24l-24-24l-24,24v19.312h-32v48h32v24h-22.248l-8,32h-49.752v48h19.056l20.944,41.888v38.112h12.456l-44.456,118.552    v30.784l-24,32v26.664h-32v16h304v-16H369.656z M209.656,75.312v-16h32V30.624l8-8l8,8v28.688h32v16h-32v40h-16v-40H209.656z     M215.904,131.312h67.504l4,16h-75.504L215.904,131.312z M182.6,195.312h19.056v-16h-40v-16h176v16h-120v16h99.056l-16,32H198.6    L182.6,195.312z M297.656,243.312v16h-96v-16H297.656z M169.656,403.312h112v-16H173.2l42-112h68.912l42,112h-28.456v16h32v16    h-160V403.312z M165.656,435.312h168l12,16h-192L165.656,435.312z M353.656,483.312h-208v-16h208V483.312z" fill="#2459fe"/>
	</g>
</g>
<g>
	<g>
		<rect x="417.656" y="483.312" width="16" height="16" fill="#2459fe"/>
	</g>
</g>
<g>
	<g>
		<rect x="65.656" y="483.312" width="16" height="16" fill="#2459fe"/>
	</g>
</g>
<g>
</g>
<g>
</g>
<g>
</g>
<g>
</g>
<g>
</g>
<g>
</g>
<g>
</g>
<g>
</g>
<g>
</g>
<g>
</g>
<g>
</g>
<g>
</g>
<g>
</g>
<g>
</g>
<g>
</g>
</svg>
