<?xml version="1.0" encoding="iso-8859-1"?>
<!-- Generator: Adobe Illustrator 19.0.0, SVG Export Plug-In . SVG Version: 6.00 Build 0)  -->
<svg xmlns="http://www.w3.org/2000/svg" xmlns:xlink="http://www.w3.org/1999/xlink" version="1.1" id="Layer_1" x="0px" y="0px" viewBox="0 0 496 496" style="enable-background:new 0 0 496 496;" xml:space="preserve" width="512px" height="512px">
<g>
	<g>
		<g>
			<path d="M112,141.1v-8.688L487.928,98.54l-9.36-95.64L63.184,45.14l0.048,0.48C60.864,45.316,58.456,45.1,56,45.1     c-30.872,0-56,25.128-56,56v40v16v336h496v-352H112z M412.688,157.1l-56,56h-49.376l56-56H412.688z M416,229.1v176H80v-176H416z      M340.688,157.1l-56,56h-49.376l56-56H340.688z M268.688,157.1l-56,56h-49.376l56-56H268.688z M124.688,157.1l-19.616,19.616     l11.312,11.312l30.928-30.928h49.376l-56,56H91.312l11.584-11.584l-11.312-11.312L68.688,213.1H19.312l56-56H112H124.688z      M464.208,20.444l6.216,63.608L112,116.348V101.1c0-17.16-7.776-32.528-19.976-42.808L464.208,20.444z M16,101.1     c0-22.056,17.944-40,40-40c22.056,0,40,17.944,40,40v40H16V101.1z M16,157.1h36.688L16,193.788V157.1z M480,477.1H16v-248h48v192     h368v-192h48V477.1z M480,213.1h-28.688L480,184.412V213.1z M480,161.788L428.688,213.1h-49.376l56-56H480V161.788z" fill="#2459fe"/>
			<path d="M256,245.1H96v144h160V245.1z M240,373.1H112v-112h128V373.1z" fill="#2459fe"/>
			<rect x="272" y="245.1" width="128" height="16" fill="#2459fe"/>
			<rect x="272" y="277.1" width="128" height="16" fill="#2459fe"/>
			<rect x="272" y="309.1" width="128" height="16" fill="#2459fe"/>
			<rect x="272" y="341.1" width="128" height="16" fill="#2459fe"/>
			<rect x="384" y="373.1" width="16" height="16" fill="#2459fe"/>
			<rect x="272" y="373.1" width="96" height="16" fill="#2459fe"/>
		</g>
	</g>
</g>
<g>
</g>
<g>
</g>
<g>
</g>
<g>
</g>
<g>
</g>
<g>
</g>
<g>
</g>
<g>
</g>
<g>
</g>
<g>
</g>
<g>
</g>
<g>
</g>
<g>
</g>
<g>
</g>
<g>
</g>
</svg>
