<?xml version="1.0" encoding="utf-8"?>
<!-- Generator: Adobe Illustrator 22.1.0, SVG Export Plug-In . SVG Version: 6.00 Build 0)  -->
<svg version="1.1" id="Layer_1" xmlns="http://www.w3.org/2000/svg" xmlns:xlink="http://www.w3.org/1999/xlink" x="0px" y="0px"
	 viewBox="0 0 120 100" style="enable-background:new 0 0 120 100;" xml:space="preserve">
<style type="text/css">
	.st0{fill:#295FFA;}
</style>
<g>
	<g>
		<path class="st0" d="M64.8,33.2h17.1c0.4,0,0.8-0.4,0.8-0.8v-4.1c0-0.4-0.4-0.8-0.8-0.8H64.8c-0.4,0-0.8,0.4-0.8,0.8v4.1
			C64,32.8,64.3,33.2,64.8,33.2z M66.7,29.6H80V31H66.7V29.6z M49.3,39.1c0.5,0,0.9-0.4,1-0.9l2.6-9.8c0.2-0.8-0.3-1.6-1-1.6
			c-0.5,0-0.9,0.4-1,0.9l-2.6,9.8C48,38.3,48.5,39.1,49.3,39.1z M58.6,41.3c-1.6,0-2.9,1.3-2.9,2.9s1.3,2.9,2.9,2.9
			c1.6,0,2.9-1.3,2.9-2.9S60.2,41.3,58.6,41.3z M58.6,45.3c-0.6,0-1.1-0.5-1.1-1.1s0.5-1.1,1.1-1.1c0.6,0,1.1,0.5,1.1,1.1
			S59.2,45.3,58.6,45.3z M62.9,63.6h-2.7v2.7h2.7V63.6z M92.8,9.1H30.2c-4.5,0-8.2,3.7-8.2,8.2v46.3c0,4.5,3.7,8.2,8.2,8.2h20.1
			l-3,10.9H40c-2.3,0-4.1,1.8-4.1,4.1c0,2.3,1.8,4.1,4.1,4.1h42.2c2.3,0,4.1-1.8,4.1-4.1c0-2.3-1.8-4.1-4.1-4.1h-6.5l-3-10.9h20.1
			c4.5,0,8.2-3.7,8.2-8.2V17.3C101,12.8,97.3,9.1,92.8,9.1z M82.2,85.4c0.8,0,1.4,0.6,1.4,1.4s-0.6,1.4-1.4,1.4H40
			c-0.8,0-1.4-0.6-1.4-1.4s0.6-1.4,1.4-1.4H82.2z M50.4,82.7l3-10.9h16.3l3,10.9H50.4z M98.3,63.6c0,3-2.4,5.4-5.4,5.4H30.2
			c-3,0-5.4-2.4-5.4-5.4v-2.7h73.6V63.6z M98.3,58.2H24.7V17.3c0-3,2.4-5.4,5.4-5.4h62.7c3,0,5.4,2.4,5.4,5.4V58.2z M56.6,37.7
			l3.8-2.8c0,0,0,0,0,0c0.6-0.5,1-1.2,1-2c0-0.8-0.4-1.5-1-2.1c0,0,0,0,0,0l-3.8-2.7c-0.5-0.4-1.2-0.4-1.6,0.2
			c-0.4,0.5-0.3,1.3,0.1,1.7l3.8,2.6c0.1,0.1,0.1,0.2,0.1,0.3c0,0.1,0,0.2-0.1,0.3l-3.8,2.6c-0.5,0.4-0.5,1.2-0.1,1.7
			c0.2,0.3,0.5,0.4,0.9,0.4C56.1,38,56.4,37.9,56.6,37.7z M71.4,38.9h-6.6c-0.4,0-0.8,0.4-0.8,0.8v6.6c0,0.4,0.4,0.8,0.8,0.8h6.6
			c0.4,0,0.8-0.4,0.8-0.8v-6.6C72.2,39.3,71.8,38.9,71.4,38.9z M69.9,45.1h-3.8V41h3.8V45.1z M42.2,41.3c-1.6,0-2.9,1.3-2.9,2.9
			s1.3,2.9,2.9,2.9c1.6,0,2.9-1.3,2.9-2.9S43.8,41.3,42.2,41.3z M42.2,45.3c-0.6,0-1.1-0.5-1.1-1.1s0.5-1.1,1.1-1.1
			c0.6,0,1.1,0.5,1.1,1.1S42.8,45.3,42.2,45.3z M50.4,41.3c-1.6,0-2.9,1.3-2.9,2.9s1.3,2.9,2.9,2.9c1.6,0,2.9-1.3,2.9-2.9
			S52,41.3,50.4,41.3z M50.4,45.3c-0.6,0-1.1-0.5-1.1-1.1s0.5-1.1,1.1-1.1c0.6,0,1.1,0.5,1.1,1.1S51,45.3,50.4,45.3z M45.6,30.1
			c0.5-0.4,0.5-1.2,0.1-1.7c-0.4-0.5-1.1-0.6-1.6-0.2l-3.8,2.7c0,0,0,0,0,0c-0.6,0.5-1,1.2-1,2.1c0,0.8,0.4,1.5,1,2c0,0,0,0,0,0
			l3.8,2.8c0.2,0.2,0.5,0.3,0.7,0.3c0.3,0,0.6-0.1,0.9-0.4c0.4-0.5,0.3-1.3-0.1-1.7l-3.8-2.6c-0.1-0.1-0.1-0.2-0.1-0.3
			c0-0.1,0-0.2,0.1-0.3L45.6,30.1z M71.4,35.2h-6.6c-0.4,0-0.8,0.4-0.8,0.8v0.5c0,0.4,0.4,0.8,0.8,0.8h6.6c0.4,0,0.8-0.4,0.8-0.8V36
			C72.2,35.5,71.8,35.2,71.4,35.2z M81.9,34.8h-7.3c-0.4,0-0.8,0.4-0.8,0.8v10.7c0,0.4,0.4,0.8,0.8,0.8h7.3c0.4,0,0.8-0.4,0.8-0.8
			V35.6C82.7,35.2,82.4,34.8,81.9,34.8z M80.8,44.9h-5v-7.8h5V44.9z"/>
	</g>
</g>
</svg>
