<?xml version="1.0" encoding="iso-8859-1"?>
<!-- Generator: Adobe Illustrator 19.0.0, SVG Export Plug-In . SVG Version: 6.00 Build 0)  -->
<svg xmlns="http://www.w3.org/2000/svg" xmlns:xlink="http://www.w3.org/1999/xlink" version="1.1" id="Layer_1" x="0px" y="0px" viewBox="0 0 496 496" style="enable-background:new 0 0 496 496;" xml:space="preserve" width="512px" height="512px">
<g>
	<g>
		<g>
			<path d="M440,166.96v-22.032c0-9.928-6.24-18.976-15.528-22.512c-36.352-13.824-76.584-13.824-112.944,0     C302.24,125.952,296,135,296,144.928v21.464c-4.296,2.952-8.488,6.096-12.472,9.608H256V80h16c13.232,0,24-10.768,24-24V0h-96v56     c0,13.232,10.768,24,24,24h16v96h-27.528c-3.984-3.512-8.176-6.656-12.472-9.608v-21.464c0-9.928-6.24-18.976-15.528-22.512     c-36.352-13.824-76.584-13.824-112.944,0C62.24,125.952,56,135,56,144.928v22.032C22.232,190.768,0,230.656,0,275.056v141.392     C0,460.312,35.688,496,79.552,496c32.72,0,61.712-19.632,73.864-50.008l22.104-55.264c13.568-5.432,25.968-13.056,36.944-22.728     h71.064c10.984,9.672,23.384,17.304,36.944,22.728l22.104,55.264C354.728,476.368,383.728,496,416.448,496     C460.312,496,496,460.312,496,416.448v-141.4C496,230.648,473.768,190.76,440,166.96z M312,144.928     c0-3.336,2.096-6.368,5.216-7.56c32.704-12.432,68.864-12.432,101.56,0c3.128,1.184,5.224,4.224,5.224,7.56v12.336     c-13.696-6.896-28.744-11.384-44.648-12.768c-23.704-2.08-46.72,2.416-67.352,12.568V144.928z M224,64c-4.408,0-8-3.592-8-8V16     h64v40c0,4.408-3.592,8-8,8H224z M72,144.928c0-3.336,2.096-6.368,5.216-7.56c32.704-12.432,68.864-12.432,101.56,0     c3.128,1.184,5.224,4.224,5.224,7.56v12.136c-20.624-10.144-43.624-14.632-67.352-12.56     c-15.904,1.384-30.952,5.864-44.648,12.768V144.928z M480,416.448c0,35.04-28.512,63.552-63.552,63.552     c-26.144,0-49.304-15.68-59.008-39.952l-24.728-61.808l-3.336-1.232c-13.888-5.112-26.448-12.808-37.328-22.88L289.744,352     h-83.488l-2.304,2.128c-10.88,10.064-23.44,17.768-37.328,22.88l-3.336,1.232l-24.728,61.808     C128.856,464.32,105.696,480,79.552,480C44.512,480,16,451.488,16,416.448v-141.4c0-59.296,44.816-109.648,102.032-114.616     c31.912-2.784,62.416,7.68,85.928,29.44l2.296,2.128h83.488l2.304-2.128c23.504-21.752,54-32.216,85.928-29.44     C435.184,165.408,480,215.752,480,275.048V416.448z" fill="#2459fe"/>
			<path d="M160,192H96v48H48v64h48v48h64v-48h48v-64h-48V192z M192,256v32h-48v48h-32v-48H64v-32h48v-48h32v48H192z" fill="#2459fe"/>
			<path d="M368,248c17.648,0,32-14.352,32-32s-14.352-32-32-32s-32,14.352-32,32S350.352,248,368,248z M368,200     c8.824,0,16,7.176,16,16c0,8.824-7.176,16-16,16c-8.824,0-16-7.176-16-16C352,207.176,359.176,200,368,200z" fill="#2459fe"/>
			<path d="M400,328c0-17.648-14.352-32-32-32s-32,14.352-32,32s14.352,32,32,32S400,345.648,400,328z M352,328     c0-8.824,7.176-16,16-16c8.824,0,16,7.176,16,16c0,8.824-7.176,16-16,16C359.176,344,352,336.824,352,328z" fill="#2459fe"/>
			<path d="M392,272c0,17.648,14.352,32,32,32s32-14.352,32-32s-14.352-32-32-32S392,254.352,392,272z M440,272     c0,8.824-7.176,16-16,16c-8.824,0-16-7.176-16-16c0-8.824,7.176-16,16-16C432.824,256,440,263.176,440,272z" fill="#2459fe"/>
			<path d="M312,240c-17.648,0-32,14.352-32,32s14.352,32,32,32s32-14.352,32-32S329.648,240,312,240z M312,288     c-8.824,0-16-7.176-16-16c0-8.824,7.176-16,16-16c8.824,0,16,7.176,16,16C328,280.824,320.824,288,312,288z" fill="#2459fe"/>
			<path d="M133.984,383.72C132,383.856,130.016,384,128,384c-31.448,0-60.616-12.8-82.128-36.04l-11.744,10.864     C58.344,384.992,92.56,400,128,400c2.392,0,4.744-0.16,7.096-0.32l1.432-0.096l-1.056-15.968L133.984,383.72z" fill="#2459fe"/>
			<path d="M368,384c-2.016,0-4-0.144-5.984-0.28l-1.488-0.104l-1.056,15.968l1.432,0.096c2.352,0.16,4.704,0.32,7.096,0.32     c35.44,0,69.656-15.008,93.872-41.176l-11.744-10.864C428.616,371.2,399.448,384,368,384z" fill="#2459fe"/>
		</g>
	</g>
</g>
<g>
</g>
<g>
</g>
<g>
</g>
<g>
</g>
<g>
</g>
<g>
</g>
<g>
</g>
<g>
</g>
<g>
</g>
<g>
</g>
<g>
</g>
<g>
</g>
<g>
</g>
<g>
</g>
<g>
</g>
</svg>
