<?xml version="1.0" encoding="iso-8859-1"?>
<!-- Generator: Adobe Illustrator 19.0.0, SVG Export Plug-In . SVG Version: 6.00 Build 0)  -->
<svg xmlns="http://www.w3.org/2000/svg" xmlns:xlink="http://www.w3.org/1999/xlink" version="1.1" id="Capa_1" x="0px" y="0px" viewBox="0 0 496 496" style="enable-background:new 0 0 496 496;" xml:space="preserve" width="512px" height="512px">
<g>
	<g>
		<path d="M248,120c-22.056,0-40,17.944-40,40c0,22.056,17.944,40,40,40c22.056,0,40-17.944,40-40C288,137.944,270.056,120,248,120z     M248,184c-13.232,0-24-10.768-24-24s10.768-24,24-24s24,10.768,24,24S261.232,184,248,184z" fill="#2459fe"/>
	</g>
</g>
<g>
	<g>
		<path d="M368,152h104v-48h-80V72h-32V48c0-4.416,3.592-8,8-8h8v24h48c17.648,0,32-14.352,32-32S441.648,0,424,0h-48v24h-8    c-13.232,0-24,10.768-24,24v24h-32v32h-2.936l-3.376-26.976C304.192,65.04,293.952,56,281.872,56H214.12    c-12.08,0-22.32,9.04-23.816,21.024L186.936,104H184V72h-32V48c0-13.232-10.768-24-24-24h-8V0H72C54.352,0,40,14.352,40,32    s14.352,32,32,32h48V40h8c4.408,0,8,3.584,8,8v24h-32v32H24v48h104c8.72,0,17.136,2.96,24,8.104v9.272    c0,11.576-4.24,22.48-11.904,31.04C138.736,200.24,137.4,200,136,200c-17.648,0-32,14.352-32,32s14.352,32,32,32    c14.864,0,27.288-10.232,30.864-24H184v16h16v32h-32v20.688l-32,32V368h-16v16h16v24h32.72    c3.384,20.056,19.224,35.888,39.28,39.28V472c0,13.232,10.768,24,24,24h32c13.232,0,24-10.768,24-24v-24.72    c20.056-3.384,35.888-19.224,39.28-39.28H360v-24h16v-16h-16v-27.312l-32-32V288h-32v-32h16v-16h17.136    c3.576,13.768,16,24,30.864,24c17.648,0,32-14.352,32-32s-14.352-32-32-32c-1.4,0-2.736,0.24-4.096,0.416    c-7.664-8.56-11.904-19.464-11.904-31.04v-9.272C350.864,154.96,359.28,152,368,152z M408,120h48v16h-48V120z M392,40h16V24h-16    v-8h32c8.824,0,16,7.176,16,16s-7.176,16-16,16h-32V40z M104,24H88v16h16v8H72c-8.824,0-16-7.176-16-16s7.176-16,16-16h32V24z     M136,248c-8.824,0-16-7.176-16-16c0-8.824,7.176-16,16-16c8.824,0,16,7.176,16,16C152,240.824,144.824,248,136,248z M120,88h48    v16h-48V88z M88,136H40v-16h48V136z M184,224h-17.136c-1.8-6.936-5.856-12.912-11.36-17.192    c6.384-8.512,10.448-18.424,11.864-28.984L184,200V224z M184.072,127.008C178.944,136.904,176,148.104,176,160    c0,0.968,0.104,1.904,0.144,2.864l-3.344-4.456C162.28,144.376,145.528,136,128,136h-24v-16h80.936l-0.88,7.008H184.072z M168,392    h-16v-44.688l16-16V392z M328,331.312l16,16V392h-16V331.312z M206.192,79.008c0.496-3.992,3.904-7.008,7.936-7.008h67.752    c4.024,0,7.44,3.016,7.936,7.008l3.104,24.816C280.592,93.944,264.984,88,248,88s-32.592,5.944-44.912,15.824L206.192,79.008z     M208,360v70.864c-13.76-3.576-24-15.992-24-30.864v-96h13.48c-3.472,7.288-5.48,15.408-5.48,24v24h17.472    C208.576,354.512,208,357.184,208,360z M272,376v16h-16v16h16v16h-16v16h16v16h-16v16h16c0,4.416-3.592,8-8,8h-32    c-4.408,0-8-3.584-8-8h16v-16h-16v-16h16v-16h-16v-16h16v-16h-16v-16h16v-16h-16c0-4.416,3.592-8,8-8h32c4.408,0,8,3.584,8,8h-16    v16H272z M264,336h-32h-24v-8c0-22.056,17.944-40,40-40c22.056,0,40,17.944,40,40v8H264z M216,282.112V256h64v26.112    C270.92,275.76,259.896,272,248,272S225.08,275.76,216,282.112z M298.52,304H312v96c0,14.872-10.24,27.288-24,30.864V360    c0-2.816-0.576-5.488-1.472-8H304v-24C304,319.408,301.992,311.288,298.52,304z M296,240h-96v-26.488    C212.752,224.968,229.552,232,248,232s35.248-7.032,48-18.488V240z M248,216c-30.88,0-56-25.128-56-56s25.12-56,56-56    s56,25.128,56,56S278.88,216,248,216z M328,88h48v16h-48V88z M329.136,224H312v-24l16.632-22.168    c1.416,10.56,5.48,20.472,11.864,28.984C334.992,211.088,330.936,217.064,329.136,224z M360,216c8.824,0,16,7.176,16,16    c0,8.824-7.176,16-16,16c-8.824,0-16-7.176-16-16C344,223.176,351.176,216,360,216z M323.2,158.408l-3.352,4.464    c0.048-0.96,0.152-1.904,0.152-2.872c0-11.896-2.944-23.096-8.072-32.992h0.016l-0.88-7.008H392v16h-24    C350.472,136,333.72,144.376,323.2,158.408z" fill="#2459fe"/>
	</g>
</g>
<g>
</g>
<g>
</g>
<g>
</g>
<g>
</g>
<g>
</g>
<g>
</g>
<g>
</g>
<g>
</g>
<g>
</g>
<g>
</g>
<g>
</g>
<g>
</g>
<g>
</g>
<g>
</g>
<g>
</g>
</svg>
