<?xml version="1.0" encoding="iso-8859-1"?>
<!-- Generator: Adobe Illustrator 19.0.0, SVG Export Plug-In . SVG Version: 6.00 Build 0)  -->
<svg xmlns="http://www.w3.org/2000/svg" xmlns:xlink="http://www.w3.org/1999/xlink" version="1.1" id="Layer_1" x="0px" y="0px" viewBox="0 0 290.625 290.625" style="enable-background:new 0 0 290.625 290.625;" xml:space="preserve" width="512px" height="512px">
<g>
	<g>
		<g>
			<path d="M145.313,111.947l-47.981,23.991h95.967L145.313,111.947z M145.313,122.428l8.269,4.134h-16.533L145.313,122.428z" fill="#2459fe"/>
			<path d="M276.563,265.247V206.25h9.375v-9.375h-9.375V187.5h4.688v-9.375h-23.438v-23.438h9.375v-9.375H254.19L196.875,117.9     V89.063h-14.063v-9.375h4.688v-9.375h-5.011c-1.716-13.655-10.777-25.041-23.114-30.052V14.063H150V0h-9.375v14.063h-9.375     v26.198c-12.333,5.011-21.398,16.397-23.114,30.052h-5.011v9.375h4.688v9.375H93.75V117.9l-57.314,27.412H23.438v9.375h9.375     v23.438H9.375v9.375h4.688v9.375H4.688v9.375h9.375v58.997L0,279.309v11.316h290.625v-11.316L276.563,265.247z M32.813,281.25     H11.316l9.375-9.375h12.122V281.25z M32.813,262.5h-9.375v-56.25h9.375V262.5z M32.813,196.875h-9.375V187.5h9.375V196.875z      M187.5,98.438v14.981l-31.322-14.981H187.5z M173.016,70.313h-9.103c-0.403-6.942-1.702-13.673-3.872-19.228     C166.791,55.256,171.642,62.189,173.016,70.313z M140.624,23.438L140.624,23.438H150v14.386     c-1.537-0.192-3.098-0.323-4.688-0.323c-1.59,0-3.15,0.131-4.688,0.323V23.438z M145.313,46.875     c2.995,0,8.208,8.822,9.173,23.438h-18.347C137.105,55.697,142.317,46.875,145.313,46.875z M130.584,51.084     c-2.166,5.555-3.469,12.286-3.872,19.228h-9.103C118.983,62.189,123.834,55.256,130.584,51.084z M117.188,79.688h56.25v9.375     h-56.25V79.688z M103.125,98.438h31.322l-31.322,14.981V98.438z M145.313,103.631l87.145,41.681H58.167L145.313,103.631z      M46.884,281.251h-4.697v-89.063h0.001h4.823L46.884,281.251z M47.907,182.813h-5.719v-9.375h8.063L47.907,182.813z      M70.313,281.25H56.25v-9.375h14.063V281.25z M56.25,262.5v-74.423l3.656-14.639h6.75l3.656,14.639V262.5H56.25z M84.384,281.251     h-4.697v-89.063h0.001h4.823L84.384,281.251z M85.406,182.813h-6.858l-2.278-9.375h11.475L85.406,182.813z M112.5,281.25H93.75     v-9.375h18.75V281.25z M112.5,262.5H93.75v-74.423l3.656-14.639h11.438l3.656,14.639V262.5z M126.571,281.251h-4.697v-89.063     h0.001h4.823L126.571,281.251z M127.594,182.813h-6.858l-2.278-9.375h11.475L127.594,182.813z M154.688,281.25h-18.75v-9.375     h18.75V281.25z M135.937,262.5v-74.423l3.656-14.639h11.438l3.656,14.639V262.5H135.937z M168.759,281.251h-4.697v-89.063h0.001     h4.823L168.759,281.251z M169.781,182.813h-6.858l-2.278-9.375h11.475L169.781,182.813z M196.875,281.25h-18.75v-9.375h18.75     V281.25z M196.875,262.5h-18.75v-74.423l3.656-14.639h11.438l3.656,14.639V262.5z M210.946,281.251h-4.697v-89.063h0.001h4.823     L210.946,281.251z M211.969,182.813h-6.858l-2.278-9.375h11.475L211.969,182.813z M234.376,281.25h-14.063v-9.375h14.063V281.25z      M220.312,262.5v-74.423l3.656-14.639h6.751l3.656,14.639V262.5H220.312z M248.438,281.251h-4.688v-89.063h4.688V281.251z      M248.438,182.813h-5.827l-2.278-9.375h8.105V182.813z M248.438,164.063H42.188v-9.375h206.25V164.063z M257.813,187.5h9.375     v9.375h-9.375V187.5z M257.813,206.25h9.375v56.25h-9.375V206.25z M257.813,281.25v-9.375h12.122l9.375,9.375H257.813z" fill="#2459fe"/>
			<rect x="140.625" y="243.75" width="9.375" height="9.375" fill="#2459fe"/>
			<rect x="140.625" y="225" width="9.375" height="9.375" fill="#2459fe"/>
		</g>
	</g>
</g>
<g>
</g>
<g>
</g>
<g>
</g>
<g>
</g>
<g>
</g>
<g>
</g>
<g>
</g>
<g>
</g>
<g>
</g>
<g>
</g>
<g>
</g>
<g>
</g>
<g>
</g>
<g>
</g>
<g>
</g>
</svg>
