<?xml version="1.0" encoding="iso-8859-1"?>
<!-- Generator: Adobe Illustrator 19.0.0, SVG Export Plug-In . SVG Version: 6.00 Build 0)  -->
<svg xmlns="http://www.w3.org/2000/svg" xmlns:xlink="http://www.w3.org/1999/xlink" version="1.1" id="Layer_1" x="0px" y="0px" viewBox="0 0 497.144 497.144" style="enable-background:new 0 0 497.144 497.144;" xml:space="preserve" width="512px" height="512px">
<g>
	<g>
		<g>
			<path d="M472.572,96h-80c-13.232,0-24,10.768-24,24v274.376l-53.696-257.76c-3.208-15.416-12.328-28.512-25.664-36.872     c-13.336-8.368-29.104-10.864-44.376-7.056c-16.104,4.024-28.832,14.416-36.264,27.824V0h-16c0,22.056-17.944,40-40,40     c-22.056,0-40-17.944-40-40h-16v161.472c-2.512-0.896-5.184-1.472-8-1.472h-64c-13.232,0-24,10.768-24,24v288     c0,13.232,10.768,24,24,24h64c11.104,0,20.376-7.616,23.104-17.864C121.908,489.096,136.428,496,152.572,496     c30.88,0,56-25.12,56-56V188.04l65.768,309.104l96.064-16.008c3.6,8.712,12.168,14.864,22.168,14.864h80     c13.232,0,24-10.768,24-24V120C496.572,106.768,485.804,96,472.572,96z M96.572,440v32c0,4.408-3.592,8-8,8h-64     c-4.408,0-8-3.592-8-8V184c0-4.408,3.592-8,8-8h64c4.408,0,8,3.592,8,8V440z M192.572,440c0,22.056-17.944,40-40,40     c-22.056,0-40-17.944-40-40V184V39.16c10.168,10.384,24.344,16.84,40,16.84s29.832-6.456,40-16.84V440z M286.804,478.848     l-68.496-321.936c-4.656-21.888,8.704-43.28,30.408-48.704c3.36-0.84,6.76-1.256,10.128-1.256c7.664,0,15.184,2.152,21.864,6.344     c9.616,6.032,16.184,15.472,18.504,26.584l67.832,325.592L286.804,478.848z M480.572,472c0,4.408-3.592,8-8,8h-80     c-3.128,0-5.784-1.856-7.096-4.48l-0.904-4.344V120c0-4.408,3.592-8,8-8h80c4.408,0,8,3.592,8,8V472z" fill="#2459fe"/>
			<path d="M400.572,224h64v-80h-64V224z M416.572,160h32v48h-32V160z" fill="#2459fe"/>
			<rect x="424.572" y="448" width="16" height="16" fill="#2459fe"/>
			<rect x="424.572" y="240" width="16" height="192" fill="#2459fe"/>
			<path d="M56.572,192c-13.232,0-24,10.768-24,24s10.768,24,24,24s24-10.768,24-24S69.804,192,56.572,192z M56.572,224     c-4.408,0-8-3.592-8-8s3.592-8,8-8s8,3.592,8,8S60.98,224,56.572,224z" fill="#2459fe"/>
			<path d="M32.572,464h48V256h-48V464z M48.572,272h16v176h-16V272z" fill="#2459fe"/>
			<rect x="128.572" y="72" width="16" height="352" fill="#2459fe"/>
			<rect x="128.572" y="440" width="16" height="16" fill="#2459fe"/>
			<rect x="160.572" y="72" width="16" height="184" fill="#2459fe"/>
			<rect x="160.572" y="272" width="16" height="184" fill="#2459fe"/>
			
				<rect x="132.499" y="291.973" transform="matrix(-0.2249 -0.9744 0.9744 -0.2249 66.0929 652.5229)" width="320.166" height="16" fill="#2459fe"/>
		</g>
	</g>
</g>
<g>
</g>
<g>
</g>
<g>
</g>
<g>
</g>
<g>
</g>
<g>
</g>
<g>
</g>
<g>
</g>
<g>
</g>
<g>
</g>
<g>
</g>
<g>
</g>
<g>
</g>
<g>
</g>
<g>
</g>
</svg>
