<?xml version="1.0" encoding="UTF-8" standalone="no"?>
<!DOCTYPE svg PUBLIC "-//W3C//DTD SVG 1.1//EN" "http://www.w3.org/Graphics/SVG/1.1/DTD/svg11.dtd">
<svg width="100%" height="100%" viewBox="0 0 225 83" version="1.1" xmlns="http://www.w3.org/2000/svg" xmlns:xlink="http://www.w3.org/1999/xlink" xml:space="preserve" style="fill-rule:evenodd;clip-rule:evenodd;stroke-linejoin:round;stroke-miterlimit:1.41421;">
    <g>
        <g opacity="0.5">
            <g>
                <path d="M37.03,17.23L29.29,14.63L29.29,3.46L37.03,5.76L37.03,17.24" style="fill:rgb(102,102,102);"/>
                <path d="M39.05,5.74L46.8,3.44L46.78,14.64L39.05,17.24L39.05,5.73" style="fill:rgb(102,102,102);"/>
                <path d="M45.22,2.23L38,0L30.87,2.23L38,4.15L45.22,2.23" style="fill:rgb(102,102,102);"/>
                <path d="M56.55,17.23L48.81,14.63L48.81,3.46L56.58,5.76L56.56,17.24" style="fill:rgb(102,102,102);"/>
                <path d="M58.57,5.74L66.33,3.44L66.3,14.64L58.57,17.24L58.57,5.73" style="fill:rgb(102,102,102);"/>
                <path d="M64.75,2.23L57.52,0L50.4,2.23L57.53,4.15L64.75,2.23" style="fill:rgb(102,102,102);"/>
                <path d="M7.75,22.1L0,19.8L0,31L7.74,33.6L7.74,22.1" style="fill:rgb(102,102,102);"/>
                <path d="M9.76,22.1L17.52,19.8L17.49,31L9.75,33.6L9.75,22.1" style="fill:rgb(102,102,102);"/>
                <path d="M15.94,18.6L8.7,16.37L1.6,18.6L8.74,20.5L15.96,18.6" style="fill:rgb(102,102,102);"/>
                <path d="M27.27,33.6L19.53,31L19.53,19.8L27.28,22.1L27.28,33.6" style="fill:rgb(102,102,102);"/>
                <path d="M29.3,22.1L37.04,19.8L37,31L29.3,33.6L29.3,22.1" style="fill:rgb(102,102,102);"/>
                <path d="M35.46,18.6L28.23,16.37L21.1,18.6L28.25,20.5L35.45,18.6" style="fill:rgb(102,102,102);"/>
                <path d="M17.5,49.96L9.76,47.38L9.76,36.18L17.51,38.48L17.51,49.96" style="fill:rgb(102,102,102);"/>
                <path d="M19.52,38.48L27.28,36.18L27.25,47.38L19.52,49.96L19.52,38.48" style="fill:rgb(102,102,102);"/>
                <path d="M25.7,34.97L18.47,32.73L11.34,34.97L18.48,36.87L25.7,34.97" style="fill:rgb(102,102,102);"/>
            </g>
            <path d="M51.8,40.06L51.23,40.06C51.03,40.06 50.75,40.2 50.69,40.43L48.95,46.53L47.25,40.45C47.19,40.25 47.01,40.05 46.75,40.05L46.09,40.05C45.84,40.05 45.67,40.25 45.62,40.45L44.02,46.45L42.39,40.43C42.32,40.21 42.05,40.06 41.83,40.06L41.01,40.06C40.84,40.06 40.68,40.14 40.59,40.26C40.53,40.34 40.51,40.43 40.54,40.51L43.08,49.51C43.12,49.71 43.28,49.89 43.53,49.89L44.33,49.89C44.56,49.89 44.76,49.73 44.81,49.49L46.37,43.52L48.07,49.52C48.11,49.7 48.27,49.9 48.52,49.9L49.32,49.9C49.54,49.9 49.72,49.74 49.79,49.52L52.23,40.54C52.26,40.44 52.23,40.36 52.18,40.27C52.11,40.17 51.95,40.07 51.78,40.07" style="fill:rgb(16,15,13);"/>
            <path d="M58.84,43.88L54.54,43.88C54.64,42.68 55.42,41.41 56.74,41.38C58.16,41.41 58.81,42.64 58.84,43.88L58.84,43.88ZM56.74,40C53.84,40 52.51,42.57 52.51,44.96C52.51,47.94 54.17,49.86 56.71,49.86C58.54,49.86 59.93,48.94 60.53,47.33C60.57,47.23 60.56,47.13 60.51,47.05C60.45,46.95 60.33,46.85 60.19,46.83L59.39,46.68C59.17,46.64 58.92,46.78 58.84,46.96C58.44,47.86 57.74,48.36 56.84,48.39C55.97,48.35 55.18,47.84 54.81,47.07C54.51,46.45 54.48,45.83 54.47,45.2L60.32,45.2C60.45,45.2 60.58,45.15 60.67,45.06C60.74,44.99 60.77,44.9 60.77,44.8C60.77,42.48 59.7,40 56.77,40" style="fill:rgb(16,15,13);"/>
            <path d="M67.95,44.97C67.95,45.52 67.85,48.27 65.9,48.34C65.25,48.31 64.6,47.94 64.22,47.36C63.94,46.93 63.79,46.34 63.75,45.6L63.75,44C63.78,42.75 64.65,41.4 65.9,41.34C67.85,41.41 67.95,44.38 67.95,44.97L67.95,44.97ZM66.2,39.9L66.05,39.9C65.09,39.9 64.33,40.32 63.75,41.14L63.75,37.34C63.75,37.14 63.53,36.94 63.28,36.94L62.44,36.94C62.22,36.94 61.98,37.12 61.98,37.34L61.98,49.17C61.98,49.39 62.2,49.57 62.44,49.57L62.69,49.57C62.91,49.57 63.09,49.4 63.13,49.22L63.39,48.39C64.01,49.24 64.93,49.75 65.91,49.75L66.06,49.75C68.66,49.75 69.82,47.23 69.82,44.73C69.82,43.49 69.52,42.29 68.97,41.46C68.37,40.5 67.29,39.9 66.2,39.9" style="fill:rgb(16,15,13);"/>
            <path d="M79.03,44.7C78.48,44.3 77.83,44.18 77.17,44.05L75.91,43.82C75.01,43.67 74.49,43.42 74.49,42.62C74.49,41.78 75.36,41.46 76.09,41.44C77.01,41.46 77.69,41.86 78.02,42.58C78.12,42.74 78.29,42.86 78.47,42.86C78.5,42.86 78.53,42.86 78.57,42.86L79.35,42.66C79.48,42.66 79.6,42.56 79.65,42.44C79.71,42.34 79.72,42.24 79.69,42.16C79.21,40.76 77.99,40.02 76.14,40.02C74.46,40.02 72.67,40.76 72.67,42.84C72.67,44.26 73.57,45.16 75.33,45.52L76.75,45.79C77.53,45.93 78.32,46.19 78.32,47.03C78.32,48.26 76.88,48.39 76.44,48.4C75.47,48.4 74.37,47.95 74.1,47.03C74.05,46.83 73.8,46.69 73.57,46.73L72.74,46.9C72.62,46.93 72.51,47 72.44,47.12C72.39,47.22 72.37,47.32 72.39,47.4C72.82,48.93 74.29,49.85 76.33,49.86L76.39,49.86C78.21,49.86 80.16,49.08 80.16,46.89C80.16,45.99 79.76,45.19 79.06,44.69" style="fill:rgb(16,15,13);"/>
            <path d="M87.37,43.9L83.07,43.9C83.17,42.68 83.94,41.42 85.27,41.38C86.69,41.42 87.33,42.65 87.37,43.88L87.37,43.9ZM85.27,40C82.37,40 81.04,42.58 81.04,44.97C81.04,47.95 82.68,49.87 85.24,49.87C87.06,49.87 88.44,48.95 89.04,47.34C89.08,47.24 89.07,47.14 89.02,47.06C88.96,46.96 88.84,46.86 88.7,46.84L87.9,46.69C87.7,46.65 87.44,46.74 87.35,46.96C86.95,47.86 86.25,48.36 85.35,48.39C84.48,48.36 83.69,47.85 83.33,47.09C83.03,46.46 82.99,45.84 82.98,45.21L88.83,45.21C88.95,45.21 89.08,45.15 89.17,45.06C89.24,44.99 89.27,44.89 89.27,44.8C89.27,42.5 88.21,40 85.27,40" style="fill:rgb(16,15,13);"/>
            <path d="M94.8,40.12C94.7,40.1 94.58,40.1 94.47,40.1C93.49,40.1 92.69,40.63 92.14,41.65L92.14,40.75C92.14,40.55 91.94,40.35 91.68,40.35L90.95,40.35C90.71,40.35 90.5,40.55 90.5,40.75L90.5,49.43C90.5,49.65 90.7,49.83 90.95,49.83L91.8,49.83C92.02,49.83 92.27,49.66 92.27,49.43L92.27,45.06C92.27,44.34 92.34,43.8 92.69,43.16C93.17,42.24 93.85,41.79 94.79,41.78C95.01,41.78 95.21,41.58 95.21,41.35L95.21,40.55C95.21,40.33 95.03,40.15 94.79,40.12" style="fill:rgb(16,15,13);"/>
            <path d="M103.75,39.95L103.07,39.95C102.87,39.95 102.59,40.1 102.53,40.32L100.35,47.17L98.12,40.32C98.05,40.1 97.78,39.94 97.57,39.94L96.61,39.94C96.44,39.94 96.27,40.02 96.18,40.14C96.13,40.24 96.11,40.32 96.14,40.4L99.19,49.44C99.25,49.62 99.39,49.84 99.65,49.84L100.81,49.84C101.01,49.84 101.21,49.69 101.28,49.44L104.23,40.41C104.26,40.33 104.25,40.24 104.19,40.16C104.09,40.03 103.93,39.96 103.76,39.96" style="fill:rgb(16,15,13);"/>
            <path d="M105.96,36.47C105.34,36.47 104.83,36.97 104.83,37.6C104.83,38.22 105.33,38.72 105.96,38.72C106.58,38.72 107.08,38.22 107.08,37.6C107.08,36.97 106.58,36.47 105.96,36.47" style="fill:rgb(16,15,13);"/>
            <path d="M106.42,39.9L105.5,39.9C105.24,39.9 105.02,40.1 105.02,40.3L105.02,49.52C105.02,49.62 105.07,49.74 105.17,49.82C105.27,49.9 105.37,49.94 105.49,49.94L106.41,49.94C106.67,49.94 106.89,49.74 106.89,49.52L106.89,40.32C106.89,40.09 106.66,39.89 106.41,39.89" style="fill:rgb(16,15,13);"/>
            <path d="M115.04,46.13L114.27,46.13C114.07,46.13 113.87,46.26 113.79,46.49C113.49,47.69 112.87,48.32 111.89,48.35C110.02,48.29 109.87,45.67 109.87,44.87C109.87,43.27 110.43,41.54 111.97,41.49C112.91,41.52 113.59,42.19 113.79,43.29C113.83,43.51 113.99,43.67 114.23,43.69L115.06,43.71C115.31,43.68 115.5,43.51 115.5,43.27C115.2,41.29 113.85,40.02 112.02,40.02L111.89,40.02C109.22,40.02 108.03,42.5 108.03,44.96C108.03,47.21 109.03,49.84 111.86,49.84L112,49.84C113.8,49.84 115.13,48.59 115.52,46.57C115.52,46.47 115.49,46.37 115.42,46.3C115.34,46.2 115.19,46.14 115.04,46.13" style="fill:rgb(16,15,13);"/>
            <path d="M122.65,43.9L118.35,43.9C118.45,42.68 119.22,41.42 120.55,41.38C121.97,41.42 122.62,42.65 122.65,43.88L122.65,43.9ZM120.55,40C117.65,40 116.32,42.58 116.32,44.97C116.32,47.95 117.97,49.87 120.52,49.87C122.34,49.87 123.72,48.95 124.32,47.34C124.36,47.24 124.35,47.14 124.3,47.06C124.24,46.96 124.13,46.86 124,46.84L123.18,46.69C122.98,46.65 122.73,46.74 122.63,46.96C122.23,47.86 121.53,48.36 120.63,48.39C119.76,48.36 118.97,47.85 118.61,47.09C118.31,46.45 118.28,45.84 118.27,45.21L124.12,45.21C124.25,45.21 124.38,45.15 124.47,45.06C124.54,44.99 124.57,44.89 124.57,44.8C124.57,42.5 123.51,40 120.57,40" style="fill:rgb(16,15,13);"/>
            <path d="M131.9,44.7C131.34,44.3 130.68,44.18 130.02,44.05L128.76,43.82C127.86,43.67 127.33,43.42 127.33,42.62C127.33,41.54 128.69,41.45 128.95,41.44C129.85,41.46 130.55,41.86 130.87,42.58C130.95,42.74 131.12,42.86 131.3,42.86C131.34,42.86 131.37,42.86 131.4,42.86L132.2,42.66C132.3,42.66 132.43,42.56 132.5,42.44C132.55,42.34 132.56,42.24 132.53,42.16C132.05,40.76 130.83,40.02 128.97,40.02C127.3,40.02 125.51,40.76 125.51,42.84C125.51,44.26 126.41,45.16 128.18,45.52L129.58,45.79C130.36,45.93 131.16,46.19 131.16,47.03C131.16,48.26 129.72,48.39 129.29,48.4C128.39,48.4 127.23,48 126.95,47.03C126.89,46.83 126.65,46.69 126.41,46.73L125.59,46.9C125.47,46.93 125.35,47 125.29,47.12C125.23,47.22 125.21,47.32 125.24,47.4C125.66,48.93 127.14,49.85 129.18,49.86L129.22,49.86C131.06,49.86 133.02,49.08 133.02,46.89C133.02,45.99 132.62,45.19 131.92,44.69" style="fill:rgb(16,15,13);"/>
            <path d="M94.38,22.17L94.38,20.07C94.38,19.77 94.63,19.55 94.91,19.55L104.29,19.55C104.59,19.55 104.83,19.75 104.83,20.07L104.83,21.87C104.83,22.17 104.57,22.57 104.13,23.17L99.27,30.11C101.07,30.08 102.97,30.35 104.61,31.26C104.98,31.46 105.08,31.78 105.11,32.08L105.11,34.31C105.11,34.61 104.78,34.97 104.41,34.79C101.54,33.29 97.71,33.11 94.53,34.81C94.2,34.98 93.86,34.63 93.86,34.31L93.86,32.21C93.86,31.86 93.86,31.28 94.21,30.77L99.83,22.7L94.93,22.7C94.63,22.7 94.4,22.48 94.39,22.17" style="fill:rgb(16,15,13);"/>
            <path d="M60.22,35.22L57.37,35.22C57.1,35.2 56.89,35 56.87,34.74L56.87,20.1C56.87,19.82 57.11,19.6 57.42,19.6L60.07,19.6C60.35,19.6 60.57,19.8 60.59,20.08L60.59,21.98L60.63,21.98C61.33,20.14 62.63,19.28 64.38,19.28C66.15,19.28 67.28,20.14 68.08,21.98C68.76,20.14 70.33,19.28 72,19.28C73.2,19.28 74.5,19.78 75.3,20.88C76.2,22.11 76.02,23.88 76.02,25.46L76.02,34.69C76.02,34.97 75.77,35.21 75.47,35.21L72.61,35.21C72.33,35.19 72.11,34.96 72.11,34.68L72.11,26.92C72.11,26.3 72.15,24.77 72.01,24.18C71.81,23.2 71.17,22.92 70.35,22.92C69.65,22.92 68.93,23.38 68.65,24.12C68.35,24.86 68.38,26.09 68.38,26.92L68.38,34.67C68.38,34.95 68.14,35.19 67.84,35.19L65,35.19C64.73,35.17 64.5,34.94 64.5,34.66L64.5,26.9C64.5,25.27 64.76,22.87 62.74,22.87C60.69,22.87 60.77,25.22 60.77,26.91L60.77,34.66C60.77,34.94 60.53,35.18 60.22,35.18" style="fill:rgb(16,15,13);"/>
            <path d="M112.9,22.26C110.8,22.26 110.67,25.12 110.67,26.91C110.67,28.71 110.65,32.51 112.87,32.51C115.09,32.51 115.2,29.44 115.2,27.57C115.2,26.33 115.14,24.87 114.77,23.69C114.45,22.67 113.81,22.27 112.91,22.27L112.9,22.26ZM112.88,19.28C117.11,19.28 119.4,22.91 119.4,27.52C119.4,31.99 116.87,35.52 112.88,35.52C108.73,35.52 106.48,31.89 106.48,27.37C106.48,22.82 108.76,19.27 112.88,19.27" style="fill:rgb(16,15,13);"/>
            <path d="M124.88,35.22L122.04,35.22C121.76,35.2 121.54,34.97 121.54,34.69L121.54,20.05C121.54,19.79 121.79,19.58 122.07,19.58L124.72,19.58C124.97,19.58 125.17,19.75 125.22,19.98L125.22,22.21L125.28,22.21C126.08,20.21 127.18,19.26 129.16,19.26C130.44,19.26 131.69,19.72 132.48,20.98C133.23,22.15 133.23,24.12 133.23,25.53L133.23,34.73C133.2,35 132.97,35.2 132.68,35.2L129.83,35.2C129.56,35.18 129.35,35 129.33,34.74L129.33,26.8C129.33,25.2 129.5,22.86 127.53,22.86C126.85,22.86 126.21,23.32 125.89,24.03C125.49,24.93 125.43,25.81 125.43,26.8L125.43,34.67C125.43,34.95 125.17,35.19 124.87,35.19" style="fill:rgb(16,15,13);"/>
            <path d="M89.8,35.18C89.6,35.35 89.33,35.36 89.12,35.25C88.17,34.45 88,34.1 87.48,33.35C85.92,34.95 84.81,35.42 82.78,35.42C80.38,35.42 78.52,33.94 78.52,30.98C78.52,28.68 79.78,27.08 81.56,26.32C83.11,25.64 85.26,25.52 86.92,25.32L86.92,24.96C86.92,24.29 86.97,23.48 86.57,22.9C86.23,22.37 85.57,22.16 84.97,22.16C83.89,22.16 82.92,22.72 82.67,23.86C82.63,24.13 82.45,24.38 82.19,24.39L79.42,24.09C79.18,24.03 78.92,23.84 78.99,23.49C79.63,20.14 82.65,19.13 85.36,19.13C86.76,19.13 88.56,19.5 89.66,20.53C91.04,21.83 90.91,23.57 90.91,25.45L90.91,29.89C90.91,31.22 91.46,31.81 91.98,32.53C92.15,32.79 92.18,33.09 91.96,33.28C91.38,33.76 90.36,34.66 89.78,35.18L89.78,35.16L89.8,35.18ZM86.92,28.23C86.92,29.33 86.94,30.27 86.39,31.26C85.92,32.06 85.19,32.56 84.39,32.56C83.31,32.56 82.67,31.72 82.67,30.48C82.67,28.06 84.85,27.62 86.91,27.62L86.91,28.22" style="fill:rgb(16,15,13);"/>
            <path d="M52.44,35.18C52.24,35.35 51.98,35.36 51.77,35.25C50.82,34.45 50.65,34.1 50.14,33.35C48.57,34.95 47.46,35.42 45.44,35.42C43.04,35.42 41.17,33.94 41.17,30.98C41.17,28.68 42.43,27.08 44.21,26.32C45.77,25.64 47.93,25.52 49.58,25.32L49.58,24.96C49.58,24.29 49.63,23.48 49.23,22.9C48.89,22.37 48.23,22.16 47.63,22.16C46.55,22.16 45.58,22.72 45.33,23.86C45.29,24.13 45.11,24.38 44.85,24.39L42.09,24.09C41.85,24.03 41.59,23.84 41.66,23.49C42.3,20.14 45.32,19.13 48.03,19.13C49.43,19.13 51.23,19.5 52.33,20.53C53.71,21.83 53.58,23.57 53.58,25.45L53.58,29.89C53.58,31.22 54.13,31.81 54.65,32.53C54.85,32.79 54.88,33.09 54.65,33.28C54.05,33.76 53.03,34.66 52.45,35.18L52.45,35.16L52.44,35.18ZM49.57,28.23C49.57,29.33 49.6,30.27 49.04,31.26C48.58,32.06 47.86,32.56 47.06,32.56C45.96,32.56 45.33,31.72 45.33,30.48C45.33,28.06 47.51,27.62 49.57,27.62L49.57,28.22" style="fill:rgb(16,15,13);"/>
        </g>
    </g>
    <g>
        <path d="M37.03,17.23L29.29,14.63L29.29,3.46L37.03,5.76L37.03,17.24" style="fill:rgb(252,176,52);"/>
        <path d="M39.05,5.74L46.8,3.44L46.78,14.64L39.05,17.24L39.05,5.73" style="fill:rgb(252,176,52);"/>
        <path d="M45.22,2.23L38,0L30.87,2.23L38,4.15L45.22,2.23" style="fill:rgb(252,176,52);"/>
        <path d="M56.55,17.23L48.81,14.63L48.81,3.46L56.58,5.76L56.56,17.24" style="fill:rgb(252,176,52);"/>
        <path d="M58.57,5.74L66.33,3.44L66.3,14.64L58.57,17.24L58.57,5.73" style="fill:rgb(252,176,52);"/>
        <path d="M64.75,2.23L57.52,0L50.4,2.23L57.53,4.15L64.75,2.23" style="fill:rgb(252,176,52);"/>
        <path d="M7.75,22.1L0,19.8L0,31L7.74,33.6L7.74,22.1" style="fill:rgb(252,176,52);"/>
        <path d="M9.76,22.1L17.52,19.8L17.49,31L9.75,33.6L9.75,22.1" style="fill:rgb(252,176,52);"/>
        <path d="M15.94,18.6L8.7,16.37L1.6,18.6L8.74,20.5L15.96,18.6" style="fill:rgb(252,176,52);"/>
        <path d="M27.27,33.6L19.53,31L19.53,19.8L27.28,22.1L27.28,33.6" style="fill:rgb(252,176,52);"/>
        <path d="M29.3,22.1L37.04,19.8L37,31L29.3,33.6L29.3,22.1" style="fill:rgb(252,176,52);"/>
        <path d="M35.46,18.6L28.23,16.37L21.1,18.6L28.25,20.5L35.45,18.6" style="fill:rgb(252,176,52);"/>
        <path d="M17.5,49.96L9.76,47.38L9.76,36.18L17.51,38.48L17.51,49.96" style="fill:rgb(252,176,52);"/>
        <path d="M19.52,38.48L27.28,36.18L27.25,47.38L19.52,49.96L19.52,38.48" style="fill:rgb(252,176,52);"/>
        <path d="M25.7,34.97L18.47,32.73L11.34,34.97L18.48,36.87L25.7,34.97" style="fill:rgb(252,176,52);"/>
    </g>
    <path d="M145.28,9.25L145.78,9.25L145.78,62.15L145.28,62.15L145.28,9.25Z" style="fill-opacity:0.345098;"/>
    <path d="M45.37,73.95L51.43,73.95L51.43,74.62L48.8,74.62L48.8,82.28L48,82.28L48,74.62L45.37,74.62L45.37,73.95ZM52.55,82.28L52.55,73.95L58.09,73.95L58.09,74.62L53.32,74.62L53.32,77.62L57.62,77.62L57.62,78.3L53.32,78.3L53.32,81.6L58.19,81.6L58.19,82.28L52.54,82.28L52.55,82.28ZM65.52,76.37C65.36,75.67 65.06,75.17 64.62,74.87C64.18,74.55 63.62,74.4 62.9,74.4C62.4,74.4 61.96,74.5 61.6,74.7C61.24,74.9 60.94,75.18 60.7,75.5C60.47,75.85 60.3,76.25 60.2,76.7C60.07,77.13 60.02,77.6 60.02,78.1C60.02,78.56 60.07,79 60.16,79.46C60.26,79.9 60.42,80.3 60.64,80.66C60.87,81.01 61.17,81.29 61.54,81.5C61.92,81.72 62.4,81.83 62.97,81.83C63.32,81.83 63.64,81.77 63.94,81.65C64.24,81.55 64.49,81.38 64.71,81.17C64.94,80.97 65.11,80.73 65.27,80.45C65.42,80.17 65.54,79.87 65.61,79.55L66.43,79.55C66.33,79.95 66.21,80.32 66.03,80.68C65.85,81.04 65.63,81.35 65.33,81.62C65.03,81.89 64.69,82.1 64.28,82.26C63.86,82.42 63.38,82.5 62.83,82.5C62.19,82.5 61.63,82.38 61.18,82.15C60.73,81.91 60.36,81.59 60.08,81.19C59.78,80.79 59.58,80.32 59.44,79.79C59.31,79.26 59.24,78.69 59.24,78.11C59.24,77.31 59.34,76.64 59.54,76.08C59.74,75.52 60,75.06 60.34,74.71C60.7,74.36 61.11,74.11 61.58,73.95C62.05,73.79 62.56,73.71 63.11,73.71C63.54,73.71 63.93,73.77 64.31,73.88C64.67,73.98 64.99,74.16 65.27,74.38C65.55,74.61 65.77,74.88 65.97,75.21C66.15,75.54 66.27,75.91 66.34,76.35L65.54,76.35L65.52,76.37ZM67.95,82.28L67.95,73.95L68.75,73.95L68.75,77.53L73.65,77.53L73.65,73.95L74.45,73.95L74.45,82.28L73.65,82.28L73.65,78.2L68.75,78.2L68.75,82.28L67.95,82.28ZM77.1,75.02L77.07,75.02L77.07,82.28L76.29,82.28L76.29,73.95L77.17,73.95L81.97,81.23L82,81.23L82,73.95L82.8,73.95L82.8,82.28L81.88,82.28L77.1,75.02L77.1,75.02ZM84.33,78.13C84.33,77.53 84.43,76.95 84.58,76.43C84.75,75.88 84.98,75.43 85.32,75.03C85.64,74.63 86.04,74.31 86.52,74.08C87,73.85 87.55,73.73 88.17,73.73C88.82,73.73 89.39,73.85 89.87,74.08C90.37,74.3 90.77,74.61 91.1,75.01C91.43,75.41 91.68,75.89 91.84,76.41C92.01,76.96 92.09,77.53 92.09,78.14C92.09,78.74 91.99,79.3 91.83,79.84C91.67,80.36 91.43,80.82 91.1,81.22C90.8,81.62 90.38,81.94 89.9,82.17C89.4,82.4 88.85,82.52 88.2,82.52C87.57,82.52 87,82.4 86.52,82.17C86.02,81.94 85.62,81.63 85.32,81.23C84.98,80.83 84.74,80.38 84.58,79.85C84.42,79.32 84.33,78.75 84.33,78.15L84.33,78.13ZM88.23,81.83C88.76,81.83 89.23,81.73 89.61,81.53C90.01,81.33 90.33,81.03 90.58,80.71C90.83,80.38 91.02,79.98 91.14,79.54C91.26,79.09 91.32,78.62 91.32,78.14C91.32,77.56 91.26,77.04 91.12,76.58C90.97,76.12 90.77,75.73 90.5,75.41C90.23,75.08 89.9,74.84 89.5,74.67C89.13,74.5 88.7,74.41 88.22,74.41C87.69,74.41 87.22,74.51 86.84,74.73C86.44,74.93 86.14,75.21 85.88,75.55C85.63,75.9 85.44,76.29 85.32,76.75C85.2,77.18 85.14,77.65 85.14,78.15C85.14,78.63 85.2,79.1 85.32,79.55C85.44,79.99 85.62,80.39 85.88,80.73C86.13,81.07 86.45,81.33 86.84,81.53C87.24,81.73 87.69,81.83 88.24,81.83L88.23,81.83ZM93.66,82.28L93.66,73.95L94.44,73.95L94.44,81.61L98.91,81.61L98.91,82.29L93.66,82.29L93.66,82.28ZM99.76,78.13C99.76,77.53 99.84,76.95 100.01,76.43C100.19,75.88 100.43,75.43 100.75,75.03C101.08,74.63 101.48,74.31 101.95,74.08C102.43,73.85 102.99,73.73 103.61,73.73C104.26,73.73 104.83,73.85 105.31,74.08C105.81,74.3 106.21,74.61 106.54,75.01C106.87,75.41 107.12,75.89 107.28,76.41C107.45,76.96 107.53,77.53 107.53,78.14C107.53,78.74 107.45,79.3 107.28,79.84C107.12,80.36 106.88,80.82 106.55,81.22C106.22,81.62 105.82,81.94 105.33,82.17C104.85,82.4 104.28,82.52 103.63,82.52C103,82.52 102.43,82.4 101.96,82.17C101.46,81.94 101.06,81.63 100.74,81.23C100.42,80.83 100.17,80.38 100.01,79.85C99.85,79.32 99.77,78.75 99.77,78.15L99.76,78.13ZM103.66,81.83C104.19,81.83 104.66,81.73 105.04,81.53C105.44,81.33 105.74,81.03 106,80.71C106.25,80.38 106.43,79.98 106.55,79.54C106.67,79.09 106.73,78.62 106.73,78.14C106.73,77.56 106.66,77.04 106.53,76.58C106.38,76.12 106.17,75.73 105.9,75.41C105.63,75.08 105.3,74.84 104.92,74.67C104.52,74.5 104.1,74.41 103.62,74.41C103.09,74.41 102.62,74.51 102.24,74.73C101.84,74.93 101.54,75.21 101.28,75.55C101.03,75.9 100.85,76.29 100.73,76.75C100.61,77.18 100.55,77.65 100.55,78.15C100.55,78.63 100.61,79.1 100.73,79.55C100.83,79.99 101.03,80.39 101.28,80.73C101.53,81.07 101.85,81.33 102.24,81.53C102.64,81.73 103.1,81.83 103.64,81.83L103.66,81.83ZM112.62,78.65L112.62,77.98L116.18,77.98L116.18,82.28L115.51,82.28L115.51,80.86C115.37,81.1 115.21,81.33 115.01,81.53C114.83,81.73 114.61,81.91 114.36,82.05C114.12,82.2 113.83,82.31 113.51,82.38C113.18,82.46 112.81,82.5 112.41,82.5C111.88,82.5 111.41,82.4 110.95,82.22C110.51,82.04 110.12,81.76 109.8,81.39C109.46,81.02 109.2,80.56 109.03,79.99C108.85,79.45 108.76,78.79 108.76,78.06C108.76,77.46 108.83,76.88 108.99,76.36C109.13,75.83 109.37,75.36 109.69,74.98C110.01,74.58 110.41,74.28 110.89,74.05C111.37,73.82 111.94,73.71 112.59,73.71C113.04,73.71 113.45,73.77 113.83,73.87C114.21,73.97 114.55,74.14 114.86,74.37C115.16,74.57 115.42,74.85 115.63,75.17C115.83,75.5 115.98,75.89 116.08,76.34L115.26,76.34C115.19,76.04 115.06,75.74 114.9,75.51C114.74,75.26 114.54,75.05 114.3,74.89C114.08,74.72 113.82,74.59 113.54,74.51C113.24,74.41 112.94,74.37 112.64,74.37C112.1,74.37 111.64,74.47 111.24,74.67C110.84,74.87 110.52,75.13 110.26,75.47C110.01,75.83 109.82,76.25 109.7,76.74C109.58,77.24 109.52,77.77 109.52,78.34C109.52,78.81 109.59,79.24 109.72,79.67C109.86,80.09 110.06,80.45 110.32,80.77C110.57,81.09 110.89,81.34 111.26,81.52C111.64,81.72 112.06,81.8 112.54,81.8C112.76,81.8 113,81.77 113.24,81.72C113.47,81.67 113.7,81.59 113.94,81.47C114.14,81.37 114.36,81.21 114.54,81.02C114.74,80.84 114.91,80.62 115.04,80.34C115.18,80.08 115.27,79.81 115.32,79.52C115.37,79.24 115.4,78.92 115.42,78.62L112.6,78.62L112.62,78.65ZM120.63,77.97L123.13,73.95L124.06,73.95L121.04,78.65L121.04,82.28L120.24,82.28L120.24,78.7L117.28,73.95L118.18,73.95L120.63,77.97ZM128.32,82.28L128.32,73.95L131.36,73.95C131.9,73.95 132.36,74.02 132.7,74.15C133.05,74.25 133.33,74.43 133.53,74.65C133.73,74.85 133.88,75.11 133.96,75.39C134.04,75.66 134.08,75.96 134.08,76.27C134.08,76.73 133.98,77.11 133.8,77.41C133.6,77.71 133.36,77.95 133.06,78.11C132.76,78.31 132.42,78.41 132.04,78.49C131.66,78.56 131.27,78.59 130.89,78.59L129.09,78.59L129.09,82.27L128.31,82.27L128.32,82.28ZM130.92,77.93C131.28,77.93 131.62,77.91 131.92,77.86C132.2,77.81 132.45,77.73 132.65,77.6C132.85,77.47 133.01,77.3 133.13,77.08C133.23,76.86 133.29,76.58 133.29,76.22C133.29,75.69 133.11,75.3 132.77,75.02C132.43,74.76 131.87,74.62 131.13,74.62L129.1,74.62L129.1,77.92L130.9,77.92L130.92,77.93ZM134.66,82.28L137.93,73.95L138.83,73.95L142.01,82.28L141.21,82.28L140.25,79.66L136.45,79.66L135.48,82.28L134.68,82.28L134.66,82.28ZM136.72,78.98L139.98,78.98L138.35,74.62L136.72,78.99L136.72,78.98ZM146.36,77.83C146.66,77.83 146.92,77.8 147.16,77.73C147.43,77.67 147.64,77.57 147.83,77.43C148.01,77.3 148.16,77.13 148.27,76.93C148.37,76.73 148.43,76.47 148.43,76.17C148.43,75.87 148.37,75.61 148.26,75.41C148.16,75.21 148,75.06 147.81,74.95C147.63,74.83 147.41,74.75 147.17,74.7C146.93,74.65 146.67,74.62 146.42,74.62L143.92,74.62L143.92,77.82L146.38,77.82L146.36,77.83ZM143.91,78.5L143.91,82.28L143.13,82.28L143.13,73.95L146.39,73.95C147.31,73.95 148.01,74.13 148.49,74.47C148.99,74.81 149.23,75.37 149.23,76.14C149.23,76.66 149.13,77.08 148.91,77.39C148.71,77.69 148.35,77.95 147.87,78.16C148.12,78.26 148.31,78.36 148.45,78.53C148.59,78.7 148.69,78.88 148.75,79.09C148.83,79.29 148.88,79.52 148.9,79.75C148.9,79.98 148.92,80.2 148.93,80.42C148.93,80.74 148.95,81 148.97,81.22C148.99,81.42 149.01,81.58 149.04,81.72C149.06,81.85 149.1,81.95 149.14,82.02C149.17,82.09 149.22,82.15 149.27,82.19L149.27,82.27L148.41,82.27C148.33,82.13 148.27,81.94 148.24,81.69C148.2,81.44 148.18,81.19 148.16,80.92C148.14,80.65 148.12,80.38 148.11,80.12C148.11,79.88 148.08,79.67 148.05,79.52C148,79.28 147.93,79.1 147.82,78.97C147.72,78.83 147.6,78.73 147.46,78.67C147.31,78.59 147.16,78.55 146.96,78.52C146.78,78.5 146.6,78.49 146.4,78.49L143.93,78.49L143.91,78.5ZM150.1,73.95L156.15,73.95L156.15,74.62L153.52,74.62L153.52,82.28L152.72,82.28L152.72,74.62L150.09,74.62L150.09,73.95L150.1,73.95ZM158.06,75.02L158.04,75.02L158.04,82.28L157.24,82.28L157.24,73.95L158.14,73.95L162.94,81.23L162.98,81.23L162.98,73.95L163.76,73.95L163.76,82.28L162.86,82.28L158.06,75.02L158.06,75.02ZM165.62,82.28L165.62,73.95L171.16,73.95L171.16,74.62L166.41,74.62L166.41,77.62L170.71,77.62L170.71,78.3L166.41,78.3L166.41,81.6L171.29,81.6L171.29,82.28L165.63,82.28L165.62,82.28ZM175.9,77.83C176.2,77.83 176.48,77.8 176.73,77.73C176.98,77.67 177.2,77.57 177.38,77.43C177.58,77.3 177.71,77.13 177.82,76.93C177.92,76.73 177.98,76.47 177.98,76.17C177.98,75.87 177.93,75.61 177.82,75.41C177.72,75.21 177.55,75.06 177.37,74.95C177.17,74.83 176.97,74.75 176.72,74.7C176.48,74.65 176.22,74.62 175.96,74.62L173.46,74.62L173.46,77.82L175.91,77.82L175.9,77.83ZM173.46,78.5L173.46,82.28L172.68,82.28L172.68,73.95L175.94,73.95C176.86,73.95 177.56,74.13 178.04,74.47C178.54,74.81 178.77,75.37 178.77,76.14C178.77,76.66 178.67,77.08 178.45,77.39C178.25,77.69 177.9,77.95 177.42,78.16C177.67,78.26 177.86,78.36 178,78.53C178.14,78.7 178.24,78.88 178.3,79.09C178.38,79.29 178.42,79.52 178.44,79.75C178.46,79.98 178.48,80.2 178.48,80.42C178.48,80.74 178.5,81 178.52,81.22C178.54,81.42 178.57,81.58 178.59,81.72C178.61,81.85 178.64,81.95 178.69,82.02C178.72,82.09 178.77,82.15 178.82,82.19L178.82,82.27L177.95,82.27C177.87,82.13 177.81,81.94 177.77,81.69C177.74,81.44 177.71,81.19 177.69,80.92C177.67,80.65 177.66,80.38 177.65,80.12C177.63,79.88 177.61,79.67 177.58,79.52C177.53,79.28 177.45,79.1 177.35,78.97C177.25,78.83 177.12,78.73 176.97,78.67C176.81,78.59 176.65,78.55 176.47,78.52C176.29,78.5 176.1,78.49 175.91,78.49L173.43,78.49L173.46,78.5Z" style="fill-opacity:0.347;"/>
    <path d="M155.84,33.27L155.84,19.4L160.91,19.4C161.81,19.4 162.56,19.5 163.15,19.7C163.73,19.9 164.19,20.2 164.53,20.55C164.87,20.91 165.11,21.33 165.25,21.79C165.38,22.25 165.45,22.75 165.45,23.26C165.45,24.03 165.29,24.66 164.98,25.16C164.66,25.66 164.25,26.06 163.75,26.36C163.25,26.64 162.68,26.84 162.05,26.96C161.41,27.06 160.77,27.13 160.13,27.13L157.16,27.13L157.16,33.26L155.86,33.26L155.84,33.27ZM160.16,26.02C160.78,26.02 161.33,25.99 161.82,25.92C162.3,25.82 162.72,25.69 163.06,25.48C163.4,25.26 163.66,24.98 163.86,24.61C164.03,24.25 164.13,23.77 164.13,23.18C164.13,22.31 163.83,21.65 163.27,21.2C162.7,20.74 161.79,20.5 160.54,20.5L157.14,20.5L157.14,26.02L160.16,26.02ZM174.03,28.03C173.55,28.23 173.05,28.37 172.55,28.43C172.05,28.5 171.55,28.55 171.05,28.59C170.15,28.64 169.47,28.84 168.97,29.19C168.47,29.51 168.23,30.02 168.23,30.69C168.23,31.01 168.29,31.27 168.43,31.49C168.53,31.72 168.7,31.91 168.9,32.06C169.1,32.2 169.33,32.31 169.6,32.38C169.85,32.45 170.12,32.48 170.4,32.48C170.85,32.48 171.3,32.42 171.74,32.31C172.18,32.19 172.57,32.01 172.91,31.78C173.26,31.54 173.53,31.24 173.74,30.88C173.94,30.51 174.04,30.08 174.04,29.58L174.04,28.01L174.03,28.03ZM172.09,27.45C172.29,27.43 172.56,27.39 172.86,27.35C173.16,27.29 173.41,27.21 173.6,27.12C173.8,27.02 173.92,26.88 173.97,26.67C174.01,26.47 174.03,26.27 174.03,26.07C174.03,25.49 173.83,25.01 173.47,24.63C173.09,24.25 172.45,24.06 171.55,24.06C171.15,24.06 170.78,24.1 170.45,24.16C170.12,24.24 169.82,24.36 169.57,24.53C169.32,24.7 169.12,24.93 168.97,25.23C168.79,25.51 168.69,25.88 168.64,26.31L167.46,26.31C167.5,25.73 167.64,25.23 167.86,24.81C168.1,24.39 168.4,24.05 168.76,23.79C169.13,23.53 169.56,23.33 170.03,23.21C170.53,23.09 171.03,23.03 171.57,23.03C172.07,23.03 172.54,23.08 172.97,23.19C173.43,23.29 173.81,23.49 174.14,23.71C174.47,23.95 174.72,24.27 174.91,24.67C175.11,25.07 175.21,25.55 175.21,26.13L175.21,31.57C175.21,32.02 175.28,32.3 175.44,32.42C175.6,32.56 175.94,32.52 176.41,32.35L176.41,33.25C176.31,33.28 176.19,33.32 176.01,33.37C175.85,33.42 175.68,33.45 175.51,33.45C175.33,33.45 175.16,33.43 174.99,33.39C174.79,33.36 174.64,33.29 174.53,33.19C174.41,33.11 174.33,32.99 174.25,32.86C174.18,32.72 174.13,32.56 174.1,32.41C174.07,32.24 174.05,32.07 174.05,31.89C173.55,32.43 173.01,32.84 172.38,33.13C171.75,33.41 171.08,33.55 170.33,33.55C169.9,33.55 169.48,33.49 169.07,33.38C168.67,33.26 168.31,33.08 168,32.84C167.7,32.59 167.45,32.3 167.27,31.94C167.09,31.59 167,31.17 167,30.68C167,28.98 168.16,27.98 170.5,27.68L172.1,27.46L172.09,27.45ZM179.43,33.27L178.27,33.27L178.27,23.3L179.43,23.3L179.43,25.16L179.47,25.16C179.79,24.36 180.2,23.81 180.71,23.49C181.23,23.17 181.91,23.01 182.74,23.01L182.74,24.26C182.08,24.26 181.54,24.36 181.12,24.56C180.7,24.79 180.37,25.08 180.12,25.46C179.87,25.83 179.69,26.26 179.6,26.78C179.5,27.28 179.45,27.8 179.45,28.36L179.45,33.26L179.43,33.27ZM188.14,33.3C188,33.34 187.81,33.38 187.58,33.45C187.35,33.51 187.08,33.55 186.81,33.55C186.24,33.55 185.81,33.4 185.51,33.11C185.21,32.83 185.05,32.31 185.05,31.57L185.05,24.27L183.65,24.27L183.65,23.3L185.05,23.3L185.05,20.5L186.2,20.5L186.2,23.3L188.06,23.3L188.06,24.25L186.19,24.25L186.19,31.72C186.22,31.9 186.26,32.05 186.32,32.16C186.38,32.28 186.48,32.36 186.62,32.41C186.75,32.46 186.94,32.49 187.19,32.49C187.34,32.49 187.49,32.49 187.66,32.45C187.82,32.43 187.98,32.39 188.13,32.35L188.13,33.3L188.14,33.3ZM191.15,33.27L190,33.27L190,23.3L191.15,23.3L191.15,24.68C191.61,24.18 192.09,23.78 192.58,23.48C193.08,23.18 193.68,23.02 194.38,23.02C194.98,23.02 195.55,23.12 196.08,23.34C196.61,23.54 197.05,23.92 197.41,24.44C197.66,24.8 197.81,25.17 197.85,25.54C197.9,25.94 197.92,26.34 197.92,26.74L197.92,33.27L196.78,33.27L196.78,26.77C196.78,25.87 196.58,25.17 196.18,24.73C195.78,24.28 195.12,24.06 194.18,24.06C193.83,24.06 193.51,24.11 193.21,24.22C192.91,24.32 192.64,24.48 192.41,24.66C192.16,24.84 191.96,25.04 191.79,25.26C191.63,25.5 191.49,25.76 191.41,26.01C191.29,26.34 191.21,26.65 191.21,26.94C191.17,27.24 191.16,27.56 191.16,27.91L191.16,33.28L191.15,33.27ZM207.93,27.6C207.93,27.1 207.87,26.64 207.73,26.2C207.6,25.78 207.4,25.4 207.13,25.1C206.87,24.78 206.53,24.52 206.13,24.34C205.73,24.14 205.29,24.06 204.77,24.06C204.27,24.06 203.81,24.16 203.41,24.36C203.03,24.54 202.71,24.8 202.41,25.12C202.15,25.44 201.91,25.82 201.76,26.24C201.59,26.66 201.48,27.11 201.43,27.59L207.93,27.59L207.93,27.6ZM201.43,28.55C201.43,29.09 201.49,29.6 201.63,30.08C201.77,30.56 201.98,30.98 202.26,31.34C202.53,31.69 202.88,31.97 203.31,32.18C203.74,32.4 204.23,32.5 204.78,32.5C205.54,32.5 206.18,32.3 206.73,31.9C207.27,31.5 207.63,30.94 207.81,30.2L209.11,30.2C208.96,30.68 208.77,31.12 208.54,31.53C208.31,31.93 208.02,32.29 207.67,32.59C207.33,32.89 206.92,33.11 206.44,33.29C205.97,33.45 205.41,33.53 204.78,33.53C203.98,33.53 203.3,33.4 202.72,33.13C202.15,32.86 201.68,32.49 201.3,32.03C200.93,31.55 200.66,31 200.48,30.36C200.3,29.73 200.21,29.04 200.21,28.31C200.21,27.58 200.31,26.89 200.51,26.25C200.73,25.6 201.03,25.05 201.41,24.55C201.81,24.08 202.29,23.7 202.86,23.42C203.42,23.15 204.06,23.02 204.78,23.02C206.16,23.02 207.24,23.48 208.02,24.42C208.82,25.37 209.2,26.74 209.19,28.54L201.44,28.54L201.43,28.55ZM212.64,33.27L211.48,33.27L211.48,23.3L212.64,23.3L212.64,25.16L212.67,25.16C213,24.36 213.41,23.81 213.92,23.49C214.42,23.17 215.1,23.01 215.92,23.01L215.92,24.26C215.28,24.26 214.74,24.36 214.32,24.56C213.89,24.79 213.55,25.08 213.3,25.46C213.05,25.83 212.88,26.26 212.78,26.78C212.68,27.28 212.64,27.8 212.64,28.36L212.64,33.27ZM157.2,39.16L157.17,39.16L157.17,51.26L155.87,51.26L155.87,37.38L157.35,37.38L165.35,49.51L165.4,49.51L165.4,37.4L166.7,37.4L166.7,51.28L165.2,51.28L157.2,39.18L157.2,39.16ZM176.87,45.57C176.87,45.07 176.8,44.63 176.67,44.2C176.53,43.76 176.33,43.4 176.07,43.08C175.8,42.76 175.47,42.51 175.07,42.33C174.67,42.13 174.22,42.05 173.71,42.05C173.21,42.05 172.75,42.15 172.36,42.35C171.96,42.53 171.63,42.79 171.36,43.11C171.08,43.44 170.86,43.81 170.69,44.23C170.52,44.66 170.41,45.11 170.36,45.58L176.88,45.58L176.87,45.57ZM170.35,46.54C170.35,47.08 170.42,47.59 170.55,48.07C170.71,48.55 170.91,48.97 171.19,49.32C171.46,49.68 171.81,49.96 172.23,50.17C172.66,50.37 173.13,50.49 173.7,50.49C174.47,50.49 175.1,50.29 175.65,49.89C176.19,49.49 176.55,48.92 176.73,48.19L178.03,48.19C177.88,48.66 177.7,49.09 177.46,49.49C177.23,49.91 176.94,50.26 176.6,50.57C176.25,50.87 175.84,51.1 175.36,51.27C174.89,51.44 174.34,51.52 173.71,51.52C172.91,51.52 172.23,51.38 171.66,51.12C171.08,50.84 170.6,50.47 170.23,50.02C169.86,49.54 169.58,48.98 169.4,48.35C169.2,47.71 169.12,47.03 169.12,46.3C169.12,45.57 169.22,44.9 169.44,44.24C169.64,43.6 169.94,43.04 170.34,42.56C170.74,42.08 171.21,41.7 171.78,41.42C172.34,41.14 172.98,41.02 173.71,41.02C175.09,41.02 176.17,41.48 176.95,42.42C177.75,43.37 178.12,44.74 178.11,46.54L170.36,46.54L170.35,46.54ZM183.86,51.3C183.72,51.32 183.53,51.37 183.3,51.43C183.07,51.5 182.82,51.53 182.53,51.53C181.96,51.53 181.53,51.38 181.21,51.09C180.91,50.79 180.77,50.29 180.77,49.53L180.77,42.23L179.37,42.23L179.37,41.27L180.77,41.27L180.77,38.5L181.93,38.5L181.93,41.28L183.8,41.28L183.8,42.24L181.92,42.24L181.92,49.08C181.92,49.32 181.92,49.54 181.94,49.72C181.94,49.9 181.99,50.04 182.04,50.16C182.12,50.28 182.22,50.36 182.34,50.41C182.49,50.47 182.67,50.51 182.92,50.51C183.07,50.51 183.22,50.48 183.39,50.46C183.54,50.43 183.69,50.4 183.85,50.36L183.85,51.31L183.86,51.3ZM194.15,49.72L196.77,41.28L197.95,41.28L194.71,51.26L193.49,51.26L191.31,42.88L191.27,42.88L189.07,51.26L187.67,51.26L184.63,41.28L185.78,41.28L188.36,49.78L190.68,41.28L191.98,41.28L194.16,49.72L194.15,49.72ZM203.6,51.53C202.96,51.53 202.35,51.4 201.8,51.18C201.24,50.96 200.75,50.64 200.33,50.2C199.91,49.76 199.58,49.22 199.33,48.56C199.09,47.91 198.97,47.14 198.97,46.26C198.97,45.54 199.07,44.86 199.27,44.22C199.45,43.58 199.74,43.02 200.13,42.55C200.51,42.07 201,41.7 201.57,41.42C202.15,41.14 202.83,41.02 203.6,41.02C204.38,41.02 205.06,41.14 205.64,41.42C206.22,41.7 206.7,42.07 207.09,42.54C207.46,43.01 207.75,43.56 207.93,44.21C208.13,44.86 208.21,45.55 208.21,46.28C208.21,47.08 208.11,47.78 207.88,48.44C207.66,49.08 207.34,49.64 206.94,50.09C206.54,50.56 206.04,50.91 205.48,51.16C204.9,51.41 204.28,51.54 203.58,51.54L203.6,51.53ZM207,46.27C207,45.67 206.93,45.12 206.8,44.61C206.67,44.11 206.47,43.66 206.2,43.28C205.93,42.9 205.58,42.6 205.16,42.38C204.73,42.18 204.21,42.06 203.6,42.06C203,42.06 202.48,42.18 202.05,42.41C201.62,42.65 201.25,42.97 201,43.36C200.73,43.76 200.53,44.2 200.4,44.71C200.27,45.21 200.2,45.74 200.2,46.28C200.2,46.88 200.28,47.46 200.43,47.98C200.57,48.5 200.79,48.95 201.07,49.32C201.35,49.72 201.71,49.99 202.13,50.2C202.56,50.4 203.03,50.5 203.6,50.5C204.2,50.5 204.72,50.4 205.15,50.15C205.58,49.91 205.93,49.6 206.2,49.2C206.47,48.8 206.67,48.35 206.8,47.85C206.92,47.35 207,46.83 207,46.29L207,46.27ZM211.56,51.26L210.4,51.26L210.4,41.28L211.56,41.28L211.56,43.14L211.59,43.14C211.91,42.34 212.32,41.79 212.83,41.48C213.33,41.16 214.01,41.01 214.83,41.01L214.83,42.27C214.19,42.27 213.65,42.37 213.23,42.57C212.8,42.8 212.46,43.09 212.21,43.47C211.96,43.84 211.79,44.27 211.69,44.77C211.59,45.29 211.55,45.82 211.55,46.37L211.55,51.27L211.56,51.26ZM216.68,51.26L216.68,37.38L217.84,37.38L217.84,46.02L222.74,41.28L224.31,41.28L220.59,44.88L224.77,51.26L223.47,51.26L219.74,45.69L217.84,47.47L217.84,51.25L216.69,51.25L216.68,51.26Z" style="fill-opacity:0.347;"/>
</svg>