<?xml version="1.0" encoding="utf-8"?>
<!-- Generator: Adobe Illustrator 17.0.0, SVG Export Plug-In . SVG Version: 6.00 Build 0)  -->
<!DOCTYPE svg PUBLIC "-//W3C//DTD SVG 1.1//EN" "http://www.w3.org/Graphics/SVG/1.1/DTD/svg11.dtd">
<svg version="1.1" id="Layer_1" xmlns="http://www.w3.org/2000/svg" xmlns:xlink="http://www.w3.org/1999/xlink" x="0px" y="0px"
	 width="492.764px" height="319.061px" viewBox="0 0 492.764 319.061" enable-background="new 0 0 492.764 319.061"
	 xml:space="preserve">
<rect x="40.68" y="41.999" fill="#FFFFFF" width="451.952" height="233.384"/>
<g>
	<rect x="488.375" y="227.965" fill="#2459FE" width="16.174" height="47.283"/>
	<rect x="40.694" y="264.165" fill="#2459FE" width="451.98" height="11.083"/>
	<g>
		<path fill="#F2F2F3" d="M492.521,228.146c0.679-2.446-0.33-3.198-2.746-3.196c-6.483,0.005-12.983-0.552-19.446-0.246
			c-18.337,0.869-35.768-2.767-52.203-10.661c-13.341-6.408-26.837-9.377-41.47-5.515c-5.809,1.533-10.743-0.791-15.012-4.746
			c-3.699-3.427-6.308-7.707-9.267-11.72c-4.425-6.003-9.31-7.235-16.146-4.246c-6.223,2.721-11.068,7.293-15.892,11.882
			c-9.389,8.932-9.358,8.941-13.64-3.276c-6.769-19.315-11.872-39.125-17.444-58.796c-1.179-4.163-2.393-8.348-4.916-11.936
			c-2.525-3.59-5.621-3.566-7.832,0.24c-1.487,2.56-2.507,5.424-3.501,8.236c-2.822,7.985-4.458,16.374-7.998,24.113
			c-2.623,5.734-6.191,6.005-9.633,0.676c-1.334-2.065-2.13-4.493-3.058-6.801c-0.994-2.472-1.969-4.929-3.622-7.067
			c-4.822-6.237-8.586-6.107-12.491,0.682c-3.847,6.689-5.694,14.154-7.871,21.483c-2.788,9.387-3.937,19.256-8.01,28.258
			c-5.616,12.41-13.126,15.113-25.164,9.009c-2.829-1.434-5.396-1.592-8.02-0.072c-2.436,1.411-4.799,2.971-7.079,4.625
			c-13.186,9.567-17.399,8.259-22.872-7.149c-0.6-1.688-0.894-3.945-3.1-4.107c-2.357-0.174-3.259,1.975-4.157,3.748
			c-3.02,5.96-4.81,12.365-6.656,18.748c-1.433,4.956-2.734,5.615-7.56,3.595c-3.976-1.664-7.758-3.784-11.975-4.875
			c-4.482-1.16-8.602-0.221-11.15,3.518c-4.386,6.434-10.57,8.193-17.707,8.129c-12.986-0.117-25.828-1.682-38.616-3.865
			c-4.084-0.697-8.242-0.963-12.369-1.393c-2.106-0.219-3.738,0.143-3.064,2.905c-0.039,13.652,0.222,27.315-0.265,40.951
			c-0.191,5.341,1.605,6.111,6.371,6.104c98.871-0.138,197.741-0.107,296.612-0.109c48.023-0.001,96.045,0.003,144.068-0.011
			c2.512-0.001,5.24,0.893,5.141-3.665C492.449,257.119,492.569,242.631,492.521,228.146z"/>
		<path fill="#2459FE" d="M492.521,228.146c0.047,14.485-0.073,28.973,0.24,43.452c0.098,4.558-2.63,3.664-5.141,3.665
			c-48.023,0.014-96.045,0.01-144.068,0.011c-98.871,0.002-197.741-0.029-296.612,0.109c-4.766,0.007-6.562-0.763-6.371-6.104
			c0.487-13.636,0.226-27.299,0.265-40.952c15.391,1.086,30.501,4.514,45.919,5.453c10.676,0.65,20.955,0.914,28.24-9.194
			c2.438-3.383,6.524-2.954,10.129-1.658c3.745,1.347,7.334,3.127,11.06,4.533c5.055,1.907,7.788,0.546,9.539-4.613
			c0.694-2.044,1.157-4.167,1.847-6.213c1.614-4.788,2.812-9.761,5.947-14.579c1.42,3.24,2.424,6.011,3.799,8.582
			c4.329,8.091,10.32,9.804,18.191,5.162c3.14-1.851,6.175-3.927,9.053-6.165c3.765-2.928,7.122-3.544,11.744-1.089
			c9.785,5.198,18.84,2.12,24.629-7.479c3.04-5.041,4.93-10.515,6.286-16.208c2.775-11.646,5.438-23.334,10.139-34.401
			c1.061-2.497,1.78-6.054,5.097-6.066c3.167-0.012,4.236,3.393,5.627,5.782c0.909,1.561,1.342,3.394,2.051,5.079
			c0.773,1.836,1.408,3.775,2.468,5.436c4.744,7.431,11.198,7.146,15.038-0.697c2.937-5.997,4.532-12.492,6.507-18.842
			c1.185-3.808,2.423-7.603,3.778-11.353c0.482-1.335,0.884-3.273,2.689-3.164c1.627,0.098,2.248,1.851,2.753,3.249
			c1.016,2.81,2.009,5.638,2.822,8.512c6.017,21.277,11.401,42.753,19.902,63.243c4.243,10.227,6.041,10.616,13.867,2.976
			c4.641-4.532,9.143-9.212,14.811-12.536c7.05-4.133,11.556-3.195,16.127,3.409c1.514,2.187,3.027,4.384,4.682,6.463
			c6.261,7.866,13.754,12.153,24.322,9.451c11.73-2.999,22.97-1.013,33.874,4.209c8.537,4.088,17.402,7.518,26.65,9.688
			C457.604,229.33,475.119,227.822,492.521,228.146z"/>
		<path fill="#2053BA" d="M492.521,228.146c-17.403-0.324-34.917,1.184-52.101-2.849c-9.248-2.171-18.113-5.6-26.65-9.688
			c-10.905-5.222-22.144-7.208-33.874-4.209c-10.568,2.702-18.061-1.586-24.322-9.451c-1.655-2.079-3.168-4.276-4.682-6.463
			c-4.571-6.603-9.077-7.542-16.127-3.409c-5.668,3.323-10.17,8.004-14.811,12.536c-7.826,7.64-9.624,7.251-13.867-2.976
			c-8.502-20.491-13.885-41.967-19.902-63.243c-0.813-2.874-1.806-5.702-2.822-8.512c-0.505-1.398-1.126-3.151-2.753-3.249
			c-1.804-0.109-2.207,1.829-2.689,3.164c-1.355,3.75-2.593,7.545-3.778,11.353c-1.975,6.35-3.57,12.845-6.507,18.842
			c-3.84,7.843-10.294,8.128-15.038,0.697c-1.06-1.66-1.695-3.6-2.468-5.436c-0.709-1.685-1.142-3.518-2.051-5.079
			c-1.39-2.388-2.46-5.794-5.627-5.782c-3.318,0.012-4.037,3.569-5.097,6.066c-4.701,11.067-7.364,22.755-10.139,34.401
			c-1.357,5.693-3.246,11.168-6.286,16.208c-5.789,9.599-14.844,12.677-24.629,7.479c-4.622-2.455-7.979-1.839-11.744,1.089
			c-2.878,2.238-5.913,4.314-9.053,6.165c-7.872,4.642-13.862,2.929-18.191-5.162c-1.376-2.571-2.38-5.342-3.799-8.582
			c-3.135,4.817-4.333,9.791-5.947,14.579c-0.69,2.046-1.153,4.168-1.847,6.213c-1.751,5.158-4.484,6.52-9.539,4.613
			c-3.726-1.406-7.315-3.187-11.06-4.533c-3.605-1.296-7.691-1.725-10.129,1.658c-7.285,10.108-17.564,9.844-28.24,9.194
			c-15.418-0.939-30.528-4.368-45.919-5.453c-0.673-2.761,0.958-3.124,3.064-2.905c4.127,0.43,8.286,0.696,12.369,1.393
			c12.788,2.183,25.63,3.748,38.616,3.865c7.137,0.064,13.321-1.694,17.707-8.129c2.549-3.739,6.669-4.678,11.15-3.518
			c4.216,1.091,7.999,3.211,11.975,4.875c4.826,2.02,6.127,1.361,7.56-3.595c1.846-6.383,3.636-12.787,6.656-18.748
			c0.899-1.774,1.8-3.922,4.157-3.748c2.207,0.163,2.501,2.419,3.1,4.107c5.473,15.407,9.686,16.716,22.872,7.149
			c2.28-1.654,4.643-3.214,7.079-4.625c2.624-1.52,5.191-1.363,8.02,0.072c12.038,6.104,19.548,3.401,25.164-9.009
			c4.074-9.002,5.222-18.871,8.01-28.258c2.177-7.328,4.023-14.794,7.871-21.483c3.905-6.79,7.669-6.919,12.491-0.682
			c1.653,2.138,2.628,4.595,3.622,7.067c0.928,2.308,1.724,4.737,3.058,6.801c3.443,5.329,7.01,5.057,9.633-0.676
			c3.54-7.738,5.176-16.127,7.998-24.113c0.994-2.812,2.013-5.676,3.501-8.236c2.211-3.806,5.307-3.831,7.832-0.24
			c2.524,3.589,3.737,7.773,4.916,11.936c5.572,19.671,10.674,39.481,17.444,58.796c4.282,12.218,4.252,12.209,13.64,3.276
			c4.823-4.589,9.668-9.161,15.892-11.882c6.836-2.989,11.72-1.757,16.146,4.246c2.958,4.013,5.567,8.293,9.267,11.72
			c4.268,3.955,9.202,6.279,15.012,4.746c14.633-3.862,28.129-0.893,41.47,5.515c16.435,7.895,33.866,11.53,52.203,10.661
			c6.463-0.306,12.963,0.25,19.446,0.246C492.192,224.948,493.201,225.7,492.521,228.146z"/>
	</g>
</g>
<g>
	<g>
		<line fill="none" stroke="#AAADAF" stroke-miterlimit="10" x1="23.361" y1="295.332" x2="486.794" y2="295.332"/>
		<g>
			<polygon fill="#AAADAF" points="483.985,299.035 485.559,295.332 483.985,291.629 492.764,295.332 			"/>
		</g>
	</g>
</g>
<g>
	<g>
		<line fill="none" stroke="#AAADAF" stroke-miterlimit="10" x1="23.361" y1="295.801" x2="23.361" y2="47.968"/>
		<g>
			<polygon fill="#AAADAF" points="27.064,50.777 23.361,49.204 19.657,50.777 23.361,41.999 			"/>
		</g>
	</g>
</g>
<g>
	<path fill="#AAADAF" d="M250.839,309.058h-1.584v5.843h-2.097v-5.843h-1.361v-1.616h1.361v-2.737h2.097v2.737h1.584V309.058z"/>
	<path fill="#AAADAF" d="M252.07,304.849c0-0.704,0.608-1.249,1.328-1.249c0.736,0,1.329,0.545,1.329,1.249
		s-0.593,1.265-1.329,1.265C252.678,306.113,252.07,305.553,252.07,304.849z M252.358,307.441h2.097v7.459h-2.097V307.441z"/>
	<path fill="#AAADAF" d="M268.682,310.803v4.098h-2.112v-3.938c0-1.169-0.608-1.648-1.345-1.648
		c-0.832-0.017-1.425,0.512-1.473,1.633v3.953h-2.097v-3.953c0-1.169-0.608-1.633-1.313-1.633c-0.753,0-1.521,0.352-1.521,1.696
		v3.89h-2.097v-7.459h2.097v1.328c0.224-1.024,1.28-1.521,2.112-1.521c1.104,0,1.969,0.528,2.401,1.44
		c0.576-1.088,1.729-1.44,2.497-1.44C267.706,307.249,268.682,308.562,268.682,310.803z"/>
	<path fill="#AAADAF" d="M278.201,311.843h-5.634c0.224,0.864,0.928,1.345,1.937,1.345c0.752,0,1.505-0.304,1.953-0.832l1.232,1.232
		c-0.704,0.944-2.018,1.457-3.33,1.457c-2.288,0-3.969-1.569-3.969-3.874c0-2.417,1.824-3.922,3.969-3.922
		c2.129,0,3.874,1.505,3.874,3.794C278.233,311.251,278.217,311.507,278.201,311.843z M276.136,310.482
		c-0.064-0.88-0.801-1.408-1.745-1.408c-0.848,0-1.601,0.4-1.824,1.408H276.136z"/>
</g>
<g>
	<path fill="#AAADAF" d="M6.101,209.359l2.001,0.479c-0.24,0.448-0.272,0.816-0.272,1.073c0,1.072,0.993,1.809,3.122,1.809h2.561
		v2.096h-7.46v-2.08h1.585c-1.249-0.416-1.777-1.265-1.777-2.193C5.86,210.143,5.925,209.695,6.101,209.359z"/>
	<path fill="#AAADAF" d="M10.454,200.895v5.634c0.864-0.224,1.345-0.929,1.345-1.937c0-0.752-0.304-1.505-0.832-1.953l1.232-1.232
		c0.944,0.704,1.457,2.017,1.457,3.33c0,2.288-1.569,3.969-3.874,3.969c-2.417,0-3.922-1.824-3.922-3.969
		c0-2.129,1.505-3.874,3.794-3.874C9.862,200.862,10.118,200.878,10.454,200.895z M9.094,202.959
		c-0.88,0.064-1.408,0.801-1.408,1.744c0,0.849,0.4,1.602,1.408,1.825V202.959z"/>
	<path fill="#AAADAF" d="M11.11,199.554v-1.969c0.433,0,0.896-0.368,0.896-1.104c0-0.608-0.256-1.072-0.688-1.072
		c-0.319,0-0.479,0.256-0.624,0.816l-0.24,0.992c-0.512,1.921-1.584,2.177-2.368,2.177c-1.153,0-2.226-1.2-2.226-2.929
		c0-1.361,0.673-2.961,2.434-2.945v2c-0.496,0-0.769,0.417-0.769,0.913c0,0.479,0.24,0.864,0.624,0.864
		c0.353,0,0.528-0.32,0.641-0.736l0.32-1.232c0.479-1.793,1.601-2.018,2.208-2.018c1.569,0,2.338,1.602,2.338,3.139
		C13.656,198.018,12.76,199.537,11.11,199.554z"/>
	<path fill="#AAADAF" d="M9.767,191.953c-2.369,0-3.906-1.889-3.906-4.018s1.537-4.018,3.906-4.018c2.353,0,3.89,1.889,3.89,4.018
		S12.119,191.953,9.767,191.953z M9.767,186.047c-1.169,0-1.953,0.849-1.953,1.889c0,1.041,0.784,1.889,1.953,1.889
		c1.152,0,1.937-0.848,1.937-1.889C11.703,186.896,10.919,186.047,9.767,186.047z"/>
	<path fill="#AAADAF" d="M6.053,174.911h7.459v2.097h-1.217c0.977,0.32,1.393,1.504,1.393,2.24c0,1.953-1.296,2.978-3.537,2.961
		H6.053v-2.096h3.873c1.169,0,1.697-0.705,1.697-1.426c0-0.752-0.4-1.68-1.745-1.68H6.053V174.911z"/>
	<path fill="#AAADAF" d="M6.101,167.184l2.001,0.48c-0.24,0.448-0.272,0.816-0.272,1.073c0,1.072,0.993,1.809,3.122,1.809h2.561
		v2.097h-7.46v-2.081h1.585c-1.249-0.416-1.777-1.265-1.777-2.193C5.86,167.968,5.925,167.52,6.101,167.184z"/>
	<path fill="#AAADAF" d="M9.75,166.546c-2.369,0-3.89-1.921-3.89-4.098c0-1.36,0.641-2.449,1.601-3.153l1.104,1.569
		c-0.464,0.336-0.752,0.96-0.752,1.568c0,1.185,0.849,1.985,1.937,1.985c1.104,0,1.953-0.8,1.953-1.985
		c0-0.608-0.288-1.232-0.752-1.568l1.104-1.569c0.977,0.705,1.602,1.793,1.602,3.153C13.656,164.625,12.119,166.546,9.75,166.546z"
		/>
	<path fill="#AAADAF" d="M10.454,150.415v5.634c0.864-0.224,1.345-0.928,1.345-1.937c0-0.752-0.304-1.505-0.832-1.953l1.232-1.232
		c0.944,0.704,1.457,2.017,1.457,3.33c0,2.289-1.569,3.969-3.874,3.969c-2.417,0-3.922-1.825-3.922-3.969
		c0-2.129,1.505-3.874,3.794-3.874C9.862,150.383,10.118,150.398,10.454,150.415z M9.094,152.479c-0.88,0.064-1.408,0.8-1.408,1.745
		c0,0.848,0.4,1.601,1.408,1.825V152.479z"/>
	<path fill="#AAADAF" d="M11.11,149.074v-1.969c0.433,0,0.896-0.368,0.896-1.104c0-0.608-0.256-1.072-0.688-1.072
		c-0.319,0-0.479,0.256-0.624,0.816l-0.24,0.992c-0.512,1.921-1.584,2.177-2.368,2.177c-1.153,0-2.226-1.2-2.226-2.929
		c0-1.36,0.673-2.961,2.434-2.945v2c-0.496,0-0.769,0.417-0.769,0.913c0,0.48,0.24,0.864,0.624,0.864
		c0.353,0,0.528-0.32,0.641-0.736l0.32-1.232c0.479-1.793,1.601-2.017,2.208-2.017c1.569,0,2.338,1.601,2.338,3.138
		C13.656,147.538,12.76,149.058,11.11,149.074z"/>
</g>
<g>
	<g>
		<path fill="#141921" d="M196.105,2.796v12.405h-2.503v-5.042h-4.627v5.042h-2.503V2.796h2.503v5.113h4.627V2.796H196.105z"/>
		<path fill="#141921" d="M198.28,10.988c0-2.665,2.125-4.394,4.52-4.394s4.52,1.729,4.52,4.394c0,2.646-2.125,4.375-4.52,4.375
			S198.28,13.635,198.28,10.988z M204.924,10.988c0-1.314-0.954-2.197-2.125-2.197s-2.125,0.883-2.125,2.197
			c0,1.296,0.954,2.179,2.125,2.179S204.924,12.284,204.924,10.988z"/>
		<path fill="#141921" d="M221.594,6.811l-2.971,8.391h-2.017l-1.729-5.456l-1.674,5.456h-2.017l-3.061-8.391h2.557l1.584,5.113
			l1.603-5.113h1.98l1.603,5.113l1.584-5.113H221.594z"/>
		<path fill="#141921" d="M233.958,12.23h-4.646l-0.99,2.971h-2.665l4.627-12.405h2.701l4.609,12.405h-2.628L233.958,12.23z
			 M233.202,10.052l-1.584-4.663l-1.566,4.663H233.202z"/>
		<path fill="#141921" d="M253.13,2.796l-4.214,12.405h-1.998l-1.801-6.734l-1.765,6.734h-1.998l-4.195-12.405h2.701l2.521,8.084
			l1.746-6.338h2.034l1.711,6.338l2.539-8.084C250.411,2.796,253.13,2.796,253.13,2.796z"/>
		<path fill="#141921" d="M254.062,11.546h2.503c0.018,0.9,0.882,1.639,2.034,1.639c1.116,0,1.854-0.576,1.854-1.458
			c0-0.685-0.504-1.171-1.566-1.495L257.374,9.8c-2.719-0.721-3.204-2.359-3.204-3.476c0-2.214,1.908-3.69,4.285-3.69
			c2.341,0,4.141,1.422,4.141,3.781h-2.502c0-0.883-0.612-1.567-1.693-1.567c-0.972,0-1.71,0.595-1.71,1.423
			c0,0.306,0.09,0.954,1.387,1.314l1.386,0.396c1.873,0.521,3.512,1.512,3.512,3.619c0,2.466-2.107,3.763-4.448,3.763
			C255.88,15.363,254.062,13.743,254.062,11.546z"/>
		<path fill="#141921" d="M269.037,10.97c0-2.665,2.161-4.375,4.609-4.375c1.531,0,2.755,0.72,3.548,1.801l-1.765,1.242
			c-0.378-0.522-1.08-0.847-1.765-0.847c-1.332,0-2.232,0.954-2.232,2.179c0,1.242,0.9,2.197,2.232,2.197
			c0.685,0,1.387-0.324,1.765-0.847l1.765,1.242c-0.793,1.099-2.017,1.801-3.548,1.801C271.198,15.363,269.037,13.635,269.037,10.97
			z"/>
		<path fill="#141921" d="M287.274,10.592v4.609h-2.359v-4.357c0-1.332-0.792-1.927-1.603-1.927c-0.846,0-1.891,0.45-1.891,1.98
			v4.304h-2.358V2.327h2.358v5.798c0.36-1.063,1.711-1.53,2.521-1.53C286.139,6.595,287.291,8.071,287.274,10.592z"/>
		<path fill="#141921" d="M298.397,6.811v8.391h-2.358v-1.044c-0.595,0.828-1.765,1.206-2.701,1.206
			c-2.16,0-4.123-1.675-4.123-4.375c0-2.701,1.963-4.376,4.123-4.376c0.973,0,2.106,0.36,2.701,1.207V6.811H298.397z
			 M295.966,10.988c0-1.297-1.08-2.161-2.179-2.161c-1.188,0-2.179,0.918-2.179,2.161c0,1.224,0.99,2.179,2.179,2.179
			C294.94,13.167,295.966,12.267,295.966,10.988z"/>
		<path fill="#141921" d="M307.09,6.864l-0.54,2.251c-0.505-0.27-0.919-0.306-1.207-0.306c-1.206,0-2.034,1.116-2.034,3.511v2.881
			h-2.358v-8.39h2.341v1.782c0.468-1.404,1.422-1.998,2.466-1.998C306.208,6.595,306.712,6.667,307.09,6.864z"/>
		<path fill="#141921" d="M317.009,6.811v7.238c0,3.673-1.855,5.384-4.826,5.384c-1.8,0-3.367-1.009-4.087-2.557l1.963-0.847
			c0.359,0.757,1.224,1.297,2.124,1.297c1.513,0,2.467-0.829,2.467-3.025v-0.126c-0.612,0.811-1.765,1.188-2.7,1.188
			c-2.161,0-4.124-1.675-4.124-4.375c0-2.701,1.963-4.376,4.124-4.376c0.954,0,2.088,0.379,2.7,1.188V6.81L317.009,6.811
			L317.009,6.811z M314.578,10.988c0-1.297-1.08-2.161-2.178-2.161c-1.188,0-2.179,0.918-2.179,2.161
			c0,1.224,0.99,2.179,2.179,2.179C313.552,13.167,314.578,12.267,314.578,10.988z"/>
		<path fill="#141921" d="M327.844,11.762h-6.338c0.252,0.973,1.044,1.513,2.179,1.513c0.846,0,1.692-0.342,2.196-0.937l1.387,1.387
			c-0.792,1.063-2.269,1.639-3.745,1.639c-2.575,0-4.466-1.765-4.466-4.357c0-2.719,2.053-4.411,4.466-4.411
			c2.395,0,4.357,1.692,4.357,4.268C327.88,11.096,327.862,11.384,327.844,11.762z M325.521,10.231
			c-0.071-0.99-0.899-1.584-1.962-1.584c-0.954,0-1.801,0.45-2.053,1.584H325.521z"/>
	</g>
	<path fill="#141921" d="M329.27,12.528h2.215c0,0.486,0.414,1.009,1.242,1.009c0.685,0,1.207-0.288,1.207-0.774
		c0-0.36-0.288-0.54-0.919-0.702l-1.116-0.271c-2.16-0.576-2.448-1.782-2.448-2.664c0-1.297,1.351-2.503,3.295-2.503
		c1.53,0,3.331,0.756,3.313,2.736h-2.25c0-0.558-0.469-0.864-1.026-0.864c-0.54,0-0.973,0.271-0.973,0.702
		c0,0.396,0.36,0.595,0.828,0.721l1.387,0.36c2.017,0.54,2.269,1.8,2.269,2.484c0,1.765-1.801,2.629-3.529,2.629
		C330.999,15.391,329.289,14.382,329.27,12.528z"/>
</g>
<g>
	<path fill="#FFFFFF" d="M204.657,248.86c0-3.529,2.772-6.374,6.302-6.374c3.511,0,6.32,2.845,6.32,6.374
		c0,3.511-2.809,6.355-6.32,6.355C207.429,255.215,204.657,252.371,204.657,248.86z M214.758,248.86
		c0-2.233-1.584-4.016-3.799-4.016c-2.232,0-3.799,1.782-3.799,4.016c0,2.232,1.567,4.015,3.799,4.015
		C213.173,252.874,214.758,251.092,214.758,248.86z"/>
	<path fill="#FFFFFF" d="M228.978,242.648v12.405h-2.25l-4.501-7.778v7.778h-2.502v-12.405h2.322l4.43,7.688v-7.688H228.978z"/>
	<path fill="#FFFFFF" d="M232.178,242.648h2.503v10.19h4.699v2.215h-7.202L232.178,242.648L232.178,242.648z"/>
	<path fill="#FFFFFF" d="M250.362,242.648l-4.825,6.806v5.6h-2.503v-5.636l-4.808-6.77h2.989l3.061,4.717l3.115-4.717H250.362z"/>
	<path fill="#FFFFFF" d="M264.958,246.699c0,2.034-1.242,4.016-4.051,4.016h-2.557v4.339h-2.503v-12.405h5.06
		C263.716,242.648,264.958,244.664,264.958,246.699z M262.438,246.699c0-0.9-0.45-1.837-1.621-1.837h-2.467v3.655h2.431
		C261.988,248.517,262.438,247.58,262.438,246.699z"/>
	<path fill="#FFFFFF" d="M273.149,252.082h-4.646l-0.99,2.971h-2.665l4.628-12.405h2.7l4.609,12.405h-2.629L273.149,252.082z
		 M272.392,249.904l-1.584-4.663l-1.566,4.663H272.392z"/>
	<path fill="#FFFFFF" d="M287.711,242.648l-4.825,6.806v5.6h-2.503v-5.636l-4.808-6.77h2.989l3.061,4.717l3.115-4.717H287.711z"/>
	<path fill="#FFFFFF" d="M295.702,244.862v2.989h4.105v2.196h-4.105v5.006h-2.503v-12.405h7.671v2.214H295.702z"/>
	<path fill="#FFFFFF" d="M302.126,248.86c0-3.529,2.773-6.374,6.302-6.374c3.512,0,6.32,2.845,6.32,6.374
		c0,3.511-2.809,6.355-6.32,6.355C304.9,255.215,302.126,252.371,302.126,248.86z M312.228,248.86c0-2.233-1.585-4.016-3.8-4.016
		c-2.232,0-3.799,1.782-3.799,4.016c0,2.232,1.566,4.015,3.799,4.015C310.643,252.874,312.228,251.092,312.228,248.86z"/>
	<path fill="#FFFFFF" d="M320.542,250.606h-0.846v4.447h-2.503v-12.405h4.951c2.845,0,4.069,2.017,4.069,4.051
		c0,1.765-0.918,3.349-3.007,3.781l3.223,4.573h-2.935L320.542,250.606z M319.697,248.589h1.998c1.404,0,1.999-0.847,1.999-1.837
		s-0.631-1.891-1.801-1.891h-2.196L319.697,248.589L319.697,248.589z"/>
	<path fill="#FFFFFF" d="M340.902,244.862h-3.421v10.191h-2.503v-10.191h-3.421v-2.214h9.345L340.902,244.862L340.902,244.862z"/>
	<path fill="#FFFFFF" d="M352.583,242.648v12.405h-2.503v-5.041h-4.627v5.041h-2.503v-12.405h2.503v5.113h4.627v-5.113H352.583z"/>
	<path fill="#FFFFFF" d="M355.785,242.648h2.503v12.405h-2.503V242.648z"/>
	<path fill="#FFFFFF" d="M360.788,251.398h2.502c0.019,0.9,0.883,1.639,2.035,1.639c1.116,0,1.854-0.576,1.854-1.458
		c0-0.685-0.504-1.171-1.566-1.495l-1.513-0.432c-2.719-0.721-3.205-2.359-3.205-3.476c0-2.215,1.909-3.69,4.285-3.69
		c2.341,0,4.142,1.422,4.142,3.78h-2.503c0-0.882-0.612-1.566-1.692-1.566c-0.972,0-1.71,0.595-1.71,1.423
		c0,0.306,0.09,0.954,1.386,1.314l1.387,0.396c1.872,0.521,3.511,1.512,3.511,3.618c0,2.467-2.106,3.764-4.447,3.764
		C362.606,255.215,360.788,253.595,360.788,251.398z"/>
</g>
<g>
	<path fill="#FFFFFF" d="M175.021,243.115l-4.825,6.806v5.6h-2.503v-5.636l-4.808-6.77h2.989l3.061,4.717l3.115-4.717H175.021z"/>
	<path fill="#FFFFFF" d="M174.892,249.325c0-3.528,2.773-6.373,6.302-6.373c3.511,0,6.32,2.845,6.32,6.373
		c0,3.512-2.809,6.356-6.32,6.356C177.665,255.682,174.892,252.837,174.892,249.325z M184.993,249.325
		c0-2.232-1.584-4.015-3.799-4.015c-2.233,0-3.799,1.782-3.799,4.015c0,2.233,1.566,4.016,3.799,4.016
		C183.408,253.341,184.993,251.559,184.993,249.325z"/>
	<path fill="#FFFFFF" d="M189.652,251.09v-7.976h2.503v7.832c0,1.675,1.081,2.358,2.233,2.358c1.17,0,2.25-0.684,2.25-2.358v-7.832
		h2.502v7.976c0,2.863-2.214,4.592-4.753,4.592C191.866,255.682,189.652,253.953,189.652,251.09z"/>
</g>
</svg>
