<?xml version="1.0" encoding="utf-8"?>
<!-- Generator: Adobe Illustrator 17.0.0, SVG Export Plug-In . SVG Version: 6.00 Build 0)  -->
<!DOCTYPE svg PUBLIC "-//W3C//DTD SVG 1.1//EN" "http://www.w3.org/Graphics/SVG/1.1/DTD/svg11.dtd">
<svg version="1.1" id="Layer_1" xmlns="http://www.w3.org/2000/svg" xmlns:xlink="http://www.w3.org/1999/xlink" x="0px" y="0px"
	 width="492.8px" height="319.1px" viewBox="0 0 492.8 319.1" enable-background="new 0 0 492.8 319.1" xml:space="preserve">
<rect x="40.7" y="42" fill="#FFFFFF" width="452" height="233.4"/>
<rect x="40.6" y="78.3" fill="#2459FE" width="452.1" height="197.1"/>
<g>
	<g>
		<path fill="#F2F2F3" d="M492.5,228.1c0.7-2.4-0.3-3.2-2.7-3.2c-6.5,0-13-0.6-19.4-0.2c-18.3,0.9-35.8-2.8-52.2-10.7
			c-13.3-6.4-26.8-9.4-41.5-5.5c-5.8,1.5-10.7-0.8-15-4.7c-3.7-3.4-6.3-7.7-9.3-11.7c-4.4-6-9.3-7.2-16.1-4.2
			c-6.2,2.7-11.1,7.3-15.9,11.9c-9.4,8.9-9.4,8.9-13.6-3.3c-6.8-19.3-11.9-39.1-17.4-58.8c-1.2-4.2-2.4-8.3-4.9-11.9
			c-2.5-3.6-5.6-3.6-7.8,0.2c-1.5,2.6-2.5,5.4-3.5,8.2c-2.8,8-4.5,16.4-8,24.1c-2.6,5.7-6.2,6-9.6,0.7c-1.3-2.1-2.1-4.5-3.1-6.8
			c-1-2.5-2-4.9-3.6-7.1c-4.8-6.2-8.6-6.1-12.5,0.7c-3.8,6.7-5.7,14.2-7.9,21.5c-2.8,9.4-3.9,19.3-8,28.3
			c-5.6,12.4-13.1,15.1-25.2,9c-2.8-1.4-5.4-1.6-8-0.1c-2.4,1.4-4.8,3-7.1,4.6c-13.2,9.6-17.4,8.3-22.9-7.1
			c-0.6-1.7-0.9-3.9-3.1-4.1c-2.4-0.2-3.3,2-4.2,3.7c-3,6-4.8,12.4-6.7,18.7c-1.4,5-2.7,5.6-7.6,3.6c-4-1.7-7.8-3.8-12-4.9
			c-4.5-1.2-8.6-0.2-11.2,3.5c-4.4,6.4-10.6,8.2-17.7,8.1c-13-0.1-25.8-1.7-38.6-3.9c-4.1-0.7-8.2-1-12.4-1.4
			c-2.1-0.2-3.7,0.1-3.1,2.9c0,13.7,0.2,27.3-0.3,41c-0.2,5.3,1.6,6.1,6.4,6.1c98.9-0.1,197.7-0.1,296.6-0.1c48,0,96,0,144.1,0
			c2.5,0,5.2,0.9,5.1-3.7C492.4,257.1,492.6,242.6,492.5,228.1z"/>
		<path fill="#D6D9FF" d="M492.5,228.1c0,14.5-0.1,29,0.2,43.5c0.1,4.6-2.6,3.7-5.1,3.7c-48,0-96,0-144.1,0
			c-98.9,0-197.7,0-296.6,0.1c-4.8,0-6.6-0.8-6.4-6.1c0.5-13.6,0.2-27.3,0.3-41c15.4,1.1,30.5,4.5,45.9,5.5
			c10.7,0.6,21,0.9,28.2-9.2c2.4-3.4,6.5-3,10.1-1.7c3.7,1.3,7.3,3.1,11.1,4.5c5.1,1.9,7.8,0.5,9.5-4.6c0.7-2,1.2-4.2,1.8-6.2
			c1.6-4.8,2.8-9.8,5.9-14.6c1.4,3.2,2.4,6,3.8,8.6c4.3,8.1,10.3,9.8,18.2,5.2c3.1-1.9,6.2-3.9,9.1-6.2c3.8-2.9,7.1-3.5,11.7-1.1
			c9.8,5.2,18.8,2.1,24.6-7.5c3-5,4.9-10.5,6.3-16.2c2.8-11.6,5.4-23.3,10.1-34.4c1.1-2.5,1.8-6.1,5.1-6.1c3.2,0,4.2,3.4,5.6,5.8
			c0.9,1.6,1.3,3.4,2.1,5.1c0.8,1.8,1.4,3.8,2.5,5.4c4.7,7.4,11.2,7.1,15-0.7c2.9-6,4.5-12.5,6.5-18.8c1.2-3.8,2.4-7.6,3.8-11.4
			c0.5-1.3,0.9-3.3,2.7-3.2c1.6,0.1,2.2,1.9,2.8,3.2c1,2.8,2,5.6,2.8,8.5c6,21.3,11.4,42.8,19.9,63.2c4.2,10.2,6,10.6,13.9,3
			c4.6-4.5,9.1-9.2,14.8-12.5c7-4.1,11.6-3.2,16.1,3.4c1.5,2.2,3,4.4,4.7,6.5c6.3,7.9,13.8,12.2,24.3,9.5c11.7-3,23-1,33.9,4.2
			c8.5,4.1,17.4,7.5,26.6,9.7C457.6,229.3,475.1,227.8,492.5,228.1z"/>
		<path fill="#6782E5" stroke="#6782E5" stroke-miterlimit="10" d="M492.5,228.1c-17.4-0.3-34.9,1.2-52.1-2.8
			c-9.2-2.2-18.1-5.6-26.6-9.7c-10.9-5.2-22.1-7.2-33.9-4.2c-10.6,2.7-18.1-1.6-24.3-9.5c-1.7-2.1-3.2-4.3-4.7-6.5
			c-4.6-6.6-9.1-7.5-16.1-3.4c-5.7,3.3-10.2,8-14.8,12.5c-7.8,7.6-9.6,7.3-13.9-3c-8.5-20.5-13.9-42-19.9-63.2
			c-0.8-2.9-1.8-5.7-2.8-8.5c-0.5-1.4-1.1-3.2-2.8-3.2c-1.8-0.1-2.2,1.8-2.7,3.2c-1.4,3.8-2.6,7.5-3.8,11.4
			c-2,6.4-3.6,12.8-6.5,18.8c-3.8,7.8-10.3,8.1-15,0.7c-1.1-1.7-1.7-3.6-2.5-5.4c-0.7-1.7-1.1-3.5-2.1-5.1c-1.4-2.4-2.5-5.8-5.6-5.8
			c-3.3,0-4,3.6-5.1,6.1c-4.7,11.1-7.4,22.8-10.1,34.4c-1.4,5.7-3.2,11.2-6.3,16.2c-5.8,9.6-14.8,12.7-24.6,7.5
			c-4.6-2.5-8-1.8-11.7,1.1c-2.9,2.2-5.9,4.3-9.1,6.2c-7.9,4.6-13.9,2.9-18.2-5.2c-1.4-2.6-2.4-5.3-3.8-8.6
			c-3.1,4.8-4.3,9.8-5.9,14.6c-0.7,2-1.2,4.2-1.8,6.2c-1.8,5.2-4.5,6.5-9.5,4.6c-3.7-1.4-7.3-3.2-11.1-4.5
			c-3.6-1.3-7.7-1.7-10.1,1.7c-7.3,10.1-17.6,9.8-28.2,9.2c-15.4-0.9-30.5-4.4-45.9-5.5c-0.7-2.8,1-3.1,3.1-2.9
			c4.1,0.4,8.3,0.7,12.4,1.4c12.8,2.2,25.6,3.7,38.6,3.9c7.1,0.1,13.3-1.7,17.7-8.1c2.5-3.7,6.7-4.7,11.2-3.5c4.2,1.1,8,3.2,12,4.9
			c4.8,2,6.1,1.4,7.6-3.6c1.8-6.4,3.6-12.8,6.7-18.7c0.9-1.8,1.8-3.9,4.2-3.7c2.2,0.2,2.5,2.4,3.1,4.1c5.5,15.4,9.7,16.7,22.9,7.1
			c2.3-1.7,4.6-3.2,7.1-4.6c2.6-1.5,5.2-1.4,8,0.1c12,6.1,19.5,3.4,25.2-9c4.1-9,5.2-18.9,8-28.3c2.2-7.3,4-14.8,7.9-21.5
			c3.9-6.8,7.7-6.9,12.5-0.7c1.7,2.1,2.6,4.6,3.6,7.1c0.9,2.3,1.7,4.7,3.1,6.8c3.4,5.3,7,5.1,9.6-0.7c3.5-7.7,5.2-16.1,8-24.1
			c1-2.8,2-5.7,3.5-8.2c2.2-3.8,5.3-3.8,7.8-0.2c2.5,3.6,3.7,7.8,4.9,11.9c5.6,19.7,10.7,39.5,17.4,58.8c4.3,12.2,4.3,12.2,13.6,3.3
			c4.8-4.6,9.7-9.2,15.9-11.9c6.8-3,11.7-1.8,16.1,4.2c3,4,5.6,8.3,9.3,11.7c4.3,4,9.2,6.3,15,4.7c14.6-3.9,28.1-0.9,41.5,5.5
			c16.4,7.9,33.9,11.5,52.2,10.7c6.5-0.3,13,0.3,19.4,0.2C492.2,224.9,493.2,225.7,492.5,228.1z"/>
	</g>
	<rect x="40.7" y="264.2" fill="#D6D9FF" width="452" height="11.1"/>
</g>
<g>
	<g>
		<line fill="none" stroke="#AAADAF" stroke-miterlimit="10" x1="23.4" y1="295.3" x2="486.8" y2="295.3"/>
		<g>
			<polygon fill="#AAADAF" points="484,299 485.6,295.3 484,291.6 492.8,295.3 			"/>
		</g>
	</g>
</g>
<g>
	<g>
		<line fill="none" stroke="#AAADAF" stroke-miterlimit="10" x1="23.4" y1="295.8" x2="23.4" y2="48"/>
		<g>
			<polygon fill="#AAADAF" points="27.1,50.8 23.4,49.2 19.7,50.8 23.4,42 			"/>
		</g>
	</g>
</g>
<g>
	<path fill="#AAADAF" d="M250.8,309.1h-1.6v5.8h-2.1v-5.8h-1.4v-1.6h1.4v-2.7h2.1v2.7h1.6V309.1z"/>
	<path fill="#AAADAF" d="M252.1,304.8c0-0.7,0.6-1.2,1.3-1.2c0.7,0,1.3,0.5,1.3,1.2s-0.6,1.3-1.3,1.3
		C252.7,306.1,252.1,305.6,252.1,304.8z M252.4,307.4h2.1v7.5h-2.1V307.4z"/>
	<path fill="#AAADAF" d="M268.7,310.8v4.1h-2.1V311c0-1.2-0.6-1.6-1.3-1.6c-0.8,0-1.4,0.5-1.5,1.6v4h-2.1v-4c0-1.2-0.6-1.6-1.3-1.6
		c-0.8,0-1.5,0.4-1.5,1.7v3.9h-2.1v-7.5h2.1v1.3c0.2-1,1.3-1.5,2.1-1.5c1.1,0,2,0.5,2.4,1.4c0.6-1.1,1.7-1.4,2.5-1.4
		C267.7,307.2,268.7,308.6,268.7,310.8z"/>
	<path fill="#AAADAF" d="M278.2,311.8h-5.6c0.2,0.9,0.9,1.3,1.9,1.3c0.8,0,1.5-0.3,2-0.8l1.2,1.2c-0.7,0.9-2,1.5-3.3,1.5
		c-2.3,0-4-1.6-4-3.9c0-2.4,1.8-3.9,4-3.9c2.1,0,3.9,1.5,3.9,3.8C278.2,311.3,278.2,311.5,278.2,311.8z M276.1,310.5
		c-0.1-0.9-0.8-1.4-1.7-1.4c-0.8,0-1.6,0.4-1.8,1.4H276.1z"/>
</g>
<g>
	<path fill="#AAADAF" d="M6.1,209.4l2,0.5c-0.2,0.4-0.3,0.8-0.3,1.1c0,1.1,1,1.8,3.1,1.8h2.6v2.1H6.1v-2.1h1.6
		c-1.2-0.4-1.8-1.3-1.8-2.2C5.9,210.1,5.9,209.7,6.1,209.4z"/>
	<path fill="#AAADAF" d="M10.5,200.9v5.6c0.9-0.2,1.3-0.9,1.3-1.9c0-0.8-0.3-1.5-0.8-2l1.2-1.2c0.9,0.7,1.5,2,1.5,3.3
		c0,2.3-1.6,4-3.9,4c-2.4,0-3.9-1.8-3.9-4c0-2.1,1.5-3.9,3.8-3.9C9.9,200.9,10.1,200.9,10.5,200.9z M9.1,203
		c-0.9,0.1-1.4,0.8-1.4,1.7c0,0.8,0.4,1.6,1.4,1.8V203z"/>
	<path fill="#AAADAF" d="M11.1,199.6v-2c0.4,0,0.9-0.4,0.9-1.1c0-0.6-0.3-1.1-0.7-1.1c-0.3,0-0.5,0.3-0.6,0.8l-0.2,1
		c-0.5,1.9-1.6,2.2-2.4,2.2c-1.2,0-2.2-1.2-2.2-2.9c0-1.4,0.7-3,2.4-2.9v2c-0.5,0-0.8,0.4-0.8,0.9c0,0.5,0.2,0.9,0.6,0.9
		c0.4,0,0.5-0.3,0.6-0.7l0.3-1.2c0.5-1.8,1.6-2,2.2-2c1.6,0,2.3,1.6,2.3,3.1C13.7,198,12.8,199.5,11.1,199.6z"/>
	<path fill="#AAADAF" d="M9.8,192c-2.4,0-3.9-1.9-3.9-4s1.5-4,3.9-4c2.4,0,3.9,1.9,3.9,4S12.1,192,9.8,192z M9.8,186
		c-1.2,0-2,0.8-2,1.9c0,1,0.8,1.9,2,1.9c1.2,0,1.9-0.8,1.9-1.9C11.7,186.9,10.9,186,9.8,186z"/>
	<path fill="#AAADAF" d="M6.1,174.9h7.5v2.1h-1.2c1,0.3,1.4,1.5,1.4,2.2c0,2-1.3,3-3.5,3H6.1v-2.1h3.9c1.2,0,1.7-0.7,1.7-1.4
		c0-0.8-0.4-1.7-1.7-1.7H6.1V174.9z"/>
	<path fill="#AAADAF" d="M6.1,167.2l2,0.5c-0.2,0.4-0.3,0.8-0.3,1.1c0,1.1,1,1.8,3.1,1.8h2.6v2.1H6.1v-2.1h1.6
		c-1.2-0.4-1.8-1.3-1.8-2.2C5.9,168,5.9,167.5,6.1,167.2z"/>
	<path fill="#AAADAF" d="M9.8,166.5c-2.4,0-3.9-1.9-3.9-4.1c0-1.4,0.6-2.4,1.6-3.2l1.1,1.6c-0.5,0.3-0.8,1-0.8,1.6
		c0,1.2,0.8,2,1.9,2c1.1,0,2-0.8,2-2c0-0.6-0.3-1.2-0.8-1.6l1.1-1.6c1,0.7,1.6,1.8,1.6,3.2C13.7,164.6,12.1,166.5,9.8,166.5z"/>
	<path fill="#AAADAF" d="M10.5,150.4v5.6c0.9-0.2,1.3-0.9,1.3-1.9c0-0.8-0.3-1.5-0.8-2l1.2-1.2c0.9,0.7,1.5,2,1.5,3.3
		c0,2.3-1.6,4-3.9,4c-2.4,0-3.9-1.8-3.9-4c0-2.1,1.5-3.9,3.8-3.9C9.9,150.4,10.1,150.4,10.5,150.4z M9.1,152.5
		c-0.9,0.1-1.4,0.8-1.4,1.7c0,0.8,0.4,1.6,1.4,1.8V152.5z"/>
	<path fill="#AAADAF" d="M11.1,149.1v-2c0.4,0,0.9-0.4,0.9-1.1c0-0.6-0.3-1.1-0.7-1.1c-0.3,0-0.5,0.3-0.6,0.8l-0.2,1
		c-0.5,1.9-1.6,2.2-2.4,2.2c-1.2,0-2.2-1.2-2.2-2.9c0-1.4,0.7-3,2.4-2.9v2c-0.5,0-0.8,0.4-0.8,0.9c0,0.5,0.2,0.9,0.6,0.9
		c0.4,0,0.5-0.3,0.6-0.7l0.3-1.2c0.5-1.8,1.6-2,2.2-2c1.6,0,2.3,1.6,2.3,3.1C13.7,147.5,12.8,149.1,11.1,149.1z"/>
</g>
<line fill="none" stroke="#2053BA" stroke-width="3" stroke-miterlimit="10" x1="40.6" y1="78.3" x2="492.6" y2="78.3"/>
<g>
	<path d="M163.8,2.8v12.4h-2.5v-5h-4.6v5h-2.5V2.8h2.5v5.1h4.6V2.8H163.8z"/>
	<path d="M165.8,11c0-2.7,2.1-4.4,4.5-4.4s4.5,1.7,4.5,4.4c0,2.6-2.1,4.4-4.5,4.4S165.8,13.6,165.8,11z M172.4,11
		c0-1.3-1-2.2-2.1-2.2s-2.1,0.9-2.1,2.2c0,1.3,1,2.2,2.1,2.2S172.4,12.3,172.4,11z"/>
	<path d="M188.9,6.8l-3,8.4h-2l-1.7-5.5l-1.7,5.5h-2l-3.1-8.4h2.6l1.6,5.1l1.6-5.1h2l1.6,5.1l1.6-5.1H188.9z"/>
	<path d="M202.1,6.8l-5.2,12.5h-2.5l2-4.9L193,6.8h2.6l2,4.8l1.9-4.8C199.5,6.8,202.1,6.8,202.1,6.8z"/>
	<path d="M202.6,11c0-2.7,2.1-4.4,4.5-4.4s4.5,1.7,4.5,4.4c0,2.6-2.1,4.4-4.5,4.4S202.6,13.6,202.6,11z M209.2,11
		c0-1.3-1-2.2-2.1-2.2S205,9.7,205,11c0,1.3,1,2.2,2.1,2.2S209.2,12.3,209.2,11z"/>
	<path d="M221.6,6.8v8.4h-2.4v-1.4c-0.4,1.1-1.7,1.6-2.5,1.6c-2.2,0-3.3-1.5-3.3-4V6.8h2.4v4.4c0,1.3,0.8,1.9,1.6,1.9
		c0.8,0,1.9-0.4,1.9-2V6.8H221.6z"/>
	<path d="M230.1,6.9l-0.5,2.3c-0.5-0.3-0.9-0.3-1.2-0.3c-1.2,0-2,1.1-2,3.5v2.9H224V6.8h2.3v1.8c0.5-1.4,1.4-2,2.5-2
		C229.2,6.6,229.7,6.7,230.1,6.9z"/>
	<path d="M244.4,11c0,2.7-2,4.4-4.1,4.4c-1,0-2.1-0.4-2.7-1.2v5.2h-2.4V6.8h2.4v1c0.6-0.8,1.7-1.2,2.7-1.2
		C242.4,6.6,244.4,8.3,244.4,11z M242,11c0-1.2-1-2.2-2.2-2.2c-1.2,0-2.2,0.9-2.2,2.2c0,1.3,1.1,2.2,2.2,2.2
		C241,13.1,242,12.2,242,11z"/>
	<path d="M252.4,6.9l-0.5,2.3c-0.5-0.3-0.9-0.3-1.2-0.3c-1.2,0-2,1.1-2,3.5v2.9h-2.4V6.8h2.3v1.8c0.5-1.4,1.4-2,2.5-2
		C251.5,6.6,252,6.7,252.4,6.9z"/>
	<path d="M252.9,11c0-2.7,2.1-4.4,4.5-4.4c2.4,0,4.5,1.7,4.5,4.4c0,2.6-2.1,4.4-4.5,4.4C255,15.4,252.9,13.6,252.9,11z M259.6,11
		c0-1.3-1-2.2-2.1-2.2s-2.1,0.9-2.1,2.2c0,1.3,1,2.2,2.1,2.2S259.6,12.3,259.6,11z"/>
	<path d="M271.7,6.8l-3.5,8.4H266l-3.5-8.4h2.6l2.1,5.4l2-5.4C269.1,6.8,271.7,6.8,271.7,6.8z"/>
	<path d="M272.6,3.9c0-0.8,0.7-1.4,1.5-1.4c0.8,0,1.5,0.6,1.5,1.4s-0.7,1.4-1.5,1.4C273.3,5.3,272.6,4.7,272.6,3.9z M273,6.8h2.4
		v8.4H273V6.8z"/>
	<path d="M286.4,2.3v12.9H284v-1c-0.6,0.8-1.8,1.2-2.7,1.2c-2.2,0-4.1-1.7-4.1-4.4s2-4.4,4.1-4.4c1,0,2.1,0.4,2.7,1.2V2.3H286.4z
		 M283.9,11c0-1.3-1.1-2.2-2.2-2.2c-1.2,0-2.2,0.9-2.2,2.2c0,1.2,1,2.2,2.2,2.2C282.9,13.2,283.9,12.3,283.9,11z"/>
	<path d="M297,11.8h-6.3c0.3,1,1,1.5,2.2,1.5c0.8,0,1.7-0.3,2.2-0.9l1.4,1.4c-0.8,1.1-2.3,1.6-3.7,1.6c-2.6,0-4.5-1.8-4.5-4.4
		c0-2.7,2.1-4.4,4.5-4.4c2.4,0,4.4,1.7,4.4,4.3C297.1,11.1,297,11.4,297,11.8z M294.7,10.2c-0.1-1-0.9-1.6-2-1.6
		c-1,0-1.8,0.4-2.1,1.6H294.7z"/>
	<path d="M305,6.9l-0.5,2.3c-0.5-0.3-0.9-0.3-1.2-0.3c-1.2,0-2,1.1-2,3.5v2.9h-2.4V6.8h2.3v1.8c0.5-1.4,1.4-2,2.5-2
		C304.1,6.6,304.6,6.7,305,6.9z"/>
	<path d="M309.6,11c0-2.7,2.2-4.4,4.6-4.4c1.5,0,2.8,0.7,3.5,1.8L316,9.6c-0.4-0.5-1.1-0.8-1.8-0.8c-1.3,0-2.2,1-2.2,2.2
		c0,1.2,0.9,2.2,2.2,2.2c0.7,0,1.4-0.3,1.8-0.8l1.8,1.2c-0.8,1.1-2,1.8-3.5,1.8C311.7,15.4,309.6,13.6,309.6,11z"/>
	<path d="M327.6,10.6v4.6h-2.4v-4.4c0-1.3-0.8-1.9-1.6-1.9c-0.8,0-1.9,0.4-1.9,2v4.3h-2.4V2.3h2.4v5.8c0.4-1.1,1.7-1.5,2.5-1.5
		C326.5,6.6,327.7,8.1,327.6,10.6z"/>
	<path d="M338.6,6.8v8.4h-2.4v-1c-0.6,0.8-1.8,1.2-2.7,1.2c-2.2,0-4.1-1.7-4.1-4.4s2-4.4,4.1-4.4c1,0,2.1,0.4,2.7,1.2v-1H338.6z
		 M336.2,11c0-1.3-1.1-2.2-2.2-2.2c-1.2,0-2.2,0.9-2.2,2.2c0,1.2,1,2.2,2.2,2.2C335.1,13.2,336.2,12.3,336.2,11z"/>
	<path d="M347.1,6.9l-0.5,2.3c-0.5-0.3-0.9-0.3-1.2-0.3c-1.2,0-2,1.1-2,3.5v2.9H341V6.8h2.3v1.8c0.5-1.4,1.4-2,2.5-2
		C346.2,6.6,346.7,6.7,347.1,6.9z"/>
	<path d="M356.8,6.8V14c0,3.7-1.9,5.4-4.8,5.4c-1.8,0-3.4-1-4.1-2.6l2-0.8c0.4,0.8,1.2,1.3,2.1,1.3c1.5,0,2.5-0.8,2.5-3v-0.1
		c-0.6,0.8-1.8,1.2-2.7,1.2c-2.2,0-4.1-1.7-4.1-4.4s2-4.4,4.1-4.4c1,0,2.1,0.4,2.7,1.2v-1C354.5,6.8,356.8,6.8,356.8,6.8z M354.4,11
		c0-1.3-1.1-2.2-2.2-2.2c-1.2,0-2.2,0.9-2.2,2.2c0,1.2,1,2.2,2.2,2.2C353.4,13.2,354.4,12.3,354.4,11z"/>
	<path d="M367.5,11.8h-6.3c0.3,1,1,1.5,2.2,1.5c0.8,0,1.7-0.3,2.2-0.9l1.4,1.4c-0.8,1.1-2.3,1.6-3.7,1.6c-2.6,0-4.5-1.8-4.5-4.4
		c0-2.7,2.1-4.4,4.5-4.4c2.4,0,4.4,1.7,4.4,4.3C367.5,11.1,367.5,11.4,367.5,11.8z M365.2,10.2c-0.1-1-0.9-1.6-2-1.6
		c-1,0-1.8,0.4-2.1,1.6H365.2z"/>
	<path d="M368.8,12.5h2.2c0,0.5,0.4,1,1.2,1c0.7,0,1.2-0.3,1.2-0.8c0-0.4-0.3-0.5-0.9-0.7l-1.1-0.3c-2.2-0.6-2.4-1.8-2.4-2.7
		c0-1.3,1.4-2.5,3.3-2.5c1.5,0,3.3,0.8,3.3,2.7h-2.3c0-0.6-0.5-0.9-1-0.9c-0.5,0-1,0.3-1,0.7c0,0.4,0.4,0.6,0.8,0.7l1.4,0.4
		c2,0.5,2.3,1.8,2.3,2.5c0,1.8-1.8,2.6-3.5,2.6C370.5,15.4,368.8,14.4,368.8,12.5z"/>
</g>
<g>
	<g>
		<path fill="#6782E5" d="M236.9,251.9h-4.6l-1,3h-2.7l4.6-12.4h2.7l4.6,12.4h-2.6L236.9,251.9z M236.2,249.8l-1.6-4.7l-1.6,4.7
			H236.2z"/>
		<path fill="#6782E5" d="M241.2,248.7c0-3.5,2.8-6.3,6.3-6.3c2.1,0,3.9,1,5.1,2.6l-1.9,1.4c-0.7-1-1.7-1.6-3.1-1.6
			c-2.3,0-3.9,1.8-3.9,4s1.6,4,3.9,4c1.3,0,2.4-0.6,3.1-1.6l1.9,1.4c-1.1,1.5-3,2.6-5.1,2.6C244,255.1,241.2,252.2,241.2,248.7z"/>
		<path fill="#6782E5" d="M262.9,244.7h-3.4v10.2H257v-10.2h-3.4v-2.2h9.3L262.9,244.7L262.9,244.7z"/>
		<path fill="#6782E5" d="M264.8,250.5v-8h2.5v7.8c0,1.7,1.1,2.4,2.2,2.4c1.2,0,2.3-0.7,2.3-2.4v-7.8h2.5v8c0,2.9-2.2,4.6-4.8,4.6
			C267,255.1,264.8,253.4,264.8,250.5z"/>
		<path fill="#6782E5" d="M283.9,251.9h-4.6l-1,3h-2.7l4.6-12.4h2.7l4.6,12.4h-2.6L283.9,251.9z M283.2,249.8l-1.6-4.7l-1.6,4.7
			H283.2z"/>
		<path fill="#6782E5" d="M289.1,242.5h2.5v10.2h4.7v2.2h-7.2V242.5z"/>
		<path fill="#6782E5" d="M302.2,250.5v-8h2.5v7.8c0,1.7,1.1,2.4,2.2,2.4c1.2,0,2.3-0.7,2.3-2.4v-7.8h2.5v8c0,2.9-2.2,4.6-4.8,4.6
			C304.4,255.1,302.2,253.4,302.2,250.5z"/>
		<path fill="#6782E5" d="M314,251.3h2.5c0,0.9,0.9,1.6,2,1.6c1.1,0,1.9-0.6,1.9-1.5c0-0.7-0.5-1.2-1.6-1.5l-1.5-0.4
			c-2.7-0.7-3.2-2.4-3.2-3.5c0-2.2,1.9-3.7,4.3-3.7c2.3,0,4.1,1.4,4.1,3.8H320c0-0.9-0.6-1.6-1.7-1.6c-1,0-1.7,0.6-1.7,1.4
			c0,0.3,0.1,1,1.4,1.3l1.4,0.4c1.9,0.5,3.5,1.5,3.5,3.6c0,2.5-2.1,3.8-4.4,3.8C315.8,255.1,314,253.5,314,251.3z"/>
		<path fill="#6782E5" d="M331.9,251.9h-4.6l-1,3h-2.7l4.6-12.4h2.7l4.6,12.4h-2.6L331.9,251.9z M331.2,249.8l-1.6-4.7l-1.6,4.7
			H331.2z"/>
		<path fill="#6782E5" d="M336.2,248.7c0-3.5,2.8-6.4,6.3-6.4c1.9,0,3.5,0.8,4.6,2l-1.8,1.6c-0.7-0.8-1.7-1.2-2.8-1.2
			c-2.2,0-3.8,1.8-3.8,4.1c0,2.2,1.7,4.1,3.8,4.1c1.6,0,2.9-0.8,3.2-2.1c0-0.1,0.1-0.2,0.1-0.3h-3.5v-2h6.2c0,4.6-2.5,6.6-6,6.6
			C339,255.1,336.2,252.2,336.2,248.7z"/>
		<path fill="#6782E5" d="M358.6,252.7v2.2h-7.9v-12.4h7.8v2.2h-5.3v3h4.6v2.3h-4.6v2.8L358.6,252.7L358.6,252.7z"/>
	</g>
	<g>
		<path fill="#6782E5" d="M187,242.6l-4.8,6.8v5.6h-2.5v-5.6l-4.8-6.8h3l3.1,4.7l3.1-4.7H187z"/>
		<path fill="#6782E5" d="M186.8,248.8c0-3.5,2.8-6.4,6.3-6.4c3.5,0,6.3,2.8,6.3,6.4c0,3.5-2.8,6.4-6.3,6.4
			C189.6,255.2,186.8,252.4,186.8,248.8z M196.9,248.8c0-2.2-1.6-4-3.8-4c-2.2,0-3.8,1.8-3.8,4s1.6,4,3.8,4
			C195.4,252.9,196.9,251.1,196.9,248.8z"/>
		<path fill="#6782E5" d="M201.6,250.6v-8h2.5v7.8c0,1.7,1.1,2.4,2.2,2.4c1.2,0,2.3-0.7,2.3-2.4v-7.8h2.5v8c0,2.9-2.2,4.6-4.8,4.6
			C203.8,255.2,201.6,253.5,201.6,250.6z"/>
		<path fill="#6782E5" d="M217.3,250.6h-0.8v4.4H214v-12.4h5c2.8,0,4.1,2,4.1,4.1c0,1.8-0.9,3.3-3,3.8l3.2,4.6h-2.9L217.3,250.6z
			 M216.5,248.6h2c1.4,0,2-0.8,2-1.8s-0.6-1.9-1.8-1.9h-2.2L216.5,248.6L216.5,248.6z"/>
	</g>
</g>
<g>
	<g>
		<path fill="#FFFFFF" d="M153.2,98.7c0,2-1.2,4-4.1,4h-2.6v4.3h-2.5V94.7h5.1C151.9,94.7,153.2,96.7,153.2,98.7z M150.7,98.7
			c0-0.9-0.4-1.8-1.6-1.8h-2.5v3.7h2.4C150.2,100.5,150.7,99.6,150.7,98.7z"/>
		<path fill="#FFFFFF" d="M161.4,104.1h-4.6l-1,3h-2.7l4.6-12.4h2.7l4.6,12.4h-2.6L161.4,104.1z M160.6,101.9l-1.6-4.7l-1.6,4.7
			H160.6z"/>
		<path fill="#FFFFFF" d="M175.9,94.7l-4.8,6.8v5.6h-2.5v-5.6l-4.8-6.8h3l3.1,4.7l3.1-4.7H175.9z"/>
		<path fill="#FFFFFF" d="M177.6,94.7h2.5v12.4h-2.5V94.7z"/>
		<path fill="#FFFFFF" d="M192.5,94.7v12.4h-2.3l-4.5-7.8v7.8h-2.5V94.7h2.3l4.4,7.7v-7.7H192.5z"/>
		<path fill="#FFFFFF" d="M195,100.9c0-3.5,2.8-6.4,6.3-6.4c1.9,0,3.5,0.8,4.6,2l-1.8,1.6c-0.7-0.8-1.7-1.2-2.8-1.2
			c-2.2,0-3.8,1.8-3.8,4.1c0,2.2,1.7,4.1,3.8,4.1c1.6,0,2.9-0.8,3.2-2.1c0-0.1,0.1-0.2,0.1-0.3h-3.5v-2h6.2c0,4.6-2.5,6.6-6,6.6
			S195,104.4,195,100.9z"/>
		<path fill="#FFFFFF" d="M216.5,96.9v3h4.1v2.2h-4.1v5H214V94.7h7.7v2.2L216.5,96.9L216.5,96.9z"/>
		<path fill="#FFFFFF" d="M222.9,100.9c0-3.5,2.8-6.4,6.3-6.4c3.5,0,6.3,2.8,6.3,6.4c0,3.5-2.8,6.4-6.3,6.4
			C225.7,107.2,222.9,104.4,222.9,100.9z M233,100.9c0-2.2-1.6-4-3.8-4c-2.2,0-3.8,1.8-3.8,4c0,2.2,1.6,4,3.8,4
			C231.4,104.9,233,103.1,233,100.9z"/>
		<path fill="#FFFFFF" d="M241.3,102.6h-0.8v4.4H238V94.7h5c2.8,0,4.1,2,4.1,4.1c0,1.8-0.9,3.3-3,3.8l3.2,4.6h-2.9L241.3,102.6z
			 M240.5,100.6h2c1.4,0,2-0.8,2-1.8s-0.6-1.9-1.8-1.9h-2.2L240.5,100.6L240.5,100.6z"/>
		<path fill="#FFFFFF" d="M253.9,102.6v-8h2.5v7.8c0,1.7,1.1,2.4,2.2,2.4c1.2,0,2.3-0.7,2.3-2.4v-7.8h2.5v8c0,2.9-2.2,4.6-4.8,4.6
			C256.2,107.2,253.9,105.5,253.9,102.6z"/>
		<path fill="#FFFFFF" d="M275.7,94.7v12.4h-2.3l-4.5-7.8v7.8h-2.5V94.7h2.3l4.4,7.7v-7.7H275.7z"/>
		<path fill="#FFFFFF" d="M278.8,102.6v-8h2.5v7.8c0,1.7,1.1,2.4,2.2,2.4c1.2,0,2.3-0.7,2.3-2.4v-7.8h2.5v8c0,2.9-2.2,4.6-4.8,4.6
			C281,107.2,278.8,105.5,278.8,102.6z"/>
		<path fill="#FFFFFF" d="M290.7,103.4h2.5c0,0.9,0.9,1.6,2,1.6c1.1,0,1.9-0.6,1.9-1.5c0-0.7-0.5-1.2-1.6-1.5l-1.5-0.4
			c-2.7-0.7-3.2-2.4-3.2-3.5c0-2.2,1.9-3.7,4.3-3.7c2.3,0,4.1,1.4,4.1,3.8h-2.5c0-0.9-0.6-1.6-1.7-1.6c-1,0-1.7,0.6-1.7,1.4
			c0,0.3,0.1,1,1.4,1.3l1.4,0.4c1.9,0.5,3.5,1.5,3.5,3.6c0,2.5-2.1,3.8-4.4,3.8C292.5,107.2,290.7,105.6,290.7,103.4z"/>
		<path fill="#FFFFFF" d="M310,104.9v2.2H302V94.7h7.8v2.2h-5.3v3h4.6v2.3h-4.6v2.8H310z"/>
		<path fill="#FFFFFF" d="M312.5,94.7h4.9c3.6,0,5.6,2.7,5.6,6.2c0,3.5-2.1,6.2-5.6,6.2h-4.9V94.7z M317.4,104.9
			c2.1,0,3.1-1.8,3.1-4s-1.1-4-3.1-4H315v8H317.4z"/>
		<path fill="#FFFFFF" d="M333.3,102.6h-0.8v4.4H330V94.7h5c2.8,0,4.1,2,4.1,4.1c0,1.8-0.9,3.3-3,3.8l3.2,4.6h-2.9L333.3,102.6z
			 M332.5,100.6h2c1.4,0,2-0.8,2-1.8s-0.6-1.9-1.8-1.9h-2.2L332.5,100.6L332.5,100.6z"/>
		<path fill="#FFFFFF" d="M349.6,104.9v2.2h-7.9V94.7h7.8v2.2h-5.3v3h4.6v2.3h-4.6v2.8H349.6z"/>
		<path fill="#FFFFFF" d="M351.4,103.4h2.5c0,0.9,0.9,1.6,2,1.6c1.1,0,1.9-0.6,1.9-1.5c0-0.7-0.5-1.2-1.6-1.5l-1.5-0.4
			c-2.7-0.7-3.2-2.4-3.2-3.5c0-2.2,1.9-3.7,4.3-3.7c2.3,0,4.1,1.4,4.1,3.8h-2.5c0-0.9-0.6-1.6-1.7-1.6c-1,0-1.7,0.6-1.7,1.4
			c0,0.3,0.1,1,1.4,1.3l1.4,0.4c1.9,0.5,3.5,1.5,3.5,3.6c0,2.5-2.1,3.8-4.4,3.8C353.2,107.2,351.4,105.6,351.4,103.4z"/>
		<path fill="#FFFFFF" d="M362,100.9c0-3.5,2.8-6.4,6.3-6.4c3.5,0,6.3,2.8,6.3,6.4c0,3.5-2.8,6.4-6.3,6.4
			C364.8,107.2,362,104.4,362,100.9z M372.1,100.9c0-2.2-1.6-4-3.8-4c-2.2,0-3.8,1.8-3.8,4c0,2.2,1.6,4,3.8,4
			C370.5,104.9,372.1,103.1,372.1,100.9z"/>
		<path fill="#FFFFFF" d="M377,102.6v-8h2.5v7.8c0,1.7,1.1,2.4,2.2,2.4c1.2,0,2.3-0.7,2.3-2.4v-7.8h2.5v8c0,2.9-2.2,4.6-4.8,4.6
			C379.2,107.2,377,105.5,377,102.6z"/>
		<path fill="#FFFFFF" d="M392.9,102.6H392v4.4h-2.5V94.7h5c2.8,0,4.1,2,4.1,4.1c0,1.8-0.9,3.3-3,3.8l3.2,4.6h-2.9L392.9,102.6z
			 M392,100.6h2c1.4,0,2-0.8,2-1.8s-0.6-1.9-1.8-1.9H392L392,100.6L392,100.6z"/>
		<path fill="#FFFFFF" d="M400.3,100.9c0-3.5,2.8-6.3,6.3-6.3c2.1,0,3.9,1,5.1,2.6l-1.9,1.4c-0.7-1-1.7-1.6-3.1-1.6
			c-2.3,0-3.9,1.8-3.9,4s1.6,4,3.9,4c1.3,0,2.4-0.6,3.1-1.6l1.9,1.4c-1.1,1.5-3,2.6-5.1,2.6C403.1,107.2,400.3,104.4,400.3,100.9z"
			/>
		<path fill="#FFFFFF" d="M421.8,104.9v2.2h-7.9V94.7h7.8v2.2h-5.3v3h4.6v2.3h-4.6v2.8H421.8z"/>
		<path fill="#FFFFFF" d="M423.7,103.4h2.5c0,0.9,0.9,1.6,2,1.6c1.1,0,1.9-0.6,1.9-1.5c0-0.7-0.5-1.2-1.6-1.5l-1.5-0.4
			c-2.7-0.7-3.2-2.4-3.2-3.5c0-2.2,1.9-3.7,4.3-3.7c2.3,0,4.1,1.4,4.1,3.8h-2.5c0-0.9-0.6-1.6-1.7-1.6c-1,0-1.7,0.6-1.7,1.4
			c0,0.3,0.1,1,1.4,1.3l1.4,0.4c1.9,0.5,3.5,1.5,3.5,3.6c0,2.5-2.1,3.8-4.4,3.8C425.5,107.2,423.7,105.6,423.7,103.4z"/>
	</g>
	<g>
		<path fill="#FFFFFF" d="M112.8,94.7l-4.8,6.8v5.6h-2.5v-5.6l-4.8-6.8h3l3.1,4.7l3.1-4.7H112.8z"/>
		<path fill="#FFFFFF" d="M112.6,100.9c0-3.5,2.8-6.4,6.3-6.4c3.5,0,6.3,2.8,6.3,6.4c0,3.5-2.8,6.4-6.3,6.4
			C115.4,107.2,112.6,104.4,112.6,100.9z M122.7,100.9c0-2.2-1.6-4-3.8-4c-2.2,0-3.8,1.8-3.8,4s1.6,4,3.8,4
			C121.2,104.9,122.7,103.1,122.7,100.9z"/>
		<path fill="#FFFFFF" d="M127.4,102.6v-8h2.5v7.8c0,1.7,1.1,2.4,2.2,2.4c1.2,0,2.3-0.7,2.3-2.4v-7.8h2.5v8c0,2.9-2.2,4.6-4.8,4.6
			C129.6,107.2,127.4,105.5,127.4,102.6z"/>
	</g>
</g>
</svg>
